<svg width="820" height="552" xmlns="http://www.w3.org/2000/svg" font-family="sans-serif" font-size="12">
<rect width="820" height="552" fill="white"/>
<line x1="58" y1="248.0" x2="800" y2="248.0" stroke="#e5e7eb" stroke-width="1"/>
<line x1="58" y1="193.0" x2="800" y2="193.0" stroke="#e5e7eb" stroke-width="1"/>
<line x1="58" y1="138.0" x2="800" y2="138.0" stroke="#e5e7eb" stroke-width="1"/>
<line x1="58" y1="83.0" x2="800" y2="83.0" stroke="#e5e7eb" stroke-width="1"/>
<line x1="58" y1="28.0" x2="800" y2="28.0" stroke="#e5e7eb" stroke-width="1"/>
<path d="M58.0,123.8L61.1,123.9L64.2,124.1L67.3,124.1L70.4,124.2L73.5,124.3L76.6,124.4L79.7,124.5L82.8,124.6L85.9,124.7L89.0,124.7L92.2,124.7L95.3,124.8L98.4,125.0L101.5,125.1L104.6,125.2L107.7,125.4L110.8,125.6L113.9,125.7L117.0,125.7L120.1,125.8L123.2,125.9L126.3,126.0L129.4,126.0L132.5,126.1L135.6,126.1L138.7,126.2L141.8,126.2L144.9,126.2L148.0,126.1L151.1,126.0L154.2,125.9L157.3,125.7L160.5,125.6L163.6,125.4L166.7,125.2L169.8,124.9L172.9,124.6L176.0,124.4L179.1,124.2L182.2,123.9L185.3,123.6L188.4,123.3L191.5,123.1L194.6,122.8L197.7,122.6L200.8,122.4L203.9,122.3L207.0,122.2L210.1,122.2L213.2,122.1L216.3,122.1L219.4,122.1L222.5,122.1L225.6,122.0L228.8,122.0L231.9,122.1L235.0,122.1L238.1,122.2L241.2,122.2L244.3,122.4L247.4,122.5L250.5,122.7L253.6,123.0L256.7,123.3L259.8,123.5L262.9,123.8L266.0,124.0L269.1,124.2L272.2,124.4L275.3,124.5L278.4,124.5L281.5,124.5L284.6,124.5L287.7,124.5L290.8,124.5L293.9,124.3L297.1,124.3L300.2,124.2L303.3,124.2L306.4,124.2L309.5,124.2L312.6,124.3L315.7,124.4L318.8,124.5L321.9,124.5L325.0,124.6L328.1,124.7L331.2,124.7L334.3,124.7L337.4,124.8L340.5,124.8L343.6,124.7L346.7,124.7L349.8,124.7L352.9,124.7L356.0,124.8L359.1,124.8L362.3,124.9L365.4,124.9L368.5,125.0L371.6,125.0L374.7,125.1L377.8,125.1L380.9,125.1L384.0,125.1L387.1,125.1L390.2,125.2L393.3,125.2L396.4,125.1L399.5,125.1L402.6,125.0L405.7,125.0L408.8,124.9L411.9,124.9L415.0,125.0L418.1,125.1L421.2,125.2L424.3,125.2L427.4,125.3L430.6,125.4L433.7,125.6L436.8,125.7L439.9,125.9L443.0,126.1L446.1,126.2L449.2,126.3L452.3,126.5L455.4,126.7L458.5,126.8L461.6,127.0L464.7,127.1L467.8,127.3L470.9,127.5L474.0,127.8L477.1,128.0L480.2,128.1L483.3,128.3L486.4,128.4L489.5,128.4L492.6,128.5L495.7,128.5L498.9,128.6L502.0,128.8L505.1,129.0L508.2,129.1L511.3,129.1L514.4,129.2L517.5,129.4L520.6,129.5L523.7,129.5L526.8,129.5L529.9,129.5L533.0,129.4L536.1,129.3L539.2,129.3L542.3,129.2L545.4,129.1L548.5,129.0L551.6,129.0L554.7,128.9L557.8,128.7L560.9,128.6L564.1,128.4L567.2,128.2L570.3,128.1L573.4,127.9L576.5,127.7L579.6,127.5L582.7,127.3L585.8,127.0L588.9,126.8L592.0,126.7L595.1,126.6L598.2,126.5L601.3,126.4L604.4,126.3L607.5,126.3L610.6,126.2L613.7,126.1L616.8,126.1L619.9,126.0L623.0,126.0L626.1,126.0L629.2,126.0L632.4,126.0L635.5,126.1L638.6,126.3L641.7,126.4L644.8,126.6L647.9,126.8L651.0,127.1L654.1,127.3L657.2,127.4L660.3,127.4L663.4,127.5L666.5,127.6L669.6,127.7L672.7,127.8L675.8,127.9L678.9,128.0L682.0,128.2L685.1,128.3L688.2,128.4L691.3,128.5L694.4,128.5L697.5,128.6L700.7,128.6L703.8,128.6L706.9,128.7L710.0,128.8L713.1,128.8L716.2,128.9L719.3,129.1L722.4,129.1L725.5,129.1L728.6,129.2L731.7,129.3L734.8,129.4L737.9,129.6L741.0,129.7L744.1,129.8L747.2,129.9L750.3,130.0L753.4,130.0L756.5,130.1L759.6,130.3L762.7,130.4L765.8,130.5L769.0,130.5L772.1,130.5L775.2,130.6L778.3,130.7L781.4,130.6L784.5,130.5L787.6,130.3L790.7,130.2L793.8,130.0L796.9,129.9L800.0,129.7L800.0,146.3L796.9,146.1L793.8,145.9L790.7,145.8L787.6,145.7L784.5,145.6L781.4,145.5L778.3,145.3L775.2,145.0L772.1,144.7L769.0,144.5L765.8,144.3L762.7,144.0L759.6,143.8L756.5,143.5L753.4,143.2L750.3,143.0L747.2,142.8L744.1,142.6L741.0,142.3L737.9,142.1L734.8,141.8L731.7,141.6L728.6,141.4L725.5,141.2L722.4,141.1L719.3,140.9L716.2,140.7L713.1,140.5L710.0,140.4L706.9,140.1L703.8,140.0L700.7,139.9L697.5,139.8L694.4,139.7L691.3,139.6L688.2,139.5L685.1,139.3L682.0,139.1L678.9,138.9L675.8,138.8L672.7,138.7L669.6,138.5L666.5,138.4L663.4,138.3L660.3,138.2L657.2,138.3L654.1,138.1L651.0,138.0L647.9,137.8L644.8,137.5L641.7,137.4L638.6,137.3L635.5,137.2L632.4,137.2L629.2,137.2L626.1,137.3L623.0,137.3L619.9,137.4L616.8,137.5L613.7,137.6L610.6,137.7L607.5,137.8L604.4,138.0L601.3,138.1L598.2,138.2L595.1,138.4L592.0,138.5L588.9,138.7L585.8,138.9L582.7,139.2L579.6,139.4L576.5,139.7L573.4,139.8L570.3,140.1L567.2,140.2L564.1,140.4L560.9,140.6L557.8,140.7L554.7,140.8L551.6,140.9L548.5,141.0L545.4,141.0L542.3,141.0L539.2,141.1L536.1,141.1L533.0,141.1L529.9,141.1L526.8,141.1L523.7,141.1L520.6,141.0L517.5,140.8L514.4,140.6L511.3,140.5L508.2,140.3L505.1,140.2L502.0,140.0L498.9,139.7L495.7,139.6L492.6,139.5L489.5,139.4L486.4,139.3L483.3,139.1L480.2,139.0L477.1,138.8L474.0,138.6L470.9,138.3L467.8,138.1L464.7,137.9L461.6,137.8L458.5,137.6L455.4,137.5L452.3,137.4L449.2,137.2L446.1,137.1L443.0,137.0L439.9,136.8L436.8,136.7L433.7,136.6L430.6,136.5L427.4,136.4L424.3,136.4L421.2,136.4L418.1,136.4L415.0,136.4L411.9,136.4L408.8,136.4L405.7,136.5L402.6,136.6L399.5,136.8L396.4,136.9L393.3,136.9L390.2,137.0L387.1,136.9L384.0,137.0L380.9,137.0L377.8,137.0L374.7,137.0L371.6,137.0L368.5,137.0L365.4,136.9L362.3,136.9L359.1,136.8L356.0,136.8L352.9,136.7L349.8,136.7L346.7,136.6L343.6,136.6L340.5,136.6L337.4,136.6L334.3,136.5L331.2,136.5L328.1,136.4L325.0,136.3L321.9,136.1L318.8,136.0L315.7,135.9L312.6,135.7L309.5,135.6L306.4,135.5L303.3,135.5L300.2,135.4L297.1,135.4L293.9,135.4L290.8,135.5L287.7,135.5L284.6,135.5L281.5,135.4L278.4,135.4L275.3,135.3L272.2,135.2L269.1,135.0L266.0,134.8L262.9,134.6L259.8,134.3L256.7,134.1L253.6,133.8L250.5,133.5L247.4,133.4L244.3,133.3L241.2,133.1L238.1,133.1L235.0,133.1L231.9,133.1L228.8,133.2L225.6,133.2L222.5,133.3L219.4,133.4L216.3,133.5L213.2,133.6L210.1,133.7L207.0,133.8L203.9,134.0L200.8,134.1L197.7,134.4L194.6,134.7L191.5,135.0L188.4,135.3L185.3,135.7L182.2,136.0L179.1,136.4L176.0,136.7L172.9,137.0L169.8,137.3L166.7,137.6L163.6,137.8L160.5,138.1L157.3,138.3L154.2,138.4L151.1,138.6L148.0,138.7L144.9,138.8L141.8,138.9L138.7,138.9L135.6,138.9L132.5,138.8L129.4,138.8L126.3,138.8L123.2,138.7L120.1,138.7L117.0,138.6L113.9,138.6L110.8,138.5L107.7,138.4L104.6,138.3L101.5,138.2L98.4,138.2L95.3,138.1L92.2,138.1L89.0,138.2L85.9,138.3L82.8,138.4L79.7,138.4L76.6,138.5L73.5,138.6L70.4,138.8L67.3,138.9L64.2,139.1L61.1,139.3L58.0,139.5Z" fill="#3b82f6" fill-opacity="0.15" stroke="none"/>
<polyline points="58.0,155.1 61.1,153.8 64.2,149.4 67.3,129.4 70.4,127.1 73.5,128.8 76.6,111.3 79.7,113.3 82.8,107.0 85.9,134.1 89.0,66.8 92.2,74.7 95.3,90.7 98.4,81.0 101.5,89.7 104.6,70.8 107.7,92.7 110.8,104.3 113.9,132.4 117.0,86.1 120.1,99.1 123.2,105.4 126.3,136.9 129.4,87.4 132.5,119.6 135.6,126.5 138.7,143.6 141.8,117.7 144.9,150.3 148.0,110.9 151.1,133.0 154.2,115.5 157.3,100.3 160.5,131.1 163.6,103.8 166.7,114.2 169.8,75.7 172.9,79.2 176.0,85.7 179.1,105.8 182.2,75.4 185.3,66.0 188.4,80.7 191.5,86.7 194.6,63.0 197.7,73.5 200.8,56.7 203.9,100.0 207.0,104.4 210.1,96.3 213.2,100.0 216.3,113.3 219.4,142.0 222.5,119.1 225.6,124.6 228.8,122.4 231.9,128.1 235.0,124.1 238.1,125.0 241.2,103.7 244.3,119.0 247.4,122.8 250.5,80.6 253.6,133.9 256.7,121.0 259.8,111.5 262.9,116.9 266.0,128.0 269.1,141.5 272.2,115.7 275.3,145.2 278.4,138.7 281.5,113.2 284.6,136.9 287.7,166.1 290.8,154.1 293.9,121.7 297.1,141.8 300.2,157.1 303.3,154.1 306.4,172.7 309.5,138.9 312.6,165.7 315.7,197.0 318.8,167.1 321.9,181.7 325.0,176.1 328.1,182.7 331.2,174.3 334.3,171.5 337.4,165.6 340.5,167.5 343.6,168.6 346.7,129.2 349.8,147.4 352.9,125.0 356.0,163.8 359.1,134.9 362.3,144.4 365.4,153.8 368.5,145.9 371.6,164.9 374.7,148.6 377.8,178.6 380.9,172.7 384.0,153.4 387.1,155.0 390.2,189.0 393.3,201.1 396.4,182.5 399.5,182.9 402.6,188.6 405.7,158.9 408.8,161.8 411.9,144.5 415.0,169.2 418.1,170.1 421.2,152.2 424.3,149.9 427.4,125.2 430.6,128.8 433.7,126.1 436.8,134.3 439.9,114.8 443.0,145.5 446.1,114.3 449.2,96.9 452.3,137.5 455.4,117.9 458.5,120.1 461.6,120.9 464.7,122.1 467.8,121.1 470.9,114.2 474.0,148.6 477.1,178.1 480.2,136.3 483.3,128.1 486.4,190.5 489.5,131.4 492.6,139.6 495.7,118.5 498.9,111.0 502.0,130.0 505.1,143.6 508.2,120.4 511.3,110.6 514.4,87.9 517.5,119.6 520.6,116.4 523.7,118.3 526.8,92.6 529.9,90.6 533.0,97.9 536.1,80.5 539.2,90.9 542.3,79.8 545.4,101.9 548.5,88.0 551.6,112.2 554.7,110.4 557.8,111.6 560.9,112.6 564.1,124.4 567.2,115.7 570.3,127.9 573.4,111.2 576.5,124.5 579.6,128.8 582.7,126.6 585.8,114.4 588.9,79.3 592.0,106.1 595.1,101.0 598.2,92.3 601.3,93.2 604.4,104.8 607.5,90.8 610.6,87.1 613.7,74.9 616.8,97.7 619.9,57.3 623.0,94.9 626.1,100.3 629.2,74.3 632.4,83.9 635.5,81.8 638.6,120.8 641.7,96.4 644.8,93.7 647.9,132.5 651.0,161.9 654.1,153.5 657.2,206.6 660.3,93.6 663.4,156.6 666.5,131.4 669.6,155.4 672.7,162.7 675.8,137.7 678.9,147.9 682.0,129.8 685.1,150.9 688.2,157.1 691.3,145.7 694.4,134.6 697.5,138.4 700.7,119.2 703.8,125.8 706.9,110.9 710.0,161.6 713.1,110.6 716.2,135.5 719.3,172.0 722.4,163.4 725.5,127.4 728.6,180.0 731.7,137.5 734.8,169.2 737.9,181.9 741.0,184.9 744.1,203.0 747.2,179.6 750.3,190.5 753.4,184.4 756.5,162.8 759.6,209.7 762.7,180.5 765.8,212.5 769.0,168.3 772.1,149.3 775.2,164.4 778.3,196.7 781.4,196.1 784.5,159.6 787.6,129.7 790.7,185.6 793.8,131.2 796.9,140.3 800.0,158.0" fill="none" stroke="#9ca3af" stroke-width="1" opacity="0.7"/>
<polyline points="58.0,131.6 61.1,131.6 64.2,131.6 67.3,131.5 70.4,131.5 73.5,131.5 76.6,131.5 79.7,131.5 82.8,131.5 85.9,131.5 89.0,131.4 92.2,131.4 95.3,131.5 98.4,131.6 101.5,131.7 104.6,131.8 107.7,131.9 110.8,132.1 113.9,132.2 117.0,132.2 120.1,132.2 123.2,132.3 126.3,132.4 129.4,132.4 132.5,132.4 135.6,132.5 138.7,132.5 141.8,132.5 144.9,132.5 148.0,132.4 151.1,132.3 154.2,132.1 157.3,132.0 160.5,131.8 163.6,131.6 166.7,131.4 169.8,131.1 172.9,130.8 176.0,130.6 179.1,130.3 182.2,130.0 185.3,129.6 188.4,129.3 191.5,129.0 194.6,128.7 197.7,128.5 200.8,128.3 203.9,128.2 207.0,128.0 210.1,127.9 213.2,127.8 216.3,127.8 219.4,127.8 222.5,127.7 225.6,127.6 228.8,127.6 231.9,127.6 235.0,127.6 238.1,127.6 241.2,127.7 244.3,127.8 247.4,128.0 250.5,128.1 253.6,128.4 256.7,128.7 259.8,128.9 262.9,129.2 266.0,129.4 269.1,129.6 272.2,129.8 275.3,129.9 278.4,130.0 281.5,130.0 284.6,130.0 287.7,130.0 290.8,130.0 293.9,129.9 297.1,129.8 300.2,129.8 303.3,129.8 306.4,129.9 309.5,129.9 312.6,130.0 315.7,130.2 318.8,130.2 321.9,130.3 325.0,130.4 328.1,130.5 331.2,130.6 334.3,130.6 337.4,130.7 340.5,130.7 343.6,130.7 346.7,130.7 349.8,130.7 352.9,130.7 356.0,130.8 359.1,130.8 362.3,130.9 365.4,130.9 368.5,131.0 371.6,131.0 374.7,131.0 377.8,131.1 380.9,131.1 384.0,131.0 387.1,131.0 390.2,131.1 393.3,131.1 396.4,131.0 399.5,130.9 402.6,130.8 405.7,130.7 408.8,130.7 411.9,130.7 415.0,130.7 418.1,130.8 421.2,130.8 424.3,130.8 427.4,130.9 430.6,131.0 433.7,131.1 436.8,131.2 439.9,131.4 443.0,131.5 446.1,131.6 449.2,131.8 452.3,131.9 455.4,132.1 458.5,132.2 461.6,132.4 464.7,132.5 467.8,132.7 470.9,132.9 474.0,133.2 477.1,133.4 480.2,133.6 483.3,133.7 486.4,133.9 489.5,133.9 492.6,134.0 495.7,134.1 498.9,134.2 502.0,134.4 505.1,134.6 508.2,134.7 511.3,134.8 514.4,134.9 517.5,135.1 520.6,135.2 523.7,135.3 526.8,135.3 529.9,135.3 533.0,135.3 536.1,135.2 539.2,135.2 542.3,135.1 545.4,135.1 548.5,135.0 551.6,134.9 554.7,134.8 557.8,134.7 560.9,134.6 564.1,134.4 567.2,134.2 570.3,134.1 573.4,133.8 576.5,133.7 579.6,133.5 582.7,133.2 585.8,133.0 588.9,132.7 592.0,132.6 595.1,132.5 598.2,132.3 601.3,132.2 604.4,132.2 607.5,132.0 610.6,131.9 613.7,131.8 616.8,131.8 619.9,131.7 623.0,131.7 626.1,131.6 629.2,131.6 632.4,131.6 635.5,131.7 638.6,131.8 641.7,131.9 644.8,132.1 647.9,132.3 651.0,132.5 654.1,132.7 657.2,132.8 660.3,132.8 663.4,132.9 666.5,133.0 669.6,133.1 672.7,133.3 675.8,133.4 678.9,133.5 682.0,133.6 685.1,133.8 688.2,133.9 691.3,134.0 694.4,134.1 697.5,134.2 700.7,134.2 703.8,134.3 706.9,134.4 710.0,134.6 713.1,134.7 716.2,134.8 719.3,135.0 722.4,135.1 725.5,135.2 728.6,135.3 731.7,135.4 734.8,135.6 737.9,135.8 741.0,136.0 744.1,136.2 747.2,136.3 750.3,136.5 753.4,136.6 756.5,136.8 759.6,137.0 762.7,137.2 765.8,137.4 769.0,137.5 772.1,137.6 775.2,137.8 778.3,138.0 781.4,138.0 784.5,138.0 787.6,138.0 790.7,138.0 793.8,138.0 796.9,138.0 800.0,138.0" fill="none" stroke="#2563eb" stroke-width="2"/>
<polyline points="58.0,132.3 61.1,131.3 64.2,131.4 67.3,131.5 70.4,132.4 73.5,131.8 76.6,131.7 79.7,130.7 82.8,130.8 85.9,131.7 89.0,130.9 92.2,129.7 95.3,130.4 98.4,130.4 101.5,131.5 104.6,130.3 107.7,131.7 110.8,132.0 113.9,130.6 117.0,130.8 120.1,129.7 123.2,130.8 126.3,129.8 129.4,128.5 132.5,129.0 135.6,127.3 138.7,127.2 141.8,128.2 144.9,126.5 148.0,127.5 151.1,128.2 154.2,128.9 157.3,128.1 160.5,128.3 163.6,127.5 166.7,127.9 169.8,127.4 172.9,127.3 176.0,128.3 179.1,127.0 182.2,125.9 185.3,125.7 188.4,125.5 191.5,127.4 194.6,128.6 197.7,128.0 200.8,127.0 203.9,127.3 207.0,127.6 210.1,128.3 213.2,129.1 216.3,128.1 219.4,126.9 222.5,125.6 225.6,125.8 228.8,125.4 231.9,126.5 235.0,127.7 238.1,126.5 241.2,126.1 244.3,125.4 247.4,125.8 250.5,125.4 253.6,126.2 256.7,125.5 259.8,125.9 262.9,127.7 266.0,128.0 269.1,127.4 272.2,127.9 275.3,127.8 278.4,128.0 281.5,127.1 284.6,127.3 287.7,127.5 290.8,127.6 293.9,127.0 297.1,127.0 300.2,127.5 303.3,126.6 306.4,127.3 309.5,127.5 312.6,126.8 315.7,126.9 318.8,126.5 321.9,127.4 325.0,128.1 328.1,129.0 331.2,129.6 334.3,129.8 337.4,129.7 340.5,128.4 343.6,125.7 346.7,125.3 349.8,125.2 352.9,125.4 356.0,124.6 359.1,124.5 362.3,125.2 365.4,125.7 368.5,125.0 371.6,125.0 374.7,123.6 377.8,123.7 380.9,123.5 384.0,124.2 387.1,123.8 390.2,124.6 393.3,122.8 396.4,122.9 399.5,123.8 402.6,124.2 405.7,125.6 408.8,124.6 411.9,124.0 415.0,125.4 418.1,125.4 421.2,125.9 424.3,125.1 427.4,125.2 430.6,125.2 433.7,126.1 436.8,126.4 439.9,126.3 443.0,127.6 446.1,128.4 449.2,128.0 452.3,128.5 455.4,130.0 458.5,130.6 461.6,131.6 464.7,131.8 467.8,131.8 470.9,130.2 474.0,131.3 477.1,131.1 480.2,129.5 483.3,129.4 486.4,127.8 489.5,127.6 492.6,126.2 495.7,127.5 498.9,127.4 502.0,127.3 505.1,128.7 508.2,127.8 511.3,127.9 514.4,128.9 517.5,129.7 520.6,128.8 523.7,128.9 526.8,129.5 529.9,130.1 533.0,130.2 536.1,130.7 539.2,130.4 542.3,130.6 545.4,129.7 548.5,129.5 551.6,130.5 554.7,130.5 557.8,128.6 560.9,128.3 564.1,128.8 567.2,129.4 570.3,129.1 573.4,128.0 576.5,128.6 579.6,129.5 582.7,128.4 585.8,127.9 588.9,128.8 592.0,127.7 595.1,127.9 598.2,128.7 601.3,128.4 604.4,129.6 607.5,129.9 610.6,128.9 613.7,129.8 616.8,128.9 619.9,129.0 623.0,129.5 626.1,129.5 629.2,129.8 632.4,130.9 635.5,131.2 638.6,131.3 641.7,130.9 644.8,130.2 647.9,130.8 651.0,130.3 654.1,129.8 657.2,130.5 660.3,130.8 663.4,129.6 666.5,130.4 669.6,132.2 672.7,131.5 675.8,131.7 678.9,131.8 682.0,130.4 685.1,130.8 688.2,132.8 691.3,132.7 694.4,133.1 697.5,132.5 700.7,132.7 703.8,131.2 706.9,131.4 710.0,132.7 713.1,133.1 716.2,133.3 719.3,134.5 722.4,135.0 725.5,135.4 728.6,135.9 731.7,136.4 734.8,136.6 737.9,135.7 741.0,136.2 744.1,136.1 747.2,136.4 750.3,138.2 753.4,139.2 756.5,139.6 759.6,138.8 762.7,139.5 765.8,139.3 769.0,139.1 772.1,139.5 775.2,137.7 778.3,138.5 781.4,137.8 784.5,137.6 787.6,137.9 790.7,137.1 793.8,137.6 796.9,139.0 800.0,139.0" fill="none" stroke="#16a34a" stroke-width="1.2" stroke-dasharray="4 3" opacity="0.6"/>
<line x1="53" y1="248.0" x2="58" y2="248.0" stroke="#333" stroke-width="1.5"/>
<text x="50" y="248.0" text-anchor="end" dominant-baseline="middle" fill="#333">295</text>
<line x1="53" y1="193.0" x2="58" y2="193.0" stroke="#333" stroke-width="1.5"/>
<text x="50" y="193.0" text-anchor="end" dominant-baseline="middle" fill="#333">300</text>
<line x1="53" y1="138.0" x2="58" y2="138.0" stroke="#333" stroke-width="1.5"/>
<text x="50" y="138.0" text-anchor="end" dominant-baseline="middle" fill="#333">305</text>
<line x1="53" y1="83.0" x2="58" y2="83.0" stroke="#333" stroke-width="1.5"/>
<text x="50" y="83.0" text-anchor="end" dominant-baseline="middle" fill="#333">310</text>
<line x1="53" y1="28.0" x2="58" y2="28.0" stroke="#333" stroke-width="1.5"/>
<text x="50" y="28.0" text-anchor="end" dominant-baseline="middle" fill="#333">315</text>
<line x1="129.4" y1="248" x2="129.4" y2="253" stroke="#333" stroke-width="1.5"/>
<text x="129.4" y="266" text-anchor="middle" fill="#333">Y2</text>
<line x1="203.9" y1="248" x2="203.9" y2="253" stroke="#333" stroke-width="1.5"/>
<text x="203.9" y="266" text-anchor="middle" fill="#333">Y4</text>
<line x1="278.4" y1="248" x2="278.4" y2="253" stroke="#333" stroke-width="1.5"/>
<text x="278.4" y="266" text-anchor="middle" fill="#333">Y6</text>
<line x1="352.9" y1="248" x2="352.9" y2="253" stroke="#333" stroke-width="1.5"/>
<text x="352.9" y="266" text-anchor="middle" fill="#333">Y8</text>
<line x1="427.4" y1="248" x2="427.4" y2="253" stroke="#333" stroke-width="1.5"/>
<text x="427.4" y="266" text-anchor="middle" fill="#333">Y10</text>
<line x1="502.0" y1="248" x2="502.0" y2="253" stroke="#333" stroke-width="1.5"/>
<text x="502.0" y="266" text-anchor="middle" fill="#333">Y12</text>
<line x1="576.5" y1="248" x2="576.5" y2="253" stroke="#333" stroke-width="1.5"/>
<text x="576.5" y="266" text-anchor="middle" fill="#333">Y14</text>
<line x1="651.0" y1="248" x2="651.0" y2="253" stroke="#333" stroke-width="1.5"/>
<text x="651.0" y="266" text-anchor="middle" fill="#333">Y16</text>
<line x1="725.5" y1="248" x2="725.5" y2="253" stroke="#333" stroke-width="1.5"/>
<text x="725.5" y="266" text-anchor="middle" fill="#333">Y18</text>
<line x1="800.0" y1="248" x2="800.0" y2="253" stroke="#333" stroke-width="1.5"/>
<text x="800.0" y="266" text-anchor="middle" fill="#333">Y20</text>
<line x1="58" y1="28" x2="58" y2="248" stroke="#333" stroke-width="1.5"/>
<line x1="58" y1="248" x2="800" y2="248" stroke="#333" stroke-width="1.5"/>
<text transform="rotate(-90)" x="-138" y="16" text-anchor="middle" fill="#374151" font-size="11">Ozone proxy</text>
<line x1="565" y1="42" x2="589" y2="42" stroke="#9ca3af" stroke-width="1"/>
<text x="595" y="46" fill="#374151" font-size="11">Observations</text>
<line x1="565" y1="58" x2="589" y2="58" stroke="#2563eb" stroke-width="2"/>
<text x="595" y="62" fill="#374151" font-size="11">Smoothed level μ̂(t)</text>
<line x1="565" y1="74" x2="589" y2="74" stroke="#16a34a" stroke-width="1.2" stroke-dasharray="4 3"/>
<text x="595" y="78" fill="#374151" font-size="11">True level μ(t)</text>
<text x="429" y="20" text-anchor="middle" fill="#374151" font-size="13" font-weight="bold">Synthetic ozone proxy: observations and smoothed trend</text>
<line x1="58" y1="504.0" x2="800" y2="504.0" stroke="#e5e7eb" stroke-width="1"/>
<line x1="58" y1="467.3" x2="800" y2="467.3" stroke="#e5e7eb" stroke-width="1"/>
<line x1="58" y1="430.7" x2="800" y2="430.7" stroke="#e5e7eb" stroke-width="1"/>
<line x1="58" y1="394.0" x2="800" y2="394.0" stroke="#e5e7eb" stroke-width="1"/>
<line x1="58" y1="357.3" x2="800" y2="357.3" stroke="#e5e7eb" stroke-width="1"/>
<line x1="58" y1="320.7" x2="800" y2="320.7" stroke="#e5e7eb" stroke-width="1"/>
<line x1="58" y1="284.0" x2="800" y2="284.0" stroke="#e5e7eb" stroke-width="1"/>
<line x1="58" y1="394.0" x2="800" y2="394.0" stroke="#6b7280" stroke-width="0.8" stroke-dasharray="2 2"/>
<polyline points="58.0,391.4 61.1,388.8 64.2,386.2 67.3,383.6 70.4,381.0 73.5,378.5 76.6,376.0 79.7,373.6 82.8,371.2 85.9,368.8 89.0,366.5 92.2,364.3 95.3,362.1 98.4,360.0 101.5,358.0 104.6,356.0 107.7,354.2 110.8,352.4 113.9,350.8 117.0,349.2 120.1,347.7 123.2,346.4 126.3,345.1 129.4,344.0 132.5,342.9 135.6,342.0 138.7,341.2 141.8,340.6 144.9,340.0 148.0,339.6 151.1,339.2 154.2,339.1 157.3,339.0 160.5,339.1 163.6,339.2 166.7,339.6 169.8,340.0 172.9,340.6 176.0,341.2 179.1,342.0 182.2,342.9 185.3,344.0 188.4,345.1 191.5,346.4 194.6,347.7 197.7,349.2 200.8,350.8 203.9,352.4 207.0,354.2 210.1,356.0 213.2,358.0 216.3,360.0 219.4,362.1 222.5,364.3 225.6,366.5 228.8,368.8 231.9,371.2 235.0,373.6 238.1,376.0 241.2,378.5 244.3,381.0 247.4,383.6 250.5,386.2 253.6,388.8 256.7,391.4 259.8,394.0 262.9,396.6 266.0,399.2 269.1,401.8 272.2,404.4 275.3,407.0 278.4,409.5 281.5,412.0 284.6,414.4 287.7,416.8 290.8,419.2 293.9,421.5 297.1,423.7 300.2,425.9 303.3,428.0 306.4,430.0 309.5,432.0 312.6,433.8 315.7,435.6 318.8,437.2 321.9,438.8 325.0,440.3 328.1,441.6 331.2,442.9 334.3,444.0 337.4,445.1 340.5,446.0 343.6,446.8 346.7,447.4 349.8,448.0 352.9,448.4 356.0,448.8 359.1,448.9 362.3,449.0 365.4,448.9 368.5,448.8 371.6,448.4 374.7,448.0 377.8,447.4 380.9,446.8 384.0,446.0 387.1,445.1 390.2,444.0 393.3,442.9 396.4,441.6 399.5,440.3 402.6,438.8 405.7,437.2 408.8,435.6 411.9,433.8 415.0,432.0 418.1,430.0 421.2,428.0 424.3,425.9 427.4,423.7 430.6,421.5 433.7,419.2 436.8,416.8 439.9,414.4 443.0,412.0 446.1,409.5 449.2,407.0 452.3,404.4 455.4,401.8 458.5,399.2 461.6,396.6 464.7,394.0 467.8,391.4 470.9,388.8 474.0,386.2 477.1,383.6 480.2,381.0 483.3,378.5 486.4,376.0 489.5,373.6 492.6,371.2 495.7,368.8 498.9,366.5 502.0,364.3 505.1,362.1 508.2,360.0 511.3,358.0 514.4,356.0 517.5,354.2 520.6,352.4 523.7,350.8 526.8,349.2 529.9,347.7 533.0,346.4 536.1,345.1 539.2,344.0 542.3,342.9 545.4,342.0 548.5,341.2 551.6,340.6 554.7,340.0 557.8,339.6 560.9,339.2 564.1,339.1 567.2,339.0 570.3,339.1 573.4,339.2 576.5,339.6 579.6,340.0 582.7,340.6 585.8,341.2 588.9,342.0 592.0,342.9 595.1,344.0 598.2,345.1 601.3,346.4 604.4,347.7 607.5,349.2 610.6,350.8 613.7,352.4 616.8,354.2 619.9,356.0 623.0,358.0 626.1,360.0 629.2,362.1 632.4,364.3 635.5,366.5 638.6,368.8 641.7,371.2 644.8,373.6 647.9,376.0 651.0,378.5 654.1,381.0 657.2,383.6 660.3,386.2 663.4,388.8 666.5,391.4 669.6,394.0 672.7,396.6 675.8,399.2 678.9,401.8 682.0,404.4 685.1,407.0 688.2,409.5 691.3,412.0 694.4,414.4 697.5,416.8 700.7,419.2 703.8,421.5 706.9,423.7 710.0,425.9 713.1,428.0 716.2,430.0 719.3,432.0 722.4,433.8 725.5,435.6 728.6,437.2 731.7,438.8 734.8,440.3 737.9,441.6 741.0,442.9 744.1,444.0 747.2,445.1 750.3,446.0 753.4,446.8 756.5,447.4 759.6,448.0 762.7,448.4 765.8,448.8 769.0,448.9 772.1,449.0 775.2,448.9 778.3,448.8 781.4,448.4 784.5,448.0 787.6,447.4 790.7,446.8 793.8,446.0 796.9,445.1 800.0,444.0" fill="none" stroke="#d97706" stroke-width="1" stroke-dasharray="4 3" opacity="0.65"/>
<polyline points="58.0,429.7 61.1,427.0 64.2,422.7 67.3,416.9 70.4,409.9 73.5,402.2 76.6,394.0 79.7,385.8 82.8,378.1 85.9,371.1 89.0,365.3 92.2,361.0 95.3,358.3 98.4,357.3 101.5,358.3 104.6,361.0 107.7,365.3 110.8,371.1 113.9,378.1 117.0,385.8 120.1,394.0 123.2,402.2 126.3,409.9 129.4,416.9 132.5,422.7 135.6,427.0 138.7,429.7 141.8,430.7 144.9,429.7 148.0,427.0 151.1,422.7 154.2,416.9 157.3,409.9 160.5,402.2 163.6,394.0 166.7,385.8 169.8,378.1 172.9,371.1 176.0,365.3 179.1,361.0 182.2,358.3 185.3,357.3 188.4,358.3 191.5,361.0 194.6,365.3 197.7,371.1 200.8,378.1 203.9,385.8 207.0,394.0 210.1,402.2 213.2,409.9 216.3,416.9 219.4,422.7 222.5,427.0 225.6,429.7 228.8,430.7 231.9,429.7 235.0,427.0 238.1,422.7 241.2,416.9 244.3,409.9 247.4,402.2 250.5,394.0 253.6,385.8 256.7,378.1 259.8,371.1 262.9,365.3 266.0,361.0 269.1,358.3 272.2,357.3 275.3,358.3 278.4,361.0 281.5,365.3 284.6,371.1 287.7,378.1 290.8,385.8 293.9,394.0 297.1,402.2 300.2,409.9 303.3,416.9 306.4,422.7 309.5,427.0 312.6,429.7 315.7,430.7 318.8,429.7 321.9,427.0 325.0,422.7 328.1,416.9 331.2,409.9 334.3,402.2 337.4,394.0 340.5,385.8 343.6,378.1 346.7,371.1 349.8,365.3 352.9,361.0 356.0,358.3 359.1,357.3 362.3,358.3 365.4,361.0 368.5,365.3 371.6,371.1 374.7,378.1 377.8,385.8 380.9,394.0 384.0,402.2 387.1,409.9 390.2,416.9 393.3,422.7 396.4,427.0 399.5,429.7 402.6,430.7 405.7,429.7 408.8,427.0 411.9,422.7 415.0,416.9 418.1,409.9 421.2,402.2 424.3,394.0 427.4,385.8 430.6,378.1 433.7,371.1 436.8,365.3 439.9,361.0 443.0,358.3 446.1,357.3 449.2,358.3 452.3,361.0 455.4,365.3 458.5,371.1 461.6,378.1 464.7,385.8 467.8,394.0 470.9,402.2 474.0,409.9 477.1,416.9 480.2,422.7 483.3,427.0 486.4,429.7 489.5,430.7 492.6,429.7 495.7,427.0 498.9,422.7 502.0,416.9 505.1,409.9 508.2,402.2 511.3,394.0 514.4,385.8 517.5,378.1 520.6,371.1 523.7,365.3 526.8,361.0 529.9,358.3 533.0,357.3 536.1,358.3 539.2,361.0 542.3,365.3 545.4,371.1 548.5,378.1 551.6,385.8 554.7,394.0 557.8,402.2 560.9,409.9 564.1,416.9 567.2,422.7 570.3,427.0 573.4,429.7 576.5,430.7 579.6,429.7 582.7,427.0 585.8,422.7 588.9,416.9 592.0,409.9 595.1,402.2 598.2,394.0 601.3,385.8 604.4,378.1 607.5,371.1 610.6,365.3 613.7,361.0 616.8,358.3 619.9,357.3 623.0,358.3 626.1,361.0 629.2,365.3 632.4,371.1 635.5,378.1 638.6,385.8 641.7,394.0 644.8,402.2 647.9,409.9 651.0,416.9 654.1,422.7 657.2,427.0 660.3,429.7 663.4,430.7 666.5,429.7 669.6,427.0 672.7,422.7 675.8,416.9 678.9,409.9 682.0,402.2 685.1,394.0 688.2,385.8 691.3,378.1 694.4,371.1 697.5,365.3 700.7,361.0 703.8,358.3 706.9,357.3 710.0,358.3 713.1,361.0 716.2,365.3 719.3,371.1 722.4,378.1 725.5,385.8 728.6,394.0 731.7,402.2 734.8,409.9 737.9,416.9 741.0,422.7 744.1,427.0 747.2,429.7 750.3,430.7 753.4,429.7 756.5,427.0 759.6,422.7 762.7,416.9 765.8,409.9 769.0,402.2 772.1,394.0 775.2,385.8 778.3,378.1 781.4,371.1 784.5,365.3 787.6,361.0 790.7,358.3 793.8,357.3 796.9,358.3 800.0,361.0" fill="none" stroke="#7c3aed" stroke-width="1" stroke-dasharray="4 3" opacity="0.65"/>
<polyline points="58.0,427.1 61.1,421.8 64.2,414.8 67.3,406.5 70.4,396.9 73.5,386.7 76.6,376.0 79.7,365.4 82.8,355.2 85.9,345.9 89.0,337.8 92.2,331.2 95.3,326.3 98.4,323.3 101.5,322.2 104.6,323.0 107.7,325.5 110.8,329.6 113.9,334.9 117.0,341.0 120.1,347.7 123.2,354.5 126.3,361.0 129.4,366.8 132.5,371.6 135.6,375.1 138.7,377.0 141.8,377.2 144.9,375.7 148.0,372.6 151.1,367.9 154.2,361.9 157.3,354.9 160.5,347.2 163.6,339.2 166.7,331.4 169.8,324.1 172.9,317.7 176.0,312.6 179.1,309.0 182.2,307.2 185.3,307.3 188.4,309.4 191.5,313.3 194.6,319.1 197.7,326.3 200.8,334.9 203.9,344.3 207.0,354.2 210.1,364.2 213.2,373.9 216.3,382.9 219.4,390.8 222.5,397.3 225.6,402.2 228.8,405.5 231.9,406.9 235.0,406.6 238.1,404.7 241.2,401.4 244.3,396.9 247.4,391.8 250.5,386.2 253.6,380.6 256.7,375.5 259.8,371.1 262.9,367.9 266.0,366.2 269.1,366.1 272.2,367.7 275.3,371.2 278.4,376.5 281.5,383.3 284.6,391.6 287.7,400.9 290.8,411.0 293.9,421.5 297.1,431.9 300.2,441.8 303.3,450.9 306.4,458.7 309.5,465.0 312.6,469.6 315.7,472.2 318.8,473.0 321.9,471.8 325.0,468.9 328.1,464.5 331.2,458.8 334.3,452.2 337.4,445.1 340.5,437.8 343.6,430.9 346.7,424.6 349.8,419.3 352.9,415.4 356.0,413.0 359.1,412.3 362.3,413.3 365.4,415.9 368.5,420.1 371.6,425.6 374.7,432.1 377.8,439.3 380.9,446.8 384.0,454.1 387.1,461.0 390.2,466.9 393.3,471.6 396.4,474.7 399.5,476.0 402.6,475.5 405.7,473.0 408.8,468.6 411.9,462.5 415.0,454.8 418.1,445.9 421.2,436.2 424.3,425.9 427.4,415.6 430.6,405.6 433.7,396.3 436.8,388.2 439.9,381.4 443.0,376.2 446.1,372.8 449.2,371.2 452.3,371.4 455.4,373.2 458.5,376.4 461.6,380.7 464.7,385.8 467.8,391.4 470.9,396.9 474.0,402.1 477.1,406.5 480.2,409.7 483.3,411.5 486.4,411.8 489.5,410.2 492.6,406.9 495.7,401.8 498.9,395.2 502.0,387.1 505.1,378.0 508.2,368.2 511.3,358.0 514.4,347.9 517.5,338.3 520.6,329.6 523.7,322.1 526.8,316.2 529.9,312.0 533.0,309.7 536.1,309.4 539.2,310.9 542.3,314.3 545.4,319.2 548.5,325.3 551.6,332.4 554.7,340.0 557.8,347.7 560.9,355.2 564.1,361.9 567.2,367.7 570.3,372.1 573.4,375.0 576.5,376.2 579.6,375.7 582.7,373.6 585.8,369.9 588.9,364.9 592.0,358.8 595.1,352.1 598.2,345.1 601.3,338.2 604.4,331.8 607.5,326.3 610.6,322.1 613.7,319.4 616.8,318.4 619.9,319.4 623.0,322.2 626.1,327.0 629.2,333.4 632.4,341.4 635.5,350.6 638.6,360.6 641.7,371.2 644.8,381.7 647.9,391.9 651.0,401.4 654.1,409.7 657.2,416.6 660.3,421.9 663.4,425.4 666.5,427.1 669.6,427.0 672.7,425.3 675.8,422.1 678.9,417.7 682.0,412.6 685.1,407.0 688.2,401.3 691.3,396.1 694.4,391.6 697.5,388.2 700.7,386.2 703.8,385.8 706.9,387.1 710.0,390.2 713.1,395.0 716.2,401.4 719.3,409.1 722.4,417.9 725.5,427.4 728.6,437.2 731.7,447.0 734.8,456.2 737.9,464.5 741.0,471.6 744.1,477.1 747.2,480.8 750.3,482.6 753.4,482.5 756.5,480.5 759.6,476.7 762.7,471.3 765.8,464.7 769.0,457.1 772.1,449.0 775.2,440.8 778.3,432.8 781.4,425.6 784.5,419.3 787.6,414.4 790.7,411.0 793.8,409.3 796.9,409.3 800.0,411.0" fill="none" stroke="#6b7280" stroke-width="1.2" stroke-dasharray="4 3" opacity="0.65"/>
<polyline points="58.0,391.3 61.1,388.6 64.2,385.9 67.3,383.2 70.4,380.6 73.5,378.0 76.6,375.4 79.7,372.8 82.8,370.3 85.9,367.9 89.0,365.5 92.2,363.2 95.3,361.0 98.4,358.8 101.5,356.7 104.6,354.7 107.7,352.8 110.8,351.0 113.9,349.2 117.0,347.6 120.1,346.1 123.2,344.7 126.3,343.4 129.4,342.2 132.5,341.1 135.6,340.2 138.7,339.4 141.8,338.7 144.9,338.1 148.0,337.6 151.1,337.3 154.2,337.1 157.3,337.0 160.5,337.1 163.6,337.3 166.7,337.6 169.8,338.1 172.9,338.7 176.0,339.4 179.1,340.2 182.2,341.1 185.3,342.2 188.4,343.4 191.5,344.7 194.6,346.1 197.7,347.6 200.8,349.2 203.9,351.0 207.0,352.8 210.1,354.7 213.2,356.7 216.3,358.8 219.4,361.0 222.5,363.2 225.6,365.5 228.8,367.9 231.9,370.3 235.0,372.8 238.1,375.4 241.2,378.0 244.3,380.6 247.4,383.2 250.5,385.9 253.6,388.6 256.7,391.3 259.8,394.0 262.9,396.7 266.0,399.4 269.1,402.1 272.2,404.8 275.3,407.4 278.4,410.0 281.5,412.6 284.6,415.2 287.7,417.7 290.8,420.1 293.9,422.5 297.1,424.8 300.2,427.0 303.3,429.2 306.4,431.3 309.5,433.3 312.6,435.2 315.7,437.0 318.8,438.8 321.9,440.4 325.0,441.9 328.1,443.3 331.2,444.6 334.3,445.8 337.4,446.9 340.5,447.8 343.6,448.6 346.7,449.3 349.8,449.9 352.9,450.4 356.0,450.7 359.1,450.9 362.3,451.0 365.4,450.9 368.5,450.7 371.6,450.4 374.7,449.9 377.8,449.3 380.9,448.6 384.0,447.8 387.1,446.9 390.2,445.8 393.3,444.6 396.4,443.3 399.5,441.9 402.6,440.4 405.7,438.8 408.8,437.0 411.9,435.2 415.0,433.3 418.1,431.3 421.2,429.2 424.3,427.0 427.4,424.8 430.6,422.5 433.7,420.1 436.8,417.7 439.9,415.2 443.0,412.6 446.1,410.0 449.2,407.4 452.3,404.8 455.4,402.1 458.5,399.4 461.6,396.7 464.7,394.0 467.8,391.3 470.9,388.6 474.0,385.9 477.1,383.2 480.2,380.6 483.3,378.0 486.4,375.4 489.5,372.8 492.6,370.3 495.7,367.9 498.9,365.5 502.0,363.2 505.1,361.0 508.2,358.8 511.3,356.7 514.4,354.7 517.5,352.8 520.6,351.0 523.7,349.2 526.8,347.6 529.9,346.1 533.0,344.7 536.1,343.4 539.2,342.2 542.3,341.1 545.4,340.2 548.5,339.4 551.6,338.7 554.7,338.1 557.8,337.6 560.9,337.3 564.1,337.1 567.2,337.0 570.3,337.1 573.4,337.3 576.5,337.6 579.6,338.1 582.7,338.7 585.8,339.4 588.9,340.2 592.0,341.1 595.1,342.2 598.2,343.4 601.3,344.7 604.4,346.1 607.5,347.6 610.6,349.2 613.7,351.0 616.8,352.8 619.9,354.7 623.0,356.7 626.1,358.8 629.2,361.0 632.4,363.2 635.5,365.5 638.6,367.9 641.7,370.3 644.8,372.8 647.9,375.4 651.0,378.0 654.1,380.6 657.2,383.2 660.3,385.9 663.4,388.6 666.5,391.3 669.6,394.0 672.7,396.7 675.8,399.4 678.9,402.1 682.0,404.8 685.1,407.4 688.2,410.0 691.3,412.6 694.4,415.2 697.5,417.7 700.7,420.1 703.8,422.5 706.9,424.8 710.0,427.0 713.1,429.2 716.2,431.3 719.3,433.3 722.4,435.2 725.5,437.0 728.6,438.8 731.7,440.4 734.8,441.9 737.9,443.3 741.0,444.6 744.1,445.8 747.2,446.9 750.3,447.8 753.4,448.6 756.5,449.3 759.6,449.9 762.7,450.4 765.8,450.7 769.0,450.9 772.1,451.0 775.2,450.9 778.3,450.7 781.4,450.4 784.5,449.9 787.6,449.3 790.7,448.6 793.8,447.8 796.9,446.9 800.0,445.8" fill="none" stroke="#f59e0b" stroke-width="1.8"/>
<polyline points="58.0,427.0 61.1,424.5 64.2,420.5 67.3,415.1 70.4,408.7 73.5,401.5 76.6,394.0 79.7,386.5 82.8,379.3 85.9,372.9 89.0,367.5 92.2,363.5 95.3,361.0 98.4,360.1 101.5,361.0 104.6,363.5 107.7,367.5 110.8,372.9 113.9,379.3 117.0,386.5 120.1,394.0 123.2,401.5 126.3,408.7 129.4,415.1 132.5,420.5 135.6,424.5 138.7,427.0 141.8,427.9 144.9,427.0 148.0,424.5 151.1,420.5 154.2,415.1 157.3,408.7 160.5,401.5 163.6,394.0 166.7,386.5 169.8,379.3 172.9,372.9 176.0,367.5 179.1,363.5 182.2,361.0 185.3,360.1 188.4,361.0 191.5,363.5 194.6,367.5 197.7,372.9 200.8,379.3 203.9,386.5 207.0,394.0 210.1,401.5 213.2,408.7 216.3,415.1 219.4,420.5 222.5,424.5 225.6,427.0 228.8,427.9 231.9,427.0 235.0,424.5 238.1,420.5 241.2,415.1 244.3,408.7 247.4,401.5 250.5,394.0 253.6,386.5 256.7,379.3 259.8,372.9 262.9,367.5 266.0,363.5 269.1,361.0 272.2,360.1 275.3,361.0 278.4,363.5 281.5,367.5 284.6,372.9 287.7,379.3 290.8,386.5 293.9,394.0 297.1,401.5 300.2,408.7 303.3,415.1 306.4,420.5 309.5,424.5 312.6,427.0 315.7,427.9 318.8,427.0 321.9,424.5 325.0,420.5 328.1,415.1 331.2,408.7 334.3,401.5 337.4,394.0 340.5,386.5 343.6,379.3 346.7,372.9 349.8,367.5 352.9,363.5 356.0,361.0 359.1,360.1 362.3,361.0 365.4,363.5 368.5,367.5 371.6,372.9 374.7,379.3 377.8,386.5 380.9,394.0 384.0,401.5 387.1,408.7 390.2,415.1 393.3,420.5 396.4,424.5 399.5,427.0 402.6,427.9 405.7,427.0 408.8,424.5 411.9,420.5 415.0,415.1 418.1,408.7 421.2,401.5 424.3,394.0 427.4,386.5 430.6,379.3 433.7,372.9 436.8,367.5 439.9,363.5 443.0,361.0 446.1,360.1 449.2,361.0 452.3,363.5 455.4,367.5 458.5,372.9 461.6,379.3 464.7,386.5 467.8,394.0 470.9,401.5 474.0,408.7 477.1,415.1 480.2,420.5 483.3,424.5 486.4,427.0 489.5,427.9 492.6,427.0 495.7,424.5 498.9,420.5 502.0,415.1 505.1,408.7 508.2,401.5 511.3,394.0 514.4,386.5 517.5,379.3 520.6,372.9 523.7,367.5 526.8,363.5 529.9,361.0 533.0,360.1 536.1,361.0 539.2,363.5 542.3,367.5 545.4,372.9 548.5,379.3 551.6,386.5 554.7,394.0 557.8,401.5 560.9,408.7 564.1,415.1 567.2,420.5 570.3,424.5 573.4,427.0 576.5,427.9 579.6,427.0 582.7,424.5 585.8,420.5 588.9,415.1 592.0,408.7 595.1,401.5 598.2,394.0 601.3,386.5 604.4,379.3 607.5,372.9 610.6,367.5 613.7,363.5 616.8,361.0 619.9,360.1 623.0,361.0 626.1,363.5 629.2,367.5 632.4,372.9 635.5,379.3 638.6,386.5 641.7,394.0 644.8,401.5 647.9,408.7 651.0,415.1 654.1,420.5 657.2,424.5 660.3,427.0 663.4,427.9 666.5,427.0 669.6,424.5 672.7,420.5 675.8,415.1 678.9,408.7 682.0,401.5 685.1,394.0 688.2,386.5 691.3,379.3 694.4,372.9 697.5,367.5 700.7,363.5 703.8,361.0 706.9,360.1 710.0,361.0 713.1,363.5 716.2,367.5 719.3,372.9 722.4,379.3 725.5,386.5 728.6,394.0 731.7,401.5 734.8,408.7 737.9,415.1 741.0,420.5 744.1,424.5 747.2,427.0 750.3,427.9 753.4,427.0 756.5,424.5 759.6,420.5 762.7,415.1 765.8,408.7 769.0,401.5 772.1,394.0 775.2,386.5 778.3,379.3 781.4,372.9 784.5,367.5 787.6,363.5 790.7,361.0 793.8,360.1 796.9,361.0 800.0,363.5" fill="none" stroke="#8b5cf6" stroke-width="1.8"/>
<polyline points="58.0,424.3 61.1,419.1 64.2,412.4 67.3,404.3 70.4,395.3 73.5,385.5 76.6,375.4 79.7,365.3 82.8,355.6 85.9,346.8 89.0,339.0 92.2,332.7 95.3,328.0 98.4,324.9 101.5,323.7 104.6,324.2 107.7,326.3 110.8,329.8 113.9,334.5 117.0,340.1 120.1,346.1 123.2,352.2 126.3,358.1 129.4,363.3 132.5,367.6 135.6,370.7 138.7,372.4 141.8,372.5 144.9,371.1 148.0,368.1 151.1,363.8 154.2,358.2 157.3,351.7 160.5,344.6 163.6,337.3 166.7,330.1 169.8,323.4 172.9,317.5 176.0,312.9 179.1,309.7 182.2,308.1 185.3,308.3 188.4,310.4 191.5,314.2 194.6,319.6 197.7,326.5 200.8,334.5 203.9,343.4 207.0,352.8 210.1,362.2 213.2,371.4 216.3,379.9 219.4,387.4 222.5,393.7 225.6,398.5 228.8,401.8 231.9,403.4 235.0,403.3 238.1,401.8 241.2,399.1 244.3,395.3 247.4,390.8 250.5,385.9 253.6,381.1 256.7,376.6 259.8,372.9 262.9,370.2 266.0,368.9 269.1,369.1 272.2,370.9 275.3,374.4 278.4,379.5 281.5,386.2 284.6,394.1 287.7,403.0 290.8,412.6 293.9,422.5 297.1,432.3 300.2,441.7 303.3,450.3 306.4,457.8 309.5,463.8 312.6,468.2 315.7,470.9 318.8,471.8 321.9,470.9 325.0,468.4 328.1,464.4 331.2,459.3 334.3,453.3 337.4,446.9 340.5,440.3 343.6,434.0 346.7,428.2 349.8,423.5 352.9,419.9 356.0,417.7 359.1,417.0 362.3,417.9 365.4,420.4 368.5,424.2 371.6,429.3 374.7,435.2 377.8,441.8 380.9,448.6 384.0,455.4 387.1,461.6 390.2,466.9 393.3,471.1 396.4,473.8 399.5,474.9 402.6,474.3 405.7,471.8 408.8,467.6 411.9,461.7 415.0,454.4 418.1,446.0 421.2,436.7 424.3,427.0 427.4,417.3 430.6,407.8 433.7,399.0 436.8,391.2 439.9,384.7 443.0,379.6 446.1,376.2 449.2,374.4 452.3,374.3 455.4,375.6 458.5,378.3 461.6,382.0 464.7,386.5 467.8,391.3 470.9,396.1 474.0,400.6 477.1,404.3 480.2,407.0 483.3,408.5 486.4,408.4 489.5,406.7 492.6,403.4 495.7,398.4 498.9,392.0 502.0,384.3 505.1,375.7 508.2,366.3 511.3,356.7 514.4,347.2 517.5,338.1 520.6,329.8 523.7,322.8 526.8,317.1 529.9,313.1 533.0,310.8 536.1,310.4 539.2,311.7 542.3,314.7 545.4,319.1 548.5,324.7 551.6,331.1 554.7,338.1 557.8,345.2 560.9,352.0 564.1,358.2 567.2,363.5 570.3,367.6 573.4,370.3 576.5,371.5 579.6,371.1 582.7,369.2 585.8,365.8 588.9,361.3 592.0,355.8 595.1,349.7 598.2,343.4 601.3,337.1 604.4,331.4 607.5,326.5 610.6,322.8 613.7,320.4 616.8,319.8 619.9,320.8 623.0,323.7 626.1,328.3 629.2,334.5 632.4,342.1 635.5,350.8 638.6,360.4 641.7,370.3 644.8,380.4 647.9,390.1 651.0,399.1 654.1,407.0 657.2,413.7 660.3,418.9 663.4,422.4 666.5,424.3 669.6,424.5 672.7,423.2 675.8,420.5 678.9,416.8 682.0,412.3 685.1,407.4 688.2,402.5 691.3,397.9 694.4,394.1 697.5,391.2 700.7,389.6 703.8,389.5 706.9,390.9 710.0,394.0 713.1,398.7 716.2,404.8 719.3,412.2 722.4,420.5 725.5,429.5 728.6,438.8 731.7,447.9 734.8,456.6 737.9,464.4 741.0,471.1 744.1,476.3 747.2,479.9 750.3,481.7 753.4,481.7 756.5,479.9 759.6,476.4 762.7,471.5 765.8,465.4 769.0,458.4 772.1,451.0 775.2,443.4 778.3,436.0 781.4,429.3 784.5,423.5 787.6,418.8 790.7,415.6 793.8,414.0 796.9,413.9 800.0,415.3" fill="none" stroke="#374151" stroke-width="2.2" stroke-dasharray="5 3"/>
<line x1="53" y1="504.0" x2="58" y2="504.0" stroke="#333" stroke-width="1.5"/>
<text x="50" y="504.0" text-anchor="end" dominant-baseline="middle" fill="#333">-6</text>
<line x1="53" y1="467.3" x2="58" y2="467.3" stroke="#333" stroke-width="1.5"/>
<text x="50" y="467.3" text-anchor="end" dominant-baseline="middle" fill="#333">-4</text>
<line x1="53" y1="430.7" x2="58" y2="430.7" stroke="#333" stroke-width="1.5"/>
<text x="50" y="430.7" text-anchor="end" dominant-baseline="middle" fill="#333">-2</text>
<line x1="53" y1="394.0" x2="58" y2="394.0" stroke="#333" stroke-width="1.5"/>
<text x="50" y="394.0" text-anchor="end" dominant-baseline="middle" fill="#333">0</text>
<line x1="53" y1="357.3" x2="58" y2="357.3" stroke="#333" stroke-width="1.5"/>
<text x="50" y="357.3" text-anchor="end" dominant-baseline="middle" fill="#333">2</text>
<line x1="53" y1="320.7" x2="58" y2="320.7" stroke="#333" stroke-width="1.5"/>
<text x="50" y="320.7" text-anchor="end" dominant-baseline="middle" fill="#333">4</text>
<line x1="53" y1="284.0" x2="58" y2="284.0" stroke="#333" stroke-width="1.5"/>
<text x="50" y="284.0" text-anchor="end" dominant-baseline="middle" fill="#333">6</text>
<line x1="129.4" y1="504" x2="129.4" y2="509" stroke="#333" stroke-width="1.5"/>
<text x="129.4" y="522" text-anchor="middle" fill="#333">Y2</text>
<line x1="203.9" y1="504" x2="203.9" y2="509" stroke="#333" stroke-width="1.5"/>
<text x="203.9" y="522" text-anchor="middle" fill="#333">Y4</text>
<line x1="278.4" y1="504" x2="278.4" y2="509" stroke="#333" stroke-width="1.5"/>
<text x="278.4" y="522" text-anchor="middle" fill="#333">Y6</text>
<line x1="352.9" y1="504" x2="352.9" y2="509" stroke="#333" stroke-width="1.5"/>
<text x="352.9" y="522" text-anchor="middle" fill="#333">Y8</text>
<line x1="427.4" y1="504" x2="427.4" y2="509" stroke="#333" stroke-width="1.5"/>
<text x="427.4" y="522" text-anchor="middle" fill="#333">Y10</text>
<line x1="502.0" y1="504" x2="502.0" y2="509" stroke="#333" stroke-width="1.5"/>
<text x="502.0" y="522" text-anchor="middle" fill="#333">Y12</text>
<line x1="576.5" y1="504" x2="576.5" y2="509" stroke="#333" stroke-width="1.5"/>
<text x="576.5" y="522" text-anchor="middle" fill="#333">Y14</text>
<line x1="651.0" y1="504" x2="651.0" y2="509" stroke="#333" stroke-width="1.5"/>
<text x="651.0" y="522" text-anchor="middle" fill="#333">Y16</text>
<line x1="725.5" y1="504" x2="725.5" y2="509" stroke="#333" stroke-width="1.5"/>
<text x="725.5" y="522" text-anchor="middle" fill="#333">Y18</text>
<line x1="800.0" y1="504" x2="800.0" y2="509" stroke="#333" stroke-width="1.5"/>
<text x="800.0" y="522" text-anchor="middle" fill="#333">Y20</text>
<line x1="58" y1="284" x2="58" y2="504" stroke="#333" stroke-width="1.5"/>
<line x1="58" y1="504" x2="800" y2="504" stroke="#333" stroke-width="1.5"/>
<text transform="rotate(-90)" x="-394" y="16" text-anchor="middle" fill="#374151" font-size="11">Contribution</text>
<text x="429" y="540" text-anchor="middle" fill="#4b5563" font-size="11">Year (month 24 = Y2, 48 = Y4, …)</text>
<line x1="440" y1="296" x2="462" y2="296" stroke="#f59e0b" stroke-width="1.8"/>
<text x="467" y="300" fill="#374151" font-size="11">est. β̂₁·X₁ solar (β̂₁=3.11)</text>
<line x1="440" y1="311" x2="462" y2="311" stroke="#8b5cf6" stroke-width="1.8"/>
<text x="467" y="315" fill="#374151" font-size="11">est. β̂₂·X₂ QBO (β̂₂=-1.85)</text>
<line x1="440" y1="326" x2="462" y2="326" stroke="#374151" stroke-width="2.2" stroke-dasharray="5 3"/>
<text x="467" y="330" fill="#374151" font-size="11">est. total β̂·X</text>
<line x1="620" y1="296" x2="642" y2="296" stroke="#d97706" stroke-width="1" stroke-dasharray="4 3" opacity="0.65"/>
<text x="647" y="300" fill="#374151" font-size="11">true β₁·X₁ (β₁=3)</text>
<line x1="620" y1="311" x2="642" y2="311" stroke="#7c3aed" stroke-width="1" stroke-dasharray="4 3" opacity="0.65"/>
<text x="647" y="315" fill="#374151" font-size="11">true β₂·X₂ (β₂=-2)</text>
<line x1="620" y1="326" x2="642" y2="326" stroke="#6b7280" stroke-width="1.2" stroke-dasharray="4 3" opacity="0.65"/>
<text x="647" y="330" fill="#374151" font-size="11">true total β·X</text>
<text x="429" y="276" text-anchor="middle" fill="#374151" font-size="13" font-weight="bold">Covariate contributions β·X(t): estimated (solid) vs true (dashed)</text>
</svg>