<svg xmlns="http://www.w3.org/2000/svg" viewBox="0 0 800 380" font-family="system-ui,-apple-system,sans-serif" font-size="12">
<rect width="800" height="380" fill="white"/>
<defs><clipPath id="plot-clip"><rect x="65" y="28" width="715" height="302"/></clipPath></defs>
<line x1="65" y1="330.0" x2="780" y2="330.0" stroke="#e5e7eb" stroke-width="1"/>
<line x1="65" y1="275.1" x2="780" y2="275.1" stroke="#e5e7eb" stroke-width="1"/>
<line x1="65" y1="220.2" x2="780" y2="220.2" stroke="#e5e7eb" stroke-width="1"/>
<line x1="65" y1="165.3" x2="780" y2="165.3" stroke="#e5e7eb" stroke-width="1"/>
<line x1="65" y1="110.4" x2="780" y2="110.4" stroke="#e5e7eb" stroke-width="1"/>
<line x1="65" y1="55.5" x2="780" y2="55.5" stroke="#e5e7eb" stroke-width="1"/>
<g clip-path="url(#plot-clip)">
<rect x="104.7" y="28.0" width="7.2" height="302.0" fill="rgba(180,180,180,0.18)"/>
<rect x="155.3" y="28.0" width="7.2" height="302.0" fill="rgba(180,180,180,0.18)"/>
<rect x="205.8" y="28.0" width="7.2" height="302.0" fill="rgba(180,180,180,0.18)"/>
<rect x="256.4" y="28.0" width="7.2" height="302.0" fill="rgba(180,180,180,0.18)"/>
<rect x="270.8" y="28.0" width="72.2" height="302.0" fill="rgba(180,180,180,0.18)"/>
<rect x="357.5" y="28.0" width="7.2" height="302.0" fill="rgba(180,180,180,0.18)"/>
<rect x="408.1" y="28.0" width="7.2" height="302.0" fill="rgba(180,180,180,0.18)"/>
<rect x="458.6" y="28.0" width="7.2" height="302.0" fill="rgba(180,180,180,0.18)"/>
<rect x="509.2" y="28.0" width="7.2" height="302.0" fill="rgba(180,180,180,0.18)"/>
<rect x="559.7" y="28.0" width="7.2" height="302.0" fill="rgba(180,180,180,0.18)"/>
<rect x="610.3" y="28.0" width="7.2" height="302.0" fill="rgba(180,180,180,0.18)"/>
<rect x="660.8" y="28.0" width="7.2" height="302.0" fill="rgba(180,180,180,0.18)"/>
<rect x="711.4" y="28.0" width="7.2" height="302.0" fill="rgba(180,180,180,0.18)"/>
<rect x="761.9" y="28.0" width="7.2" height="302.0" fill="rgba(180,180,180,0.18)"/>
<path d="M65.0,53.8L72.2,56.9L79.4,56.2L86.7,50.5L93.9,45.5L101.1,41.1L108.3,38.1L115.6,38.6L122.8,42.9L130.0,53.4L137.2,65.0L144.4,73.9L151.7,78.6L158.9,82.9L166.1,86.5L173.3,88.3L180.6,87.1L187.8,86.3L195.0,78.7L202.2,67.3L209.4,56.5L216.7,48.2L223.9,43.5L231.1,42.2L238.3,46.4L245.6,56.5L252.8,70.9L260.0,84.6L267.2,97.0L274.4,101.6L281.7,103.4L288.9,103.8L296.1,103.8L303.3,104.4L310.6,106.1L317.8,109.3L325.0,114.0L332.2,120.2L339.4,127.2L346.7,134.4L353.9,142.1L361.1,147.8L368.3,150.9L375.6,144.2L382.8,135.0L390.0,123.3L397.2,118.3L404.4,120.3L411.7,123.7L418.9,129.4L426.1,134.4L433.3,137.6L440.6,140.3L447.8,143.2L455.0,145.9L462.2,145.2L469.4,143.8L476.7,140.0L483.9,135.2L491.1,133.8L498.3,130.5L505.6,125.4L512.8,120.2L520.0,117.2L527.2,116.8L534.4,119.6L541.7,124.0L548.9,128.3L556.1,135.6L563.3,141.1L570.6,145.8L577.8,145.6L585.0,144.0L592.2,140.8L599.4,135.2L606.7,129.2L613.9,128.0L621.1,129.4L628.3,132.1L635.6,135.0L642.8,137.9L650.0,137.6L657.2,133.9L664.4,128.8L671.7,124.4L678.9,121.1L686.1,119.9L693.3,117.1L700.6,114.6L707.8,113.1L715.0,110.0L722.2,108.2L729.4,107.1L736.7,107.5L743.9,114.6L751.1,123.9L758.3,131.8L765.6,141.1L772.8,150.5L780.0,154.9L780.0,323.1L772.8,306.9L765.6,293.9L758.3,282.1L751.1,273.0L743.9,263.2L736.7,256.0L729.4,256.0L722.2,257.9L715.0,260.6L707.8,262.8L700.6,263.3L693.3,265.3L686.1,268.2L678.9,269.9L671.7,274.0L664.4,279.4L657.2,283.4L650.0,286.3L642.8,286.1L635.6,283.2L628.3,280.8L621.1,279.0L613.9,278.5L606.7,278.8L599.4,283.9L592.2,289.0L585.0,292.2L577.8,294.3L570.6,295.4L563.3,291.7L556.1,285.2L548.9,277.0L541.7,272.2L534.4,267.9L527.2,265.5L520.0,266.8L512.8,270.8L505.6,275.0L498.3,279.2L491.1,282.0L483.9,283.4L476.7,288.7L469.4,293.4L462.2,295.8L455.0,295.5L447.8,291.9L440.6,288.6L433.3,285.9L426.1,283.2L418.9,279.0L411.7,274.3L404.4,269.9L397.2,267.1L390.0,271.6L382.8,283.3L375.6,293.1L368.3,301.1L361.1,300.5L353.9,297.1L346.7,295.3L339.4,299.4L332.2,304.8L325.0,310.1L317.8,314.0L310.6,315.7L303.3,314.6L296.1,310.1L288.9,302.3L281.7,291.3L274.4,277.4L267.2,261.3L260.0,242.3L252.8,223.1L245.6,206.0L238.3,194.9L231.1,190.5L223.9,192.3L216.7,197.8L209.4,207.2L202.2,216.9L195.0,227.5L187.8,234.6L180.6,235.4L173.3,237.0L166.1,236.1L158.9,233.5L151.7,228.2L144.4,222.6L137.2,213.3L130.0,201.7L122.8,191.8L115.6,188.5L108.3,189.1L101.1,191.2L93.9,194.5L86.7,199.0L79.4,205.3L72.2,210.0L65.0,219.3Z" fill="rgba(37,99,235,0.07)" stroke="none"/>
<path d="M65.0,88.7L72.2,97.2L79.4,99.0L86.7,93.7L93.9,88.3L101.1,83.3L108.3,79.7L115.6,80.9L122.8,86.0L130.0,96.8L137.2,108.4L144.4,117.0L151.7,121.2L158.9,124.7L166.1,129.0L173.3,131.4L180.6,130.6L187.8,129.7L195.0,121.8L202.2,109.8L209.4,98.3L216.7,90.6L223.9,86.6L231.1,85.6L238.3,89.8L245.6,99.1L252.8,111.8L260.0,122.7L267.2,132.3L274.4,133.2L281.7,132.0L288.9,130.2L296.1,128.9L303.3,128.9L310.6,130.7L317.8,134.7L325.0,140.9L332.2,149.5L339.4,159.8L346.7,171.0L353.9,181.5L361.1,188.4L368.3,193.0L375.6,187.2L382.8,178.4L390.0,166.7L397.2,161.4L404.4,162.8L411.7,165.6L418.9,171.9L426.1,177.5L433.3,181.0L440.6,183.8L447.8,186.3L455.0,188.4L462.2,187.1L469.4,186.3L476.7,183.1L483.9,178.6L491.1,177.2L498.3,173.6L505.6,167.9L512.8,162.1L520.0,159.7L527.2,159.9L534.4,163.0L541.7,167.4L548.9,171.4L556.1,178.1L563.3,183.0L570.6,188.4L577.8,188.7L585.0,187.4L592.2,184.2L599.4,178.3L606.7,171.7L613.9,169.8L621.1,171.9L628.3,175.2L635.6,178.4L642.8,181.3L650.0,180.7L657.2,176.4L664.4,170.7L671.7,166.9L678.9,164.3L686.1,163.4L693.3,160.5L700.6,157.7L707.8,155.6L715.0,151.8L722.2,150.7L729.4,150.1L736.7,150.7L743.9,157.8L751.1,166.7L758.3,173.8L765.6,181.7L772.8,189.1L780.0,188.8L780.0,289.2L772.8,268.3L765.6,253.4L758.3,240.0L751.1,230.2L743.9,220.0L736.7,212.8L729.4,213.1L722.2,215.5L715.0,218.8L707.8,220.3L700.6,220.2L693.3,221.9L686.1,224.8L678.9,226.8L671.7,231.5L664.4,237.5L657.2,240.9L650.0,243.2L642.8,242.7L635.6,239.8L628.3,237.7L621.1,236.5L613.9,236.7L606.7,236.3L599.4,240.8L592.2,245.6L585.0,248.8L577.8,251.2L570.6,252.9L563.3,249.8L556.1,242.7L548.9,233.9L541.7,228.8L534.4,224.4L527.2,222.4L520.0,224.3L512.8,228.9L505.6,232.5L498.3,236.1L491.1,238.6L483.9,240.0L476.7,245.6L469.4,250.9L462.2,253.9L455.0,252.9L447.8,248.8L440.6,245.2L433.3,242.4L426.1,240.1L418.9,236.5L411.7,232.5L404.4,227.4L397.2,224.0L390.0,228.2L382.8,239.9L375.6,250.1L368.3,259.0L361.1,259.8L353.9,257.7L346.7,258.7L339.4,266.8L332.2,275.5L325.0,283.2L317.8,288.6L310.6,291.1L303.3,290.0L296.1,285.0L288.9,275.9L281.7,262.7L274.4,245.8L267.2,225.9L260.0,204.3L252.8,182.3L245.6,163.4L238.3,151.5L231.1,147.1L223.9,149.2L216.7,155.3L209.4,165.3L202.2,174.5L195.0,184.4L187.8,191.2L180.6,192.0L173.3,193.9L166.1,193.6L158.9,191.6L151.7,185.7L144.4,179.5L137.2,169.9L130.0,158.4L122.8,148.8L115.6,146.1L108.3,147.5L101.1,148.9L93.9,151.7L86.7,155.8L79.4,162.4L72.2,169.7L65.0,184.5Z" fill="rgba(239,68,68,0.12)" stroke="none"/>
<path d="M65.0,88.7L72.2,97.2L79.4,99.0L86.7,93.7L93.9,88.3L101.1,83.3L115.6,80.9L122.8,86.0L130.0,96.8L137.2,108.4L144.4,117.0L151.7,121.2L166.1,129.0L173.3,131.4L180.6,130.6L187.8,129.7L195.0,121.8L202.2,109.8L216.7,90.6L223.9,86.6L231.1,85.6L238.3,89.8L245.6,99.1L252.8,111.8L267.2,132.3L346.7,171.0L353.9,181.5L368.3,193.0L375.6,187.2L382.8,178.4L390.0,166.7L397.2,161.4L404.4,162.8L418.9,171.9L426.1,177.5L433.3,181.0L440.6,183.8L447.8,186.3L455.0,188.4L469.4,186.3L476.7,183.1L483.9,178.6L491.1,177.2L498.3,173.6L505.6,167.9L520.0,159.7L527.2,159.9L534.4,163.0L541.7,167.4L548.9,171.4L556.1,178.1L570.6,188.4L577.8,188.7L585.0,187.4L592.2,184.2L599.4,178.3L606.7,171.7L621.1,171.9L628.3,175.2L635.6,178.4L642.8,181.3L650.0,180.7L657.2,176.4L671.7,166.9L678.9,164.3L686.1,163.4L693.3,160.5L700.6,157.7L707.8,155.6L722.2,150.7L729.4,150.1L736.7,150.7L743.9,157.8L751.1,166.7L758.3,173.8L772.8,189.1L780.0,188.8L780.0,289.2L772.8,268.3L758.3,240.0L751.1,230.2L743.9,220.0L736.7,212.8L729.4,213.1L722.2,215.5L707.8,220.3L700.6,220.2L693.3,221.9L686.1,224.8L678.9,226.8L671.7,231.5L657.2,240.9L650.0,243.2L642.8,242.7L635.6,239.8L628.3,237.7L621.1,236.5L606.7,236.3L599.4,240.8L592.2,245.6L585.0,248.8L577.8,251.2L570.6,252.9L556.1,242.7L548.9,233.9L541.7,228.8L534.4,224.4L527.2,222.4L520.0,224.3L505.6,232.5L498.3,236.1L491.1,238.6L483.9,240.0L476.7,245.6L469.4,250.9L455.0,252.9L447.8,248.8L440.6,245.2L433.3,242.4L426.1,240.1L418.9,236.5L404.4,227.4L397.2,224.0L390.0,228.2L382.8,239.9L375.6,250.1L368.3,259.0L353.9,257.7L346.7,258.7L267.2,225.9L252.8,182.3L245.6,163.4L238.3,151.5L231.1,147.1L223.9,149.2L216.7,155.3L202.2,174.5L195.0,184.4L187.8,191.2L180.6,192.0L173.3,193.9L166.1,193.6L151.7,185.7L144.4,179.5L137.2,169.9L130.0,158.4L122.8,148.8L115.6,146.1L101.1,148.9L93.9,151.7L86.7,155.8L79.4,162.4L72.2,169.7L65.0,184.5Z" fill="rgba(22,163,74,0.15)" stroke="none"/>
<path d="M65.0,88.7L72.2,97.2L79.4,99.0L86.7,93.7L93.9,88.3L101.1,83.3L108.3,79.7L115.6,80.9L122.8,86.0L130.0,96.8L137.2,108.4L144.4,117.0L151.7,121.2L158.9,124.7L166.1,129.0L173.3,131.4L180.6,130.6L187.8,129.7L195.0,121.8L202.2,109.8L209.4,98.3L216.7,90.6L223.9,86.6L231.1,85.6L238.3,89.8L245.6,99.1L252.8,111.8L260.0,122.7L267.2,132.3L274.4,133.2L281.7,132.0L288.9,130.2L296.1,128.9L303.3,128.9L310.6,130.7L317.8,134.7L325.0,140.9L332.2,149.5L339.4,159.8L346.7,171.0L353.9,181.5L361.1,188.4L368.3,193.0L375.6,187.2L382.8,178.4L390.0,166.7L397.2,161.4L404.4,162.8L411.7,165.6L418.9,171.9L426.1,177.5L433.3,181.0L440.6,183.8L447.8,186.3L455.0,188.4L462.2,187.1L469.4,186.3L476.7,183.1L483.9,178.6L491.1,177.2L498.3,173.6L505.6,167.9L512.8,162.1L520.0,159.7L527.2,159.9L534.4,163.0L541.7,167.4L548.9,171.4L556.1,178.1L563.3,183.0L570.6,188.4L577.8,188.7L585.0,187.4L592.2,184.2L599.4,178.3L606.7,171.7L613.9,169.8L621.1,171.9L628.3,175.2L635.6,178.4L642.8,181.3L650.0,180.7L657.2,176.4L664.4,170.7L671.7,166.9L678.9,164.3L686.1,163.4L693.3,160.5L700.6,157.7L707.8,155.6L715.0,151.8L722.2,150.7L729.4,150.1L736.7,150.7L743.9,157.8L751.1,166.7L758.3,173.8L765.6,181.7L772.8,189.1L780.0,188.8L780.0,289.2L772.8,268.3L765.6,253.4L758.3,240.0L751.1,230.2L743.9,220.0L736.7,212.8L729.4,213.1L722.2,215.5L715.0,218.8L707.8,220.3L700.6,220.2L693.3,221.9L686.1,224.8L678.9,226.8L671.7,231.5L664.4,237.5L657.2,240.9L650.0,243.2L642.8,242.7L635.6,239.8L628.3,237.7L621.1,236.5L613.9,236.7L606.7,236.3L599.4,240.8L592.2,245.6L585.0,248.8L577.8,251.2L570.6,252.9L563.3,249.8L556.1,242.7L548.9,233.9L541.7,228.8L534.4,224.4L527.2,222.4L520.0,224.3L512.8,228.9L505.6,232.5L498.3,236.1L491.1,238.6L483.9,240.0L476.7,245.6L469.4,250.9L462.2,253.9L455.0,252.9L447.8,248.8L440.6,245.2L433.3,242.4L426.1,240.1L418.9,236.5L411.7,232.5L404.4,227.4L397.2,224.0L390.0,228.2L382.8,239.9L375.6,250.1L368.3,259.0L361.1,259.8L353.9,257.7L346.7,258.7L339.4,266.8L332.2,275.5L325.0,283.2L317.8,288.6L310.6,291.1L303.3,290.0L296.1,285.0L288.9,275.9L281.7,262.7L274.4,245.8L267.2,225.9L260.0,204.3L252.8,182.3L245.6,163.4L238.3,151.5L231.1,147.1L223.9,149.2L216.7,155.3L209.4,165.3L202.2,174.5L195.0,184.4L187.8,191.2L180.6,192.0L173.3,193.9L166.1,193.6L158.9,191.6L151.7,185.7L144.4,179.5L137.2,169.9L130.0,158.4L122.8,148.8L115.6,146.1L108.3,147.5L101.1,148.9L93.9,151.7L86.7,155.8L79.4,162.4L72.2,169.7L65.0,184.5Z" fill="rgba(37,99,235,0.22)" stroke="none"/>
<polyline points="65.0,136.6 72.2,133.5 79.4,130.7 86.7,124.7 93.9,120.0 101.1,116.1 108.3,113.6 115.6,113.5 122.8,117.4 130.0,127.6 137.2,139.1 144.4,148.2 151.7,153.4 158.9,158.2 166.1,161.3 173.3,162.7 180.6,161.3 187.8,160.5 195.0,153.1 202.2,142.1 209.4,131.8 216.7,123.0 223.9,117.9 231.1,116.3 238.3,120.6 245.6,131.3 252.8,147.0 260.0,163.5 267.2,179.1 274.4,189.5 281.7,197.3 288.9,203.1 296.1,207.0 303.3,209.5 310.6,210.9 317.8,211.7 325.0,212.1 332.2,212.5 339.4,213.3 346.7,214.9 353.9,219.6 361.1,224.1 368.3,226.0 375.6,218.7 382.8,209.2 390.0,197.5 397.2,192.7 404.4,195.1 411.7,199.0 418.9,204.2 426.1,208.8 433.3,211.7 440.6,214.5 447.8,217.6 455.0,220.7 462.2,220.5 469.4,218.6 476.7,214.4 483.9,209.3 491.1,207.9 498.3,204.9 505.6,200.2 512.8,195.5 520.0,192.0 527.2,191.1 534.4,193.7 541.7,198.1 548.9,202.7 556.1,210.4 563.3,216.4 570.6,220.6 577.8,220.0 585.0,218.1 592.2,214.9 599.4,209.5 606.7,204.0 613.9,203.3 621.1,204.2 628.3,206.5 635.6,209.1 642.8,212.0 650.0,211.9 657.2,208.6 664.4,204.1 671.7,199.2 678.9,195.5 686.1,194.1 693.3,191.2 700.6,188.9 707.8,188.0 715.0,185.3 722.2,183.1 729.4,181.6 736.7,181.8 743.9,188.9 751.1,198.4 758.3,206.9 765.6,217.5 772.8,228.7 780.0,239.0" fill="none" stroke="#2563eb" stroke-width="2"/>
<polyline points="65.0,136.6 72.2,133.5 79.4,130.7 86.7,124.7 93.9,120.0 101.1,116.1 115.6,113.5 122.8,117.4 130.0,127.6 137.2,139.1 144.4,148.2 151.7,153.4 166.1,161.3 173.3,162.7 180.6,161.3 187.8,160.5 195.0,153.1 202.2,142.1 216.7,123.0 223.9,117.9 231.1,116.3 238.3,120.6 245.6,131.3 252.8,147.0 267.2,179.1 346.7,214.9 353.9,219.6 368.3,226.0 375.6,218.7 382.8,209.2 390.0,197.5 397.2,192.7 404.4,195.1 418.9,204.2 426.1,208.8 433.3,211.7 440.6,214.5 447.8,217.6 455.0,220.7 469.4,218.6 476.7,214.4 483.9,209.3 491.1,207.9 498.3,204.9 505.6,200.2 520.0,192.0 527.2,191.1 534.4,193.7 541.7,198.1 548.9,202.7 556.1,210.4 570.6,220.6 577.8,220.0 585.0,218.1 592.2,214.9 599.4,209.5 606.7,204.0 621.1,204.2 628.3,206.5 635.6,209.1 642.8,212.0 650.0,211.9 657.2,208.6 671.7,199.2 678.9,195.5 686.1,194.1 693.3,191.2 700.6,188.9 707.8,188.0 722.2,183.1 729.4,181.6 736.7,181.8 743.9,188.9 751.1,198.4 758.3,206.9 772.8,228.7 780.0,239.0" fill="none" stroke="#16a34a" stroke-width="2"/>
<polyline points="65.0,136.6 72.2,133.5 79.4,130.7 86.7,124.7 93.9,120.0 101.1,116.1 108.3,113.6 115.6,113.5 122.8,117.4 130.0,127.6 137.2,139.1 144.4,148.2 151.7,153.4 158.9,158.2 166.1,161.3 173.3,162.7 180.6,161.3 187.8,160.5 195.0,153.1 202.2,142.1 209.4,131.8 216.7,123.0 223.9,117.9 231.1,116.3 238.3,120.6 245.6,131.3 252.8,147.0 260.0,163.5 267.2,179.1 274.4,189.5 281.7,197.3 288.9,203.1 296.1,207.0 303.3,209.5 310.6,210.9 317.8,211.7 325.0,212.1 332.2,212.5 339.4,213.3 346.7,214.9 353.9,219.6 361.1,224.1 368.3,226.0 375.6,218.7 382.8,209.2 390.0,197.5 397.2,192.7 404.4,195.1 411.7,199.0 418.9,204.2 426.1,208.8 433.3,211.7 440.6,214.5 447.8,217.6 455.0,220.7 462.2,220.5 469.4,218.6 476.7,214.4 483.9,209.3 491.1,207.9 498.3,204.9 505.6,200.2 512.8,195.5 520.0,192.0 527.2,191.1 534.4,193.7 541.7,198.1 548.9,202.7 556.1,210.4 563.3,216.4 570.6,220.6 577.8,220.0 585.0,218.1 592.2,214.9 599.4,209.5 606.7,204.0 613.9,203.3 621.1,204.2 628.3,206.5 635.6,209.1 642.8,212.0 650.0,211.9 657.2,208.6 664.4,204.1 671.7,199.2 678.9,195.5 686.1,194.1 693.3,191.2 700.6,188.9 707.8,188.0 715.0,185.3 722.2,183.1 729.4,181.6 736.7,181.8 743.9,188.9 751.1,198.4 758.3,206.9 765.6,217.5 772.8,228.7 780.0,239.0" fill="none" stroke="#ef4444" stroke-width="2" stroke-dasharray="6,3"/>
</g>
<circle cx="65.0" cy="132.3" r="2.5" fill="#555" opacity="0.6"/>
<circle cx="72.2" cy="121.3" r="2.5" fill="#555" opacity="0.6"/>
<circle cx="79.4" cy="175.4" r="2.5" fill="#555" opacity="0.6"/>
<circle cx="86.7" cy="107.6" r="2.5" fill="#555" opacity="0.6"/>
<circle cx="93.9" cy="121.3" r="2.5" fill="#555" opacity="0.6"/>
<circle cx="101.1" cy="121.3" r="2.5" fill="#555" opacity="0.6"/>
<circle cx="115.6" cy="102.1" r="2.5" fill="#555" opacity="0.6"/>
<circle cx="122.8" cy="63.7" r="2.5" fill="#555" opacity="0.6"/>
<circle cx="130.0" cy="126.8" r="2.5" fill="#555" opacity="0.6"/>
<circle cx="137.2" cy="166.6" r="2.5" fill="#555" opacity="0.6"/>
<circle cx="144.4" cy="183.1" r="2.5" fill="#555" opacity="0.6"/>
<circle cx="151.7" cy="135.1" r="2.5" fill="#555" opacity="0.6"/>
<circle cx="166.1" cy="159.8" r="2.5" fill="#555" opacity="0.6"/>
<circle cx="173.3" cy="176.3" r="2.5" fill="#555" opacity="0.6"/>
<circle cx="180.6" cy="115.9" r="2.5" fill="#555" opacity="0.6"/>
<circle cx="187.8" cy="220.5" r="2.5" fill="#555" opacity="0.6"/>
<circle cx="195.0" cy="176.8" r="2.5" fill="#555" opacity="0.6"/>
<circle cx="202.2" cy="126.8" r="2.5" fill="#555" opacity="0.6"/>
<circle cx="216.7" cy="107.6" r="2.5" fill="#555" opacity="0.6"/>
<circle cx="223.9" cy="124.1" r="2.5" fill="#555" opacity="0.6"/>
<circle cx="231.1" cy="96.6" r="2.5" fill="#555" opacity="0.6"/>
<circle cx="238.3" cy="93.9" r="2.5" fill="#555" opacity="0.6"/>
<circle cx="245.6" cy="104.9" r="2.5" fill="#555" opacity="0.6"/>
<circle cx="252.8" cy="157.0" r="2.5" fill="#555" opacity="0.6"/>
<circle cx="267.2" cy="227.3" r="2.5" fill="#555" opacity="0.6"/>
<circle cx="346.7" cy="173.8" r="2.5" fill="#555" opacity="0.6"/>
<circle cx="353.9" cy="211.7" r="2.5" fill="#555" opacity="0.6"/>
<circle cx="368.3" cy="314.6" r="2.5" fill="#555" opacity="0.6"/>
<circle cx="375.6" cy="213.6" r="2.5" fill="#555" opacity="0.6"/>
<circle cx="382.8" cy="247.1" r="2.5" fill="#555" opacity="0.6"/>
<circle cx="390.0" cy="132.3" r="2.5" fill="#555" opacity="0.6"/>
<circle cx="397.2" cy="137.8" r="2.5" fill="#555" opacity="0.6"/>
<circle cx="404.4" cy="211.4" r="2.5" fill="#555" opacity="0.6"/>
<circle cx="418.9" cy="214.4" r="2.5" fill="#555" opacity="0.6"/>
<circle cx="426.1" cy="229.0" r="2.5" fill="#555" opacity="0.6"/>
<circle cx="433.3" cy="207.8" r="2.5" fill="#555" opacity="0.6"/>
<circle cx="440.6" cy="202.6" r="2.5" fill="#555" opacity="0.6"/>
<circle cx="447.8" cy="203.2" r="2.5" fill="#555" opacity="0.6"/>
<circle cx="455.0" cy="248.2" r="2.5" fill="#555" opacity="0.6"/>
<circle cx="469.4" cy="235.6" r="2.5" fill="#555" opacity="0.6"/>
<circle cx="476.7" cy="221.3" r="2.5" fill="#555" opacity="0.6"/>
<circle cx="483.9" cy="154.3" r="2.5" fill="#555" opacity="0.6"/>
<circle cx="491.1" cy="231.4" r="2.5" fill="#555" opacity="0.6"/>
<circle cx="498.3" cy="225.4" r="2.5" fill="#555" opacity="0.6"/>
<circle cx="505.6" cy="202.3" r="2.5" fill="#555" opacity="0.6"/>
<circle cx="520.0" cy="180.6" r="2.5" fill="#555" opacity="0.6"/>
<circle cx="527.2" cy="169.7" r="2.5" fill="#555" opacity="0.6"/>
<circle cx="534.4" cy="193.6" r="2.5" fill="#555" opacity="0.6"/>
<circle cx="541.7" cy="214.1" r="2.5" fill="#555" opacity="0.6"/>
<circle cx="548.9" cy="162.5" r="2.5" fill="#555" opacity="0.6"/>
<circle cx="556.1" cy="228.1" r="2.5" fill="#555" opacity="0.6"/>
<circle cx="570.6" cy="261.6" r="2.5" fill="#555" opacity="0.6"/>
<circle cx="577.8" cy="207.6" r="2.5" fill="#555" opacity="0.6"/>
<circle cx="585.0" cy="216.9" r="2.5" fill="#555" opacity="0.6"/>
<circle cx="592.2" cy="236.1" r="2.5" fill="#555" opacity="0.6"/>
<circle cx="599.4" cy="219.9" r="2.5" fill="#555" opacity="0.6"/>
<circle cx="606.7" cy="154.3" r="2.5" fill="#555" opacity="0.6"/>
<circle cx="621.1" cy="199.9" r="2.5" fill="#555" opacity="0.6"/>
<circle cx="628.3" cy="207.0" r="2.5" fill="#555" opacity="0.6"/>
<circle cx="635.6" cy="195.5" r="2.5" fill="#555" opacity="0.6"/>
<circle cx="642.8" cy="235.6" r="2.5" fill="#555" opacity="0.6"/>
<circle cx="650.0" cy="234.2" r="2.5" fill="#555" opacity="0.6"/>
<circle cx="657.2" cy="209.7" r="2.5" fill="#555" opacity="0.6"/>
<circle cx="671.7" cy="187.8" r="2.5" fill="#555" opacity="0.6"/>
<circle cx="678.9" cy="169.1" r="2.5" fill="#555" opacity="0.6"/>
<circle cx="686.1" cy="221.0" r="2.5" fill="#555" opacity="0.6"/>
<circle cx="693.3" cy="186.4" r="2.5" fill="#555" opacity="0.6"/>
<circle cx="700.6" cy="172.1" r="2.5" fill="#555" opacity="0.6"/>
<circle cx="707.8" cy="216.1" r="2.5" fill="#555" opacity="0.6"/>
<circle cx="722.2" cy="191.1" r="2.5" fill="#555" opacity="0.6"/>
<circle cx="729.4" cy="192.5" r="2.5" fill="#555" opacity="0.6"/>
<circle cx="736.7" cy="118.6" r="2.5" fill="#555" opacity="0.6"/>
<circle cx="743.9" cy="189.4" r="2.5" fill="#555" opacity="0.6"/>
<circle cx="751.1" cy="235.0" r="2.5" fill="#555" opacity="0.6"/>
<circle cx="758.3" cy="187.5" r="2.5" fill="#555" opacity="0.6"/>
<circle cx="772.8" cy="243.8" r="2.5" fill="#555" opacity="0.6"/>
<circle cx="780.0" cy="236.7" r="2.5" fill="#555" opacity="0.6"/>
<line x1="65" y1="28" x2="65" y2="330" stroke="#333" stroke-width="1.5"/>
<line x1="65" y1="330" x2="780" y2="330" stroke="#333" stroke-width="1.5"/>
<line x1="60" y1="330.0" x2="65" y2="330.0" stroke="#333" stroke-width="1.5"/>
<text x="57" y="330.0" text-anchor="end" dominant-baseline="middle" fill="#333">400</text>
<line x1="60" y1="275.1" x2="65" y2="275.1" stroke="#333" stroke-width="1.5"/>
<text x="57" y="275.1" text-anchor="end" dominant-baseline="middle" fill="#333">600</text>
<line x1="60" y1="220.2" x2="65" y2="220.2" stroke="#333" stroke-width="1.5"/>
<text x="57" y="220.2" text-anchor="end" dominant-baseline="middle" fill="#333">800</text>
<line x1="60" y1="165.3" x2="65" y2="165.3" stroke="#333" stroke-width="1.5"/>
<text x="57" y="165.3" text-anchor="end" dominant-baseline="middle" fill="#333">1000</text>
<line x1="60" y1="110.4" x2="65" y2="110.4" stroke="#333" stroke-width="1.5"/>
<text x="57" y="110.4" text-anchor="end" dominant-baseline="middle" fill="#333">1200</text>
<line x1="60" y1="55.5" x2="65" y2="55.5" stroke="#333" stroke-width="1.5"/>
<text x="57" y="55.5" text-anchor="end" dominant-baseline="middle" fill="#333">1400</text>
<line x1="130.0" y1="330" x2="130.0" y2="335" stroke="#333" stroke-width="1.5"/>
<text x="130.0" y="348" text-anchor="middle" fill="#333">1880</text>
<line x1="274.4" y1="330" x2="274.4" y2="335" stroke="#333" stroke-width="1.5"/>
<text x="274.4" y="348" text-anchor="middle" fill="#333">1900</text>
<line x1="418.9" y1="330" x2="418.9" y2="335" stroke="#333" stroke-width="1.5"/>
<text x="418.9" y="348" text-anchor="middle" fill="#333">1920</text>
<line x1="563.3" y1="330" x2="563.3" y2="335" stroke="#333" stroke-width="1.5"/>
<text x="563.3" y="348" text-anchor="middle" fill="#333">1940</text>
<line x1="707.8" y1="330" x2="707.8" y2="335" stroke="#333" stroke-width="1.5"/>
<text x="707.8" y="348" text-anchor="middle" fill="#333">1960</text>
<text x="422.5" y="375" text-anchor="middle" fill="#333" font-size="13">Year</text>
<text x="14" y="179.0" text-anchor="middle" fill="#333" font-size="13" transform="rotate(-90,14,179.0)">Annual flow</text>
<text x="422.5" y="18" text-anchor="middle" fill="#333" font-size="14" font-weight="600">Nile demo (gapped data, 77/100 observed) — fit (order=1, trend), cold 249 ms, warm 95 ms, associativeScan/WASM/f64</text>
<rect x="423" y="32" width="290" height="105" rx="4" fill="rgba(255,255,255,0.92)" stroke="#e5e7eb" stroke-width="1"/>
<circle cx="437" cy="46" r="3" fill="#555" opacity="0.6"/>
<text x="448" y="46" dominant-baseline="middle" fill="#333" font-size="11">Observed</text>
<rect x="506" y="39" width="14" height="14" fill="rgba(180,180,180,0.18)" stroke="#ccc" stroke-width="0.5"/>
<text x="526" y="46" dominant-baseline="middle" fill="#333" font-size="11">Missing (NaN)</text>
<rect x="431" y="62" width="14" height="14" fill="rgba(37,99,235,0.07)" stroke="none"/>
<rect x="431" y="66" width="14" height="6" fill="rgba(37,99,235,0.22)" stroke="none"/>
<line x1="431" y1="69" x2="445" y2="69" stroke="#2563eb" stroke-width="2"/>
<text x="449" y="69" dominant-baseline="middle" fill="#333" font-size="11">NaN-padded fit ±2σ state / ±2σ obs</text>
<rect x="431" y="84" width="14" height="14" fill="rgba(22,163,74,0.15)" stroke="none"/>
<line x1="431" y1="91" x2="445" y2="91" stroke="#16a34a" stroke-width="2"/>
<text x="449" y="91" dominant-baseline="middle" fill="#333" font-size="11">Timestamps fit ±2σ state (no NaN)</text>
<rect x="431" y="108" width="14" height="14" fill="rgba(239,68,68,0.12)" stroke="none"/>
<line x1="431" y1="115" x2="445" y2="115" stroke="#ef4444" stroke-width="2" stroke-dasharray="5,2"/>
<text x="449" y="115" dominant-baseline="middle" fill="#333" font-size="11">MATLAB/Octave x[0] ±2σ (reference)</text>
</svg>