<svg xmlns="http://www.w3.org/2000/svg" viewBox="0 0 860 360" font-family="system-ui,-apple-system,sans-serif" font-size="12">
<rect width="860" height="360" fill="white"/>
<line x1="64" y1="308.0" x2="840" y2="308.0" stroke="#e5e7eb" stroke-width="1"/>
<line x1="64" y1="277.6" x2="840" y2="277.6" stroke="#e5e7eb" stroke-width="1"/>
<line x1="64" y1="247.1" x2="840" y2="247.1" stroke="#e5e7eb" stroke-width="1"/>
<line x1="64" y1="216.7" x2="840" y2="216.7" stroke="#e5e7eb" stroke-width="1"/>
<line x1="64" y1="186.2" x2="840" y2="186.2" stroke="#e5e7eb" stroke-width="1"/>
<line x1="64" y1="155.8" x2="840" y2="155.8" stroke="#e5e7eb" stroke-width="1"/>
<line x1="64" y1="125.3" x2="840" y2="125.3" stroke="#e5e7eb" stroke-width="1"/>
<line x1="64" y1="94.9" x2="840" y2="94.9" stroke="#e5e7eb" stroke-width="1"/>
<line x1="64" y1="64.4" x2="840" y2="64.4" stroke="#e5e7eb" stroke-width="1"/>
<line x1="64" y1="34.0" x2="840" y2="34.0" stroke="#e5e7eb" stroke-width="1"/>
<path d="M64.0,159.8L70.8,160.0L77.2,160.2L84.0,160.3L90.6,160.5L97.4,160.6L104.0,160.8L110.8,160.9L117.6,161.0L124.2,161.1L131.0,161.2L137.6,161.3L144.4,161.3L151.2,161.4L157.4,161.5L164.2,161.5L170.8,161.5L177.6,161.5L184.2,161.6L191.0,161.6L197.8,161.6L204.4,161.6L211.2,161.5L217.8,161.5L224.7,161.5L231.5,161.5L237.6,161.4L244.4,161.4L251.0,161.4L257.8,161.3L264.4,161.3L271.2,161.2L278.1,161.2L284.6,161.2L291.5,161.1L298.1,161.1L304.9,161.1L311.7,161.1L317.8,161.0L324.6,161.0L331.2,161.0L338.1,161.0L344.6,161.0L351.5,161.1L358.3,161.1L364.9,161.1L371.7,161.1L378.3,161.2L385.1,161.2L391.9,161.3L398.3,161.4L405.1,161.4L411.7,161.5L418.5,161.6L425.1,161.7L431.9,161.7L438.7,161.8L445.3,161.9L452.1,162.0L458.7,162.1L465.5,162.2L472.3,162.3L478.5,162.4L485.3,162.6L491.9,162.7L498.7,162.8L505.3,162.9L512.1,163.0L518.9,163.1L525.5,163.2L532.3,163.3L538.9,163.4L545.7,163.5L552.5,163.6L558.7,163.7L565.5,163.8L572.1,163.8L578.9,163.9L585.5,164.0L592.3,164.0L599.1,164.1L605.7,164.1L612.5,164.2L619.1,164.2L625.9,164.3L632.8,164.3L638.9,164.3L645.7,164.3L652.3,164.3L659.1,164.4L665.7,164.4L672.5,164.3L679.3,164.3L685.9,164.3L692.8,164.3L699.3,164.3L706.2,164.2L713.0,164.2L719.3,164.1L726.2,164.0L732.8,164.0L739.6,163.9L746.2,163.8L753.0,163.7L759.8,163.5L766.4,163.4L773.2,163.3L779.8,163.1L786.6,163.0L793.4,162.8L799.6,162.6L806.4,162.4L813.0,162.2L819.8,162.0L826.4,161.7L833.2,161.5L840.0,161.2L840.0,178.6L833.2,178.2L826.4,177.9L819.8,177.6L813.0,177.3L806.4,177.0L799.6,176.8L793.4,176.5L786.6,176.2L779.8,176.0L773.2,175.8L766.4,175.5L759.8,175.3L753.0,175.1L746.2,175.0L739.6,174.8L732.8,174.6L726.2,174.5L719.3,174.3L713.0,174.2L706.2,174.1L699.3,174.0L692.8,173.9L685.9,173.8L679.3,173.7L672.5,173.6L665.7,173.5L659.1,173.5L652.3,173.4L645.7,173.3L638.9,173.3L632.8,173.2L625.9,173.1L619.1,173.1L612.5,173.0L605.7,173.0L599.1,172.9L592.3,172.8L585.5,172.8L578.9,172.7L572.1,172.6L565.5,172.6L558.7,172.5L552.5,172.4L545.7,172.3L538.9,172.2L532.3,172.1L525.5,172.0L518.9,171.9L512.1,171.8L505.3,171.7L498.7,171.6L491.9,171.5L485.3,171.4L478.5,171.3L472.3,171.2L465.5,171.1L458.7,171.0L452.1,170.9L445.3,170.8L438.7,170.7L431.9,170.6L425.1,170.5L418.5,170.4L411.7,170.4L405.1,170.3L398.3,170.2L391.9,170.1L385.1,170.1L378.3,170.0L371.7,170.0L364.9,169.9L358.3,169.9L351.5,169.9L344.6,169.9L338.1,169.8L331.2,169.8L324.6,169.8L317.8,169.8L311.7,169.9L304.9,169.9L298.1,169.9L291.5,170.0L284.6,170.0L278.1,170.1L271.2,170.1L264.4,170.2L257.8,170.3L251.0,170.4L244.4,170.5L237.6,170.6L231.5,170.7L224.7,170.8L217.8,170.9L211.2,171.1L204.4,171.2L197.8,171.4L191.0,171.6L184.2,171.7L177.6,171.9L170.8,172.1L164.2,172.4L157.4,172.6L151.2,172.8L144.4,173.1L137.6,173.3L131.0,173.6L124.2,173.9L117.6,174.2L110.8,174.5L104.0,174.9L97.4,175.2L90.6,175.5L84.0,175.9L77.2,176.3L70.8,176.7L64.0,177.0Z" fill="rgba(37,99,235,0.12)" stroke="none"/>
<path d="M64.0,159.8L70.8,160.0L77.2,160.2L84.0,160.3L90.6,160.5L97.4,160.6L104.0,160.8L110.8,160.9L117.6,161.0L124.2,161.1L131.0,161.2L137.6,161.3L144.4,161.3L151.2,161.4L157.4,161.5L164.2,161.5L170.8,161.5L177.6,161.5L184.2,161.6L191.0,161.6L197.8,161.6L204.4,161.6L211.2,161.5L217.8,161.5L224.7,161.5L231.5,161.5L237.6,161.4L244.4,161.4L251.0,161.4L257.8,161.3L264.4,161.3L271.2,161.2L278.1,161.2L284.6,161.2L291.5,161.1L298.1,161.1L304.9,161.1L311.7,161.1L317.8,161.0L324.6,161.0L331.2,161.0L338.1,161.0L344.6,161.0L351.5,161.1L358.3,161.1L364.9,161.1L371.7,161.1L378.3,161.2L385.1,161.2L391.9,161.3L398.3,161.4L405.1,161.4L411.7,161.5L418.5,161.6L425.1,161.7L431.9,161.7L438.7,161.8L445.3,161.9L452.1,162.0L458.7,162.1L465.5,162.2L472.3,162.3L478.5,162.4L485.3,162.6L491.9,162.7L498.7,162.8L505.3,162.9L512.1,163.0L518.9,163.1L525.5,163.2L532.3,163.3L538.9,163.4L545.7,163.5L552.5,163.6L558.7,163.7L565.5,163.8L572.1,163.8L578.9,163.9L585.5,164.0L592.3,164.0L599.1,164.1L605.7,164.1L612.5,164.2L619.1,164.2L625.9,164.3L632.8,164.3L638.9,164.3L645.7,164.3L652.3,164.3L659.1,164.4L665.7,164.4L672.5,164.3L679.3,164.3L685.9,164.3L692.8,164.3L699.3,164.3L706.2,164.2L713.0,164.2L719.3,164.1L726.2,164.0L732.8,164.0L739.6,163.9L746.2,163.8L753.0,163.7L759.8,163.5L766.4,163.4L773.2,163.3L779.8,163.1L786.6,163.0L793.4,162.8L799.6,162.6L806.4,162.4L813.0,162.2L819.8,162.0L826.4,161.7L833.2,161.5L840.0,161.2L840.0,178.6L833.2,178.2L826.4,177.9L819.8,177.6L813.0,177.3L806.4,177.0L799.6,176.8L793.4,176.5L786.6,176.2L779.8,176.0L773.2,175.8L766.4,175.5L759.8,175.3L753.0,175.1L746.2,175.0L739.6,174.8L732.8,174.6L726.2,174.5L719.3,174.3L713.0,174.2L706.2,174.1L699.3,174.0L692.8,173.9L685.9,173.8L679.3,173.7L672.5,173.6L665.7,173.5L659.1,173.5L652.3,173.4L645.7,173.3L638.9,173.3L632.8,173.2L625.9,173.1L619.1,173.1L612.5,173.0L605.7,173.0L599.1,172.9L592.3,172.8L585.5,172.8L578.9,172.7L572.1,172.6L565.5,172.6L558.7,172.5L552.5,172.4L545.7,172.3L538.9,172.2L532.3,172.1L525.5,172.0L518.9,171.9L512.1,171.8L505.3,171.7L498.7,171.6L491.9,171.5L485.3,171.4L478.5,171.3L472.3,171.2L465.5,171.1L458.7,171.0L452.1,170.9L445.3,170.8L438.7,170.7L431.9,170.6L425.1,170.5L418.5,170.4L411.7,170.4L405.1,170.3L398.3,170.2L391.9,170.1L385.1,170.1L378.3,170.0L371.7,170.0L364.9,169.9L358.3,169.9L351.5,169.9L344.6,169.9L338.1,169.8L331.2,169.8L324.6,169.8L317.8,169.8L311.7,169.9L304.9,169.9L298.1,169.9L291.5,170.0L284.6,170.0L278.1,170.1L271.2,170.1L264.4,170.2L257.8,170.3L251.0,170.4L244.4,170.5L237.6,170.6L231.5,170.7L224.7,170.8L217.8,170.9L211.2,171.1L204.4,171.2L197.8,171.4L191.0,171.6L184.2,171.7L177.6,171.9L170.8,172.1L164.2,172.4L157.4,172.6L151.2,172.8L144.4,173.1L137.6,173.3L131.0,173.6L124.2,173.9L117.6,174.2L110.8,174.5L104.0,174.9L97.4,175.2L90.6,175.5L84.0,175.9L77.2,176.3L70.8,176.7L64.0,177.0Z" fill="rgba(239,68,68,0.12)" stroke="none"/>
<polyline points="64.0,168.4 70.8,168.3 77.2,168.2 84.0,168.1 90.6,168.0 97.4,167.9 104.0,167.8 110.8,167.7 117.6,167.6 124.2,167.5 131.0,167.4 137.6,167.3 144.4,167.2 151.2,167.1 157.4,167.0 164.2,166.9 170.8,166.8 177.6,166.7 184.2,166.7 191.0,166.6 197.8,166.5 204.4,166.4 211.2,166.3 217.8,166.2 224.7,166.1 231.5,166.1 237.6,166.0 244.4,165.9 251.0,165.9 257.8,165.8 264.4,165.7 271.2,165.7 278.1,165.6 284.6,165.6 291.5,165.5 298.1,165.5 304.9,165.5 311.7,165.5 317.8,165.4 324.6,165.4 331.2,165.4 338.1,165.4 344.6,165.5 351.5,165.5 358.3,165.5 364.9,165.5 371.7,165.6 378.3,165.6 385.1,165.7 391.9,165.7 398.3,165.8 405.1,165.8 411.7,165.9 418.5,166.0 425.1,166.1 431.9,166.2 438.7,166.3 445.3,166.4 452.1,166.5 458.7,166.6 465.5,166.7 472.3,166.8 478.5,166.9 485.3,167.0 491.9,167.1 498.7,167.2 505.3,167.3 512.1,167.4 518.9,167.5 525.5,167.6 532.3,167.7 538.9,167.8 545.7,167.9 552.5,168.0 558.7,168.1 565.5,168.2 572.1,168.2 578.9,168.3 585.5,168.4 592.3,168.4 599.1,168.5 605.7,168.6 612.5,168.6 619.1,168.7 625.9,168.7 632.8,168.8 638.9,168.8 645.7,168.8 652.3,168.9 659.1,168.9 665.7,168.9 672.5,169.0 679.3,169.0 685.9,169.0 692.8,169.1 699.3,169.1 706.2,169.1 713.0,169.2 719.3,169.2 726.2,169.2 732.8,169.3 739.6,169.3 746.2,169.4 753.0,169.4 759.8,169.4 766.4,169.5 773.2,169.5 779.8,169.6 786.6,169.6 793.4,169.6 799.6,169.7 806.4,169.7 813.0,169.7 819.8,169.8 826.4,169.8 833.2,169.9 840.0,169.9" fill="none" stroke="#2563eb" stroke-width="2"/>
<polyline points="64.0,168.4 70.8,168.3 77.2,168.2 84.0,168.1 90.6,168.0 97.4,167.9 104.0,167.8 110.8,167.7 117.6,167.6 124.2,167.5 131.0,167.4 137.6,167.3 144.4,167.2 151.2,167.1 157.4,167.0 164.2,166.9 170.8,166.8 177.6,166.7 184.2,166.7 191.0,166.6 197.8,166.5 204.4,166.4 211.2,166.3 217.8,166.2 224.7,166.1 231.5,166.1 237.6,166.0 244.4,165.9 251.0,165.9 257.8,165.8 264.4,165.7 271.2,165.7 278.1,165.6 284.6,165.6 291.5,165.5 298.1,165.5 304.9,165.5 311.7,165.5 317.8,165.4 324.6,165.4 331.2,165.4 338.1,165.4 344.6,165.5 351.5,165.5 358.3,165.5 364.9,165.5 371.7,165.6 378.3,165.6 385.1,165.7 391.9,165.7 398.3,165.8 405.1,165.8 411.7,165.9 418.5,166.0 425.1,166.1 431.9,166.2 438.7,166.3 445.3,166.4 452.1,166.5 458.7,166.6 465.5,166.7 472.3,166.8 478.5,166.9 485.3,167.0 491.9,167.1 498.7,167.2 505.3,167.3 512.1,167.4 518.9,167.5 525.5,167.6 532.3,167.7 538.9,167.8 545.7,167.9 552.5,168.0 558.7,168.1 565.5,168.2 572.1,168.2 578.9,168.3 585.5,168.4 592.3,168.4 599.1,168.5 605.7,168.6 612.5,168.6 619.1,168.7 625.9,168.7 632.8,168.8 638.9,168.8 645.7,168.8 652.3,168.9 659.1,168.9 665.7,168.9 672.5,169.0 679.3,169.0 685.9,169.0 692.8,169.1 699.3,169.1 706.2,169.1 713.0,169.2 719.3,169.2 726.2,169.2 732.8,169.3 739.6,169.3 746.2,169.4 753.0,169.4 759.8,169.4 766.4,169.5 773.2,169.5 779.8,169.6 786.6,169.6 793.4,169.6 799.6,169.7 806.4,169.7 813.0,169.7 819.8,169.8 826.4,169.8 833.2,169.9 840.0,169.9" fill="none" stroke="#ef4444" stroke-width="2" stroke-dasharray="6,3"/>
<circle cx="64.0" cy="260.0" r="2.2" fill="#555" opacity="0.55"/>
<circle cx="70.8" cy="247.1" r="2.2" fill="#555" opacity="0.55"/>
<circle cx="77.2" cy="220.5" r="2.2" fill="#555" opacity="0.55"/>
<circle cx="84.0" cy="179.4" r="2.2" fill="#555" opacity="0.55"/>
<circle cx="90.6" cy="138.3" r="2.2" fill="#555" opacity="0.55"/>
<circle cx="97.4" cy="115.4" r="2.2" fill="#555" opacity="0.55"/>
<circle cx="104.0" cy="90.3" r="2.2" fill="#555" opacity="0.55"/>
<circle cx="110.8" cy="85.0" r="2.2" fill="#555" opacity="0.55"/>
<circle cx="117.6" cy="119.2" r="2.2" fill="#555" opacity="0.55"/>
<circle cx="124.2" cy="164.9" r="2.2" fill="#555" opacity="0.55"/>
<circle cx="131.0" cy="208.3" r="2.2" fill="#555" opacity="0.55"/>
<circle cx="137.6" cy="208.3" r="2.2" fill="#555" opacity="0.55"/>
<circle cx="144.4" cy="217.4" r="2.2" fill="#555" opacity="0.55"/>
<circle cx="151.2" cy="250.2" r="2.2" fill="#555" opacity="0.55"/>
<circle cx="157.4" cy="254.7" r="2.2" fill="#555" opacity="0.55"/>
<circle cx="164.2" cy="182.4" r="2.2" fill="#555" opacity="0.55"/>
<circle cx="170.8" cy="138.3" r="2.2" fill="#555" opacity="0.55"/>
<circle cx="177.6" cy="107.1" r="2.2" fill="#555" opacity="0.55"/>
<circle cx="184.2" cy="70.5" r="2.2" fill="#555" opacity="0.55"/>
<circle cx="191.0" cy="89.6" r="2.2" fill="#555" opacity="0.55"/>
<circle cx="197.8" cy="117.0" r="2.2" fill="#555" opacity="0.55"/>
<circle cx="204.4" cy="153.5" r="2.2" fill="#555" opacity="0.55"/>
<circle cx="211.2" cy="181.7" r="2.2" fill="#555" opacity="0.55"/>
<circle cx="217.8" cy="233.4" r="2.2" fill="#555" opacity="0.55"/>
<circle cx="224.7" cy="244.1" r="2.2" fill="#555" opacity="0.55"/>
<circle cx="231.5" cy="276.8" r="2.2" fill="#555" opacity="0.55"/>
<circle cx="237.6" cy="257.8" r="2.2" fill="#555" opacity="0.55"/>
<circle cx="244.4" cy="189.3" r="2.2" fill="#555" opacity="0.55"/>
<circle cx="251.0" cy="136.8" r="2.2" fill="#555" opacity="0.55"/>
<circle cx="257.8" cy="95.6" r="2.2" fill="#555" opacity="0.55"/>
<circle cx="264.4" cy="72.8" r="2.2" fill="#555" opacity="0.55"/>
<circle cx="271.2" cy="74.3" r="2.2" fill="#555" opacity="0.55"/>
<circle cx="278.1" cy="110.1" r="2.2" fill="#555" opacity="0.55"/>
<circle cx="284.6" cy="152.0" r="2.2" fill="#555" opacity="0.55"/>
<circle cx="291.5" cy="196.1" r="2.2" fill="#555" opacity="0.55"/>
<circle cx="298.1" cy="186.2" r="2.2" fill="#555" opacity="0.55"/>
<circle cx="304.9" cy="225.0" r="2.2" fill="#555" opacity="0.55"/>
<circle cx="311.7" cy="276.8" r="2.2" fill="#555" opacity="0.55"/>
<circle cx="317.8" cy="193.1" r="2.2" fill="#555" opacity="0.55"/>
<circle cx="324.6" cy="174.8" r="2.2" fill="#555" opacity="0.55"/>
<circle cx="331.2" cy="136.8" r="2.2" fill="#555" opacity="0.55"/>
<circle cx="338.1" cy="97.9" r="2.2" fill="#555" opacity="0.55"/>
<circle cx="344.6" cy="83.5" r="2.2" fill="#555" opacity="0.55"/>
<circle cx="351.5" cy="82.7" r="2.2" fill="#555" opacity="0.55"/>
<circle cx="358.3" cy="126.1" r="2.2" fill="#555" opacity="0.55"/>
<circle cx="364.9" cy="161.1" r="2.2" fill="#555" opacity="0.55"/>
<circle cx="371.7" cy="207.5" r="2.2" fill="#555" opacity="0.55"/>
<circle cx="378.3" cy="198.4" r="2.2" fill="#555" opacity="0.55"/>
<circle cx="385.1" cy="212.1" r="2.2" fill="#555" opacity="0.55"/>
<circle cx="391.9" cy="208.3" r="2.2" fill="#555" opacity="0.55"/>
<circle cx="398.3" cy="215.1" r="2.2" fill="#555" opacity="0.55"/>
<circle cx="405.1" cy="170.2" r="2.2" fill="#555" opacity="0.55"/>
<circle cx="411.7" cy="133.7" r="2.2" fill="#555" opacity="0.55"/>
<circle cx="418.5" cy="107.1" r="2.2" fill="#555" opacity="0.55"/>
<circle cx="425.1" cy="82.7" r="2.2" fill="#555" opacity="0.55"/>
<circle cx="431.9" cy="98.7" r="2.2" fill="#555" opacity="0.55"/>
<circle cx="438.7" cy="137.5" r="2.2" fill="#555" opacity="0.55"/>
<circle cx="445.3" cy="145.9" r="2.2" fill="#555" opacity="0.55"/>
<circle cx="452.1" cy="188.5" r="2.2" fill="#555" opacity="0.55"/>
<circle cx="458.7" cy="206.8" r="2.2" fill="#555" opacity="0.55"/>
<circle cx="465.5" cy="238.0" r="2.2" fill="#555" opacity="0.55"/>
<circle cx="472.3" cy="244.1" r="2.2" fill="#555" opacity="0.55"/>
<circle cx="478.5" cy="223.5" r="2.2" fill="#555" opacity="0.55"/>
<circle cx="485.3" cy="182.4" r="2.2" fill="#555" opacity="0.55"/>
<circle cx="491.9" cy="132.9" r="2.2" fill="#555" opacity="0.55"/>
<circle cx="498.7" cy="109.4" r="2.2" fill="#555" opacity="0.55"/>
<circle cx="505.3" cy="85.8" r="2.2" fill="#555" opacity="0.55"/>
<circle cx="512.1" cy="89.6" r="2.2" fill="#555" opacity="0.55"/>
<circle cx="518.9" cy="113.9" r="2.2" fill="#555" opacity="0.55"/>
<circle cx="525.5" cy="184.7" r="2.2" fill="#555" opacity="0.55"/>
<circle cx="532.3" cy="189.3" r="2.2" fill="#555" opacity="0.55"/>
<circle cx="538.9" cy="244.1" r="2.2" fill="#555" opacity="0.55"/>
<circle cx="545.7" cy="295.8" r="2.2" fill="#555" opacity="0.55"/>
<circle cx="552.5" cy="278.3" r="2.2" fill="#555" opacity="0.55"/>
<circle cx="558.7" cy="230.4" r="2.2" fill="#555" opacity="0.55"/>
<circle cx="565.5" cy="181.7" r="2.2" fill="#555" opacity="0.55"/>
<circle cx="572.1" cy="129.1" r="2.2" fill="#555" opacity="0.55"/>
<circle cx="578.9" cy="105.5" r="2.2" fill="#555" opacity="0.55"/>
<circle cx="585.5" cy="51.5" r="2.2" fill="#555" opacity="0.55"/>
<circle cx="592.3" cy="78.9" r="2.2" fill="#555" opacity="0.55"/>
<circle cx="599.1" cy="123.8" r="2.2" fill="#555" opacity="0.55"/>
<circle cx="605.7" cy="171.0" r="2.2" fill="#555" opacity="0.55"/>
<circle cx="612.5" cy="220.5" r="2.2" fill="#555" opacity="0.55"/>
<circle cx="619.1" cy="273.8" r="2.2" fill="#555" opacity="0.55"/>
<circle cx="625.9" cy="250.2" r="2.2" fill="#555" opacity="0.55"/>
<circle cx="632.8" cy="292.0" r="2.2" fill="#555" opacity="0.55"/>
<circle cx="638.9" cy="224.3" r="2.2" fill="#555" opacity="0.55"/>
<circle cx="645.7" cy="174.0" r="2.2" fill="#555" opacity="0.55"/>
<circle cx="652.3" cy="141.3" r="2.2" fill="#555" opacity="0.55"/>
<circle cx="659.1" cy="89.6" r="2.2" fill="#555" opacity="0.55"/>
<circle cx="665.7" cy="59.9" r="2.2" fill="#555" opacity="0.55"/>
<circle cx="672.5" cy="83.5" r="2.2" fill="#555" opacity="0.55"/>
<circle cx="679.3" cy="113.2" r="2.2" fill="#555" opacity="0.55"/>
<circle cx="685.9" cy="152.0" r="2.2" fill="#555" opacity="0.55"/>
<circle cx="692.8" cy="176.3" r="2.2" fill="#555" opacity="0.55"/>
<circle cx="699.3" cy="190.8" r="2.2" fill="#555" opacity="0.55"/>
<circle cx="706.2" cy="242.5" r="2.2" fill="#555" opacity="0.55"/>
<circle cx="713.0" cy="268.4" r="2.2" fill="#555" opacity="0.55"/>
<circle cx="719.3" cy="210.6" r="2.2" fill="#555" opacity="0.55"/>
<circle cx="726.2" cy="185.5" r="2.2" fill="#555" opacity="0.55"/>
<circle cx="732.8" cy="133.7" r="2.2" fill="#555" opacity="0.55"/>
<circle cx="739.6" cy="112.4" r="2.2" fill="#555" opacity="0.55"/>
<circle cx="746.2" cy="82.0" r="2.2" fill="#555" opacity="0.55"/>
<circle cx="753.0" cy="94.9" r="2.2" fill="#555" opacity="0.55"/>
<circle cx="759.8" cy="121.5" r="2.2" fill="#555" opacity="0.55"/>
<circle cx="766.4" cy="165.7" r="2.2" fill="#555" opacity="0.55"/>
<circle cx="773.2" cy="184.7" r="2.2" fill="#555" opacity="0.55"/>
<circle cx="779.8" cy="257.0" r="2.2" fill="#555" opacity="0.55"/>
<circle cx="786.6" cy="254.0" r="2.2" fill="#555" opacity="0.55"/>
<circle cx="793.4" cy="230.4" r="2.2" fill="#555" opacity="0.55"/>
<circle cx="799.6" cy="256.2" r="2.2" fill="#555" opacity="0.55"/>
<circle cx="806.4" cy="193.1" r="2.2" fill="#555" opacity="0.55"/>
<circle cx="813.0" cy="120.8" r="2.2" fill="#555" opacity="0.55"/>
<circle cx="819.8" cy="83.5" r="2.2" fill="#555" opacity="0.55"/>
<circle cx="826.4" cy="78.9" r="2.2" fill="#555" opacity="0.55"/>
<circle cx="833.2" cy="85.8" r="2.2" fill="#555" opacity="0.55"/>
<circle cx="840.0" cy="120.8" r="2.2" fill="#555" opacity="0.55"/>
<line x1="64" y1="34" x2="64" y2="308" stroke="#333" stroke-width="1.5"/>
<line x1="64" y1="308" x2="840" y2="308" stroke="#333" stroke-width="1.5"/>
<line x1="59" y1="308.0" x2="64" y2="308.0" stroke="#333" stroke-width="1.5"/>
<text x="56" y="308.0" text-anchor="end" dominant-baseline="middle" fill="#333">-12</text>
<line x1="59" y1="277.6" x2="64" y2="277.6" stroke="#333" stroke-width="1.5"/>
<text x="56" y="277.6" text-anchor="end" dominant-baseline="middle" fill="#333">-8</text>
<line x1="59" y1="247.1" x2="64" y2="247.1" stroke="#333" stroke-width="1.5"/>
<text x="56" y="247.1" text-anchor="end" dominant-baseline="middle" fill="#333">-4</text>
<line x1="59" y1="216.7" x2="64" y2="216.7" stroke="#333" stroke-width="1.5"/>
<text x="56" y="216.7" text-anchor="end" dominant-baseline="middle" fill="#333">0</text>
<line x1="59" y1="186.2" x2="64" y2="186.2" stroke="#333" stroke-width="1.5"/>
<text x="56" y="186.2" text-anchor="end" dominant-baseline="middle" fill="#333">4</text>
<line x1="59" y1="155.8" x2="64" y2="155.8" stroke="#333" stroke-width="1.5"/>
<text x="56" y="155.8" text-anchor="end" dominant-baseline="middle" fill="#333">8</text>
<line x1="59" y1="125.3" x2="64" y2="125.3" stroke="#333" stroke-width="1.5"/>
<text x="56" y="125.3" text-anchor="end" dominant-baseline="middle" fill="#333">12</text>
<line x1="59" y1="94.9" x2="64" y2="94.9" stroke="#333" stroke-width="1.5"/>
<text x="56" y="94.9" text-anchor="end" dominant-baseline="middle" fill="#333">16</text>
<line x1="59" y1="64.4" x2="64" y2="64.4" stroke="#333" stroke-width="1.5"/>
<text x="56" y="64.4" text-anchor="end" dominant-baseline="middle" fill="#333">20</text>
<line x1="59" y1="34.0" x2="64" y2="34.0" stroke="#333" stroke-width="1.5"/>
<text x="56" y="34.0" text-anchor="end" dominant-baseline="middle" fill="#333">24</text>
<line x1="141.4" y1="308" x2="141.4" y2="313" stroke="#333" stroke-width="1.5"/>
<text x="141.4" y="326" text-anchor="middle" fill="#333">2005</text>
<line x1="221.6" y1="308" x2="221.6" y2="313" stroke="#333" stroke-width="1.5"/>
<text x="221.6" y="326" text-anchor="middle" fill="#333">2006</text>
<line x1="301.8" y1="308" x2="301.8" y2="313" stroke="#333" stroke-width="1.5"/>
<text x="301.8" y="326" text-anchor="middle" fill="#333">2007</text>
<line x1="382.0" y1="308" x2="382.0" y2="313" stroke="#333" stroke-width="1.5"/>
<text x="382.0" y="326" text-anchor="middle" fill="#333">2008</text>
<line x1="462.4" y1="308" x2="462.4" y2="313" stroke="#333" stroke-width="1.5"/>
<text x="462.4" y="326" text-anchor="middle" fill="#333">2009</text>
<line x1="542.7" y1="308" x2="542.7" y2="313" stroke="#333" stroke-width="1.5"/>
<text x="542.7" y="326" text-anchor="middle" fill="#333">2010</text>
<line x1="622.9" y1="308" x2="622.9" y2="313" stroke="#333" stroke-width="1.5"/>
<text x="622.9" y="326" text-anchor="middle" fill="#333">2011</text>
<line x1="703.1" y1="308" x2="703.1" y2="313" stroke="#333" stroke-width="1.5"/>
<text x="703.1" y="326" text-anchor="middle" fill="#333">2012</text>
<line x1="783.5" y1="308" x2="783.5" y2="313" stroke="#333" stroke-width="1.5"/>
<text x="783.5" y="326" text-anchor="middle" fill="#333">2013</text>
<text x="452" y="354" text-anchor="middle" fill="#333" font-size="13">Year</text>
<text x="14" y="171" text-anchor="middle" fill="#333" font-size="13" transform="rotate(-90,14,171)">Temperature (°C)</text>
<text x="452" y="17" text-anchor="middle" fill="#333" font-size="14" font-weight="600">Kaisaniemi seasonal demo — smoothed level state x[0] ± 2σ</text>
<rect x="522" y="42" width="312" height="62" rx="4" fill="white" stroke="#e5e7eb" stroke-width="1"/>
<circle cx="536" cy="56" r="3" fill="#555" opacity="0.6"/>
<text x="546" y="56" dominant-baseline="middle" fill="#333" font-size="11">Observed monthly temperature</text>
<line x1="530" y1="72" x2="542" y2="72" stroke="#2563eb" stroke-width="2"/>
<rect x="530" y="67" width="12" height="10" fill="rgba(37,99,235,0.12)" stroke="none"/>
<text x="546" y="72" dominant-baseline="middle" fill="#333" font-size="11">dlm-js level x[0] ± 2σ</text>
<line x1="530" y1="88" x2="542" y2="88" stroke="#ef4444" stroke-width="2" stroke-dasharray="6,3"/>
<rect x="530" y="83" width="12" height="10" fill="rgba(239,68,68,0.12)" stroke="none"/>
<text x="546" y="88" dominant-baseline="middle" fill="#333" font-size="11">MATLAB/Octave level x[0] ± 2σ</text>
</svg>