<svg xmlns="http://www.w3.org/2000/svg" viewBox="0 0 900 640" font-family="system-ui,-apple-system,sans-serif" font-size="12">
<rect width="900" height="640" fill="white"/>
<text x="472" y="18" text-anchor="middle" fill="#333" font-size="14" font-weight="600">Kaisaniemi demo — fit (order=1, trig, s=2), 101 ms, associativeScan/WASM/f64</text>
<line x1="66" y1="272.9" x2="878" y2="272.9" stroke="#e5e7eb" stroke-width="1"/>
<line x1="66" y1="237.8" x2="878" y2="237.8" stroke="#e5e7eb" stroke-width="1"/>
<line x1="66" y1="202.7" x2="878" y2="202.7" stroke="#e5e7eb" stroke-width="1"/>
<line x1="66" y1="167.5" x2="878" y2="167.5" stroke="#e5e7eb" stroke-width="1"/>
<line x1="66" y1="132.4" x2="878" y2="132.4" stroke="#e5e7eb" stroke-width="1"/>
<line x1="66" y1="97.3" x2="878" y2="97.3" stroke="#e5e7eb" stroke-width="1"/>
<line x1="66" y1="62.1" x2="878" y2="62.1" stroke="#e5e7eb" stroke-width="1"/>
<path d="M66.0,150.1L73.1,150.3L79.8,150.5L86.9,150.6L93.8,150.8L101.0,150.9L107.9,151.0L115.0,151.2L122.1,151.3L129.0,151.4L136.1,151.4L143.0,151.5L150.2,151.6L157.3,151.6L163.7,151.7L170.9,151.7L177.8,151.8L184.9,151.8L191.8,151.8L198.9,151.8L206.0,151.8L212.9,151.8L220.1,151.8L227.0,151.7L234.1,151.7L241.2,151.7L247.7,151.7L254.8,151.6L261.7,151.6L268.8,151.6L275.7,151.5L282.9,151.5L290.0,151.4L296.9,151.4L304.0,151.4L310.9,151.4L318.0,151.3L325.2,151.3L331.6,151.3L338.7,151.3L345.6,151.3L352.8,151.3L359.7,151.3L366.8,151.3L373.9,151.3L380.8,151.4L387.9,151.4L394.8,151.4L402.0,151.5L409.1,151.5L415.8,151.6L422.9,151.7L429.8,151.7L436.9,151.8L443.8,151.9L451.0,151.9L458.1,152.0L465.0,152.1L472.1,152.2L479.0,152.3L486.1,152.4L493.3,152.5L499.7,152.6L506.8,152.7L513.7,152.8L520.9,152.9L527.8,153.0L534.9,153.1L542.0,153.2L548.9,153.3L556.1,153.4L563.0,153.5L570.1,153.6L577.2,153.7L583.6,153.7L590.8,153.8L597.7,153.9L604.8,153.9L611.7,154.0L618.8,154.1L626.0,154.1L632.9,154.2L640.0,154.2L646.9,154.3L654.0,154.3L661.1,154.3L667.6,154.3L674.7,154.3L681.6,154.4L688.7,154.4L695.6,154.4L702.8,154.4L709.9,154.3L716.8,154.3L723.9,154.3L730.8,154.3L738.0,154.2L745.1,154.2L751.8,154.1L758.9,154.1L765.8,154.0L772.9,153.9L779.8,153.8L786.9,153.7L794.1,153.6L801.0,153.5L808.1,153.4L815.0,153.2L822.1,153.1L829.2,152.9L835.7,152.7L842.8,152.5L849.7,152.4L856.8,152.1L863.7,151.9L870.9,151.7L878.0,151.5L878.0,167.5L870.9,167.2L863.7,166.9L856.8,166.6L849.7,166.3L842.8,166.1L835.7,165.8L829.2,165.6L822.1,165.3L815.0,165.1L808.1,164.9L801.0,164.7L794.1,164.5L786.9,164.3L779.8,164.2L772.9,164.0L765.8,163.8L758.9,163.7L751.8,163.6L745.1,163.4L738.0,163.3L730.8,163.2L723.9,163.1L716.8,163.1L709.9,163.0L702.8,162.9L695.6,162.8L688.7,162.8L681.6,162.7L674.7,162.6L667.6,162.6L661.1,162.5L654.0,162.5L646.9,162.4L640.0,162.4L632.9,162.3L626.0,162.3L618.8,162.2L611.7,162.1L604.8,162.1L597.7,162.0L590.8,161.9L583.6,161.9L577.2,161.8L570.1,161.7L563.0,161.6L556.1,161.5L548.9,161.5L542.0,161.4L534.9,161.3L527.8,161.2L520.9,161.1L513.7,161.0L506.8,160.9L499.7,160.8L493.3,160.7L486.1,160.6L479.0,160.5L472.1,160.4L465.0,160.3L458.1,160.2L451.0,160.1L443.8,160.1L436.9,160.0L429.8,159.9L422.9,159.8L415.8,159.8L409.1,159.7L402.0,159.6L394.8,159.6L387.9,159.6L380.8,159.5L373.9,159.5L366.8,159.5L359.7,159.4L352.8,159.4L345.6,159.4L338.7,159.4L331.6,159.4L325.2,159.4L318.0,159.5L310.9,159.5L304.0,159.5L296.9,159.6L290.0,159.6L282.9,159.7L275.7,159.8L268.8,159.8L261.7,159.9L254.8,160.0L247.7,160.1L241.2,160.2L234.1,160.3L227.0,160.4L220.1,160.6L212.9,160.7L206.0,160.9L198.9,161.0L191.8,161.2L184.9,161.4L177.8,161.6L170.9,161.8L163.7,162.0L157.3,162.2L150.2,162.4L143.0,162.7L136.1,162.9L129.0,163.2L122.1,163.5L115.0,163.8L107.9,164.1L101.0,164.4L93.8,164.7L86.9,165.0L79.8,165.4L73.1,165.7L66.0,166.1Z" fill="rgba(37,99,235,0.12)" stroke="none"/>
<path d="M66.0,150.1L73.1,150.3L79.8,150.5L86.9,150.6L93.8,150.8L101.0,150.9L107.9,151.0L115.0,151.2L122.1,151.3L129.0,151.4L136.1,151.4L143.0,151.5L150.2,151.6L157.3,151.6L163.7,151.7L170.9,151.7L177.8,151.8L184.9,151.8L191.8,151.8L198.9,151.8L206.0,151.8L212.9,151.8L220.1,151.8L227.0,151.7L234.1,151.7L241.2,151.7L247.7,151.7L254.8,151.6L261.7,151.6L268.8,151.6L275.7,151.5L282.9,151.5L290.0,151.4L296.9,151.4L304.0,151.4L310.9,151.4L318.0,151.3L325.2,151.3L331.6,151.3L338.7,151.3L345.6,151.3L352.8,151.3L359.7,151.3L366.8,151.3L373.9,151.3L380.8,151.4L387.9,151.4L394.8,151.4L402.0,151.5L409.1,151.5L415.8,151.6L422.9,151.7L429.8,151.7L436.9,151.8L443.8,151.9L451.0,151.9L458.1,152.0L465.0,152.1L472.1,152.2L479.0,152.3L486.1,152.4L493.3,152.5L499.7,152.6L506.8,152.7L513.7,152.8L520.9,152.9L527.8,153.0L534.9,153.1L542.0,153.2L548.9,153.3L556.1,153.4L563.0,153.5L570.1,153.6L577.2,153.7L583.6,153.7L590.8,153.8L597.7,153.9L604.8,153.9L611.7,154.0L618.8,154.1L626.0,154.1L632.9,154.2L640.0,154.2L646.9,154.3L654.0,154.3L661.1,154.3L667.6,154.3L674.7,154.3L681.6,154.4L688.7,154.4L695.6,154.4L702.8,154.4L709.9,154.3L716.8,154.3L723.9,154.3L730.8,154.3L738.0,154.2L745.1,154.2L751.8,154.1L758.9,154.1L765.8,154.0L772.9,153.9L779.8,153.8L786.9,153.7L794.1,153.6L801.0,153.5L808.1,153.4L815.0,153.2L822.1,153.1L829.2,152.9L835.7,152.7L842.8,152.5L849.7,152.4L856.8,152.1L863.7,151.9L870.9,151.7L878.0,151.5L878.0,167.5L870.9,167.2L863.7,166.9L856.8,166.6L849.7,166.3L842.8,166.1L835.7,165.8L829.2,165.6L822.1,165.3L815.0,165.1L808.1,164.9L801.0,164.7L794.1,164.5L786.9,164.3L779.8,164.2L772.9,164.0L765.8,163.8L758.9,163.7L751.8,163.6L745.1,163.4L738.0,163.3L730.8,163.2L723.9,163.1L716.8,163.1L709.9,163.0L702.8,162.9L695.6,162.8L688.7,162.8L681.6,162.7L674.7,162.6L667.6,162.6L661.1,162.5L654.0,162.5L646.9,162.4L640.0,162.4L632.9,162.3L626.0,162.3L618.8,162.2L611.7,162.1L604.8,162.1L597.7,162.0L590.8,161.9L583.6,161.9L577.2,161.8L570.1,161.7L563.0,161.6L556.1,161.5L548.9,161.5L542.0,161.4L534.9,161.3L527.8,161.2L520.9,161.1L513.7,161.0L506.8,160.9L499.7,160.8L493.3,160.7L486.1,160.6L479.0,160.5L472.1,160.4L465.0,160.3L458.1,160.2L451.0,160.1L443.8,160.1L436.9,160.0L429.8,159.9L422.9,159.8L415.8,159.8L409.1,159.7L402.0,159.6L394.8,159.6L387.9,159.6L380.8,159.5L373.9,159.5L366.8,159.5L359.7,159.4L352.8,159.4L345.6,159.4L338.7,159.4L331.6,159.4L325.2,159.4L318.0,159.5L310.9,159.5L304.0,159.5L296.9,159.6L290.0,159.6L282.9,159.7L275.7,159.8L268.8,159.8L261.7,159.9L254.8,160.0L247.7,160.1L241.2,160.2L234.1,160.3L227.0,160.4L220.1,160.6L212.9,160.7L206.0,160.9L198.9,161.0L191.8,161.2L184.9,161.4L177.8,161.6L170.9,161.8L163.7,162.0L157.3,162.2L150.2,162.4L143.0,162.7L136.1,162.9L129.0,163.2L122.1,163.5L115.0,163.8L107.9,164.1L101.0,164.4L93.8,164.7L86.9,165.0L79.8,165.4L73.1,165.7L66.0,166.1Z" fill="rgba(239,68,68,0.12)" stroke="none"/>
<polyline points="66.0,158.1 73.1,158.0 79.8,157.9 86.9,157.8 93.8,157.7 101.0,157.6 107.9,157.6 115.0,157.5 122.1,157.4 129.0,157.3 136.1,157.2 143.0,157.1 150.2,157.0 157.3,156.9 163.7,156.8 170.9,156.7 177.8,156.7 184.9,156.6 191.8,156.5 198.9,156.4 206.0,156.3 212.9,156.2 220.1,156.2 227.0,156.1 234.1,156.0 241.2,155.9 247.7,155.9 254.8,155.8 261.7,155.8 268.8,155.7 275.7,155.6 282.9,155.6 290.0,155.5 296.9,155.5 304.0,155.5 310.9,155.4 318.0,155.4 325.2,155.4 331.6,155.4 338.7,155.4 345.6,155.4 352.8,155.4 359.7,155.4 366.8,155.4 373.9,155.4 380.8,155.4 387.9,155.5 394.8,155.5 402.0,155.6 409.1,155.6 415.8,155.7 422.9,155.7 429.8,155.8 436.9,155.9 443.8,156.0 451.0,156.0 458.1,156.1 465.0,156.2 472.1,156.3 479.0,156.4 486.1,156.5 493.3,156.6 499.7,156.7 506.8,156.8 513.7,156.9 520.9,157.0 527.8,157.1 534.9,157.2 542.0,157.3 548.9,157.4 556.1,157.5 563.0,157.6 570.1,157.6 577.2,157.7 583.6,157.8 590.8,157.9 597.7,157.9 604.8,158.0 611.7,158.1 618.8,158.1 626.0,158.2 632.9,158.2 640.0,158.3 646.9,158.3 654.0,158.4 661.1,158.4 667.6,158.5 674.7,158.5 681.6,158.5 688.7,158.6 695.6,158.6 702.8,158.6 709.9,158.7 716.8,158.7 723.9,158.7 730.8,158.8 738.0,158.8 745.1,158.8 751.8,158.8 758.9,158.9 765.8,158.9 772.9,159.0 779.8,159.0 786.9,159.0 794.1,159.1 801.0,159.1 808.1,159.1 815.0,159.2 822.1,159.2 829.2,159.2 835.7,159.3 842.8,159.3 849.7,159.3 856.8,159.4 863.7,159.4 870.9,159.4 878.0,159.5" fill="none" stroke="#2563eb" stroke-width="2"/>
<polyline points="66.0,158.1 73.1,158.0 79.8,157.9 86.9,157.8 93.8,157.7 101.0,157.6 107.9,157.6 115.0,157.5 122.1,157.4 129.0,157.3 136.1,157.2 143.0,157.1 150.2,157.0 157.3,156.9 163.7,156.8 170.9,156.7 177.8,156.7 184.9,156.6 191.8,156.5 198.9,156.4 206.0,156.3 212.9,156.2 220.1,156.2 227.0,156.1 234.1,156.0 241.2,155.9 247.7,155.9 254.8,155.8 261.7,155.8 268.8,155.7 275.7,155.6 282.9,155.6 290.0,155.5 296.9,155.5 304.0,155.5 310.9,155.4 318.0,155.4 325.2,155.4 331.6,155.4 338.7,155.4 345.6,155.4 352.8,155.4 359.7,155.4 366.8,155.4 373.9,155.4 380.8,155.4 387.9,155.5 394.8,155.5 402.0,155.6 409.1,155.6 415.8,155.7 422.9,155.7 429.8,155.8 436.9,155.9 443.8,156.0 451.0,156.0 458.1,156.1 465.0,156.2 472.1,156.3 479.0,156.4 486.1,156.5 493.3,156.6 499.7,156.7 506.8,156.8 513.7,156.9 520.9,157.0 527.8,157.1 534.9,157.2 542.0,157.3 548.9,157.4 556.1,157.5 563.0,157.6 570.1,157.6 577.2,157.7 583.6,157.8 590.8,157.9 597.7,157.9 604.8,158.0 611.7,158.1 618.8,158.1 626.0,158.2 632.9,158.2 640.0,158.3 646.9,158.3 654.0,158.4 661.1,158.4 667.6,158.5 674.7,158.5 681.6,158.5 688.7,158.6 695.6,158.6 702.8,158.6 709.9,158.7 716.8,158.7 723.9,158.7 730.8,158.8 738.0,158.8 745.1,158.8 751.8,158.8 758.9,158.9 765.8,158.9 772.9,159.0 779.8,159.0 786.9,159.0 794.1,159.1 801.0,159.1 808.1,159.1 815.0,159.2 822.1,159.2 829.2,159.2 835.7,159.3 842.8,159.3 849.7,159.3 856.8,159.4 863.7,159.4 870.9,159.4 878.0,159.5" fill="none" stroke="#ef4444" stroke-width="2" stroke-dasharray="6,3"/>
<circle cx="66.0" cy="242.7" r="2.0" fill="#555" opacity="0.50"/>
<circle cx="73.1" cy="230.8" r="2.0" fill="#555" opacity="0.50"/>
<circle cx="79.8" cy="206.2" r="2.0" fill="#555" opacity="0.50"/>
<circle cx="86.9" cy="168.2" r="2.0" fill="#555" opacity="0.50"/>
<circle cx="93.8" cy="130.3" r="2.0" fill="#555" opacity="0.50"/>
<circle cx="101.0" cy="109.2" r="2.0" fill="#555" opacity="0.50"/>
<circle cx="107.9" cy="86.0" r="2.0" fill="#555" opacity="0.50"/>
<circle cx="115.0" cy="81.1" r="2.0" fill="#555" opacity="0.50"/>
<circle cx="122.1" cy="112.7" r="2.0" fill="#555" opacity="0.50"/>
<circle cx="129.0" cy="154.9" r="2.0" fill="#555" opacity="0.50"/>
<circle cx="136.1" cy="194.9" r="2.0" fill="#555" opacity="0.50"/>
<circle cx="143.0" cy="194.9" r="2.0" fill="#555" opacity="0.50"/>
<circle cx="150.2" cy="203.4" r="2.0" fill="#555" opacity="0.50"/>
<circle cx="157.3" cy="233.6" r="2.0" fill="#555" opacity="0.50"/>
<circle cx="163.7" cy="237.8" r="2.0" fill="#555" opacity="0.50"/>
<circle cx="170.9" cy="171.0" r="2.0" fill="#555" opacity="0.50"/>
<circle cx="177.8" cy="130.3" r="2.0" fill="#555" opacity="0.50"/>
<circle cx="184.9" cy="101.5" r="2.0" fill="#555" opacity="0.50"/>
<circle cx="191.8" cy="67.7" r="2.0" fill="#555" opacity="0.50"/>
<circle cx="198.9" cy="85.3" r="2.0" fill="#555" opacity="0.50"/>
<circle cx="206.0" cy="110.6" r="2.0" fill="#555" opacity="0.50"/>
<circle cx="212.9" cy="144.3" r="2.0" fill="#555" opacity="0.50"/>
<circle cx="220.1" cy="170.3" r="2.0" fill="#555" opacity="0.50"/>
<circle cx="227.0" cy="218.1" r="2.0" fill="#555" opacity="0.50"/>
<circle cx="234.1" cy="228.0" r="2.0" fill="#555" opacity="0.50"/>
<circle cx="241.2" cy="258.2" r="2.0" fill="#555" opacity="0.50"/>
<circle cx="247.7" cy="240.6" r="2.0" fill="#555" opacity="0.50"/>
<circle cx="254.8" cy="177.4" r="2.0" fill="#555" opacity="0.50"/>
<circle cx="261.7" cy="128.9" r="2.0" fill="#555" opacity="0.50"/>
<circle cx="268.8" cy="90.9" r="2.0" fill="#555" opacity="0.50"/>
<circle cx="275.7" cy="69.8" r="2.0" fill="#555" opacity="0.50"/>
<circle cx="282.9" cy="71.2" r="2.0" fill="#555" opacity="0.50"/>
<circle cx="290.0" cy="104.3" r="2.0" fill="#555" opacity="0.50"/>
<circle cx="296.9" cy="142.9" r="2.0" fill="#555" opacity="0.50"/>
<circle cx="304.0" cy="183.7" r="2.0" fill="#555" opacity="0.50"/>
<circle cx="310.9" cy="174.6" r="2.0" fill="#555" opacity="0.50"/>
<circle cx="318.0" cy="210.4" r="2.0" fill="#555" opacity="0.50"/>
<circle cx="325.2" cy="258.2" r="2.0" fill="#555" opacity="0.50"/>
<circle cx="331.6" cy="180.9" r="2.0" fill="#555" opacity="0.50"/>
<circle cx="338.7" cy="164.0" r="2.0" fill="#555" opacity="0.50"/>
<circle cx="345.6" cy="128.9" r="2.0" fill="#555" opacity="0.50"/>
<circle cx="352.8" cy="93.0" r="2.0" fill="#555" opacity="0.50"/>
<circle cx="359.7" cy="79.7" r="2.0" fill="#555" opacity="0.50"/>
<circle cx="366.8" cy="79.0" r="2.0" fill="#555" opacity="0.50"/>
<circle cx="373.9" cy="119.0" r="2.0" fill="#555" opacity="0.50"/>
<circle cx="380.8" cy="151.4" r="2.0" fill="#555" opacity="0.50"/>
<circle cx="387.9" cy="194.2" r="2.0" fill="#555" opacity="0.50"/>
<circle cx="394.8" cy="185.8" r="2.0" fill="#555" opacity="0.50"/>
<circle cx="402.0" cy="198.4" r="2.0" fill="#555" opacity="0.50"/>
<circle cx="409.1" cy="194.9" r="2.0" fill="#555" opacity="0.50"/>
<circle cx="415.8" cy="201.3" r="2.0" fill="#555" opacity="0.50"/>
<circle cx="422.9" cy="159.8" r="2.0" fill="#555" opacity="0.50"/>
<circle cx="429.8" cy="126.1" r="2.0" fill="#555" opacity="0.50"/>
<circle cx="436.9" cy="101.5" r="2.0" fill="#555" opacity="0.50"/>
<circle cx="443.8" cy="79.0" r="2.0" fill="#555" opacity="0.50"/>
<circle cx="451.0" cy="93.7" r="2.0" fill="#555" opacity="0.50"/>
<circle cx="458.1" cy="129.6" r="2.0" fill="#555" opacity="0.50"/>
<circle cx="465.0" cy="137.3" r="2.0" fill="#555" opacity="0.50"/>
<circle cx="472.1" cy="176.7" r="2.0" fill="#555" opacity="0.50"/>
<circle cx="479.0" cy="193.5" r="2.0" fill="#555" opacity="0.50"/>
<circle cx="486.1" cy="222.3" r="2.0" fill="#555" opacity="0.50"/>
<circle cx="493.3" cy="228.0" r="2.0" fill="#555" opacity="0.50"/>
<circle cx="499.7" cy="209.0" r="2.0" fill="#555" opacity="0.50"/>
<circle cx="506.8" cy="171.0" r="2.0" fill="#555" opacity="0.50"/>
<circle cx="513.7" cy="125.4" r="2.0" fill="#555" opacity="0.50"/>
<circle cx="520.9" cy="103.6" r="2.0" fill="#555" opacity="0.50"/>
<circle cx="527.8" cy="81.8" r="2.0" fill="#555" opacity="0.50"/>
<circle cx="534.9" cy="85.3" r="2.0" fill="#555" opacity="0.50"/>
<circle cx="542.0" cy="107.8" r="2.0" fill="#555" opacity="0.50"/>
<circle cx="548.9" cy="173.2" r="2.0" fill="#555" opacity="0.50"/>
<circle cx="556.1" cy="177.4" r="2.0" fill="#555" opacity="0.50"/>
<circle cx="563.0" cy="228.0" r="2.0" fill="#555" opacity="0.50"/>
<circle cx="570.1" cy="275.8" r="2.0" fill="#555" opacity="0.50"/>
<circle cx="577.2" cy="259.6" r="2.0" fill="#555" opacity="0.50"/>
<circle cx="583.6" cy="215.3" r="2.0" fill="#555" opacity="0.50"/>
<circle cx="590.8" cy="170.3" r="2.0" fill="#555" opacity="0.50"/>
<circle cx="597.7" cy="121.8" r="2.0" fill="#555" opacity="0.50"/>
<circle cx="604.8" cy="100.1" r="2.0" fill="#555" opacity="0.50"/>
<circle cx="611.7" cy="50.2" r="2.0" fill="#555" opacity="0.50"/>
<circle cx="618.8" cy="75.5" r="2.0" fill="#555" opacity="0.50"/>
<circle cx="626.0" cy="116.9" r="2.0" fill="#555" opacity="0.50"/>
<circle cx="632.9" cy="160.5" r="2.0" fill="#555" opacity="0.50"/>
<circle cx="640.0" cy="206.2" r="2.0" fill="#555" opacity="0.50"/>
<circle cx="646.9" cy="255.4" r="2.0" fill="#555" opacity="0.50"/>
<circle cx="654.0" cy="233.6" r="2.0" fill="#555" opacity="0.50"/>
<circle cx="661.1" cy="272.2" r="2.0" fill="#555" opacity="0.50"/>
<circle cx="667.6" cy="209.7" r="2.0" fill="#555" opacity="0.50"/>
<circle cx="674.7" cy="163.3" r="2.0" fill="#555" opacity="0.50"/>
<circle cx="681.6" cy="133.1" r="2.0" fill="#555" opacity="0.50"/>
<circle cx="688.7" cy="85.3" r="2.0" fill="#555" opacity="0.50"/>
<circle cx="695.6" cy="57.9" r="2.0" fill="#555" opacity="0.50"/>
<circle cx="702.8" cy="79.7" r="2.0" fill="#555" opacity="0.50"/>
<circle cx="709.9" cy="107.1" r="2.0" fill="#555" opacity="0.50"/>
<circle cx="716.8" cy="142.9" r="2.0" fill="#555" opacity="0.50"/>
<circle cx="723.9" cy="165.4" r="2.0" fill="#555" opacity="0.50"/>
<circle cx="730.8" cy="178.8" r="2.0" fill="#555" opacity="0.50"/>
<circle cx="738.0" cy="226.6" r="2.0" fill="#555" opacity="0.50"/>
<circle cx="745.1" cy="250.5" r="2.0" fill="#555" opacity="0.50"/>
<circle cx="751.8" cy="197.0" r="2.0" fill="#555" opacity="0.50"/>
<circle cx="758.9" cy="173.9" r="2.0" fill="#555" opacity="0.50"/>
<circle cx="765.8" cy="126.1" r="2.0" fill="#555" opacity="0.50"/>
<circle cx="772.9" cy="106.4" r="2.0" fill="#555" opacity="0.50"/>
<circle cx="779.8" cy="78.3" r="2.0" fill="#555" opacity="0.50"/>
<circle cx="786.9" cy="90.2" r="2.0" fill="#555" opacity="0.50"/>
<circle cx="794.1" cy="114.8" r="2.0" fill="#555" opacity="0.50"/>
<circle cx="801.0" cy="155.6" r="2.0" fill="#555" opacity="0.50"/>
<circle cx="808.1" cy="173.2" r="2.0" fill="#555" opacity="0.50"/>
<circle cx="815.0" cy="239.9" r="2.0" fill="#555" opacity="0.50"/>
<circle cx="822.1" cy="237.1" r="2.0" fill="#555" opacity="0.50"/>
<circle cx="829.2" cy="215.3" r="2.0" fill="#555" opacity="0.50"/>
<circle cx="835.7" cy="239.2" r="2.0" fill="#555" opacity="0.50"/>
<circle cx="842.8" cy="180.9" r="2.0" fill="#555" opacity="0.50"/>
<circle cx="849.7" cy="114.1" r="2.0" fill="#555" opacity="0.50"/>
<circle cx="856.8" cy="79.7" r="2.0" fill="#555" opacity="0.50"/>
<circle cx="863.7" cy="75.5" r="2.0" fill="#555" opacity="0.50"/>
<circle cx="870.9" cy="81.8" r="2.0" fill="#555" opacity="0.50"/>
<circle cx="878.0" cy="114.1" r="2.0" fill="#555" opacity="0.50"/>
<line x1="66" y1="34" x2="66" y2="287" stroke="#333" stroke-width="1.5"/>
<line x1="66" y1="287" x2="878" y2="287" stroke="#333" stroke-width="1.5"/>
<line x1="61" y1="272.9" x2="66" y2="272.9" stroke="#333" stroke-width="1.5"/>
<text x="58" y="272.9" text-anchor="end" dominant-baseline="middle" fill="#333">-10</text>
<line x1="61" y1="237.8" x2="66" y2="237.8" stroke="#333" stroke-width="1.5"/>
<text x="58" y="237.8" text-anchor="end" dominant-baseline="middle" fill="#333">-5</text>
<line x1="61" y1="202.7" x2="66" y2="202.7" stroke="#333" stroke-width="1.5"/>
<text x="58" y="202.7" text-anchor="end" dominant-baseline="middle" fill="#333">0</text>
<line x1="61" y1="167.5" x2="66" y2="167.5" stroke="#333" stroke-width="1.5"/>
<text x="58" y="167.5" text-anchor="end" dominant-baseline="middle" fill="#333">5</text>
<line x1="61" y1="132.4" x2="66" y2="132.4" stroke="#333" stroke-width="1.5"/>
<text x="58" y="132.4" text-anchor="end" dominant-baseline="middle" fill="#333">10</text>
<line x1="61" y1="97.3" x2="66" y2="97.3" stroke="#333" stroke-width="1.5"/>
<text x="58" y="97.3" text-anchor="end" dominant-baseline="middle" fill="#333">15</text>
<line x1="61" y1="62.1" x2="66" y2="62.1" stroke="#333" stroke-width="1.5"/>
<text x="58" y="62.1" text-anchor="end" dominant-baseline="middle" fill="#333">20</text>
<text x="72" y="48" text-anchor="start" fill="#333" font-size="12" font-weight="600">Smoothed level state x[0] ± 2σ</text>
<line x1="66" y1="573.9" x2="878" y2="573.9" stroke="#e5e7eb" stroke-width="1"/>
<line x1="66" y1="538.8" x2="878" y2="538.8" stroke="#e5e7eb" stroke-width="1"/>
<line x1="66" y1="503.7" x2="878" y2="503.7" stroke="#e5e7eb" stroke-width="1"/>
<line x1="66" y1="468.5" x2="878" y2="468.5" stroke="#e5e7eb" stroke-width="1"/>
<line x1="66" y1="433.4" x2="878" y2="433.4" stroke="#e5e7eb" stroke-width="1"/>
<line x1="66" y1="398.3" x2="878" y2="398.3" stroke="#e5e7eb" stroke-width="1"/>
<line x1="66" y1="363.1" x2="878" y2="363.1" stroke="#e5e7eb" stroke-width="1"/>
<path d="M66.0,519.5L73.1,517.6L79.8,495.3L86.9,459.6L93.8,420.9L101.0,389.2L107.9,372.3L115.0,374.9L122.1,396.6L129.0,431.2L136.1,469.4L143.0,501.0L150.2,519.3L157.3,519.7L163.7,500.3L170.9,465.0L177.8,424.2L184.9,389.1L191.8,369.0L198.9,369.9L206.0,391.1L212.9,426.9L220.1,468.0L227.0,504.4L234.1,525.6L241.2,526.4L247.7,504.9L254.8,466.7L261.7,423.4L268.8,387.0L275.7,367.4L282.9,369.5L290.0,392.2L296.9,428.3L304.0,467.5L310.9,499.3L318.0,516.9L325.2,515.1L331.6,492.5L338.7,457.8L345.6,420.3L352.8,390.1L359.7,375.7L366.8,380.6L373.9,403.3L380.8,436.4L387.9,470.6L394.8,496.6L402.0,509.0L409.1,504.9L415.8,485.3L422.9,454.3L429.8,420.3L436.9,392.7L443.8,378.7L451.0,382.9L458.1,403.7L465.0,435.5L472.1,471.0L479.0,500.8L486.1,517.3L493.3,515.0L499.7,493.6L506.8,458.3L513.7,418.6L520.9,385.6L527.8,368.4L534.9,372.6L542.0,397.7L548.9,437.7L556.1,481.1L563.0,517.8L570.1,536.9L577.2,531.2L583.6,502.4L590.8,458.6L597.7,411.8L604.8,374.7L611.7,357.0L618.8,364.8L626.0,395.4L632.9,440.0L640.0,486.7L646.9,523.1L654.0,539.2L661.1,532.5L667.6,503.1L674.7,460.4L681.6,415.9L688.7,380.3L695.6,363.2L702.8,368.8L709.9,394.4L716.8,432.5L723.9,473.3L730.8,507.1L738.0,526.0L745.1,523.9L751.8,500.4L758.9,463.1L765.8,421.7L772.9,387.9L779.8,370.3L786.9,374.2L794.1,398.3L801.0,436.0L808.1,477.2L815.0,511.7L822.1,528.8L829.2,524.4L835.7,500.0L842.8,459.7L849.7,415.2L856.8,379.8L863.7,363.2L870.9,369.0L878.0,394.4L878.0,424.9L870.9,396.1L863.7,389.5L856.8,406.0L849.7,441.2L842.8,485.3L835.7,525.3L829.2,549.7L822.1,554.0L815.0,536.7L808.1,501.6L801.0,459.7L794.1,421.3L786.9,396.9L779.8,392.9L772.9,410.4L765.8,444.2L758.9,485.5L751.8,522.8L745.1,546.4L738.0,548.4L730.8,529.4L723.9,495.6L716.8,454.7L709.9,416.5L702.8,390.9L695.6,385.3L688.7,402.4L681.6,437.9L674.7,482.5L667.6,525.1L661.1,554.5L654.0,561.2L646.9,545.1L640.0,508.8L632.9,462.0L626.0,417.4L618.8,386.8L611.7,378.9L604.8,396.7L597.7,433.8L590.8,480.6L583.6,524.4L577.2,553.2L570.1,558.9L563.0,539.8L556.1,503.1L548.9,459.7L542.0,419.7L534.9,394.6L527.8,390.4L520.9,407.6L513.7,440.6L506.8,480.3L499.7,515.6L493.3,537.0L486.1,539.3L479.0,522.8L472.1,493.0L465.0,457.5L458.1,425.8L451.0,404.9L443.8,400.7L436.9,414.7L429.8,442.3L422.9,476.3L415.8,507.3L409.1,526.9L402.0,531.0L394.8,518.6L387.9,492.6L380.8,458.4L373.9,425.3L366.8,402.6L359.7,397.7L352.8,412.1L345.6,442.3L338.7,479.8L331.6,514.4L325.2,537.1L318.0,538.9L310.9,521.2L304.0,489.5L296.9,450.3L290.0,414.2L282.9,391.5L275.7,389.4L268.8,409.0L261.7,445.4L254.8,488.8L247.7,527.0L241.2,548.5L234.1,547.8L227.0,526.6L220.1,490.3L212.9,449.2L206.0,413.5L198.9,392.3L191.8,391.4L184.9,411.6L177.8,446.7L170.9,487.4L163.7,522.8L157.3,542.4L150.2,542.4L143.0,524.7L136.1,493.7L129.0,456.1L122.1,421.7L115.0,400.1L107.9,397.6L101.0,414.7L93.8,446.8L86.9,485.8L79.8,521.4L73.1,544.6L66.0,549.8Z" fill="rgba(37,99,235,0.12)" stroke="none"/>
<path d="M66.0,519.5L73.1,517.6L79.8,495.3L86.9,459.6L93.8,420.9L101.0,389.2L107.9,372.3L115.0,374.9L122.1,396.6L129.0,431.2L136.1,469.4L143.0,501.0L150.2,519.3L157.3,519.7L163.7,500.3L170.9,465.0L177.8,424.2L184.9,389.1L191.8,369.0L198.9,369.9L206.0,391.1L212.9,426.9L220.1,468.0L227.0,504.4L234.1,525.6L241.2,526.4L247.7,504.9L254.8,466.7L261.7,423.4L268.8,387.0L275.7,367.4L282.9,369.5L290.0,392.2L296.9,428.3L304.0,467.5L310.9,499.3L318.0,516.9L325.2,515.1L331.6,492.5L338.7,457.8L345.6,420.3L352.8,390.1L359.7,375.7L366.8,380.6L373.9,403.3L380.8,436.4L387.9,470.6L394.8,496.6L402.0,509.0L409.1,504.9L415.8,485.3L422.9,454.3L429.8,420.3L436.9,392.7L443.8,378.7L451.0,382.9L458.1,403.7L465.0,435.5L472.1,471.0L479.0,500.8L486.1,517.3L493.3,515.0L499.7,493.6L506.8,458.3L513.7,418.6L520.9,385.6L527.8,368.4L534.9,372.6L542.0,397.7L548.9,437.7L556.1,481.1L563.0,517.8L570.1,536.9L577.2,531.2L583.6,502.4L590.8,458.6L597.7,411.8L604.8,374.7L611.7,357.0L618.8,364.8L626.0,395.4L632.9,440.0L640.0,486.7L646.9,523.1L654.0,539.2L661.1,532.5L667.6,503.1L674.7,460.4L681.6,415.9L688.7,380.3L695.6,363.2L702.8,368.8L709.9,394.4L716.8,432.5L723.9,473.3L730.8,507.1L738.0,526.0L745.1,523.9L751.8,500.4L758.9,463.1L765.8,421.7L772.9,387.9L779.8,370.3L786.9,374.2L794.1,398.3L801.0,436.0L808.1,477.2L815.0,511.7L822.1,528.8L829.2,524.4L835.7,500.0L842.8,459.7L849.7,415.2L856.8,379.8L863.7,363.2L870.9,369.0L878.0,394.4L878.0,424.9L870.9,396.1L863.7,389.5L856.8,406.0L849.7,441.2L842.8,485.3L835.7,525.3L829.2,549.7L822.1,554.0L815.0,536.7L808.1,501.6L801.0,459.7L794.1,421.3L786.9,396.9L779.8,392.9L772.9,410.4L765.8,444.2L758.9,485.5L751.8,522.8L745.1,546.4L738.0,548.4L730.8,529.4L723.9,495.6L716.8,454.7L709.9,416.5L702.8,390.9L695.6,385.3L688.7,402.4L681.6,437.9L674.7,482.5L667.6,525.1L661.1,554.5L654.0,561.2L646.9,545.1L640.0,508.8L632.9,462.0L626.0,417.4L618.8,386.8L611.7,378.9L604.8,396.7L597.7,433.8L590.8,480.6L583.6,524.4L577.2,553.2L570.1,558.9L563.0,539.8L556.1,503.1L548.9,459.7L542.0,419.7L534.9,394.6L527.8,390.4L520.9,407.6L513.7,440.6L506.8,480.3L499.7,515.6L493.3,537.0L486.1,539.3L479.0,522.8L472.1,493.0L465.0,457.5L458.1,425.8L451.0,404.9L443.8,400.7L436.9,414.7L429.8,442.3L422.9,476.3L415.8,507.3L409.1,526.9L402.0,531.0L394.8,518.6L387.9,492.6L380.8,458.4L373.9,425.3L366.8,402.6L359.7,397.7L352.8,412.1L345.6,442.3L338.7,479.8L331.6,514.4L325.2,537.1L318.0,538.9L310.9,521.2L304.0,489.5L296.9,450.3L290.0,414.2L282.9,391.5L275.7,389.4L268.8,409.0L261.7,445.4L254.8,488.8L247.7,527.0L241.2,548.5L234.1,547.8L227.0,526.6L220.1,490.3L212.9,449.2L206.0,413.5L198.9,392.3L191.8,391.4L184.9,411.6L177.8,446.7L170.9,487.4L163.7,522.8L157.3,542.4L150.2,542.4L143.0,524.7L136.1,493.7L129.0,456.1L122.1,421.7L115.0,400.1L107.9,397.6L101.0,414.7L93.8,446.8L86.9,485.8L79.8,521.4L73.1,544.6L66.0,549.8Z" fill="rgba(239,68,68,0.12)" stroke="none"/>
<polyline points="66.0,534.7 73.1,531.1 79.8,508.3 86.9,472.7 93.8,433.8 101.0,402.0 107.9,384.9 115.0,387.5 122.1,409.2 129.0,443.7 136.1,481.5 143.0,512.8 150.2,530.8 157.3,531.0 163.7,511.6 170.9,476.2 177.8,435.4 184.9,400.3 191.8,380.2 198.9,381.1 206.0,402.3 212.9,438.1 220.1,479.2 227.0,515.5 234.1,536.7 241.2,537.4 247.7,515.9 254.8,477.7 261.7,434.4 268.8,398.0 275.7,378.4 282.9,380.5 290.0,403.2 296.9,439.3 304.0,478.5 310.9,510.2 318.0,527.9 325.2,526.1 331.6,503.4 338.7,468.8 345.6,431.3 352.8,401.1 359.7,386.7 366.8,391.6 373.9,414.3 380.8,447.4 387.9,481.6 394.8,507.6 402.0,520.0 409.1,515.9 415.8,496.3 422.9,465.3 429.8,431.3 436.9,403.7 443.8,389.7 451.0,393.9 458.1,414.7 465.0,446.5 472.1,482.0 479.0,511.8 486.1,528.3 493.3,526.0 499.7,504.6 506.8,469.3 513.7,429.6 520.9,396.6 527.8,379.4 534.9,383.6 542.0,408.7 548.9,448.7 556.1,492.1 563.0,528.8 570.1,547.9 577.2,542.2 583.6,513.4 590.8,469.6 597.7,422.8 604.8,385.7 611.7,367.9 618.8,375.8 626.0,406.4 632.9,451.0 640.0,497.8 646.9,534.1 654.0,550.2 661.1,543.5 667.6,514.1 674.7,471.4 681.6,426.9 688.7,391.3 695.6,374.2 702.8,379.9 709.9,405.4 716.8,443.6 723.9,484.4 730.8,518.3 738.0,537.2 745.1,535.2 751.8,511.6 758.9,474.3 765.8,432.9 772.9,399.1 779.8,381.6 786.9,385.6 794.1,409.8 801.0,447.8 808.1,489.4 815.0,524.2 822.1,541.4 829.2,537.0 835.7,512.6 842.8,472.5 849.7,428.2 856.8,392.9 863.7,376.4 870.9,382.5 878.0,409.7" fill="none" stroke="#2563eb" stroke-width="2"/>
<polyline points="66.0,534.7 73.1,531.1 79.8,508.3 86.9,472.7 93.8,433.8 101.0,402.0 107.9,384.9 115.0,387.5 122.1,409.2 129.0,443.7 136.1,481.5 143.0,512.8 150.2,530.8 157.3,531.0 163.7,511.6 170.9,476.2 177.8,435.4 184.9,400.3 191.8,380.2 198.9,381.1 206.0,402.3 212.9,438.1 220.1,479.2 227.0,515.5 234.1,536.7 241.2,537.4 247.7,515.9 254.8,477.7 261.7,434.4 268.8,398.0 275.7,378.4 282.9,380.5 290.0,403.2 296.9,439.3 304.0,478.5 310.9,510.2 318.0,527.9 325.2,526.1 331.6,503.4 338.7,468.8 345.6,431.3 352.8,401.1 359.7,386.7 366.8,391.6 373.9,414.3 380.8,447.4 387.9,481.6 394.8,507.6 402.0,520.0 409.1,515.9 415.8,496.3 422.9,465.3 429.8,431.3 436.9,403.7 443.8,389.7 451.0,393.9 458.1,414.7 465.0,446.5 472.1,482.0 479.0,511.8 486.1,528.3 493.3,526.0 499.7,504.6 506.8,469.3 513.7,429.6 520.9,396.6 527.8,379.4 534.9,383.6 542.0,408.7 548.9,448.7 556.1,492.1 563.0,528.8 570.1,547.9 577.2,542.2 583.6,513.4 590.8,469.6 597.7,422.8 604.8,385.7 611.7,367.9 618.8,375.8 626.0,406.4 632.9,451.0 640.0,497.8 646.9,534.1 654.0,550.2 661.1,543.5 667.6,514.1 674.7,471.4 681.6,426.9 688.7,391.3 695.6,374.2 702.8,379.9 709.9,405.4 716.8,443.6 723.9,484.4 730.8,518.3 738.0,537.2 745.1,535.2 751.8,511.6 758.9,474.3 765.8,432.9 772.9,399.1 779.8,381.6 786.9,385.6 794.1,409.8 801.0,447.8 808.1,489.4 815.0,524.2 822.1,541.4 829.2,537.0 835.7,512.6 842.8,472.5 849.7,428.2 856.8,392.9 863.7,376.4 870.9,382.5 878.0,409.7" fill="none" stroke="#ef4444" stroke-width="2" stroke-dasharray="6,3"/>
<circle cx="66.0" cy="543.7" r="2.0" fill="#555" opacity="0.50"/>
<circle cx="73.1" cy="531.8" r="2.0" fill="#555" opacity="0.50"/>
<circle cx="79.8" cy="507.2" r="2.0" fill="#555" opacity="0.50"/>
<circle cx="86.9" cy="469.2" r="2.0" fill="#555" opacity="0.50"/>
<circle cx="93.8" cy="431.3" r="2.0" fill="#555" opacity="0.50"/>
<circle cx="101.0" cy="410.2" r="2.0" fill="#555" opacity="0.50"/>
<circle cx="107.9" cy="387.0" r="2.0" fill="#555" opacity="0.50"/>
<circle cx="115.0" cy="382.1" r="2.0" fill="#555" opacity="0.50"/>
<circle cx="122.1" cy="413.7" r="2.0" fill="#555" opacity="0.50"/>
<circle cx="129.0" cy="455.9" r="2.0" fill="#555" opacity="0.50"/>
<circle cx="136.1" cy="495.9" r="2.0" fill="#555" opacity="0.50"/>
<circle cx="143.0" cy="495.9" r="2.0" fill="#555" opacity="0.50"/>
<circle cx="150.2" cy="504.4" r="2.0" fill="#555" opacity="0.50"/>
<circle cx="157.3" cy="534.6" r="2.0" fill="#555" opacity="0.50"/>
<circle cx="163.7" cy="538.8" r="2.0" fill="#555" opacity="0.50"/>
<circle cx="170.9" cy="472.0" r="2.0" fill="#555" opacity="0.50"/>
<circle cx="177.8" cy="431.3" r="2.0" fill="#555" opacity="0.50"/>
<circle cx="184.9" cy="402.5" r="2.0" fill="#555" opacity="0.50"/>
<circle cx="191.8" cy="368.7" r="2.0" fill="#555" opacity="0.50"/>
<circle cx="198.9" cy="386.3" r="2.0" fill="#555" opacity="0.50"/>
<circle cx="206.0" cy="411.6" r="2.0" fill="#555" opacity="0.50"/>
<circle cx="212.9" cy="445.3" r="2.0" fill="#555" opacity="0.50"/>
<circle cx="220.1" cy="471.3" r="2.0" fill="#555" opacity="0.50"/>
<circle cx="227.0" cy="519.1" r="2.0" fill="#555" opacity="0.50"/>
<circle cx="234.1" cy="529.0" r="2.0" fill="#555" opacity="0.50"/>
<circle cx="241.2" cy="559.2" r="2.0" fill="#555" opacity="0.50"/>
<circle cx="247.7" cy="541.6" r="2.0" fill="#555" opacity="0.50"/>
<circle cx="254.8" cy="478.4" r="2.0" fill="#555" opacity="0.50"/>
<circle cx="261.7" cy="429.9" r="2.0" fill="#555" opacity="0.50"/>
<circle cx="268.8" cy="391.9" r="2.0" fill="#555" opacity="0.50"/>
<circle cx="275.7" cy="370.8" r="2.0" fill="#555" opacity="0.50"/>
<circle cx="282.9" cy="372.2" r="2.0" fill="#555" opacity="0.50"/>
<circle cx="290.0" cy="405.3" r="2.0" fill="#555" opacity="0.50"/>
<circle cx="296.9" cy="443.9" r="2.0" fill="#555" opacity="0.50"/>
<circle cx="304.0" cy="484.7" r="2.0" fill="#555" opacity="0.50"/>
<circle cx="310.9" cy="475.6" r="2.0" fill="#555" opacity="0.50"/>
<circle cx="318.0" cy="511.4" r="2.0" fill="#555" opacity="0.50"/>
<circle cx="325.2" cy="559.2" r="2.0" fill="#555" opacity="0.50"/>
<circle cx="331.6" cy="481.9" r="2.0" fill="#555" opacity="0.50"/>
<circle cx="338.7" cy="465.0" r="2.0" fill="#555" opacity="0.50"/>
<circle cx="345.6" cy="429.9" r="2.0" fill="#555" opacity="0.50"/>
<circle cx="352.8" cy="394.0" r="2.0" fill="#555" opacity="0.50"/>
<circle cx="359.7" cy="380.7" r="2.0" fill="#555" opacity="0.50"/>
<circle cx="366.8" cy="380.0" r="2.0" fill="#555" opacity="0.50"/>
<circle cx="373.9" cy="420.0" r="2.0" fill="#555" opacity="0.50"/>
<circle cx="380.8" cy="452.4" r="2.0" fill="#555" opacity="0.50"/>
<circle cx="387.9" cy="495.2" r="2.0" fill="#555" opacity="0.50"/>
<circle cx="394.8" cy="486.8" r="2.0" fill="#555" opacity="0.50"/>
<circle cx="402.0" cy="499.4" r="2.0" fill="#555" opacity="0.50"/>
<circle cx="409.1" cy="495.9" r="2.0" fill="#555" opacity="0.50"/>
<circle cx="415.8" cy="502.3" r="2.0" fill="#555" opacity="0.50"/>
<circle cx="422.9" cy="460.8" r="2.0" fill="#555" opacity="0.50"/>
<circle cx="429.8" cy="427.1" r="2.0" fill="#555" opacity="0.50"/>
<circle cx="436.9" cy="402.5" r="2.0" fill="#555" opacity="0.50"/>
<circle cx="443.8" cy="380.0" r="2.0" fill="#555" opacity="0.50"/>
<circle cx="451.0" cy="394.7" r="2.0" fill="#555" opacity="0.50"/>
<circle cx="458.1" cy="430.6" r="2.0" fill="#555" opacity="0.50"/>
<circle cx="465.0" cy="438.3" r="2.0" fill="#555" opacity="0.50"/>
<circle cx="472.1" cy="477.7" r="2.0" fill="#555" opacity="0.50"/>
<circle cx="479.0" cy="494.5" r="2.0" fill="#555" opacity="0.50"/>
<circle cx="486.1" cy="523.3" r="2.0" fill="#555" opacity="0.50"/>
<circle cx="493.3" cy="529.0" r="2.0" fill="#555" opacity="0.50"/>
<circle cx="499.7" cy="510.0" r="2.0" fill="#555" opacity="0.50"/>
<circle cx="506.8" cy="472.0" r="2.0" fill="#555" opacity="0.50"/>
<circle cx="513.7" cy="426.4" r="2.0" fill="#555" opacity="0.50"/>
<circle cx="520.9" cy="404.6" r="2.0" fill="#555" opacity="0.50"/>
<circle cx="527.8" cy="382.8" r="2.0" fill="#555" opacity="0.50"/>
<circle cx="534.9" cy="386.3" r="2.0" fill="#555" opacity="0.50"/>
<circle cx="542.0" cy="408.8" r="2.0" fill="#555" opacity="0.50"/>
<circle cx="548.9" cy="474.1" r="2.0" fill="#555" opacity="0.50"/>
<circle cx="556.1" cy="478.4" r="2.0" fill="#555" opacity="0.50"/>
<circle cx="563.0" cy="529.0" r="2.0" fill="#555" opacity="0.50"/>
<circle cx="570.1" cy="576.8" r="2.0" fill="#555" opacity="0.50"/>
<circle cx="577.2" cy="560.6" r="2.0" fill="#555" opacity="0.50"/>
<circle cx="583.6" cy="516.3" r="2.0" fill="#555" opacity="0.50"/>
<circle cx="590.8" cy="471.3" r="2.0" fill="#555" opacity="0.50"/>
<circle cx="597.7" cy="422.8" r="2.0" fill="#555" opacity="0.50"/>
<circle cx="604.8" cy="401.1" r="2.0" fill="#555" opacity="0.50"/>
<circle cx="611.7" cy="351.2" r="2.0" fill="#555" opacity="0.50"/>
<circle cx="618.8" cy="376.5" r="2.0" fill="#555" opacity="0.50"/>
<circle cx="626.0" cy="417.9" r="2.0" fill="#555" opacity="0.50"/>
<circle cx="632.9" cy="461.5" r="2.0" fill="#555" opacity="0.50"/>
<circle cx="640.0" cy="507.2" r="2.0" fill="#555" opacity="0.50"/>
<circle cx="646.9" cy="556.4" r="2.0" fill="#555" opacity="0.50"/>
<circle cx="654.0" cy="534.6" r="2.0" fill="#555" opacity="0.50"/>
<circle cx="661.1" cy="573.2" r="2.0" fill="#555" opacity="0.50"/>
<circle cx="667.6" cy="510.7" r="2.0" fill="#555" opacity="0.50"/>
<circle cx="674.7" cy="464.3" r="2.0" fill="#555" opacity="0.50"/>
<circle cx="681.6" cy="434.1" r="2.0" fill="#555" opacity="0.50"/>
<circle cx="688.7" cy="386.3" r="2.0" fill="#555" opacity="0.50"/>
<circle cx="695.6" cy="358.9" r="2.0" fill="#555" opacity="0.50"/>
<circle cx="702.8" cy="380.7" r="2.0" fill="#555" opacity="0.50"/>
<circle cx="709.9" cy="408.1" r="2.0" fill="#555" opacity="0.50"/>
<circle cx="716.8" cy="443.9" r="2.0" fill="#555" opacity="0.50"/>
<circle cx="723.9" cy="466.4" r="2.0" fill="#555" opacity="0.50"/>
<circle cx="730.8" cy="479.8" r="2.0" fill="#555" opacity="0.50"/>
<circle cx="738.0" cy="527.6" r="2.0" fill="#555" opacity="0.50"/>
<circle cx="745.1" cy="551.5" r="2.0" fill="#555" opacity="0.50"/>
<circle cx="751.8" cy="498.0" r="2.0" fill="#555" opacity="0.50"/>
<circle cx="758.9" cy="474.9" r="2.0" fill="#555" opacity="0.50"/>
<circle cx="765.8" cy="427.1" r="2.0" fill="#555" opacity="0.50"/>
<circle cx="772.9" cy="407.4" r="2.0" fill="#555" opacity="0.50"/>
<circle cx="779.8" cy="379.3" r="2.0" fill="#555" opacity="0.50"/>
<circle cx="786.9" cy="391.2" r="2.0" fill="#555" opacity="0.50"/>
<circle cx="794.1" cy="415.8" r="2.0" fill="#555" opacity="0.50"/>
<circle cx="801.0" cy="456.6" r="2.0" fill="#555" opacity="0.50"/>
<circle cx="808.1" cy="474.1" r="2.0" fill="#555" opacity="0.50"/>
<circle cx="815.0" cy="540.9" r="2.0" fill="#555" opacity="0.50"/>
<circle cx="822.1" cy="538.1" r="2.0" fill="#555" opacity="0.50"/>
<circle cx="829.2" cy="516.3" r="2.0" fill="#555" opacity="0.50"/>
<circle cx="835.7" cy="540.2" r="2.0" fill="#555" opacity="0.50"/>
<circle cx="842.8" cy="481.9" r="2.0" fill="#555" opacity="0.50"/>
<circle cx="849.7" cy="415.1" r="2.0" fill="#555" opacity="0.50"/>
<circle cx="856.8" cy="380.7" r="2.0" fill="#555" opacity="0.50"/>
<circle cx="863.7" cy="376.5" r="2.0" fill="#555" opacity="0.50"/>
<circle cx="870.9" cy="382.8" r="2.0" fill="#555" opacity="0.50"/>
<circle cx="878.0" cy="415.1" r="2.0" fill="#555" opacity="0.50"/>
<line x1="66" y1="335" x2="66" y2="588" stroke="#333" stroke-width="1.5"/>
<line x1="66" y1="588" x2="878" y2="588" stroke="#333" stroke-width="1.5"/>
<line x1="61" y1="573.9" x2="66" y2="573.9" stroke="#333" stroke-width="1.5"/>
<text x="58" y="573.9" text-anchor="end" dominant-baseline="middle" fill="#333">-10</text>
<line x1="61" y1="538.8" x2="66" y2="538.8" stroke="#333" stroke-width="1.5"/>
<text x="58" y="538.8" text-anchor="end" dominant-baseline="middle" fill="#333">-5</text>
<line x1="61" y1="503.7" x2="66" y2="503.7" stroke="#333" stroke-width="1.5"/>
<text x="58" y="503.7" text-anchor="end" dominant-baseline="middle" fill="#333">0</text>
<line x1="61" y1="468.5" x2="66" y2="468.5" stroke="#333" stroke-width="1.5"/>
<text x="58" y="468.5" text-anchor="end" dominant-baseline="middle" fill="#333">5</text>
<line x1="61" y1="433.4" x2="66" y2="433.4" stroke="#333" stroke-width="1.5"/>
<text x="58" y="433.4" text-anchor="end" dominant-baseline="middle" fill="#333">10</text>
<line x1="61" y1="398.3" x2="66" y2="398.3" stroke="#333" stroke-width="1.5"/>
<text x="58" y="398.3" text-anchor="end" dominant-baseline="middle" fill="#333">15</text>
<line x1="61" y1="363.1" x2="66" y2="363.1" stroke="#333" stroke-width="1.5"/>
<text x="58" y="363.1" text-anchor="end" dominant-baseline="middle" fill="#333">20</text>
<line x1="146.9" y1="588" x2="146.9" y2="593" stroke="#333" stroke-width="1.5"/>
<text x="146.9" y="606" text-anchor="middle" fill="#333">2005</text>
<line x1="230.9" y1="588" x2="230.9" y2="593" stroke="#333" stroke-width="1.5"/>
<text x="230.9" y="606" text-anchor="middle" fill="#333">2006</text>
<line x1="314.8" y1="588" x2="314.8" y2="593" stroke="#333" stroke-width="1.5"/>
<text x="314.8" y="606" text-anchor="middle" fill="#333">2007</text>
<line x1="398.8" y1="588" x2="398.8" y2="593" stroke="#333" stroke-width="1.5"/>
<text x="398.8" y="606" text-anchor="middle" fill="#333">2008</text>
<line x1="482.9" y1="588" x2="482.9" y2="593" stroke="#333" stroke-width="1.5"/>
<text x="482.9" y="606" text-anchor="middle" fill="#333">2009</text>
<line x1="566.9" y1="588" x2="566.9" y2="593" stroke="#333" stroke-width="1.5"/>
<text x="566.9" y="606" text-anchor="middle" fill="#333">2010</text>
<line x1="650.8" y1="588" x2="650.8" y2="593" stroke="#333" stroke-width="1.5"/>
<text x="650.8" y="606" text-anchor="middle" fill="#333">2011</text>
<line x1="734.7" y1="588" x2="734.7" y2="593" stroke="#333" stroke-width="1.5"/>
<text x="734.7" y="606" text-anchor="middle" fill="#333">2012</text>
<line x1="818.9" y1="588" x2="818.9" y2="593" stroke="#333" stroke-width="1.5"/>
<text x="818.9" y="606" text-anchor="middle" fill="#333">2013</text>
<text x="72" y="349" text-anchor="start" fill="#333" font-size="12" font-weight="600">Combined x[0] + seasonal x[2] ± 2σ (covariance-aware)</text>
<text x="450" y="632" text-anchor="middle" fill="#333" font-size="13">Year</text>
<text x="14" y="160.5" text-anchor="middle" fill="#333" font-size="13" transform="rotate(-90,14,160.5)">Temperature (°C)</text>
<text x="14" y="461.5" text-anchor="middle" fill="#333" font-size="13" transform="rotate(-90,14,461.5)">Temperature (°C)</text>
<rect x="562" y="54" width="308" height="62" rx="4" fill="white" stroke="#e5e7eb" stroke-width="1"/>
<circle cx="576" cy="68" r="3" fill="#555" opacity="0.6"/>
<text x="586" y="68" dominant-baseline="middle" fill="#333" font-size="11">Observed monthly temperature</text>
<line x1="570" y1="84" x2="582" y2="84" stroke="#2563eb" stroke-width="2"/>
<rect x="570" y="79" width="12" height="10" fill="rgba(37,99,235,0.12)" stroke="none"/>
<text x="586" y="84" dominant-baseline="middle" fill="#333" font-size="11">dlm-js mean ± 2σ</text>
<line x1="570" y1="100" x2="582" y2="100" stroke="#ef4444" stroke-width="2" stroke-dasharray="6,3"/>
<rect x="570" y="95" width="12" height="10" fill="rgba(239,68,68,0.12)" stroke="none"/>
<text x="586" y="100" dominant-baseline="middle" fill="#333" font-size="11">MATLAB/Octave mean ± 2σ</text>
</svg>