<svg xmlns="http://www.w3.org/2000/svg" viewBox="0 0 800 380" font-family="system-ui,-apple-system,sans-serif" font-size="12">
<rect width="800" height="380" fill="white"/>
<line x1="65" y1="330.0" x2="780" y2="330.0" stroke="#e5e7eb" stroke-width="1"/>
<line x1="65" y1="266.8" x2="780" y2="266.8" stroke="#e5e7eb" stroke-width="1"/>
<line x1="65" y1="203.7" x2="780" y2="203.7" stroke="#e5e7eb" stroke-width="1"/>
<line x1="65" y1="140.5" x2="780" y2="140.5" stroke="#e5e7eb" stroke-width="1"/>
<line x1="65" y1="77.4" x2="780" y2="77.4" stroke="#e5e7eb" stroke-width="1"/>
<path d="M65.0,53.6L72.2,66.4L79.4,75.0L86.7,79.3L93.9,81.8L101.1,83.5L108.3,85.2L115.6,85.9L122.8,87.7L130.0,91.5L137.2,96.0L144.4,100.0L151.7,102.9L158.9,105.2L166.1,106.2L173.3,105.9L180.6,104.1L187.8,101.7L195.0,97.2L202.2,91.8L209.4,86.9L216.7,83.2L223.9,81.7L231.1,82.8L238.3,87.1L245.6,94.8L252.8,105.3L260.0,117.1L267.2,129.6L274.4,140.7L281.7,150.1L288.9,157.8L296.1,162.8L303.3,166.6L310.6,168.8L317.8,169.2L325.0,169.1L332.2,168.3L339.4,168.5L346.7,170.2L353.9,172.7L361.1,175.0L368.3,175.9L375.6,174.1L382.8,171.5L390.0,168.3L397.2,167.1L404.4,167.9L411.7,169.4L418.9,170.9L426.1,172.3L433.3,173.3L440.6,174.2L447.8,174.9L455.0,175.3L462.2,174.7L469.4,173.5L476.7,171.5L483.9,169.1L491.1,167.5L498.3,165.7L505.6,163.7L512.8,162.1L520.0,161.1L527.2,161.5L534.4,163.3L541.7,166.3L548.9,169.6L556.1,173.8L563.3,177.3L570.6,179.1L577.8,179.1L585.0,178.1L592.2,176.4L599.4,173.7L606.7,170.8L613.9,168.9L621.1,167.4L628.3,166.0L635.6,164.6L642.8,162.9L650.0,160.2L657.2,156.5L664.4,152.4L671.7,149.2L678.9,146.5L686.1,144.5L693.3,142.4L700.6,140.7L707.8,139.9L715.0,139.4L722.2,140.5L729.4,142.9L736.7,146.9L743.9,153.6L751.1,161.3L758.3,168.3L765.6,173.8L772.8,175.6L780.0,172.8L780.0,302.0L772.8,280.2L765.6,262.6L758.3,248.6L751.1,238.0L743.9,229.1L736.7,222.3L729.4,218.3L722.2,215.8L715.0,214.5L707.8,214.8L700.6,215.4L693.3,216.8L686.1,218.8L678.9,220.7L671.7,223.3L664.4,226.5L657.2,230.5L650.0,234.2L642.8,237.0L635.6,238.6L628.3,240.1L621.1,241.4L613.9,243.0L606.7,244.8L599.4,247.7L592.2,250.4L585.0,252.2L577.8,253.1L570.6,253.2L563.3,251.3L556.1,247.9L548.9,243.7L541.7,240.3L534.4,237.4L527.2,235.5L520.0,235.2L512.8,236.1L505.6,237.7L498.3,239.7L491.1,241.6L483.9,243.1L476.7,245.5L469.4,247.5L462.2,248.7L455.0,249.4L447.8,248.9L440.6,248.2L433.3,247.3L426.1,246.3L418.9,244.9L411.7,243.4L404.4,241.9L397.2,241.1L390.0,242.4L382.8,245.5L375.6,248.1L368.3,249.9L361.1,249.0L353.9,246.8L346.7,244.2L339.4,242.5L332.2,242.3L325.0,243.2L317.8,243.2L310.6,242.8L303.3,240.6L296.1,236.9L288.9,231.8L281.7,224.2L274.4,214.8L267.2,203.7L260.0,191.2L252.8,179.4L245.6,168.9L238.3,161.2L231.1,156.8L223.9,155.8L216.7,157.2L209.4,161.0L202.2,165.9L195.0,171.3L187.8,175.7L180.6,178.1L173.3,180.0L166.1,180.3L158.9,179.5L151.7,177.4L144.4,174.7L137.2,170.9L130.0,166.6L122.8,163.0L115.6,161.2L108.3,160.5L101.1,159.0L93.9,158.3L86.7,159.4L79.4,163.4L72.2,170.5L65.0,182.1Z" fill="rgba(245,158,11,0.12)" stroke="none"/>
<polyline points="65.0,117.8 72.2,118.4 79.4,119.2 86.7,119.4 93.9,120.1 101.1,121.2 108.3,122.8 115.6,123.5 122.8,125.3 130.0,129.1 137.2,133.5 144.4,137.4 151.7,140.1 158.9,142.3 166.1,143.2 173.3,142.9 180.6,141.1 187.8,138.7 195.0,134.2 202.2,128.8 209.4,124.0 216.7,120.2 223.9,118.7 231.1,119.8 238.3,124.2 245.6,131.9 252.8,142.3 260.0,154.1 267.2,166.6 274.4,177.8 281.7,187.2 288.9,194.8 296.1,199.9 303.3,203.6 310.6,205.8 317.8,206.2 325.0,206.2 332.2,205.3 339.4,205.5 346.7,207.2 353.9,209.7 361.1,212.0 368.3,212.9 375.6,211.1 382.8,208.5 390.0,205.3 397.2,204.1 404.4,204.9 411.7,206.4 418.9,207.9 426.1,209.3 433.3,210.3 440.6,211.2 447.8,211.9 455.0,212.4 462.2,211.7 469.4,210.5 476.7,208.5 483.9,206.1 491.1,204.5 498.3,202.7 505.6,200.7 512.8,199.1 520.0,198.1 527.2,198.5 534.4,200.4 541.7,203.3 548.9,206.7 556.1,210.8 563.3,214.3 570.6,216.1 577.8,216.1 585.0,215.2 592.2,213.4 599.4,210.7 606.7,207.8 613.9,205.9 621.1,204.4 628.3,203.1 635.6,201.6 642.8,199.9 650.0,197.2 657.2,193.5 664.4,189.5 671.7,186.3 678.9,183.6 686.1,181.7 693.3,179.6 700.6,178.0 707.8,177.3 715.0,177.0 722.2,178.1 729.4,180.6 736.7,184.6 743.9,191.4 751.1,199.7 758.3,208.5 765.6,218.2 772.8,227.9 780.0,237.4" fill="none" stroke="#f59e0b" stroke-width="2" stroke-dasharray="6,3"/>
<path d="M65.0,76.1L72.2,81.9L79.4,87.3L86.7,85.8L93.9,87.1L101.1,89.8L108.3,94.2L115.6,87.7L122.8,85.4L130.0,92.7L137.2,101.4L144.4,107.2L151.7,108.3L158.9,111.6L166.1,113.1L173.3,113.9L180.6,112.0L187.8,115.4L195.0,109.9L202.2,101.0L209.4,94.6L216.7,88.4L223.9,85.9L231.1,84.5L238.3,87.8L245.6,96.7L252.8,110.7L260.0,124.2L267.2,141.4L274.4,152.0L281.7,159.8L288.9,166.9L296.1,167.5L303.3,170.9L310.6,173.6L317.8,170.7L325.0,170.2L332.2,163.3L339.4,162.0L346.7,167.1L353.9,176.3L361.1,185.2L368.3,191.0L375.6,183.8L382.8,177.1L390.0,165.3L397.2,163.0L404.4,169.4L411.7,174.7L418.9,177.1L426.1,179.0L433.3,178.5L440.6,178.6L447.8,180.1L455.0,183.1L462.2,181.5L469.4,180.9L476.7,177.3L483.9,172.2L491.1,174.6L498.3,173.7L505.6,170.3L512.8,167.4L520.0,163.7L527.2,162.6L534.4,165.5L541.7,169.4L548.9,172.0L556.1,180.7L563.3,187.4L570.6,189.3L577.8,185.6L585.0,183.4L592.2,181.1L599.4,175.7L606.7,168.9L613.9,169.1L621.1,169.3L628.3,170.2L635.6,170.7L642.8,172.6L650.0,170.5L657.2,164.3L664.4,156.7L671.7,155.0L678.9,153.8L686.1,155.6L693.3,153.4L700.6,151.8L707.8,152.5L715.0,149.4L722.2,150.2L729.4,150.5L736.7,150.1L743.9,159.3L751.1,169.2L758.3,174.4L765.6,182.2L772.8,185.1L780.0,183.0L780.0,267.2L772.8,259.7L765.6,251.3L758.3,240.8L751.1,234.1L743.9,223.4L736.7,213.9L729.4,214.1L722.2,213.7L715.0,212.9L707.8,215.9L700.6,215.2L693.3,216.8L686.1,219.0L678.9,217.2L671.7,218.4L664.4,220.1L657.2,227.7L650.0,233.9L642.8,236.0L635.6,234.1L628.3,233.6L621.1,232.8L613.9,232.5L606.7,232.4L599.4,239.2L592.2,244.5L585.0,246.8L577.8,249.0L570.6,252.8L563.3,250.9L556.1,244.1L548.9,235.4L541.7,232.9L534.4,228.9L527.2,226.0L520.0,227.1L512.8,230.8L505.6,233.8L498.3,237.1L491.1,238.0L483.9,235.7L476.7,240.7L469.4,244.3L462.2,244.9L455.0,246.5L447.8,243.6L440.6,242.1L433.3,241.9L426.1,242.4L418.9,240.5L411.7,238.2L404.4,232.8L397.2,226.5L390.0,228.7L382.8,240.5L375.6,247.2L368.3,254.4L361.1,248.6L353.9,239.7L346.7,230.5L339.4,225.4L332.2,226.7L325.0,233.6L317.8,234.1L310.6,237.0L303.3,234.4L296.1,230.9L288.9,230.4L281.7,223.2L274.4,215.5L267.2,204.9L260.0,187.6L252.8,174.2L245.6,160.2L238.3,151.3L231.1,147.9L223.9,149.4L216.7,151.9L209.4,158.0L202.2,164.4L195.0,173.3L187.8,178.8L180.6,175.4L173.3,177.4L166.1,176.5L158.9,175.0L151.7,171.7L144.4,170.6L137.2,164.9L130.0,156.2L122.8,148.9L115.6,151.3L108.3,158.0L101.1,153.9L93.9,152.0L86.7,152.1L79.4,156.3L72.2,156.2L65.0,159.9Z" fill="rgba(37,99,235,0.12)" stroke="none"/>
<polyline points="65.0,118.0 72.2,119.1 79.4,121.8 86.7,118.9 93.9,119.5 101.1,121.8 108.3,126.1 115.6,119.5 122.8,117.2 130.0,124.4 137.2,133.2 144.4,138.9 151.7,140.0 158.9,143.3 166.1,144.8 173.3,145.7 180.6,143.7 187.8,147.1 195.0,141.6 202.2,132.7 209.4,126.3 216.7,120.1 223.9,117.7 231.1,116.2 238.3,119.6 245.6,128.5 252.8,142.4 260.0,155.9 267.2,173.1 274.4,183.7 281.7,191.5 288.9,198.7 296.1,199.2 303.3,202.6 310.6,205.3 317.8,202.4 325.0,201.9 332.2,195.0 339.4,193.7 346.7,198.8 353.9,208.0 361.1,216.9 368.3,222.7 375.6,215.5 382.8,208.8 390.0,197.0 397.2,194.8 404.4,201.1 411.7,206.5 418.9,208.8 426.1,210.7 433.3,210.2 440.6,210.3 447.8,211.8 455.0,214.8 462.2,213.2 469.4,212.6 476.7,209.0 483.9,204.0 491.1,206.3 498.3,205.4 505.6,202.1 512.8,199.1 520.0,195.4 527.2,194.3 534.4,197.2 541.7,201.1 548.9,203.7 556.1,212.4 563.3,219.2 570.6,221.1 577.8,217.3 585.0,215.1 592.2,212.8 599.4,207.4 606.7,200.7 613.9,200.8 621.1,201.0 628.3,201.9 635.6,202.4 642.8,204.3 650.0,202.2 657.2,196.0 664.4,188.4 671.7,186.7 678.9,185.5 686.1,187.3 693.3,185.1 700.6,183.5 707.8,184.2 715.0,181.2 722.2,182.0 729.4,182.3 736.7,182.0 743.9,191.3 751.1,201.6 758.3,207.6 765.6,216.8 772.8,222.4 780.0,225.1" fill="none" stroke="#2563eb" stroke-width="2"/>
<circle cx="65.0" cy="118.4" r="2.5" fill="#555" opacity="0.6"/>
<circle cx="72.2" cy="105.8" r="2.5" fill="#555" opacity="0.6"/>
<circle cx="79.4" cy="168.0" r="2.5" fill="#555" opacity="0.6"/>
<circle cx="86.7" cy="90.0" r="2.5" fill="#555" opacity="0.6"/>
<circle cx="93.9" cy="105.8" r="2.5" fill="#555" opacity="0.6"/>
<circle cx="101.1" cy="105.8" r="2.5" fill="#555" opacity="0.6"/>
<circle cx="108.3" cy="215.4" r="2.5" fill="#555" opacity="0.6"/>
<circle cx="115.6" cy="83.7" r="2.5" fill="#555" opacity="0.6"/>
<circle cx="122.8" cy="39.5" r="2.5" fill="#555" opacity="0.6"/>
<circle cx="130.0" cy="112.1" r="2.5" fill="#555" opacity="0.6"/>
<circle cx="137.2" cy="157.9" r="2.5" fill="#555" opacity="0.6"/>
<circle cx="144.4" cy="176.8" r="2.5" fill="#555" opacity="0.6"/>
<circle cx="151.7" cy="121.6" r="2.5" fill="#555" opacity="0.6"/>
<circle cx="158.9" cy="158.2" r="2.5" fill="#555" opacity="0.6"/>
<circle cx="166.1" cy="150.0" r="2.5" fill="#555" opacity="0.6"/>
<circle cx="173.3" cy="168.9" r="2.5" fill="#555" opacity="0.6"/>
<circle cx="180.6" cy="99.5" r="2.5" fill="#555" opacity="0.6"/>
<circle cx="187.8" cy="219.8" r="2.5" fill="#555" opacity="0.6"/>
<circle cx="195.0" cy="169.6" r="2.5" fill="#555" opacity="0.6"/>
<circle cx="202.2" cy="112.1" r="2.5" fill="#555" opacity="0.6"/>
<circle cx="209.4" cy="124.7" r="2.5" fill="#555" opacity="0.6"/>
<circle cx="216.7" cy="90.0" r="2.5" fill="#555" opacity="0.6"/>
<circle cx="223.9" cy="108.9" r="2.5" fill="#555" opacity="0.6"/>
<circle cx="231.1" cy="77.4" r="2.5" fill="#555" opacity="0.6"/>
<circle cx="238.3" cy="74.2" r="2.5" fill="#555" opacity="0.6"/>
<circle cx="245.6" cy="86.8" r="2.5" fill="#555" opacity="0.6"/>
<circle cx="252.8" cy="146.8" r="2.5" fill="#555" opacity="0.6"/>
<circle cx="260.0" cy="124.7" r="2.5" fill="#555" opacity="0.6"/>
<circle cx="267.2" cy="227.7" r="2.5" fill="#555" opacity="0.6"/>
<circle cx="274.4" cy="206.8" r="2.5" fill="#555" opacity="0.6"/>
<circle cx="281.7" cy="196.1" r="2.5" fill="#555" opacity="0.6"/>
<circle cx="288.9" cy="252.9" r="2.5" fill="#555" opacity="0.6"/>
<circle cx="296.1" cy="175.3" r="2.5" fill="#555" opacity="0.6"/>
<circle cx="303.3" cy="209.1" r="2.5" fill="#555" opacity="0.6"/>
<circle cx="310.6" cy="250.7" r="2.5" fill="#555" opacity="0.6"/>
<circle cx="317.8" cy="182.8" r="2.5" fill="#555" opacity="0.6"/>
<circle cx="325.0" cy="253.6" r="2.5" fill="#555" opacity="0.6"/>
<circle cx="332.2" cy="150.0" r="2.5" fill="#555" opacity="0.6"/>
<circle cx="339.4" cy="140.5" r="2.5" fill="#555" opacity="0.6"/>
<circle cx="346.7" cy="166.1" r="2.5" fill="#555" opacity="0.6"/>
<circle cx="353.9" cy="209.7" r="2.5" fill="#555" opacity="0.6"/>
<circle cx="361.1" cy="242.8" r="2.5" fill="#555" opacity="0.6"/>
<circle cx="368.3" cy="328.1" r="2.5" fill="#555" opacity="0.6"/>
<circle cx="375.6" cy="211.9" r="2.5" fill="#555" opacity="0.6"/>
<circle cx="382.8" cy="250.4" r="2.5" fill="#555" opacity="0.6"/>
<circle cx="390.0" cy="118.4" r="2.5" fill="#555" opacity="0.6"/>
<circle cx="397.2" cy="124.7" r="2.5" fill="#555" opacity="0.6"/>
<circle cx="404.4" cy="209.4" r="2.5" fill="#555" opacity="0.6"/>
<circle cx="411.7" cy="230.8" r="2.5" fill="#555" opacity="0.6"/>
<circle cx="418.9" cy="212.8" r="2.5" fill="#555" opacity="0.6"/>
<circle cx="426.1" cy="229.6" r="2.5" fill="#555" opacity="0.6"/>
<circle cx="433.3" cy="205.3" r="2.5" fill="#555" opacity="0.6"/>
<circle cx="440.6" cy="199.3" r="2.5" fill="#555" opacity="0.6"/>
<circle cx="447.8" cy="199.9" r="2.5" fill="#555" opacity="0.6"/>
<circle cx="455.0" cy="251.7" r="2.5" fill="#555" opacity="0.6"/>
<circle cx="462.2" cy="205.3" r="2.5" fill="#555" opacity="0.6"/>
<circle cx="469.4" cy="237.2" r="2.5" fill="#555" opacity="0.6"/>
<circle cx="476.7" cy="220.7" r="2.5" fill="#555" opacity="0.6"/>
<circle cx="483.9" cy="143.7" r="2.5" fill="#555" opacity="0.6"/>
<circle cx="491.1" cy="232.4" r="2.5" fill="#555" opacity="0.6"/>
<circle cx="498.3" cy="225.5" r="2.5" fill="#555" opacity="0.6"/>
<circle cx="505.6" cy="198.9" r="2.5" fill="#555" opacity="0.6"/>
<circle cx="512.8" cy="205.3" r="2.5" fill="#555" opacity="0.6"/>
<circle cx="520.0" cy="174.0" r="2.5" fill="#555" opacity="0.6"/>
<circle cx="527.2" cy="161.4" r="2.5" fill="#555" opacity="0.6"/>
<circle cx="534.4" cy="188.8" r="2.5" fill="#555" opacity="0.6"/>
<circle cx="541.7" cy="212.5" r="2.5" fill="#555" opacity="0.6"/>
<circle cx="548.9" cy="153.2" r="2.5" fill="#555" opacity="0.6"/>
<circle cx="556.1" cy="228.6" r="2.5" fill="#555" opacity="0.6"/>
<circle cx="563.3" cy="258.6" r="2.5" fill="#555" opacity="0.6"/>
<circle cx="570.6" cy="267.2" r="2.5" fill="#555" opacity="0.6"/>
<circle cx="577.8" cy="204.9" r="2.5" fill="#555" opacity="0.6"/>
<circle cx="585.0" cy="215.7" r="2.5" fill="#555" opacity="0.6"/>
<circle cx="592.2" cy="237.8" r="2.5" fill="#555" opacity="0.6"/>
<circle cx="599.4" cy="219.2" r="2.5" fill="#555" opacity="0.6"/>
<circle cx="606.7" cy="143.7" r="2.5" fill="#555" opacity="0.6"/>
<circle cx="613.9" cy="200.5" r="2.5" fill="#555" opacity="0.6"/>
<circle cx="621.1" cy="196.1" r="2.5" fill="#555" opacity="0.6"/>
<circle cx="628.3" cy="204.3" r="2.5" fill="#555" opacity="0.6"/>
<circle cx="635.6" cy="191.1" r="2.5" fill="#555" opacity="0.6"/>
<circle cx="642.8" cy="237.2" r="2.5" fill="#555" opacity="0.6"/>
<circle cx="650.0" cy="235.6" r="2.5" fill="#555" opacity="0.6"/>
<circle cx="657.2" cy="207.5" r="2.5" fill="#555" opacity="0.6"/>
<circle cx="664.4" cy="140.5" r="2.5" fill="#555" opacity="0.6"/>
<circle cx="671.7" cy="182.2" r="2.5" fill="#555" opacity="0.6"/>
<circle cx="678.9" cy="160.7" r="2.5" fill="#555" opacity="0.6"/>
<circle cx="686.1" cy="220.4" r="2.5" fill="#555" opacity="0.6"/>
<circle cx="693.3" cy="180.6" r="2.5" fill="#555" opacity="0.6"/>
<circle cx="700.6" cy="164.2" r="2.5" fill="#555" opacity="0.6"/>
<circle cx="707.8" cy="214.7" r="2.5" fill="#555" opacity="0.6"/>
<circle cx="715.0" cy="150.0" r="2.5" fill="#555" opacity="0.6"/>
<circle cx="722.2" cy="186.0" r="2.5" fill="#555" opacity="0.6"/>
<circle cx="729.4" cy="187.6" r="2.5" fill="#555" opacity="0.6"/>
<circle cx="736.7" cy="102.6" r="2.5" fill="#555" opacity="0.6"/>
<circle cx="743.9" cy="184.1" r="2.5" fill="#555" opacity="0.6"/>
<circle cx="751.1" cy="236.5" r="2.5" fill="#555" opacity="0.6"/>
<circle cx="758.3" cy="181.9" r="2.5" fill="#555" opacity="0.6"/>
<circle cx="765.6" cy="245.4" r="2.5" fill="#555" opacity="0.6"/>
<circle cx="772.8" cy="246.6" r="2.5" fill="#555" opacity="0.6"/>
<circle cx="780.0" cy="238.4" r="2.5" fill="#555" opacity="0.6"/>
<line x1="65" y1="30" x2="65" y2="330" stroke="#333" stroke-width="1.5"/>
<line x1="65" y1="330" x2="780" y2="330" stroke="#333" stroke-width="1.5"/>
<line x1="60" y1="330.0" x2="65" y2="330.0" stroke="#333" stroke-width="1.5"/>
<text x="57" y="330.0" text-anchor="end" dominant-baseline="middle" fill="#333">450</text>
<line x1="60" y1="266.8" x2="65" y2="266.8" stroke="#333" stroke-width="1.5"/>
<text x="57" y="266.8" text-anchor="end" dominant-baseline="middle" fill="#333">650</text>
<line x1="60" y1="203.7" x2="65" y2="203.7" stroke="#333" stroke-width="1.5"/>
<text x="57" y="203.7" text-anchor="end" dominant-baseline="middle" fill="#333">850</text>
<line x1="60" y1="140.5" x2="65" y2="140.5" stroke="#333" stroke-width="1.5"/>
<text x="57" y="140.5" text-anchor="end" dominant-baseline="middle" fill="#333">1050</text>
<line x1="60" y1="77.4" x2="65" y2="77.4" stroke="#333" stroke-width="1.5"/>
<text x="57" y="77.4" text-anchor="end" dominant-baseline="middle" fill="#333">1250</text>
<line x1="130.0" y1="330" x2="130.0" y2="335" stroke="#333" stroke-width="1.5"/>
<text x="130.0" y="348" text-anchor="middle" fill="#333">1880</text>
<line x1="274.4" y1="330" x2="274.4" y2="335" stroke="#333" stroke-width="1.5"/>
<text x="274.4" y="348" text-anchor="middle" fill="#333">1900</text>
<line x1="418.9" y1="330" x2="418.9" y2="335" stroke="#333" stroke-width="1.5"/>
<text x="418.9" y="348" text-anchor="middle" fill="#333">1920</text>
<line x1="563.3" y1="330" x2="563.3" y2="335" stroke="#333" stroke-width="1.5"/>
<text x="563.3" y="348" text-anchor="middle" fill="#333">1940</text>
<line x1="707.8" y1="330" x2="707.8" y2="335" stroke="#333" stroke-width="1.5"/>
<text x="707.8" y="348" text-anchor="middle" fill="#333">1960</text>
<text x="422.5" y="375" text-anchor="middle" fill="#333" font-size="13">Year</text>
<text x="14" y="180" text-anchor="middle" fill="#333" font-size="13" transform="rotate(-90,14,180)">Annual flow</text>
<text x="422.5" y="16" text-anchor="middle" fill="#333" font-size="14" font-weight="600">Nile — MLE optimization: before vs after (198 iters, 3961 ms WASM)</text>
<rect x="490" y="38" width="285" height="80" rx="4" fill="white" stroke="#e5e7eb" stroke-width="1"/>
<circle cx="504" cy="52" r="3" fill="#555" opacity="0.6"/>
<text x="514" y="52" dominant-baseline="middle" fill="#333" font-size="11">Observations</text>
<line x1="498" y1="70" x2="510" y2="70" stroke="#f59e0b" stroke-width="2" stroke-dasharray="6,3"/>
<rect x="498" y="65" width="12" height="10" fill="rgba(245,158,11,0.12)" stroke="none"/>
<text x="514" y="70" dominant-baseline="middle" fill="#333" font-size="11">Before: s=168.4, w=[16.8,16.8]</text>
<line x1="498" y1="88" x2="510" y2="88" stroke="#2563eb" stroke-width="2"/>
<rect x="498" y="83" width="12" height="10" fill="rgba(37,99,235,0.12)" stroke="none"/>
<text x="514" y="88" dominant-baseline="middle" fill="#333" font-size="11">MLE: s=120.9, w=[42.3,0.5]</text>
<text x="514" y="106" dominant-baseline="middle" fill="#666" font-size="10">−2·logL: 1105.03 (converged in 198 iters)</text>
</svg>