<svg xmlns="http://www.w3.org/2000/svg" viewBox="0 0 800 360" font-family="system-ui,-apple-system,sans-serif" font-size="12">
<rect width="800" height="360" fill="white"/>
<line x1="65" y1="310.0" x2="780" y2="310.0" stroke="#e5e7eb" stroke-width="1"/>
<line x1="65" y1="251.1" x2="780" y2="251.1" stroke="#e5e7eb" stroke-width="1"/>
<line x1="65" y1="192.1" x2="780" y2="192.1" stroke="#e5e7eb" stroke-width="1"/>
<line x1="65" y1="133.2" x2="780" y2="133.2" stroke="#e5e7eb" stroke-width="1"/>
<line x1="65" y1="74.2" x2="780" y2="74.2" stroke="#e5e7eb" stroke-width="1"/>
<path d="M65.0,63.0L72.2,75.6L79.4,81.4L86.7,80.3L93.9,80.0L101.1,80.7L108.3,82.2L115.6,78.1L122.8,77.6L130.0,84.3L137.2,93.5L144.4,101.1L151.7,105.4L158.9,109.9L166.1,112.5L173.3,113.6L180.6,111.9L187.8,111.0L195.0,103.2L202.2,91.6L209.4,80.6L216.7,70.7L223.9,64.7L231.1,62.4L238.3,66.6L245.6,77.7L252.8,94.7L260.0,113.2L267.2,133.3L274.4,148.1L281.7,158.6L288.9,165.8L296.1,167.2L303.3,168.2L310.6,167.3L317.8,162.4L325.0,158.3L332.2,151.8L339.4,150.7L346.7,156.3L353.9,166.0L361.1,175.3L368.3,179.8L375.6,173.7L382.8,165.0L390.0,153.7L397.2,149.9L404.4,153.8L411.7,159.0L418.9,163.0L426.1,166.2L433.3,167.6L440.6,169.0L447.8,171.0L455.0,173.2L462.2,172.3L469.4,170.7L476.7,166.8L483.9,162.2L491.1,161.5L498.3,159.1L505.6,154.9L512.8,150.8L520.0,146.9L527.2,146.0L534.4,149.2L541.7,154.8L548.9,161.0L556.1,170.8L563.3,178.7L570.6,181.7L577.8,179.3L585.0,175.8L592.2,171.1L599.4,164.5L606.7,158.0L613.9,156.6L621.1,157.0L628.3,158.6L635.6,160.2L642.8,161.6L650.0,159.3L657.2,153.3L664.4,146.2L671.7,142.9L678.9,140.9L686.1,140.9L693.3,138.8L700.6,136.5L707.8,135.1L715.0,131.7L722.2,130.7L729.4,130.6L736.7,132.4L743.9,141.7L751.1,153.6L758.3,164.4L765.6,176.1L772.8,182.7L780.0,180.9L780.0,284.2L772.8,260.9L765.6,244.1L758.3,229.8L751.1,218.8L743.9,206.9L736.7,197.4L729.4,195.4L722.2,195.3L715.0,196.1L707.8,199.4L700.6,200.8L693.3,203.1L686.1,205.2L678.9,205.2L671.7,207.2L664.4,210.5L657.2,217.6L650.0,223.6L642.8,225.9L635.6,224.5L628.3,222.9L621.1,221.3L613.9,220.9L606.7,222.3L599.4,228.8L592.2,235.4L585.0,240.1L577.8,243.6L570.6,246.0L563.3,243.0L556.1,235.1L548.9,225.3L541.7,219.1L534.4,213.5L527.2,210.3L520.0,211.2L512.8,215.1L505.6,219.2L498.3,223.4L491.1,225.8L483.9,226.5L476.7,231.1L469.4,235.0L462.2,236.5L455.0,237.5L447.8,235.3L440.6,233.3L433.3,231.9L426.1,230.5L418.9,227.3L411.7,223.3L404.4,218.1L397.2,214.2L390.0,218.0L382.8,229.3L375.6,238.0L368.3,244.1L361.1,239.5L353.9,230.3L346.7,220.6L339.4,215.0L332.2,216.1L325.0,222.5L317.8,226.7L310.6,231.6L303.3,232.5L296.1,231.5L288.9,230.1L281.7,222.9L274.4,212.4L267.2,197.6L260.0,177.5L252.8,159.0L245.6,142.0L238.3,130.8L231.1,126.7L223.9,129.0L216.7,135.0L209.4,144.9L202.2,155.9L195.0,167.5L187.8,175.3L180.6,176.2L173.3,177.9L166.1,176.8L158.9,174.2L151.7,169.7L144.4,165.4L137.2,157.8L130.0,148.7L122.8,142.1L115.6,142.8L108.3,147.2L101.1,145.9L93.9,145.2L86.7,145.7L79.4,149.2L72.2,153.4L65.0,165.8Z" fill="rgba(37,99,235,0.12)" stroke="none"/>
<path d="M65.0,63.0L72.2,75.6L79.4,81.4L86.7,80.3L93.9,80.0L101.1,80.7L108.3,82.2L115.6,78.1L122.8,77.6L130.0,84.3L137.2,93.5L144.4,101.1L151.7,105.4L158.9,109.9L166.1,112.5L173.3,113.6L180.6,111.9L187.8,111.0L195.0,103.2L202.2,91.6L209.4,80.6L216.7,70.7L223.9,64.7L231.1,62.4L238.3,66.6L245.6,77.7L252.8,94.7L260.0,113.2L267.2,133.3L274.4,148.1L281.7,158.6L288.9,165.8L296.1,167.2L303.3,168.2L310.6,167.3L317.8,162.4L325.0,158.3L332.2,151.8L339.4,150.7L346.7,156.3L353.9,166.0L361.1,175.3L368.3,179.8L375.6,173.7L382.8,165.0L390.0,153.7L397.2,149.9L404.4,153.8L411.7,159.0L418.9,163.0L426.1,166.2L433.3,167.6L440.6,169.0L447.8,171.0L455.0,173.2L462.2,172.3L469.4,170.7L476.7,166.8L483.9,162.2L491.1,161.5L498.3,159.1L505.6,154.9L512.8,150.8L520.0,146.9L527.2,146.0L534.4,149.2L541.7,154.8L548.9,161.0L556.1,170.8L563.3,178.7L570.6,181.7L577.8,179.3L585.0,175.8L592.2,171.1L599.4,164.5L606.7,158.0L613.9,156.6L621.1,157.0L628.3,158.6L635.6,160.2L642.8,161.6L650.0,159.3L657.2,153.3L664.4,146.2L671.7,142.9L678.9,140.9L686.1,140.9L693.3,138.8L700.6,136.5L707.8,135.1L715.0,131.7L722.2,130.7L729.4,130.6L736.7,132.4L743.9,141.7L751.1,153.6L758.3,164.4L765.6,176.1L772.8,182.7L780.0,180.9L780.0,284.2L772.8,260.9L765.6,244.1L758.3,229.8L751.1,218.8L743.9,206.9L736.7,197.4L729.4,195.4L722.2,195.3L715.0,196.1L707.8,199.4L700.6,200.8L693.3,203.1L686.1,205.2L678.9,205.2L671.7,207.2L664.4,210.5L657.2,217.6L650.0,223.6L642.8,225.9L635.6,224.5L628.3,222.9L621.1,221.3L613.9,220.9L606.7,222.3L599.4,228.8L592.2,235.4L585.0,240.1L577.8,243.6L570.6,246.0L563.3,243.0L556.1,235.1L548.9,225.3L541.7,219.1L534.4,213.5L527.2,210.3L520.0,211.2L512.8,215.1L505.6,219.2L498.3,223.4L491.1,225.8L483.9,226.5L476.7,231.1L469.4,235.0L462.2,236.5L455.0,237.5L447.8,235.3L440.6,233.3L433.3,231.9L426.1,230.5L418.9,227.3L411.7,223.3L404.4,218.1L397.2,214.2L390.0,218.0L382.8,229.3L375.6,238.0L368.3,244.1L361.1,239.5L353.9,230.3L346.7,220.6L339.4,215.0L332.2,216.1L325.0,222.5L317.8,226.7L310.6,231.6L303.3,232.5L296.1,231.5L288.9,230.1L281.7,222.9L274.4,212.4L267.2,197.6L260.0,177.5L252.8,159.0L245.6,142.0L238.3,130.8L231.1,126.7L223.9,129.0L216.7,135.0L209.4,144.9L202.2,155.9L195.0,167.5L187.8,175.3L180.6,176.2L173.3,177.9L166.1,176.8L158.9,174.2L151.7,169.7L144.4,165.4L137.2,157.8L130.0,148.7L122.8,142.1L115.6,142.8L108.3,147.2L101.1,145.9L93.9,145.2L86.7,145.7L79.4,149.2L72.2,153.4L65.0,165.8Z" fill="rgba(239,68,68,0.12)" stroke="none"/>
<polyline points="65.0,114.4 72.2,114.5 79.4,115.3 86.7,113.0 93.9,112.6 101.1,113.3 108.3,114.7 115.6,110.5 122.8,109.8 130.0,116.5 137.2,125.7 144.4,133.2 151.7,137.6 158.9,142.1 166.1,144.7 173.3,145.7 180.6,144.0 187.8,143.1 195.0,135.4 202.2,123.7 209.4,112.8 216.7,102.8 223.9,96.9 231.1,94.6 238.3,98.7 245.6,109.8 252.8,126.8 260.0,145.3 267.2,165.5 274.4,180.3 281.7,190.8 288.9,198.0 296.1,199.4 303.3,200.4 310.6,199.5 317.8,194.6 325.0,190.4 332.2,184.0 339.4,182.9 346.7,188.4 353.9,198.2 361.1,207.4 368.3,211.9 375.6,205.9 382.8,197.1 390.0,185.9 397.2,182.1 404.4,185.9 411.7,191.2 418.9,195.2 426.1,198.4 433.3,199.8 440.6,201.1 447.8,203.1 455.0,205.4 462.2,204.4 469.4,202.8 476.7,199.0 483.9,194.4 491.1,193.7 498.3,191.3 505.6,187.1 512.8,182.9 520.0,179.1 527.2,178.2 534.4,181.4 541.7,186.9 548.9,193.1 556.1,203.0 563.3,210.9 570.6,213.9 577.8,211.5 585.0,207.9 592.2,203.3 599.4,196.7 606.7,190.1 613.9,188.8 621.1,189.2 628.3,190.8 635.6,192.3 642.8,193.7 650.0,191.4 657.2,185.5 664.4,178.4 671.7,175.0 678.9,173.1 686.1,173.1 693.3,170.9 700.6,168.6 707.8,167.2 715.0,163.9 722.2,163.0 729.4,163.0 736.7,164.9 743.9,174.3 751.1,186.2 758.3,197.1 765.6,210.1 772.8,221.8 780.0,232.6" fill="none" stroke="#2563eb" stroke-width="2"/>
<polyline points="65.0,114.4 72.2,114.5 79.4,115.3 86.7,113.0 93.9,112.6 101.1,113.3 108.3,114.7 115.6,110.5 122.8,109.8 130.0,116.5 137.2,125.7 144.4,133.2 151.7,137.6 158.9,142.1 166.1,144.7 173.3,145.7 180.6,144.0 187.8,143.1 195.0,135.4 202.2,123.7 209.4,112.8 216.7,102.8 223.9,96.9 231.1,94.6 238.3,98.7 245.6,109.8 252.8,126.8 260.0,145.3 267.2,165.5 274.4,180.3 281.7,190.8 288.9,198.0 296.1,199.4 303.3,200.4 310.6,199.5 317.8,194.6 325.0,190.4 332.2,184.0 339.4,182.9 346.7,188.4 353.9,198.2 361.1,207.4 368.3,211.9 375.6,205.9 382.8,197.1 390.0,185.9 397.2,182.1 404.4,185.9 411.7,191.2 418.9,195.2 426.1,198.4 433.3,199.8 440.6,201.1 447.8,203.1 455.0,205.4 462.2,204.4 469.4,202.8 476.7,199.0 483.9,194.4 491.1,193.7 498.3,191.3 505.6,187.1 512.8,182.9 520.0,179.1 527.2,178.2 534.4,181.4 541.7,186.9 548.9,193.1 556.1,203.0 563.3,210.9 570.6,213.9 577.8,211.5 585.0,207.9 592.2,203.3 599.4,196.7 606.7,190.1 613.9,188.8 621.1,189.2 628.3,190.8 635.6,192.3 642.8,193.7 650.0,191.4 657.2,185.5 664.4,178.4 671.7,175.0 678.9,173.1 686.1,173.1 693.3,170.9 700.6,168.6 707.8,167.2 715.0,163.9 722.2,163.0 729.4,163.0 736.7,164.9 743.9,174.3 751.1,186.2 758.3,197.1 765.6,210.1 772.8,221.8 780.0,232.6" fill="none" stroke="#ef4444" stroke-width="2" stroke-dasharray="6,3"/>
<circle cx="65.0" cy="112.5" r="2.5" fill="#555" opacity="0.6"/>
<circle cx="72.2" cy="100.7" r="2.5" fill="#555" opacity="0.6"/>
<circle cx="79.4" cy="158.8" r="2.5" fill="#555" opacity="0.6"/>
<circle cx="86.7" cy="86.0" r="2.5" fill="#555" opacity="0.6"/>
<circle cx="93.9" cy="100.7" r="2.5" fill="#555" opacity="0.6"/>
<circle cx="101.1" cy="100.7" r="2.5" fill="#555" opacity="0.6"/>
<circle cx="108.3" cy="203.0" r="2.5" fill="#555" opacity="0.6"/>
<circle cx="115.6" cy="80.1" r="2.5" fill="#555" opacity="0.6"/>
<circle cx="122.8" cy="38.8" r="2.5" fill="#555" opacity="0.6"/>
<circle cx="130.0" cy="106.6" r="2.5" fill="#555" opacity="0.6"/>
<circle cx="137.2" cy="149.4" r="2.5" fill="#555" opacity="0.6"/>
<circle cx="144.4" cy="167.1" r="2.5" fill="#555" opacity="0.6"/>
<circle cx="151.7" cy="115.5" r="2.5" fill="#555" opacity="0.6"/>
<circle cx="158.9" cy="149.7" r="2.5" fill="#555" opacity="0.6"/>
<circle cx="166.1" cy="142.0" r="2.5" fill="#555" opacity="0.6"/>
<circle cx="173.3" cy="159.7" r="2.5" fill="#555" opacity="0.6"/>
<circle cx="180.6" cy="94.8" r="2.5" fill="#555" opacity="0.6"/>
<circle cx="187.8" cy="207.1" r="2.5" fill="#555" opacity="0.6"/>
<circle cx="195.0" cy="160.3" r="2.5" fill="#555" opacity="0.6"/>
<circle cx="202.2" cy="106.6" r="2.5" fill="#555" opacity="0.6"/>
<circle cx="209.4" cy="118.4" r="2.5" fill="#555" opacity="0.6"/>
<circle cx="216.7" cy="86.0" r="2.5" fill="#555" opacity="0.6"/>
<circle cx="223.9" cy="103.7" r="2.5" fill="#555" opacity="0.6"/>
<circle cx="231.1" cy="74.2" r="2.5" fill="#555" opacity="0.6"/>
<circle cx="238.3" cy="71.3" r="2.5" fill="#555" opacity="0.6"/>
<circle cx="245.6" cy="83.1" r="2.5" fill="#555" opacity="0.6"/>
<circle cx="252.8" cy="139.1" r="2.5" fill="#555" opacity="0.6"/>
<circle cx="260.0" cy="118.4" r="2.5" fill="#555" opacity="0.6"/>
<circle cx="267.2" cy="214.5" r="2.5" fill="#555" opacity="0.6"/>
<circle cx="274.4" cy="195.1" r="2.5" fill="#555" opacity="0.6"/>
<circle cx="281.7" cy="185.0" r="2.5" fill="#555" opacity="0.6"/>
<circle cx="288.9" cy="238.1" r="2.5" fill="#555" opacity="0.6"/>
<circle cx="296.1" cy="165.6" r="2.5" fill="#555" opacity="0.6"/>
<circle cx="303.3" cy="197.1" r="2.5" fill="#555" opacity="0.6"/>
<circle cx="310.6" cy="236.0" r="2.5" fill="#555" opacity="0.6"/>
<circle cx="317.8" cy="172.7" r="2.5" fill="#555" opacity="0.6"/>
<circle cx="325.0" cy="238.7" r="2.5" fill="#555" opacity="0.6"/>
<circle cx="332.2" cy="142.0" r="2.5" fill="#555" opacity="0.6"/>
<circle cx="339.4" cy="133.2" r="2.5" fill="#555" opacity="0.6"/>
<circle cx="346.7" cy="157.0" r="2.5" fill="#555" opacity="0.6"/>
<circle cx="353.9" cy="197.7" r="2.5" fill="#555" opacity="0.6"/>
<circle cx="361.1" cy="228.7" r="2.5" fill="#555" opacity="0.6"/>
<circle cx="368.3" cy="308.2" r="2.5" fill="#555" opacity="0.6"/>
<circle cx="375.6" cy="199.8" r="2.5" fill="#555" opacity="0.6"/>
<circle cx="382.8" cy="235.7" r="2.5" fill="#555" opacity="0.6"/>
<circle cx="390.0" cy="112.5" r="2.5" fill="#555" opacity="0.6"/>
<circle cx="397.2" cy="118.4" r="2.5" fill="#555" opacity="0.6"/>
<circle cx="404.4" cy="197.4" r="2.5" fill="#555" opacity="0.6"/>
<circle cx="411.7" cy="217.5" r="2.5" fill="#555" opacity="0.6"/>
<circle cx="418.9" cy="200.7" r="2.5" fill="#555" opacity="0.6"/>
<circle cx="426.1" cy="216.3" r="2.5" fill="#555" opacity="0.6"/>
<circle cx="433.3" cy="193.6" r="2.5" fill="#555" opacity="0.6"/>
<circle cx="440.6" cy="188.0" r="2.5" fill="#555" opacity="0.6"/>
<circle cx="447.8" cy="188.6" r="2.5" fill="#555" opacity="0.6"/>
<circle cx="455.0" cy="236.9" r="2.5" fill="#555" opacity="0.6"/>
<circle cx="462.2" cy="193.6" r="2.5" fill="#555" opacity="0.6"/>
<circle cx="469.4" cy="223.3" r="2.5" fill="#555" opacity="0.6"/>
<circle cx="476.7" cy="208.0" r="2.5" fill="#555" opacity="0.6"/>
<circle cx="483.9" cy="136.1" r="2.5" fill="#555" opacity="0.6"/>
<circle cx="491.1" cy="218.9" r="2.5" fill="#555" opacity="0.6"/>
<circle cx="498.3" cy="212.4" r="2.5" fill="#555" opacity="0.6"/>
<circle cx="505.6" cy="187.7" r="2.5" fill="#555" opacity="0.6"/>
<circle cx="512.8" cy="193.6" r="2.5" fill="#555" opacity="0.6"/>
<circle cx="520.0" cy="164.4" r="2.5" fill="#555" opacity="0.6"/>
<circle cx="527.2" cy="152.6" r="2.5" fill="#555" opacity="0.6"/>
<circle cx="534.4" cy="178.3" r="2.5" fill="#555" opacity="0.6"/>
<circle cx="541.7" cy="200.4" r="2.5" fill="#555" opacity="0.6"/>
<circle cx="548.9" cy="144.9" r="2.5" fill="#555" opacity="0.6"/>
<circle cx="556.1" cy="215.4" r="2.5" fill="#555" opacity="0.6"/>
<circle cx="563.3" cy="243.4" r="2.5" fill="#555" opacity="0.6"/>
<circle cx="570.6" cy="251.3" r="2.5" fill="#555" opacity="0.6"/>
<circle cx="577.8" cy="193.3" r="2.5" fill="#555" opacity="0.6"/>
<circle cx="585.0" cy="203.3" r="2.5" fill="#555" opacity="0.6"/>
<circle cx="592.2" cy="223.9" r="2.5" fill="#555" opacity="0.6"/>
<circle cx="599.4" cy="206.5" r="2.5" fill="#555" opacity="0.6"/>
<circle cx="606.7" cy="136.1" r="2.5" fill="#555" opacity="0.6"/>
<circle cx="613.9" cy="189.2" r="2.5" fill="#555" opacity="0.6"/>
<circle cx="621.1" cy="185.0" r="2.5" fill="#555" opacity="0.6"/>
<circle cx="628.3" cy="192.7" r="2.5" fill="#555" opacity="0.6"/>
<circle cx="635.6" cy="180.3" r="2.5" fill="#555" opacity="0.6"/>
<circle cx="642.8" cy="223.3" r="2.5" fill="#555" opacity="0.6"/>
<circle cx="650.0" cy="221.9" r="2.5" fill="#555" opacity="0.6"/>
<circle cx="657.2" cy="195.6" r="2.5" fill="#555" opacity="0.6"/>
<circle cx="664.4" cy="133.2" r="2.5" fill="#555" opacity="0.6"/>
<circle cx="671.7" cy="172.1" r="2.5" fill="#555" opacity="0.6"/>
<circle cx="678.9" cy="152.0" r="2.5" fill="#555" opacity="0.6"/>
<circle cx="686.1" cy="207.7" r="2.5" fill="#555" opacity="0.6"/>
<circle cx="693.3" cy="170.6" r="2.5" fill="#555" opacity="0.6"/>
<circle cx="700.6" cy="155.3" r="2.5" fill="#555" opacity="0.6"/>
<circle cx="707.8" cy="202.4" r="2.5" fill="#555" opacity="0.6"/>
<circle cx="715.0" cy="142.0" r="2.5" fill="#555" opacity="0.6"/>
<circle cx="722.2" cy="175.6" r="2.5" fill="#555" opacity="0.6"/>
<circle cx="729.4" cy="177.1" r="2.5" fill="#555" opacity="0.6"/>
<circle cx="736.7" cy="97.8" r="2.5" fill="#555" opacity="0.6"/>
<circle cx="743.9" cy="173.8" r="2.5" fill="#555" opacity="0.6"/>
<circle cx="751.1" cy="222.8" r="2.5" fill="#555" opacity="0.6"/>
<circle cx="758.3" cy="171.8" r="2.5" fill="#555" opacity="0.6"/>
<circle cx="765.6" cy="231.0" r="2.5" fill="#555" opacity="0.6"/>
<circle cx="772.8" cy="232.2" r="2.5" fill="#555" opacity="0.6"/>
<circle cx="780.0" cy="224.5" r="2.5" fill="#555" opacity="0.6"/>
<line x1="65" y1="30" x2="65" y2="310" stroke="#333" stroke-width="1.5"/>
<line x1="65" y1="310" x2="780" y2="310" stroke="#333" stroke-width="1.5"/>
<line x1="60" y1="310.0" x2="65" y2="310.0" stroke="#333" stroke-width="1.5"/>
<text x="57" y="310.0" text-anchor="end" dominant-baseline="middle" fill="#333">450</text>
<line x1="60" y1="251.1" x2="65" y2="251.1" stroke="#333" stroke-width="1.5"/>
<text x="57" y="251.1" text-anchor="end" dominant-baseline="middle" fill="#333">650</text>
<line x1="60" y1="192.1" x2="65" y2="192.1" stroke="#333" stroke-width="1.5"/>
<text x="57" y="192.1" text-anchor="end" dominant-baseline="middle" fill="#333">850</text>
<line x1="60" y1="133.2" x2="65" y2="133.2" stroke="#333" stroke-width="1.5"/>
<text x="57" y="133.2" text-anchor="end" dominant-baseline="middle" fill="#333">1050</text>
<line x1="60" y1="74.2" x2="65" y2="74.2" stroke="#333" stroke-width="1.5"/>
<text x="57" y="74.2" text-anchor="end" dominant-baseline="middle" fill="#333">1250</text>
<line x1="130.0" y1="310" x2="130.0" y2="315" stroke="#333" stroke-width="1.5"/>
<text x="130.0" y="328" text-anchor="middle" fill="#333">1880</text>
<line x1="274.4" y1="310" x2="274.4" y2="315" stroke="#333" stroke-width="1.5"/>
<text x="274.4" y="328" text-anchor="middle" fill="#333">1900</text>
<line x1="418.9" y1="310" x2="418.9" y2="315" stroke="#333" stroke-width="1.5"/>
<text x="418.9" y="328" text-anchor="middle" fill="#333">1920</text>
<line x1="563.3" y1="310" x2="563.3" y2="315" stroke="#333" stroke-width="1.5"/>
<text x="563.3" y="328" text-anchor="middle" fill="#333">1940</text>
<line x1="707.8" y1="310" x2="707.8" y2="315" stroke="#333" stroke-width="1.5"/>
<text x="707.8" y="328" text-anchor="middle" fill="#333">1960</text>
<text x="422.5" y="355" text-anchor="middle" fill="#333" font-size="13">Year</text>
<text x="14" y="170" text-anchor="middle" fill="#333" font-size="13" transform="rotate(-90,14,170)">Annual flow</text>
<text x="422.5" y="16" text-anchor="middle" fill="#333" font-size="14" font-weight="600">Nile demo — fit (order=1, trend), cold 103 ms, warm 40 ms, scan/WASM/f64</text>
<rect x="525" y="38" width="250" height="62" rx="4" fill="white" stroke="#e5e7eb" stroke-width="1"/>
<circle cx="539" cy="52" r="3" fill="#555" opacity="0.6"/>
<text x="549" y="52" dominant-baseline="middle" fill="#333" font-size="11">Observations</text>
<line x1="533" y1="68" x2="545" y2="68" stroke="#2563eb" stroke-width="2"/>
<rect x="533" y="63" width="12" height="10" fill="rgba(37,99,235,0.12)" stroke="none"/>
<text x="549" y="68" dominant-baseline="middle" fill="#333" font-size="11">dlm-js smoothed level ± 2σ</text>
<line x1="533" y1="84" x2="545" y2="84" stroke="#ef4444" stroke-width="2" stroke-dasharray="6,3"/>
<rect x="533" y="79" width="12" height="10" fill="rgba(239,68,68,0.12)" stroke="none"/>
<text x="549" y="84" dominant-baseline="middle" fill="#333" font-size="11">MATLAB/Octave dlm smoothed level ± 2σ</text>
</svg>