<svg xmlns="http://www.w3.org/2000/svg" viewBox="0 0 800 360" font-family="system-ui,-apple-system,sans-serif" font-size="12">
<rect width="800" height="360" fill="white"/>
<line x1="65" y1="310.0" x2="780" y2="310.0" stroke="#e5e7eb" stroke-width="1"/>
<line x1="65" y1="268.5" x2="780" y2="268.5" stroke="#e5e7eb" stroke-width="1"/>
<line x1="65" y1="227.0" x2="780" y2="227.0" stroke="#e5e7eb" stroke-width="1"/>
<line x1="65" y1="185.6" x2="780" y2="185.6" stroke="#e5e7eb" stroke-width="1"/>
<line x1="65" y1="144.1" x2="780" y2="144.1" stroke="#e5e7eb" stroke-width="1"/>
<line x1="65" y1="102.6" x2="780" y2="102.6" stroke="#e5e7eb" stroke-width="1"/>
<line x1="65" y1="61.1" x2="780" y2="61.1" stroke="#e5e7eb" stroke-width="1"/>
<path d="M65.0,68.4L72.2,72.2L79.4,59.7L86.7,113.0L93.9,70.0L101.1,63.8L108.3,61.8L115.6,112.2L122.8,80.2L130.0,41.0L137.2,50.8L144.4,78.6L151.7,103.8L158.9,93.3L166.1,101.5L173.3,101.6L180.6,108.9L187.8,81.8L195.0,117.8L202.2,117.1L209.4,90.2L216.7,79.2L223.9,58.4L231.1,56.0L238.3,42.8L245.6,35.6L252.8,39.0L260.0,69.1L267.2,77.9L274.4,127.2L281.7,145.2L288.9,147.3L296.1,169.6L303.3,145.5L310.6,143.0L317.8,158.5L325.0,136.8L332.2,153.7L339.4,118.2L346.7,92.9L353.9,90.9L361.1,111.2L368.3,139.2L375.6,192.8L382.8,171.3L390.0,171.9L397.2,112.7L404.4,80.3L411.7,101.0L418.9,125.6L426.1,133.3L433.3,144.8L440.6,140.1L447.8,133.8L455.0,129.8L462.2,150.1L469.4,141.6L476.7,149.6L483.9,146.7L491.1,110.8L498.3,128.6L505.6,137.5L512.8,131.4L520.0,130.3L527.2,116.3L534.4,102.9L541.7,108.2L548.9,123.0L556.1,106.3L563.3,129.6L570.6,156.7L577.8,175.2L585.0,156.5L592.2,148.0L599.4,151.8L606.7,145.6L613.9,108.7L621.1,112.5L628.3,114.9L635.6,121.1L642.8,119.9L650.0,139.6L657.2,150.6L664.4,143.7L671.7,109.3L678.9,107.3L686.1,98.2L693.3,120.4L700.6,117.1L707.8,107.9L715.0,124.8L722.2,106.8L729.4,111.7L736.7,115.7L743.9,81.2L751.1,97.0L758.3,130.7L765.6,126.3L772.8,148.6L780.0,157.3L780.0,282.5L772.8,264.5L765.6,238.9L758.3,242.6L751.1,208.8L743.9,193.0L736.7,227.5L729.4,223.3L722.2,218.4L715.0,236.4L707.8,219.5L700.6,228.6L693.3,231.9L686.1,209.8L678.9,218.8L671.7,220.8L664.4,255.2L657.2,262.1L650.0,251.2L642.8,231.4L635.6,232.7L628.3,226.4L621.1,224.1L613.9,220.3L606.7,257.2L599.4,263.4L592.2,259.5L585.0,268.1L577.8,286.7L570.6,268.2L563.3,241.1L556.1,217.8L548.9,234.5L541.7,219.7L534.4,214.4L527.2,227.8L520.0,241.9L512.8,242.9L505.6,249.1L498.3,240.2L491.1,222.3L483.9,258.3L476.7,261.2L469.4,253.1L462.2,261.7L455.0,241.4L447.8,245.3L440.6,251.7L433.3,256.3L426.1,244.8L418.9,237.1L411.7,212.5L404.4,191.8L397.2,224.3L390.0,283.4L382.8,282.8L375.6,304.3L368.3,250.7L361.1,222.7L353.9,202.5L346.7,204.5L339.4,229.8L332.2,265.3L325.0,248.3L317.8,270.0L310.6,254.5L303.3,257.0L296.1,281.1L288.9,258.8L281.7,256.7L274.4,238.7L267.2,189.4L260.0,180.6L252.8,150.5L245.6,147.1L238.3,154.3L231.1,167.5L223.9,170.0L216.7,190.7L209.4,201.7L202.2,228.7L195.0,229.4L187.8,193.3L180.6,220.4L173.3,213.2L166.1,213.0L158.9,204.9L151.7,215.3L144.4,190.1L137.2,162.4L130.0,152.6L122.8,191.8L115.6,223.8L108.3,173.5L101.1,175.6L93.9,181.7L86.7,224.8L79.4,172.2L72.2,187.9L65.0,193.4Z" fill="rgba(37,99,235,0.12)" stroke="none"/>
<path d="M65.0,68.4L72.2,72.2L79.4,59.7L86.7,113.0L93.9,70.0L101.1,63.8L108.3,61.8L115.6,112.2L122.8,80.2L130.0,41.0L137.2,50.8L144.4,78.6L151.7,103.8L158.9,93.3L166.1,101.5L173.3,101.6L180.6,108.9L187.8,81.8L195.0,117.8L202.2,117.1L209.4,90.2L216.7,79.2L223.9,58.4L231.1,56.0L238.3,42.8L245.6,35.6L252.8,39.0L260.0,69.1L267.2,77.9L274.4,127.2L281.7,145.2L288.9,147.3L296.1,169.6L303.3,145.5L310.6,143.0L317.8,158.5L325.0,136.8L332.2,153.7L339.4,118.2L346.7,92.9L353.9,90.9L361.1,111.2L368.3,139.2L375.6,192.8L382.8,171.3L390.0,171.9L397.2,112.7L404.4,80.3L411.7,101.0L418.9,125.6L426.1,133.3L433.3,144.8L440.6,140.1L447.8,133.8L455.0,129.8L462.2,150.1L469.4,141.6L476.7,149.6L483.9,146.7L491.1,110.8L498.3,128.6L505.6,137.5L512.8,131.4L520.0,130.3L527.2,116.3L534.4,102.9L541.7,108.2L548.9,123.0L556.1,106.3L563.3,129.6L570.6,156.7L577.8,175.2L585.0,156.5L592.2,148.0L599.4,151.8L606.7,145.6L613.9,108.7L621.1,112.5L628.3,114.9L635.6,121.1L642.8,119.9L650.0,139.6L657.2,150.6L664.4,143.7L671.7,109.3L678.9,107.3L686.1,98.2L693.3,120.4L700.6,117.1L707.8,107.9L715.0,124.8L722.2,106.8L729.4,111.7L736.7,115.7L743.9,81.2L751.1,97.0L758.3,130.7L765.6,126.3L772.8,148.6L780.0,157.3L780.0,282.5L772.8,264.5L765.6,238.9L758.3,242.6L751.1,208.8L743.9,193.0L736.7,227.5L729.4,223.3L722.2,218.4L715.0,236.4L707.8,219.5L700.6,228.6L693.3,231.9L686.1,209.8L678.9,218.8L671.7,220.8L664.4,255.2L657.2,262.1L650.0,251.2L642.8,231.4L635.6,232.7L628.3,226.4L621.1,224.1L613.9,220.3L606.7,257.2L599.4,263.4L592.2,259.5L585.0,268.1L577.8,286.7L570.6,268.2L563.3,241.1L556.1,217.8L548.9,234.5L541.7,219.7L534.4,214.4L527.2,227.8L520.0,241.9L512.8,242.9L505.6,249.1L498.3,240.2L491.1,222.3L483.9,258.3L476.7,261.2L469.4,253.1L462.2,261.7L455.0,241.4L447.8,245.3L440.6,251.7L433.3,256.3L426.1,244.8L418.9,237.1L411.7,212.5L404.4,191.8L397.2,224.3L390.0,283.4L382.8,282.8L375.6,304.3L368.3,250.7L361.1,222.7L353.9,202.5L346.7,204.5L339.4,229.8L332.2,265.3L325.0,248.3L317.8,270.0L310.6,254.5L303.3,257.0L296.1,281.1L288.9,258.8L281.7,256.7L274.4,238.7L267.2,189.4L260.0,180.6L252.8,150.5L245.6,147.1L238.3,154.3L231.1,167.5L223.9,170.0L216.7,190.7L209.4,201.7L202.2,228.7L195.0,229.4L187.8,193.3L180.6,220.4L173.3,213.2L166.1,213.0L158.9,204.9L151.7,215.3L144.4,190.1L137.2,162.4L130.0,152.6L122.8,191.8L115.6,223.8L108.3,173.5L101.1,175.6L93.9,181.7L86.7,224.8L79.4,172.2L72.2,187.9L65.0,193.4Z" fill="rgba(239,68,68,0.12)" stroke="none"/>
<polyline points="65.0,130.9 72.2,130.0 79.4,116.0 86.7,168.9 93.9,125.9 101.1,119.7 108.3,117.6 115.6,168.0 122.8,136.0 130.0,96.8 137.2,106.6 144.4,134.3 151.7,159.6 158.9,149.1 166.1,157.2 173.3,157.4 180.6,164.7 187.8,137.6 195.0,173.6 202.2,172.9 209.4,145.9 216.7,135.0 223.9,114.2 231.1,111.8 238.3,98.6 245.6,91.3 252.8,94.7 260.0,124.8 267.2,133.6 274.4,182.9 281.7,201.0 288.9,203.0 296.1,225.4 303.3,201.2 310.6,198.8 317.8,214.2 325.0,192.5 332.2,209.5 339.4,174.0 346.7,148.7 353.9,146.7 361.1,167.0 368.3,195.0 375.6,248.5 382.8,227.0 390.0,227.6 397.2,168.5 404.4,136.1 411.7,156.7 418.9,181.4 426.1,189.1 433.3,200.6 440.6,195.9 447.8,189.5 455.0,185.6 462.2,205.9 469.4,197.3 476.7,205.4 483.9,202.5 491.1,166.5 498.3,184.4 505.6,193.3 512.8,187.1 520.0,186.1 527.2,172.0 534.4,158.6 541.7,163.9 548.9,178.7 556.1,162.1 563.3,185.3 570.6,212.5 577.8,231.0 585.0,212.3 592.2,203.8 599.4,207.6 606.7,201.4 613.9,164.5 621.1,168.3 628.3,170.6 635.6,176.9 642.8,175.6 650.0,195.4 657.2,206.3 664.4,199.5 671.7,165.0 678.9,163.0 686.1,154.0 693.3,176.2 700.6,172.9 707.8,163.7 715.0,180.6 722.2,162.6 729.4,167.5 736.7,171.6 743.9,137.1 751.1,152.9 758.3,186.6 765.6,182.6 772.8,206.6 780.0,219.9" fill="none" stroke="#2563eb" stroke-width="2"/>
<polyline points="65.0,130.9 72.2,130.0 79.4,116.0 86.7,168.9 93.9,125.9 101.1,119.7 108.3,117.6 115.6,168.0 122.8,136.0 130.0,96.8 137.2,106.6 144.4,134.3 151.7,159.6 158.9,149.1 166.1,157.2 173.3,157.4 180.6,164.7 187.8,137.6 195.0,173.6 202.2,172.9 209.4,145.9 216.7,135.0 223.9,114.2 231.1,111.8 238.3,98.6 245.6,91.3 252.8,94.7 260.0,124.8 267.2,133.6 274.4,182.9 281.7,201.0 288.9,203.0 296.1,225.4 303.3,201.2 310.6,198.8 317.8,214.2 325.0,192.5 332.2,209.5 339.4,174.0 346.7,148.7 353.9,146.7 361.1,167.0 368.3,195.0 375.6,248.5 382.8,227.0 390.0,227.6 397.2,168.5 404.4,136.1 411.7,156.7 418.9,181.4 426.1,189.1 433.3,200.6 440.6,195.9 447.8,189.5 455.0,185.6 462.2,205.9 469.4,197.3 476.7,205.4 483.9,202.5 491.1,166.5 498.3,184.4 505.6,193.3 512.8,187.1 520.0,186.1 527.2,172.0 534.4,158.6 541.7,163.9 548.9,178.7 556.1,162.1 563.3,185.3 570.6,212.5 577.8,231.0 585.0,212.3 592.2,203.8 599.4,207.6 606.7,201.4 613.9,164.5 621.1,168.3 628.3,170.6 635.6,176.9 642.8,175.6 650.0,195.4 657.2,206.3 664.4,199.5 671.7,165.0 678.9,163.0 686.1,154.0 693.3,176.2 700.6,172.9 707.8,163.7 715.0,180.6 722.2,162.6 729.4,167.5 736.7,171.6 743.9,137.1 751.1,152.9 758.3,186.6 765.6,182.6 772.8,206.6 780.0,219.9" fill="none" stroke="#ef4444" stroke-width="2" stroke-dasharray="6,3"/>
<circle cx="65.0" cy="129.6" r="2.5" fill="#555" opacity="0.6"/>
<circle cx="72.2" cy="121.3" r="2.5" fill="#555" opacity="0.6"/>
<circle cx="79.4" cy="162.1" r="2.5" fill="#555" opacity="0.6"/>
<circle cx="86.7" cy="110.9" r="2.5" fill="#555" opacity="0.6"/>
<circle cx="93.9" cy="121.3" r="2.5" fill="#555" opacity="0.6"/>
<circle cx="101.1" cy="121.3" r="2.5" fill="#555" opacity="0.6"/>
<circle cx="108.3" cy="193.2" r="2.5" fill="#555" opacity="0.6"/>
<circle cx="115.6" cy="106.7" r="2.5" fill="#555" opacity="0.6"/>
<circle cx="122.8" cy="77.7" r="2.5" fill="#555" opacity="0.6"/>
<circle cx="130.0" cy="125.4" r="2.5" fill="#555" opacity="0.6"/>
<circle cx="137.2" cy="155.5" r="2.5" fill="#555" opacity="0.6"/>
<circle cx="144.4" cy="167.9" r="2.5" fill="#555" opacity="0.6"/>
<circle cx="151.7" cy="131.6" r="2.5" fill="#555" opacity="0.6"/>
<circle cx="158.9" cy="155.7" r="2.5" fill="#555" opacity="0.6"/>
<circle cx="166.1" cy="150.3" r="2.5" fill="#555" opacity="0.6"/>
<circle cx="173.3" cy="162.7" r="2.5" fill="#555" opacity="0.6"/>
<circle cx="180.6" cy="117.1" r="2.5" fill="#555" opacity="0.6"/>
<circle cx="187.8" cy="196.1" r="2.5" fill="#555" opacity="0.6"/>
<circle cx="195.0" cy="163.2" r="2.5" fill="#555" opacity="0.6"/>
<circle cx="202.2" cy="125.4" r="2.5" fill="#555" opacity="0.6"/>
<circle cx="209.4" cy="133.7" r="2.5" fill="#555" opacity="0.6"/>
<circle cx="216.7" cy="110.9" r="2.5" fill="#555" opacity="0.6"/>
<circle cx="223.9" cy="123.3" r="2.5" fill="#555" opacity="0.6"/>
<circle cx="231.1" cy="102.6" r="2.5" fill="#555" opacity="0.6"/>
<circle cx="238.3" cy="100.5" r="2.5" fill="#555" opacity="0.6"/>
<circle cx="245.6" cy="108.8" r="2.5" fill="#555" opacity="0.6"/>
<circle cx="252.8" cy="148.2" r="2.5" fill="#555" opacity="0.6"/>
<circle cx="260.0" cy="133.7" r="2.5" fill="#555" opacity="0.6"/>
<circle cx="267.2" cy="201.3" r="2.5" fill="#555" opacity="0.6"/>
<circle cx="274.4" cy="187.6" r="2.5" fill="#555" opacity="0.6"/>
<circle cx="281.7" cy="180.6" r="2.5" fill="#555" opacity="0.6"/>
<circle cx="288.9" cy="217.9" r="2.5" fill="#555" opacity="0.6"/>
<circle cx="296.1" cy="166.9" r="2.5" fill="#555" opacity="0.6"/>
<circle cx="303.3" cy="189.1" r="2.5" fill="#555" opacity="0.6"/>
<circle cx="310.6" cy="216.5" r="2.5" fill="#555" opacity="0.6"/>
<circle cx="317.8" cy="171.9" r="2.5" fill="#555" opacity="0.6"/>
<circle cx="325.0" cy="218.3" r="2.5" fill="#555" opacity="0.6"/>
<circle cx="332.2" cy="150.3" r="2.5" fill="#555" opacity="0.6"/>
<circle cx="339.4" cy="144.1" r="2.5" fill="#555" opacity="0.6"/>
<circle cx="346.7" cy="160.9" r="2.5" fill="#555" opacity="0.6"/>
<circle cx="353.9" cy="189.5" r="2.5" fill="#555" opacity="0.6"/>
<circle cx="361.1" cy="211.3" r="2.5" fill="#555" opacity="0.6"/>
<circle cx="368.3" cy="267.3" r="2.5" fill="#555" opacity="0.6"/>
<circle cx="375.6" cy="190.9" r="2.5" fill="#555" opacity="0.6"/>
<circle cx="382.8" cy="216.3" r="2.5" fill="#555" opacity="0.6"/>
<circle cx="390.0" cy="129.6" r="2.5" fill="#555" opacity="0.6"/>
<circle cx="397.2" cy="133.7" r="2.5" fill="#555" opacity="0.6"/>
<circle cx="404.4" cy="189.3" r="2.5" fill="#555" opacity="0.6"/>
<circle cx="411.7" cy="203.4" r="2.5" fill="#555" opacity="0.6"/>
<circle cx="418.9" cy="191.6" r="2.5" fill="#555" opacity="0.6"/>
<circle cx="426.1" cy="202.6" r="2.5" fill="#555" opacity="0.6"/>
<circle cx="433.3" cy="186.6" r="2.5" fill="#555" opacity="0.6"/>
<circle cx="440.6" cy="182.7" r="2.5" fill="#555" opacity="0.6"/>
<circle cx="447.8" cy="183.1" r="2.5" fill="#555" opacity="0.6"/>
<circle cx="455.0" cy="217.1" r="2.5" fill="#555" opacity="0.6"/>
<circle cx="462.2" cy="186.6" r="2.5" fill="#555" opacity="0.6"/>
<circle cx="469.4" cy="207.5" r="2.5" fill="#555" opacity="0.6"/>
<circle cx="476.7" cy="196.8" r="2.5" fill="#555" opacity="0.6"/>
<circle cx="483.9" cy="146.1" r="2.5" fill="#555" opacity="0.6"/>
<circle cx="491.1" cy="204.4" r="2.5" fill="#555" opacity="0.6"/>
<circle cx="498.3" cy="199.9" r="2.5" fill="#555" opacity="0.6"/>
<circle cx="505.6" cy="182.4" r="2.5" fill="#555" opacity="0.6"/>
<circle cx="512.8" cy="186.6" r="2.5" fill="#555" opacity="0.6"/>
<circle cx="520.0" cy="166.1" r="2.5" fill="#555" opacity="0.6"/>
<circle cx="527.2" cy="157.8" r="2.5" fill="#555" opacity="0.6"/>
<circle cx="534.4" cy="175.8" r="2.5" fill="#555" opacity="0.6"/>
<circle cx="541.7" cy="191.4" r="2.5" fill="#555" opacity="0.6"/>
<circle cx="548.9" cy="152.4" r="2.5" fill="#555" opacity="0.6"/>
<circle cx="556.1" cy="201.9" r="2.5" fill="#555" opacity="0.6"/>
<circle cx="563.3" cy="221.6" r="2.5" fill="#555" opacity="0.6"/>
<circle cx="570.6" cy="227.2" r="2.5" fill="#555" opacity="0.6"/>
<circle cx="577.8" cy="186.4" r="2.5" fill="#555" opacity="0.6"/>
<circle cx="585.0" cy="193.4" r="2.5" fill="#555" opacity="0.6"/>
<circle cx="592.2" cy="208.0" r="2.5" fill="#555" opacity="0.6"/>
<circle cx="599.4" cy="195.7" r="2.5" fill="#555" opacity="0.6"/>
<circle cx="606.7" cy="146.1" r="2.5" fill="#555" opacity="0.6"/>
<circle cx="613.9" cy="183.5" r="2.5" fill="#555" opacity="0.6"/>
<circle cx="621.1" cy="180.6" r="2.5" fill="#555" opacity="0.6"/>
<circle cx="628.3" cy="186.0" r="2.5" fill="#555" opacity="0.6"/>
<circle cx="635.6" cy="177.3" r="2.5" fill="#555" opacity="0.6"/>
<circle cx="642.8" cy="207.5" r="2.5" fill="#555" opacity="0.6"/>
<circle cx="650.0" cy="206.5" r="2.5" fill="#555" opacity="0.6"/>
<circle cx="657.2" cy="188.0" r="2.5" fill="#555" opacity="0.6"/>
<circle cx="664.4" cy="144.1" r="2.5" fill="#555" opacity="0.6"/>
<circle cx="671.7" cy="171.5" r="2.5" fill="#555" opacity="0.6"/>
<circle cx="678.9" cy="157.3" r="2.5" fill="#555" opacity="0.6"/>
<circle cx="686.1" cy="196.5" r="2.5" fill="#555" opacity="0.6"/>
<circle cx="693.3" cy="170.4" r="2.5" fill="#555" opacity="0.6"/>
<circle cx="700.6" cy="159.6" r="2.5" fill="#555" opacity="0.6"/>
<circle cx="707.8" cy="192.8" r="2.5" fill="#555" opacity="0.6"/>
<circle cx="715.0" cy="150.3" r="2.5" fill="#555" opacity="0.6"/>
<circle cx="722.2" cy="173.9" r="2.5" fill="#555" opacity="0.6"/>
<circle cx="729.4" cy="175.0" r="2.5" fill="#555" opacity="0.6"/>
<circle cx="736.7" cy="119.2" r="2.5" fill="#555" opacity="0.6"/>
<circle cx="743.9" cy="172.7" r="2.5" fill="#555" opacity="0.6"/>
<circle cx="751.1" cy="207.1" r="2.5" fill="#555" opacity="0.6"/>
<circle cx="758.3" cy="171.2" r="2.5" fill="#555" opacity="0.6"/>
<circle cx="765.6" cy="212.9" r="2.5" fill="#555" opacity="0.6"/>
<circle cx="772.8" cy="213.8" r="2.5" fill="#555" opacity="0.6"/>
<circle cx="780.0" cy="208.4" r="2.5" fill="#555" opacity="0.6"/>
<line x1="65" y1="30" x2="65" y2="310" stroke="#333" stroke-width="1.5"/>
<line x1="65" y1="310" x2="780" y2="310" stroke="#333" stroke-width="1.5"/>
<line x1="60" y1="310.0" x2="65" y2="310.0" stroke="#333" stroke-width="1.5"/>
<text x="57" y="310.0" text-anchor="end" dominant-baseline="middle" fill="#333">250</text>
<line x1="60" y1="268.5" x2="65" y2="268.5" stroke="#333" stroke-width="1.5"/>
<text x="57" y="268.5" text-anchor="end" dominant-baseline="middle" fill="#333">450</text>
<line x1="60" y1="227.0" x2="65" y2="227.0" stroke="#333" stroke-width="1.5"/>
<text x="57" y="227.0" text-anchor="end" dominant-baseline="middle" fill="#333">650</text>
<line x1="60" y1="185.6" x2="65" y2="185.6" stroke="#333" stroke-width="1.5"/>
<text x="57" y="185.6" text-anchor="end" dominant-baseline="middle" fill="#333">850</text>
<line x1="60" y1="144.1" x2="65" y2="144.1" stroke="#333" stroke-width="1.5"/>
<text x="57" y="144.1" text-anchor="end" dominant-baseline="middle" fill="#333">1050</text>
<line x1="60" y1="102.6" x2="65" y2="102.6" stroke="#333" stroke-width="1.5"/>
<text x="57" y="102.6" text-anchor="end" dominant-baseline="middle" fill="#333">1250</text>
<line x1="60" y1="61.1" x2="65" y2="61.1" stroke="#333" stroke-width="1.5"/>
<text x="57" y="61.1" text-anchor="end" dominant-baseline="middle" fill="#333">1450</text>
<line x1="130.0" y1="310" x2="130.0" y2="315" stroke="#333" stroke-width="1.5"/>
<text x="130.0" y="328" text-anchor="middle" fill="#333">1880</text>
<line x1="274.4" y1="310" x2="274.4" y2="315" stroke="#333" stroke-width="1.5"/>
<text x="274.4" y="328" text-anchor="middle" fill="#333">1900</text>
<line x1="418.9" y1="310" x2="418.9" y2="315" stroke="#333" stroke-width="1.5"/>
<text x="418.9" y="328" text-anchor="middle" fill="#333">1920</text>
<line x1="563.3" y1="310" x2="563.3" y2="315" stroke="#333" stroke-width="1.5"/>
<text x="563.3" y="328" text-anchor="middle" fill="#333">1940</text>
<line x1="707.8" y1="310" x2="707.8" y2="315" stroke="#333" stroke-width="1.5"/>
<text x="707.8" y="328" text-anchor="middle" fill="#333">1960</text>
<text x="422.5" y="355" text-anchor="middle" fill="#333" font-size="13">Year</text>
<text x="14" y="170" text-anchor="middle" fill="#333" font-size="13" transform="rotate(-90,14,170)">Annual flow</text>
<text x="422.5" y="16" text-anchor="middle" fill="#333" font-size="14" font-weight="600">Nile river annual flow — Kalman smoother ± 2σ</text>
<rect x="525" y="38" width="250" height="62" rx="4" fill="white" stroke="#e5e7eb" stroke-width="1"/>
<circle cx="539" cy="52" r="3" fill="#555" opacity="0.6"/>
<text x="549" y="52" dominant-baseline="middle" fill="#333" font-size="11">Observations</text>
<line x1="533" y1="68" x2="545" y2="68" stroke="#2563eb" stroke-width="2"/>
<rect x="533" y="63" width="12" height="10" fill="rgba(37,99,235,0.12)" stroke="none"/>
<text x="549" y="68" dominant-baseline="middle" fill="#333" font-size="11">dlm-js smoothed level ± 2σ</text>
<line x1="533" y1="84" x2="545" y2="84" stroke="#ef4444" stroke-width="2" stroke-dasharray="6,3"/>
<rect x="533" y="79" width="12" height="10" fill="rgba(239,68,68,0.12)" stroke="none"/>
<text x="549" y="84" dominant-baseline="middle" fill="#333" font-size="11">MATLAB/Octave dlm smoothed level ± 2σ</text>
</svg>