<svg width="860" height="578" xmlns="http://www.w3.org/2000/svg" font-family="sans-serif" font-size="12">
<rect width="860" height="578" fill="white"/>
<line x1="68" y1="214.0" x2="838" y2="214.0" stroke="#e5e7eb" stroke-width="1"/>
<line x1="68" y1="137.3" x2="838" y2="137.3" stroke="#e5e7eb" stroke-width="1"/>
<line x1="68" y1="60.7" x2="838" y2="60.7" stroke="#e5e7eb" stroke-width="1"/>
<path d="M68.0,90.1L70.4,90.6L72.7,91.1L75.1,91.7L77.4,92.2L79.7,92.6L82.1,93.1L84.5,93.6L86.8,94.1L89.2,94.6L91.6,95.0L94.0,95.5L96.3,95.9L98.7,96.3L101.1,96.8L103.5,97.2L105.8,97.6L108.0,98.0L110.4,98.4L112.8,98.8L115.1,99.2L117.5,99.6L119.9,100.0L122.3,100.3L124.7,100.7L127.0,101.0L129.4,101.4L131.8,101.7L134.1,102.0L136.4,102.3L138.7,102.6L141.1,102.9L143.5,103.2L145.8,103.5L148.2,103.8L150.6,104.1L153.0,104.4L155.3,104.7L157.7,104.9L160.1,105.2L162.4,105.4L164.8,105.7L167.1,106.0L169.5,106.2L171.9,106.5L174.2,106.7L176.6,106.9L179.0,107.2L181.4,107.4L183.7,107.7L186.1,107.9L188.5,108.1L190.8,108.4L193.1,108.6L195.5,108.8L197.8,109.1L200.2,109.3L202.6,109.5L205.0,109.8L207.3,110.0L209.7,110.2L212.1,110.4L214.4,110.7L216.8,110.9L219.1,111.1L221.4,111.4L223.8,111.6L226.2,111.8L228.5,112.0L230.9,112.3L233.3,112.5L235.7,112.8L238.0,113.0L240.4,113.2L242.8,113.5L245.2,113.7L247.5,114.0L249.8,114.2L252.1,114.5L254.5,114.8L256.9,115.0L259.2,115.3L261.6,115.6L264.0,115.9L266.4,116.2L268.7,116.4L271.1,116.7L273.5,117.0L275.8,117.3L278.2,117.6L280.5,117.9L282.9,118.2L285.3,118.6L287.6,118.9L290.0,119.2L292.4,119.5L294.8,119.8L297.1,120.1L299.5,120.5L301.9,120.8L304.2,121.1L306.5,121.4L308.8,121.8L311.2,122.1L313.6,122.4L316.0,122.7L318.4,123.0L320.7,123.4L323.1,123.7L325.5,124.0L327.8,124.3L330.2,124.6L332.5,124.9L334.8,125.2L337.2,125.5L339.5,125.8L341.9,126.1L344.3,126.4L346.7,126.7L349.0,127.0L351.4,127.3L353.8,127.5L356.1,127.8L358.6,128.1L360.8,128.3L363.1,128.6L365.5,128.8L367.9,129.1L370.2,129.3L372.6,129.5L375.0,129.7L377.4,129.9L379.7,130.2L382.1,130.4L384.5,130.5L386.9,130.7L389.2,130.9L391.5,131.1L393.9,131.3L396.3,131.4L398.6,131.6L401.0,131.7L403.4,131.9L405.8,132.0L408.1,132.2L410.5,132.3L412.9,132.4L415.3,132.5L417.6,132.6L419.9,132.8L422.2,132.9L424.6,133.0L427.0,133.0L429.3,133.1L431.7,133.2L434.1,133.3L436.5,133.4L438.8,133.4L441.2,133.5L443.6,133.5L445.9,133.6L448.2,133.6L450.6,133.7L452.9,133.7L455.3,133.8L457.7,133.8L460.1,133.8L462.4,133.8L464.8,133.8L467.2,133.8L469.5,133.8L471.9,133.8L474.2,133.8L476.5,133.7L478.9,133.7L481.2,133.7L483.6,133.6L486.0,133.6L488.4,133.5L490.8,133.5L493.1,133.4L495.5,133.3L497.9,133.2L500.3,133.1L502.6,133.0L504.9,132.9L507.3,132.8L509.7,132.7L512.0,132.6L514.4,132.5L516.8,132.4L519.2,132.3L521.5,132.1L523.9,132.0L526.3,131.9L528.7,131.8L531.0,131.6L533.2,131.5L535.6,131.4L538.0,131.2L540.3,131.1L542.7,130.9L545.1,130.8L547.5,130.7L549.9,130.5L552.2,130.4L554.6,130.2L557.0,130.1L559.3,130.0L561.6,129.8L563.9,129.7L566.3,129.5L568.7,129.4L571.0,129.3L573.4,129.1L575.8,129.0L578.2,128.9L580.5,128.8L582.9,128.6L585.3,128.5L587.6,128.4L589.9,128.3L592.3,128.1L594.6,128.0L597.0,127.9L599.4,127.8L601.8,127.7L604.1,127.6L606.5,127.5L608.9,127.4L611.2,127.3L613.6,127.2L616.0,127.1L618.3,127.0L620.7,126.9L623.0,126.8L625.4,126.7L627.8,126.6L630.2,126.5L632.5,126.5L634.9,126.4L637.3,126.3L639.6,126.2L642.0,126.2L644.3,126.1L646.6,126.0L649.0,125.9L651.4,125.9L653.7,125.8L656.1,125.8L658.5,125.7L660.9,125.6L663.2,125.6L665.6,125.5L668.0,125.5L670.4,125.5L672.7,125.4L675.0,125.4L677.3,125.3L679.7,125.3L682.1,125.3L684.4,125.3L686.8,125.2L689.2,125.2L691.6,125.2L693.9,125.2L696.3,125.2L698.7,125.2L701.0,125.1L703.3,125.1L705.6,125.1L708.0,125.1L710.4,125.1L712.7,125.1L715.2,125.1L717.5,125.1L719.9,125.1L722.3,125.1L724.6,125.2L727.0,125.2L729.4,125.2L731.7,125.2L734.0,125.2L736.4,125.2L738.8,125.2L741.1,125.2L743.6,125.1L745.9,125.1L748.3,125.1L750.7,125.1L753.0,125.1L755.4,125.0L757.7,125.0L760.0,125.0L762.4,124.9L764.7,124.9L767.1,124.8L769.5,124.7L771.9,124.6L774.2,124.6L776.6,124.5L779.0,124.4L781.3,124.3L783.8,124.2L786.0,124.1L788.3,123.9L790.7,123.8L793.1,123.7L795.4,123.5L797.8,123.4L800.2,123.2L802.6,123.0L804.9,122.8L807.3,122.7L809.7,122.5L812.1,122.3L814.4,122.1L816.7,121.9L819.0,121.7L821.4,121.4L823.8,121.2L826.1,121.0L828.5,120.8L830.9,120.5L833.3,120.3L835.6,120.0L838.0,119.8L838.0,145.8L835.6,145.5L833.3,145.2L830.9,144.9L828.5,144.6L826.1,144.3L823.8,144.0L821.4,143.7L819.0,143.5L816.7,143.2L814.4,142.9L812.1,142.7L809.7,142.4L807.3,142.2L804.9,142.0L802.6,141.7L800.2,141.5L797.8,141.3L795.4,141.1L793.1,140.9L790.7,140.7L788.3,140.5L786.0,140.3L783.8,140.1L781.3,140.0L779.0,139.8L776.6,139.6L774.2,139.5L771.9,139.3L769.5,139.2L767.1,139.0L764.7,138.9L762.4,138.7L760.0,138.6L757.7,138.5L755.4,138.4L753.0,138.2L750.7,138.1L748.3,138.0L745.9,137.9L743.6,137.8L741.1,137.7L738.8,137.6L736.4,137.5L734.0,137.4L731.7,137.3L729.4,137.2L727.0,137.2L724.6,137.1L722.3,137.0L719.9,136.9L717.5,136.9L715.2,136.8L712.7,136.8L710.4,136.7L708.0,136.6L705.6,136.6L703.3,136.5L701.0,136.5L698.7,136.5L696.3,136.4L693.9,136.4L691.6,136.3L689.2,136.3L686.8,136.3L684.4,136.3L682.1,136.2L679.7,136.2L677.3,136.2L675.0,136.2L672.7,136.2L670.4,136.2L668.0,136.2L665.6,136.2L663.2,136.2L660.9,136.2L658.5,136.2L656.1,136.2L653.7,136.2L651.4,136.2L649.0,136.3L646.6,136.3L644.3,136.3L642.0,136.3L639.6,136.4L637.3,136.4L634.9,136.5L632.5,136.5L630.2,136.6L627.8,136.6L625.4,136.7L623.0,136.7L620.7,136.8L618.3,136.9L616.0,137.0L613.6,137.0L611.2,137.1L608.9,137.2L606.5,137.3L604.1,137.4L601.8,137.5L599.4,137.6L597.0,137.7L594.6,137.8L592.3,138.0L589.9,138.1L587.6,138.2L585.3,138.3L582.9,138.5L580.5,138.6L578.2,138.7L575.8,138.9L573.4,139.0L571.0,139.2L568.7,139.3L566.3,139.5L563.9,139.6L561.6,139.8L559.3,139.9L557.0,140.1L554.6,140.2L552.2,140.4L549.9,140.5L547.5,140.7L545.1,140.8L542.7,141.0L540.3,141.1L538.0,141.3L535.6,141.4L533.2,141.6L531.0,141.7L528.7,141.8L526.3,142.0L523.9,142.1L521.5,142.2L519.2,142.3L516.8,142.4L514.4,142.5L512.0,142.6L509.7,142.7L507.3,142.8L504.9,142.9L502.6,143.0L500.3,143.1L497.9,143.1L495.5,143.2L493.1,143.3L490.8,143.3L488.4,143.4L486.0,143.4L483.6,143.4L481.2,143.5L478.9,143.5L476.5,143.5L474.2,143.5L471.9,143.5L469.5,143.5L467.2,143.5L464.8,143.5L462.4,143.4L460.1,143.4L457.7,143.4L455.3,143.3L452.9,143.3L450.6,143.2L448.2,143.2L445.9,143.1L443.6,143.1L441.2,143.0L438.8,142.9L436.5,142.9L434.1,142.8L431.7,142.7L429.3,142.6L427.0,142.5L424.6,142.4L422.2,142.3L419.9,142.2L417.6,142.1L415.3,142.0L412.9,141.9L410.5,141.8L408.1,141.6L405.8,141.5L403.4,141.4L401.0,141.2L398.6,141.1L396.3,140.9L393.9,140.7L391.5,140.6L389.2,140.4L386.9,140.2L384.5,140.0L382.1,139.8L379.7,139.6L377.4,139.4L375.0,139.2L372.6,139.0L370.2,138.8L367.9,138.5L365.5,138.3L363.1,138.1L360.8,137.8L358.6,137.6L356.1,137.3L353.8,137.1L351.4,136.8L349.0,136.5L346.7,136.2L344.3,136.0L341.9,135.7L339.5,135.4L337.2,135.1L334.8,134.8L332.5,134.5L330.2,134.2L327.8,133.9L325.5,133.6L323.1,133.3L320.7,133.0L318.4,132.7L316.0,132.4L313.6,132.1L311.2,131.8L308.8,131.5L306.5,131.2L304.2,130.9L301.9,130.6L299.5,130.3L297.1,130.0L294.8,129.7L292.4,129.4L290.0,129.1L287.6,128.8L285.3,128.5L282.9,128.2L280.5,128.0L278.2,127.7L275.8,127.4L273.5,127.1L271.1,126.9L268.7,126.6L266.4,126.3L264.0,126.1L261.6,125.8L259.2,125.5L256.9,125.3L254.5,125.0L252.1,124.8L249.8,124.6L247.5,124.3L245.2,124.1L242.8,123.8L240.4,123.6L238.0,123.4L235.7,123.1L233.3,122.9L230.9,122.7L228.5,122.4L226.2,122.2L223.8,121.9L221.4,121.7L219.1,121.5L216.8,121.2L214.4,121.0L212.1,120.7L209.7,120.5L207.3,120.3L205.0,120.0L202.6,119.8L200.2,119.5L197.8,119.3L195.5,119.0L193.1,118.7L190.8,118.5L188.5,118.2L186.1,118.0L183.7,117.7L181.4,117.5L179.0,117.2L176.6,116.9L174.2,116.7L171.9,116.4L169.5,116.2L167.1,115.9L164.8,115.7L162.4,115.4L160.1,115.2L157.7,115.0L155.3,114.7L153.0,114.5L150.6,114.3L148.2,114.1L145.8,113.9L143.5,113.6L141.1,113.4L138.7,113.3L136.4,113.1L134.1,112.9L131.8,112.7L129.4,112.5L127.0,112.4L124.7,112.2L122.3,112.1L119.9,111.9L117.5,111.8L115.1,111.7L112.8,111.5L110.4,111.4L108.0,111.3L105.8,111.2L103.5,111.1L101.1,111.0L98.7,110.9L96.3,110.9L94.0,110.8L91.6,110.8L89.2,110.7L86.8,110.7L84.5,110.6L82.1,110.6L79.7,110.6L77.4,110.6L75.1,110.6L72.7,110.6L70.4,110.6L68.0,110.6Z" fill="#3b82f6" fill-opacity="0.15" stroke="none"/>
<polyline points="68.0,126.4 70.4,170.5 72.7,127.5 75.1,140.1 77.4,120.9 79.7,81.9 82.1,158.8 84.5,89.3 89.2,58.5 91.6,39.8 94.0,69.2 96.3,107.4 98.7,147.2 101.1,79.9 103.5,101.5 105.8,108.6 108.0,145.6 110.4,161.1 112.8,113.2 117.5,50.7 119.9,32.9 122.3,67.6 124.7,110.8 127.0,154.5 129.4,210.0 131.8,180.7 134.1,178.8 136.4,170.2 138.7,131.5 141.1,98.6 145.8,31.2 148.2,33.5 150.6,66.4 153.0,114.1 155.3,121.3 157.7,140.3 160.1,143.2 162.4,72.9 164.8,69.6 167.1,152.7 169.5,113.7 171.9,43.0 174.2,38.5 179.0,65.5 181.4,107.9 183.7,166.1 186.1,140.1 188.5,125.6 190.8,90.7 193.1,171.6 195.5,161.7 197.8,122.8 200.2,60.5 202.6,49.9 207.3,77.1 209.7,127.2 212.1,206.8 214.4,179.9 216.8,151.0 219.1,124.8 221.4,161.0 223.8,176.8 226.2,114.2 228.5,52.9 230.9,39.4 235.7,71.3 238.0,115.7 240.4,138.4 242.8,156.8 245.2,105.8 247.5,96.4 249.8,120.0 252.1,147.5 254.5,114.0 256.9,50.6 259.2,39.1 264.0,51.0 266.4,95.9 268.7,177.9 271.1,133.6 273.5,107.2 275.8,127.3 278.2,115.6 280.5,158.2 282.9,116.9 285.3,75.2 287.6,50.8 292.4,80.2 294.8,131.5 297.1,180.1 299.5,155.6 301.9,162.6 304.2,100.6 306.5,144.5 308.8,185.0 311.2,144.9 313.6,36.9 316.0,69.2 320.7,115.3 323.1,128.2 327.8,201.8 332.5,80.7 339.5,161.0 341.9,94.2 344.3,71.1 346.7,75.6 349.0,103.8 351.4,151.4 353.8,195.6 356.1,219.4 358.6,134.0 360.8,168.7 363.1,179.3 365.5,171.8 370.2,124.1 372.6,83.4 375.0,69.8 377.4,111.7 379.7,139.6 382.1,185.7 384.5,221.2 386.9,190.7 389.2,107.5 391.5,175.4 393.9,179.7 398.6,83.3 401.0,87.6 403.4,65.0 405.8,101.6 408.1,149.3 410.5,226.3 412.9,247.8 415.3,108.1 417.6,127.6 419.9,162.3 422.2,155.5 427.0,110.7 429.3,86.8 431.7,61.7 434.1,94.8 436.5,144.9 438.8,173.8 441.2,153.9 443.6,165.2 445.9,159.9 448.2,170.3 450.6,161.2 452.9,104.0 455.3,79.5 460.1,46.9 462.4,97.1 464.8,149.7 467.2,225.9 469.5,211.7 471.9,204.7 474.2,148.2 476.5,203.9 478.9,190.9 481.2,135.8 483.6,98.1 488.4,56.1 490.8,101.1 493.1,154.7 495.5,190.1 497.9,215.7 500.3,114.4 502.6,176.1 504.9,201.4 507.3,195.1 509.7,126.6 512.0,94.4 523.9,152.9 526.3,173.4 528.7,111.6 531.0,160.2 535.6,184.0 540.3,91.3 545.1,67.1 547.5,89.3 552.2,168.4 554.6,215.7 557.0,184.8 559.3,171.9 561.6,166.2 563.9,98.8 566.3,72.2 568.7,90.9 571.0,60.6 573.4,57.4 575.8,79.5 578.2,127.3 580.5,175.9 582.9,135.2 585.3,139.5 587.6,152.0 589.9,161.8 592.3,158.8 594.6,115.8 597.0,101.6 599.4,57.4 601.8,56.2 604.1,71.8 606.5,167.0 608.9,202.8 611.2,184.0 613.6,216.4 616.0,133.7 618.3,138.2 620.7,139.3 623.0,123.3 625.4,100.5 627.8,68.0 630.2,58.7 632.5,74.1 634.9,145.7 637.3,196.2 639.6,234.2 642.0,121.5 644.3,112.7 646.6,181.6 651.4,145.4 656.1,80.8 658.5,59.9 660.9,79.7 670.4,192.9 672.7,237.2 675.0,209.2 677.3,136.4 679.7,117.3 682.1,105.5 684.4,54.1 686.8,62.6 689.2,72.4 698.7,165.5 701.0,107.9 703.3,176.1 705.6,160.0 708.0,133.3 710.4,104.6 715.2,76.8 727.0,119.7 729.4,144.7 731.7,229.5 734.0,187.3 736.4,132.6 738.8,113.2 741.1,71.5 743.6,77.1 745.9,73.9 750.7,192.9 753.0,117.8 755.4,149.6 760.0,213.4 764.7,120.7 769.5,88.1 771.9,76.8 779.0,204.0 781.3,129.3 783.8,154.1 786.0,126.6 788.3,224.5 790.7,139.3 793.1,107.7 795.4,92.9 797.8,86.7 800.2,86.3 809.7,108.7 812.1,90.9 816.7,205.0 819.0,182.3 821.4,127.0 823.8,99.6 826.1,107.0 828.5,110.4" fill="none" stroke="#9ca3af" stroke-width="1" opacity="0.6"/>
<polyline points="68.0,100.3 70.4,100.6 72.7,100.9 75.1,101.1 77.4,101.4 79.7,101.6 82.1,101.9 84.5,102.1 86.8,102.4 89.2,102.6 91.6,102.9 94.0,103.1 96.3,103.4 98.7,103.6 101.1,103.9 103.5,104.2 105.8,104.4 108.0,104.7 110.4,104.9 112.8,105.2 115.1,105.4 117.5,105.7 119.9,105.9 122.3,106.2 124.7,106.4 127.0,106.7 129.4,106.9 131.8,107.2 134.1,107.4 136.4,107.7 138.7,107.9 141.1,108.2 143.5,108.4 145.8,108.7 148.2,108.9 150.6,109.2 153.0,109.4 155.3,109.7 157.7,109.9 160.1,110.2 162.4,110.4 164.8,110.7 167.1,110.9 169.5,111.2 171.9,111.4 174.2,111.7 176.6,111.9 179.0,112.2 181.4,112.4 183.7,112.7 186.1,112.9 188.5,113.2 190.8,113.4 193.1,113.7 195.5,113.9 197.8,114.2 200.2,114.4 202.6,114.6 205.0,114.9 207.3,115.1 209.7,115.4 212.1,115.6 214.4,115.8 216.8,116.1 219.1,116.3 221.4,116.5 223.8,116.8 226.2,117.0 228.5,117.2 230.9,117.5 233.3,117.7 235.7,117.9 238.0,118.2 240.4,118.4 242.8,118.7 245.2,118.9 247.5,119.1 249.8,119.4 252.1,119.7 254.5,119.9 256.9,120.2 259.2,120.4 261.6,120.7 264.0,121.0 266.4,121.2 268.7,121.5 271.1,121.8 273.5,122.1 275.8,122.4 278.2,122.7 280.5,122.9 282.9,123.2 285.3,123.5 287.6,123.8 290.0,124.1 292.4,124.5 294.8,124.8 297.1,125.1 299.5,125.4 301.9,125.7 304.2,126.0 306.5,126.3 308.8,126.6 311.2,126.9 313.6,127.3 316.0,127.6 318.4,127.9 320.7,128.2 323.1,128.5 325.5,128.8 327.8,129.1 330.2,129.4 332.5,129.7 334.8,130.0 337.2,130.3 339.5,130.6 341.9,130.9 344.3,131.2 346.7,131.5 349.0,131.8 351.4,132.0 353.8,132.3 356.1,132.6 358.6,132.8 360.8,133.1 363.1,133.3 365.5,133.6 367.9,133.8 370.2,134.0 372.6,134.3 375.0,134.5 377.4,134.7 379.7,134.9 382.1,135.1 384.5,135.3 386.9,135.5 389.2,135.7 391.5,135.8 393.9,136.0 396.3,136.2 398.6,136.3 401.0,136.5 403.4,136.6 405.8,136.8 408.1,136.9 410.5,137.0 412.9,137.1 415.3,137.3 417.6,137.4 419.9,137.5 422.2,137.6 424.6,137.7 427.0,137.8 429.3,137.9 431.7,138.0 434.1,138.0 436.5,138.1 438.8,138.2 441.2,138.2 443.6,138.3 445.9,138.4 448.2,138.4 450.6,138.5 452.9,138.5 455.3,138.5 457.7,138.6 460.1,138.6 462.4,138.6 464.8,138.6 467.2,138.6 469.5,138.6 471.9,138.6 474.2,138.6 476.5,138.6 478.9,138.6 481.2,138.6 483.6,138.5 486.0,138.5 488.4,138.4 490.8,138.4 493.1,138.3 495.5,138.3 497.9,138.2 500.3,138.1 502.6,138.0 504.9,137.9 507.3,137.8 509.7,137.7 512.0,137.6 514.4,137.5 516.8,137.4 519.2,137.3 521.5,137.2 523.9,137.1 526.3,136.9 528.7,136.8 531.0,136.7 533.2,136.5 535.6,136.4 538.0,136.2 540.3,136.1 542.7,136.0 545.1,135.8 547.5,135.7 549.9,135.5 552.2,135.4 554.6,135.2 557.0,135.1 559.3,134.9 561.6,134.8 563.9,134.6 566.3,134.5 568.7,134.4 571.0,134.2 573.4,134.1 575.8,133.9 578.2,133.8 580.5,133.7 582.9,133.5 585.3,133.4 587.6,133.3 589.9,133.2 592.3,133.0 594.6,132.9 597.0,132.8 599.4,132.7 601.8,132.6 604.1,132.5 606.5,132.4 608.9,132.3 611.2,132.2 613.6,132.1 616.0,132.0 618.3,131.9 620.7,131.9 623.0,131.8 625.4,131.7 627.8,131.6 630.2,131.6 632.5,131.5 634.9,131.4 637.3,131.4 639.6,131.3 642.0,131.2 644.3,131.2 646.6,131.1 649.0,131.1 651.4,131.1 653.7,131.0 656.1,131.0 658.5,130.9 660.9,130.9 663.2,130.9 665.6,130.9 668.0,130.8 670.4,130.8 672.7,130.8 675.0,130.8 677.3,130.8 679.7,130.8 682.1,130.8 684.4,130.8 686.8,130.8 689.2,130.8 691.6,130.8 693.9,130.8 696.3,130.8 698.7,130.8 701.0,130.8 703.3,130.8 705.6,130.9 708.0,130.9 710.4,130.9 712.7,130.9 715.2,131.0 717.5,131.0 719.9,131.0 722.3,131.1 724.6,131.1 727.0,131.2 729.4,131.2 731.7,131.2 734.0,131.3 736.4,131.3 738.8,131.4 741.1,131.4 743.6,131.5 745.9,131.5 748.3,131.6 750.7,131.6 753.0,131.7 755.4,131.7 757.7,131.7 760.0,131.8 762.4,131.8 764.7,131.9 767.1,131.9 769.5,131.9 771.9,132.0 774.2,132.0 776.6,132.1 779.0,132.1 781.3,132.1 783.8,132.2 786.0,132.2 788.3,132.2 790.7,132.2 793.1,132.3 795.4,132.3 797.8,132.3 800.2,132.4 802.6,132.4 804.9,132.4 807.3,132.4 809.7,132.5 812.1,132.5 814.4,132.5 816.7,132.5 819.0,132.6 821.4,132.6 823.8,132.6 826.1,132.6 828.5,132.7 830.9,132.7 833.3,132.7 835.6,132.7 838.0,132.8" fill="none" stroke="#2563eb" stroke-width="2.2"/>
<line x1="63" y1="214.0" x2="68" y2="214.0" stroke="#333" stroke-width="1.5"/>
<text x="60" y="214.0" text-anchor="end" dominant-baseline="middle" fill="#333">6.0</text>
<line x1="63" y1="137.3" x2="68" y2="137.3" stroke="#333" stroke-width="1.5"/>
<text x="60" y="137.3" text-anchor="end" dominant-baseline="middle" fill="#333">7.0</text>
<line x1="63" y1="60.7" x2="68" y2="60.7" stroke="#333" stroke-width="1.5"/>
<text x="60" y="60.7" text-anchor="end" dominant-baseline="middle" fill="#333">8.0</text>
<line x1="102.2" y1="260" x2="102.2" y2="265" stroke="#333" stroke-width="1.5"/>
<text x="102.2" y="278" text-anchor="middle" fill="#333">1986</text>
<line x1="158.9" y1="260" x2="158.9" y2="265" stroke="#333" stroke-width="1.5"/>
<text x="158.9" y="278" text-anchor="middle" fill="#333">1988</text>
<line x1="215.6" y1="260" x2="215.6" y2="265" stroke="#333" stroke-width="1.5"/>
<text x="215.6" y="278" text-anchor="middle" fill="#333">1990</text>
<line x1="272.3" y1="260" x2="272.3" y2="265" stroke="#333" stroke-width="1.5"/>
<text x="272.3" y="278" text-anchor="middle" fill="#333">1992</text>
<line x1="329.0" y1="260" x2="329.0" y2="265" stroke="#333" stroke-width="1.5"/>
<text x="329.0" y="278" text-anchor="middle" fill="#333">1994</text>
<line x1="385.7" y1="260" x2="385.7" y2="265" stroke="#333" stroke-width="1.5"/>
<text x="385.7" y="278" text-anchor="middle" fill="#333">1996</text>
<line x1="442.4" y1="260" x2="442.4" y2="265" stroke="#333" stroke-width="1.5"/>
<text x="442.4" y="278" text-anchor="middle" fill="#333">1998</text>
<line x1="499.1" y1="260" x2="499.1" y2="265" stroke="#333" stroke-width="1.5"/>
<text x="499.1" y="278" text-anchor="middle" fill="#333">2000</text>
<line x1="555.8" y1="260" x2="555.8" y2="265" stroke="#333" stroke-width="1.5"/>
<text x="555.8" y="278" text-anchor="middle" fill="#333">2002</text>
<line x1="612.5" y1="260" x2="612.5" y2="265" stroke="#333" stroke-width="1.5"/>
<text x="612.5" y="278" text-anchor="middle" fill="#333">2004</text>
<line x1="669.1" y1="260" x2="669.1" y2="265" stroke="#333" stroke-width="1.5"/>
<text x="669.1" y="278" text-anchor="middle" fill="#333">2006</text>
<line x1="725.8" y1="260" x2="725.8" y2="265" stroke="#333" stroke-width="1.5"/>
<text x="725.8" y="278" text-anchor="middle" fill="#333">2008</text>
<line x1="782.5" y1="260" x2="782.5" y2="265" stroke="#333" stroke-width="1.5"/>
<text x="782.5" y="278" text-anchor="middle" fill="#333">2010</text>
<line x1="68" y1="30" x2="68" y2="260" stroke="#333" stroke-width="1.5"/>
<line x1="68" y1="260" x2="838" y2="260" stroke="#333" stroke-width="1.5"/>
<text transform="rotate(-90)" x="-145" y="16" text-anchor="middle" fill="#374151" font-size="11">O₃ density [×10¹⁰ cm⁻³]</text>
<line x1="583" y1="44" x2="605" y2="44" stroke="#9ca3af" stroke-width="1"/>
<text x="610" y="48" fill="#374151" font-size="11">Observations (SAGE II / GOMOS)</text>
<line x1="583" y1="59" x2="605" y2="59" stroke="#2563eb" stroke-width="2.2"/>
<text x="610" y="63" fill="#374151" font-size="11">Smoothed level ±2σ</text>
<text x="453" y="20" text-anchor="middle" fill="#374151" font-size="13" font-weight="bold">Stratospheric ozone (45–55 km, 40°N–50°N): trend extraction</text>
<line x1="68" y1="528.0" x2="838" y2="528.0" stroke="#e5e7eb" stroke-width="1"/>
<line x1="68" y1="489.7" x2="838" y2="489.7" stroke="#e5e7eb" stroke-width="1"/>
<line x1="68" y1="451.3" x2="838" y2="451.3" stroke="#e5e7eb" stroke-width="1"/>
<line x1="68" y1="413.0" x2="838" y2="413.0" stroke="#e5e7eb" stroke-width="1"/>
<line x1="68" y1="374.7" x2="838" y2="374.7" stroke="#e5e7eb" stroke-width="1"/>
<line x1="68" y1="336.3" x2="838" y2="336.3" stroke="#e5e7eb" stroke-width="1"/>
<line x1="68" y1="298.0" x2="838" y2="298.0" stroke="#e5e7eb" stroke-width="1"/>
<line x1="68" y1="413.0" x2="838" y2="413.0" stroke="#6b7280" stroke-width="0.8" stroke-dasharray="2 2"/>
<polyline points="68.0,432.9 70.4,435.2 72.7,433.4 75.1,432.5 77.4,435.3 79.7,435.4 82.1,436.9 84.5,425.6 86.8,432.2 89.2,436.5 91.6,438.1 94.0,436.6 96.3,433.9 98.7,431.1 101.1,429.1 103.5,432.7 105.8,430.6 108.0,436.5 110.4,433.7 112.8,434.8 115.1,437.1 117.5,435.2 119.9,437.6 122.3,436.5 124.7,430.7 127.0,433.0 129.4,434.6 131.8,434.8 134.1,435.8 136.4,435.4 138.7,424.2 141.1,423.9 143.5,432.0 145.8,432.1 148.2,421.8 150.6,430.1 153.0,417.0 155.3,423.0 157.7,423.6 160.1,410.2 162.4,420.0 164.8,413.3 167.1,398.7 169.5,421.0 171.9,412.8 174.2,397.9 176.6,402.8 179.0,408.2 181.4,389.8 183.7,377.2 186.1,350.5 188.5,328.9 190.8,349.2 193.1,346.1 195.5,371.3 197.8,380.5 200.2,318.0 202.6,383.2 205.0,345.5 207.3,357.1 209.7,356.4 212.1,362.1 214.4,384.4 216.8,375.7 219.1,395.8 221.4,381.4 223.8,360.4 226.2,350.5 228.5,380.3 230.9,400.8 233.3,365.4 235.7,371.0 238.0,367.3 240.4,366.6 242.8,374.7 245.2,373.3 247.5,374.1 249.8,345.7 252.1,339.5 254.5,381.9 256.9,380.0 259.2,390.7 261.6,339.3 264.0,385.1 266.4,384.6 268.7,389.4 271.1,364.9 273.5,392.9 275.8,371.8 278.2,392.0 280.5,393.2 282.9,414.5 285.3,412.2 287.6,398.6 290.0,404.3 292.4,408.5 294.8,419.8 297.1,403.6 299.5,396.8 301.9,407.0 304.2,404.5 306.5,410.5 308.8,426.4 311.2,422.8 313.6,430.3 316.0,422.5 318.4,425.8 320.7,427.5 323.1,426.3 325.5,421.4 327.8,429.4 330.2,420.2 332.5,419.7 334.8,428.6 337.2,430.6 339.5,425.0 341.9,427.5 344.3,430.7 346.7,432.8 349.0,435.9 351.4,425.7 353.8,431.9 356.1,425.3 358.6,429.9 360.8,429.0 363.1,429.5 365.5,427.0 367.9,424.3 370.2,435.9 372.6,434.9 375.0,436.2 377.4,436.5 379.7,428.9 382.1,433.4 384.5,436.5 386.9,436.2 389.2,436.5 391.5,435.9 393.9,437.2 396.3,435.8 398.6,437.8 401.0,437.9 403.4,437.5 405.8,437.3 408.1,437.0 410.5,434.4 412.9,428.3 415.3,434.1 417.6,435.4 419.9,433.7 422.2,433.9 424.6,435.1 427.0,435.3 429.3,436.4 431.7,433.0 434.1,423.8 436.5,427.6 438.8,423.5 441.2,428.9 443.6,423.2 445.9,418.0 448.2,409.5 450.6,418.4 452.9,414.7 455.3,419.6 457.7,420.0 460.1,402.9 462.4,412.4 464.8,405.3 467.2,409.5 469.5,400.3 471.9,392.1 474.2,377.3 476.5,394.5 478.9,410.3 481.2,397.6 483.6,393.3 486.0,404.7 488.4,403.9 490.8,393.0 493.1,380.6 495.5,356.1 497.9,373.8 500.3,371.5 502.6,393.0 504.9,378.2 507.3,392.6 509.7,342.8 512.0,373.7 514.4,360.9 516.8,381.6 519.2,384.9 521.5,393.3 523.9,395.0 526.3,375.6 528.7,393.6 531.0,404.3 533.2,403.4 535.6,410.1 538.0,400.7 540.3,368.7 542.7,398.2 545.1,400.1 547.5,369.0 549.9,366.4 552.2,371.4 554.6,368.9 557.0,365.6 559.3,374.9 561.6,380.1 563.9,374.6 566.3,393.2 568.7,403.6 571.0,382.1 573.4,362.5 575.8,381.0 578.2,381.9 580.5,372.9 582.9,368.7 585.3,400.4 587.6,410.0 589.9,408.6 592.3,422.3 594.6,420.4 597.0,410.5 599.4,404.0 601.8,410.2 604.1,421.9 606.5,423.1 608.9,419.4 611.2,415.7 613.6,411.1 616.0,421.4 618.3,416.8 620.7,423.1 623.0,414.4 625.4,415.9 627.8,398.1 630.2,404.7 632.5,417.5 634.9,425.6 637.3,417.5 639.6,426.5 642.0,401.4 644.3,410.9 646.6,420.1 649.0,430.0 651.4,424.3 653.7,422.5 656.1,433.8 658.5,433.2 660.9,415.8 663.2,432.1 665.6,424.5 668.0,428.7 670.4,429.9 672.7,432.1 675.0,435.2 677.3,433.1 679.7,435.5 682.1,433.7 684.4,435.9 686.8,424.9 689.2,431.8 691.6,436.5 693.9,424.5 696.3,430.5 698.7,432.2 701.0,434.6 703.3,436.8 705.6,436.7 708.0,433.0 710.4,437.3 712.7,435.0 715.2,437.6 717.5,437.8 719.9,437.7 722.3,436.0 724.6,431.1 727.0,434.7 729.4,436.3 731.7,436.3 734.0,436.6 736.4,435.6 738.8,438.6 741.1,438.9 743.6,438.1 745.9,436.6 748.3,435.9 750.7,437.5 753.0,436.8 755.4,435.7 757.7,436.5 760.0,436.8 762.4,436.4 764.7,434.3 767.1,437.2 769.5,438.1 771.9,437.1 774.2,436.9 776.6,436.2 779.0,433.3 781.3,428.9 783.8,429.7 786.0,427.7 788.3,428.5 790.7,434.0 793.1,436.9 795.4,435.5 797.8,432.6 800.2,430.0 802.6,430.2 804.9,428.8 807.3,425.6 809.7,430.0 812.1,430.9 814.4,415.3 816.7,422.8 819.0,412.2 821.4,425.6 823.8,420.0 826.1,422.2 828.5,423.9 830.9,400.4 833.3,396.1 835.6,400.8 838.0,411.6" fill="none" stroke="#f59e0b" stroke-width="1.8"/>
<polyline points="68.0,426.4 70.4,424.3 72.7,421.6 75.1,419.1 77.4,417.5 79.7,415.5 82.1,410.7 84.5,407.2 86.8,406.5 89.2,407.3 91.6,406.8 94.0,405.9 96.3,404.7 98.7,404.9 101.1,406.3 103.5,407.0 105.8,406.5 108.0,404.6 110.4,404.5 112.8,404.8 115.1,406.5 117.5,410.8 119.9,413.5 122.3,413.4 124.7,411.7 127.0,412.3 129.4,414.0 131.8,413.9 134.1,414.4 136.4,416.0 138.7,417.6 141.1,421.0 143.5,423.8 145.8,426.1 148.2,423.4 150.6,418.2 153.0,412.4 155.3,408.7 157.7,408.9 160.1,408.7 162.4,408.7 164.8,409.1 167.1,407.4 169.5,406.3 171.9,407.0 174.2,409.3 176.6,410.2 179.0,409.7 181.4,409.2 183.7,409.0 186.1,410.3 188.5,410.2 190.8,411.4 193.1,410.8 195.5,408.4 197.8,409.9 200.2,413.6 202.6,417.4 205.0,419.4 207.3,420.8 209.7,421.6 212.1,421.3 214.4,421.0 216.8,419.8 219.1,419.4 221.4,418.3 223.8,416.6 226.2,411.9 228.5,408.8 230.9,407.3 233.3,406.5 235.7,406.4 238.0,405.0 240.4,404.0 242.8,404.3 245.2,406.1 247.5,407.0 249.8,406.4 252.1,405.7 254.5,406.2 256.9,409.8 259.2,414.3 261.6,417.2 264.0,416.3 266.4,414.9 268.7,414.9 271.1,415.7 273.5,415.9 275.8,415.8 278.2,417.2 280.5,417.7 282.9,418.6 285.3,422.0 287.6,424.9 290.0,424.6 292.4,421.7 294.8,418.6 297.1,416.3 299.5,412.6 301.9,408.6 304.2,407.8 306.5,407.5 308.8,405.0 311.2,402.5 313.6,404.3 316.0,407.6 318.4,409.6 320.7,409.0 323.1,409.5 325.5,410.3 327.8,411.1 330.2,412.1 332.5,413.3 334.8,413.1 337.2,414.3 339.5,417.6 341.9,424.1 344.3,428.6 346.7,429.5 349.0,429.2 351.4,425.6 353.8,419.9 356.1,414.9 358.6,411.6 360.8,410.4 363.1,409.3 365.5,406.8 367.9,404.2 370.2,403.7 372.6,404.4 375.0,405.6 377.4,407.4 379.7,407.6 382.1,409.0 384.5,411.0 386.9,411.3 389.2,411.3 391.5,412.3 393.9,411.6 396.3,415.2 398.6,419.5 401.0,424.2 403.4,426.2 405.8,426.1 408.1,425.7 410.5,424.3 412.9,421.2 415.3,419.9 417.6,417.6 419.9,417.1 422.2,412.6 424.6,407.9 427.0,405.0 429.3,404.0 431.7,405.0 434.1,404.1 436.5,404.5 438.8,404.8 441.2,406.4 443.6,408.5 445.9,409.7 448.2,410.1 450.6,409.9 452.9,414.6 455.3,421.4 457.7,425.5 460.1,426.6 462.4,426.6 464.8,426.3 467.2,422.7 469.5,419.0 471.9,415.7 474.2,414.8 476.5,412.2 478.9,408.8 481.2,405.2 483.6,403.9 486.0,404.4 488.4,405.5 490.8,405.4 493.1,405.1 495.5,405.7 497.9,405.6 500.3,406.1 502.6,406.5 504.9,405.3 507.3,403.1 509.7,402.9 512.0,408.0 514.4,412.8 516.8,414.4 519.2,414.5 521.5,413.8 523.9,414.8 526.3,414.9 528.7,415.9 531.0,416.3 533.2,416.4 535.6,415.0 538.0,416.3 540.3,420.5 542.7,424.3 545.1,427.7 547.5,426.5 549.9,424.4 552.2,422.2 554.6,419.3 557.0,416.3 559.3,414.1 561.6,410.9 563.9,406.1 566.3,403.5 568.7,403.6 571.0,405.8 573.4,405.3 575.8,405.1 578.2,405.0 580.5,405.7 582.9,408.0 585.3,408.9 587.6,408.5 589.9,409.0 592.3,410.7 594.6,413.6 597.0,416.7 599.4,420.2 601.8,421.9 604.1,422.4 606.5,422.1 608.9,422.6 611.2,421.2 613.6,418.8 616.0,416.3 618.3,414.8 620.7,410.3 623.0,406.4 625.4,405.1 627.8,405.2 630.2,405.3 632.5,406.8 634.9,405.2 637.3,405.6 639.6,406.1 642.0,407.7 644.3,407.8 646.6,406.8 649.0,408.3 651.4,412.3 653.7,417.2 656.1,422.1 658.5,424.0 660.9,425.1 663.2,425.9 665.6,425.9 668.0,425.6 670.4,425.5 672.7,423.8 675.0,420.8 677.3,418.5 679.7,414.0 682.1,409.4 684.4,407.3 686.8,407.2 689.2,404.4 691.6,403.3 693.9,402.9 696.3,404.4 698.7,406.5 701.0,406.6 703.3,405.8 705.6,406.7 708.0,410.2 710.4,416.9 712.7,422.8 715.2,425.2 717.5,425.3 719.9,425.4 722.3,426.0 724.6,426.2 727.0,426.1 729.4,423.4 731.7,420.2 734.0,417.2 736.4,412.5 738.8,407.4 741.1,405.1 743.6,405.5 745.9,405.9 748.3,405.5 750.7,406.0 753.0,405.2 755.4,404.7 757.7,404.6 760.0,405.5 762.4,403.7 764.7,403.5 767.1,406.1 769.5,410.9 771.9,412.0 774.2,411.3 776.6,410.5 779.0,411.5 781.3,413.3 783.8,413.2 786.0,414.0 788.3,415.5 790.7,420.9 793.1,426.1 795.4,429.8 797.8,428.3 800.2,422.3 802.6,415.2 804.9,408.0 807.3,404.3 809.7,404.6 812.1,406.8 814.4,406.6 816.7,406.4 819.0,406.3 821.4,404.9 823.8,404.7 826.1,405.1 828.5,405.4 830.9,404.8 833.3,403.9 835.6,407.1 838.0,412.7" fill="none" stroke="#8b5cf6" stroke-width="1.8"/>
<line x1="63" y1="528.0" x2="68" y2="528.0" stroke="#333" stroke-width="1.5"/>
<text x="60" y="528.0" text-anchor="end" dominant-baseline="middle" fill="#333">-3</text>
<line x1="63" y1="489.7" x2="68" y2="489.7" stroke="#333" stroke-width="1.5"/>
<text x="60" y="489.7" text-anchor="end" dominant-baseline="middle" fill="#333">-2</text>
<line x1="63" y1="451.3" x2="68" y2="451.3" stroke="#333" stroke-width="1.5"/>
<text x="60" y="451.3" text-anchor="end" dominant-baseline="middle" fill="#333">-1</text>
<line x1="63" y1="413.0" x2="68" y2="413.0" stroke="#333" stroke-width="1.5"/>
<text x="60" y="413.0" text-anchor="end" dominant-baseline="middle" fill="#333">0</text>
<line x1="63" y1="374.7" x2="68" y2="374.7" stroke="#333" stroke-width="1.5"/>
<text x="60" y="374.7" text-anchor="end" dominant-baseline="middle" fill="#333">1</text>
<line x1="63" y1="336.3" x2="68" y2="336.3" stroke="#333" stroke-width="1.5"/>
<text x="60" y="336.3" text-anchor="end" dominant-baseline="middle" fill="#333">2</text>
<line x1="63" y1="298.0" x2="68" y2="298.0" stroke="#333" stroke-width="1.5"/>
<text x="60" y="298.0" text-anchor="end" dominant-baseline="middle" fill="#333">3</text>
<line x1="102.2" y1="528" x2="102.2" y2="533" stroke="#333" stroke-width="1.5"/>
<text x="102.2" y="546" text-anchor="middle" fill="#333">1986</text>
<line x1="158.9" y1="528" x2="158.9" y2="533" stroke="#333" stroke-width="1.5"/>
<text x="158.9" y="546" text-anchor="middle" fill="#333">1988</text>
<line x1="215.6" y1="528" x2="215.6" y2="533" stroke="#333" stroke-width="1.5"/>
<text x="215.6" y="546" text-anchor="middle" fill="#333">1990</text>
<line x1="272.3" y1="528" x2="272.3" y2="533" stroke="#333" stroke-width="1.5"/>
<text x="272.3" y="546" text-anchor="middle" fill="#333">1992</text>
<line x1="329.0" y1="528" x2="329.0" y2="533" stroke="#333" stroke-width="1.5"/>
<text x="329.0" y="546" text-anchor="middle" fill="#333">1994</text>
<line x1="385.7" y1="528" x2="385.7" y2="533" stroke="#333" stroke-width="1.5"/>
<text x="385.7" y="546" text-anchor="middle" fill="#333">1996</text>
<line x1="442.4" y1="528" x2="442.4" y2="533" stroke="#333" stroke-width="1.5"/>
<text x="442.4" y="546" text-anchor="middle" fill="#333">1998</text>
<line x1="499.1" y1="528" x2="499.1" y2="533" stroke="#333" stroke-width="1.5"/>
<text x="499.1" y="546" text-anchor="middle" fill="#333">2000</text>
<line x1="555.8" y1="528" x2="555.8" y2="533" stroke="#333" stroke-width="1.5"/>
<text x="555.8" y="546" text-anchor="middle" fill="#333">2002</text>
<line x1="612.5" y1="528" x2="612.5" y2="533" stroke="#333" stroke-width="1.5"/>
<text x="612.5" y="546" text-anchor="middle" fill="#333">2004</text>
<line x1="669.1" y1="528" x2="669.1" y2="533" stroke="#333" stroke-width="1.5"/>
<text x="669.1" y="546" text-anchor="middle" fill="#333">2006</text>
<line x1="725.8" y1="528" x2="725.8" y2="533" stroke="#333" stroke-width="1.5"/>
<text x="725.8" y="546" text-anchor="middle" fill="#333">2008</text>
<line x1="782.5" y1="528" x2="782.5" y2="533" stroke="#333" stroke-width="1.5"/>
<text x="782.5" y="546" text-anchor="middle" fill="#333">2010</text>
<line x1="68" y1="298" x2="68" y2="528" stroke="#333" stroke-width="1.5"/>
<line x1="68" y1="528" x2="838" y2="528" stroke="#333" stroke-width="1.5"/>
<text transform="rotate(-90)" x="-413" y="16" text-anchor="middle" fill="#374151" font-size="11">Contribution [×10⁹ cm⁻³]</text>
<text x="453" y="566" text-anchor="middle" fill="#4b5563" font-size="11">Year</text>
<line x1="78" y1="312" x2="100" y2="312" stroke="#f59e0b" stroke-width="1.8"/>
<text x="105" y="316" fill="#374151" font-size="11">Solar proxy contribution β̂_solar · X_solar</text>
<line x1="78" y1="327" x2="100" y2="327" stroke="#8b5cf6" stroke-width="1.8"/>
<text x="105" y="331" fill="#374151" font-size="11">QBO contribution β̂_qbo1·X_qbo1 + β̂_qbo2·X_qbo2</text>
<text x="453" y="288" text-anchor="middle" fill="#374151" font-size="13" font-weight="bold">Proxy covariate contributions (solar + QBO)</text>
</svg>