<svg xmlns="http://www.w3.org/2000/svg" viewBox="0 0 900 595" font-family="system-ui,-apple-system,sans-serif" font-size="12">
<rect width="900" height="595" fill="white"/>
<line x1="68" y1="214.0" x2="878" y2="214.0" stroke="#e5e7eb" stroke-width="1"/>
<line x1="68" y1="137.3" x2="878" y2="137.3" stroke="#e5e7eb" stroke-width="1"/>
<line x1="68" y1="60.7" x2="878" y2="60.7" stroke="#e5e7eb" stroke-width="1"/>
<rect x="589.8" y="30" width="288.20000000000005" height="230" fill="#f3f4f6" fill-opacity="0.7"/>
<path d="M68.0,100.2L69.6,100.6L71.2,100.9L72.8,101.3L74.4,101.6L75.9,102.0L77.5,102.3L79.1,102.6L80.8,102.9L82.4,103.3L84.0,103.6L85.6,103.9L87.2,104.2L88.8,104.5L90.4,104.7L92.0,105.0L93.6,105.3L95.1,105.5L96.7,105.8L98.3,106.0L100.0,106.3L101.6,106.5L103.2,106.7L104.8,106.9L106.4,107.1L108.0,107.3L109.6,107.5L111.2,107.7L112.8,107.9L114.3,108.1L115.9,108.2L117.5,108.4L119.1,108.5L120.8,108.7L122.4,108.8L124.0,109.0L125.6,109.1L127.2,109.3L128.8,109.4L130.4,109.5L132.0,109.7L133.6,109.8L135.2,109.9L136.8,110.1L138.4,110.2L140.0,110.3L141.6,110.4L143.2,110.6L144.8,110.7L146.4,110.8L148.0,111.0L149.7,111.1L151.2,111.2L152.8,111.3L154.4,111.5L156.0,111.6L157.6,111.8L159.2,111.9L160.8,112.0L162.4,112.2L164.0,112.3L165.6,112.5L167.2,112.6L168.9,112.8L170.4,113.0L172.0,113.1L173.6,113.3L175.2,113.5L176.8,113.6L178.4,113.8L180.0,114.0L181.6,114.2L183.2,114.4L184.8,114.6L186.4,114.8L188.1,115.0L189.6,115.2L191.2,115.5L192.8,115.7L194.4,115.9L196.0,116.2L197.6,116.4L199.2,116.7L200.8,116.9L202.4,117.2L204.0,117.5L205.6,117.8L207.3,118.0L208.8,118.3L210.4,118.6L212.0,118.9L213.6,119.2L215.2,119.5L216.8,119.8L218.5,120.1L220.1,120.5L221.7,120.8L223.3,121.1L224.9,121.4L226.5,121.8L228.1,122.1L229.6,122.4L231.2,122.7L232.8,123.1L234.4,123.4L236.0,123.7L237.7,124.1L239.3,124.4L240.9,124.7L242.5,125.0L244.1,125.4L245.7,125.7L247.3,126.0L248.8,126.3L250.4,126.7L252.0,127.0L253.6,127.3L255.2,127.6L256.9,127.9L258.5,128.2L260.1,128.5L261.7,128.8L263.3,129.1L264.9,129.4L266.5,129.6L268.0,129.9L269.6,130.2L271.2,130.5L272.8,130.7L274.4,131.0L276.1,131.2L277.7,131.4L279.3,131.7L280.9,131.9L282.5,132.1L284.1,132.3L285.7,132.5L287.3,132.7L288.9,132.9L290.5,133.1L292.1,133.3L293.7,133.4L295.3,133.6L296.9,133.7L298.5,133.9L300.1,134.0L301.7,134.2L303.4,134.3L304.9,134.4L306.5,134.5L308.1,134.6L309.7,134.7L311.3,134.8L312.9,134.9L314.5,135.0L316.1,135.1L317.7,135.1L319.3,135.2L320.9,135.2L322.6,135.3L324.1,135.3L325.7,135.4L327.3,135.4L328.9,135.4L330.5,135.4L332.1,135.4L333.7,135.4L335.3,135.4L336.9,135.4L338.5,135.4L340.1,135.3L341.8,135.3L343.3,135.2L344.9,135.2L346.5,135.1L348.1,135.0L349.7,134.9L351.3,134.8L352.9,134.7L354.5,134.6L356.1,134.5L357.7,134.4L359.3,134.2L361.0,134.1L362.5,134.0L364.1,133.8L365.7,133.7L367.3,133.5L368.9,133.3L370.5,133.2L372.2,133.0L373.8,132.8L375.4,132.6L377.0,132.4L378.6,132.2L380.2,132.0L381.8,131.9L383.3,131.7L384.9,131.5L386.5,131.3L388.1,131.1L389.7,130.9L391.4,130.7L393.0,130.5L394.6,130.3L396.2,130.1L397.8,129.9L399.4,129.7L401.0,129.5L402.5,129.3L404.1,129.2L405.7,129.0L407.3,128.8L408.9,128.6L410.5,128.5L412.2,128.3L413.8,128.2L415.4,128.0L417.0,127.9L418.6,127.7L420.1,127.6L421.7,127.4L423.3,127.3L424.9,127.2L426.5,127.0L428.1,126.9L429.7,126.8L431.4,126.7L433.0,126.6L434.6,126.5L436.2,126.3L437.8,126.2L439.4,126.2L440.9,126.1L442.6,126.0L444.2,125.9L445.8,125.8L447.4,125.7L449.0,125.6L450.6,125.6L452.2,125.5L453.8,125.4L455.4,125.4L457.0,125.3L458.6,125.2L460.1,125.2L461.8,125.1L463.4,125.1L465.0,125.1L466.6,125.0L468.2,125.0L469.8,124.9L471.4,124.9L473.0,124.9L474.6,124.9L476.2,124.8L477.8,124.8L479.3,124.8L480.9,124.8L482.6,124.8L484.2,124.8L485.8,124.8L487.4,124.8L489.0,124.8L490.6,124.8L492.2,124.8L493.8,124.8L495.4,124.8L497.0,124.8L498.5,124.9L500.1,124.9L501.8,124.9L503.4,124.9L505.0,125.0L506.6,125.0L508.2,125.0L509.8,125.1L511.4,125.1L513.0,125.1L514.6,125.2L516.2,125.2L517.8,125.3L519.4,125.3L521.0,125.3L522.6,125.4L524.2,125.4L525.8,125.4L527.4,125.5L529.0,125.5L530.6,125.5L532.3,125.6L533.9,125.6L535.4,125.6L537.0,125.6L538.6,125.6L540.2,125.6L541.8,125.6L543.4,125.6L545.0,125.6L546.6,125.6L548.2,125.6L549.8,125.6L551.5,125.5L553.1,125.5L554.6,125.5L556.2,125.4L557.8,125.3L559.4,125.3L561.0,125.2L562.6,125.1L564.2,125.0L565.8,124.9L567.4,124.8L569.0,124.7L570.6,124.6L572.3,124.5L573.8,124.4L575.4,124.2L577.0,124.1L578.6,123.9L580.2,123.8L581.8,123.6L583.4,123.5L585.0,123.3L586.6,123.1L588.2,122.9L589.8,122.7L589.8,142.0L588.2,141.7L586.6,141.4L585.0,141.1L583.4,140.8L581.8,140.6L580.2,140.3L578.6,140.1L577.0,139.8L575.4,139.6L573.8,139.4L572.3,139.2L570.6,139.0L569.0,138.8L567.4,138.6L565.8,138.4L564.2,138.2L562.6,138.0L561.0,137.8L559.4,137.7L557.8,137.5L556.2,137.4L554.6,137.2L553.1,137.1L551.5,137.0L549.8,136.8L548.2,136.7L546.6,136.6L545.0,136.5L543.4,136.4L541.8,136.3L540.2,136.2L538.6,136.1L537.0,136.0L535.4,135.9L533.9,135.8L532.3,135.7L530.6,135.6L529.0,135.5L527.4,135.4L525.8,135.4L524.2,135.3L522.6,135.2L521.0,135.1L519.4,135.1L517.8,135.0L516.2,134.9L514.6,134.9L513.0,134.8L511.4,134.7L509.8,134.7L508.2,134.6L506.6,134.5L505.0,134.5L503.4,134.4L501.8,134.4L500.1,134.3L498.5,134.3L497.0,134.3L495.4,134.2L493.8,134.2L492.2,134.2L490.6,134.1L489.0,134.1L487.4,134.1L485.8,134.1L484.2,134.0L482.6,134.0L480.9,134.0L479.3,134.0L477.8,134.0L476.2,134.0L474.6,134.0L473.0,134.0L471.4,134.1L469.8,134.1L468.2,134.1L466.6,134.1L465.0,134.2L463.4,134.2L461.8,134.2L460.1,134.3L458.6,134.3L457.0,134.4L455.4,134.4L453.8,134.5L452.2,134.5L450.6,134.6L449.0,134.7L447.4,134.8L445.8,134.8L444.2,134.9L442.6,135.0L440.9,135.1L439.4,135.2L437.8,135.3L436.2,135.4L434.6,135.5L433.0,135.6L431.4,135.8L429.7,135.9L428.1,136.0L426.5,136.2L424.9,136.3L423.3,136.4L421.7,136.6L420.1,136.7L418.6,136.9L417.0,137.1L415.4,137.2L413.8,137.4L412.2,137.6L410.5,137.8L408.9,137.9L407.3,138.1L405.7,138.3L404.1,138.5L402.5,138.7L401.0,138.9L399.4,139.1L397.8,139.3L396.2,139.5L394.6,139.7L393.0,139.9L391.4,140.1L389.7,140.3L388.1,140.5L386.5,140.7L384.9,140.9L383.3,141.1L381.8,141.3L380.2,141.5L378.6,141.7L377.0,141.9L375.4,142.0L373.8,142.2L372.2,142.4L370.5,142.6L368.9,142.7L367.3,142.9L365.7,143.0L364.1,143.2L362.5,143.3L361.0,143.5L359.3,143.6L357.7,143.7L356.1,143.8L354.5,143.9L352.9,144.0L351.3,144.1L349.7,144.2L348.1,144.3L346.5,144.3L344.9,144.4L343.3,144.4L341.8,144.5L340.1,144.5L338.5,144.5L336.9,144.6L335.3,144.6L333.7,144.6L332.1,144.6L330.5,144.6L328.9,144.5L327.3,144.5L325.7,144.5L324.1,144.4L322.6,144.4L320.9,144.3L319.3,144.3L317.7,144.2L316.1,144.2L314.5,144.1L312.9,144.0L311.3,143.9L309.7,143.8L308.1,143.7L306.5,143.6L304.9,143.5L303.4,143.4L301.7,143.2L300.1,143.1L298.5,143.0L296.9,142.8L295.3,142.7L293.7,142.5L292.1,142.3L290.5,142.2L288.9,142.0L287.3,141.8L285.7,141.6L284.1,141.4L282.5,141.2L280.9,141.0L279.3,140.7L277.7,140.5L276.1,140.3L274.4,140.0L272.8,139.8L271.2,139.5L269.6,139.3L268.0,139.0L266.5,138.7L264.9,138.4L263.3,138.2L261.7,137.9L260.1,137.6L258.5,137.3L256.9,137.0L255.2,136.7L253.6,136.4L252.0,136.1L250.4,135.8L248.8,135.5L247.3,135.2L245.7,134.8L244.1,134.5L242.5,134.2L240.9,133.9L239.3,133.6L237.7,133.3L236.0,133.0L234.4,132.7L232.8,132.4L231.2,132.0L229.6,131.7L228.1,131.4L226.5,131.1L224.9,130.8L223.3,130.5L221.7,130.3L220.1,130.0L218.5,129.7L216.8,129.4L215.2,129.1L213.6,128.8L212.0,128.6L210.4,128.3L208.8,128.0L207.3,127.8L205.6,127.5L204.0,127.3L202.4,127.0L200.8,126.8L199.2,126.6L197.6,126.3L196.0,126.1L194.4,125.9L192.8,125.7L191.2,125.5L189.6,125.3L188.1,125.1L186.4,124.9L184.8,124.7L183.2,124.5L181.6,124.3L180.0,124.1L178.4,123.9L176.8,123.8L175.2,123.6L173.6,123.4L172.0,123.2L170.4,123.1L168.9,122.9L167.2,122.7L165.6,122.6L164.0,122.4L162.4,122.3L160.8,122.1L159.2,121.9L157.6,121.8L156.0,121.6L154.4,121.5L152.8,121.3L151.2,121.1L149.7,121.0L148.0,120.8L146.4,120.7L144.8,120.6L143.2,120.4L141.6,120.3L140.0,120.1L138.4,120.0L136.8,119.9L135.2,119.8L133.6,119.6L132.0,119.5L130.4,119.4L128.8,119.3L127.2,119.2L125.6,119.1L124.0,119.0L122.4,118.9L120.8,118.9L119.1,118.8L117.5,118.7L115.9,118.7L114.3,118.6L112.8,118.6L111.2,118.5L109.6,118.5L108.0,118.5L106.4,118.5L104.8,118.4L103.2,118.4L101.6,118.4L100.0,118.5L98.3,118.5L96.7,118.5L95.1,118.5L93.6,118.6L92.0,118.6L90.4,118.7L88.8,118.7L87.2,118.8L85.6,118.9L84.0,119.0L82.4,119.1L80.8,119.2L79.1,119.3L77.5,119.4L75.9,119.5L74.4,119.7L72.8,119.8L71.2,119.9L69.6,120.1L68.0,120.2Z" fill="#3b82f6" fill-opacity="0.15" stroke="none"/>
<polyline points="68.0,126.4 69.6,170.5 71.2,127.5 72.8,140.1 74.4,120.9 75.9,81.9 77.5,158.8 79.1,89.3 82.4,58.5 84.0,39.8 85.6,69.2 87.2,107.4 88.8,147.2 90.4,79.9 92.0,101.5 93.6,108.6 95.1,145.6 96.7,161.1 98.3,113.2 101.6,50.7 103.2,32.9 104.8,67.6 106.4,110.8 108.0,154.5 109.6,210.0 111.2,180.7 112.8,178.8 114.3,170.2 115.9,131.5 117.5,98.6 120.8,31.2 122.4,33.5 124.0,66.4 125.6,114.1 127.2,121.3 128.8,140.3 130.4,143.2 132.0,72.9 133.6,69.6 135.2,152.7 136.8,113.7 138.4,43.0 140.0,38.5 143.2,65.5 144.8,107.9 146.4,166.1 148.0,140.1 149.7,125.6 151.2,90.7 152.8,171.6 154.4,161.7 156.0,122.8 157.6,60.5 159.2,49.9 162.4,77.1 164.0,127.2 165.6,206.8 167.2,179.9 168.9,151.0 170.4,124.8 172.0,161.0 173.6,176.8 175.2,114.2 176.8,52.9 178.4,39.4 181.6,71.3 183.2,115.7 184.8,138.4 186.4,156.8 188.1,105.8 189.6,96.4 191.2,120.0 192.8,147.5 194.4,114.0 196.0,50.6 197.6,39.1 200.8,51.0 202.4,95.9 204.0,177.9 205.6,133.6 207.3,107.2 208.8,127.3 210.4,115.6 212.0,158.2 213.6,116.9 215.2,75.2 216.8,50.8 220.1,80.2 221.7,131.5 223.3,180.1 224.9,155.6 226.5,162.6 228.1,100.6 229.6,144.5 231.2,185.0 232.8,144.9 234.4,36.9 236.0,69.2 239.3,115.3 240.9,128.2 244.1,201.8 247.3,80.7 252.0,161.0 253.6,94.2 255.2,71.1 256.9,75.6 258.5,103.8 260.1,151.4 261.7,195.6 263.3,219.4 264.9,134.0 266.5,168.7 268.0,179.3 269.6,171.8 272.8,124.1 274.4,83.4 276.1,69.8 277.7,111.7 279.3,139.6 280.9,185.7 282.5,221.2 284.1,190.7 285.7,107.5 287.3,175.4 288.9,179.7 292.1,83.3 293.7,87.6 295.3,65.0 296.9,101.6 298.5,149.3 300.1,226.3 301.7,247.8 303.4,108.1 304.9,127.6 306.5,162.3 308.1,155.5 311.3,110.7 312.9,86.8 314.5,61.7 316.1,94.8 317.7,144.9 319.3,173.8 320.9,153.9 322.6,165.2 324.1,159.9 325.7,170.3 327.3,161.2 328.9,104.0 330.5,79.5 333.7,46.9 335.3,97.1 336.9,149.7 338.5,225.9 340.1,211.7 341.8,204.7 343.3,148.2 344.9,203.9 346.5,190.9 348.1,135.8 349.7,98.1 352.9,56.1 354.5,101.1 356.1,154.7 357.7,190.1 359.3,215.7 361.0,114.4 362.5,176.1 364.1,201.4 365.7,195.1 367.3,126.6 368.9,94.4 377.0,152.9 378.6,173.4 380.2,111.6 381.8,160.2 384.9,184.0 388.1,91.3 391.4,67.1 393.0,89.3 396.2,168.4 397.8,215.7 399.4,184.8 401.0,171.9 402.5,166.2 404.1,98.8 405.7,72.2 407.3,90.9 408.9,60.6 410.5,57.4 412.2,79.5 413.8,127.3 415.4,175.9 417.0,135.2 418.6,139.5 420.1,152.0 421.7,161.8 423.3,158.8 424.9,115.8 426.5,101.6 428.1,57.4 429.7,56.2 431.4,71.8 433.0,167.0 434.6,202.8 436.2,184.0 437.8,216.4 439.4,133.7 440.9,138.2 442.6,139.3 444.2,123.3 445.8,100.5 447.4,68.0 449.0,58.7 450.6,74.1 452.2,145.7 453.8,196.2 455.4,234.2 457.0,121.5 458.6,112.7 460.1,181.6 463.4,145.4 466.6,80.8 468.2,59.9 469.8,79.7 476.2,192.9 477.8,237.2 479.3,209.2 480.9,136.4 482.6,117.3 484.2,105.5 485.8,54.1 487.4,62.6 489.0,72.4 495.4,165.5 497.0,107.9 498.5,176.1 500.1,160.0 501.8,133.3 503.4,104.6 506.6,76.8 514.6,119.7 516.2,144.7 517.8,229.5 519.4,187.3 521.0,132.6 522.6,113.2 524.2,71.5 525.8,77.1 527.4,73.9 530.6,192.9 532.3,117.8 533.9,149.6 537.0,213.4 540.2,120.7 543.4,88.1 545.0,76.8 549.8,204.0 551.5,129.3 553.1,154.1 554.6,126.6 556.2,224.5 557.8,139.3 559.4,107.7 561.0,92.9 562.6,86.7 564.2,86.3 570.6,108.7 572.3,90.9 575.4,205.0 577.0,182.3 578.6,127.0 580.2,99.6 581.8,107.0 583.4,110.4" fill="none" stroke="#9ca3af" stroke-width="1" opacity="0.6"/>
<polyline points="68.0,110.2 69.6,110.3 71.2,110.4 72.8,110.5 74.4,110.6 75.9,110.7 77.5,110.9 79.1,111.0 80.8,111.1 82.4,111.2 84.0,111.3 85.6,111.4 87.2,111.5 88.8,111.6 90.4,111.7 92.0,111.8 93.6,111.9 95.1,112.0 96.7,112.1 98.3,112.3 100.0,112.4 101.6,112.5 103.2,112.6 104.8,112.7 106.4,112.8 108.0,112.9 109.6,113.0 111.2,113.1 112.8,113.2 114.3,113.3 115.9,113.4 117.5,113.6 119.1,113.7 120.8,113.8 122.4,113.9 124.0,114.0 125.6,114.1 127.2,114.2 128.8,114.4 130.4,114.5 132.0,114.6 133.6,114.7 135.2,114.8 136.8,115.0 138.4,115.1 140.0,115.2 141.6,115.4 143.2,115.5 144.8,115.6 146.4,115.8 148.0,115.9 149.7,116.0 151.2,116.2 152.8,116.3 154.4,116.5 156.0,116.6 157.6,116.8 159.2,116.9 160.8,117.1 162.4,117.2 164.0,117.4 165.6,117.5 167.2,117.7 168.9,117.9 170.4,118.0 172.0,118.2 173.6,118.4 175.2,118.5 176.8,118.7 178.4,118.9 180.0,119.1 181.6,119.3 183.2,119.4 184.8,119.6 186.4,119.8 188.1,120.0 189.6,120.3 191.2,120.5 192.8,120.7 194.4,120.9 196.0,121.1 197.6,121.4 199.2,121.6 200.8,121.9 202.4,122.1 204.0,122.4 205.6,122.6 207.3,122.9 208.8,123.2 210.4,123.5 212.0,123.7 213.6,124.0 215.2,124.3 216.8,124.6 218.5,124.9 220.1,125.2 221.7,125.5 223.3,125.8 224.9,126.1 226.5,126.4 228.1,126.8 229.6,127.1 231.2,127.4 232.8,127.7 234.4,128.0 236.0,128.4 237.7,128.7 239.3,129.0 240.9,129.3 242.5,129.6 244.1,129.9 245.7,130.3 247.3,130.6 248.8,130.9 250.4,131.2 252.0,131.5 253.6,131.8 255.2,132.1 256.9,132.4 258.5,132.7 260.1,133.0 261.7,133.3 263.3,133.6 264.9,133.9 266.5,134.2 268.0,134.5 269.6,134.7 271.2,135.0 272.8,135.2 274.4,135.5 276.1,135.7 277.7,136.0 279.3,136.2 280.9,136.4 282.5,136.6 284.1,136.9 285.7,137.1 287.3,137.3 288.9,137.4 290.5,137.6 292.1,137.8 293.7,138.0 295.3,138.1 296.9,138.3 298.5,138.4 300.1,138.6 301.7,138.7 303.4,138.8 304.9,138.9 306.5,139.1 308.1,139.2 309.7,139.3 311.3,139.4 312.9,139.5 314.5,139.5 316.1,139.6 317.7,139.7 319.3,139.7 320.9,139.8 322.6,139.8 324.1,139.9 325.7,139.9 327.3,140.0 328.9,140.0 330.5,140.0 332.1,140.0 333.7,140.0 335.3,140.0 336.9,140.0 338.5,139.9 340.1,139.9 341.8,139.9 343.3,139.8 344.9,139.8 346.5,139.7 348.1,139.6 349.7,139.6 351.3,139.5 352.9,139.4 354.5,139.3 356.1,139.2 357.7,139.0 359.3,138.9 361.0,138.8 362.5,138.6 364.1,138.5 365.7,138.4 367.3,138.2 368.9,138.0 370.5,137.9 372.2,137.7 373.8,137.5 375.4,137.3 377.0,137.1 378.6,137.0 380.2,136.8 381.8,136.6 383.3,136.4 384.9,136.2 386.5,136.0 388.1,135.8 389.7,135.6 391.4,135.4 393.0,135.2 394.6,135.0 396.2,134.8 397.8,134.6 399.4,134.4 401.0,134.2 402.5,134.0 404.1,133.8 405.7,133.7 407.3,133.5 408.9,133.3 410.5,133.1 412.2,132.9 413.8,132.8 415.4,132.6 417.0,132.5 418.6,132.3 420.1,132.2 421.7,132.0 423.3,131.9 424.9,131.7 426.5,131.6 428.1,131.5 429.7,131.3 431.4,131.2 433.0,131.1 434.6,131.0 436.2,130.9 437.8,130.8 439.4,130.7 440.9,130.6 442.6,130.5 444.2,130.4 445.8,130.3 447.4,130.2 449.0,130.2 450.6,130.1 452.2,130.0 453.8,130.0 455.4,129.9 457.0,129.8 458.6,129.8 460.1,129.7 461.8,129.7 463.4,129.6 465.0,129.6 466.6,129.6 468.2,129.5 469.8,129.5 471.4,129.5 473.0,129.5 474.6,129.4 476.2,129.4 477.8,129.4 479.3,129.4 480.9,129.4 482.6,129.4 484.2,129.4 485.8,129.4 487.4,129.4 489.0,129.4 490.6,129.5 492.2,129.5 493.8,129.5 495.4,129.5 497.0,129.5 498.5,129.6 500.1,129.6 501.8,129.6 503.4,129.7 505.0,129.7 506.6,129.8 508.2,129.8 509.8,129.9 511.4,129.9 513.0,130.0 514.6,130.0 516.2,130.1 517.8,130.1 519.4,130.2 521.0,130.2 522.6,130.3 524.2,130.4 525.8,130.4 527.4,130.5 529.0,130.5 530.6,130.6 532.3,130.6 533.9,130.7 535.4,130.7 537.0,130.8 538.6,130.9 540.2,130.9 541.8,131.0 543.4,131.0 545.0,131.1 546.6,131.1 548.2,131.2 549.8,131.2 551.5,131.3 553.1,131.3 554.6,131.3 556.2,131.4 557.8,131.4 559.4,131.5 561.0,131.5 562.6,131.6 564.2,131.6 565.8,131.7 567.4,131.7 569.0,131.7 570.6,131.8 572.3,131.8 573.8,131.9 575.4,131.9 577.0,132.0 578.6,132.0 580.2,132.1 581.8,132.1 583.4,132.2 585.0,132.2 586.6,132.2 588.2,132.3 589.8,132.3" fill="none" stroke="#2563eb" stroke-width="2.2"/>
<path d="M68.0,100.2L69.6,100.6L71.2,100.9L72.8,101.3L74.4,101.6L75.9,102.0L77.5,102.3L79.1,102.6L80.8,102.9L82.4,103.3L84.0,103.6L85.6,103.9L87.2,104.2L88.8,104.5L90.4,104.7L92.0,105.0L93.6,105.3L95.1,105.5L96.7,105.8L98.3,106.0L100.0,106.3L101.6,106.5L103.2,106.7L104.8,106.9L106.4,107.1L108.0,107.3L109.6,107.5L111.2,107.7L112.8,107.9L114.3,108.1L115.9,108.2L117.5,108.4L119.1,108.5L120.8,108.7L122.4,108.8L124.0,109.0L125.6,109.1L127.2,109.3L128.8,109.4L130.4,109.5L132.0,109.7L133.6,109.8L135.2,109.9L136.8,110.1L138.4,110.2L140.0,110.3L141.6,110.4L143.2,110.6L144.8,110.7L146.4,110.8L148.0,111.0L149.7,111.1L151.2,111.2L152.8,111.3L154.4,111.5L156.0,111.6L157.6,111.8L159.2,111.9L160.8,112.0L162.4,112.2L164.0,112.3L165.6,112.5L167.2,112.6L168.9,112.8L170.4,113.0L172.0,113.1L173.6,113.3L175.2,113.5L176.8,113.6L178.4,113.8L180.0,114.0L181.6,114.2L183.2,114.4L184.8,114.6L186.4,114.8L188.1,115.0L189.6,115.2L191.2,115.5L192.8,115.7L194.4,115.9L196.0,116.2L197.6,116.4L199.2,116.7L200.8,116.9L202.4,117.2L204.0,117.5L205.6,117.8L207.3,118.0L208.8,118.3L210.4,118.6L212.0,118.9L213.6,119.2L215.2,119.5L216.8,119.8L218.5,120.1L220.1,120.5L221.7,120.8L223.3,121.1L224.9,121.4L226.5,121.8L228.1,122.1L229.6,122.4L231.2,122.7L232.8,123.1L234.4,123.4L236.0,123.7L237.7,124.1L239.3,124.4L240.9,124.7L242.5,125.0L244.1,125.4L245.7,125.7L247.3,126.0L248.8,126.3L250.4,126.7L252.0,127.0L253.6,127.3L255.2,127.6L256.9,127.9L258.5,128.2L260.1,128.5L261.7,128.8L263.3,129.1L264.9,129.4L266.5,129.6L268.0,129.9L269.6,130.2L271.2,130.5L272.8,130.7L274.4,131.0L276.1,131.2L277.7,131.4L279.3,131.7L280.9,131.9L282.5,132.1L284.1,132.3L285.7,132.5L287.3,132.7L288.9,132.9L290.5,133.1L292.1,133.3L293.7,133.4L295.3,133.6L296.9,133.7L298.5,133.9L300.1,134.0L301.7,134.2L303.4,134.3L304.9,134.4L306.5,134.5L308.1,134.6L309.7,134.7L311.3,134.8L312.9,134.9L314.5,135.0L316.1,135.1L317.7,135.1L319.3,135.2L320.9,135.2L322.6,135.3L324.1,135.3L325.7,135.4L327.3,135.4L328.9,135.4L330.5,135.4L332.1,135.4L333.7,135.4L335.3,135.4L336.9,135.4L338.5,135.4L340.1,135.3L341.8,135.3L343.3,135.2L344.9,135.2L346.5,135.1L348.1,135.0L349.7,134.9L351.3,134.8L352.9,134.7L354.5,134.6L356.1,134.5L357.7,134.4L359.3,134.2L361.0,134.1L362.5,134.0L364.1,133.8L365.7,133.7L367.3,133.5L368.9,133.3L370.5,133.2L372.2,133.0L373.8,132.8L375.4,132.6L377.0,132.4L378.6,132.2L380.2,132.0L381.8,131.9L383.3,131.7L384.9,131.5L386.5,131.3L388.1,131.1L389.7,130.9L391.4,130.7L393.0,130.5L394.6,130.3L396.2,130.1L397.8,129.9L399.4,129.7L401.0,129.5L402.5,129.3L404.1,129.2L405.7,129.0L407.3,128.8L408.9,128.6L410.5,128.5L412.2,128.3L413.8,128.2L415.4,128.0L417.0,127.9L418.6,127.7L420.1,127.6L421.7,127.4L423.3,127.3L424.9,127.2L426.5,127.0L428.1,126.9L429.7,126.8L431.4,126.7L433.0,126.6L434.6,126.5L436.2,126.3L437.8,126.2L439.4,126.2L440.9,126.1L442.6,126.0L444.2,125.9L445.8,125.8L447.4,125.7L449.0,125.6L450.6,125.6L452.2,125.5L453.8,125.4L455.4,125.4L457.0,125.3L458.6,125.2L460.1,125.2L461.8,125.1L463.4,125.1L465.0,125.1L466.6,125.0L468.2,125.0L469.8,124.9L471.4,124.9L473.0,124.9L474.6,124.9L476.2,124.8L477.8,124.8L479.3,124.8L480.9,124.8L482.6,124.8L484.2,124.8L485.8,124.8L487.4,124.8L489.0,124.8L490.6,124.8L492.2,124.8L493.8,124.8L495.4,124.8L497.0,124.8L498.5,124.9L500.1,124.9L501.8,124.9L503.4,124.9L505.0,125.0L506.6,125.0L508.2,125.0L509.8,125.1L511.4,125.1L513.0,125.1L514.6,125.2L516.2,125.2L517.8,125.3L519.4,125.3L521.0,125.3L522.6,125.4L524.2,125.4L525.8,125.4L527.4,125.5L529.0,125.5L530.6,125.5L532.3,125.6L533.9,125.6L535.4,125.6L537.0,125.6L538.6,125.6L540.2,125.6L541.8,125.6L543.4,125.6L545.0,125.6L546.6,125.6L548.2,125.6L549.8,125.6L551.5,125.5L553.1,125.5L554.6,125.5L556.2,125.4L557.8,125.3L559.4,125.3L561.0,125.2L562.6,125.1L564.2,125.0L565.8,124.9L567.4,124.8L569.0,124.7L570.6,124.6L572.3,124.5L573.8,124.4L575.4,124.2L577.0,124.1L578.6,123.9L580.2,123.8L581.8,123.6L583.4,123.5L585.0,123.3L586.6,123.1L588.2,122.9L589.8,122.7L589.8,142.0L588.2,141.7L586.6,141.4L585.0,141.1L583.4,140.8L581.8,140.6L580.2,140.3L578.6,140.1L577.0,139.8L575.4,139.6L573.8,139.4L572.3,139.2L570.6,139.0L569.0,138.8L567.4,138.6L565.8,138.4L564.2,138.2L562.6,138.0L561.0,137.8L559.4,137.7L557.8,137.5L556.2,137.4L554.6,137.2L553.1,137.1L551.5,137.0L549.8,136.8L548.2,136.7L546.6,136.6L545.0,136.5L543.4,136.4L541.8,136.3L540.2,136.2L538.6,136.1L537.0,136.0L535.4,135.9L533.9,135.8L532.3,135.7L530.6,135.6L529.0,135.5L527.4,135.4L525.8,135.4L524.2,135.3L522.6,135.2L521.0,135.1L519.4,135.1L517.8,135.0L516.2,134.9L514.6,134.9L513.0,134.8L511.4,134.7L509.8,134.7L508.2,134.6L506.6,134.5L505.0,134.5L503.4,134.4L501.8,134.4L500.1,134.3L498.5,134.3L497.0,134.3L495.4,134.2L493.8,134.2L492.2,134.2L490.6,134.1L489.0,134.1L487.4,134.1L485.8,134.1L484.2,134.0L482.6,134.0L480.9,134.0L479.3,134.0L477.8,134.0L476.2,134.0L474.6,134.0L473.0,134.0L471.4,134.1L469.8,134.1L468.2,134.1L466.6,134.1L465.0,134.2L463.4,134.2L461.8,134.2L460.1,134.3L458.6,134.3L457.0,134.4L455.4,134.4L453.8,134.5L452.2,134.5L450.6,134.6L449.0,134.7L447.4,134.8L445.8,134.8L444.2,134.9L442.6,135.0L440.9,135.1L439.4,135.2L437.8,135.3L436.2,135.4L434.6,135.5L433.0,135.6L431.4,135.8L429.7,135.9L428.1,136.0L426.5,136.2L424.9,136.3L423.3,136.4L421.7,136.6L420.1,136.7L418.6,136.9L417.0,137.1L415.4,137.2L413.8,137.4L412.2,137.6L410.5,137.8L408.9,137.9L407.3,138.1L405.7,138.3L404.1,138.5L402.5,138.7L401.0,138.9L399.4,139.1L397.8,139.3L396.2,139.5L394.6,139.7L393.0,139.9L391.4,140.1L389.7,140.3L388.1,140.5L386.5,140.7L384.9,140.9L383.3,141.1L381.8,141.3L380.2,141.5L378.6,141.7L377.0,141.9L375.4,142.0L373.8,142.2L372.2,142.4L370.5,142.6L368.9,142.7L367.3,142.9L365.7,143.0L364.1,143.2L362.5,143.3L361.0,143.5L359.3,143.6L357.7,143.7L356.1,143.8L354.5,143.9L352.9,144.0L351.3,144.1L349.7,144.2L348.1,144.3L346.5,144.3L344.9,144.4L343.3,144.4L341.8,144.5L340.1,144.5L338.5,144.5L336.9,144.6L335.3,144.6L333.7,144.6L332.1,144.6L330.5,144.6L328.9,144.5L327.3,144.5L325.7,144.5L324.1,144.4L322.6,144.4L320.9,144.3L319.3,144.3L317.7,144.2L316.1,144.2L314.5,144.1L312.9,144.0L311.3,143.9L309.7,143.8L308.1,143.7L306.5,143.6L304.9,143.5L303.4,143.4L301.7,143.2L300.1,143.1L298.5,143.0L296.9,142.8L295.3,142.7L293.7,142.5L292.1,142.3L290.5,142.2L288.9,142.0L287.3,141.8L285.7,141.6L284.1,141.4L282.5,141.2L280.9,141.0L279.3,140.7L277.7,140.5L276.1,140.3L274.4,140.0L272.8,139.8L271.2,139.5L269.6,139.3L268.0,139.0L266.5,138.7L264.9,138.4L263.3,138.2L261.7,137.9L260.1,137.6L258.5,137.3L256.9,137.0L255.2,136.7L253.6,136.4L252.0,136.1L250.4,135.8L248.8,135.5L247.3,135.2L245.7,134.8L244.1,134.5L242.5,134.2L240.9,133.9L239.3,133.6L237.7,133.3L236.0,133.0L234.4,132.7L232.8,132.4L231.2,132.0L229.6,131.7L228.1,131.4L226.5,131.1L224.9,130.8L223.3,130.5L221.7,130.3L220.1,130.0L218.5,129.7L216.8,129.4L215.2,129.1L213.6,128.8L212.0,128.6L210.4,128.3L208.8,128.0L207.3,127.8L205.6,127.5L204.0,127.3L202.4,127.0L200.8,126.8L199.2,126.6L197.6,126.3L196.0,126.1L194.4,125.9L192.8,125.7L191.2,125.5L189.6,125.3L188.1,125.1L186.4,124.9L184.8,124.7L183.2,124.5L181.6,124.3L180.0,124.1L178.4,123.9L176.8,123.8L175.2,123.6L173.6,123.4L172.0,123.2L170.4,123.1L168.9,122.9L167.2,122.7L165.6,122.6L164.0,122.4L162.4,122.3L160.8,122.1L159.2,121.9L157.6,121.8L156.0,121.6L154.4,121.5L152.8,121.3L151.2,121.1L149.7,121.0L148.0,120.8L146.4,120.7L144.8,120.6L143.2,120.4L141.6,120.3L140.0,120.1L138.4,120.0L136.8,119.9L135.2,119.8L133.6,119.6L132.0,119.5L130.4,119.4L128.8,119.3L127.2,119.2L125.6,119.1L124.0,119.0L122.4,118.9L120.8,118.9L119.1,118.8L117.5,118.7L115.9,118.7L114.3,118.6L112.8,118.6L111.2,118.5L109.6,118.5L108.0,118.5L106.4,118.5L104.8,118.4L103.2,118.4L101.6,118.4L100.0,118.5L98.3,118.5L96.7,118.5L95.1,118.5L93.6,118.6L92.0,118.6L90.4,118.7L88.8,118.7L87.2,118.8L85.6,118.9L84.0,119.0L82.4,119.1L80.8,119.2L79.1,119.3L77.5,119.4L75.9,119.5L74.4,119.7L72.8,119.8L71.2,119.9L69.6,120.1L68.0,120.2Z" fill="#ef4444" fill-opacity="0.15" stroke="none"/>
<polyline points="68.0,110.2 69.6,110.3 71.2,110.4 72.8,110.5 74.4,110.6 75.9,110.7 77.5,110.9 79.1,111.0 80.8,111.1 82.4,111.2 84.0,111.3 85.6,111.4 87.2,111.5 88.8,111.6 90.4,111.7 92.0,111.8 93.6,111.9 95.1,112.0 96.7,112.1 98.3,112.3 100.0,112.4 101.6,112.5 103.2,112.6 104.8,112.7 106.4,112.8 108.0,112.9 109.6,113.0 111.2,113.1 112.8,113.2 114.3,113.3 115.9,113.4 117.5,113.6 119.1,113.7 120.8,113.8 122.4,113.9 124.0,114.0 125.6,114.1 127.2,114.2 128.8,114.4 130.4,114.5 132.0,114.6 133.6,114.7 135.2,114.8 136.8,115.0 138.4,115.1 140.0,115.2 141.6,115.4 143.2,115.5 144.8,115.6 146.4,115.8 148.0,115.9 149.7,116.0 151.2,116.2 152.8,116.3 154.4,116.5 156.0,116.6 157.6,116.8 159.2,116.9 160.8,117.1 162.4,117.2 164.0,117.4 165.6,117.5 167.2,117.7 168.9,117.9 170.4,118.0 172.0,118.2 173.6,118.4 175.2,118.5 176.8,118.7 178.4,118.9 180.0,119.1 181.6,119.3 183.2,119.4 184.8,119.6 186.4,119.8 188.1,120.0 189.6,120.3 191.2,120.5 192.8,120.7 194.4,120.9 196.0,121.1 197.6,121.4 199.2,121.6 200.8,121.9 202.4,122.1 204.0,122.4 205.6,122.6 207.3,122.9 208.8,123.2 210.4,123.5 212.0,123.7 213.6,124.0 215.2,124.3 216.8,124.6 218.5,124.9 220.1,125.2 221.7,125.5 223.3,125.8 224.9,126.1 226.5,126.4 228.1,126.8 229.6,127.1 231.2,127.4 232.8,127.7 234.4,128.0 236.0,128.4 237.7,128.7 239.3,129.0 240.9,129.3 242.5,129.6 244.1,129.9 245.7,130.3 247.3,130.6 248.8,130.9 250.4,131.2 252.0,131.5 253.6,131.8 255.2,132.1 256.9,132.4 258.5,132.7 260.1,133.0 261.7,133.3 263.3,133.6 264.9,133.9 266.5,134.2 268.0,134.5 269.6,134.7 271.2,135.0 272.8,135.2 274.4,135.5 276.1,135.7 277.7,136.0 279.3,136.2 280.9,136.4 282.5,136.6 284.1,136.9 285.7,137.1 287.3,137.3 288.9,137.4 290.5,137.6 292.1,137.8 293.7,138.0 295.3,138.1 296.9,138.3 298.5,138.4 300.1,138.6 301.7,138.7 303.4,138.8 304.9,138.9 306.5,139.1 308.1,139.2 309.7,139.3 311.3,139.4 312.9,139.5 314.5,139.5 316.1,139.6 317.7,139.7 319.3,139.7 320.9,139.8 322.6,139.8 324.1,139.9 325.7,139.9 327.3,140.0 328.9,140.0 330.5,140.0 332.1,140.0 333.7,140.0 335.3,140.0 336.9,140.0 338.5,139.9 340.1,139.9 341.8,139.9 343.3,139.8 344.9,139.8 346.5,139.7 348.1,139.6 349.7,139.6 351.3,139.5 352.9,139.4 354.5,139.3 356.1,139.2 357.7,139.0 359.3,138.9 361.0,138.8 362.5,138.6 364.1,138.5 365.7,138.4 367.3,138.2 368.9,138.0 370.5,137.9 372.2,137.7 373.8,137.5 375.4,137.3 377.0,137.1 378.6,137.0 380.2,136.8 381.8,136.6 383.3,136.4 384.9,136.2 386.5,136.0 388.1,135.8 389.7,135.6 391.4,135.4 393.0,135.2 394.6,135.0 396.2,134.8 397.8,134.6 399.4,134.4 401.0,134.2 402.5,134.0 404.1,133.8 405.7,133.7 407.3,133.5 408.9,133.3 410.5,133.1 412.2,132.9 413.8,132.8 415.4,132.6 417.0,132.5 418.6,132.3 420.1,132.2 421.7,132.0 423.3,131.9 424.9,131.7 426.5,131.6 428.1,131.5 429.7,131.3 431.4,131.2 433.0,131.1 434.6,131.0 436.2,130.9 437.8,130.8 439.4,130.7 440.9,130.6 442.6,130.5 444.2,130.4 445.8,130.3 447.4,130.2 449.0,130.2 450.6,130.1 452.2,130.0 453.8,130.0 455.4,129.9 457.0,129.8 458.6,129.8 460.1,129.7 461.8,129.7 463.4,129.6 465.0,129.6 466.6,129.6 468.2,129.5 469.8,129.5 471.4,129.5 473.0,129.5 474.6,129.4 476.2,129.4 477.8,129.4 479.3,129.4 480.9,129.4 482.6,129.4 484.2,129.4 485.8,129.4 487.4,129.4 489.0,129.4 490.6,129.5 492.2,129.5 493.8,129.5 495.4,129.5 497.0,129.5 498.5,129.6 500.1,129.6 501.8,129.6 503.4,129.7 505.0,129.7 506.6,129.8 508.2,129.8 509.8,129.9 511.4,129.9 513.0,130.0 514.6,130.0 516.2,130.1 517.8,130.1 519.4,130.2 521.0,130.2 522.6,130.3 524.2,130.4 525.8,130.4 527.4,130.5 529.0,130.5 530.6,130.6 532.3,130.6 533.9,130.7 535.4,130.7 537.0,130.8 538.6,130.9 540.2,130.9 541.8,131.0 543.4,131.0 545.0,131.1 546.6,131.1 548.2,131.2 549.8,131.2 551.5,131.3 553.1,131.3 554.6,131.3 556.2,131.4 557.8,131.4 559.4,131.5 561.0,131.5 562.6,131.6 564.2,131.6 565.8,131.7 567.4,131.7 569.0,131.7 570.6,131.8 572.3,131.8 573.8,131.9 575.4,131.9 577.0,132.0 578.6,132.0 580.2,132.1 581.8,132.1 583.4,132.2 585.0,132.2 586.6,132.2 588.2,132.3 589.8,132.3" fill="none" stroke="#dc2626" stroke-width="2" stroke-dasharray="6 3"/>
<path d="M591.4,122.5L593.0,122.3L594.6,122.1L596.2,121.9L597.9,121.6L599.5,121.4L601.1,121.2L602.7,120.9L604.3,120.7L605.9,120.4L607.5,120.2L609.1,119.9L610.7,119.7L612.3,119.4L613.9,119.1L615.5,118.8L617.1,118.6L618.7,118.3L620.3,118.0L621.9,117.7L623.5,117.4L625.1,117.1L626.7,116.8L628.3,116.5L629.9,116.2L631.5,115.9L633.1,115.5L634.7,115.2L636.3,114.9L637.9,114.5L639.5,114.2L641.1,113.9L642.7,113.5L644.3,113.2L645.9,112.8L647.5,112.5L649.1,112.1L650.7,111.8L652.3,111.4L653.9,111.1L655.5,110.7L657.1,110.3L658.7,110.0L660.3,109.6L661.9,109.2L663.5,108.8L665.1,108.4L666.7,108.0L668.3,107.7L669.9,107.3L671.5,106.9L673.1,106.5L674.7,106.1L676.3,105.7L677.9,105.3L679.5,104.9L681.1,104.4L682.7,104.0L684.3,103.6L685.9,103.2L687.5,102.8L689.1,102.4L690.7,101.9L692.3,101.5L693.9,101.1L695.5,100.6L697.1,100.2L698.7,99.8L700.3,99.3L701.9,98.9L703.5,98.4L705.1,98.0L706.7,97.5L708.3,97.1L709.9,96.6L711.5,96.2L713.1,95.7L714.7,95.2L716.3,94.8L717.9,94.3L719.5,93.9L721.1,93.4L722.7,92.9L724.3,92.4L725.9,92.0L727.5,91.5L729.1,91.0L730.7,90.5L732.3,90.0L733.9,89.5L735.5,89.0L737.1,88.5L738.7,88.1L740.3,87.6L741.9,87.1L743.5,86.6L745.1,86.1L746.7,85.5L748.3,85.0L749.9,84.5L751.5,84.0L753.1,83.5L754.7,83.0L756.3,82.5L757.9,82.0L759.5,81.4L761.1,80.9L762.7,80.4L764.3,79.9L765.9,79.3L767.5,78.8L769.1,78.3L770.7,77.7L772.3,77.2L773.9,76.6L775.5,76.1L777.1,75.6L778.7,75.0L780.3,74.5L781.9,73.9L783.5,73.4L785.2,72.8L786.8,72.3L788.4,71.7L790.0,71.1L791.6,70.6L793.2,70.0L794.8,69.5L796.4,68.9L798.0,68.3L799.6,67.7L801.2,67.2L802.8,66.6L804.4,66.0L806.0,65.5L807.6,64.9L809.2,64.3L810.8,63.7L812.4,63.1L814.0,62.5L815.6,61.9L817.2,61.4L818.8,60.8L820.4,60.2L822.0,59.6L823.6,59.0L825.2,58.4L826.8,57.8L828.4,57.2L830.0,56.6L831.6,56.0L833.2,55.4L834.8,54.8L836.4,54.1L838.0,53.5L839.6,52.9L841.2,52.3L842.8,51.7L844.4,51.1L846.0,50.4L847.6,49.8L849.2,49.2L850.8,48.6L852.4,47.9L854.0,47.3L855.6,46.7L857.2,46.0L858.8,45.4L860.4,44.8L862.0,44.1L863.6,43.5L865.2,42.9L866.8,42.2L868.4,41.6L870.0,40.9L871.6,40.3L873.2,39.6L874.8,39.0L876.4,38.3L878.0,37.7L878.0,243.4L876.4,242.7L874.8,241.9L873.2,241.2L871.6,240.4L870.0,239.7L868.4,239.0L866.8,238.2L865.2,237.5L863.6,236.7L862.0,236.0L860.4,235.3L858.8,234.6L857.2,233.8L855.6,233.1L854.0,232.4L852.4,231.7L850.8,231.0L849.2,230.2L847.6,229.5L846.0,228.8L844.4,228.1L842.8,227.4L841.2,226.7L839.6,226.0L838.0,225.3L836.4,224.6L834.8,223.9L833.2,223.2L831.6,222.5L830.0,221.8L828.4,221.1L826.8,220.4L825.2,219.7L823.6,219.0L822.0,218.3L820.4,217.6L818.8,216.9L817.2,216.2L815.6,215.6L814.0,214.9L812.4,214.2L810.8,213.5L809.2,212.9L807.6,212.2L806.0,211.5L804.4,210.8L802.8,210.2L801.2,209.5L799.6,208.9L798.0,208.2L796.4,207.5L794.8,206.9L793.2,206.2L791.6,205.6L790.0,204.9L788.4,204.3L786.8,203.6L785.2,203.0L783.5,202.3L781.9,201.7L780.3,201.0L778.7,200.4L777.1,199.8L775.5,199.1L773.9,198.5L772.3,197.9L770.7,197.2L769.1,196.6L767.5,196.0L765.9,195.4L764.3,194.7L762.7,194.1L761.1,193.5L759.5,192.9L757.9,192.3L756.3,191.7L754.7,191.1L753.1,190.5L751.5,189.9L749.9,189.2L748.3,188.6L746.7,188.0L745.1,187.5L743.5,186.9L741.9,186.3L740.3,185.7L738.7,185.1L737.1,184.5L735.5,183.9L733.9,183.3L732.3,182.8L730.7,182.2L729.1,181.6L727.5,181.0L725.9,180.5L724.3,179.9L722.7,179.3L721.1,178.8L719.5,178.2L717.9,177.6L716.3,177.1L714.7,176.5L713.1,176.0L711.5,175.4L709.9,174.9L708.3,174.3L706.7,173.8L705.1,173.2L703.5,172.7L701.9,172.2L700.3,171.6L698.7,171.1L697.1,170.6L695.5,170.0L693.9,169.5L692.3,169.0L690.7,168.5L689.1,168.0L687.5,167.4L685.9,166.9L684.3,166.4L682.7,165.9L681.1,165.4L679.5,164.9L677.9,164.4L676.3,163.9L674.7,163.4L673.1,162.9L671.5,162.4L669.9,162.0L668.3,161.5L666.7,161.0L665.1,160.5L663.5,160.0L661.9,159.6L660.3,159.1L658.7,158.6L657.1,158.2L655.5,157.7L653.9,157.3L652.3,156.8L650.7,156.3L649.1,155.9L647.5,155.5L645.9,155.0L644.3,154.6L642.7,154.1L641.1,153.7L639.5,153.3L637.9,152.9L636.3,152.4L634.7,152.0L633.1,151.6L631.5,151.2L629.9,150.8L628.3,150.4L626.7,150.0L625.1,149.6L623.5,149.2L621.9,148.8L620.3,148.4L618.7,148.0L617.1,147.6L615.5,147.3L613.9,146.9L612.3,146.5L610.7,146.2L609.1,145.8L607.5,145.5L605.9,145.1L604.3,144.8L602.7,144.5L601.1,144.1L599.5,143.8L597.9,143.5L596.2,143.2L594.6,142.8L593.0,142.5L591.4,142.2Z" fill="#22c55e" fill-opacity="0.18" stroke="none"/>
<polyline points="591.4,132.4 593.0,132.4 594.6,132.5 596.2,132.5 597.9,132.6 599.5,132.6 601.1,132.7 602.7,132.7 604.3,132.7 605.9,132.8 607.5,132.8 609.1,132.9 610.7,132.9 612.3,133.0 613.9,133.0 615.5,133.1 617.1,133.1 618.7,133.2 620.3,133.2 621.9,133.2 623.5,133.3 625.1,133.3 626.7,133.4 628.3,133.4 629.9,133.5 631.5,133.5 633.1,133.6 634.7,133.6 636.3,133.7 637.9,133.7 639.5,133.7 641.1,133.8 642.7,133.8 644.3,133.9 645.9,133.9 647.5,134.0 649.1,134.0 650.7,134.1 652.3,134.1 653.9,134.2 655.5,134.2 657.1,134.2 658.7,134.3 660.3,134.3 661.9,134.4 663.5,134.4 665.1,134.5 666.7,134.5 668.3,134.6 669.9,134.6 671.5,134.7 673.1,134.7 674.7,134.7 676.3,134.8 677.9,134.8 679.5,134.9 681.1,134.9 682.7,135.0 684.3,135.0 685.9,135.1 687.5,135.1 689.1,135.2 690.7,135.2 692.3,135.2 693.9,135.3 695.5,135.3 697.1,135.4 698.7,135.4 700.3,135.5 701.9,135.5 703.5,135.6 705.1,135.6 706.7,135.7 708.3,135.7 709.9,135.7 711.5,135.8 713.1,135.8 714.7,135.9 716.3,135.9 717.9,136.0 719.5,136.0 721.1,136.1 722.7,136.1 724.3,136.2 725.9,136.2 727.5,136.3 729.1,136.3 730.7,136.3 732.3,136.4 733.9,136.4 735.5,136.5 737.1,136.5 738.7,136.6 740.3,136.6 741.9,136.7 743.5,136.7 745.1,136.8 746.7,136.8 748.3,136.8 749.9,136.9 751.5,136.9 753.1,137.0 754.7,137.0 756.3,137.1 757.9,137.1 759.5,137.2 761.1,137.2 762.7,137.3 764.3,137.3 765.9,137.3 767.5,137.4 769.1,137.4 770.7,137.5 772.3,137.5 773.9,137.6 775.5,137.6 777.1,137.7 778.7,137.7 780.3,137.8 781.9,137.8 783.5,137.8 785.2,137.9 786.8,137.9 788.4,138.0 790.0,138.0 791.6,138.1 793.2,138.1 794.8,138.2 796.4,138.2 798.0,138.3 799.6,138.3 801.2,138.3 802.8,138.4 804.4,138.4 806.0,138.5 807.6,138.5 809.2,138.6 810.8,138.6 812.4,138.7 814.0,138.7 815.6,138.8 817.2,138.8 818.8,138.8 820.4,138.9 822.0,138.9 823.6,139.0 825.2,139.0 826.8,139.1 828.4,139.1 830.0,139.2 831.6,139.2 833.2,139.3 834.8,139.3 836.4,139.3 838.0,139.4 839.6,139.4 841.2,139.5 842.8,139.5 844.4,139.6 846.0,139.6 847.6,139.7 849.2,139.7 850.8,139.8 852.4,139.8 854.0,139.9 855.6,139.9 857.2,139.9 858.8,140.0 860.4,140.0 862.0,140.1 863.6,140.1 865.2,140.2 866.8,140.2 868.4,140.3 870.0,140.3 871.6,140.4 873.2,140.4 874.8,140.4 876.4,140.5 878.0,140.5" fill="none" stroke="#16a34a" stroke-width="2" stroke-dasharray="5 3"/>
<line x1="589.8" y1="30" x2="589.8" y2="260" stroke="#6b7280" stroke-width="1" stroke-dasharray="3 2"/>
<line x1="63" y1="214.0" x2="68" y2="214.0" stroke="#333" stroke-width="1.5"/>
<text x="60" y="214.0" text-anchor="end" dominant-baseline="middle" fill="#333">6.0</text>
<line x1="63" y1="137.3" x2="68" y2="137.3" stroke="#333" stroke-width="1.5"/>
<text x="60" y="137.3" text-anchor="end" dominant-baseline="middle" fill="#333">7.0</text>
<line x1="63" y1="60.7" x2="68" y2="60.7" stroke="#333" stroke-width="1.5"/>
<text x="60" y="60.7" text-anchor="end" dominant-baseline="middle" fill="#333">8.0</text>
<line x1="91.2" y1="260" x2="91.2" y2="265" stroke="#333" stroke-width="1.5"/>
<text x="91.2" y="278" text-anchor="middle" fill="#333">1986</text>
<line x1="129.6" y1="260" x2="129.6" y2="265" stroke="#333" stroke-width="1.5"/>
<text x="129.6" y="278" text-anchor="middle" fill="#333">1988</text>
<line x1="168.0" y1="260" x2="168.0" y2="265" stroke="#333" stroke-width="1.5"/>
<text x="168.0" y="278" text-anchor="middle" fill="#333">1990</text>
<line x1="206.5" y1="260" x2="206.5" y2="265" stroke="#333" stroke-width="1.5"/>
<text x="206.5" y="278" text-anchor="middle" fill="#333">1992</text>
<line x1="244.9" y1="260" x2="244.9" y2="265" stroke="#333" stroke-width="1.5"/>
<text x="244.9" y="278" text-anchor="middle" fill="#333">1994</text>
<line x1="283.3" y1="260" x2="283.3" y2="265" stroke="#333" stroke-width="1.5"/>
<text x="283.3" y="278" text-anchor="middle" fill="#333">1996</text>
<line x1="321.7" y1="260" x2="321.7" y2="265" stroke="#333" stroke-width="1.5"/>
<text x="321.7" y="278" text-anchor="middle" fill="#333">1998</text>
<line x1="360.2" y1="260" x2="360.2" y2="265" stroke="#333" stroke-width="1.5"/>
<text x="360.2" y="278" text-anchor="middle" fill="#333">2000</text>
<line x1="398.6" y1="260" x2="398.6" y2="265" stroke="#333" stroke-width="1.5"/>
<text x="398.6" y="278" text-anchor="middle" fill="#333">2002</text>
<line x1="437.0" y1="260" x2="437.0" y2="265" stroke="#333" stroke-width="1.5"/>
<text x="437.0" y="278" text-anchor="middle" fill="#333">2004</text>
<line x1="475.4" y1="260" x2="475.4" y2="265" stroke="#333" stroke-width="1.5"/>
<text x="475.4" y="278" text-anchor="middle" fill="#333">2006</text>
<line x1="513.8" y1="260" x2="513.8" y2="265" stroke="#333" stroke-width="1.5"/>
<text x="513.8" y="278" text-anchor="middle" fill="#333">2008</text>
<line x1="552.3" y1="260" x2="552.3" y2="265" stroke="#333" stroke-width="1.5"/>
<text x="552.3" y="278" text-anchor="middle" fill="#333">2010</text>
<line x1="590.7" y1="260" x2="590.7" y2="265" stroke="#333" stroke-width="1.5"/>
<text x="590.7" y="278" text-anchor="middle" fill="#333">2012</text>
<line x1="629.1" y1="260" x2="629.1" y2="265" stroke="#333" stroke-width="1.5"/>
<text x="629.1" y="278" text-anchor="middle" fill="#333">2014</text>
<line x1="667.5" y1="260" x2="667.5" y2="265" stroke="#333" stroke-width="1.5"/>
<text x="667.5" y="278" text-anchor="middle" fill="#333">2016</text>
<line x1="705.9" y1="260" x2="705.9" y2="265" stroke="#333" stroke-width="1.5"/>
<text x="705.9" y="278" text-anchor="middle" fill="#333">2018</text>
<line x1="744.4" y1="260" x2="744.4" y2="265" stroke="#333" stroke-width="1.5"/>
<text x="744.4" y="278" text-anchor="middle" fill="#333">2020</text>
<line x1="782.8" y1="260" x2="782.8" y2="265" stroke="#333" stroke-width="1.5"/>
<text x="782.8" y="278" text-anchor="middle" fill="#333">2022</text>
<line x1="821.2" y1="260" x2="821.2" y2="265" stroke="#333" stroke-width="1.5"/>
<text x="821.2" y="278" text-anchor="middle" fill="#333">2024</text>
<line x1="859.6" y1="260" x2="859.6" y2="265" stroke="#333" stroke-width="1.5"/>
<text x="859.6" y="278" text-anchor="middle" fill="#333">2026</text>
<line x1="68" y1="30" x2="68" y2="260" stroke="#333" stroke-width="1.5"/>
<line x1="68" y1="260" x2="878" y2="260" stroke="#333" stroke-width="1.5"/>
<text transform="rotate(-90)" x="-145" y="16" text-anchor="middle" fill="#374151" font-size="11">O₃ density [×10¹⁰ cm⁻³]</text>
<line x1="616" y1="44" x2="638" y2="44" stroke="#9ca3af" stroke-width="1"/>
<text x="643" y="48" fill="#374151" font-size="11">Observations (SAGE II / GOMOS)</text>
<line x1="616" y1="59" x2="638" y2="59" stroke="#2563eb" stroke-width="2.2"/>
<text x="643" y="63" fill="#374151" font-size="11">dlm-js smoothed level ±2σ</text>
<line x1="616" y1="74" x2="638" y2="74" stroke="#dc2626" stroke-width="1.8" stroke-dasharray="5 3"/>
<text x="643" y="78" fill="#374151" font-size="11">MATLAB/Octave reference ±2σ</text>
<line x1="616" y1="89" x2="638" y2="89" stroke="#16a34a" stroke-width="1.8" stroke-dasharray="5 3"/>
<text x="643" y="93" fill="#374151" font-size="11">15-year trend forecast ±2σ (level state)</text>
<text x="473" y="20" text-anchor="middle" fill="#374151" font-size="13" font-weight="bold">Stratospheric ozone — fit (order=1, trig=2, ns=12, 3 covariates) + 15y forecast, cold 108 ms, warm 51 ms, scan/WASM/f64</text>
<line x1="68" y1="545.0" x2="878" y2="545.0" stroke="#e5e7eb" stroke-width="1"/>
<line x1="68" y1="430.0" x2="878" y2="430.0" stroke="#e5e7eb" stroke-width="1"/>
<line x1="68" y1="315.0" x2="878" y2="315.0" stroke="#e5e7eb" stroke-width="1"/>
<line x1="68" y1="430.0" x2="878" y2="430.0" stroke="#6b7280" stroke-width="0.8" stroke-dasharray="2 2"/>
<polyline points="68.0,429.8 69.6,429.7 71.2,429.7 72.8,429.8 74.4,429.7 75.9,429.7 77.5,429.7 79.1,429.8 80.8,429.8 82.4,429.7 84.0,429.7 85.6,429.7 87.2,429.7 88.8,429.8 90.4,429.8 92.0,429.8 93.6,429.8 95.1,429.7 96.7,429.7 98.3,429.7 100.0,429.7 101.6,429.7 103.2,429.7 104.8,429.7 106.4,429.8 108.0,429.8 109.6,429.7 111.2,429.7 112.8,429.7 114.3,429.7 115.9,429.9 117.5,429.9 119.1,429.8 120.8,429.8 122.4,429.9 124.0,429.8 125.6,430.0 127.2,429.9 128.8,429.9 130.4,430.0 132.0,429.9 133.6,430.0 135.2,430.2 136.8,429.9 138.4,430.0 140.0,430.2 141.6,430.1 143.2,430.1 144.8,430.3 146.4,430.4 148.0,430.8 149.7,431.0 151.2,430.8 152.8,430.8 154.4,430.5 156.0,430.4 157.6,431.2 159.2,430.4 160.8,430.8 162.4,430.7 164.0,430.7 165.6,430.6 167.2,430.4 168.9,430.5 170.4,430.2 172.0,430.4 173.6,430.7 175.2,430.8 176.8,430.4 178.4,430.2 180.0,430.6 181.6,430.5 183.2,430.6 184.8,430.6 186.4,430.5 188.1,430.5 189.6,430.5 191.2,430.8 192.8,430.9 194.4,430.4 196.0,430.4 197.6,430.3 199.2,430.9 200.8,430.3 202.4,430.4 204.0,430.3 205.6,430.6 207.3,430.3 208.8,430.5 210.4,430.3 212.0,430.2 213.6,430.0 215.2,430.0 216.8,430.2 218.5,430.1 220.1,430.1 221.7,429.9 223.3,430.1 224.9,430.2 226.5,430.1 228.1,430.1 229.6,430.0 231.2,429.8 232.8,429.9 234.4,429.8 236.0,429.9 237.7,429.8 239.3,429.8 240.9,429.8 242.5,429.9 244.1,429.8 245.7,429.9 247.3,429.9 248.8,429.8 250.4,429.8 252.0,429.9 253.6,429.8 255.2,429.8 256.9,429.8 258.5,429.7 260.1,429.8 261.7,429.8 263.3,429.8 264.9,429.8 266.5,429.8 268.0,429.8 269.6,429.8 271.2,429.9 272.8,429.7 274.4,429.7 276.1,429.7 277.7,429.7 279.3,429.8 280.9,429.7 282.5,429.7 284.1,429.7 285.7,429.7 287.3,429.7 288.9,429.7 290.5,429.7 292.1,429.7 293.7,429.7 295.3,429.7 296.9,429.7 298.5,429.7 300.1,429.7 301.7,429.8 303.4,429.7 304.9,429.7 306.5,429.7 308.1,429.7 309.7,429.7 311.3,429.7 312.9,429.7 314.5,429.8 316.1,429.9 317.7,429.8 319.3,429.9 320.9,429.8 322.6,429.9 324.1,429.9 325.7,430.0 327.3,429.9 328.9,430.0 330.5,429.9 332.1,429.9 333.7,430.1 335.3,430.0 336.9,430.1 338.5,430.0 340.1,430.2 341.8,430.3 343.3,430.4 344.9,430.2 346.5,430.0 348.1,430.2 349.7,430.2 351.3,430.1 352.9,430.1 354.5,430.2 356.1,430.4 357.7,430.7 359.3,430.5 361.0,430.5 362.5,430.2 364.1,430.4 365.7,430.3 367.3,430.9 368.9,430.5 370.5,430.6 372.2,430.4 373.8,430.3 375.4,430.2 377.0,430.2 378.6,430.5 380.2,430.2 381.8,430.1 383.3,430.1 384.9,430.0 386.5,430.2 388.1,430.6 389.7,430.2 391.4,430.2 393.0,430.5 394.6,430.6 396.2,430.5 397.8,430.5 399.4,430.6 401.0,430.5 402.5,430.4 404.1,430.5 405.7,430.2 407.3,430.1 408.9,430.4 410.5,430.6 412.2,430.4 413.8,430.4 415.4,430.5 417.0,430.6 418.6,430.2 420.1,430.0 421.7,430.1 423.3,429.9 424.9,429.9 426.5,430.0 428.1,430.1 429.7,430.0 431.4,429.9 433.0,429.9 434.6,429.9 436.2,430.0 437.8,430.0 439.4,429.9 440.9,430.0 442.6,429.9 444.2,430.0 445.8,430.0 447.4,430.2 449.0,430.1 450.6,429.9 452.2,429.8 453.8,429.9 455.4,429.8 457.0,430.1 458.6,430.0 460.1,429.9 461.8,429.8 463.4,429.9 465.0,429.9 466.6,429.7 468.2,429.7 469.8,430.0 471.4,429.8 473.0,429.9 474.6,429.8 476.2,429.8 477.8,429.8 479.3,429.7 480.9,429.7 482.6,429.7 484.2,429.7 485.8,429.7 487.4,429.9 489.0,429.8 490.6,429.7 492.2,429.9 493.8,429.8 495.4,429.8 497.0,429.7 498.5,429.7 500.1,429.7 501.8,429.8 503.4,429.7 505.0,429.7 506.6,429.7 508.2,429.7 509.8,429.7 511.4,429.7 513.0,429.8 514.6,429.7 516.2,429.7 517.8,429.7 519.4,429.7 521.0,429.7 522.6,429.7 524.2,429.7 525.8,429.7 527.4,429.7 529.0,429.7 530.6,429.7 532.3,429.7 533.9,429.7 535.4,429.7 537.0,429.7 538.6,429.7 540.2,429.7 541.8,429.7 543.4,429.7 545.0,429.7 546.6,429.7 548.2,429.7 549.8,429.7 551.5,429.8 553.1,429.8 554.6,429.8 556.2,429.8 557.8,429.7 559.4,429.7 561.0,429.7 562.6,429.8 564.2,429.8 565.8,429.8 567.4,429.8 569.0,429.8 570.6,429.8 572.3,429.8 573.8,430.0 575.4,429.9 577.0,430.0 578.6,429.8 580.2,429.9 581.8,429.9 583.4,429.9 585.0,430.2 586.6,430.2 588.2,430.2 589.8,430.0" fill="none" stroke="#f59e0b" stroke-width="1.8"/>
<polyline points="68.0,485.4 69.6,475.7 71.2,464.0 72.8,452.9 74.4,445.7 75.9,437.6 77.5,418.1 79.1,403.8 80.8,401.2 82.4,404.8 84.0,402.8 85.6,399.5 87.2,394.7 88.8,395.5 90.4,401.1 92.0,404.1 93.6,402.2 95.1,394.2 96.7,394.4 98.3,397.1 100.0,404.7 101.6,421.9 103.2,433.1 104.8,433.2 106.4,426.3 108.0,428.2 109.6,435.3 111.2,434.7 112.8,437.3 114.3,443.9 115.9,450.7 117.5,464.4 119.1,475.4 120.8,482.6 122.4,469.3 124.0,448.2 125.6,424.8 127.2,410.5 128.8,411.6 130.4,411.0 132.0,411.4 133.6,413.0 135.2,406.3 136.8,402.3 138.4,405.9 140.0,415.8 141.6,419.1 143.2,416.9 144.8,414.9 146.4,413.9 148.0,419.4 149.7,419.0 151.2,423.7 152.8,421.1 154.4,412.0 156.0,418.5 157.6,433.8 159.2,449.3 160.8,457.5 162.4,463.4 164.0,467.1 165.6,465.6 167.2,463.1 168.9,457.6 170.4,455.4 172.0,449.7 173.6,441.9 175.2,422.4 176.8,410.2 178.4,404.7 180.0,401.4 181.6,401.1 183.2,395.9 184.8,392.2 186.4,393.4 188.1,400.9 189.6,404.4 191.2,401.9 192.8,398.8 194.4,402.4 196.0,417.6 197.6,436.5 199.2,448.6 200.8,445.1 202.4,439.2 204.0,439.3 205.6,442.5 207.3,443.7 208.8,443.3 210.4,449.1 212.0,451.3 213.6,454.2 215.2,467.3 216.8,477.5 218.5,474.9 220.1,462.5 221.7,449.9 223.3,440.6 224.9,426.0 226.5,410.2 228.1,407.0 229.6,405.6 231.2,395.7 232.8,385.9 234.4,394.4 236.0,408.2 237.7,416.3 239.3,414.2 240.9,416.6 242.5,420.3 244.1,423.3 245.7,427.6 247.3,432.6 248.8,432.1 250.4,437.7 252.0,451.1 253.6,477.0 255.2,495.5 256.9,498.6 258.5,495.9 260.1,479.8 261.7,455.9 263.3,435.3 264.9,422.2 266.5,417.5 268.0,413.1 269.6,402.8 271.2,392.3 272.8,389.9 274.4,393.7 276.1,398.7 277.7,406.4 279.3,407.9 280.9,414.1 282.5,422.8 284.1,424.0 285.7,424.3 287.3,428.6 288.9,426.3 290.5,441.0 292.1,458.3 293.7,477.5 295.3,485.7 296.9,485.6 298.5,483.4 300.1,476.6 301.7,463.2 303.4,456.5 304.9,446.7 306.5,444.1 308.1,425.6 309.7,406.9 311.3,395.3 312.9,391.5 314.5,395.8 316.1,392.4 317.7,393.9 319.3,395.9 320.9,403.0 322.6,411.8 324.1,417.3 325.7,419.3 327.3,418.8 328.9,438.1 330.5,465.4 332.1,482.4 333.7,486.8 335.3,486.4 336.9,484.3 338.5,469.5 340.1,453.6 341.8,439.5 343.3,435.5 344.9,424.8 346.5,410.6 348.1,395.9 349.7,390.9 351.3,393.4 352.9,397.7 354.5,397.5 356.1,396.6 357.7,399.8 359.3,399.4 361.0,401.6 362.5,403.3 364.1,398.5 365.7,389.9 367.3,390.5 368.9,411.6 370.5,431.4 372.2,438.1 373.8,438.4 375.4,435.5 377.0,439.2 378.6,439.5 380.2,443.9 381.8,445.0 383.3,445.7 384.9,440.9 386.5,446.4 388.1,463.0 389.7,478.2 391.4,490.6 393.0,484.3 394.6,475.4 396.2,465.7 397.8,453.2 399.4,440.9 401.0,431.9 402.5,419.3 404.1,399.5 405.7,389.5 407.3,390.3 408.9,399.5 410.5,397.3 412.2,396.8 413.8,397.0 415.4,400.4 417.0,409.9 418.6,413.9 420.1,412.4 421.7,414.7 423.3,422.2 424.9,434.7 426.5,447.4 428.1,462.0 429.7,469.0 431.4,470.3 433.0,468.7 434.6,470.2 436.2,463.5 437.8,452.5 439.4,441.5 440.9,435.0 442.6,416.4 444.2,400.9 445.8,396.4 447.4,397.0 449.0,397.6 450.6,403.7 452.2,397.7 453.8,399.9 455.4,402.3 457.0,408.9 458.6,409.4 460.1,405.3 461.8,412.7 463.4,429.7 465.0,449.9 466.6,469.8 468.2,477.2 469.8,482.1 471.4,485.4 473.0,485.5 474.6,483.3 476.2,481.3 477.8,473.3 479.3,459.6 480.9,449.5 482.6,431.0 484.2,412.8 485.8,405.0 487.4,404.5 489.0,393.9 490.6,389.5 492.2,388.1 493.8,395.0 495.4,403.8 497.0,403.9 498.5,401.2 500.1,406.2 501.8,421.5 503.4,448.9 505.0,472.4 506.6,482.3 508.2,482.8 509.8,483.3 511.4,485.3 513.0,484.4 514.6,482.3 516.2,470.4 517.8,456.7 519.4,444.0 521.0,425.0 522.6,404.9 524.2,396.0 525.8,397.9 527.4,399.6 529.0,398.1 530.6,400.3 532.3,396.9 533.9,394.9 535.4,394.3 537.0,398.1 538.6,391.6 540.2,392.2 541.8,403.9 543.4,423.9 545.0,428.6 546.6,425.6 548.2,422.0 549.8,426.5 551.5,433.8 553.1,433.4 554.6,436.9 556.2,443.2 557.8,464.8 559.4,485.7 561.0,499.2 562.6,490.5 564.2,464.7 565.8,436.1 567.4,407.4 569.0,393.3 570.6,394.7 572.3,403.2 573.8,402.6 575.4,401.4 577.0,401.3 578.6,395.7 580.2,396.5 581.8,398.7 583.4,400.0 585.0,398.2 586.6,395.0 588.2,408.3 589.8,431.6" fill="none" stroke="#8b5cf6" stroke-width="1.8"/>
<polyline points="68.0,429.8 69.6,429.7 71.2,429.7 72.8,429.8 74.4,429.7 75.9,429.7 77.5,429.7 79.1,429.8 80.8,429.8 82.4,429.7 84.0,429.7 85.6,429.7 87.2,429.7 88.8,429.8 90.4,429.8 92.0,429.8 93.6,429.8 95.1,429.7 96.7,429.7 98.3,429.7 100.0,429.7 101.6,429.7 103.2,429.7 104.8,429.7 106.4,429.8 108.0,429.8 109.6,429.7 111.2,429.7 112.8,429.7 114.3,429.7 115.9,429.9 117.5,429.9 119.1,429.8 120.8,429.8 122.4,429.9 124.0,429.8 125.6,430.0 127.2,429.9 128.8,429.9 130.4,430.0 132.0,429.9 133.6,430.0 135.2,430.2 136.8,429.9 138.4,430.0 140.0,430.2 141.6,430.1 143.2,430.1 144.8,430.3 146.4,430.4 148.0,430.8 149.7,431.0 151.2,430.8 152.8,430.8 154.4,430.5 156.0,430.4 157.6,431.2 159.2,430.4 160.8,430.8 162.4,430.7 164.0,430.7 165.6,430.6 167.2,430.4 168.9,430.5 170.4,430.2 172.0,430.4 173.6,430.7 175.2,430.8 176.8,430.4 178.4,430.2 180.0,430.6 181.6,430.5 183.2,430.6 184.8,430.6 186.4,430.5 188.1,430.5 189.6,430.5 191.2,430.8 192.8,430.9 194.4,430.4 196.0,430.4 197.6,430.3 199.2,430.9 200.8,430.3 202.4,430.4 204.0,430.3 205.6,430.6 207.3,430.3 208.8,430.5 210.4,430.3 212.0,430.2 213.6,430.0 215.2,430.0 216.8,430.2 218.5,430.1 220.1,430.1 221.7,429.9 223.3,430.1 224.9,430.2 226.5,430.1 228.1,430.1 229.6,430.0 231.2,429.8 232.8,429.9 234.4,429.8 236.0,429.9 237.7,429.8 239.3,429.8 240.9,429.8 242.5,429.9 244.1,429.8 245.7,429.9 247.3,429.9 248.8,429.8 250.4,429.8 252.0,429.9 253.6,429.8 255.2,429.8 256.9,429.8 258.5,429.7 260.1,429.8 261.7,429.8 263.3,429.8 264.9,429.8 266.5,429.8 268.0,429.8 269.6,429.8 271.2,429.9 272.8,429.7 274.4,429.7 276.1,429.7 277.7,429.7 279.3,429.8 280.9,429.7 282.5,429.7 284.1,429.7 285.7,429.7 287.3,429.7 288.9,429.7 290.5,429.7 292.1,429.7 293.7,429.7 295.3,429.7 296.9,429.7 298.5,429.7 300.1,429.7 301.7,429.8 303.4,429.7 304.9,429.7 306.5,429.7 308.1,429.7 309.7,429.7 311.3,429.7 312.9,429.7 314.5,429.8 316.1,429.9 317.7,429.8 319.3,429.9 320.9,429.8 322.6,429.9 324.1,429.9 325.7,430.0 327.3,429.9 328.9,430.0 330.5,429.9 332.1,429.9 333.7,430.1 335.3,430.0 336.9,430.1 338.5,430.0 340.1,430.2 341.8,430.3 343.3,430.4 344.9,430.2 346.5,430.0 348.1,430.2 349.7,430.2 351.3,430.1 352.9,430.1 354.5,430.2 356.1,430.4 357.7,430.7 359.3,430.5 361.0,430.5 362.5,430.2 364.1,430.4 365.7,430.3 367.3,430.9 368.9,430.5 370.5,430.6 372.2,430.4 373.8,430.3 375.4,430.2 377.0,430.2 378.6,430.5 380.2,430.2 381.8,430.1 383.3,430.1 384.9,430.0 386.5,430.2 388.1,430.6 389.7,430.2 391.4,430.2 393.0,430.5 394.6,430.6 396.2,430.5 397.8,430.5 399.4,430.6 401.0,430.5 402.5,430.4 404.1,430.5 405.7,430.2 407.3,430.1 408.9,430.4 410.5,430.6 412.2,430.4 413.8,430.4 415.4,430.5 417.0,430.6 418.6,430.2 420.1,430.0 421.7,430.1 423.3,429.9 424.9,429.9 426.5,430.0 428.1,430.1 429.7,430.0 431.4,429.9 433.0,429.9 434.6,429.9 436.2,430.0 437.8,430.0 439.4,429.9 440.9,430.0 442.6,429.9 444.2,430.0 445.8,430.0 447.4,430.2 449.0,430.1 450.6,429.9 452.2,429.8 453.8,429.9 455.4,429.8 457.0,430.1 458.6,430.0 460.1,429.9 461.8,429.8 463.4,429.9 465.0,429.9 466.6,429.7 468.2,429.7 469.8,430.0 471.4,429.8 473.0,429.9 474.6,429.8 476.2,429.8 477.8,429.8 479.3,429.7 480.9,429.7 482.6,429.7 484.2,429.7 485.8,429.7 487.4,429.9 489.0,429.8 490.6,429.7 492.2,429.9 493.8,429.8 495.4,429.8 497.0,429.7 498.5,429.7 500.1,429.7 501.8,429.8 503.4,429.7 505.0,429.7 506.6,429.7 508.2,429.7 509.8,429.7 511.4,429.7 513.0,429.8 514.6,429.7 516.2,429.7 517.8,429.7 519.4,429.7 521.0,429.7 522.6,429.7 524.2,429.7 525.8,429.7 527.4,429.7 529.0,429.7 530.6,429.7 532.3,429.7 533.9,429.7 535.4,429.7 537.0,429.7 538.6,429.7 540.2,429.7 541.8,429.7 543.4,429.7 545.0,429.7 546.6,429.7 548.2,429.7 549.8,429.7 551.5,429.8 553.1,429.8 554.6,429.8 556.2,429.8 557.8,429.7 559.4,429.7 561.0,429.7 562.6,429.8 564.2,429.8 565.8,429.8 567.4,429.8 569.0,429.8 570.6,429.8 572.3,429.8 573.8,430.0 575.4,429.9 577.0,430.0 578.6,429.8 580.2,429.9 581.8,429.9 583.4,429.9 585.0,430.2 586.6,430.2 588.2,430.2 589.8,430.0" fill="none" stroke="#dc2626" stroke-width="2" stroke-dasharray="6 3"/>
<polyline points="68.0,485.4 69.6,475.7 71.2,464.0 72.8,452.9 74.4,445.7 75.9,437.6 77.5,418.1 79.1,403.8 80.8,401.2 82.4,404.8 84.0,402.8 85.6,399.5 87.2,394.7 88.8,395.5 90.4,401.1 92.0,404.1 93.6,402.2 95.1,394.2 96.7,394.4 98.3,397.1 100.0,404.7 101.6,421.9 103.2,433.1 104.8,433.2 106.4,426.3 108.0,428.2 109.6,435.3 111.2,434.7 112.8,437.3 114.3,443.9 115.9,450.7 117.5,464.4 119.1,475.4 120.8,482.6 122.4,469.3 124.0,448.2 125.6,424.8 127.2,410.5 128.8,411.6 130.4,411.0 132.0,411.4 133.6,413.0 135.2,406.3 136.8,402.3 138.4,405.9 140.0,415.8 141.6,419.1 143.2,416.9 144.8,414.9 146.4,413.9 148.0,419.4 149.7,419.0 151.2,423.7 152.8,421.1 154.4,412.0 156.0,418.5 157.6,433.8 159.2,449.3 160.8,457.5 162.4,463.4 164.0,467.1 165.6,465.6 167.2,463.1 168.9,457.6 170.4,455.4 172.0,449.7 173.6,441.9 175.2,422.4 176.8,410.2 178.4,404.7 180.0,401.4 181.6,401.1 183.2,395.9 184.8,392.2 186.4,393.4 188.1,400.9 189.6,404.4 191.2,401.9 192.8,398.8 194.4,402.4 196.0,417.6 197.6,436.5 199.2,448.6 200.8,445.1 202.4,439.2 204.0,439.3 205.6,442.5 207.3,443.7 208.8,443.3 210.4,449.1 212.0,451.3 213.6,454.2 215.2,467.3 216.8,477.5 218.5,474.9 220.1,462.5 221.7,449.9 223.3,440.6 224.9,426.0 226.5,410.2 228.1,407.0 229.6,405.6 231.2,395.7 232.8,385.9 234.4,394.4 236.0,408.2 237.7,416.3 239.3,414.2 240.9,416.6 242.5,420.3 244.1,423.3 245.7,427.6 247.3,432.6 248.8,432.1 250.4,437.7 252.0,451.1 253.6,477.0 255.2,495.5 256.9,498.6 258.5,495.9 260.1,479.8 261.7,455.9 263.3,435.3 264.9,422.2 266.5,417.5 268.0,413.1 269.6,402.8 271.2,392.3 272.8,389.9 274.4,393.7 276.1,398.7 277.7,406.4 279.3,407.9 280.9,414.1 282.5,422.8 284.1,424.0 285.7,424.3 287.3,428.6 288.9,426.3 290.5,441.0 292.1,458.3 293.7,477.5 295.3,485.7 296.9,485.6 298.5,483.4 300.1,476.6 301.7,463.2 303.4,456.5 304.9,446.7 306.5,444.1 308.1,425.6 309.7,406.9 311.3,395.3 312.9,391.5 314.5,395.8 316.1,392.4 317.7,393.9 319.3,395.9 320.9,403.0 322.6,411.8 324.1,417.3 325.7,419.3 327.3,418.8 328.9,438.1 330.5,465.4 332.1,482.4 333.7,486.8 335.3,486.4 336.9,484.3 338.5,469.5 340.1,453.6 341.8,439.5 343.3,435.5 344.9,424.8 346.5,410.6 348.1,395.9 349.7,390.9 351.3,393.4 352.9,397.7 354.5,397.5 356.1,396.6 357.7,399.8 359.3,399.4 361.0,401.6 362.5,403.3 364.1,398.5 365.7,389.9 367.3,390.5 368.9,411.6 370.5,431.4 372.2,438.1 373.8,438.4 375.4,435.5 377.0,439.2 378.6,439.5 380.2,443.9 381.8,445.0 383.3,445.7 384.9,440.9 386.5,446.4 388.1,463.0 389.7,478.2 391.4,490.6 393.0,484.3 394.6,475.4 396.2,465.7 397.8,453.2 399.4,440.9 401.0,431.9 402.5,419.3 404.1,399.5 405.7,389.5 407.3,390.3 408.9,399.5 410.5,397.3 412.2,396.8 413.8,397.0 415.4,400.4 417.0,409.9 418.6,413.9 420.1,412.4 421.7,414.7 423.3,422.2 424.9,434.7 426.5,447.4 428.1,462.0 429.7,469.0 431.4,470.3 433.0,468.7 434.6,470.2 436.2,463.5 437.8,452.5 439.4,441.5 440.9,435.0 442.6,416.4 444.2,400.9 445.8,396.4 447.4,397.0 449.0,397.6 450.6,403.7 452.2,397.7 453.8,399.9 455.4,402.3 457.0,408.9 458.6,409.4 460.1,405.3 461.8,412.7 463.4,429.7 465.0,449.9 466.6,469.8 468.2,477.2 469.8,482.1 471.4,485.4 473.0,485.5 474.6,483.3 476.2,481.3 477.8,473.3 479.3,459.6 480.9,449.5 482.6,431.0 484.2,412.8 485.8,405.0 487.4,404.5 489.0,393.9 490.6,389.5 492.2,388.1 493.8,395.0 495.4,403.8 497.0,403.9 498.5,401.2 500.1,406.2 501.8,421.5 503.4,448.9 505.0,472.4 506.6,482.3 508.2,482.8 509.8,483.3 511.4,485.3 513.0,484.4 514.6,482.3 516.2,470.4 517.8,456.7 519.4,444.0 521.0,425.0 522.6,404.9 524.2,396.0 525.8,397.9 527.4,399.6 529.0,398.1 530.6,400.3 532.3,396.9 533.9,394.9 535.4,394.3 537.0,398.1 538.6,391.6 540.2,392.2 541.8,403.9 543.4,423.9 545.0,428.6 546.6,425.6 548.2,422.0 549.8,426.5 551.5,433.8 553.1,433.4 554.6,436.9 556.2,443.2 557.8,464.8 559.4,485.7 561.0,499.2 562.6,490.5 564.2,464.7 565.8,436.1 567.4,407.4 569.0,393.3 570.6,394.7 572.3,403.2 573.8,402.6 575.4,401.4 577.0,401.3 578.6,395.7 580.2,396.5 581.8,398.7 583.4,400.0 585.0,398.2 586.6,395.0 588.2,408.3 589.8,431.6" fill="none" stroke="#dc2626" stroke-width="2" stroke-dasharray="2 3"/>
<line x1="63" y1="545.0" x2="68" y2="545.0" stroke="#333" stroke-width="1.5"/>
<text x="60" y="545.0" text-anchor="end" dominant-baseline="middle" fill="#333">-1</text>
<line x1="63" y1="430.0" x2="68" y2="430.0" stroke="#333" stroke-width="1.5"/>
<text x="60" y="430.0" text-anchor="end" dominant-baseline="middle" fill="#333">0</text>
<line x1="63" y1="315.0" x2="68" y2="315.0" stroke="#333" stroke-width="1.5"/>
<text x="60" y="315.0" text-anchor="end" dominant-baseline="middle" fill="#333">1</text>
<line x1="91.2" y1="545" x2="91.2" y2="550" stroke="#333" stroke-width="1.5"/>
<text x="91.2" y="563" text-anchor="middle" fill="#333">1986</text>
<line x1="129.6" y1="545" x2="129.6" y2="550" stroke="#333" stroke-width="1.5"/>
<text x="129.6" y="563" text-anchor="middle" fill="#333">1988</text>
<line x1="168.0" y1="545" x2="168.0" y2="550" stroke="#333" stroke-width="1.5"/>
<text x="168.0" y="563" text-anchor="middle" fill="#333">1990</text>
<line x1="206.5" y1="545" x2="206.5" y2="550" stroke="#333" stroke-width="1.5"/>
<text x="206.5" y="563" text-anchor="middle" fill="#333">1992</text>
<line x1="244.9" y1="545" x2="244.9" y2="550" stroke="#333" stroke-width="1.5"/>
<text x="244.9" y="563" text-anchor="middle" fill="#333">1994</text>
<line x1="283.3" y1="545" x2="283.3" y2="550" stroke="#333" stroke-width="1.5"/>
<text x="283.3" y="563" text-anchor="middle" fill="#333">1996</text>
<line x1="321.7" y1="545" x2="321.7" y2="550" stroke="#333" stroke-width="1.5"/>
<text x="321.7" y="563" text-anchor="middle" fill="#333">1998</text>
<line x1="360.2" y1="545" x2="360.2" y2="550" stroke="#333" stroke-width="1.5"/>
<text x="360.2" y="563" text-anchor="middle" fill="#333">2000</text>
<line x1="398.6" y1="545" x2="398.6" y2="550" stroke="#333" stroke-width="1.5"/>
<text x="398.6" y="563" text-anchor="middle" fill="#333">2002</text>
<line x1="437.0" y1="545" x2="437.0" y2="550" stroke="#333" stroke-width="1.5"/>
<text x="437.0" y="563" text-anchor="middle" fill="#333">2004</text>
<line x1="475.4" y1="545" x2="475.4" y2="550" stroke="#333" stroke-width="1.5"/>
<text x="475.4" y="563" text-anchor="middle" fill="#333">2006</text>
<line x1="513.8" y1="545" x2="513.8" y2="550" stroke="#333" stroke-width="1.5"/>
<text x="513.8" y="563" text-anchor="middle" fill="#333">2008</text>
<line x1="552.3" y1="545" x2="552.3" y2="550" stroke="#333" stroke-width="1.5"/>
<text x="552.3" y="563" text-anchor="middle" fill="#333">2010</text>
<line x1="590.7" y1="545" x2="590.7" y2="550" stroke="#333" stroke-width="1.5"/>
<text x="590.7" y="563" text-anchor="middle" fill="#333">2012</text>
<line x1="629.1" y1="545" x2="629.1" y2="550" stroke="#333" stroke-width="1.5"/>
<text x="629.1" y="563" text-anchor="middle" fill="#333">2014</text>
<line x1="667.5" y1="545" x2="667.5" y2="550" stroke="#333" stroke-width="1.5"/>
<text x="667.5" y="563" text-anchor="middle" fill="#333">2016</text>
<line x1="705.9" y1="545" x2="705.9" y2="550" stroke="#333" stroke-width="1.5"/>
<text x="705.9" y="563" text-anchor="middle" fill="#333">2018</text>
<line x1="744.4" y1="545" x2="744.4" y2="550" stroke="#333" stroke-width="1.5"/>
<text x="744.4" y="563" text-anchor="middle" fill="#333">2020</text>
<line x1="782.8" y1="545" x2="782.8" y2="550" stroke="#333" stroke-width="1.5"/>
<text x="782.8" y="563" text-anchor="middle" fill="#333">2022</text>
<line x1="821.2" y1="545" x2="821.2" y2="550" stroke="#333" stroke-width="1.5"/>
<text x="821.2" y="563" text-anchor="middle" fill="#333">2024</text>
<line x1="859.6" y1="545" x2="859.6" y2="550" stroke="#333" stroke-width="1.5"/>
<text x="859.6" y="563" text-anchor="middle" fill="#333">2026</text>
<line x1="68" y1="315" x2="68" y2="545" stroke="#333" stroke-width="1.5"/>
<line x1="68" y1="545" x2="878" y2="545" stroke="#333" stroke-width="1.5"/>
<text transform="rotate(-90)" x="-430" y="16" text-anchor="middle" fill="#374151" font-size="11">Contribution [×10⁹ cm⁻³]</text>
<text x="473" y="583" text-anchor="middle" fill="#4b5563" font-size="11">Year</text>
<line x1="78" y1="329" x2="100" y2="329" stroke="#f59e0b" stroke-width="1.8"/>
<text x="105" y="333" fill="#374151" font-size="11">dlm-js solar β̂·X_solar</text>
<line x1="78" y1="344" x2="100" y2="344" stroke="#8b5cf6" stroke-width="1.8"/>
<text x="105" y="348" fill="#374151" font-size="11">dlm-js QBO β̂_qbo1·X₁ + β̂_qbo2·X₂</text>
<line x1="78" y1="359" x2="100" y2="359" stroke="#dc2626" stroke-width="1.4" stroke-dasharray="5 3"/>
<text x="105" y="363" fill="#374151" font-size="11">MATLAB solar (reference)</text>
<line x1="78" y1="374" x2="100" y2="374" stroke="#dc2626" stroke-width="1.4" stroke-dasharray="2 3"/>
<text x="105" y="378" fill="#374151" font-size="11">MATLAB QBO (reference)</text>
<text x="473" y="305" text-anchor="middle" fill="#374151" font-size="13" font-weight="bold">Proxy covariate contributions (solar + QBO)</text>
</svg>