<svg width="860" height="578" xmlns="http://www.w3.org/2000/svg" font-family="sans-serif" font-size="12">
<rect width="860" height="578" fill="white"/>
<line x1="68" y1="250.0" x2="838" y2="250.0" stroke="#e5e7eb" stroke-width="1"/>
<line x1="68" y1="200.0" x2="838" y2="200.0" stroke="#e5e7eb" stroke-width="1"/>
<line x1="68" y1="150.0" x2="838" y2="150.0" stroke="#e5e7eb" stroke-width="1"/>
<line x1="68" y1="100.0" x2="838" y2="100.0" stroke="#e5e7eb" stroke-width="1"/>
<line x1="68" y1="50.0" x2="838" y2="50.0" stroke="#e5e7eb" stroke-width="1"/>
<rect x="761.4" y="30" width="76.60000000000002" height="230" fill="#f3f4f6" fill-opacity="0.7"/>
<path d="M68.0,125.8L70.1,126.0L72.3,126.3L74.4,126.5L76.5,126.7L78.6,126.9L80.7,127.2L82.8,127.4L84.9,127.6L87.1,127.8L89.2,128.0L91.4,128.2L93.5,128.4L95.6,128.6L97.8,128.7L99.9,128.9L102.0,129.1L104.1,129.3L106.2,129.4L108.3,129.6L110.5,129.7L112.6,129.9L114.8,130.0L116.9,130.2L119.0,130.3L121.2,130.4L123.3,130.6L125.4,130.7L127.5,130.8L129.6,130.9L131.7,131.0L133.8,131.1L136.0,131.2L138.1,131.3L140.3,131.4L142.4,131.5L144.5,131.6L146.7,131.7L148.8,131.8L151.0,131.9L153.1,132.0L155.1,132.0L157.3,132.1L159.4,132.2L161.5,132.3L163.7,132.4L165.8,132.5L168.0,132.5L170.1,132.6L172.2,132.7L174.4,132.8L176.5,132.9L178.6,133.0L180.7,133.1L182.8,133.1L184.9,133.2L187.1,133.3L189.2,133.4L191.4,133.5L193.5,133.6L195.6,133.7L197.7,133.8L199.9,133.9L202.0,134.0L204.1,134.1L206.2,134.2L208.3,134.3L210.4,134.4L212.6,134.6L214.7,134.7L216.9,134.8L219.0,134.9L221.1,135.0L223.3,135.2L225.4,135.3L227.6,135.4L229.6,135.6L231.7,135.7L233.8,135.9L235.9,136.0L238.1,136.2L240.2,136.4L242.4,136.5L244.5,136.7L246.6,136.9L248.8,137.0L250.9,137.2L253.1,137.4L255.2,137.6L257.3,137.8L259.4,138.0L261.5,138.2L263.6,138.4L265.8,138.6L267.9,138.8L270.1,139.0L272.2,139.2L274.3,139.4L276.5,139.6L278.6,139.8L280.7,140.1L282.8,140.3L284.9,140.5L287.0,140.7L289.2,140.9L291.3,141.1L293.5,141.3L295.6,141.6L297.7,141.8L299.9,142.0L302.0,142.2L304.1,142.4L306.2,142.6L308.3,142.8L310.4,143.0L312.5,143.2L314.7,143.4L316.8,143.6L319.0,143.8L321.1,144.0L323.2,144.2L325.4,144.4L327.5,144.6L329.7,144.8L331.7,145.0L333.8,145.2L335.9,145.3L338.0,145.5L340.2,145.7L342.3,145.8L344.5,146.0L346.6,146.2L348.7,146.3L350.9,146.4L353.0,146.6L355.2,146.7L357.3,146.9L359.4,147.0L361.5,147.1L363.6,147.2L365.8,147.3L367.9,147.4L370.1,147.6L372.2,147.7L374.3,147.8L376.4,147.8L378.6,147.9L380.7,148.0L382.8,148.1L384.9,148.2L387.0,148.2L389.1,148.3L391.3,148.4L393.4,148.4L395.6,148.5L397.7,148.5L399.8,148.6L402.0,148.6L404.1,148.6L406.3,148.7L408.3,148.7L410.4,148.7L412.5,148.7L414.6,148.7L416.8,148.8L418.9,148.8L421.1,148.7L423.2,148.7L425.3,148.7L427.5,148.7L429.6,148.7L431.8,148.7L433.8,148.6L435.9,148.6L438.0,148.5L440.2,148.5L442.3,148.4L444.4,148.4L446.6,148.3L448.7,148.2L450.8,148.2L453.0,148.1L455.1,148.0L457.3,147.9L459.4,147.8L461.5,147.7L463.6,147.6L465.7,147.5L467.9,147.4L470.0,147.3L472.2,147.2L474.3,147.0L476.4,146.9L478.6,146.8L480.7,146.7L482.9,146.6L484.9,146.4L487.0,146.3L489.1,146.2L491.2,146.0L493.4,145.9L495.5,145.8L497.7,145.7L499.8,145.5L501.9,145.4L504.1,145.3L506.2,145.2L508.4,145.0L510.4,144.9L512.5,144.8L514.6,144.7L516.7,144.6L518.9,144.4L521.0,144.3L523.2,144.2L525.3,144.1L527.4,144.0L529.6,143.9L531.7,143.8L533.9,143.7L535.9,143.6L538.0,143.5L540.1,143.4L542.3,143.4L544.4,143.3L546.5,143.2L548.7,143.1L550.8,143.0L552.9,143.0L555.1,142.9L557.2,142.8L559.4,142.8L561.5,142.7L563.6,142.6L565.7,142.6L567.8,142.5L570.0,142.5L572.1,142.4L574.3,142.4L576.4,142.3L578.5,142.3L580.7,142.2L582.8,142.2L585.0,142.2L587.0,142.1L589.1,142.1L591.2,142.1L593.3,142.0L595.5,142.0L597.6,142.0L599.8,141.9L601.9,141.9L604.0,141.9L606.2,141.9L608.3,141.9L610.5,141.8L612.5,141.8L614.6,141.8L616.7,141.8L618.9,141.8L621.0,141.8L623.1,141.8L625.3,141.8L627.4,141.8L629.5,141.8L631.7,141.8L633.8,141.8L636.0,141.8L638.0,141.8L640.1,141.9L642.2,141.9L644.4,141.9L646.5,141.9L648.6,141.9L650.8,142.0L652.9,142.0L655.1,142.0L657.2,142.0L659.3,142.1L661.5,142.1L663.6,142.1L665.7,142.1L667.8,142.2L669.9,142.2L672.1,142.2L674.2,142.2L676.4,142.2L678.5,142.3L680.6,142.3L682.8,142.3L684.9,142.3L687.1,142.3L689.1,142.4L691.2,142.4L693.3,142.4L695.4,142.4L697.6,142.4L699.7,142.4L701.9,142.4L704.0,142.4L706.1,142.3L708.3,142.3L710.4,142.3L712.6,142.3L714.6,142.3L716.7,142.2L718.8,142.2L721.0,142.1L723.1,142.1L725.2,142.0L727.4,142.0L729.5,141.9L731.6,141.9L733.8,141.8L735.9,141.7L738.1,141.6L740.1,141.5L742.2,141.5L744.3,141.4L746.5,141.3L748.6,141.2L750.7,141.1L752.9,140.9L755.0,140.8L757.2,140.7L759.3,140.6L761.4,140.5L761.4,153.0L759.3,152.8L757.2,152.6L755.0,152.5L752.9,152.3L750.7,152.1L748.6,152.0L746.5,151.8L744.3,151.6L742.2,151.5L740.1,151.3L738.1,151.2L735.9,151.1L733.8,150.9L731.6,150.8L729.5,150.7L727.4,150.6L725.2,150.4L723.1,150.3L721.0,150.2L718.8,150.1L716.7,150.0L714.6,149.9L712.6,149.9L710.4,149.8L708.3,149.7L706.1,149.6L704.0,149.5L701.9,149.5L699.7,149.4L697.6,149.3L695.4,149.2L693.3,149.2L691.2,149.1L689.1,149.1L687.1,149.0L684.9,148.9L682.8,148.9L680.6,148.8L678.5,148.8L676.4,148.7L674.2,148.7L672.1,148.6L669.9,148.6L667.8,148.5L665.7,148.5L663.6,148.4L661.5,148.4L659.3,148.3L657.2,148.3L655.1,148.3L652.9,148.2L650.8,148.2L648.6,148.1L646.5,148.1L644.4,148.1L642.2,148.0L640.1,148.0L638.0,148.0L636.0,148.0L633.8,147.9L631.7,147.9L629.5,147.9L627.4,147.9L625.3,147.9L623.1,147.9L621.0,147.9L618.9,147.9L616.7,147.8L614.6,147.8L612.5,147.8L610.5,147.8L608.3,147.9L606.2,147.9L604.0,147.9L601.9,147.9L599.8,147.9L597.6,147.9L595.5,147.9L593.3,148.0L591.2,148.0L589.1,148.0L587.0,148.0L585.0,148.1L582.8,148.1L580.7,148.1L578.5,148.2L576.4,148.2L574.3,148.3L572.1,148.3L570.0,148.4L567.8,148.4L565.7,148.5L563.6,148.5L561.5,148.6L559.4,148.7L557.2,148.7L555.1,148.8L552.9,148.9L550.8,149.0L548.7,149.1L546.5,149.1L544.4,149.2L542.3,149.3L540.1,149.4L538.0,149.5L535.9,149.6L533.9,149.7L531.7,149.8L529.6,149.9L527.4,150.0L525.3,150.2L523.2,150.3L521.0,150.4L518.9,150.5L516.7,150.6L514.6,150.8L512.5,150.9L510.4,151.0L508.4,151.1L506.2,151.3L504.1,151.4L501.9,151.5L499.8,151.7L497.7,151.8L495.5,151.9L493.4,152.1L491.2,152.2L489.1,152.3L487.0,152.5L484.9,152.6L482.9,152.7L480.7,152.8L478.6,153.0L476.4,153.1L474.3,153.2L472.2,153.3L470.0,153.4L467.9,153.5L465.7,153.6L463.6,153.7L461.5,153.8L459.4,153.9L457.3,154.0L455.1,154.1L453.0,154.2L450.8,154.2L448.7,154.3L446.6,154.4L444.4,154.4L442.3,154.5L440.2,154.5L438.0,154.6L435.9,154.6L433.8,154.6L431.8,154.7L429.6,154.7L427.5,154.7L425.3,154.7L423.2,154.7L421.1,154.7L418.9,154.7L416.8,154.7L414.6,154.7L412.5,154.7L410.4,154.7L408.3,154.6L406.3,154.6L404.1,154.6L402.0,154.5L399.8,154.5L397.7,154.5L395.6,154.4L393.4,154.3L391.3,154.3L389.1,154.2L387.0,154.2L384.9,154.1L382.8,154.0L380.7,153.9L378.6,153.9L376.4,153.8L374.3,153.7L372.2,153.6L370.1,153.5L367.9,153.4L365.8,153.3L363.6,153.2L361.5,153.0L359.4,152.9L357.3,152.8L355.2,152.6L353.0,152.5L350.9,152.4L348.7,152.2L346.6,152.1L344.5,151.9L342.3,151.8L340.2,151.6L338.0,151.4L335.9,151.3L333.8,151.1L331.7,150.9L329.7,150.7L327.5,150.5L325.4,150.4L323.2,150.2L321.1,150.0L319.0,149.8L316.8,149.6L314.7,149.4L312.5,149.2L310.4,149.0L308.3,148.8L306.2,148.6L304.1,148.4L302.0,148.2L299.9,148.0L297.7,147.8L295.6,147.6L293.5,147.4L291.3,147.2L289.2,147.0L287.0,146.8L284.9,146.6L282.8,146.4L280.7,146.2L278.6,146.0L276.5,145.8L274.3,145.6L272.2,145.4L270.1,145.2L267.9,145.0L265.8,144.8L263.6,144.6L261.5,144.5L259.4,144.3L257.3,144.1L255.2,143.9L253.1,143.8L250.9,143.6L248.8,143.4L246.6,143.3L244.5,143.1L242.4,143.0L240.2,142.8L238.1,142.7L235.9,142.5L233.8,142.4L231.7,142.3L229.6,142.1L227.6,142.0L225.4,141.9L223.3,141.7L221.1,141.6L219.0,141.5L216.9,141.4L214.7,141.3L212.6,141.2L210.4,141.0L208.3,140.9L206.2,140.8L204.1,140.7L202.0,140.6L199.9,140.5L197.7,140.4L195.6,140.3L193.5,140.2L191.4,140.1L189.2,140.0L187.1,139.8L184.9,139.7L182.8,139.6L180.7,139.5L178.6,139.4L176.5,139.3L174.4,139.2L172.2,139.2L170.1,139.1L168.0,139.0L165.8,138.9L163.7,138.8L161.5,138.7L159.4,138.6L157.3,138.5L155.1,138.5L153.1,138.4L151.0,138.3L148.8,138.2L146.7,138.2L144.5,138.1L142.4,138.1L140.3,138.0L138.1,137.9L136.0,137.9L133.8,137.9L131.7,137.8L129.6,137.8L127.5,137.8L125.4,137.7L123.3,137.7L121.2,137.7L119.0,137.7L116.9,137.7L114.8,137.7L112.6,137.7L110.5,137.7L108.3,137.7L106.2,137.7L104.1,137.7L102.0,137.8L99.9,137.8L97.8,137.8L95.6,137.9L93.5,137.9L91.4,138.0L89.2,138.0L87.1,138.1L84.9,138.2L82.8,138.2L80.7,138.3L78.6,138.4L76.5,138.5L74.4,138.6L72.3,138.7L70.1,138.7L68.0,138.8Z" fill="#3b82f6" fill-opacity="0.15" stroke="none"/>
<polyline points="68.0,142.9 70.1,171.6 72.3,143.6 74.4,151.8 76.5,139.3 78.6,113.9 80.7,164.0 82.8,118.7 87.1,98.6 89.2,86.4 91.4,105.6 93.5,130.5 95.6,156.5 97.8,112.5 99.9,126.6 102.0,131.3 104.1,155.4 106.2,165.5 108.3,134.3 112.6,93.5 114.8,81.9 116.9,104.5 119.0,132.7 121.2,161.2 123.3,197.4 125.4,178.3 127.5,177.1 129.6,171.4 131.7,146.2 133.8,124.7 138.1,80.8 140.3,82.3 142.4,103.7 144.5,134.8 146.7,139.5 148.8,151.9 151.0,153.8 153.1,108.0 155.1,105.8 157.3,160.1 159.4,134.6 161.5,88.5 163.7,85.5 168.0,103.2 170.1,130.8 172.2,168.8 174.4,151.8 176.5,142.3 178.6,119.6 180.7,172.4 182.8,165.9 184.9,140.5 187.1,99.9 189.2,93.0 193.5,110.7 195.6,143.4 197.7,195.3 199.9,177.7 202.0,158.9 204.1,141.8 206.2,165.4 208.3,175.7 210.4,134.9 212.6,94.9 214.7,86.1 219.0,106.9 221.1,135.9 223.3,150.7 225.4,162.7 227.6,129.5 229.6,123.3 231.7,138.7 233.8,156.6 235.9,134.8 238.1,93.4 240.2,85.9 244.5,93.7 246.6,123.0 248.8,176.4 250.9,147.5 253.1,130.4 255.2,143.5 257.3,135.9 259.4,163.6 261.5,136.7 263.6,109.4 265.8,93.5 270.1,112.8 272.2,146.2 274.3,177.9 276.5,161.9 278.6,166.5 280.7,126.1 282.8,154.7 284.9,181.1 287.0,155.0 289.2,84.5 291.3,105.5 295.6,135.6 297.7,144.1 302.0,192.1 306.2,113.0 312.5,165.4 314.7,121.9 316.8,106.8 319.0,109.7 321.1,128.2 323.2,159.2 325.4,188.0 327.5,203.5 329.7,147.8 331.7,170.4 333.8,177.4 335.9,172.5 340.2,141.3 342.3,114.8 344.5,106.0 346.6,133.3 348.7,151.5 350.9,181.5 353.0,204.7 355.2,184.8 357.3,130.5 359.4,174.8 361.5,177.7 365.8,114.8 367.9,117.6 370.1,102.8 372.2,126.7 374.3,157.8 376.4,208.0 378.6,222.1 380.7,130.9 382.8,143.6 384.9,166.3 387.0,161.8 391.3,132.6 393.4,117.0 395.6,100.7 397.7,122.3 399.8,155.0 402.0,173.8 404.1,160.8 406.3,168.2 408.3,164.7 410.4,171.5 412.5,165.6 414.6,128.3 416.8,112.3 421.1,91.0 423.2,123.7 425.3,158.0 427.5,207.8 429.6,198.5 431.8,193.9 433.8,157.1 435.9,193.4 438.0,185.0 440.2,149.0 442.3,124.4 446.6,97.0 448.7,126.4 450.8,161.3 453.0,184.4 455.1,201.1 457.3,135.0 459.4,175.3 461.5,191.8 463.6,187.7 465.7,143.0 467.9,122.0 478.6,160.2 480.7,173.5 482.9,133.2 484.9,164.9 489.1,180.5 493.4,120.0 497.7,104.2 499.8,118.7 504.1,170.3 506.2,201.1 508.4,181.0 510.4,172.5 512.5,168.8 514.6,124.8 516.7,107.5 518.9,119.7 521.0,99.9 523.2,97.9 525.3,112.3 527.4,143.5 529.6,175.2 531.7,148.6 533.9,151.4 535.9,159.6 538.0,165.9 540.1,164.0 542.3,135.9 544.4,126.7 546.5,97.9 548.7,97.1 550.8,107.3 552.9,169.3 555.1,192.7 557.2,180.4 559.4,201.6 561.5,147.6 563.6,150.6 565.7,151.3 567.8,140.9 570.0,126.0 572.1,104.8 574.3,98.7 576.4,108.7 578.5,155.4 580.7,188.4 582.8,213.2 585.0,139.7 587.0,133.9 589.1,178.9 593.3,155.2 597.6,113.1 599.8,99.5 601.9,112.4 610.5,186.2 612.5,215.1 614.6,196.9 616.7,149.4 618.9,136.9 621.0,129.2 623.1,95.7 625.3,101.3 627.4,107.6 636.0,168.4 638.0,130.8 640.1,175.3 642.2,164.8 644.4,147.4 646.5,128.7 650.8,110.5 661.5,138.5 663.6,154.8 665.7,210.1 667.8,182.6 669.9,146.9 672.1,134.3 674.2,107.1 676.4,110.7 678.5,108.6 682.8,186.2 684.9,137.2 687.1,158.0 691.2,199.6 695.4,139.1 699.7,117.9 701.9,110.5 708.3,193.4 710.4,144.7 712.6,160.9 714.6,143.0 716.7,206.8 718.8,151.3 721.0,130.7 723.1,121.0 725.2,117.0 727.4,116.7 735.9,131.3 738.1,119.7 742.2,194.1 744.3,179.3 746.5,143.3 748.6,125.4 750.7,130.2 752.9,132.4" fill="none" stroke="#9ca3af" stroke-width="1" opacity="0.6"/>
<polyline points="68.0,132.3 70.1,132.4 72.3,132.5 74.4,132.5 76.5,132.6 78.6,132.7 80.7,132.7 82.8,132.8 84.9,132.9 87.1,132.9 89.2,133.0 91.4,133.1 93.5,133.1 95.6,133.2 97.8,133.3 99.9,133.4 102.0,133.4 104.1,133.5 106.2,133.6 108.3,133.6 110.5,133.7 112.6,133.8 114.8,133.9 116.9,133.9 119.0,134.0 121.2,134.1 123.3,134.1 125.4,134.2 127.5,134.3 129.6,134.4 131.7,134.4 133.8,134.5 136.0,134.6 138.1,134.6 140.3,134.7 142.4,134.8 144.5,134.9 146.7,134.9 148.8,135.0 151.0,135.1 153.1,135.2 155.1,135.2 157.3,135.3 159.4,135.4 161.5,135.5 163.7,135.6 165.8,135.7 168.0,135.8 170.1,135.8 172.2,135.9 174.4,136.0 176.5,136.1 178.6,136.2 180.7,136.3 182.8,136.4 184.9,136.5 187.1,136.6 189.2,136.7 191.4,136.8 193.5,136.9 195.6,137.0 197.7,137.1 199.9,137.2 202.0,137.3 204.1,137.4 206.2,137.5 208.3,137.6 210.4,137.7 212.6,137.9 214.7,138.0 216.9,138.1 219.0,138.2 221.1,138.3 223.3,138.5 225.4,138.6 227.6,138.7 229.6,138.9 231.7,139.0 233.8,139.1 235.9,139.3 238.1,139.4 240.2,139.6 242.4,139.8 244.5,139.9 246.6,140.1 248.8,140.2 250.9,140.4 253.1,140.6 255.2,140.8 257.3,141.0 259.4,141.1 261.5,141.3 263.6,141.5 265.8,141.7 267.9,141.9 270.1,142.1 272.2,142.3 274.3,142.5 276.5,142.7 278.6,142.9 280.7,143.1 282.8,143.3 284.9,143.5 287.0,143.7 289.2,143.9 291.3,144.1 293.5,144.4 295.6,144.6 297.7,144.8 299.9,145.0 302.0,145.2 304.1,145.4 306.2,145.6 308.3,145.8 310.4,146.0 312.5,146.2 314.7,146.4 316.8,146.6 319.0,146.8 321.1,147.0 323.2,147.2 325.4,147.4 327.5,147.6 329.7,147.8 331.7,147.9 333.8,148.1 335.9,148.3 338.0,148.5 340.2,148.6 342.3,148.8 344.5,149.0 346.6,149.1 348.7,149.3 350.9,149.4 353.0,149.5 355.2,149.7 357.3,149.8 359.4,149.9 361.5,150.1 363.6,150.2 365.8,150.3 367.9,150.4 370.1,150.5 372.2,150.6 374.3,150.7 376.4,150.8 378.6,150.9 380.7,151.0 382.8,151.1 384.9,151.1 387.0,151.2 389.1,151.3 391.3,151.3 393.4,151.4 395.6,151.4 397.7,151.5 399.8,151.5 402.0,151.6 404.1,151.6 406.3,151.6 408.3,151.7 410.4,151.7 412.5,151.7 414.6,151.7 416.8,151.7 418.9,151.7 421.1,151.7 423.2,151.7 425.3,151.7 427.5,151.7 429.6,151.7 431.8,151.7 433.8,151.6 435.9,151.6 438.0,151.5 440.2,151.5 442.3,151.5 444.4,151.4 446.6,151.3 448.7,151.3 450.8,151.2 453.0,151.1 455.1,151.0 457.3,150.9 459.4,150.9 461.5,150.8 463.6,150.7 465.7,150.6 467.9,150.5 470.0,150.3 472.2,150.2 474.3,150.1 476.4,150.0 478.6,149.9 480.7,149.8 482.9,149.6 484.9,149.5 487.0,149.4 489.1,149.3 491.2,149.1 493.4,149.0 495.5,148.9 497.7,148.7 499.8,148.6 501.9,148.5 504.1,148.3 506.2,148.2 508.4,148.1 510.4,148.0 512.5,147.8 514.6,147.7 516.7,147.6 518.9,147.5 521.0,147.4 523.2,147.3 525.3,147.1 527.4,147.0 529.6,146.9 531.7,146.8 533.9,146.7 535.9,146.6 538.0,146.5 540.1,146.4 542.3,146.3 544.4,146.3 546.5,146.2 548.7,146.1 550.8,146.0 552.9,145.9 555.1,145.9 557.2,145.8 559.4,145.7 561.5,145.7 563.6,145.6 565.7,145.5 567.8,145.5 570.0,145.4 572.1,145.4 574.3,145.3 576.4,145.3 578.5,145.2 580.7,145.2 582.8,145.1 585.0,145.1 587.0,145.1 589.1,145.0 591.2,145.0 593.3,145.0 595.5,145.0 597.6,144.9 599.8,144.9 601.9,144.9 604.0,144.9 606.2,144.9 608.3,144.9 610.5,144.8 612.5,144.8 614.6,144.8 616.7,144.8 618.9,144.8 621.0,144.8 623.1,144.8 625.3,144.8 627.4,144.8 629.5,144.9 631.7,144.9 633.8,144.9 636.0,144.9 638.0,144.9 640.1,144.9 642.2,145.0 644.4,145.0 646.5,145.0 648.6,145.0 650.8,145.1 652.9,145.1 655.1,145.1 657.2,145.2 659.3,145.2 661.5,145.2 663.6,145.3 665.7,145.3 667.8,145.3 669.9,145.4 672.1,145.4 674.2,145.4 676.4,145.5 678.5,145.5 680.6,145.6 682.8,145.6 684.9,145.6 687.1,145.7 689.1,145.7 691.2,145.7 693.3,145.8 695.4,145.8 697.6,145.8 699.7,145.9 701.9,145.9 704.0,145.9 706.1,146.0 708.3,146.0 710.4,146.0 712.6,146.1 714.6,146.1 716.7,146.1 718.8,146.2 721.0,146.2 723.1,146.2 725.2,146.2 727.4,146.3 729.5,146.3 731.6,146.3 733.8,146.4 735.9,146.4 738.1,146.4 740.1,146.4 742.2,146.5 744.3,146.5 746.5,146.5 748.6,146.6 750.7,146.6 752.9,146.6 755.0,146.6 757.2,146.7 759.3,146.7 761.4,146.7" fill="none" stroke="#2563eb" stroke-width="2.2"/>
<path d="M68.0,125.8L70.1,126.0L72.3,126.3L74.4,126.5L76.5,126.7L78.6,126.9L80.7,127.2L82.8,127.4L84.9,127.6L87.1,127.8L89.2,128.0L91.4,128.2L93.5,128.4L95.6,128.6L97.8,128.7L99.9,128.9L102.0,129.1L104.1,129.3L106.2,129.4L108.3,129.6L110.5,129.7L112.6,129.9L114.8,130.0L116.9,130.2L119.0,130.3L121.2,130.4L123.3,130.6L125.4,130.7L127.5,130.8L129.6,130.9L131.7,131.0L133.8,131.1L136.0,131.2L138.1,131.3L140.3,131.4L142.4,131.5L144.5,131.6L146.7,131.7L148.8,131.8L151.0,131.9L153.1,132.0L155.1,132.0L157.3,132.1L159.4,132.2L161.5,132.3L163.7,132.4L165.8,132.5L168.0,132.5L170.1,132.6L172.2,132.7L174.4,132.8L176.5,132.9L178.6,133.0L180.7,133.1L182.8,133.1L184.9,133.2L187.1,133.3L189.2,133.4L191.4,133.5L193.5,133.6L195.6,133.7L197.7,133.8L199.9,133.9L202.0,134.0L204.1,134.1L206.2,134.2L208.3,134.3L210.4,134.4L212.6,134.6L214.7,134.7L216.9,134.8L219.0,134.9L221.1,135.0L223.3,135.2L225.4,135.3L227.6,135.4L229.6,135.6L231.7,135.7L233.8,135.9L235.9,136.0L238.1,136.2L240.2,136.4L242.4,136.5L244.5,136.7L246.6,136.9L248.8,137.0L250.9,137.2L253.1,137.4L255.2,137.6L257.3,137.8L259.4,138.0L261.5,138.2L263.6,138.4L265.8,138.6L267.9,138.8L270.1,139.0L272.2,139.2L274.3,139.4L276.5,139.6L278.6,139.8L280.7,140.1L282.8,140.3L284.9,140.5L287.0,140.7L289.2,140.9L291.3,141.1L293.5,141.3L295.6,141.6L297.7,141.8L299.9,142.0L302.0,142.2L304.1,142.4L306.2,142.6L308.3,142.8L310.4,143.0L312.5,143.2L314.7,143.4L316.8,143.6L319.0,143.8L321.1,144.0L323.2,144.2L325.4,144.4L327.5,144.6L329.7,144.8L331.7,145.0L333.8,145.2L335.9,145.3L338.0,145.5L340.2,145.7L342.3,145.8L344.5,146.0L346.6,146.2L348.7,146.3L350.9,146.4L353.0,146.6L355.2,146.7L357.3,146.9L359.4,147.0L361.5,147.1L363.6,147.2L365.8,147.3L367.9,147.4L370.1,147.6L372.2,147.7L374.3,147.8L376.4,147.8L378.6,147.9L380.7,148.0L382.8,148.1L384.9,148.2L387.0,148.2L389.1,148.3L391.3,148.4L393.4,148.4L395.6,148.5L397.7,148.5L399.8,148.6L402.0,148.6L404.1,148.6L406.3,148.7L408.3,148.7L410.4,148.7L412.5,148.7L414.6,148.7L416.8,148.8L418.9,148.8L421.1,148.7L423.2,148.7L425.3,148.7L427.5,148.7L429.6,148.7L431.8,148.7L433.8,148.6L435.9,148.6L438.0,148.5L440.2,148.5L442.3,148.4L444.4,148.4L446.6,148.3L448.7,148.2L450.8,148.2L453.0,148.1L455.1,148.0L457.3,147.9L459.4,147.8L461.5,147.7L463.6,147.6L465.7,147.5L467.9,147.4L470.0,147.3L472.2,147.2L474.3,147.0L476.4,146.9L478.6,146.8L480.7,146.7L482.9,146.6L484.9,146.4L487.0,146.3L489.1,146.2L491.2,146.0L493.4,145.9L495.5,145.8L497.7,145.7L499.8,145.5L501.9,145.4L504.1,145.3L506.2,145.2L508.4,145.0L510.4,144.9L512.5,144.8L514.6,144.7L516.7,144.6L518.9,144.4L521.0,144.3L523.2,144.2L525.3,144.1L527.4,144.0L529.6,143.9L531.7,143.8L533.9,143.7L535.9,143.6L538.0,143.5L540.1,143.4L542.3,143.4L544.4,143.3L546.5,143.2L548.7,143.1L550.8,143.0L552.9,143.0L555.1,142.9L557.2,142.8L559.4,142.8L561.5,142.7L563.6,142.6L565.7,142.6L567.8,142.5L570.0,142.5L572.1,142.4L574.3,142.4L576.4,142.3L578.5,142.3L580.7,142.2L582.8,142.2L585.0,142.2L587.0,142.1L589.1,142.1L591.2,142.1L593.3,142.0L595.5,142.0L597.6,142.0L599.8,141.9L601.9,141.9L604.0,141.9L606.2,141.9L608.3,141.9L610.5,141.8L612.5,141.8L614.6,141.8L616.7,141.8L618.9,141.8L621.0,141.8L623.1,141.8L625.3,141.8L627.4,141.8L629.5,141.8L631.7,141.8L633.8,141.8L636.0,141.8L638.0,141.8L640.1,141.9L642.2,141.9L644.4,141.9L646.5,141.9L648.6,141.9L650.8,142.0L652.9,142.0L655.1,142.0L657.2,142.0L659.3,142.1L661.5,142.1L663.6,142.1L665.7,142.1L667.8,142.2L669.9,142.2L672.1,142.2L674.2,142.2L676.4,142.2L678.5,142.3L680.6,142.3L682.8,142.3L684.9,142.3L687.1,142.3L689.1,142.4L691.2,142.4L693.3,142.4L695.4,142.4L697.6,142.4L699.7,142.4L701.9,142.4L704.0,142.4L706.1,142.3L708.3,142.3L710.4,142.3L712.6,142.3L714.6,142.3L716.7,142.2L718.8,142.2L721.0,142.1L723.1,142.1L725.2,142.0L727.4,142.0L729.5,141.9L731.6,141.9L733.8,141.8L735.9,141.7L738.1,141.6L740.1,141.5L742.2,141.5L744.3,141.4L746.5,141.3L748.6,141.2L750.7,141.1L752.9,140.9L755.0,140.8L757.2,140.7L759.3,140.6L761.4,140.5L761.4,153.0L759.3,152.8L757.2,152.6L755.0,152.5L752.9,152.3L750.7,152.1L748.6,152.0L746.5,151.8L744.3,151.6L742.2,151.5L740.1,151.3L738.1,151.2L735.9,151.1L733.8,150.9L731.6,150.8L729.5,150.7L727.4,150.6L725.2,150.4L723.1,150.3L721.0,150.2L718.8,150.1L716.7,150.0L714.6,149.9L712.6,149.9L710.4,149.8L708.3,149.7L706.1,149.6L704.0,149.5L701.9,149.5L699.7,149.4L697.6,149.3L695.4,149.2L693.3,149.2L691.2,149.1L689.1,149.1L687.1,149.0L684.9,148.9L682.8,148.9L680.6,148.8L678.5,148.8L676.4,148.7L674.2,148.7L672.1,148.6L669.9,148.6L667.8,148.5L665.7,148.5L663.6,148.4L661.5,148.4L659.3,148.3L657.2,148.3L655.1,148.3L652.9,148.2L650.8,148.2L648.6,148.1L646.5,148.1L644.4,148.1L642.2,148.0L640.1,148.0L638.0,148.0L636.0,148.0L633.8,147.9L631.7,147.9L629.5,147.9L627.4,147.9L625.3,147.9L623.1,147.9L621.0,147.9L618.9,147.9L616.7,147.8L614.6,147.8L612.5,147.8L610.5,147.8L608.3,147.9L606.2,147.9L604.0,147.9L601.9,147.9L599.8,147.9L597.6,147.9L595.5,147.9L593.3,148.0L591.2,148.0L589.1,148.0L587.0,148.0L585.0,148.1L582.8,148.1L580.7,148.1L578.5,148.2L576.4,148.2L574.3,148.3L572.1,148.3L570.0,148.4L567.8,148.4L565.7,148.5L563.6,148.5L561.5,148.6L559.4,148.7L557.2,148.7L555.1,148.8L552.9,148.9L550.8,149.0L548.7,149.1L546.5,149.1L544.4,149.2L542.3,149.3L540.1,149.4L538.0,149.5L535.9,149.6L533.9,149.7L531.7,149.8L529.6,149.9L527.4,150.0L525.3,150.2L523.2,150.3L521.0,150.4L518.9,150.5L516.7,150.6L514.6,150.8L512.5,150.9L510.4,151.0L508.4,151.1L506.2,151.3L504.1,151.4L501.9,151.5L499.8,151.7L497.7,151.8L495.5,151.9L493.4,152.1L491.2,152.2L489.1,152.3L487.0,152.5L484.9,152.6L482.9,152.7L480.7,152.8L478.6,153.0L476.4,153.1L474.3,153.2L472.2,153.3L470.0,153.4L467.9,153.5L465.7,153.6L463.6,153.7L461.5,153.8L459.4,153.9L457.3,154.0L455.1,154.1L453.0,154.2L450.8,154.2L448.7,154.3L446.6,154.4L444.4,154.4L442.3,154.5L440.2,154.5L438.0,154.6L435.9,154.6L433.8,154.6L431.8,154.7L429.6,154.7L427.5,154.7L425.3,154.7L423.2,154.7L421.1,154.7L418.9,154.7L416.8,154.7L414.6,154.7L412.5,154.7L410.4,154.7L408.3,154.6L406.3,154.6L404.1,154.6L402.0,154.5L399.8,154.5L397.7,154.5L395.6,154.4L393.4,154.3L391.3,154.3L389.1,154.2L387.0,154.2L384.9,154.1L382.8,154.0L380.7,153.9L378.6,153.9L376.4,153.8L374.3,153.7L372.2,153.6L370.1,153.5L367.9,153.4L365.8,153.3L363.6,153.2L361.5,153.0L359.4,152.9L357.3,152.8L355.2,152.6L353.0,152.5L350.9,152.4L348.7,152.2L346.6,152.1L344.5,151.9L342.3,151.8L340.2,151.6L338.0,151.4L335.9,151.3L333.8,151.1L331.7,150.9L329.7,150.7L327.5,150.5L325.4,150.4L323.2,150.2L321.1,150.0L319.0,149.8L316.8,149.6L314.7,149.4L312.5,149.2L310.4,149.0L308.3,148.8L306.2,148.6L304.1,148.4L302.0,148.2L299.9,148.0L297.7,147.8L295.6,147.6L293.5,147.4L291.3,147.2L289.2,147.0L287.0,146.8L284.9,146.6L282.8,146.4L280.7,146.2L278.6,146.0L276.5,145.8L274.3,145.6L272.2,145.4L270.1,145.2L267.9,145.0L265.8,144.8L263.6,144.6L261.5,144.5L259.4,144.3L257.3,144.1L255.2,143.9L253.1,143.8L250.9,143.6L248.8,143.4L246.6,143.3L244.5,143.1L242.4,143.0L240.2,142.8L238.1,142.7L235.9,142.5L233.8,142.4L231.7,142.3L229.6,142.1L227.6,142.0L225.4,141.9L223.3,141.7L221.1,141.6L219.0,141.5L216.9,141.4L214.7,141.3L212.6,141.2L210.4,141.0L208.3,140.9L206.2,140.8L204.1,140.7L202.0,140.6L199.9,140.5L197.7,140.4L195.6,140.3L193.5,140.2L191.4,140.1L189.2,140.0L187.1,139.8L184.9,139.7L182.8,139.6L180.7,139.5L178.6,139.4L176.5,139.3L174.4,139.2L172.2,139.2L170.1,139.1L168.0,139.0L165.8,138.9L163.7,138.8L161.5,138.7L159.4,138.6L157.3,138.5L155.1,138.5L153.1,138.4L151.0,138.3L148.8,138.2L146.7,138.2L144.5,138.1L142.4,138.1L140.3,138.0L138.1,137.9L136.0,137.9L133.8,137.9L131.7,137.8L129.6,137.8L127.5,137.8L125.4,137.7L123.3,137.7L121.2,137.7L119.0,137.7L116.9,137.7L114.8,137.7L112.6,137.7L110.5,137.7L108.3,137.7L106.2,137.7L104.1,137.7L102.0,137.8L99.9,137.8L97.8,137.8L95.6,137.9L93.5,137.9L91.4,138.0L89.2,138.0L87.1,138.1L84.9,138.2L82.8,138.2L80.7,138.3L78.6,138.4L76.5,138.5L74.4,138.6L72.3,138.7L70.1,138.7L68.0,138.8Z" fill="#ef4444" fill-opacity="0.15" stroke="none"/>
<polyline points="68.0,132.3 70.1,132.4 72.3,132.5 74.4,132.5 76.5,132.6 78.6,132.7 80.7,132.7 82.8,132.8 84.9,132.9 87.1,132.9 89.2,133.0 91.4,133.1 93.5,133.1 95.6,133.2 97.8,133.3 99.9,133.4 102.0,133.4 104.1,133.5 106.2,133.6 108.3,133.6 110.5,133.7 112.6,133.8 114.8,133.9 116.9,133.9 119.0,134.0 121.2,134.1 123.3,134.1 125.4,134.2 127.5,134.3 129.6,134.4 131.7,134.4 133.8,134.5 136.0,134.6 138.1,134.6 140.3,134.7 142.4,134.8 144.5,134.9 146.7,134.9 148.8,135.0 151.0,135.1 153.1,135.2 155.1,135.2 157.3,135.3 159.4,135.4 161.5,135.5 163.7,135.6 165.8,135.7 168.0,135.8 170.1,135.8 172.2,135.9 174.4,136.0 176.5,136.1 178.6,136.2 180.7,136.3 182.8,136.4 184.9,136.5 187.1,136.6 189.2,136.7 191.4,136.8 193.5,136.9 195.6,137.0 197.7,137.1 199.9,137.2 202.0,137.3 204.1,137.4 206.2,137.5 208.3,137.6 210.4,137.7 212.6,137.9 214.7,138.0 216.9,138.1 219.0,138.2 221.1,138.3 223.3,138.5 225.4,138.6 227.6,138.7 229.6,138.9 231.7,139.0 233.8,139.1 235.9,139.3 238.1,139.4 240.2,139.6 242.4,139.8 244.5,139.9 246.6,140.1 248.8,140.2 250.9,140.4 253.1,140.6 255.2,140.8 257.3,141.0 259.4,141.1 261.5,141.3 263.6,141.5 265.8,141.7 267.9,141.9 270.1,142.1 272.2,142.3 274.3,142.5 276.5,142.7 278.6,142.9 280.7,143.1 282.8,143.3 284.9,143.5 287.0,143.7 289.2,143.9 291.3,144.1 293.5,144.4 295.6,144.6 297.7,144.8 299.9,145.0 302.0,145.2 304.1,145.4 306.2,145.6 308.3,145.8 310.4,146.0 312.5,146.2 314.7,146.4 316.8,146.6 319.0,146.8 321.1,147.0 323.2,147.2 325.4,147.4 327.5,147.6 329.7,147.8 331.7,147.9 333.8,148.1 335.9,148.3 338.0,148.5 340.2,148.6 342.3,148.8 344.5,149.0 346.6,149.1 348.7,149.3 350.9,149.4 353.0,149.5 355.2,149.7 357.3,149.8 359.4,149.9 361.5,150.1 363.6,150.2 365.8,150.3 367.9,150.4 370.1,150.5 372.2,150.6 374.3,150.7 376.4,150.8 378.6,150.9 380.7,151.0 382.8,151.1 384.9,151.1 387.0,151.2 389.1,151.3 391.3,151.3 393.4,151.4 395.6,151.4 397.7,151.5 399.8,151.5 402.0,151.6 404.1,151.6 406.3,151.6 408.3,151.7 410.4,151.7 412.5,151.7 414.6,151.7 416.8,151.7 418.9,151.7 421.1,151.7 423.2,151.7 425.3,151.7 427.5,151.7 429.6,151.7 431.8,151.7 433.8,151.6 435.9,151.6 438.0,151.5 440.2,151.5 442.3,151.5 444.4,151.4 446.6,151.3 448.7,151.3 450.8,151.2 453.0,151.1 455.1,151.0 457.3,150.9 459.4,150.9 461.5,150.8 463.6,150.7 465.7,150.6 467.9,150.5 470.0,150.3 472.2,150.2 474.3,150.1 476.4,150.0 478.6,149.9 480.7,149.8 482.9,149.6 484.9,149.5 487.0,149.4 489.1,149.3 491.2,149.1 493.4,149.0 495.5,148.9 497.7,148.7 499.8,148.6 501.9,148.5 504.1,148.3 506.2,148.2 508.4,148.1 510.4,148.0 512.5,147.8 514.6,147.7 516.7,147.6 518.9,147.5 521.0,147.4 523.2,147.3 525.3,147.1 527.4,147.0 529.6,146.9 531.7,146.8 533.9,146.7 535.9,146.6 538.0,146.5 540.1,146.4 542.3,146.3 544.4,146.3 546.5,146.2 548.7,146.1 550.8,146.0 552.9,145.9 555.1,145.9 557.2,145.8 559.4,145.7 561.5,145.7 563.6,145.6 565.7,145.5 567.8,145.5 570.0,145.4 572.1,145.4 574.3,145.3 576.4,145.3 578.5,145.2 580.7,145.2 582.8,145.1 585.0,145.1 587.0,145.1 589.1,145.0 591.2,145.0 593.3,145.0 595.5,145.0 597.6,144.9 599.8,144.9 601.9,144.9 604.0,144.9 606.2,144.9 608.3,144.9 610.5,144.8 612.5,144.8 614.6,144.8 616.7,144.8 618.9,144.8 621.0,144.8 623.1,144.8 625.3,144.8 627.4,144.8 629.5,144.9 631.7,144.9 633.8,144.9 636.0,144.9 638.0,144.9 640.1,144.9 642.2,145.0 644.4,145.0 646.5,145.0 648.6,145.0 650.8,145.1 652.9,145.1 655.1,145.1 657.2,145.2 659.3,145.2 661.5,145.2 663.6,145.3 665.7,145.3 667.8,145.3 669.9,145.4 672.1,145.4 674.2,145.4 676.4,145.5 678.5,145.5 680.6,145.6 682.8,145.6 684.9,145.6 687.1,145.7 689.1,145.7 691.2,145.7 693.3,145.8 695.4,145.8 697.6,145.8 699.7,145.9 701.9,145.9 704.0,145.9 706.1,146.0 708.3,146.0 710.4,146.0 712.6,146.1 714.6,146.1 716.7,146.1 718.8,146.2 721.0,146.2 723.1,146.2 725.2,146.2 727.4,146.3 729.5,146.3 731.6,146.3 733.8,146.4 735.9,146.4 738.1,146.4 740.1,146.4 742.2,146.5 744.3,146.5 746.5,146.5 748.6,146.6 750.7,146.6 752.9,146.6 755.0,146.6 757.2,146.7 759.3,146.7 761.4,146.7" fill="none" stroke="#dc2626" stroke-width="2" stroke-dasharray="6 3"/>
<path d="M763.5,119.9L765.7,119.3L767.8,124.8L769.9,120.0L772.1,100.1L774.2,80.8L776.3,74.3L778.4,80.1L780.6,90.2L782.7,94.0L784.8,91.4L786.9,89.2L789.1,89.2L791.2,94.1L793.3,100.5L795.5,95.9L797.6,77.4L799.7,59.0L801.8,52.6L804.0,58.5L806.1,68.5L808.2,72.6L810.3,70.2L812.5,68.1L814.6,69.6L816.7,76.0L818.9,82.8L821.0,78.3L823.1,60.4L825.2,42.4L827.4,36.0L829.5,41.9L831.6,51.9L833.7,56.2L835.9,53.9L838.0,51.8L838.0,236.2L835.9,237.4L833.7,239.3L831.6,234.3L829.5,224.3L827.4,218.1L825.2,224.1L823.1,239.5L821.0,253.7L818.9,257.9L816.7,247.9L814.6,229.9L812.5,219.2L810.3,220.3L808.2,222.1L806.1,217.0L804.0,207.0L801.8,200.7L799.7,206.7L797.6,221.8L795.5,235.3L793.3,239.4L791.2,229.1L789.1,209.6L786.9,197.4L784.8,198.4L782.7,200.1L780.6,194.6L778.4,184.6L776.3,178.3L774.2,184.2L772.1,198.4L769.9,210.6L767.8,214.4L765.7,203.1L763.5,178.1Z" fill="#22c55e" fill-opacity="0.18" stroke="none"/>
<polyline points="763.5,149.0 765.7,161.2 767.8,169.6 769.9,165.3 772.1,149.2 774.2,132.5 776.3,126.3 778.4,132.4 780.6,142.4 782.7,147.0 784.8,144.9 786.9,143.3 789.1,149.4 791.2,161.6 793.3,170.0 795.5,165.6 797.6,149.6 799.7,132.9 801.8,126.7 804.0,132.7 806.1,142.8 808.2,147.4 810.3,145.3 812.5,143.7 814.6,149.7 816.7,161.9 818.9,170.3 821.0,166.0 823.1,149.9 825.2,133.2 827.4,127.0 829.5,133.1 831.6,143.1 833.7,147.7 835.9,145.6 838.0,144.0" fill="none" stroke="#16a34a" stroke-width="2" stroke-dasharray="5 3"/>
<line x1="761.4" y1="30" x2="761.4" y2="260" stroke="#6b7280" stroke-width="1" stroke-dasharray="3 2"/>
<text x="761.44" y="43" fill="#374151" font-size="10">2012.0 →</text>
<line x1="63" y1="250.0" x2="68" y2="250.0" stroke="#333" stroke-width="1.5"/>
<text x="60" y="250.0" text-anchor="end" dominant-baseline="middle" fill="#333">5.0</text>
<line x1="63" y1="200.0" x2="68" y2="200.0" stroke="#333" stroke-width="1.5"/>
<text x="60" y="200.0" text-anchor="end" dominant-baseline="middle" fill="#333">6.0</text>
<line x1="63" y1="150.0" x2="68" y2="150.0" stroke="#333" stroke-width="1.5"/>
<text x="60" y="150.0" text-anchor="end" dominant-baseline="middle" fill="#333">7.0</text>
<line x1="63" y1="100.0" x2="68" y2="100.0" stroke="#333" stroke-width="1.5"/>
<text x="60" y="100.0" text-anchor="end" dominant-baseline="middle" fill="#333">8.0</text>
<line x1="63" y1="50.0" x2="68" y2="50.0" stroke="#333" stroke-width="1.5"/>
<text x="60" y="50.0" text-anchor="end" dominant-baseline="middle" fill="#333">9.0</text>
<line x1="98.8" y1="260" x2="98.8" y2="265" stroke="#333" stroke-width="1.5"/>
<text x="98.8" y="278" text-anchor="middle" fill="#333">1986</text>
<line x1="149.9" y1="260" x2="149.9" y2="265" stroke="#333" stroke-width="1.5"/>
<text x="149.9" y="278" text-anchor="middle" fill="#333">1988</text>
<line x1="200.9" y1="260" x2="200.9" y2="265" stroke="#333" stroke-width="1.5"/>
<text x="200.9" y="278" text-anchor="middle" fill="#333">1990</text>
<line x1="252.0" y1="260" x2="252.0" y2="265" stroke="#333" stroke-width="1.5"/>
<text x="252.0" y="278" text-anchor="middle" fill="#333">1992</text>
<line x1="303.0" y1="260" x2="303.0" y2="265" stroke="#333" stroke-width="1.5"/>
<text x="303.0" y="278" text-anchor="middle" fill="#333">1994</text>
<line x1="354.1" y1="260" x2="354.1" y2="265" stroke="#333" stroke-width="1.5"/>
<text x="354.1" y="278" text-anchor="middle" fill="#333">1996</text>
<line x1="405.2" y1="260" x2="405.2" y2="265" stroke="#333" stroke-width="1.5"/>
<text x="405.2" y="278" text-anchor="middle" fill="#333">1998</text>
<line x1="456.2" y1="260" x2="456.2" y2="265" stroke="#333" stroke-width="1.5"/>
<text x="456.2" y="278" text-anchor="middle" fill="#333">2000</text>
<line x1="507.3" y1="260" x2="507.3" y2="265" stroke="#333" stroke-width="1.5"/>
<text x="507.3" y="278" text-anchor="middle" fill="#333">2002</text>
<line x1="558.3" y1="260" x2="558.3" y2="265" stroke="#333" stroke-width="1.5"/>
<text x="558.3" y="278" text-anchor="middle" fill="#333">2004</text>
<line x1="609.4" y1="260" x2="609.4" y2="265" stroke="#333" stroke-width="1.5"/>
<text x="609.4" y="278" text-anchor="middle" fill="#333">2006</text>
<line x1="660.4" y1="260" x2="660.4" y2="265" stroke="#333" stroke-width="1.5"/>
<text x="660.4" y="278" text-anchor="middle" fill="#333">2008</text>
<line x1="711.5" y1="260" x2="711.5" y2="265" stroke="#333" stroke-width="1.5"/>
<text x="711.5" y="278" text-anchor="middle" fill="#333">2010</text>
<line x1="762.5" y1="260" x2="762.5" y2="265" stroke="#333" stroke-width="1.5"/>
<text x="762.5" y="278" text-anchor="middle" fill="#333">2012</text>
<line x1="813.6" y1="260" x2="813.6" y2="265" stroke="#333" stroke-width="1.5"/>
<text x="813.6" y="278" text-anchor="middle" fill="#333">2014</text>
<line x1="68" y1="30" x2="68" y2="260" stroke="#333" stroke-width="1.5"/>
<line x1="68" y1="260" x2="838" y2="260" stroke="#333" stroke-width="1.5"/>
<text transform="rotate(-90)" x="-145" y="16" text-anchor="middle" fill="#374151" font-size="11">O₃ density [×10¹⁰ cm⁻³]</text>
<line x1="558" y1="44" x2="580" y2="44" stroke="#9ca3af" stroke-width="1"/>
<text x="585" y="48" fill="#374151" font-size="11">Observations (SAGE II / GOMOS)</text>
<line x1="558" y1="59" x2="580" y2="59" stroke="#2563eb" stroke-width="2.2"/>
<text x="585" y="63" fill="#374151" font-size="11">dlm-js smoothed level ±2σ</text>
<line x1="558" y1="74" x2="580" y2="74" stroke="#dc2626" stroke-width="1.8" stroke-dasharray="5 3"/>
<text x="585" y="78" fill="#374151" font-size="11">MATLAB/Octave reference ±2σ</text>
<line x1="558" y1="89" x2="580" y2="89" stroke="#16a34a" stroke-width="1.8" stroke-dasharray="5 3"/>
<text x="585" y="93" fill="#374151" font-size="11">36-month forecast ±2σ (no proxies)</text>
<text x="453" y="20" text-anchor="middle" fill="#374151" font-size="13" font-weight="bold">Stratospheric ozone (45–55 km, 40°N–50°N): trend extraction + forecast</text>
<line x1="68" y1="528.0" x2="838" y2="528.0" stroke="#e5e7eb" stroke-width="1"/>
<line x1="68" y1="413.0" x2="838" y2="413.0" stroke="#e5e7eb" stroke-width="1"/>
<line x1="68" y1="298.0" x2="838" y2="298.0" stroke="#e5e7eb" stroke-width="1"/>
<line x1="68" y1="413.0" x2="838" y2="413.0" stroke="#6b7280" stroke-width="0.8" stroke-dasharray="2 2"/>
<polyline points="68.0,412.8 70.1,412.7 72.3,412.7 74.4,412.8 76.5,412.7 78.6,412.7 80.7,412.7 82.8,412.8 84.9,412.8 87.1,412.7 89.2,412.7 91.4,412.7 93.5,412.7 95.6,412.8 97.8,412.8 99.9,412.8 102.0,412.8 104.1,412.7 106.2,412.7 108.3,412.7 110.5,412.7 112.6,412.7 114.8,412.7 116.9,412.7 119.0,412.8 121.2,412.8 123.3,412.7 125.4,412.7 127.5,412.7 129.6,412.7 131.7,412.9 133.8,412.9 136.0,412.8 138.1,412.8 140.3,412.9 142.4,412.8 144.5,413.0 146.7,412.9 148.8,412.9 151.0,413.0 153.1,412.9 155.1,413.0 157.3,413.2 159.4,412.9 161.5,413.0 163.7,413.2 165.8,413.1 168.0,413.1 170.1,413.3 172.2,413.4 174.4,413.8 176.5,414.0 178.6,413.8 180.7,413.8 182.8,413.5 184.9,413.4 187.1,414.2 189.2,413.4 191.4,413.8 193.5,413.7 195.6,413.7 197.7,413.6 199.9,413.4 202.0,413.5 204.1,413.2 206.2,413.4 208.3,413.7 210.4,413.8 212.6,413.4 214.7,413.2 216.9,413.6 219.0,413.5 221.1,413.6 223.3,413.6 225.4,413.5 227.6,413.5 229.6,413.5 231.7,413.8 233.8,413.9 235.9,413.4 238.1,413.4 240.2,413.3 242.4,413.9 244.5,413.3 246.6,413.4 248.8,413.3 250.9,413.6 253.1,413.3 255.2,413.5 257.3,413.3 259.4,413.2 261.5,413.0 263.6,413.0 265.8,413.2 267.9,413.1 270.1,413.1 272.2,412.9 274.3,413.1 276.5,413.2 278.6,413.1 280.7,413.1 282.8,413.0 284.9,412.8 287.0,412.9 289.2,412.8 291.3,412.9 293.5,412.8 295.6,412.8 297.7,412.8 299.9,412.9 302.0,412.8 304.1,412.9 306.2,412.9 308.3,412.8 310.4,412.8 312.5,412.9 314.7,412.8 316.8,412.8 319.0,412.8 321.1,412.7 323.2,412.8 325.4,412.8 327.5,412.8 329.7,412.8 331.7,412.8 333.8,412.8 335.9,412.8 338.0,412.9 340.2,412.7 342.3,412.7 344.5,412.7 346.6,412.7 348.7,412.8 350.9,412.7 353.0,412.7 355.2,412.7 357.3,412.7 359.4,412.7 361.5,412.7 363.6,412.7 365.8,412.7 367.9,412.7 370.1,412.7 372.2,412.7 374.3,412.7 376.4,412.7 378.6,412.8 380.7,412.7 382.8,412.7 384.9,412.7 387.0,412.7 389.1,412.7 391.3,412.7 393.4,412.7 395.6,412.8 397.7,412.9 399.8,412.8 402.0,412.9 404.1,412.8 406.3,412.9 408.3,412.9 410.4,413.0 412.5,412.9 414.6,413.0 416.8,412.9 418.9,412.9 421.1,413.1 423.2,413.0 425.3,413.1 427.5,413.0 429.6,413.2 431.8,413.3 433.8,413.4 435.9,413.2 438.0,413.0 440.2,413.2 442.3,413.2 444.4,413.1 446.6,413.1 448.7,413.2 450.8,413.4 453.0,413.7 455.1,413.5 457.3,413.5 459.4,413.2 461.5,413.4 463.6,413.3 465.7,413.9 467.9,413.5 470.0,413.6 472.2,413.4 474.3,413.3 476.4,413.2 478.6,413.2 480.7,413.5 482.9,413.2 484.9,413.1 487.0,413.1 489.1,413.0 491.2,413.2 493.4,413.6 495.5,413.2 497.7,413.2 499.8,413.5 501.9,413.6 504.1,413.5 506.2,413.5 508.4,413.6 510.4,413.5 512.5,413.4 514.6,413.5 516.7,413.2 518.9,413.1 521.0,413.4 523.2,413.6 525.3,413.4 527.4,413.4 529.6,413.5 531.7,413.6 533.9,413.2 535.9,413.0 538.0,413.1 540.1,412.9 542.3,412.9 544.4,413.0 546.5,413.1 548.7,413.0 550.8,412.9 552.9,412.9 555.1,412.9 557.2,413.0 559.4,413.0 561.5,412.9 563.6,413.0 565.7,412.9 567.8,413.0 570.0,413.0 572.1,413.2 574.3,413.1 576.4,412.9 578.5,412.8 580.7,412.9 582.8,412.8 585.0,413.1 587.0,413.0 589.1,412.9 591.2,412.8 593.3,412.9 595.5,412.9 597.6,412.7 599.8,412.7 601.9,413.0 604.0,412.8 606.2,412.9 608.3,412.8 610.5,412.8 612.5,412.8 614.6,412.7 616.7,412.7 618.9,412.7 621.0,412.7 623.1,412.7 625.3,412.9 627.4,412.8 629.5,412.7 631.7,412.9 633.8,412.8 636.0,412.8 638.0,412.7 640.1,412.7 642.2,412.7 644.4,412.8 646.5,412.7 648.6,412.7 650.8,412.7 652.9,412.7 655.1,412.7 657.2,412.7 659.3,412.8 661.5,412.7 663.6,412.7 665.7,412.7 667.8,412.7 669.9,412.7 672.1,412.7 674.2,412.7 676.4,412.7 678.5,412.7 680.6,412.7 682.8,412.7 684.9,412.7 687.1,412.7 689.1,412.7 691.2,412.7 693.3,412.7 695.4,412.7 697.6,412.7 699.7,412.7 701.9,412.7 704.0,412.7 706.1,412.7 708.3,412.7 710.4,412.8 712.6,412.8 714.6,412.8 716.7,412.8 718.8,412.7 721.0,412.7 723.1,412.7 725.2,412.8 727.4,412.8 729.5,412.8 731.6,412.8 733.8,412.8 735.9,412.8 738.1,412.8 740.1,413.0 742.2,412.9 744.3,413.0 746.5,412.8 748.6,412.9 750.7,412.9 752.9,412.9 755.0,413.2 757.2,413.2 759.3,413.2 761.4,413.0" fill="none" stroke="#f59e0b" stroke-width="1.8"/>
<polyline points="68.0,468.4 70.1,458.7 72.3,447.0 74.4,435.9 76.5,428.7 78.6,420.6 80.7,401.1 82.8,386.8 84.9,384.2 87.1,387.8 89.2,385.8 91.4,382.5 93.5,377.7 95.6,378.5 97.8,384.1 99.9,387.1 102.0,385.2 104.1,377.2 106.2,377.4 108.3,380.1 110.5,387.7 112.6,404.9 114.8,416.1 116.9,416.2 119.0,409.3 121.2,411.2 123.3,418.3 125.4,417.7 127.5,420.3 129.6,426.9 131.7,433.7 133.8,447.4 136.0,458.4 138.1,465.6 140.3,452.3 142.4,431.2 144.5,407.8 146.7,393.5 148.8,394.6 151.0,394.0 153.1,394.4 155.1,396.0 157.3,389.3 159.4,385.3 161.5,388.9 163.7,398.8 165.8,402.1 168.0,399.9 170.1,397.9 172.2,396.9 174.4,402.4 176.5,402.0 178.6,406.7 180.7,404.1 182.8,395.0 184.9,401.5 187.1,416.8 189.2,432.3 191.4,440.5 193.5,446.4 195.6,450.1 197.7,448.6 199.9,446.1 202.0,440.6 204.1,438.4 206.2,432.7 208.3,424.9 210.4,405.4 212.6,393.2 214.7,387.7 216.9,384.4 219.0,384.1 221.1,378.9 223.3,375.2 225.4,376.4 227.6,383.9 229.6,387.4 231.7,384.9 233.8,381.8 235.9,385.4 238.1,400.6 240.2,419.5 242.4,431.6 244.5,428.1 246.6,422.2 248.8,422.3 250.9,425.5 253.1,426.7 255.2,426.3 257.3,432.1 259.4,434.3 261.5,437.2 263.6,450.3 265.8,460.5 267.9,457.9 270.1,445.5 272.2,432.9 274.3,423.6 276.5,409.0 278.6,393.2 280.7,390.0 282.8,388.6 284.9,378.7 287.0,368.9 289.2,377.4 291.3,391.2 293.5,399.3 295.6,397.2 297.7,399.6 299.9,403.3 302.0,406.3 304.1,410.6 306.2,415.6 308.3,415.1 310.4,420.7 312.5,434.1 314.7,460.0 316.8,478.5 319.0,481.6 321.1,478.9 323.2,462.8 325.4,438.9 327.5,418.3 329.7,405.2 331.7,400.5 333.8,396.1 335.9,385.8 338.0,375.3 340.2,372.9 342.3,376.7 344.5,381.7 346.6,389.4 348.7,390.9 350.9,397.1 353.0,405.8 355.2,407.0 357.3,407.3 359.4,411.6 361.5,409.3 363.6,424.0 365.8,441.3 367.9,460.5 370.1,468.7 372.2,468.6 374.3,466.4 376.4,459.6 378.6,446.2 380.7,439.5 382.8,429.7 384.9,427.1 387.0,408.6 389.1,389.9 391.3,378.3 393.4,374.5 395.6,378.8 397.7,375.4 399.8,376.9 402.0,378.9 404.1,386.0 406.3,394.8 408.3,400.3 410.4,402.3 412.5,401.8 414.6,421.1 416.8,448.4 418.9,465.4 421.1,469.8 423.2,469.4 425.3,467.3 427.5,452.5 429.6,436.6 431.8,422.5 433.8,418.5 435.9,407.8 438.0,393.6 440.2,378.9 442.3,373.9 444.4,376.4 446.6,380.7 448.7,380.5 450.8,379.6 453.0,382.8 455.1,382.4 457.3,384.6 459.4,386.3 461.5,381.5 463.6,372.9 465.7,373.5 467.9,394.6 470.0,414.4 472.2,421.1 474.3,421.4 476.4,418.5 478.6,422.2 480.7,422.5 482.9,426.9 484.9,428.0 487.0,428.7 489.1,423.9 491.2,429.4 493.4,446.0 495.5,461.2 497.7,473.6 499.8,467.3 501.9,458.4 504.1,448.7 506.2,436.2 508.4,423.9 510.4,414.9 512.5,402.3 514.6,382.5 516.7,372.5 518.9,373.3 521.0,382.5 523.2,380.3 525.3,379.8 527.4,380.0 529.6,383.4 531.7,392.9 533.9,396.9 535.9,395.4 538.0,397.7 540.1,405.2 542.3,417.7 544.4,430.4 546.5,445.0 548.7,452.0 550.8,453.3 552.9,451.7 555.1,453.2 557.2,446.5 559.4,435.5 561.5,424.5 563.6,418.0 565.7,399.4 567.8,383.9 570.0,379.4 572.1,380.0 574.3,380.6 576.4,386.7 578.5,380.7 580.7,382.9 582.8,385.3 585.0,391.9 587.0,392.4 589.1,388.3 591.2,395.7 593.3,412.7 595.5,432.9 597.6,452.8 599.8,460.2 601.9,465.1 604.0,468.4 606.2,468.5 608.3,466.3 610.5,464.3 612.5,456.3 614.6,442.6 616.7,432.5 618.9,414.0 621.0,395.8 623.1,388.0 625.3,387.5 627.4,376.9 629.5,372.5 631.7,371.1 633.8,378.0 636.0,386.8 638.0,386.9 640.1,384.2 642.2,389.2 644.4,404.5 646.5,431.9 648.6,455.4 650.8,465.3 652.9,465.8 655.1,466.3 657.2,468.3 659.3,467.4 661.5,465.3 663.6,453.4 665.7,439.7 667.8,427.0 669.9,408.0 672.1,387.9 674.2,379.0 676.4,380.9 678.5,382.6 680.6,381.1 682.8,383.3 684.9,379.9 687.1,377.9 689.1,377.3 691.2,381.1 693.3,374.6 695.4,375.2 697.6,386.9 699.7,406.9 701.9,411.6 704.0,408.6 706.1,405.0 708.3,409.5 710.4,416.8 712.6,416.4 714.6,419.9 716.7,426.2 718.8,447.8 721.0,468.7 723.1,482.2 725.2,473.5 727.4,447.7 729.5,419.1 731.6,390.4 733.8,376.3 735.9,377.7 738.1,386.2 740.1,385.6 742.2,384.4 744.3,384.3 746.5,378.7 748.6,379.5 750.7,381.7 752.9,383.0 755.0,381.2 757.2,378.0 759.3,391.3 761.4,414.6" fill="none" stroke="#8b5cf6" stroke-width="1.8"/>
<polyline points="68.0,412.8 70.1,412.7 72.3,412.7 74.4,412.8 76.5,412.7 78.6,412.7 80.7,412.7 82.8,412.8 84.9,412.8 87.1,412.7 89.2,412.7 91.4,412.7 93.5,412.7 95.6,412.8 97.8,412.8 99.9,412.8 102.0,412.8 104.1,412.7 106.2,412.7 108.3,412.7 110.5,412.7 112.6,412.7 114.8,412.7 116.9,412.7 119.0,412.8 121.2,412.8 123.3,412.7 125.4,412.7 127.5,412.7 129.6,412.7 131.7,412.9 133.8,412.9 136.0,412.8 138.1,412.8 140.3,412.9 142.4,412.8 144.5,413.0 146.7,412.9 148.8,412.9 151.0,413.0 153.1,412.9 155.1,413.0 157.3,413.2 159.4,412.9 161.5,413.0 163.7,413.2 165.8,413.1 168.0,413.1 170.1,413.3 172.2,413.4 174.4,413.8 176.5,414.0 178.6,413.8 180.7,413.8 182.8,413.5 184.9,413.4 187.1,414.2 189.2,413.4 191.4,413.8 193.5,413.7 195.6,413.7 197.7,413.6 199.9,413.4 202.0,413.5 204.1,413.2 206.2,413.4 208.3,413.7 210.4,413.8 212.6,413.4 214.7,413.2 216.9,413.6 219.0,413.5 221.1,413.6 223.3,413.6 225.4,413.5 227.6,413.5 229.6,413.5 231.7,413.8 233.8,413.9 235.9,413.4 238.1,413.4 240.2,413.3 242.4,413.9 244.5,413.3 246.6,413.4 248.8,413.3 250.9,413.6 253.1,413.3 255.2,413.5 257.3,413.3 259.4,413.2 261.5,413.0 263.6,413.0 265.8,413.2 267.9,413.1 270.1,413.1 272.2,412.9 274.3,413.1 276.5,413.2 278.6,413.1 280.7,413.1 282.8,413.0 284.9,412.8 287.0,412.9 289.2,412.8 291.3,412.9 293.5,412.8 295.6,412.8 297.7,412.8 299.9,412.9 302.0,412.8 304.1,412.9 306.2,412.9 308.3,412.8 310.4,412.8 312.5,412.9 314.7,412.8 316.8,412.8 319.0,412.8 321.1,412.7 323.2,412.8 325.4,412.8 327.5,412.8 329.7,412.8 331.7,412.8 333.8,412.8 335.9,412.8 338.0,412.9 340.2,412.7 342.3,412.7 344.5,412.7 346.6,412.7 348.7,412.8 350.9,412.7 353.0,412.7 355.2,412.7 357.3,412.7 359.4,412.7 361.5,412.7 363.6,412.7 365.8,412.7 367.9,412.7 370.1,412.7 372.2,412.7 374.3,412.7 376.4,412.7 378.6,412.8 380.7,412.7 382.8,412.7 384.9,412.7 387.0,412.7 389.1,412.7 391.3,412.7 393.4,412.7 395.6,412.8 397.7,412.9 399.8,412.8 402.0,412.9 404.1,412.8 406.3,412.9 408.3,412.9 410.4,413.0 412.5,412.9 414.6,413.0 416.8,412.9 418.9,412.9 421.1,413.1 423.2,413.0 425.3,413.1 427.5,413.0 429.6,413.2 431.8,413.3 433.8,413.4 435.9,413.2 438.0,413.0 440.2,413.2 442.3,413.2 444.4,413.1 446.6,413.1 448.7,413.2 450.8,413.4 453.0,413.7 455.1,413.5 457.3,413.5 459.4,413.2 461.5,413.4 463.6,413.3 465.7,413.9 467.9,413.5 470.0,413.6 472.2,413.4 474.3,413.3 476.4,413.2 478.6,413.2 480.7,413.5 482.9,413.2 484.9,413.1 487.0,413.1 489.1,413.0 491.2,413.2 493.4,413.6 495.5,413.2 497.7,413.2 499.8,413.5 501.9,413.6 504.1,413.5 506.2,413.5 508.4,413.6 510.4,413.5 512.5,413.4 514.6,413.5 516.7,413.2 518.9,413.1 521.0,413.4 523.2,413.6 525.3,413.4 527.4,413.4 529.6,413.5 531.7,413.6 533.9,413.2 535.9,413.0 538.0,413.1 540.1,412.9 542.3,412.9 544.4,413.0 546.5,413.1 548.7,413.0 550.8,412.9 552.9,412.9 555.1,412.9 557.2,413.0 559.4,413.0 561.5,412.9 563.6,413.0 565.7,412.9 567.8,413.0 570.0,413.0 572.1,413.2 574.3,413.1 576.4,412.9 578.5,412.8 580.7,412.9 582.8,412.8 585.0,413.1 587.0,413.0 589.1,412.9 591.2,412.8 593.3,412.9 595.5,412.9 597.6,412.7 599.8,412.7 601.9,413.0 604.0,412.8 606.2,412.9 608.3,412.8 610.5,412.8 612.5,412.8 614.6,412.7 616.7,412.7 618.9,412.7 621.0,412.7 623.1,412.7 625.3,412.9 627.4,412.8 629.5,412.7 631.7,412.9 633.8,412.8 636.0,412.8 638.0,412.7 640.1,412.7 642.2,412.7 644.4,412.8 646.5,412.7 648.6,412.7 650.8,412.7 652.9,412.7 655.1,412.7 657.2,412.7 659.3,412.8 661.5,412.7 663.6,412.7 665.7,412.7 667.8,412.7 669.9,412.7 672.1,412.7 674.2,412.7 676.4,412.7 678.5,412.7 680.6,412.7 682.8,412.7 684.9,412.7 687.1,412.7 689.1,412.7 691.2,412.7 693.3,412.7 695.4,412.7 697.6,412.7 699.7,412.7 701.9,412.7 704.0,412.7 706.1,412.7 708.3,412.7 710.4,412.8 712.6,412.8 714.6,412.8 716.7,412.8 718.8,412.7 721.0,412.7 723.1,412.7 725.2,412.8 727.4,412.8 729.5,412.8 731.6,412.8 733.8,412.8 735.9,412.8 738.1,412.8 740.1,413.0 742.2,412.9 744.3,413.0 746.5,412.8 748.6,412.9 750.7,412.9 752.9,412.9 755.0,413.2 757.2,413.2 759.3,413.2 761.4,413.0" fill="none" stroke="#dc2626" stroke-width="2" stroke-dasharray="6 3"/>
<polyline points="68.0,468.4 70.1,458.7 72.3,447.0 74.4,435.9 76.5,428.7 78.6,420.6 80.7,401.1 82.8,386.8 84.9,384.2 87.1,387.8 89.2,385.8 91.4,382.5 93.5,377.7 95.6,378.5 97.8,384.1 99.9,387.1 102.0,385.2 104.1,377.2 106.2,377.4 108.3,380.1 110.5,387.7 112.6,404.9 114.8,416.1 116.9,416.2 119.0,409.3 121.2,411.2 123.3,418.3 125.4,417.7 127.5,420.3 129.6,426.9 131.7,433.7 133.8,447.4 136.0,458.4 138.1,465.6 140.3,452.3 142.4,431.2 144.5,407.8 146.7,393.5 148.8,394.6 151.0,394.0 153.1,394.4 155.1,396.0 157.3,389.3 159.4,385.3 161.5,388.9 163.7,398.8 165.8,402.1 168.0,399.9 170.1,397.9 172.2,396.9 174.4,402.4 176.5,402.0 178.6,406.7 180.7,404.1 182.8,395.0 184.9,401.5 187.1,416.8 189.2,432.3 191.4,440.5 193.5,446.4 195.6,450.1 197.7,448.6 199.9,446.1 202.0,440.6 204.1,438.4 206.2,432.7 208.3,424.9 210.4,405.4 212.6,393.2 214.7,387.7 216.9,384.4 219.0,384.1 221.1,378.9 223.3,375.2 225.4,376.4 227.6,383.9 229.6,387.4 231.7,384.9 233.8,381.8 235.9,385.4 238.1,400.6 240.2,419.5 242.4,431.6 244.5,428.1 246.6,422.2 248.8,422.3 250.9,425.5 253.1,426.7 255.2,426.3 257.3,432.1 259.4,434.3 261.5,437.2 263.6,450.3 265.8,460.5 267.9,457.9 270.1,445.5 272.2,432.9 274.3,423.6 276.5,409.0 278.6,393.2 280.7,390.0 282.8,388.6 284.9,378.7 287.0,368.9 289.2,377.4 291.3,391.2 293.5,399.3 295.6,397.2 297.7,399.6 299.9,403.3 302.0,406.3 304.1,410.6 306.2,415.6 308.3,415.1 310.4,420.7 312.5,434.1 314.7,460.0 316.8,478.5 319.0,481.6 321.1,478.9 323.2,462.8 325.4,438.9 327.5,418.3 329.7,405.2 331.7,400.5 333.8,396.1 335.9,385.8 338.0,375.3 340.2,372.9 342.3,376.7 344.5,381.7 346.6,389.4 348.7,390.9 350.9,397.1 353.0,405.8 355.2,407.0 357.3,407.3 359.4,411.6 361.5,409.3 363.6,424.0 365.8,441.3 367.9,460.5 370.1,468.7 372.2,468.6 374.3,466.4 376.4,459.6 378.6,446.2 380.7,439.5 382.8,429.7 384.9,427.1 387.0,408.6 389.1,389.9 391.3,378.3 393.4,374.5 395.6,378.8 397.7,375.4 399.8,376.9 402.0,378.9 404.1,386.0 406.3,394.8 408.3,400.3 410.4,402.3 412.5,401.8 414.6,421.1 416.8,448.4 418.9,465.4 421.1,469.8 423.2,469.4 425.3,467.3 427.5,452.5 429.6,436.6 431.8,422.5 433.8,418.5 435.9,407.8 438.0,393.6 440.2,378.9 442.3,373.9 444.4,376.4 446.6,380.7 448.7,380.5 450.8,379.6 453.0,382.8 455.1,382.4 457.3,384.6 459.4,386.3 461.5,381.5 463.6,372.9 465.7,373.5 467.9,394.6 470.0,414.4 472.2,421.1 474.3,421.4 476.4,418.5 478.6,422.2 480.7,422.5 482.9,426.9 484.9,428.0 487.0,428.7 489.1,423.9 491.2,429.4 493.4,446.0 495.5,461.2 497.7,473.6 499.8,467.3 501.9,458.4 504.1,448.7 506.2,436.2 508.4,423.9 510.4,414.9 512.5,402.3 514.6,382.5 516.7,372.5 518.9,373.3 521.0,382.5 523.2,380.3 525.3,379.8 527.4,380.0 529.6,383.4 531.7,392.9 533.9,396.9 535.9,395.4 538.0,397.7 540.1,405.2 542.3,417.7 544.4,430.4 546.5,445.0 548.7,452.0 550.8,453.3 552.9,451.7 555.1,453.2 557.2,446.5 559.4,435.5 561.5,424.5 563.6,418.0 565.7,399.4 567.8,383.9 570.0,379.4 572.1,380.0 574.3,380.6 576.4,386.7 578.5,380.7 580.7,382.9 582.8,385.3 585.0,391.9 587.0,392.4 589.1,388.3 591.2,395.7 593.3,412.7 595.5,432.9 597.6,452.8 599.8,460.2 601.9,465.1 604.0,468.4 606.2,468.5 608.3,466.3 610.5,464.3 612.5,456.3 614.6,442.6 616.7,432.5 618.9,414.0 621.0,395.8 623.1,388.0 625.3,387.5 627.4,376.9 629.5,372.5 631.7,371.1 633.8,378.0 636.0,386.8 638.0,386.9 640.1,384.2 642.2,389.2 644.4,404.5 646.5,431.9 648.6,455.4 650.8,465.3 652.9,465.8 655.1,466.3 657.2,468.3 659.3,467.4 661.5,465.3 663.6,453.4 665.7,439.7 667.8,427.0 669.9,408.0 672.1,387.9 674.2,379.0 676.4,380.9 678.5,382.6 680.6,381.1 682.8,383.3 684.9,379.9 687.1,377.9 689.1,377.3 691.2,381.1 693.3,374.6 695.4,375.2 697.6,386.9 699.7,406.9 701.9,411.6 704.0,408.6 706.1,405.0 708.3,409.5 710.4,416.8 712.6,416.4 714.6,419.9 716.7,426.2 718.8,447.8 721.0,468.7 723.1,482.2 725.2,473.5 727.4,447.7 729.5,419.1 731.6,390.4 733.8,376.3 735.9,377.7 738.1,386.2 740.1,385.6 742.2,384.4 744.3,384.3 746.5,378.7 748.6,379.5 750.7,381.7 752.9,383.0 755.0,381.2 757.2,378.0 759.3,391.3 761.4,414.6" fill="none" stroke="#dc2626" stroke-width="2" stroke-dasharray="2 3"/>
<line x1="63" y1="528.0" x2="68" y2="528.0" stroke="#333" stroke-width="1.5"/>
<text x="60" y="528.0" text-anchor="end" dominant-baseline="middle" fill="#333">-1</text>
<line x1="63" y1="413.0" x2="68" y2="413.0" stroke="#333" stroke-width="1.5"/>
<text x="60" y="413.0" text-anchor="end" dominant-baseline="middle" fill="#333">0</text>
<line x1="63" y1="298.0" x2="68" y2="298.0" stroke="#333" stroke-width="1.5"/>
<text x="60" y="298.0" text-anchor="end" dominant-baseline="middle" fill="#333">1</text>
<line x1="98.8" y1="528" x2="98.8" y2="533" stroke="#333" stroke-width="1.5"/>
<text x="98.8" y="546" text-anchor="middle" fill="#333">1986</text>
<line x1="149.9" y1="528" x2="149.9" y2="533" stroke="#333" stroke-width="1.5"/>
<text x="149.9" y="546" text-anchor="middle" fill="#333">1988</text>
<line x1="200.9" y1="528" x2="200.9" y2="533" stroke="#333" stroke-width="1.5"/>
<text x="200.9" y="546" text-anchor="middle" fill="#333">1990</text>
<line x1="252.0" y1="528" x2="252.0" y2="533" stroke="#333" stroke-width="1.5"/>
<text x="252.0" y="546" text-anchor="middle" fill="#333">1992</text>
<line x1="303.0" y1="528" x2="303.0" y2="533" stroke="#333" stroke-width="1.5"/>
<text x="303.0" y="546" text-anchor="middle" fill="#333">1994</text>
<line x1="354.1" y1="528" x2="354.1" y2="533" stroke="#333" stroke-width="1.5"/>
<text x="354.1" y="546" text-anchor="middle" fill="#333">1996</text>
<line x1="405.2" y1="528" x2="405.2" y2="533" stroke="#333" stroke-width="1.5"/>
<text x="405.2" y="546" text-anchor="middle" fill="#333">1998</text>
<line x1="456.2" y1="528" x2="456.2" y2="533" stroke="#333" stroke-width="1.5"/>
<text x="456.2" y="546" text-anchor="middle" fill="#333">2000</text>
<line x1="507.3" y1="528" x2="507.3" y2="533" stroke="#333" stroke-width="1.5"/>
<text x="507.3" y="546" text-anchor="middle" fill="#333">2002</text>
<line x1="558.3" y1="528" x2="558.3" y2="533" stroke="#333" stroke-width="1.5"/>
<text x="558.3" y="546" text-anchor="middle" fill="#333">2004</text>
<line x1="609.4" y1="528" x2="609.4" y2="533" stroke="#333" stroke-width="1.5"/>
<text x="609.4" y="546" text-anchor="middle" fill="#333">2006</text>
<line x1="660.4" y1="528" x2="660.4" y2="533" stroke="#333" stroke-width="1.5"/>
<text x="660.4" y="546" text-anchor="middle" fill="#333">2008</text>
<line x1="711.5" y1="528" x2="711.5" y2="533" stroke="#333" stroke-width="1.5"/>
<text x="711.5" y="546" text-anchor="middle" fill="#333">2010</text>
<line x1="762.5" y1="528" x2="762.5" y2="533" stroke="#333" stroke-width="1.5"/>
<text x="762.5" y="546" text-anchor="middle" fill="#333">2012</text>
<line x1="813.6" y1="528" x2="813.6" y2="533" stroke="#333" stroke-width="1.5"/>
<text x="813.6" y="546" text-anchor="middle" fill="#333">2014</text>
<line x1="68" y1="298" x2="68" y2="528" stroke="#333" stroke-width="1.5"/>
<line x1="68" y1="528" x2="838" y2="528" stroke="#333" stroke-width="1.5"/>
<text transform="rotate(-90)" x="-413" y="16" text-anchor="middle" fill="#374151" font-size="11">Contribution [×10⁹ cm⁻³]</text>
<text x="453" y="566" text-anchor="middle" fill="#4b5563" font-size="11">Year</text>
<line x1="78" y1="312" x2="100" y2="312" stroke="#f59e0b" stroke-width="1.8"/>
<text x="105" y="316" fill="#374151" font-size="11">dlm-js solar β̂·X_solar</text>
<line x1="78" y1="327" x2="100" y2="327" stroke="#8b5cf6" stroke-width="1.8"/>
<text x="105" y="331" fill="#374151" font-size="11">dlm-js QBO β̂_qbo1·X₁ + β̂_qbo2·X₂</text>
<line x1="78" y1="342" x2="100" y2="342" stroke="#dc2626" stroke-width="1.4" stroke-dasharray="5 3"/>
<text x="105" y="346" fill="#374151" font-size="11">MATLAB solar (reference)</text>
<line x1="78" y1="357" x2="100" y2="357" stroke="#dc2626" stroke-width="1.4" stroke-dasharray="2 3"/>
<text x="105" y="361" fill="#374151" font-size="11">MATLAB QBO (reference)</text>
<text x="453" y="288" text-anchor="middle" fill="#374151" font-size="13" font-weight="bold">Proxy covariate contributions (solar + QBO)</text>
</svg>