<svg width="860" height="578" xmlns="http://www.w3.org/2000/svg" font-family="sans-serif" font-size="12">
<rect width="860" height="578" fill="white"/>
<line x1="68" y1="214.0" x2="838" y2="214.0" stroke="#e5e7eb" stroke-width="1"/>
<line x1="68" y1="137.3" x2="838" y2="137.3" stroke="#e5e7eb" stroke-width="1"/>
<line x1="68" y1="60.7" x2="838" y2="60.7" stroke="#e5e7eb" stroke-width="1"/>
<path d="M68.0,100.2L70.4,100.6L72.7,100.9L75.1,101.3L77.4,101.6L79.7,102.0L82.1,102.3L84.5,102.6L86.8,102.9L89.2,103.3L91.6,103.6L94.0,103.9L96.3,104.2L98.7,104.5L101.1,104.7L103.5,105.0L105.8,105.3L108.0,105.5L110.4,105.8L112.8,106.0L115.1,106.3L117.5,106.5L119.9,106.7L122.3,106.9L124.7,107.1L127.0,107.3L129.4,107.5L131.8,107.7L134.1,107.9L136.4,108.1L138.7,108.2L141.1,108.4L143.5,108.5L145.8,108.7L148.2,108.8L150.6,109.0L153.0,109.1L155.3,109.3L157.7,109.4L160.1,109.5L162.4,109.7L164.8,109.8L167.1,109.9L169.5,110.1L171.9,110.2L174.2,110.3L176.6,110.4L179.0,110.6L181.4,110.7L183.7,110.8L186.1,111.0L188.5,111.1L190.8,111.2L193.1,111.3L195.5,111.5L197.8,111.6L200.2,111.8L202.6,111.9L205.0,112.0L207.3,112.2L209.7,112.3L212.1,112.5L214.4,112.6L216.8,112.8L219.1,113.0L221.4,113.1L223.8,113.3L226.2,113.5L228.5,113.6L230.9,113.8L233.3,114.0L235.7,114.2L238.0,114.4L240.4,114.6L242.8,114.8L245.2,115.0L247.5,115.2L249.8,115.5L252.1,115.7L254.5,115.9L256.9,116.2L259.2,116.4L261.6,116.7L264.0,116.9L266.4,117.2L268.7,117.5L271.1,117.8L273.5,118.0L275.8,118.3L278.2,118.6L280.5,118.9L282.9,119.2L285.3,119.5L287.6,119.8L290.0,120.1L292.4,120.5L294.8,120.8L297.1,121.1L299.5,121.4L301.9,121.8L304.2,122.1L306.5,122.4L308.8,122.7L311.2,123.1L313.6,123.4L316.0,123.7L318.4,124.1L320.7,124.4L323.1,124.7L325.5,125.0L327.8,125.4L330.2,125.7L332.5,126.0L334.8,126.3L337.2,126.7L339.5,127.0L341.9,127.3L344.3,127.6L346.7,127.9L349.0,128.2L351.4,128.5L353.8,128.8L356.1,129.1L358.6,129.4L360.8,129.6L363.1,129.9L365.5,130.2L367.9,130.5L370.2,130.7L372.6,131.0L375.0,131.2L377.4,131.4L379.7,131.7L382.1,131.9L384.5,132.1L386.9,132.3L389.2,132.5L391.5,132.7L393.9,132.9L396.3,133.1L398.6,133.3L401.0,133.4L403.4,133.6L405.8,133.7L408.1,133.9L410.5,134.0L412.9,134.2L415.3,134.3L417.6,134.4L419.9,134.5L422.2,134.6L424.6,134.7L427.0,134.8L429.3,134.9L431.7,135.0L434.1,135.1L436.5,135.1L438.8,135.2L441.2,135.2L443.6,135.3L445.9,135.3L448.2,135.4L450.6,135.4L452.9,135.4L455.3,135.4L457.7,135.4L460.1,135.4L462.4,135.4L464.8,135.4L467.2,135.4L469.5,135.3L471.9,135.3L474.2,135.2L476.5,135.2L478.9,135.1L481.2,135.0L483.6,134.9L486.0,134.8L488.4,134.7L490.8,134.6L493.1,134.5L495.5,134.4L497.9,134.2L500.3,134.1L502.6,134.0L504.9,133.8L507.3,133.7L509.7,133.5L512.0,133.3L514.4,133.2L516.8,133.0L519.2,132.8L521.5,132.6L523.9,132.4L526.3,132.2L528.7,132.0L531.0,131.9L533.2,131.7L535.6,131.5L538.0,131.3L540.3,131.1L542.7,130.9L545.1,130.7L547.5,130.5L549.9,130.3L552.2,130.1L554.6,129.9L557.0,129.7L559.3,129.5L561.6,129.3L563.9,129.2L566.3,129.0L568.7,128.8L571.0,128.6L573.4,128.5L575.8,128.3L578.2,128.2L580.5,128.0L582.9,127.9L585.3,127.7L587.6,127.6L589.9,127.4L592.3,127.3L594.6,127.2L597.0,127.0L599.4,126.9L601.8,126.8L604.1,126.7L606.5,126.6L608.9,126.5L611.2,126.3L613.6,126.2L616.0,126.2L618.3,126.1L620.7,126.0L623.0,125.9L625.4,125.8L627.8,125.7L630.2,125.6L632.5,125.6L634.9,125.5L637.3,125.4L639.6,125.4L642.0,125.3L644.3,125.2L646.6,125.2L649.0,125.1L651.4,125.1L653.7,125.1L656.1,125.0L658.5,125.0L660.9,124.9L663.2,124.9L665.6,124.9L668.0,124.9L670.4,124.8L672.7,124.8L675.0,124.8L677.3,124.8L679.7,124.8L682.1,124.8L684.4,124.8L686.8,124.8L689.2,124.8L691.6,124.8L693.9,124.8L696.3,124.8L698.7,124.8L701.0,124.8L703.3,124.9L705.6,124.9L708.0,124.9L710.4,124.9L712.7,125.0L715.2,125.0L717.5,125.0L719.9,125.1L722.3,125.1L724.6,125.1L727.0,125.2L729.4,125.2L731.7,125.3L734.0,125.3L736.4,125.3L738.8,125.4L741.1,125.4L743.6,125.4L745.9,125.5L748.3,125.5L750.7,125.5L753.0,125.6L755.4,125.6L757.7,125.6L760.0,125.6L762.4,125.6L764.7,125.6L767.1,125.6L769.5,125.6L771.9,125.6L774.2,125.6L776.6,125.6L779.0,125.6L781.3,125.5L783.8,125.5L786.0,125.5L788.3,125.4L790.7,125.3L793.1,125.3L795.4,125.2L797.8,125.1L800.2,125.0L802.6,124.9L804.9,124.8L807.3,124.7L809.7,124.6L812.1,124.5L814.4,124.4L816.7,124.2L819.0,124.1L821.4,123.9L823.8,123.8L826.1,123.6L828.5,123.5L830.9,123.3L833.3,123.1L835.6,122.9L838.0,122.7L838.0,142.0L835.6,141.7L833.3,141.4L830.9,141.1L828.5,140.8L826.1,140.6L823.8,140.3L821.4,140.1L819.0,139.8L816.7,139.6L814.4,139.4L812.1,139.2L809.7,139.0L807.3,138.8L804.9,138.6L802.6,138.4L800.2,138.2L797.8,138.0L795.4,137.8L793.1,137.7L790.7,137.5L788.3,137.4L786.0,137.2L783.8,137.1L781.3,137.0L779.0,136.8L776.6,136.7L774.2,136.6L771.9,136.5L769.5,136.4L767.1,136.3L764.7,136.2L762.4,136.1L760.0,136.0L757.7,135.9L755.4,135.8L753.0,135.7L750.7,135.6L748.3,135.5L745.9,135.4L743.6,135.4L741.1,135.3L738.8,135.2L736.4,135.1L734.0,135.1L731.7,135.0L729.4,134.9L727.0,134.9L724.6,134.8L722.3,134.7L719.9,134.7L717.5,134.6L715.2,134.5L712.7,134.5L710.4,134.4L708.0,134.4L705.6,134.3L703.3,134.3L701.0,134.3L698.7,134.2L696.3,134.2L693.9,134.2L691.6,134.1L689.2,134.1L686.8,134.1L684.4,134.1L682.1,134.0L679.7,134.0L677.3,134.0L675.0,134.0L672.7,134.0L670.4,134.0L668.0,134.0L665.6,134.0L663.2,134.1L660.9,134.1L658.5,134.1L656.1,134.1L653.7,134.2L651.4,134.2L649.0,134.2L646.6,134.3L644.3,134.3L642.0,134.4L639.6,134.4L637.3,134.5L634.9,134.5L632.5,134.6L630.2,134.7L627.8,134.8L625.4,134.8L623.0,134.9L620.7,135.0L618.3,135.1L616.0,135.2L613.6,135.3L611.2,135.4L608.9,135.5L606.5,135.6L604.1,135.8L601.8,135.9L599.4,136.0L597.0,136.2L594.6,136.3L592.3,136.4L589.9,136.6L587.6,136.7L585.3,136.9L582.9,137.1L580.5,137.2L578.2,137.4L575.8,137.6L573.4,137.8L571.0,137.9L568.7,138.1L566.3,138.3L563.9,138.5L561.6,138.7L559.3,138.9L557.0,139.1L554.6,139.3L552.2,139.5L549.9,139.7L547.5,139.9L545.1,140.1L542.7,140.3L540.3,140.5L538.0,140.7L535.6,140.9L533.2,141.1L531.0,141.3L528.7,141.5L526.3,141.7L523.9,141.9L521.5,142.0L519.2,142.2L516.8,142.4L514.4,142.6L512.0,142.7L509.7,142.9L507.3,143.0L504.9,143.2L502.6,143.3L500.3,143.5L497.9,143.6L495.5,143.7L493.1,143.8L490.8,143.9L488.4,144.0L486.0,144.1L483.6,144.2L481.2,144.3L478.9,144.3L476.5,144.4L474.2,144.4L471.9,144.5L469.5,144.5L467.2,144.5L464.8,144.6L462.4,144.6L460.1,144.6L457.7,144.6L455.3,144.6L452.9,144.5L450.6,144.5L448.2,144.5L445.9,144.4L443.6,144.4L441.2,144.3L438.8,144.3L436.5,144.2L434.1,144.2L431.7,144.1L429.3,144.0L427.0,143.9L424.6,143.8L422.2,143.7L419.9,143.6L417.6,143.5L415.3,143.4L412.9,143.2L410.5,143.1L408.1,143.0L405.8,142.8L403.4,142.7L401.0,142.5L398.6,142.3L396.3,142.2L393.9,142.0L391.5,141.8L389.2,141.6L386.9,141.4L384.5,141.2L382.1,141.0L379.7,140.7L377.4,140.5L375.0,140.3L372.6,140.0L370.2,139.8L367.9,139.5L365.5,139.3L363.1,139.0L360.8,138.7L358.6,138.4L356.1,138.2L353.8,137.9L351.4,137.6L349.0,137.3L346.7,137.0L344.3,136.7L341.9,136.4L339.5,136.1L337.2,135.8L334.8,135.5L332.5,135.2L330.2,134.8L327.8,134.5L325.5,134.2L323.1,133.9L320.7,133.6L318.4,133.3L316.0,133.0L313.6,132.7L311.2,132.4L308.8,132.0L306.5,131.7L304.2,131.4L301.9,131.1L299.5,130.8L297.1,130.5L294.8,130.3L292.4,130.0L290.0,129.7L287.6,129.4L285.3,129.1L282.9,128.8L280.5,128.6L278.2,128.3L275.8,128.0L273.5,127.8L271.1,127.5L268.7,127.3L266.4,127.0L264.0,126.8L261.6,126.6L259.2,126.3L256.9,126.1L254.5,125.9L252.1,125.7L249.8,125.5L247.5,125.3L245.2,125.1L242.8,124.9L240.4,124.7L238.0,124.5L235.7,124.3L233.3,124.1L230.9,123.9L228.5,123.8L226.2,123.6L223.8,123.4L221.4,123.2L219.1,123.1L216.8,122.9L214.4,122.7L212.1,122.6L209.7,122.4L207.3,122.3L205.0,122.1L202.6,121.9L200.2,121.8L197.8,121.6L195.5,121.5L193.1,121.3L190.8,121.1L188.5,121.0L186.1,120.8L183.7,120.7L181.4,120.6L179.0,120.4L176.6,120.3L174.2,120.1L171.9,120.0L169.5,119.9L167.1,119.8L164.8,119.6L162.4,119.5L160.1,119.4L157.7,119.3L155.3,119.2L153.0,119.1L150.6,119.0L148.2,118.9L145.8,118.9L143.5,118.8L141.1,118.7L138.7,118.7L136.4,118.6L134.1,118.6L131.8,118.5L129.4,118.5L127.0,118.5L124.7,118.5L122.3,118.4L119.9,118.4L117.5,118.4L115.1,118.5L112.8,118.5L110.4,118.5L108.0,118.5L105.8,118.6L103.5,118.6L101.1,118.7L98.7,118.7L96.3,118.8L94.0,118.9L91.6,119.0L89.2,119.1L86.8,119.2L84.5,119.3L82.1,119.4L79.7,119.5L77.4,119.7L75.1,119.8L72.7,119.9L70.4,120.1L68.0,120.2Z" fill="#3b82f6" fill-opacity="0.15" stroke="none"/>
<path d="M68.0,100.2L70.4,100.6L72.7,100.9L75.1,101.3L77.4,101.6L79.7,102.0L82.1,102.3L84.5,102.6L86.8,102.9L89.2,103.3L91.6,103.6L94.0,103.9L96.3,104.2L98.7,104.5L101.1,104.7L103.5,105.0L105.8,105.3L108.0,105.5L110.4,105.8L112.8,106.0L115.1,106.3L117.5,106.5L119.9,106.7L122.3,106.9L124.7,107.1L127.0,107.3L129.4,107.5L131.8,107.7L134.1,107.9L136.4,108.1L138.7,108.2L141.1,108.4L143.5,108.5L145.8,108.7L148.2,108.8L150.6,109.0L153.0,109.1L155.3,109.3L157.7,109.4L160.1,109.5L162.4,109.7L164.8,109.8L167.1,109.9L169.5,110.1L171.9,110.2L174.2,110.3L176.6,110.4L179.0,110.6L181.4,110.7L183.7,110.8L186.1,111.0L188.5,111.1L190.8,111.2L193.1,111.3L195.5,111.5L197.8,111.6L200.2,111.8L202.6,111.9L205.0,112.0L207.3,112.2L209.7,112.3L212.1,112.5L214.4,112.6L216.8,112.8L219.1,113.0L221.4,113.1L223.8,113.3L226.2,113.5L228.5,113.6L230.9,113.8L233.3,114.0L235.7,114.2L238.0,114.4L240.4,114.6L242.8,114.8L245.2,115.0L247.5,115.2L249.8,115.5L252.1,115.7L254.5,115.9L256.9,116.2L259.2,116.4L261.6,116.7L264.0,116.9L266.4,117.2L268.7,117.5L271.1,117.8L273.5,118.0L275.8,118.3L278.2,118.6L280.5,118.9L282.9,119.2L285.3,119.5L287.6,119.8L290.0,120.1L292.4,120.5L294.8,120.8L297.1,121.1L299.5,121.4L301.9,121.8L304.2,122.1L306.5,122.4L308.8,122.7L311.2,123.1L313.6,123.4L316.0,123.7L318.4,124.1L320.7,124.4L323.1,124.7L325.5,125.0L327.8,125.4L330.2,125.7L332.5,126.0L334.8,126.3L337.2,126.7L339.5,127.0L341.9,127.3L344.3,127.6L346.7,127.9L349.0,128.2L351.4,128.5L353.8,128.8L356.1,129.1L358.6,129.4L360.8,129.6L363.1,129.9L365.5,130.2L367.9,130.5L370.2,130.7L372.6,131.0L375.0,131.2L377.4,131.4L379.7,131.7L382.1,131.9L384.5,132.1L386.9,132.3L389.2,132.5L391.5,132.7L393.9,132.9L396.3,133.1L398.6,133.3L401.0,133.4L403.4,133.6L405.8,133.7L408.1,133.9L410.5,134.0L412.9,134.2L415.3,134.3L417.6,134.4L419.9,134.5L422.2,134.6L424.6,134.7L427.0,134.8L429.3,134.9L431.7,135.0L434.1,135.1L436.5,135.1L438.8,135.2L441.2,135.2L443.6,135.3L445.9,135.3L448.2,135.4L450.6,135.4L452.9,135.4L455.3,135.4L457.7,135.4L460.1,135.4L462.4,135.4L464.8,135.4L467.2,135.4L469.5,135.3L471.9,135.3L474.2,135.2L476.5,135.2L478.9,135.1L481.2,135.0L483.6,134.9L486.0,134.8L488.4,134.7L490.8,134.6L493.1,134.5L495.5,134.4L497.9,134.2L500.3,134.1L502.6,134.0L504.9,133.8L507.3,133.7L509.7,133.5L512.0,133.3L514.4,133.2L516.8,133.0L519.2,132.8L521.5,132.6L523.9,132.4L526.3,132.2L528.7,132.0L531.0,131.9L533.2,131.7L535.6,131.5L538.0,131.3L540.3,131.1L542.7,130.9L545.1,130.7L547.5,130.5L549.9,130.3L552.2,130.1L554.6,129.9L557.0,129.7L559.3,129.5L561.6,129.3L563.9,129.2L566.3,129.0L568.7,128.8L571.0,128.6L573.4,128.5L575.8,128.3L578.2,128.2L580.5,128.0L582.9,127.9L585.3,127.7L587.6,127.6L589.9,127.4L592.3,127.3L594.6,127.2L597.0,127.0L599.4,126.9L601.8,126.8L604.1,126.7L606.5,126.6L608.9,126.5L611.2,126.3L613.6,126.2L616.0,126.2L618.3,126.1L620.7,126.0L623.0,125.9L625.4,125.8L627.8,125.7L630.2,125.6L632.5,125.6L634.9,125.5L637.3,125.4L639.6,125.4L642.0,125.3L644.3,125.2L646.6,125.2L649.0,125.1L651.4,125.1L653.7,125.1L656.1,125.0L658.5,125.0L660.9,124.9L663.2,124.9L665.6,124.9L668.0,124.9L670.4,124.8L672.7,124.8L675.0,124.8L677.3,124.8L679.7,124.8L682.1,124.8L684.4,124.8L686.8,124.8L689.2,124.8L691.6,124.8L693.9,124.8L696.3,124.8L698.7,124.8L701.0,124.8L703.3,124.9L705.6,124.9L708.0,124.9L710.4,124.9L712.7,125.0L715.2,125.0L717.5,125.0L719.9,125.1L722.3,125.1L724.6,125.1L727.0,125.2L729.4,125.2L731.7,125.3L734.0,125.3L736.4,125.3L738.8,125.4L741.1,125.4L743.6,125.4L745.9,125.5L748.3,125.5L750.7,125.5L753.0,125.6L755.4,125.6L757.7,125.6L760.0,125.6L762.4,125.6L764.7,125.6L767.1,125.6L769.5,125.6L771.9,125.6L774.2,125.6L776.6,125.6L779.0,125.6L781.3,125.5L783.8,125.5L786.0,125.5L788.3,125.4L790.7,125.3L793.1,125.3L795.4,125.2L797.8,125.1L800.2,125.0L802.6,124.9L804.9,124.8L807.3,124.7L809.7,124.6L812.1,124.5L814.4,124.4L816.7,124.2L819.0,124.1L821.4,123.9L823.8,123.8L826.1,123.6L828.5,123.5L830.9,123.3L833.3,123.1L835.6,122.9L838.0,122.7L838.0,142.0L835.6,141.7L833.3,141.4L830.9,141.1L828.5,140.8L826.1,140.6L823.8,140.3L821.4,140.1L819.0,139.8L816.7,139.6L814.4,139.4L812.1,139.2L809.7,139.0L807.3,138.8L804.9,138.6L802.6,138.4L800.2,138.2L797.8,138.0L795.4,137.8L793.1,137.7L790.7,137.5L788.3,137.4L786.0,137.2L783.8,137.1L781.3,137.0L779.0,136.8L776.6,136.7L774.2,136.6L771.9,136.5L769.5,136.4L767.1,136.3L764.7,136.2L762.4,136.1L760.0,136.0L757.7,135.9L755.4,135.8L753.0,135.7L750.7,135.6L748.3,135.5L745.9,135.4L743.6,135.4L741.1,135.3L738.8,135.2L736.4,135.1L734.0,135.1L731.7,135.0L729.4,134.9L727.0,134.9L724.6,134.8L722.3,134.7L719.9,134.7L717.5,134.6L715.2,134.5L712.7,134.5L710.4,134.4L708.0,134.4L705.6,134.3L703.3,134.3L701.0,134.3L698.7,134.2L696.3,134.2L693.9,134.2L691.6,134.1L689.2,134.1L686.8,134.1L684.4,134.1L682.1,134.0L679.7,134.0L677.3,134.0L675.0,134.0L672.7,134.0L670.4,134.0L668.0,134.0L665.6,134.0L663.2,134.1L660.9,134.1L658.5,134.1L656.1,134.1L653.7,134.2L651.4,134.2L649.0,134.2L646.6,134.3L644.3,134.3L642.0,134.4L639.6,134.4L637.3,134.5L634.9,134.5L632.5,134.6L630.2,134.7L627.8,134.8L625.4,134.8L623.0,134.9L620.7,135.0L618.3,135.1L616.0,135.2L613.6,135.3L611.2,135.4L608.9,135.5L606.5,135.6L604.1,135.8L601.8,135.9L599.4,136.0L597.0,136.2L594.6,136.3L592.3,136.4L589.9,136.6L587.6,136.7L585.3,136.9L582.9,137.1L580.5,137.2L578.2,137.4L575.8,137.6L573.4,137.8L571.0,137.9L568.7,138.1L566.3,138.3L563.9,138.5L561.6,138.7L559.3,138.9L557.0,139.1L554.6,139.3L552.2,139.5L549.9,139.7L547.5,139.9L545.1,140.1L542.7,140.3L540.3,140.5L538.0,140.7L535.6,140.9L533.2,141.1L531.0,141.3L528.7,141.5L526.3,141.7L523.9,141.9L521.5,142.0L519.2,142.2L516.8,142.4L514.4,142.6L512.0,142.7L509.7,142.9L507.3,143.0L504.9,143.2L502.6,143.3L500.3,143.5L497.9,143.6L495.5,143.7L493.1,143.8L490.8,143.9L488.4,144.0L486.0,144.1L483.6,144.2L481.2,144.3L478.9,144.3L476.5,144.4L474.2,144.4L471.9,144.5L469.5,144.5L467.2,144.5L464.8,144.6L462.4,144.6L460.1,144.6L457.7,144.6L455.3,144.6L452.9,144.5L450.6,144.5L448.2,144.5L445.9,144.4L443.6,144.4L441.2,144.3L438.8,144.3L436.5,144.2L434.1,144.2L431.7,144.1L429.3,144.0L427.0,143.9L424.6,143.8L422.2,143.7L419.9,143.6L417.6,143.5L415.3,143.4L412.9,143.2L410.5,143.1L408.1,143.0L405.8,142.8L403.4,142.7L401.0,142.5L398.6,142.3L396.3,142.2L393.9,142.0L391.5,141.8L389.2,141.6L386.9,141.4L384.5,141.2L382.1,141.0L379.7,140.7L377.4,140.5L375.0,140.3L372.6,140.0L370.2,139.8L367.9,139.5L365.5,139.3L363.1,139.0L360.8,138.7L358.6,138.4L356.1,138.2L353.8,137.9L351.4,137.6L349.0,137.3L346.7,137.0L344.3,136.7L341.9,136.4L339.5,136.1L337.2,135.8L334.8,135.5L332.5,135.2L330.2,134.8L327.8,134.5L325.5,134.2L323.1,133.9L320.7,133.6L318.4,133.3L316.0,133.0L313.6,132.7L311.2,132.4L308.8,132.0L306.5,131.7L304.2,131.4L301.9,131.1L299.5,130.8L297.1,130.5L294.8,130.3L292.4,130.0L290.0,129.7L287.6,129.4L285.3,129.1L282.9,128.8L280.5,128.6L278.2,128.3L275.8,128.0L273.5,127.8L271.1,127.5L268.7,127.3L266.4,127.0L264.0,126.8L261.6,126.6L259.2,126.3L256.9,126.1L254.5,125.9L252.1,125.7L249.8,125.5L247.5,125.3L245.2,125.1L242.8,124.9L240.4,124.7L238.0,124.5L235.7,124.3L233.3,124.1L230.9,123.9L228.5,123.8L226.2,123.6L223.8,123.4L221.4,123.2L219.1,123.1L216.8,122.9L214.4,122.7L212.1,122.6L209.7,122.4L207.3,122.3L205.0,122.1L202.6,121.9L200.2,121.8L197.8,121.6L195.5,121.5L193.1,121.3L190.8,121.1L188.5,121.0L186.1,120.8L183.7,120.7L181.4,120.6L179.0,120.4L176.6,120.3L174.2,120.1L171.9,120.0L169.5,119.9L167.1,119.8L164.8,119.6L162.4,119.5L160.1,119.4L157.7,119.3L155.3,119.2L153.0,119.1L150.6,119.0L148.2,118.9L145.8,118.9L143.5,118.8L141.1,118.7L138.7,118.7L136.4,118.6L134.1,118.6L131.8,118.5L129.4,118.5L127.0,118.5L124.7,118.5L122.3,118.4L119.9,118.4L117.5,118.4L115.1,118.5L112.8,118.5L110.4,118.5L108.0,118.5L105.8,118.6L103.5,118.6L101.1,118.7L98.7,118.7L96.3,118.8L94.0,118.9L91.6,119.0L89.2,119.1L86.8,119.2L84.5,119.3L82.1,119.4L79.7,119.5L77.4,119.7L75.1,119.8L72.7,119.9L70.4,120.1L68.0,120.2Z" fill="#f59e0b" fill-opacity="0.10" stroke="none"/>
<polyline points="68.0,126.4 70.4,170.5 72.7,127.5 75.1,140.1 77.4,120.9 79.7,81.9 82.1,158.8 84.5,89.3 89.2,58.5 91.6,39.8 94.0,69.2 96.3,107.4 98.7,147.2 101.1,79.9 103.5,101.5 105.8,108.6 108.0,145.6 110.4,161.1 112.8,113.2 117.5,50.7 119.9,32.9 122.3,67.6 124.7,110.8 127.0,154.5 129.4,210.0 131.8,180.7 134.1,178.8 136.4,170.2 138.7,131.5 141.1,98.6 145.8,31.2 148.2,33.5 150.6,66.4 153.0,114.1 155.3,121.3 157.7,140.3 160.1,143.2 162.4,72.9 164.8,69.6 167.1,152.7 169.5,113.7 171.9,43.0 174.2,38.5 179.0,65.5 181.4,107.9 183.7,166.1 186.1,140.1 188.5,125.6 190.8,90.7 193.1,171.6 195.5,161.7 197.8,122.8 200.2,60.5 202.6,49.9 207.3,77.1 209.7,127.2 212.1,206.8 214.4,179.9 216.8,151.0 219.1,124.8 221.4,161.0 223.8,176.8 226.2,114.2 228.5,52.9 230.9,39.4 235.7,71.3 238.0,115.7 240.4,138.4 242.8,156.8 245.2,105.8 247.5,96.4 249.8,120.0 252.1,147.5 254.5,114.0 256.9,50.6 259.2,39.1 264.0,51.0 266.4,95.9 268.7,177.9 271.1,133.6 273.5,107.2 275.8,127.3 278.2,115.6 280.5,158.2 282.9,116.9 285.3,75.2 287.6,50.8 292.4,80.2 294.8,131.5 297.1,180.1 299.5,155.6 301.9,162.6 304.2,100.6 306.5,144.5 308.8,185.0 311.2,144.9 313.6,36.9 316.0,69.2 320.7,115.3 323.1,128.2 327.8,201.8 332.5,80.7 339.5,161.0 341.9,94.2 344.3,71.1 346.7,75.6 349.0,103.8 351.4,151.4 353.8,195.6 356.1,219.4 358.6,134.0 360.8,168.7 363.1,179.3 365.5,171.8 370.2,124.1 372.6,83.4 375.0,69.8 377.4,111.7 379.7,139.6 382.1,185.7 384.5,221.2 386.9,190.7 389.2,107.5 391.5,175.4 393.9,179.7 398.6,83.3 401.0,87.6 403.4,65.0 405.8,101.6 408.1,149.3 410.5,226.3 412.9,247.8 415.3,108.1 417.6,127.6 419.9,162.3 422.2,155.5 427.0,110.7 429.3,86.8 431.7,61.7 434.1,94.8 436.5,144.9 438.8,173.8 441.2,153.9 443.6,165.2 445.9,159.9 448.2,170.3 450.6,161.2 452.9,104.0 455.3,79.5 460.1,46.9 462.4,97.1 464.8,149.7 467.2,225.9 469.5,211.7 471.9,204.7 474.2,148.2 476.5,203.9 478.9,190.9 481.2,135.8 483.6,98.1 488.4,56.1 490.8,101.1 493.1,154.7 495.5,190.1 497.9,215.7 500.3,114.4 502.6,176.1 504.9,201.4 507.3,195.1 509.7,126.6 512.0,94.4 523.9,152.9 526.3,173.4 528.7,111.6 531.0,160.2 535.6,184.0 540.3,91.3 545.1,67.1 547.5,89.3 552.2,168.4 554.6,215.7 557.0,184.8 559.3,171.9 561.6,166.2 563.9,98.8 566.3,72.2 568.7,90.9 571.0,60.6 573.4,57.4 575.8,79.5 578.2,127.3 580.5,175.9 582.9,135.2 585.3,139.5 587.6,152.0 589.9,161.8 592.3,158.8 594.6,115.8 597.0,101.6 599.4,57.4 601.8,56.2 604.1,71.8 606.5,167.0 608.9,202.8 611.2,184.0 613.6,216.4 616.0,133.7 618.3,138.2 620.7,139.3 623.0,123.3 625.4,100.5 627.8,68.0 630.2,58.7 632.5,74.1 634.9,145.7 637.3,196.2 639.6,234.2 642.0,121.5 644.3,112.7 646.6,181.6 651.4,145.4 656.1,80.8 658.5,59.9 660.9,79.7 670.4,192.9 672.7,237.2 675.0,209.2 677.3,136.4 679.7,117.3 682.1,105.5 684.4,54.1 686.8,62.6 689.2,72.4 698.7,165.5 701.0,107.9 703.3,176.1 705.6,160.0 708.0,133.3 710.4,104.6 715.2,76.8 727.0,119.7 729.4,144.7 731.7,229.5 734.0,187.3 736.4,132.6 738.8,113.2 741.1,71.5 743.6,77.1 745.9,73.9 750.7,192.9 753.0,117.8 755.4,149.6 760.0,213.4 764.7,120.7 769.5,88.1 771.9,76.8 779.0,204.0 781.3,129.3 783.8,154.1 786.0,126.6 788.3,224.5 790.7,139.3 793.1,107.7 795.4,92.9 797.8,86.7 800.2,86.3 809.7,108.7 812.1,90.9 816.7,205.0 819.0,182.3 821.4,127.0 823.8,99.6 826.1,107.0 828.5,110.4" fill="none" stroke="#9ca3af" stroke-width="1" opacity="0.6"/>
<polyline points="68.0,110.2 70.4,110.3 72.7,110.4 75.1,110.5 77.4,110.6 79.7,110.7 82.1,110.9 84.5,111.0 86.8,111.1 89.2,111.2 91.6,111.3 94.0,111.4 96.3,111.5 98.7,111.6 101.1,111.7 103.5,111.8 105.8,111.9 108.0,112.0 110.4,112.1 112.8,112.3 115.1,112.4 117.5,112.5 119.9,112.6 122.3,112.7 124.7,112.8 127.0,112.9 129.4,113.0 131.8,113.1 134.1,113.2 136.4,113.3 138.7,113.4 141.1,113.6 143.5,113.7 145.8,113.8 148.2,113.9 150.6,114.0 153.0,114.1 155.3,114.2 157.7,114.4 160.1,114.5 162.4,114.6 164.8,114.7 167.1,114.8 169.5,115.0 171.9,115.1 174.2,115.2 176.6,115.4 179.0,115.5 181.4,115.6 183.7,115.8 186.1,115.9 188.5,116.0 190.8,116.2 193.1,116.3 195.5,116.5 197.8,116.6 200.2,116.8 202.6,116.9 205.0,117.1 207.3,117.2 209.7,117.4 212.1,117.5 214.4,117.7 216.8,117.9 219.1,118.0 221.4,118.2 223.8,118.4 226.2,118.5 228.5,118.7 230.9,118.9 233.3,119.1 235.7,119.3 238.0,119.4 240.4,119.6 242.8,119.8 245.2,120.0 247.5,120.3 249.8,120.5 252.1,120.7 254.5,120.9 256.9,121.1 259.2,121.4 261.6,121.6 264.0,121.9 266.4,122.1 268.7,122.4 271.1,122.6 273.5,122.9 275.8,123.2 278.2,123.5 280.5,123.7 282.9,124.0 285.3,124.3 287.6,124.6 290.0,124.9 292.4,125.2 294.8,125.5 297.1,125.8 299.5,126.1 301.9,126.4 304.2,126.8 306.5,127.1 308.8,127.4 311.2,127.7 313.6,128.0 316.0,128.4 318.4,128.7 320.7,129.0 323.1,129.3 325.5,129.6 327.8,129.9 330.2,130.3 332.5,130.6 334.8,130.9 337.2,131.2 339.5,131.5 341.9,131.8 344.3,132.1 346.7,132.4 349.0,132.7 351.4,133.0 353.8,133.3 356.1,133.6 358.6,133.9 360.8,134.2 363.1,134.5 365.5,134.7 367.9,135.0 370.2,135.2 372.6,135.5 375.0,135.7 377.4,136.0 379.7,136.2 382.1,136.4 384.5,136.6 386.9,136.9 389.2,137.1 391.5,137.3 393.9,137.4 396.3,137.6 398.6,137.8 401.0,138.0 403.4,138.1 405.8,138.3 408.1,138.4 410.5,138.6 412.9,138.7 415.3,138.8 417.6,138.9 419.9,139.1 422.2,139.2 424.6,139.3 427.0,139.4 429.3,139.5 431.7,139.5 434.1,139.6 436.5,139.7 438.8,139.7 441.2,139.8 443.6,139.8 445.9,139.9 448.2,139.9 450.6,140.0 452.9,140.0 455.3,140.0 457.7,140.0 460.1,140.0 462.4,140.0 464.8,140.0 467.2,139.9 469.5,139.9 471.9,139.9 474.2,139.8 476.5,139.8 478.9,139.7 481.2,139.6 483.6,139.6 486.0,139.5 488.4,139.4 490.8,139.3 493.1,139.2 495.5,139.0 497.9,138.9 500.3,138.8 502.6,138.6 504.9,138.5 507.3,138.4 509.7,138.2 512.0,138.0 514.4,137.9 516.8,137.7 519.2,137.5 521.5,137.3 523.9,137.1 526.3,137.0 528.7,136.8 531.0,136.6 533.2,136.4 535.6,136.2 538.0,136.0 540.3,135.8 542.7,135.6 545.1,135.4 547.5,135.2 549.9,135.0 552.2,134.8 554.6,134.6 557.0,134.4 559.3,134.2 561.6,134.0 563.9,133.8 566.3,133.7 568.7,133.5 571.0,133.3 573.4,133.1 575.8,132.9 578.2,132.8 580.5,132.6 582.9,132.5 585.3,132.3 587.6,132.2 589.9,132.0 592.3,131.9 594.6,131.7 597.0,131.6 599.4,131.5 601.8,131.3 604.1,131.2 606.5,131.1 608.9,131.0 611.2,130.9 613.6,130.8 616.0,130.7 618.3,130.6 620.7,130.5 623.0,130.4 625.4,130.3 627.8,130.2 630.2,130.2 632.5,130.1 634.9,130.0 637.3,130.0 639.6,129.9 642.0,129.8 644.3,129.8 646.6,129.7 649.0,129.7 651.4,129.6 653.7,129.6 656.1,129.6 658.5,129.5 660.9,129.5 663.2,129.5 665.6,129.5 668.0,129.4 670.4,129.4 672.7,129.4 675.0,129.4 677.3,129.4 679.7,129.4 682.1,129.4 684.4,129.4 686.8,129.4 689.2,129.4 691.6,129.5 693.9,129.5 696.3,129.5 698.7,129.5 701.0,129.5 703.3,129.6 705.6,129.6 708.0,129.6 710.4,129.7 712.7,129.7 715.2,129.8 717.5,129.8 719.9,129.9 722.3,129.9 724.6,130.0 727.0,130.0 729.4,130.1 731.7,130.1 734.0,130.2 736.4,130.2 738.8,130.3 741.1,130.4 743.6,130.4 745.9,130.5 748.3,130.5 750.7,130.6 753.0,130.6 755.4,130.7 757.7,130.7 760.0,130.8 762.4,130.9 764.7,130.9 767.1,131.0 769.5,131.0 771.9,131.1 774.2,131.1 776.6,131.2 779.0,131.2 781.3,131.3 783.8,131.3 786.0,131.3 788.3,131.4 790.7,131.4 793.1,131.5 795.4,131.5 797.8,131.6 800.2,131.6 802.6,131.7 804.9,131.7 807.3,131.7 809.7,131.8 812.1,131.8 814.4,131.9 816.7,131.9 819.0,132.0 821.4,132.0 823.8,132.1 826.1,132.1 828.5,132.2 830.9,132.2 833.3,132.2 835.6,132.3 838.0,132.3" fill="none" stroke="#d97706" stroke-width="1.8" stroke-dasharray="5 3"/>
<polyline points="68.0,110.2 70.4,110.3 72.7,110.4 75.1,110.5 77.4,110.6 79.7,110.7 82.1,110.9 84.5,111.0 86.8,111.1 89.2,111.2 91.6,111.3 94.0,111.4 96.3,111.5 98.7,111.6 101.1,111.7 103.5,111.8 105.8,111.9 108.0,112.0 110.4,112.1 112.8,112.3 115.1,112.4 117.5,112.5 119.9,112.6 122.3,112.7 124.7,112.8 127.0,112.9 129.4,113.0 131.8,113.1 134.1,113.2 136.4,113.3 138.7,113.4 141.1,113.6 143.5,113.7 145.8,113.8 148.2,113.9 150.6,114.0 153.0,114.1 155.3,114.2 157.7,114.4 160.1,114.5 162.4,114.6 164.8,114.7 167.1,114.8 169.5,115.0 171.9,115.1 174.2,115.2 176.6,115.4 179.0,115.5 181.4,115.6 183.7,115.8 186.1,115.9 188.5,116.0 190.8,116.2 193.1,116.3 195.5,116.5 197.8,116.6 200.2,116.8 202.6,116.9 205.0,117.1 207.3,117.2 209.7,117.4 212.1,117.5 214.4,117.7 216.8,117.9 219.1,118.0 221.4,118.2 223.8,118.4 226.2,118.5 228.5,118.7 230.9,118.9 233.3,119.1 235.7,119.3 238.0,119.4 240.4,119.6 242.8,119.8 245.2,120.0 247.5,120.3 249.8,120.5 252.1,120.7 254.5,120.9 256.9,121.1 259.2,121.4 261.6,121.6 264.0,121.9 266.4,122.1 268.7,122.4 271.1,122.6 273.5,122.9 275.8,123.2 278.2,123.5 280.5,123.7 282.9,124.0 285.3,124.3 287.6,124.6 290.0,124.9 292.4,125.2 294.8,125.5 297.1,125.8 299.5,126.1 301.9,126.4 304.2,126.8 306.5,127.1 308.8,127.4 311.2,127.7 313.6,128.0 316.0,128.4 318.4,128.7 320.7,129.0 323.1,129.3 325.5,129.6 327.8,129.9 330.2,130.3 332.5,130.6 334.8,130.9 337.2,131.2 339.5,131.5 341.9,131.8 344.3,132.1 346.7,132.4 349.0,132.7 351.4,133.0 353.8,133.3 356.1,133.6 358.6,133.9 360.8,134.2 363.1,134.5 365.5,134.7 367.9,135.0 370.2,135.2 372.6,135.5 375.0,135.7 377.4,136.0 379.7,136.2 382.1,136.4 384.5,136.6 386.9,136.9 389.2,137.1 391.5,137.3 393.9,137.4 396.3,137.6 398.6,137.8 401.0,138.0 403.4,138.1 405.8,138.3 408.1,138.4 410.5,138.6 412.9,138.7 415.3,138.8 417.6,138.9 419.9,139.1 422.2,139.2 424.6,139.3 427.0,139.4 429.3,139.5 431.7,139.5 434.1,139.6 436.5,139.7 438.8,139.7 441.2,139.8 443.6,139.8 445.9,139.9 448.2,139.9 450.6,140.0 452.9,140.0 455.3,140.0 457.7,140.0 460.1,140.0 462.4,140.0 464.8,140.0 467.2,139.9 469.5,139.9 471.9,139.9 474.2,139.8 476.5,139.8 478.9,139.7 481.2,139.6 483.6,139.6 486.0,139.5 488.4,139.4 490.8,139.3 493.1,139.2 495.5,139.0 497.9,138.9 500.3,138.8 502.6,138.6 504.9,138.5 507.3,138.4 509.7,138.2 512.0,138.0 514.4,137.9 516.8,137.7 519.2,137.5 521.5,137.3 523.9,137.1 526.3,137.0 528.7,136.8 531.0,136.6 533.2,136.4 535.6,136.2 538.0,136.0 540.3,135.8 542.7,135.6 545.1,135.4 547.5,135.2 549.9,135.0 552.2,134.8 554.6,134.6 557.0,134.4 559.3,134.2 561.6,134.0 563.9,133.8 566.3,133.7 568.7,133.5 571.0,133.3 573.4,133.1 575.8,132.9 578.2,132.8 580.5,132.6 582.9,132.5 585.3,132.3 587.6,132.2 589.9,132.0 592.3,131.9 594.6,131.7 597.0,131.6 599.4,131.5 601.8,131.3 604.1,131.2 606.5,131.1 608.9,131.0 611.2,130.9 613.6,130.8 616.0,130.7 618.3,130.6 620.7,130.5 623.0,130.4 625.4,130.3 627.8,130.2 630.2,130.2 632.5,130.1 634.9,130.0 637.3,130.0 639.6,129.9 642.0,129.8 644.3,129.8 646.6,129.7 649.0,129.7 651.4,129.6 653.7,129.6 656.1,129.6 658.5,129.5 660.9,129.5 663.2,129.5 665.6,129.5 668.0,129.4 670.4,129.4 672.7,129.4 675.0,129.4 677.3,129.4 679.7,129.4 682.1,129.4 684.4,129.4 686.8,129.4 689.2,129.4 691.6,129.5 693.9,129.5 696.3,129.5 698.7,129.5 701.0,129.5 703.3,129.6 705.6,129.6 708.0,129.6 710.4,129.7 712.7,129.7 715.2,129.8 717.5,129.8 719.9,129.9 722.3,129.9 724.6,130.0 727.0,130.0 729.4,130.1 731.7,130.1 734.0,130.2 736.4,130.2 738.8,130.3 741.1,130.4 743.6,130.4 745.9,130.5 748.3,130.5 750.7,130.6 753.0,130.6 755.4,130.7 757.7,130.7 760.0,130.8 762.4,130.9 764.7,130.9 767.1,131.0 769.5,131.0 771.9,131.1 774.2,131.1 776.6,131.2 779.0,131.2 781.3,131.3 783.8,131.3 786.0,131.3 788.3,131.4 790.7,131.4 793.1,131.5 795.4,131.5 797.8,131.6 800.2,131.6 802.6,131.7 804.9,131.7 807.3,131.7 809.7,131.8 812.1,131.8 814.4,131.9 816.7,131.9 819.0,132.0 821.4,132.0 823.8,132.1 826.1,132.1 828.5,132.2 830.9,132.2 833.3,132.2 835.6,132.3 838.0,132.3" fill="none" stroke="#2563eb" stroke-width="2.2"/>
<line x1="63" y1="214.0" x2="68" y2="214.0" stroke="#333" stroke-width="1.5"/>
<text x="60" y="214.0" text-anchor="end" dominant-baseline="middle" fill="#333">6.0</text>
<line x1="63" y1="137.3" x2="68" y2="137.3" stroke="#333" stroke-width="1.5"/>
<text x="60" y="137.3" text-anchor="end" dominant-baseline="middle" fill="#333">7.0</text>
<line x1="63" y1="60.7" x2="68" y2="60.7" stroke="#333" stroke-width="1.5"/>
<text x="60" y="60.7" text-anchor="end" dominant-baseline="middle" fill="#333">8.0</text>
<line x1="102.2" y1="260" x2="102.2" y2="265" stroke="#333" stroke-width="1.5"/>
<text x="102.2" y="278" text-anchor="middle" fill="#333">1986</text>
<line x1="158.9" y1="260" x2="158.9" y2="265" stroke="#333" stroke-width="1.5"/>
<text x="158.9" y="278" text-anchor="middle" fill="#333">1988</text>
<line x1="215.6" y1="260" x2="215.6" y2="265" stroke="#333" stroke-width="1.5"/>
<text x="215.6" y="278" text-anchor="middle" fill="#333">1990</text>
<line x1="272.3" y1="260" x2="272.3" y2="265" stroke="#333" stroke-width="1.5"/>
<text x="272.3" y="278" text-anchor="middle" fill="#333">1992</text>
<line x1="329.0" y1="260" x2="329.0" y2="265" stroke="#333" stroke-width="1.5"/>
<text x="329.0" y="278" text-anchor="middle" fill="#333">1994</text>
<line x1="385.7" y1="260" x2="385.7" y2="265" stroke="#333" stroke-width="1.5"/>
<text x="385.7" y="278" text-anchor="middle" fill="#333">1996</text>
<line x1="442.4" y1="260" x2="442.4" y2="265" stroke="#333" stroke-width="1.5"/>
<text x="442.4" y="278" text-anchor="middle" fill="#333">1998</text>
<line x1="499.1" y1="260" x2="499.1" y2="265" stroke="#333" stroke-width="1.5"/>
<text x="499.1" y="278" text-anchor="middle" fill="#333">2000</text>
<line x1="555.8" y1="260" x2="555.8" y2="265" stroke="#333" stroke-width="1.5"/>
<text x="555.8" y="278" text-anchor="middle" fill="#333">2002</text>
<line x1="612.5" y1="260" x2="612.5" y2="265" stroke="#333" stroke-width="1.5"/>
<text x="612.5" y="278" text-anchor="middle" fill="#333">2004</text>
<line x1="669.1" y1="260" x2="669.1" y2="265" stroke="#333" stroke-width="1.5"/>
<text x="669.1" y="278" text-anchor="middle" fill="#333">2006</text>
<line x1="725.8" y1="260" x2="725.8" y2="265" stroke="#333" stroke-width="1.5"/>
<text x="725.8" y="278" text-anchor="middle" fill="#333">2008</text>
<line x1="782.5" y1="260" x2="782.5" y2="265" stroke="#333" stroke-width="1.5"/>
<text x="782.5" y="278" text-anchor="middle" fill="#333">2010</text>
<line x1="68" y1="30" x2="68" y2="260" stroke="#333" stroke-width="1.5"/>
<line x1="68" y1="260" x2="838" y2="260" stroke="#333" stroke-width="1.5"/>
<text transform="rotate(-90)" x="-145" y="16" text-anchor="middle" fill="#374151" font-size="11">O₃ density [×10¹⁰ cm⁻³]</text>
<line x1="558" y1="44" x2="580" y2="44" stroke="#9ca3af" stroke-width="1"/>
<text x="585" y="48" fill="#374151" font-size="11">Observations (SAGE II / GOMOS)</text>
<line x1="558" y1="59" x2="580" y2="59" stroke="#2563eb" stroke-width="2.2"/>
<text x="585" y="63" fill="#374151" font-size="11">dlm-js smoothed level ±2σ</text>
<line x1="558" y1="74" x2="580" y2="74" stroke="#d97706" stroke-width="1.8" stroke-dasharray="5 3"/>
<text x="585" y="78" fill="#374151" font-size="11">MATLAB/Octave reference ±2σ</text>
<text x="453" y="20" text-anchor="middle" fill="#374151" font-size="13" font-weight="bold">Stratospheric ozone (45–55 km, 40°N–50°N): trend extraction</text>
<line x1="68" y1="528.0" x2="838" y2="528.0" stroke="#e5e7eb" stroke-width="1"/>
<line x1="68" y1="413.0" x2="838" y2="413.0" stroke="#e5e7eb" stroke-width="1"/>
<line x1="68" y1="298.0" x2="838" y2="298.0" stroke="#e5e7eb" stroke-width="1"/>
<line x1="68" y1="413.0" x2="838" y2="413.0" stroke="#6b7280" stroke-width="0.8" stroke-dasharray="2 2"/>
<polyline points="68.0,412.8 70.4,412.7 72.7,412.7 75.1,412.8 77.4,412.7 79.7,412.7 82.1,412.7 84.5,412.8 86.8,412.8 89.2,412.7 91.6,412.7 94.0,412.7 96.3,412.7 98.7,412.8 101.1,412.8 103.5,412.8 105.8,412.8 108.0,412.7 110.4,412.7 112.8,412.7 115.1,412.7 117.5,412.7 119.9,412.7 122.3,412.7 124.7,412.8 127.0,412.8 129.4,412.7 131.8,412.7 134.1,412.7 136.4,412.7 138.7,412.9 141.1,412.9 143.5,412.8 145.8,412.8 148.2,412.9 150.6,412.8 153.0,413.0 155.3,412.9 157.7,412.9 160.1,413.0 162.4,412.9 164.8,413.0 167.1,413.2 169.5,412.9 171.9,413.0 174.2,413.2 176.6,413.1 179.0,413.1 181.4,413.3 183.7,413.4 186.1,413.8 188.5,414.0 190.8,413.8 193.1,413.8 195.5,413.5 197.8,413.4 200.2,414.2 202.6,413.4 205.0,413.8 207.3,413.7 209.7,413.7 212.1,413.6 214.4,413.4 216.8,413.5 219.1,413.2 221.4,413.4 223.8,413.7 226.2,413.8 228.5,413.4 230.9,413.2 233.3,413.6 235.7,413.5 238.0,413.6 240.4,413.6 242.8,413.5 245.2,413.5 247.5,413.5 249.8,413.8 252.1,413.9 254.5,413.4 256.9,413.4 259.2,413.3 261.6,413.9 264.0,413.3 266.4,413.4 268.7,413.3 271.1,413.6 273.5,413.3 275.8,413.5 278.2,413.3 280.5,413.2 282.9,413.0 285.3,413.0 287.6,413.2 290.0,413.1 292.4,413.1 294.8,412.9 297.1,413.1 299.5,413.2 301.9,413.1 304.2,413.1 306.5,413.0 308.8,412.8 311.2,412.9 313.6,412.8 316.0,412.9 318.4,412.8 320.7,412.8 323.1,412.8 325.5,412.9 327.8,412.8 330.2,412.9 332.5,412.9 334.8,412.8 337.2,412.8 339.5,412.9 341.9,412.8 344.3,412.8 346.7,412.8 349.0,412.7 351.4,412.8 353.8,412.8 356.1,412.8 358.6,412.8 360.8,412.8 363.1,412.8 365.5,412.8 367.9,412.9 370.2,412.7 372.6,412.7 375.0,412.7 377.4,412.7 379.7,412.8 382.1,412.7 384.5,412.7 386.9,412.7 389.2,412.7 391.5,412.7 393.9,412.7 396.3,412.7 398.6,412.7 401.0,412.7 403.4,412.7 405.8,412.7 408.1,412.7 410.5,412.7 412.9,412.8 415.3,412.7 417.6,412.7 419.9,412.7 422.2,412.7 424.6,412.7 427.0,412.7 429.3,412.7 431.7,412.8 434.1,412.9 436.5,412.8 438.8,412.9 441.2,412.8 443.6,412.9 445.9,412.9 448.2,413.0 450.6,412.9 452.9,413.0 455.3,412.9 457.7,412.9 460.1,413.1 462.4,413.0 464.8,413.1 467.2,413.0 469.5,413.2 471.9,413.3 474.2,413.4 476.5,413.2 478.9,413.0 481.2,413.2 483.6,413.2 486.0,413.1 488.4,413.1 490.8,413.2 493.1,413.4 495.5,413.7 497.9,413.5 500.3,413.5 502.6,413.2 504.9,413.4 507.3,413.3 509.7,413.9 512.0,413.5 514.4,413.6 516.8,413.4 519.2,413.3 521.5,413.2 523.9,413.2 526.3,413.5 528.7,413.2 531.0,413.1 533.2,413.1 535.6,413.0 538.0,413.2 540.3,413.6 542.7,413.2 545.1,413.2 547.5,413.5 549.9,413.6 552.2,413.5 554.6,413.5 557.0,413.6 559.3,413.5 561.6,413.4 563.9,413.5 566.3,413.2 568.7,413.1 571.0,413.4 573.4,413.6 575.8,413.4 578.2,413.4 580.5,413.5 582.9,413.6 585.3,413.2 587.6,413.0 589.9,413.1 592.3,412.9 594.6,412.9 597.0,413.0 599.4,413.1 601.8,413.0 604.1,412.9 606.5,412.9 608.9,412.9 611.2,413.0 613.6,413.0 616.0,412.9 618.3,413.0 620.7,412.9 623.0,413.0 625.4,413.0 627.8,413.2 630.2,413.1 632.5,412.9 634.9,412.8 637.3,412.9 639.6,412.8 642.0,413.1 644.3,413.0 646.6,412.9 649.0,412.8 651.4,412.9 653.7,412.9 656.1,412.7 658.5,412.7 660.9,413.0 663.2,412.8 665.6,412.9 668.0,412.8 670.4,412.8 672.7,412.8 675.0,412.7 677.3,412.7 679.7,412.7 682.1,412.7 684.4,412.7 686.8,412.9 689.2,412.8 691.6,412.7 693.9,412.9 696.3,412.8 698.7,412.8 701.0,412.7 703.3,412.7 705.6,412.7 708.0,412.8 710.4,412.7 712.7,412.7 715.2,412.7 717.5,412.7 719.9,412.7 722.3,412.7 724.6,412.8 727.0,412.7 729.4,412.7 731.7,412.7 734.0,412.7 736.4,412.7 738.8,412.7 741.1,412.7 743.6,412.7 745.9,412.7 748.3,412.7 750.7,412.7 753.0,412.7 755.4,412.7 757.7,412.7 760.0,412.7 762.4,412.7 764.7,412.7 767.1,412.7 769.5,412.7 771.9,412.7 774.2,412.7 776.6,412.7 779.0,412.7 781.3,412.8 783.8,412.8 786.0,412.8 788.3,412.8 790.7,412.7 793.1,412.7 795.4,412.7 797.8,412.8 800.2,412.8 802.6,412.8 804.9,412.8 807.3,412.8 809.7,412.8 812.1,412.8 814.4,413.0 816.7,412.9 819.0,413.0 821.4,412.8 823.8,412.9 826.1,412.9 828.5,412.9 830.9,413.2 833.3,413.2 835.6,413.2 838.0,413.0" fill="none" stroke="#f59e0b" stroke-width="1.8"/>
<polyline points="68.0,468.4 70.4,458.7 72.7,447.0 75.1,435.9 77.4,428.7 79.7,420.6 82.1,401.1 84.5,386.8 86.8,384.2 89.2,387.8 91.6,385.8 94.0,382.5 96.3,377.7 98.7,378.5 101.1,384.1 103.5,387.1 105.8,385.2 108.0,377.2 110.4,377.4 112.8,380.1 115.1,387.7 117.5,404.9 119.9,416.1 122.3,416.2 124.7,409.3 127.0,411.2 129.4,418.3 131.8,417.7 134.1,420.3 136.4,426.9 138.7,433.7 141.1,447.4 143.5,458.4 145.8,465.6 148.2,452.3 150.6,431.2 153.0,407.8 155.3,393.5 157.7,394.6 160.1,394.0 162.4,394.4 164.8,396.0 167.1,389.3 169.5,385.3 171.9,388.9 174.2,398.8 176.6,402.1 179.0,399.9 181.4,397.9 183.7,396.9 186.1,402.4 188.5,402.0 190.8,406.7 193.1,404.1 195.5,395.0 197.8,401.5 200.2,416.8 202.6,432.3 205.0,440.5 207.3,446.4 209.7,450.1 212.1,448.6 214.4,446.1 216.8,440.6 219.1,438.4 221.4,432.7 223.8,424.9 226.2,405.4 228.5,393.2 230.9,387.7 233.3,384.4 235.7,384.1 238.0,378.9 240.4,375.2 242.8,376.4 245.2,383.9 247.5,387.4 249.8,384.9 252.1,381.8 254.5,385.4 256.9,400.6 259.2,419.5 261.6,431.6 264.0,428.1 266.4,422.2 268.7,422.3 271.1,425.5 273.5,426.7 275.8,426.3 278.2,432.1 280.5,434.3 282.9,437.2 285.3,450.3 287.6,460.5 290.0,457.9 292.4,445.5 294.8,432.9 297.1,423.6 299.5,409.0 301.9,393.2 304.2,390.0 306.5,388.6 308.8,378.7 311.2,368.9 313.6,377.4 316.0,391.2 318.4,399.3 320.7,397.2 323.1,399.6 325.5,403.3 327.8,406.3 330.2,410.6 332.5,415.6 334.8,415.1 337.2,420.7 339.5,434.1 341.9,460.0 344.3,478.5 346.7,481.6 349.0,478.9 351.4,462.8 353.8,438.9 356.1,418.3 358.6,405.2 360.8,400.5 363.1,396.1 365.5,385.8 367.9,375.3 370.2,372.9 372.6,376.7 375.0,381.7 377.4,389.4 379.7,390.9 382.1,397.1 384.5,405.8 386.9,407.0 389.2,407.3 391.5,411.6 393.9,409.3 396.3,424.0 398.6,441.3 401.0,460.5 403.4,468.7 405.8,468.6 408.1,466.4 410.5,459.6 412.9,446.2 415.3,439.5 417.6,429.7 419.9,427.1 422.2,408.6 424.6,389.9 427.0,378.3 429.3,374.5 431.7,378.8 434.1,375.4 436.5,376.9 438.8,378.9 441.2,386.0 443.6,394.8 445.9,400.3 448.2,402.3 450.6,401.8 452.9,421.1 455.3,448.4 457.7,465.4 460.1,469.8 462.4,469.4 464.8,467.3 467.2,452.5 469.5,436.6 471.9,422.5 474.2,418.5 476.5,407.8 478.9,393.6 481.2,378.9 483.6,373.9 486.0,376.4 488.4,380.7 490.8,380.5 493.1,379.6 495.5,382.8 497.9,382.4 500.3,384.6 502.6,386.3 504.9,381.5 507.3,372.9 509.7,373.5 512.0,394.6 514.4,414.4 516.8,421.1 519.2,421.4 521.5,418.5 523.9,422.2 526.3,422.5 528.7,426.9 531.0,428.0 533.2,428.7 535.6,423.9 538.0,429.4 540.3,446.0 542.7,461.2 545.1,473.6 547.5,467.3 549.9,458.4 552.2,448.7 554.6,436.2 557.0,423.9 559.3,414.9 561.6,402.3 563.9,382.5 566.3,372.5 568.7,373.3 571.0,382.5 573.4,380.3 575.8,379.8 578.2,380.0 580.5,383.4 582.9,392.9 585.3,396.9 587.6,395.4 589.9,397.7 592.3,405.2 594.6,417.7 597.0,430.4 599.4,445.0 601.8,452.0 604.1,453.3 606.5,451.7 608.9,453.2 611.2,446.5 613.6,435.5 616.0,424.5 618.3,418.0 620.7,399.4 623.0,383.9 625.4,379.4 627.8,380.0 630.2,380.6 632.5,386.7 634.9,380.7 637.3,382.9 639.6,385.3 642.0,391.9 644.3,392.4 646.6,388.3 649.0,395.7 651.4,412.7 653.7,432.9 656.1,452.8 658.5,460.2 660.9,465.1 663.2,468.4 665.6,468.5 668.0,466.3 670.4,464.3 672.7,456.3 675.0,442.6 677.3,432.5 679.7,414.0 682.1,395.8 684.4,388.0 686.8,387.5 689.2,376.9 691.6,372.5 693.9,371.1 696.3,378.0 698.7,386.8 701.0,386.9 703.3,384.2 705.6,389.2 708.0,404.5 710.4,431.9 712.7,455.4 715.2,465.3 717.5,465.8 719.9,466.3 722.3,468.3 724.6,467.4 727.0,465.3 729.4,453.4 731.7,439.7 734.0,427.0 736.4,408.0 738.8,387.9 741.1,379.0 743.6,380.9 745.9,382.6 748.3,381.1 750.7,383.3 753.0,379.9 755.4,377.9 757.7,377.3 760.0,381.1 762.4,374.6 764.7,375.2 767.1,386.9 769.5,406.9 771.9,411.6 774.2,408.6 776.6,405.0 779.0,409.5 781.3,416.8 783.8,416.4 786.0,419.9 788.3,426.2 790.7,447.8 793.1,468.7 795.4,482.2 797.8,473.5 800.2,447.7 802.6,419.1 804.9,390.4 807.3,376.3 809.7,377.7 812.1,386.2 814.4,385.6 816.7,384.4 819.0,384.3 821.4,378.7 823.8,379.5 826.1,381.7 828.5,383.0 830.9,381.2 833.3,378.0 835.6,391.3 838.0,414.6" fill="none" stroke="#8b5cf6" stroke-width="1.8"/>
<polyline points="68.0,412.8 70.4,412.7 72.7,412.7 75.1,412.8 77.4,412.7 79.7,412.7 82.1,412.7 84.5,412.8 86.8,412.8 89.2,412.7 91.6,412.7 94.0,412.7 96.3,412.7 98.7,412.8 101.1,412.8 103.5,412.8 105.8,412.8 108.0,412.7 110.4,412.7 112.8,412.7 115.1,412.7 117.5,412.7 119.9,412.7 122.3,412.7 124.7,412.8 127.0,412.8 129.4,412.7 131.8,412.7 134.1,412.7 136.4,412.7 138.7,412.9 141.1,412.9 143.5,412.8 145.8,412.8 148.2,412.9 150.6,412.8 153.0,413.0 155.3,412.9 157.7,412.9 160.1,413.0 162.4,412.9 164.8,413.0 167.1,413.2 169.5,412.9 171.9,413.0 174.2,413.2 176.6,413.1 179.0,413.1 181.4,413.3 183.7,413.4 186.1,413.8 188.5,414.0 190.8,413.8 193.1,413.8 195.5,413.5 197.8,413.4 200.2,414.2 202.6,413.4 205.0,413.8 207.3,413.7 209.7,413.7 212.1,413.6 214.4,413.4 216.8,413.5 219.1,413.2 221.4,413.4 223.8,413.7 226.2,413.8 228.5,413.4 230.9,413.2 233.3,413.6 235.7,413.5 238.0,413.6 240.4,413.6 242.8,413.5 245.2,413.5 247.5,413.5 249.8,413.8 252.1,413.9 254.5,413.4 256.9,413.4 259.2,413.3 261.6,413.9 264.0,413.3 266.4,413.4 268.7,413.3 271.1,413.6 273.5,413.3 275.8,413.5 278.2,413.3 280.5,413.2 282.9,413.0 285.3,413.0 287.6,413.2 290.0,413.1 292.4,413.1 294.8,412.9 297.1,413.1 299.5,413.2 301.9,413.1 304.2,413.1 306.5,413.0 308.8,412.8 311.2,412.9 313.6,412.8 316.0,412.9 318.4,412.8 320.7,412.8 323.1,412.8 325.5,412.9 327.8,412.8 330.2,412.9 332.5,412.9 334.8,412.8 337.2,412.8 339.5,412.9 341.9,412.8 344.3,412.8 346.7,412.8 349.0,412.7 351.4,412.8 353.8,412.8 356.1,412.8 358.6,412.8 360.8,412.8 363.1,412.8 365.5,412.8 367.9,412.9 370.2,412.7 372.6,412.7 375.0,412.7 377.4,412.7 379.7,412.8 382.1,412.7 384.5,412.7 386.9,412.7 389.2,412.7 391.5,412.7 393.9,412.7 396.3,412.7 398.6,412.7 401.0,412.7 403.4,412.7 405.8,412.7 408.1,412.7 410.5,412.7 412.9,412.8 415.3,412.7 417.6,412.7 419.9,412.7 422.2,412.7 424.6,412.7 427.0,412.7 429.3,412.7 431.7,412.8 434.1,412.9 436.5,412.8 438.8,412.9 441.2,412.8 443.6,412.9 445.9,412.9 448.2,413.0 450.6,412.9 452.9,413.0 455.3,412.9 457.7,412.9 460.1,413.1 462.4,413.0 464.8,413.1 467.2,413.0 469.5,413.2 471.9,413.3 474.2,413.4 476.5,413.2 478.9,413.0 481.2,413.2 483.6,413.2 486.0,413.1 488.4,413.1 490.8,413.2 493.1,413.4 495.5,413.7 497.9,413.5 500.3,413.5 502.6,413.2 504.9,413.4 507.3,413.3 509.7,413.9 512.0,413.5 514.4,413.6 516.8,413.4 519.2,413.3 521.5,413.2 523.9,413.2 526.3,413.5 528.7,413.2 531.0,413.1 533.2,413.1 535.6,413.0 538.0,413.2 540.3,413.6 542.7,413.2 545.1,413.2 547.5,413.5 549.9,413.6 552.2,413.5 554.6,413.5 557.0,413.6 559.3,413.5 561.6,413.4 563.9,413.5 566.3,413.2 568.7,413.1 571.0,413.4 573.4,413.6 575.8,413.4 578.2,413.4 580.5,413.5 582.9,413.6 585.3,413.2 587.6,413.0 589.9,413.1 592.3,412.9 594.6,412.9 597.0,413.0 599.4,413.1 601.8,413.0 604.1,412.9 606.5,412.9 608.9,412.9 611.2,413.0 613.6,413.0 616.0,412.9 618.3,413.0 620.7,412.9 623.0,413.0 625.4,413.0 627.8,413.2 630.2,413.1 632.5,412.9 634.9,412.8 637.3,412.9 639.6,412.8 642.0,413.1 644.3,413.0 646.6,412.9 649.0,412.8 651.4,412.9 653.7,412.9 656.1,412.7 658.5,412.7 660.9,413.0 663.2,412.8 665.6,412.9 668.0,412.8 670.4,412.8 672.7,412.8 675.0,412.7 677.3,412.7 679.7,412.7 682.1,412.7 684.4,412.7 686.8,412.9 689.2,412.8 691.6,412.7 693.9,412.9 696.3,412.8 698.7,412.8 701.0,412.7 703.3,412.7 705.6,412.7 708.0,412.8 710.4,412.7 712.7,412.7 715.2,412.7 717.5,412.7 719.9,412.7 722.3,412.7 724.6,412.8 727.0,412.7 729.4,412.7 731.7,412.7 734.0,412.7 736.4,412.7 738.8,412.7 741.1,412.7 743.6,412.7 745.9,412.7 748.3,412.7 750.7,412.7 753.0,412.7 755.4,412.7 757.7,412.7 760.0,412.7 762.4,412.7 764.7,412.7 767.1,412.7 769.5,412.7 771.9,412.7 774.2,412.7 776.6,412.7 779.0,412.7 781.3,412.8 783.8,412.8 786.0,412.8 788.3,412.8 790.7,412.7 793.1,412.7 795.4,412.7 797.8,412.8 800.2,412.8 802.6,412.8 804.9,412.8 807.3,412.8 809.7,412.8 812.1,412.8 814.4,413.0 816.7,412.9 819.0,413.0 821.4,412.8 823.8,412.9 826.1,412.9 828.5,412.9 830.9,413.2 833.3,413.2 835.6,413.2 838.0,413.0" fill="none" stroke="#d97706" stroke-width="1.4" stroke-dasharray="5 3"/>
<polyline points="68.0,468.4 70.4,458.7 72.7,447.0 75.1,435.9 77.4,428.7 79.7,420.6 82.1,401.1 84.5,386.8 86.8,384.2 89.2,387.8 91.6,385.8 94.0,382.5 96.3,377.7 98.7,378.5 101.1,384.1 103.5,387.1 105.8,385.2 108.0,377.2 110.4,377.4 112.8,380.1 115.1,387.7 117.5,404.9 119.9,416.1 122.3,416.2 124.7,409.3 127.0,411.2 129.4,418.3 131.8,417.7 134.1,420.3 136.4,426.9 138.7,433.7 141.1,447.4 143.5,458.4 145.8,465.6 148.2,452.3 150.6,431.2 153.0,407.8 155.3,393.5 157.7,394.6 160.1,394.0 162.4,394.4 164.8,396.0 167.1,389.3 169.5,385.3 171.9,388.9 174.2,398.8 176.6,402.1 179.0,399.9 181.4,397.9 183.7,396.9 186.1,402.4 188.5,402.0 190.8,406.7 193.1,404.1 195.5,395.0 197.8,401.5 200.2,416.8 202.6,432.3 205.0,440.5 207.3,446.4 209.7,450.1 212.1,448.6 214.4,446.1 216.8,440.6 219.1,438.4 221.4,432.7 223.8,424.9 226.2,405.4 228.5,393.2 230.9,387.7 233.3,384.4 235.7,384.1 238.0,378.9 240.4,375.2 242.8,376.4 245.2,383.9 247.5,387.4 249.8,384.9 252.1,381.8 254.5,385.4 256.9,400.6 259.2,419.5 261.6,431.6 264.0,428.1 266.4,422.2 268.7,422.3 271.1,425.5 273.5,426.7 275.8,426.3 278.2,432.1 280.5,434.3 282.9,437.2 285.3,450.3 287.6,460.5 290.0,457.9 292.4,445.5 294.8,432.9 297.1,423.6 299.5,409.0 301.9,393.2 304.2,390.0 306.5,388.6 308.8,378.7 311.2,368.9 313.6,377.4 316.0,391.2 318.4,399.3 320.7,397.2 323.1,399.6 325.5,403.3 327.8,406.3 330.2,410.6 332.5,415.6 334.8,415.1 337.2,420.7 339.5,434.1 341.9,460.0 344.3,478.5 346.7,481.6 349.0,478.9 351.4,462.8 353.8,438.9 356.1,418.3 358.6,405.2 360.8,400.5 363.1,396.1 365.5,385.8 367.9,375.3 370.2,372.9 372.6,376.7 375.0,381.7 377.4,389.4 379.7,390.9 382.1,397.1 384.5,405.8 386.9,407.0 389.2,407.3 391.5,411.6 393.9,409.3 396.3,424.0 398.6,441.3 401.0,460.5 403.4,468.7 405.8,468.6 408.1,466.4 410.5,459.6 412.9,446.2 415.3,439.5 417.6,429.7 419.9,427.1 422.2,408.6 424.6,389.9 427.0,378.3 429.3,374.5 431.7,378.8 434.1,375.4 436.5,376.9 438.8,378.9 441.2,386.0 443.6,394.8 445.9,400.3 448.2,402.3 450.6,401.8 452.9,421.1 455.3,448.4 457.7,465.4 460.1,469.8 462.4,469.4 464.8,467.3 467.2,452.5 469.5,436.6 471.9,422.5 474.2,418.5 476.5,407.8 478.9,393.6 481.2,378.9 483.6,373.9 486.0,376.4 488.4,380.7 490.8,380.5 493.1,379.6 495.5,382.8 497.9,382.4 500.3,384.6 502.6,386.3 504.9,381.5 507.3,372.9 509.7,373.5 512.0,394.6 514.4,414.4 516.8,421.1 519.2,421.4 521.5,418.5 523.9,422.2 526.3,422.5 528.7,426.9 531.0,428.0 533.2,428.7 535.6,423.9 538.0,429.4 540.3,446.0 542.7,461.2 545.1,473.6 547.5,467.3 549.9,458.4 552.2,448.7 554.6,436.2 557.0,423.9 559.3,414.9 561.6,402.3 563.9,382.5 566.3,372.5 568.7,373.3 571.0,382.5 573.4,380.3 575.8,379.8 578.2,380.0 580.5,383.4 582.9,392.9 585.3,396.9 587.6,395.4 589.9,397.7 592.3,405.2 594.6,417.7 597.0,430.4 599.4,445.0 601.8,452.0 604.1,453.3 606.5,451.7 608.9,453.2 611.2,446.5 613.6,435.5 616.0,424.5 618.3,418.0 620.7,399.4 623.0,383.9 625.4,379.4 627.8,380.0 630.2,380.6 632.5,386.7 634.9,380.7 637.3,382.9 639.6,385.3 642.0,391.9 644.3,392.4 646.6,388.3 649.0,395.7 651.4,412.7 653.7,432.9 656.1,452.8 658.5,460.2 660.9,465.1 663.2,468.4 665.6,468.5 668.0,466.3 670.4,464.3 672.7,456.3 675.0,442.6 677.3,432.5 679.7,414.0 682.1,395.8 684.4,388.0 686.8,387.5 689.2,376.9 691.6,372.5 693.9,371.1 696.3,378.0 698.7,386.8 701.0,386.9 703.3,384.2 705.6,389.2 708.0,404.5 710.4,431.9 712.7,455.4 715.2,465.3 717.5,465.8 719.9,466.3 722.3,468.3 724.6,467.4 727.0,465.3 729.4,453.4 731.7,439.7 734.0,427.0 736.4,408.0 738.8,387.9 741.1,379.0 743.6,380.9 745.9,382.6 748.3,381.1 750.7,383.3 753.0,379.9 755.4,377.9 757.7,377.3 760.0,381.1 762.4,374.6 764.7,375.2 767.1,386.9 769.5,406.9 771.9,411.6 774.2,408.6 776.6,405.0 779.0,409.5 781.3,416.8 783.8,416.4 786.0,419.9 788.3,426.2 790.7,447.8 793.1,468.7 795.4,482.2 797.8,473.5 800.2,447.7 802.6,419.1 804.9,390.4 807.3,376.3 809.7,377.7 812.1,386.2 814.4,385.6 816.7,384.4 819.0,384.3 821.4,378.7 823.8,379.5 826.1,381.7 828.5,383.0 830.9,381.2 833.3,378.0 835.6,391.3 838.0,414.6" fill="none" stroke="#7c3aed" stroke-width="1.4" stroke-dasharray="5 3"/>
<line x1="63" y1="528.0" x2="68" y2="528.0" stroke="#333" stroke-width="1.5"/>
<text x="60" y="528.0" text-anchor="end" dominant-baseline="middle" fill="#333">-1</text>
<line x1="63" y1="413.0" x2="68" y2="413.0" stroke="#333" stroke-width="1.5"/>
<text x="60" y="413.0" text-anchor="end" dominant-baseline="middle" fill="#333">0</text>
<line x1="63" y1="298.0" x2="68" y2="298.0" stroke="#333" stroke-width="1.5"/>
<text x="60" y="298.0" text-anchor="end" dominant-baseline="middle" fill="#333">1</text>
<line x1="102.2" y1="528" x2="102.2" y2="533" stroke="#333" stroke-width="1.5"/>
<text x="102.2" y="546" text-anchor="middle" fill="#333">1986</text>
<line x1="158.9" y1="528" x2="158.9" y2="533" stroke="#333" stroke-width="1.5"/>
<text x="158.9" y="546" text-anchor="middle" fill="#333">1988</text>
<line x1="215.6" y1="528" x2="215.6" y2="533" stroke="#333" stroke-width="1.5"/>
<text x="215.6" y="546" text-anchor="middle" fill="#333">1990</text>
<line x1="272.3" y1="528" x2="272.3" y2="533" stroke="#333" stroke-width="1.5"/>
<text x="272.3" y="546" text-anchor="middle" fill="#333">1992</text>
<line x1="329.0" y1="528" x2="329.0" y2="533" stroke="#333" stroke-width="1.5"/>
<text x="329.0" y="546" text-anchor="middle" fill="#333">1994</text>
<line x1="385.7" y1="528" x2="385.7" y2="533" stroke="#333" stroke-width="1.5"/>
<text x="385.7" y="546" text-anchor="middle" fill="#333">1996</text>
<line x1="442.4" y1="528" x2="442.4" y2="533" stroke="#333" stroke-width="1.5"/>
<text x="442.4" y="546" text-anchor="middle" fill="#333">1998</text>
<line x1="499.1" y1="528" x2="499.1" y2="533" stroke="#333" stroke-width="1.5"/>
<text x="499.1" y="546" text-anchor="middle" fill="#333">2000</text>
<line x1="555.8" y1="528" x2="555.8" y2="533" stroke="#333" stroke-width="1.5"/>
<text x="555.8" y="546" text-anchor="middle" fill="#333">2002</text>
<line x1="612.5" y1="528" x2="612.5" y2="533" stroke="#333" stroke-width="1.5"/>
<text x="612.5" y="546" text-anchor="middle" fill="#333">2004</text>
<line x1="669.1" y1="528" x2="669.1" y2="533" stroke="#333" stroke-width="1.5"/>
<text x="669.1" y="546" text-anchor="middle" fill="#333">2006</text>
<line x1="725.8" y1="528" x2="725.8" y2="533" stroke="#333" stroke-width="1.5"/>
<text x="725.8" y="546" text-anchor="middle" fill="#333">2008</text>
<line x1="782.5" y1="528" x2="782.5" y2="533" stroke="#333" stroke-width="1.5"/>
<text x="782.5" y="546" text-anchor="middle" fill="#333">2010</text>
<line x1="68" y1="298" x2="68" y2="528" stroke="#333" stroke-width="1.5"/>
<line x1="68" y1="528" x2="838" y2="528" stroke="#333" stroke-width="1.5"/>
<text transform="rotate(-90)" x="-413" y="16" text-anchor="middle" fill="#374151" font-size="11">Contribution [×10⁹ cm⁻³]</text>
<text x="453" y="566" text-anchor="middle" fill="#4b5563" font-size="11">Year</text>
<line x1="78" y1="312" x2="100" y2="312" stroke="#f59e0b" stroke-width="1.8"/>
<text x="105" y="316" fill="#374151" font-size="11">dlm-js solar β̂·X_solar</text>
<line x1="78" y1="327" x2="100" y2="327" stroke="#8b5cf6" stroke-width="1.8"/>
<text x="105" y="331" fill="#374151" font-size="11">dlm-js QBO β̂_qbo1·X₁ + β̂_qbo2·X₂</text>
<line x1="78" y1="342" x2="100" y2="342" stroke="#d97706" stroke-width="1.4" stroke-dasharray="5 3"/>
<text x="105" y="346" fill="#374151" font-size="11">MATLAB solar (reference)</text>
<line x1="78" y1="357" x2="100" y2="357" stroke="#7c3aed" stroke-width="1.4" stroke-dasharray="5 3"/>
<text x="105" y="361" fill="#374151" font-size="11">MATLAB QBO (reference)</text>
<text x="453" y="288" text-anchor="middle" fill="#374151" font-size="13" font-weight="bold">Proxy covariate contributions (solar + QBO)</text>
</svg>