<svg width="860" height="578" xmlns="http://www.w3.org/2000/svg" font-family="sans-serif" font-size="12">
<rect width="860" height="578" fill="white"/>
<line x1="68" y1="214.0" x2="838" y2="214.0" stroke="#e5e7eb" stroke-width="1"/>
<line x1="68" y1="137.3" x2="838" y2="137.3" stroke="#e5e7eb" stroke-width="1"/>
<line x1="68" y1="60.7" x2="838" y2="60.7" stroke="#e5e7eb" stroke-width="1"/>
<rect x="761.4" y="30" width="76.60000000000002" height="230" fill="#f3f4f6" fill-opacity="0.7"/>
<path d="M68.0,100.2L70.1,100.6L72.3,100.9L74.4,101.3L76.5,101.6L78.6,102.0L80.7,102.3L82.8,102.6L84.9,102.9L87.1,103.3L89.2,103.6L91.4,103.9L93.5,104.2L95.6,104.5L97.8,104.7L99.9,105.0L102.0,105.3L104.1,105.5L106.2,105.8L108.3,106.0L110.5,106.3L112.6,106.5L114.8,106.7L116.9,106.9L119.0,107.1L121.2,107.3L123.3,107.5L125.4,107.7L127.5,107.9L129.6,108.1L131.7,108.2L133.8,108.4L136.0,108.5L138.1,108.7L140.3,108.8L142.4,109.0L144.5,109.1L146.7,109.3L148.8,109.4L151.0,109.5L153.1,109.7L155.1,109.8L157.3,109.9L159.4,110.1L161.5,110.2L163.7,110.3L165.8,110.4L168.0,110.6L170.1,110.7L172.2,110.8L174.4,111.0L176.5,111.1L178.6,111.2L180.7,111.3L182.8,111.5L184.9,111.6L187.1,111.8L189.2,111.9L191.4,112.0L193.5,112.2L195.6,112.3L197.7,112.5L199.9,112.6L202.0,112.8L204.1,113.0L206.2,113.1L208.3,113.3L210.4,113.5L212.6,113.6L214.7,113.8L216.9,114.0L219.0,114.2L221.1,114.4L223.3,114.6L225.4,114.8L227.6,115.0L229.6,115.2L231.7,115.5L233.8,115.7L235.9,115.9L238.1,116.2L240.2,116.4L242.4,116.7L244.5,116.9L246.6,117.2L248.8,117.5L250.9,117.8L253.1,118.0L255.2,118.3L257.3,118.6L259.4,118.9L261.5,119.2L263.6,119.5L265.8,119.8L267.9,120.1L270.1,120.5L272.2,120.8L274.3,121.1L276.5,121.4L278.6,121.8L280.7,122.1L282.8,122.4L284.9,122.7L287.0,123.1L289.2,123.4L291.3,123.7L293.5,124.1L295.6,124.4L297.7,124.7L299.9,125.0L302.0,125.4L304.1,125.7L306.2,126.0L308.3,126.3L310.4,126.7L312.5,127.0L314.7,127.3L316.8,127.6L319.0,127.9L321.1,128.2L323.2,128.5L325.4,128.8L327.5,129.1L329.7,129.4L331.7,129.6L333.8,129.9L335.9,130.2L338.0,130.5L340.2,130.7L342.3,131.0L344.5,131.2L346.6,131.4L348.7,131.7L350.9,131.9L353.0,132.1L355.2,132.3L357.3,132.5L359.4,132.7L361.5,132.9L363.6,133.1L365.8,133.3L367.9,133.4L370.1,133.6L372.2,133.7L374.3,133.9L376.4,134.0L378.6,134.2L380.7,134.3L382.8,134.4L384.9,134.5L387.0,134.6L389.1,134.7L391.3,134.8L393.4,134.9L395.6,135.0L397.7,135.1L399.8,135.1L402.0,135.2L404.1,135.2L406.3,135.3L408.3,135.3L410.4,135.4L412.5,135.4L414.6,135.4L416.8,135.4L418.9,135.4L421.1,135.4L423.2,135.4L425.3,135.4L427.5,135.4L429.6,135.3L431.8,135.3L433.8,135.2L435.9,135.2L438.0,135.1L440.2,135.0L442.3,134.9L444.4,134.8L446.6,134.7L448.7,134.6L450.8,134.5L453.0,134.4L455.1,134.2L457.3,134.1L459.4,134.0L461.5,133.8L463.6,133.7L465.7,133.5L467.9,133.3L470.0,133.2L472.2,133.0L474.3,132.8L476.4,132.6L478.6,132.4L480.7,132.2L482.9,132.0L484.9,131.9L487.0,131.7L489.1,131.5L491.2,131.3L493.4,131.1L495.5,130.9L497.7,130.7L499.8,130.5L501.9,130.3L504.1,130.1L506.2,129.9L508.4,129.7L510.4,129.5L512.5,129.3L514.6,129.2L516.7,129.0L518.9,128.8L521.0,128.6L523.2,128.5L525.3,128.3L527.4,128.2L529.6,128.0L531.7,127.9L533.9,127.7L535.9,127.6L538.0,127.4L540.1,127.3L542.3,127.2L544.4,127.0L546.5,126.9L548.7,126.8L550.8,126.7L552.9,126.6L555.1,126.5L557.2,126.3L559.4,126.2L561.5,126.2L563.6,126.1L565.7,126.0L567.8,125.9L570.0,125.8L572.1,125.7L574.3,125.6L576.4,125.6L578.5,125.5L580.7,125.4L582.8,125.4L585.0,125.3L587.0,125.2L589.1,125.2L591.2,125.1L593.3,125.1L595.5,125.1L597.6,125.0L599.8,125.0L601.9,124.9L604.0,124.9L606.2,124.9L608.3,124.9L610.5,124.8L612.5,124.8L614.6,124.8L616.7,124.8L618.9,124.8L621.0,124.8L623.1,124.8L625.3,124.8L627.4,124.8L629.5,124.8L631.7,124.8L633.8,124.8L636.0,124.8L638.0,124.8L640.1,124.9L642.2,124.9L644.4,124.9L646.5,124.9L648.6,125.0L650.8,125.0L652.9,125.0L655.1,125.1L657.2,125.1L659.3,125.1L661.5,125.2L663.6,125.2L665.7,125.3L667.8,125.3L669.9,125.3L672.1,125.4L674.2,125.4L676.4,125.4L678.5,125.5L680.6,125.5L682.8,125.5L684.9,125.6L687.1,125.6L689.1,125.6L691.2,125.6L693.3,125.6L695.4,125.6L697.6,125.6L699.7,125.6L701.9,125.6L704.0,125.6L706.1,125.6L708.3,125.6L710.4,125.5L712.6,125.5L714.6,125.5L716.7,125.4L718.8,125.3L721.0,125.3L723.1,125.2L725.2,125.1L727.4,125.0L729.5,124.9L731.6,124.8L733.8,124.7L735.9,124.6L738.1,124.5L740.1,124.4L742.2,124.2L744.3,124.1L746.5,123.9L748.6,123.8L750.7,123.6L752.9,123.5L755.0,123.3L757.2,123.1L759.3,122.9L761.4,122.7L761.4,142.0L759.3,141.7L757.2,141.4L755.0,141.1L752.9,140.8L750.7,140.6L748.6,140.3L746.5,140.1L744.3,139.8L742.2,139.6L740.1,139.4L738.1,139.2L735.9,139.0L733.8,138.8L731.6,138.6L729.5,138.4L727.4,138.2L725.2,138.0L723.1,137.8L721.0,137.7L718.8,137.5L716.7,137.4L714.6,137.2L712.6,137.1L710.4,137.0L708.3,136.8L706.1,136.7L704.0,136.6L701.9,136.5L699.7,136.4L697.6,136.3L695.4,136.2L693.3,136.1L691.2,136.0L689.1,135.9L687.1,135.8L684.9,135.7L682.8,135.6L680.6,135.5L678.5,135.4L676.4,135.4L674.2,135.3L672.1,135.2L669.9,135.1L667.8,135.1L665.7,135.0L663.6,134.9L661.5,134.9L659.3,134.8L657.2,134.7L655.1,134.7L652.9,134.6L650.8,134.5L648.6,134.5L646.5,134.4L644.4,134.4L642.2,134.3L640.1,134.3L638.0,134.3L636.0,134.2L633.8,134.2L631.7,134.2L629.5,134.1L627.4,134.1L625.3,134.1L623.1,134.1L621.0,134.0L618.9,134.0L616.7,134.0L614.6,134.0L612.5,134.0L610.5,134.0L608.3,134.0L606.2,134.0L604.0,134.1L601.9,134.1L599.8,134.1L597.6,134.1L595.5,134.2L593.3,134.2L591.2,134.2L589.1,134.3L587.0,134.3L585.0,134.4L582.8,134.4L580.7,134.5L578.5,134.5L576.4,134.6L574.3,134.7L572.1,134.8L570.0,134.8L567.8,134.9L565.7,135.0L563.6,135.1L561.5,135.2L559.4,135.3L557.2,135.4L555.1,135.5L552.9,135.6L550.8,135.8L548.7,135.9L546.5,136.0L544.4,136.2L542.3,136.3L540.1,136.4L538.0,136.6L535.9,136.7L533.9,136.9L531.7,137.1L529.6,137.2L527.4,137.4L525.3,137.6L523.2,137.8L521.0,137.9L518.9,138.1L516.7,138.3L514.6,138.5L512.5,138.7L510.4,138.9L508.4,139.1L506.2,139.3L504.1,139.5L501.9,139.7L499.8,139.9L497.7,140.1L495.5,140.3L493.4,140.5L491.2,140.7L489.1,140.9L487.0,141.1L484.9,141.3L482.9,141.5L480.7,141.7L478.6,141.9L476.4,142.0L474.3,142.2L472.2,142.4L470.0,142.6L467.9,142.7L465.7,142.9L463.6,143.0L461.5,143.2L459.4,143.3L457.3,143.5L455.1,143.6L453.0,143.7L450.8,143.8L448.7,143.9L446.6,144.0L444.4,144.1L442.3,144.2L440.2,144.3L438.0,144.3L435.9,144.4L433.8,144.4L431.8,144.5L429.6,144.5L427.5,144.5L425.3,144.6L423.2,144.6L421.1,144.6L418.9,144.6L416.8,144.6L414.6,144.5L412.5,144.5L410.4,144.5L408.3,144.4L406.3,144.4L404.1,144.3L402.0,144.3L399.8,144.2L397.7,144.2L395.6,144.1L393.4,144.0L391.3,143.9L389.1,143.8L387.0,143.7L384.9,143.6L382.8,143.5L380.7,143.4L378.6,143.2L376.4,143.1L374.3,143.0L372.2,142.8L370.1,142.7L367.9,142.5L365.8,142.3L363.6,142.2L361.5,142.0L359.4,141.8L357.3,141.6L355.2,141.4L353.0,141.2L350.9,141.0L348.7,140.7L346.6,140.5L344.5,140.3L342.3,140.0L340.2,139.8L338.0,139.5L335.9,139.3L333.8,139.0L331.7,138.7L329.7,138.4L327.5,138.2L325.4,137.9L323.2,137.6L321.1,137.3L319.0,137.0L316.8,136.7L314.7,136.4L312.5,136.1L310.4,135.8L308.3,135.5L306.2,135.2L304.1,134.8L302.0,134.5L299.9,134.2L297.7,133.9L295.6,133.6L293.5,133.3L291.3,133.0L289.2,132.7L287.0,132.4L284.9,132.0L282.8,131.7L280.7,131.4L278.6,131.1L276.5,130.8L274.3,130.5L272.2,130.3L270.1,130.0L267.9,129.7L265.8,129.4L263.6,129.1L261.5,128.8L259.4,128.6L257.3,128.3L255.2,128.0L253.1,127.8L250.9,127.5L248.8,127.3L246.6,127.0L244.5,126.8L242.4,126.6L240.2,126.3L238.1,126.1L235.9,125.9L233.8,125.7L231.7,125.5L229.6,125.3L227.6,125.1L225.4,124.9L223.3,124.7L221.1,124.5L219.0,124.3L216.9,124.1L214.7,123.9L212.6,123.8L210.4,123.6L208.3,123.4L206.2,123.2L204.1,123.1L202.0,122.9L199.9,122.7L197.7,122.6L195.6,122.4L193.5,122.3L191.4,122.1L189.2,121.9L187.1,121.8L184.9,121.6L182.8,121.5L180.7,121.3L178.6,121.1L176.5,121.0L174.4,120.8L172.2,120.7L170.1,120.6L168.0,120.4L165.8,120.3L163.7,120.1L161.5,120.0L159.4,119.9L157.3,119.8L155.1,119.6L153.1,119.5L151.0,119.4L148.8,119.3L146.7,119.2L144.5,119.1L142.4,119.0L140.3,118.9L138.1,118.9L136.0,118.8L133.8,118.7L131.7,118.7L129.6,118.6L127.5,118.6L125.4,118.5L123.3,118.5L121.2,118.5L119.0,118.5L116.9,118.4L114.8,118.4L112.6,118.4L110.5,118.5L108.3,118.5L106.2,118.5L104.1,118.5L102.0,118.6L99.9,118.6L97.8,118.7L95.6,118.7L93.5,118.8L91.4,118.9L89.2,119.0L87.1,119.1L84.9,119.2L82.8,119.3L80.7,119.4L78.6,119.5L76.5,119.7L74.4,119.8L72.3,119.9L70.1,120.1L68.0,120.2Z" fill="#3b82f6" fill-opacity="0.15" stroke="none"/>
<polyline points="68.0,126.4 70.1,170.5 72.3,127.5 74.4,140.1 76.5,120.9 78.6,81.9 80.7,158.8 82.8,89.3 87.1,58.5 89.2,39.8 91.4,69.2 93.5,107.4 95.6,147.2 97.8,79.9 99.9,101.5 102.0,108.6 104.1,145.6 106.2,161.1 108.3,113.2 112.6,50.7 114.8,32.9 116.9,67.6 119.0,110.8 121.2,154.5 123.3,210.0 125.4,180.7 127.5,178.8 129.6,170.2 131.7,131.5 133.8,98.6 138.1,31.2 140.3,33.5 142.4,66.4 144.5,114.1 146.7,121.3 148.8,140.3 151.0,143.2 153.1,72.9 155.1,69.6 157.3,152.7 159.4,113.7 161.5,43.0 163.7,38.5 168.0,65.5 170.1,107.9 172.2,166.1 174.4,140.1 176.5,125.6 178.6,90.7 180.7,171.6 182.8,161.7 184.9,122.8 187.1,60.5 189.2,49.9 193.5,77.1 195.6,127.2 197.7,206.8 199.9,179.9 202.0,151.0 204.1,124.8 206.2,161.0 208.3,176.8 210.4,114.2 212.6,52.9 214.7,39.4 219.0,71.3 221.1,115.7 223.3,138.4 225.4,156.8 227.6,105.8 229.6,96.4 231.7,120.0 233.8,147.5 235.9,114.0 238.1,50.6 240.2,39.1 244.5,51.0 246.6,95.9 248.8,177.9 250.9,133.6 253.1,107.2 255.2,127.3 257.3,115.6 259.4,158.2 261.5,116.9 263.6,75.2 265.8,50.8 270.1,80.2 272.2,131.5 274.3,180.1 276.5,155.6 278.6,162.6 280.7,100.6 282.8,144.5 284.9,185.0 287.0,144.9 289.2,36.9 291.3,69.2 295.6,115.3 297.7,128.2 302.0,201.8 306.2,80.7 312.5,161.0 314.7,94.2 316.8,71.1 319.0,75.6 321.1,103.8 323.2,151.4 325.4,195.6 327.5,219.4 329.7,134.0 331.7,168.7 333.8,179.3 335.9,171.8 340.2,124.1 342.3,83.4 344.5,69.8 346.6,111.7 348.7,139.6 350.9,185.7 353.0,221.2 355.2,190.7 357.3,107.5 359.4,175.4 361.5,179.7 365.8,83.3 367.9,87.6 370.1,65.0 372.2,101.6 374.3,149.3 376.4,226.3 378.6,247.8 380.7,108.1 382.8,127.6 384.9,162.3 387.0,155.5 391.3,110.7 393.4,86.8 395.6,61.7 397.7,94.8 399.8,144.9 402.0,173.8 404.1,153.9 406.3,165.2 408.3,159.9 410.4,170.3 412.5,161.2 414.6,104.0 416.8,79.5 421.1,46.9 423.2,97.1 425.3,149.7 427.5,225.9 429.6,211.7 431.8,204.7 433.8,148.2 435.9,203.9 438.0,190.9 440.2,135.8 442.3,98.1 446.6,56.1 448.7,101.1 450.8,154.7 453.0,190.1 455.1,215.7 457.3,114.4 459.4,176.1 461.5,201.4 463.6,195.1 465.7,126.6 467.9,94.4 478.6,152.9 480.7,173.4 482.9,111.6 484.9,160.2 489.1,184.0 493.4,91.3 497.7,67.1 499.8,89.3 504.1,168.4 506.2,215.7 508.4,184.8 510.4,171.9 512.5,166.2 514.6,98.8 516.7,72.2 518.9,90.9 521.0,60.6 523.2,57.4 525.3,79.5 527.4,127.3 529.6,175.9 531.7,135.2 533.9,139.5 535.9,152.0 538.0,161.8 540.1,158.8 542.3,115.8 544.4,101.6 546.5,57.4 548.7,56.2 550.8,71.8 552.9,167.0 555.1,202.8 557.2,184.0 559.4,216.4 561.5,133.7 563.6,138.2 565.7,139.3 567.8,123.3 570.0,100.5 572.1,68.0 574.3,58.7 576.4,74.1 578.5,145.7 580.7,196.2 582.8,234.2 585.0,121.5 587.0,112.7 589.1,181.6 593.3,145.4 597.6,80.8 599.8,59.9 601.9,79.7 610.5,192.9 612.5,237.2 614.6,209.2 616.7,136.4 618.9,117.3 621.0,105.5 623.1,54.1 625.3,62.6 627.4,72.4 636.0,165.5 638.0,107.9 640.1,176.1 642.2,160.0 644.4,133.3 646.5,104.6 650.8,76.8 661.5,119.7 663.6,144.7 665.7,229.5 667.8,187.3 669.9,132.6 672.1,113.2 674.2,71.5 676.4,77.1 678.5,73.9 682.8,192.9 684.9,117.8 687.1,149.6 691.2,213.4 695.4,120.7 699.7,88.1 701.9,76.8 708.3,204.0 710.4,129.3 712.6,154.1 714.6,126.6 716.7,224.5 718.8,139.3 721.0,107.7 723.1,92.9 725.2,86.7 727.4,86.3 735.9,108.7 738.1,90.9 742.2,205.0 744.3,182.3 746.5,127.0 748.6,99.6 750.7,107.0 752.9,110.4" fill="none" stroke="#9ca3af" stroke-width="1" opacity="0.6"/>
<polyline points="68.0,110.2 70.1,110.3 72.3,110.4 74.4,110.5 76.5,110.6 78.6,110.7 80.7,110.9 82.8,111.0 84.9,111.1 87.1,111.2 89.2,111.3 91.4,111.4 93.5,111.5 95.6,111.6 97.8,111.7 99.9,111.8 102.0,111.9 104.1,112.0 106.2,112.1 108.3,112.3 110.5,112.4 112.6,112.5 114.8,112.6 116.9,112.7 119.0,112.8 121.2,112.9 123.3,113.0 125.4,113.1 127.5,113.2 129.6,113.3 131.7,113.4 133.8,113.6 136.0,113.7 138.1,113.8 140.3,113.9 142.4,114.0 144.5,114.1 146.7,114.2 148.8,114.4 151.0,114.5 153.1,114.6 155.1,114.7 157.3,114.8 159.4,115.0 161.5,115.1 163.7,115.2 165.8,115.4 168.0,115.5 170.1,115.6 172.2,115.8 174.4,115.9 176.5,116.0 178.6,116.2 180.7,116.3 182.8,116.5 184.9,116.6 187.1,116.8 189.2,116.9 191.4,117.1 193.5,117.2 195.6,117.4 197.7,117.5 199.9,117.7 202.0,117.9 204.1,118.0 206.2,118.2 208.3,118.4 210.4,118.5 212.6,118.7 214.7,118.9 216.9,119.1 219.0,119.3 221.1,119.4 223.3,119.6 225.4,119.8 227.6,120.0 229.6,120.3 231.7,120.5 233.8,120.7 235.9,120.9 238.1,121.1 240.2,121.4 242.4,121.6 244.5,121.9 246.6,122.1 248.8,122.4 250.9,122.6 253.1,122.9 255.2,123.2 257.3,123.5 259.4,123.7 261.5,124.0 263.6,124.3 265.8,124.6 267.9,124.9 270.1,125.2 272.2,125.5 274.3,125.8 276.5,126.1 278.6,126.4 280.7,126.8 282.8,127.1 284.9,127.4 287.0,127.7 289.2,128.0 291.3,128.4 293.5,128.7 295.6,129.0 297.7,129.3 299.9,129.6 302.0,129.9 304.1,130.3 306.2,130.6 308.3,130.9 310.4,131.2 312.5,131.5 314.7,131.8 316.8,132.1 319.0,132.4 321.1,132.7 323.2,133.0 325.4,133.3 327.5,133.6 329.7,133.9 331.7,134.2 333.8,134.5 335.9,134.7 338.0,135.0 340.2,135.2 342.3,135.5 344.5,135.7 346.6,136.0 348.7,136.2 350.9,136.4 353.0,136.6 355.2,136.9 357.3,137.1 359.4,137.3 361.5,137.4 363.6,137.6 365.8,137.8 367.9,138.0 370.1,138.1 372.2,138.3 374.3,138.4 376.4,138.6 378.6,138.7 380.7,138.8 382.8,138.9 384.9,139.1 387.0,139.2 389.1,139.3 391.3,139.4 393.4,139.5 395.6,139.5 397.7,139.6 399.8,139.7 402.0,139.7 404.1,139.8 406.3,139.8 408.3,139.9 410.4,139.9 412.5,140.0 414.6,140.0 416.8,140.0 418.9,140.0 421.1,140.0 423.2,140.0 425.3,140.0 427.5,139.9 429.6,139.9 431.8,139.9 433.8,139.8 435.9,139.8 438.0,139.7 440.2,139.6 442.3,139.6 444.4,139.5 446.6,139.4 448.7,139.3 450.8,139.2 453.0,139.0 455.1,138.9 457.3,138.8 459.4,138.6 461.5,138.5 463.6,138.4 465.7,138.2 467.9,138.0 470.0,137.9 472.2,137.7 474.3,137.5 476.4,137.3 478.6,137.1 480.7,137.0 482.9,136.8 484.9,136.6 487.0,136.4 489.1,136.2 491.2,136.0 493.4,135.8 495.5,135.6 497.7,135.4 499.8,135.2 501.9,135.0 504.1,134.8 506.2,134.6 508.4,134.4 510.4,134.2 512.5,134.0 514.6,133.8 516.7,133.7 518.9,133.5 521.0,133.3 523.2,133.1 525.3,132.9 527.4,132.8 529.6,132.6 531.7,132.5 533.9,132.3 535.9,132.2 538.0,132.0 540.1,131.9 542.3,131.7 544.4,131.6 546.5,131.5 548.7,131.3 550.8,131.2 552.9,131.1 555.1,131.0 557.2,130.9 559.4,130.8 561.5,130.7 563.6,130.6 565.7,130.5 567.8,130.4 570.0,130.3 572.1,130.2 574.3,130.2 576.4,130.1 578.5,130.0 580.7,130.0 582.8,129.9 585.0,129.8 587.0,129.8 589.1,129.7 591.2,129.7 593.3,129.6 595.5,129.6 597.6,129.6 599.8,129.5 601.9,129.5 604.0,129.5 606.2,129.5 608.3,129.4 610.5,129.4 612.5,129.4 614.6,129.4 616.7,129.4 618.9,129.4 621.0,129.4 623.1,129.4 625.3,129.4 627.4,129.4 629.5,129.5 631.7,129.5 633.8,129.5 636.0,129.5 638.0,129.5 640.1,129.6 642.2,129.6 644.4,129.6 646.5,129.7 648.6,129.7 650.8,129.8 652.9,129.8 655.1,129.9 657.2,129.9 659.3,130.0 661.5,130.0 663.6,130.1 665.7,130.1 667.8,130.2 669.9,130.2 672.1,130.3 674.2,130.4 676.4,130.4 678.5,130.5 680.6,130.5 682.8,130.6 684.9,130.6 687.1,130.7 689.1,130.7 691.2,130.8 693.3,130.9 695.4,130.9 697.6,131.0 699.7,131.0 701.9,131.1 704.0,131.1 706.1,131.2 708.3,131.2 710.4,131.3 712.6,131.3 714.6,131.3 716.7,131.4 718.8,131.4 721.0,131.5 723.1,131.5 725.2,131.6 727.4,131.6 729.5,131.7 731.6,131.7 733.8,131.7 735.9,131.8 738.1,131.8 740.1,131.9 742.2,131.9 744.3,132.0 746.5,132.0 748.6,132.1 750.7,132.1 752.9,132.2 755.0,132.2 757.2,132.2 759.3,132.3 761.4,132.3" fill="none" stroke="#2563eb" stroke-width="2.2"/>
<path d="M68.0,100.2L70.1,100.6L72.3,100.9L74.4,101.3L76.5,101.6L78.6,102.0L80.7,102.3L82.8,102.6L84.9,102.9L87.1,103.3L89.2,103.6L91.4,103.9L93.5,104.2L95.6,104.5L97.8,104.7L99.9,105.0L102.0,105.3L104.1,105.5L106.2,105.8L108.3,106.0L110.5,106.3L112.6,106.5L114.8,106.7L116.9,106.9L119.0,107.1L121.2,107.3L123.3,107.5L125.4,107.7L127.5,107.9L129.6,108.1L131.7,108.2L133.8,108.4L136.0,108.5L138.1,108.7L140.3,108.8L142.4,109.0L144.5,109.1L146.7,109.3L148.8,109.4L151.0,109.5L153.1,109.7L155.1,109.8L157.3,109.9L159.4,110.1L161.5,110.2L163.7,110.3L165.8,110.4L168.0,110.6L170.1,110.7L172.2,110.8L174.4,111.0L176.5,111.1L178.6,111.2L180.7,111.3L182.8,111.5L184.9,111.6L187.1,111.8L189.2,111.9L191.4,112.0L193.5,112.2L195.6,112.3L197.7,112.5L199.9,112.6L202.0,112.8L204.1,113.0L206.2,113.1L208.3,113.3L210.4,113.5L212.6,113.6L214.7,113.8L216.9,114.0L219.0,114.2L221.1,114.4L223.3,114.6L225.4,114.8L227.6,115.0L229.6,115.2L231.7,115.5L233.8,115.7L235.9,115.9L238.1,116.2L240.2,116.4L242.4,116.7L244.5,116.9L246.6,117.2L248.8,117.5L250.9,117.8L253.1,118.0L255.2,118.3L257.3,118.6L259.4,118.9L261.5,119.2L263.6,119.5L265.8,119.8L267.9,120.1L270.1,120.5L272.2,120.8L274.3,121.1L276.5,121.4L278.6,121.8L280.7,122.1L282.8,122.4L284.9,122.7L287.0,123.1L289.2,123.4L291.3,123.7L293.5,124.1L295.6,124.4L297.7,124.7L299.9,125.0L302.0,125.4L304.1,125.7L306.2,126.0L308.3,126.3L310.4,126.7L312.5,127.0L314.7,127.3L316.8,127.6L319.0,127.9L321.1,128.2L323.2,128.5L325.4,128.8L327.5,129.1L329.7,129.4L331.7,129.6L333.8,129.9L335.9,130.2L338.0,130.5L340.2,130.7L342.3,131.0L344.5,131.2L346.6,131.4L348.7,131.7L350.9,131.9L353.0,132.1L355.2,132.3L357.3,132.5L359.4,132.7L361.5,132.9L363.6,133.1L365.8,133.3L367.9,133.4L370.1,133.6L372.2,133.7L374.3,133.9L376.4,134.0L378.6,134.2L380.7,134.3L382.8,134.4L384.9,134.5L387.0,134.6L389.1,134.7L391.3,134.8L393.4,134.9L395.6,135.0L397.7,135.1L399.8,135.1L402.0,135.2L404.1,135.2L406.3,135.3L408.3,135.3L410.4,135.4L412.5,135.4L414.6,135.4L416.8,135.4L418.9,135.4L421.1,135.4L423.2,135.4L425.3,135.4L427.5,135.4L429.6,135.3L431.8,135.3L433.8,135.2L435.9,135.2L438.0,135.1L440.2,135.0L442.3,134.9L444.4,134.8L446.6,134.7L448.7,134.6L450.8,134.5L453.0,134.4L455.1,134.2L457.3,134.1L459.4,134.0L461.5,133.8L463.6,133.7L465.7,133.5L467.9,133.3L470.0,133.2L472.2,133.0L474.3,132.8L476.4,132.6L478.6,132.4L480.7,132.2L482.9,132.0L484.9,131.9L487.0,131.7L489.1,131.5L491.2,131.3L493.4,131.1L495.5,130.9L497.7,130.7L499.8,130.5L501.9,130.3L504.1,130.1L506.2,129.9L508.4,129.7L510.4,129.5L512.5,129.3L514.6,129.2L516.7,129.0L518.9,128.8L521.0,128.6L523.2,128.5L525.3,128.3L527.4,128.2L529.6,128.0L531.7,127.9L533.9,127.7L535.9,127.6L538.0,127.4L540.1,127.3L542.3,127.2L544.4,127.0L546.5,126.9L548.7,126.8L550.8,126.7L552.9,126.6L555.1,126.5L557.2,126.3L559.4,126.2L561.5,126.2L563.6,126.1L565.7,126.0L567.8,125.9L570.0,125.8L572.1,125.7L574.3,125.6L576.4,125.6L578.5,125.5L580.7,125.4L582.8,125.4L585.0,125.3L587.0,125.2L589.1,125.2L591.2,125.1L593.3,125.1L595.5,125.1L597.6,125.0L599.8,125.0L601.9,124.9L604.0,124.9L606.2,124.9L608.3,124.9L610.5,124.8L612.5,124.8L614.6,124.8L616.7,124.8L618.9,124.8L621.0,124.8L623.1,124.8L625.3,124.8L627.4,124.8L629.5,124.8L631.7,124.8L633.8,124.8L636.0,124.8L638.0,124.8L640.1,124.9L642.2,124.9L644.4,124.9L646.5,124.9L648.6,125.0L650.8,125.0L652.9,125.0L655.1,125.1L657.2,125.1L659.3,125.1L661.5,125.2L663.6,125.2L665.7,125.3L667.8,125.3L669.9,125.3L672.1,125.4L674.2,125.4L676.4,125.4L678.5,125.5L680.6,125.5L682.8,125.5L684.9,125.6L687.1,125.6L689.1,125.6L691.2,125.6L693.3,125.6L695.4,125.6L697.6,125.6L699.7,125.6L701.9,125.6L704.0,125.6L706.1,125.6L708.3,125.6L710.4,125.5L712.6,125.5L714.6,125.5L716.7,125.4L718.8,125.3L721.0,125.3L723.1,125.2L725.2,125.1L727.4,125.0L729.5,124.9L731.6,124.8L733.8,124.7L735.9,124.6L738.1,124.5L740.1,124.4L742.2,124.2L744.3,124.1L746.5,123.9L748.6,123.8L750.7,123.6L752.9,123.5L755.0,123.3L757.2,123.1L759.3,122.9L761.4,122.7L761.4,142.0L759.3,141.7L757.2,141.4L755.0,141.1L752.9,140.8L750.7,140.6L748.6,140.3L746.5,140.1L744.3,139.8L742.2,139.6L740.1,139.4L738.1,139.2L735.9,139.0L733.8,138.8L731.6,138.6L729.5,138.4L727.4,138.2L725.2,138.0L723.1,137.8L721.0,137.7L718.8,137.5L716.7,137.4L714.6,137.2L712.6,137.1L710.4,137.0L708.3,136.8L706.1,136.7L704.0,136.6L701.9,136.5L699.7,136.4L697.6,136.3L695.4,136.2L693.3,136.1L691.2,136.0L689.1,135.9L687.1,135.8L684.9,135.7L682.8,135.6L680.6,135.5L678.5,135.4L676.4,135.4L674.2,135.3L672.1,135.2L669.9,135.1L667.8,135.1L665.7,135.0L663.6,134.9L661.5,134.9L659.3,134.8L657.2,134.7L655.1,134.7L652.9,134.6L650.8,134.5L648.6,134.5L646.5,134.4L644.4,134.4L642.2,134.3L640.1,134.3L638.0,134.3L636.0,134.2L633.8,134.2L631.7,134.2L629.5,134.1L627.4,134.1L625.3,134.1L623.1,134.1L621.0,134.0L618.9,134.0L616.7,134.0L614.6,134.0L612.5,134.0L610.5,134.0L608.3,134.0L606.2,134.0L604.0,134.1L601.9,134.1L599.8,134.1L597.6,134.1L595.5,134.2L593.3,134.2L591.2,134.2L589.1,134.3L587.0,134.3L585.0,134.4L582.8,134.4L580.7,134.5L578.5,134.5L576.4,134.6L574.3,134.7L572.1,134.8L570.0,134.8L567.8,134.9L565.7,135.0L563.6,135.1L561.5,135.2L559.4,135.3L557.2,135.4L555.1,135.5L552.9,135.6L550.8,135.8L548.7,135.9L546.5,136.0L544.4,136.2L542.3,136.3L540.1,136.4L538.0,136.6L535.9,136.7L533.9,136.9L531.7,137.1L529.6,137.2L527.4,137.4L525.3,137.6L523.2,137.8L521.0,137.9L518.9,138.1L516.7,138.3L514.6,138.5L512.5,138.7L510.4,138.9L508.4,139.1L506.2,139.3L504.1,139.5L501.9,139.7L499.8,139.9L497.7,140.1L495.5,140.3L493.4,140.5L491.2,140.7L489.1,140.9L487.0,141.1L484.9,141.3L482.9,141.5L480.7,141.7L478.6,141.9L476.4,142.0L474.3,142.2L472.2,142.4L470.0,142.6L467.9,142.7L465.7,142.9L463.6,143.0L461.5,143.2L459.4,143.3L457.3,143.5L455.1,143.6L453.0,143.7L450.8,143.8L448.7,143.9L446.6,144.0L444.4,144.1L442.3,144.2L440.2,144.3L438.0,144.3L435.9,144.4L433.8,144.4L431.8,144.5L429.6,144.5L427.5,144.5L425.3,144.6L423.2,144.6L421.1,144.6L418.9,144.6L416.8,144.6L414.6,144.5L412.5,144.5L410.4,144.5L408.3,144.4L406.3,144.4L404.1,144.3L402.0,144.3L399.8,144.2L397.7,144.2L395.6,144.1L393.4,144.0L391.3,143.9L389.1,143.8L387.0,143.7L384.9,143.6L382.8,143.5L380.7,143.4L378.6,143.2L376.4,143.1L374.3,143.0L372.2,142.8L370.1,142.7L367.9,142.5L365.8,142.3L363.6,142.2L361.5,142.0L359.4,141.8L357.3,141.6L355.2,141.4L353.0,141.2L350.9,141.0L348.7,140.7L346.6,140.5L344.5,140.3L342.3,140.0L340.2,139.8L338.0,139.5L335.9,139.3L333.8,139.0L331.7,138.7L329.7,138.4L327.5,138.2L325.4,137.9L323.2,137.6L321.1,137.3L319.0,137.0L316.8,136.7L314.7,136.4L312.5,136.1L310.4,135.8L308.3,135.5L306.2,135.2L304.1,134.8L302.0,134.5L299.9,134.2L297.7,133.9L295.6,133.6L293.5,133.3L291.3,133.0L289.2,132.7L287.0,132.4L284.9,132.0L282.8,131.7L280.7,131.4L278.6,131.1L276.5,130.8L274.3,130.5L272.2,130.3L270.1,130.0L267.9,129.7L265.8,129.4L263.6,129.1L261.5,128.8L259.4,128.6L257.3,128.3L255.2,128.0L253.1,127.8L250.9,127.5L248.8,127.3L246.6,127.0L244.5,126.8L242.4,126.6L240.2,126.3L238.1,126.1L235.9,125.9L233.8,125.7L231.7,125.5L229.6,125.3L227.6,125.1L225.4,124.9L223.3,124.7L221.1,124.5L219.0,124.3L216.9,124.1L214.7,123.9L212.6,123.8L210.4,123.6L208.3,123.4L206.2,123.2L204.1,123.1L202.0,122.9L199.9,122.7L197.7,122.6L195.6,122.4L193.5,122.3L191.4,122.1L189.2,121.9L187.1,121.8L184.9,121.6L182.8,121.5L180.7,121.3L178.6,121.1L176.5,121.0L174.4,120.8L172.2,120.7L170.1,120.6L168.0,120.4L165.8,120.3L163.7,120.1L161.5,120.0L159.4,119.9L157.3,119.8L155.1,119.6L153.1,119.5L151.0,119.4L148.8,119.3L146.7,119.2L144.5,119.1L142.4,119.0L140.3,118.9L138.1,118.9L136.0,118.8L133.8,118.7L131.7,118.7L129.6,118.6L127.5,118.6L125.4,118.5L123.3,118.5L121.2,118.5L119.0,118.5L116.9,118.4L114.8,118.4L112.6,118.4L110.5,118.5L108.3,118.5L106.2,118.5L104.1,118.5L102.0,118.6L99.9,118.6L97.8,118.7L95.6,118.7L93.5,118.8L91.4,118.9L89.2,119.0L87.1,119.1L84.9,119.2L82.8,119.3L80.7,119.4L78.6,119.5L76.5,119.7L74.4,119.8L72.3,119.9L70.1,120.1L68.0,120.2Z" fill="#ef4444" fill-opacity="0.15" stroke="none"/>
<polyline points="68.0,110.2 70.1,110.3 72.3,110.4 74.4,110.5 76.5,110.6 78.6,110.7 80.7,110.9 82.8,111.0 84.9,111.1 87.1,111.2 89.2,111.3 91.4,111.4 93.5,111.5 95.6,111.6 97.8,111.7 99.9,111.8 102.0,111.9 104.1,112.0 106.2,112.1 108.3,112.3 110.5,112.4 112.6,112.5 114.8,112.6 116.9,112.7 119.0,112.8 121.2,112.9 123.3,113.0 125.4,113.1 127.5,113.2 129.6,113.3 131.7,113.4 133.8,113.6 136.0,113.7 138.1,113.8 140.3,113.9 142.4,114.0 144.5,114.1 146.7,114.2 148.8,114.4 151.0,114.5 153.1,114.6 155.1,114.7 157.3,114.8 159.4,115.0 161.5,115.1 163.7,115.2 165.8,115.4 168.0,115.5 170.1,115.6 172.2,115.8 174.4,115.9 176.5,116.0 178.6,116.2 180.7,116.3 182.8,116.5 184.9,116.6 187.1,116.8 189.2,116.9 191.4,117.1 193.5,117.2 195.6,117.4 197.7,117.5 199.9,117.7 202.0,117.9 204.1,118.0 206.2,118.2 208.3,118.4 210.4,118.5 212.6,118.7 214.7,118.9 216.9,119.1 219.0,119.3 221.1,119.4 223.3,119.6 225.4,119.8 227.6,120.0 229.6,120.3 231.7,120.5 233.8,120.7 235.9,120.9 238.1,121.1 240.2,121.4 242.4,121.6 244.5,121.9 246.6,122.1 248.8,122.4 250.9,122.6 253.1,122.9 255.2,123.2 257.3,123.5 259.4,123.7 261.5,124.0 263.6,124.3 265.8,124.6 267.9,124.9 270.1,125.2 272.2,125.5 274.3,125.8 276.5,126.1 278.6,126.4 280.7,126.8 282.8,127.1 284.9,127.4 287.0,127.7 289.2,128.0 291.3,128.4 293.5,128.7 295.6,129.0 297.7,129.3 299.9,129.6 302.0,129.9 304.1,130.3 306.2,130.6 308.3,130.9 310.4,131.2 312.5,131.5 314.7,131.8 316.8,132.1 319.0,132.4 321.1,132.7 323.2,133.0 325.4,133.3 327.5,133.6 329.7,133.9 331.7,134.2 333.8,134.5 335.9,134.7 338.0,135.0 340.2,135.2 342.3,135.5 344.5,135.7 346.6,136.0 348.7,136.2 350.9,136.4 353.0,136.6 355.2,136.9 357.3,137.1 359.4,137.3 361.5,137.4 363.6,137.6 365.8,137.8 367.9,138.0 370.1,138.1 372.2,138.3 374.3,138.4 376.4,138.6 378.6,138.7 380.7,138.8 382.8,138.9 384.9,139.1 387.0,139.2 389.1,139.3 391.3,139.4 393.4,139.5 395.6,139.5 397.7,139.6 399.8,139.7 402.0,139.7 404.1,139.8 406.3,139.8 408.3,139.9 410.4,139.9 412.5,140.0 414.6,140.0 416.8,140.0 418.9,140.0 421.1,140.0 423.2,140.0 425.3,140.0 427.5,139.9 429.6,139.9 431.8,139.9 433.8,139.8 435.9,139.8 438.0,139.7 440.2,139.6 442.3,139.6 444.4,139.5 446.6,139.4 448.7,139.3 450.8,139.2 453.0,139.0 455.1,138.9 457.3,138.8 459.4,138.6 461.5,138.5 463.6,138.4 465.7,138.2 467.9,138.0 470.0,137.9 472.2,137.7 474.3,137.5 476.4,137.3 478.6,137.1 480.7,137.0 482.9,136.8 484.9,136.6 487.0,136.4 489.1,136.2 491.2,136.0 493.4,135.8 495.5,135.6 497.7,135.4 499.8,135.2 501.9,135.0 504.1,134.8 506.2,134.6 508.4,134.4 510.4,134.2 512.5,134.0 514.6,133.8 516.7,133.7 518.9,133.5 521.0,133.3 523.2,133.1 525.3,132.9 527.4,132.8 529.6,132.6 531.7,132.5 533.9,132.3 535.9,132.2 538.0,132.0 540.1,131.9 542.3,131.7 544.4,131.6 546.5,131.5 548.7,131.3 550.8,131.2 552.9,131.1 555.1,131.0 557.2,130.9 559.4,130.8 561.5,130.7 563.6,130.6 565.7,130.5 567.8,130.4 570.0,130.3 572.1,130.2 574.3,130.2 576.4,130.1 578.5,130.0 580.7,130.0 582.8,129.9 585.0,129.8 587.0,129.8 589.1,129.7 591.2,129.7 593.3,129.6 595.5,129.6 597.6,129.6 599.8,129.5 601.9,129.5 604.0,129.5 606.2,129.5 608.3,129.4 610.5,129.4 612.5,129.4 614.6,129.4 616.7,129.4 618.9,129.4 621.0,129.4 623.1,129.4 625.3,129.4 627.4,129.4 629.5,129.5 631.7,129.5 633.8,129.5 636.0,129.5 638.0,129.5 640.1,129.6 642.2,129.6 644.4,129.6 646.5,129.7 648.6,129.7 650.8,129.8 652.9,129.8 655.1,129.9 657.2,129.9 659.3,130.0 661.5,130.0 663.6,130.1 665.7,130.1 667.8,130.2 669.9,130.2 672.1,130.3 674.2,130.4 676.4,130.4 678.5,130.5 680.6,130.5 682.8,130.6 684.9,130.6 687.1,130.7 689.1,130.7 691.2,130.8 693.3,130.9 695.4,130.9 697.6,131.0 699.7,131.0 701.9,131.1 704.0,131.1 706.1,131.2 708.3,131.2 710.4,131.3 712.6,131.3 714.6,131.3 716.7,131.4 718.8,131.4 721.0,131.5 723.1,131.5 725.2,131.6 727.4,131.6 729.5,131.7 731.6,131.7 733.8,131.7 735.9,131.8 738.1,131.8 740.1,131.9 742.2,131.9 744.3,132.0 746.5,132.0 748.6,132.1 750.7,132.1 752.9,132.2 755.0,132.2 757.2,132.2 759.3,132.3 761.4,132.3" fill="none" stroke="#dc2626" stroke-width="2" stroke-dasharray="6 3"/>
<path d="M763.5,122.5L765.7,122.3L767.8,122.1L769.9,121.9L772.1,121.6L774.2,121.4L776.3,121.2L778.4,120.9L780.6,120.7L782.7,120.4L784.8,120.2L786.9,119.9L789.1,119.7L791.2,119.4L793.3,119.1L795.5,118.8L797.6,118.6L799.7,118.3L801.8,118.0L804.0,117.7L806.1,117.4L808.2,117.1L810.3,116.8L812.5,116.5L814.6,116.2L816.7,115.9L818.9,115.5L821.0,115.2L823.1,114.9L825.2,114.5L827.4,114.2L829.5,113.9L831.6,113.5L833.7,113.2L835.9,112.8L838.0,112.5L838.0,155.5L835.9,155.0L833.7,154.6L831.6,154.1L829.5,153.7L827.4,153.3L825.2,152.9L823.1,152.4L821.0,152.0L818.9,151.6L816.7,151.2L814.6,150.8L812.5,150.4L810.3,150.0L808.2,149.6L806.1,149.2L804.0,148.8L801.8,148.4L799.7,148.0L797.6,147.6L795.5,147.3L793.3,146.9L791.2,146.5L789.1,146.2L786.9,145.8L784.8,145.5L782.7,145.1L780.6,144.8L778.4,144.5L776.3,144.1L774.2,143.8L772.1,143.5L769.9,143.2L767.8,142.8L765.7,142.5L763.5,142.2Z" fill="#22c55e" fill-opacity="0.18" stroke="none"/>
<polyline points="763.5,132.4 765.7,132.4 767.8,132.5 769.9,132.5 772.1,132.6 774.2,132.6 776.3,132.7 778.4,132.7 780.6,132.7 782.7,132.8 784.8,132.8 786.9,132.9 789.1,132.9 791.2,133.0 793.3,133.0 795.5,133.1 797.6,133.1 799.7,133.2 801.8,133.2 804.0,133.2 806.1,133.3 808.2,133.3 810.3,133.4 812.5,133.4 814.6,133.5 816.7,133.5 818.9,133.6 821.0,133.6 823.1,133.7 825.2,133.7 827.4,133.7 829.5,133.8 831.6,133.8 833.7,133.9 835.9,133.9 838.0,134.0" fill="none" stroke="#16a34a" stroke-width="2" stroke-dasharray="5 3"/>
<line x1="761.4" y1="30" x2="761.4" y2="260" stroke="#6b7280" stroke-width="1" stroke-dasharray="3 2"/>
<text x="761.44" y="43" fill="#374151" font-size="10">2012.0 →</text>
<line x1="63" y1="214.0" x2="68" y2="214.0" stroke="#333" stroke-width="1.5"/>
<text x="60" y="214.0" text-anchor="end" dominant-baseline="middle" fill="#333">6.0</text>
<line x1="63" y1="137.3" x2="68" y2="137.3" stroke="#333" stroke-width="1.5"/>
<text x="60" y="137.3" text-anchor="end" dominant-baseline="middle" fill="#333">7.0</text>
<line x1="63" y1="60.7" x2="68" y2="60.7" stroke="#333" stroke-width="1.5"/>
<text x="60" y="60.7" text-anchor="end" dominant-baseline="middle" fill="#333">8.0</text>
<line x1="98.8" y1="260" x2="98.8" y2="265" stroke="#333" stroke-width="1.5"/>
<text x="98.8" y="278" text-anchor="middle" fill="#333">1986</text>
<line x1="149.9" y1="260" x2="149.9" y2="265" stroke="#333" stroke-width="1.5"/>
<text x="149.9" y="278" text-anchor="middle" fill="#333">1988</text>
<line x1="200.9" y1="260" x2="200.9" y2="265" stroke="#333" stroke-width="1.5"/>
<text x="200.9" y="278" text-anchor="middle" fill="#333">1990</text>
<line x1="252.0" y1="260" x2="252.0" y2="265" stroke="#333" stroke-width="1.5"/>
<text x="252.0" y="278" text-anchor="middle" fill="#333">1992</text>
<line x1="303.0" y1="260" x2="303.0" y2="265" stroke="#333" stroke-width="1.5"/>
<text x="303.0" y="278" text-anchor="middle" fill="#333">1994</text>
<line x1="354.1" y1="260" x2="354.1" y2="265" stroke="#333" stroke-width="1.5"/>
<text x="354.1" y="278" text-anchor="middle" fill="#333">1996</text>
<line x1="405.2" y1="260" x2="405.2" y2="265" stroke="#333" stroke-width="1.5"/>
<text x="405.2" y="278" text-anchor="middle" fill="#333">1998</text>
<line x1="456.2" y1="260" x2="456.2" y2="265" stroke="#333" stroke-width="1.5"/>
<text x="456.2" y="278" text-anchor="middle" fill="#333">2000</text>
<line x1="507.3" y1="260" x2="507.3" y2="265" stroke="#333" stroke-width="1.5"/>
<text x="507.3" y="278" text-anchor="middle" fill="#333">2002</text>
<line x1="558.3" y1="260" x2="558.3" y2="265" stroke="#333" stroke-width="1.5"/>
<text x="558.3" y="278" text-anchor="middle" fill="#333">2004</text>
<line x1="609.4" y1="260" x2="609.4" y2="265" stroke="#333" stroke-width="1.5"/>
<text x="609.4" y="278" text-anchor="middle" fill="#333">2006</text>
<line x1="660.4" y1="260" x2="660.4" y2="265" stroke="#333" stroke-width="1.5"/>
<text x="660.4" y="278" text-anchor="middle" fill="#333">2008</text>
<line x1="711.5" y1="260" x2="711.5" y2="265" stroke="#333" stroke-width="1.5"/>
<text x="711.5" y="278" text-anchor="middle" fill="#333">2010</text>
<line x1="762.5" y1="260" x2="762.5" y2="265" stroke="#333" stroke-width="1.5"/>
<text x="762.5" y="278" text-anchor="middle" fill="#333">2012</text>
<line x1="813.6" y1="260" x2="813.6" y2="265" stroke="#333" stroke-width="1.5"/>
<text x="813.6" y="278" text-anchor="middle" fill="#333">2014</text>
<line x1="68" y1="30" x2="68" y2="260" stroke="#333" stroke-width="1.5"/>
<line x1="68" y1="260" x2="838" y2="260" stroke="#333" stroke-width="1.5"/>
<text transform="rotate(-90)" x="-145" y="16" text-anchor="middle" fill="#374151" font-size="11">O₃ density [×10¹⁰ cm⁻³]</text>
<line x1="558" y1="44" x2="580" y2="44" stroke="#9ca3af" stroke-width="1"/>
<text x="585" y="48" fill="#374151" font-size="11">Observations (SAGE II / GOMOS)</text>
<line x1="558" y1="59" x2="580" y2="59" stroke="#2563eb" stroke-width="2.2"/>
<text x="585" y="63" fill="#374151" font-size="11">dlm-js smoothed level ±2σ</text>
<line x1="558" y1="74" x2="580" y2="74" stroke="#dc2626" stroke-width="1.8" stroke-dasharray="5 3"/>
<text x="585" y="78" fill="#374151" font-size="11">MATLAB/Octave reference ±2σ</text>
<line x1="558" y1="89" x2="580" y2="89" stroke="#16a34a" stroke-width="1.8" stroke-dasharray="5 3"/>
<text x="585" y="93" fill="#374151" font-size="11">36-month trend forecast ±2σ (level state)</text>
<text x="453" y="20" text-anchor="middle" fill="#374151" font-size="13" font-weight="bold">Stratospheric ozone (45–55 km, 40°N–50°N): trend extraction + forecast</text>
<line x1="68" y1="528.0" x2="838" y2="528.0" stroke="#e5e7eb" stroke-width="1"/>
<line x1="68" y1="413.0" x2="838" y2="413.0" stroke="#e5e7eb" stroke-width="1"/>
<line x1="68" y1="298.0" x2="838" y2="298.0" stroke="#e5e7eb" stroke-width="1"/>
<line x1="68" y1="413.0" x2="838" y2="413.0" stroke="#6b7280" stroke-width="0.8" stroke-dasharray="2 2"/>
<polyline points="68.0,412.8 70.1,412.7 72.3,412.7 74.4,412.8 76.5,412.7 78.6,412.7 80.7,412.7 82.8,412.8 84.9,412.8 87.1,412.7 89.2,412.7 91.4,412.7 93.5,412.7 95.6,412.8 97.8,412.8 99.9,412.8 102.0,412.8 104.1,412.7 106.2,412.7 108.3,412.7 110.5,412.7 112.6,412.7 114.8,412.7 116.9,412.7 119.0,412.8 121.2,412.8 123.3,412.7 125.4,412.7 127.5,412.7 129.6,412.7 131.7,412.9 133.8,412.9 136.0,412.8 138.1,412.8 140.3,412.9 142.4,412.8 144.5,413.0 146.7,412.9 148.8,412.9 151.0,413.0 153.1,412.9 155.1,413.0 157.3,413.2 159.4,412.9 161.5,413.0 163.7,413.2 165.8,413.1 168.0,413.1 170.1,413.3 172.2,413.4 174.4,413.8 176.5,414.0 178.6,413.8 180.7,413.8 182.8,413.5 184.9,413.4 187.1,414.2 189.2,413.4 191.4,413.8 193.5,413.7 195.6,413.7 197.7,413.6 199.9,413.4 202.0,413.5 204.1,413.2 206.2,413.4 208.3,413.7 210.4,413.8 212.6,413.4 214.7,413.2 216.9,413.6 219.0,413.5 221.1,413.6 223.3,413.6 225.4,413.5 227.6,413.5 229.6,413.5 231.7,413.8 233.8,413.9 235.9,413.4 238.1,413.4 240.2,413.3 242.4,413.9 244.5,413.3 246.6,413.4 248.8,413.3 250.9,413.6 253.1,413.3 255.2,413.5 257.3,413.3 259.4,413.2 261.5,413.0 263.6,413.0 265.8,413.2 267.9,413.1 270.1,413.1 272.2,412.9 274.3,413.1 276.5,413.2 278.6,413.1 280.7,413.1 282.8,413.0 284.9,412.8 287.0,412.9 289.2,412.8 291.3,412.9 293.5,412.8 295.6,412.8 297.7,412.8 299.9,412.9 302.0,412.8 304.1,412.9 306.2,412.9 308.3,412.8 310.4,412.8 312.5,412.9 314.7,412.8 316.8,412.8 319.0,412.8 321.1,412.7 323.2,412.8 325.4,412.8 327.5,412.8 329.7,412.8 331.7,412.8 333.8,412.8 335.9,412.8 338.0,412.9 340.2,412.7 342.3,412.7 344.5,412.7 346.6,412.7 348.7,412.8 350.9,412.7 353.0,412.7 355.2,412.7 357.3,412.7 359.4,412.7 361.5,412.7 363.6,412.7 365.8,412.7 367.9,412.7 370.1,412.7 372.2,412.7 374.3,412.7 376.4,412.7 378.6,412.8 380.7,412.7 382.8,412.7 384.9,412.7 387.0,412.7 389.1,412.7 391.3,412.7 393.4,412.7 395.6,412.8 397.7,412.9 399.8,412.8 402.0,412.9 404.1,412.8 406.3,412.9 408.3,412.9 410.4,413.0 412.5,412.9 414.6,413.0 416.8,412.9 418.9,412.9 421.1,413.1 423.2,413.0 425.3,413.1 427.5,413.0 429.6,413.2 431.8,413.3 433.8,413.4 435.9,413.2 438.0,413.0 440.2,413.2 442.3,413.2 444.4,413.1 446.6,413.1 448.7,413.2 450.8,413.4 453.0,413.7 455.1,413.5 457.3,413.5 459.4,413.2 461.5,413.4 463.6,413.3 465.7,413.9 467.9,413.5 470.0,413.6 472.2,413.4 474.3,413.3 476.4,413.2 478.6,413.2 480.7,413.5 482.9,413.2 484.9,413.1 487.0,413.1 489.1,413.0 491.2,413.2 493.4,413.6 495.5,413.2 497.7,413.2 499.8,413.5 501.9,413.6 504.1,413.5 506.2,413.5 508.4,413.6 510.4,413.5 512.5,413.4 514.6,413.5 516.7,413.2 518.9,413.1 521.0,413.4 523.2,413.6 525.3,413.4 527.4,413.4 529.6,413.5 531.7,413.6 533.9,413.2 535.9,413.0 538.0,413.1 540.1,412.9 542.3,412.9 544.4,413.0 546.5,413.1 548.7,413.0 550.8,412.9 552.9,412.9 555.1,412.9 557.2,413.0 559.4,413.0 561.5,412.9 563.6,413.0 565.7,412.9 567.8,413.0 570.0,413.0 572.1,413.2 574.3,413.1 576.4,412.9 578.5,412.8 580.7,412.9 582.8,412.8 585.0,413.1 587.0,413.0 589.1,412.9 591.2,412.8 593.3,412.9 595.5,412.9 597.6,412.7 599.8,412.7 601.9,413.0 604.0,412.8 606.2,412.9 608.3,412.8 610.5,412.8 612.5,412.8 614.6,412.7 616.7,412.7 618.9,412.7 621.0,412.7 623.1,412.7 625.3,412.9 627.4,412.8 629.5,412.7 631.7,412.9 633.8,412.8 636.0,412.8 638.0,412.7 640.1,412.7 642.2,412.7 644.4,412.8 646.5,412.7 648.6,412.7 650.8,412.7 652.9,412.7 655.1,412.7 657.2,412.7 659.3,412.8 661.5,412.7 663.6,412.7 665.7,412.7 667.8,412.7 669.9,412.7 672.1,412.7 674.2,412.7 676.4,412.7 678.5,412.7 680.6,412.7 682.8,412.7 684.9,412.7 687.1,412.7 689.1,412.7 691.2,412.7 693.3,412.7 695.4,412.7 697.6,412.7 699.7,412.7 701.9,412.7 704.0,412.7 706.1,412.7 708.3,412.7 710.4,412.8 712.6,412.8 714.6,412.8 716.7,412.8 718.8,412.7 721.0,412.7 723.1,412.7 725.2,412.8 727.4,412.8 729.5,412.8 731.6,412.8 733.8,412.8 735.9,412.8 738.1,412.8 740.1,413.0 742.2,412.9 744.3,413.0 746.5,412.8 748.6,412.9 750.7,412.9 752.9,412.9 755.0,413.2 757.2,413.2 759.3,413.2 761.4,413.0" fill="none" stroke="#f59e0b" stroke-width="1.8"/>
<polyline points="68.0,468.4 70.1,458.7 72.3,447.0 74.4,435.9 76.5,428.7 78.6,420.6 80.7,401.1 82.8,386.8 84.9,384.2 87.1,387.8 89.2,385.8 91.4,382.5 93.5,377.7 95.6,378.5 97.8,384.1 99.9,387.1 102.0,385.2 104.1,377.2 106.2,377.4 108.3,380.1 110.5,387.7 112.6,404.9 114.8,416.1 116.9,416.2 119.0,409.3 121.2,411.2 123.3,418.3 125.4,417.7 127.5,420.3 129.6,426.9 131.7,433.7 133.8,447.4 136.0,458.4 138.1,465.6 140.3,452.3 142.4,431.2 144.5,407.8 146.7,393.5 148.8,394.6 151.0,394.0 153.1,394.4 155.1,396.0 157.3,389.3 159.4,385.3 161.5,388.9 163.7,398.8 165.8,402.1 168.0,399.9 170.1,397.9 172.2,396.9 174.4,402.4 176.5,402.0 178.6,406.7 180.7,404.1 182.8,395.0 184.9,401.5 187.1,416.8 189.2,432.3 191.4,440.5 193.5,446.4 195.6,450.1 197.7,448.6 199.9,446.1 202.0,440.6 204.1,438.4 206.2,432.7 208.3,424.9 210.4,405.4 212.6,393.2 214.7,387.7 216.9,384.4 219.0,384.1 221.1,378.9 223.3,375.2 225.4,376.4 227.6,383.9 229.6,387.4 231.7,384.9 233.8,381.8 235.9,385.4 238.1,400.6 240.2,419.5 242.4,431.6 244.5,428.1 246.6,422.2 248.8,422.3 250.9,425.5 253.1,426.7 255.2,426.3 257.3,432.1 259.4,434.3 261.5,437.2 263.6,450.3 265.8,460.5 267.9,457.9 270.1,445.5 272.2,432.9 274.3,423.6 276.5,409.0 278.6,393.2 280.7,390.0 282.8,388.6 284.9,378.7 287.0,368.9 289.2,377.4 291.3,391.2 293.5,399.3 295.6,397.2 297.7,399.6 299.9,403.3 302.0,406.3 304.1,410.6 306.2,415.6 308.3,415.1 310.4,420.7 312.5,434.1 314.7,460.0 316.8,478.5 319.0,481.6 321.1,478.9 323.2,462.8 325.4,438.9 327.5,418.3 329.7,405.2 331.7,400.5 333.8,396.1 335.9,385.8 338.0,375.3 340.2,372.9 342.3,376.7 344.5,381.7 346.6,389.4 348.7,390.9 350.9,397.1 353.0,405.8 355.2,407.0 357.3,407.3 359.4,411.6 361.5,409.3 363.6,424.0 365.8,441.3 367.9,460.5 370.1,468.7 372.2,468.6 374.3,466.4 376.4,459.6 378.6,446.2 380.7,439.5 382.8,429.7 384.9,427.1 387.0,408.6 389.1,389.9 391.3,378.3 393.4,374.5 395.6,378.8 397.7,375.4 399.8,376.9 402.0,378.9 404.1,386.0 406.3,394.8 408.3,400.3 410.4,402.3 412.5,401.8 414.6,421.1 416.8,448.4 418.9,465.4 421.1,469.8 423.2,469.4 425.3,467.3 427.5,452.5 429.6,436.6 431.8,422.5 433.8,418.5 435.9,407.8 438.0,393.6 440.2,378.9 442.3,373.9 444.4,376.4 446.6,380.7 448.7,380.5 450.8,379.6 453.0,382.8 455.1,382.4 457.3,384.6 459.4,386.3 461.5,381.5 463.6,372.9 465.7,373.5 467.9,394.6 470.0,414.4 472.2,421.1 474.3,421.4 476.4,418.5 478.6,422.2 480.7,422.5 482.9,426.9 484.9,428.0 487.0,428.7 489.1,423.9 491.2,429.4 493.4,446.0 495.5,461.2 497.7,473.6 499.8,467.3 501.9,458.4 504.1,448.7 506.2,436.2 508.4,423.9 510.4,414.9 512.5,402.3 514.6,382.5 516.7,372.5 518.9,373.3 521.0,382.5 523.2,380.3 525.3,379.8 527.4,380.0 529.6,383.4 531.7,392.9 533.9,396.9 535.9,395.4 538.0,397.7 540.1,405.2 542.3,417.7 544.4,430.4 546.5,445.0 548.7,452.0 550.8,453.3 552.9,451.7 555.1,453.2 557.2,446.5 559.4,435.5 561.5,424.5 563.6,418.0 565.7,399.4 567.8,383.9 570.0,379.4 572.1,380.0 574.3,380.6 576.4,386.7 578.5,380.7 580.7,382.9 582.8,385.3 585.0,391.9 587.0,392.4 589.1,388.3 591.2,395.7 593.3,412.7 595.5,432.9 597.6,452.8 599.8,460.2 601.9,465.1 604.0,468.4 606.2,468.5 608.3,466.3 610.5,464.3 612.5,456.3 614.6,442.6 616.7,432.5 618.9,414.0 621.0,395.8 623.1,388.0 625.3,387.5 627.4,376.9 629.5,372.5 631.7,371.1 633.8,378.0 636.0,386.8 638.0,386.9 640.1,384.2 642.2,389.2 644.4,404.5 646.5,431.9 648.6,455.4 650.8,465.3 652.9,465.8 655.1,466.3 657.2,468.3 659.3,467.4 661.5,465.3 663.6,453.4 665.7,439.7 667.8,427.0 669.9,408.0 672.1,387.9 674.2,379.0 676.4,380.9 678.5,382.6 680.6,381.1 682.8,383.3 684.9,379.9 687.1,377.9 689.1,377.3 691.2,381.1 693.3,374.6 695.4,375.2 697.6,386.9 699.7,406.9 701.9,411.6 704.0,408.6 706.1,405.0 708.3,409.5 710.4,416.8 712.6,416.4 714.6,419.9 716.7,426.2 718.8,447.8 721.0,468.7 723.1,482.2 725.2,473.5 727.4,447.7 729.5,419.1 731.6,390.4 733.8,376.3 735.9,377.7 738.1,386.2 740.1,385.6 742.2,384.4 744.3,384.3 746.5,378.7 748.6,379.5 750.7,381.7 752.9,383.0 755.0,381.2 757.2,378.0 759.3,391.3 761.4,414.6" fill="none" stroke="#8b5cf6" stroke-width="1.8"/>
<polyline points="68.0,412.8 70.1,412.7 72.3,412.7 74.4,412.8 76.5,412.7 78.6,412.7 80.7,412.7 82.8,412.8 84.9,412.8 87.1,412.7 89.2,412.7 91.4,412.7 93.5,412.7 95.6,412.8 97.8,412.8 99.9,412.8 102.0,412.8 104.1,412.7 106.2,412.7 108.3,412.7 110.5,412.7 112.6,412.7 114.8,412.7 116.9,412.7 119.0,412.8 121.2,412.8 123.3,412.7 125.4,412.7 127.5,412.7 129.6,412.7 131.7,412.9 133.8,412.9 136.0,412.8 138.1,412.8 140.3,412.9 142.4,412.8 144.5,413.0 146.7,412.9 148.8,412.9 151.0,413.0 153.1,412.9 155.1,413.0 157.3,413.2 159.4,412.9 161.5,413.0 163.7,413.2 165.8,413.1 168.0,413.1 170.1,413.3 172.2,413.4 174.4,413.8 176.5,414.0 178.6,413.8 180.7,413.8 182.8,413.5 184.9,413.4 187.1,414.2 189.2,413.4 191.4,413.8 193.5,413.7 195.6,413.7 197.7,413.6 199.9,413.4 202.0,413.5 204.1,413.2 206.2,413.4 208.3,413.7 210.4,413.8 212.6,413.4 214.7,413.2 216.9,413.6 219.0,413.5 221.1,413.6 223.3,413.6 225.4,413.5 227.6,413.5 229.6,413.5 231.7,413.8 233.8,413.9 235.9,413.4 238.1,413.4 240.2,413.3 242.4,413.9 244.5,413.3 246.6,413.4 248.8,413.3 250.9,413.6 253.1,413.3 255.2,413.5 257.3,413.3 259.4,413.2 261.5,413.0 263.6,413.0 265.8,413.2 267.9,413.1 270.1,413.1 272.2,412.9 274.3,413.1 276.5,413.2 278.6,413.1 280.7,413.1 282.8,413.0 284.9,412.8 287.0,412.9 289.2,412.8 291.3,412.9 293.5,412.8 295.6,412.8 297.7,412.8 299.9,412.9 302.0,412.8 304.1,412.9 306.2,412.9 308.3,412.8 310.4,412.8 312.5,412.9 314.7,412.8 316.8,412.8 319.0,412.8 321.1,412.7 323.2,412.8 325.4,412.8 327.5,412.8 329.7,412.8 331.7,412.8 333.8,412.8 335.9,412.8 338.0,412.9 340.2,412.7 342.3,412.7 344.5,412.7 346.6,412.7 348.7,412.8 350.9,412.7 353.0,412.7 355.2,412.7 357.3,412.7 359.4,412.7 361.5,412.7 363.6,412.7 365.8,412.7 367.9,412.7 370.1,412.7 372.2,412.7 374.3,412.7 376.4,412.7 378.6,412.8 380.7,412.7 382.8,412.7 384.9,412.7 387.0,412.7 389.1,412.7 391.3,412.7 393.4,412.7 395.6,412.8 397.7,412.9 399.8,412.8 402.0,412.9 404.1,412.8 406.3,412.9 408.3,412.9 410.4,413.0 412.5,412.9 414.6,413.0 416.8,412.9 418.9,412.9 421.1,413.1 423.2,413.0 425.3,413.1 427.5,413.0 429.6,413.2 431.8,413.3 433.8,413.4 435.9,413.2 438.0,413.0 440.2,413.2 442.3,413.2 444.4,413.1 446.6,413.1 448.7,413.2 450.8,413.4 453.0,413.7 455.1,413.5 457.3,413.5 459.4,413.2 461.5,413.4 463.6,413.3 465.7,413.9 467.9,413.5 470.0,413.6 472.2,413.4 474.3,413.3 476.4,413.2 478.6,413.2 480.7,413.5 482.9,413.2 484.9,413.1 487.0,413.1 489.1,413.0 491.2,413.2 493.4,413.6 495.5,413.2 497.7,413.2 499.8,413.5 501.9,413.6 504.1,413.5 506.2,413.5 508.4,413.6 510.4,413.5 512.5,413.4 514.6,413.5 516.7,413.2 518.9,413.1 521.0,413.4 523.2,413.6 525.3,413.4 527.4,413.4 529.6,413.5 531.7,413.6 533.9,413.2 535.9,413.0 538.0,413.1 540.1,412.9 542.3,412.9 544.4,413.0 546.5,413.1 548.7,413.0 550.8,412.9 552.9,412.9 555.1,412.9 557.2,413.0 559.4,413.0 561.5,412.9 563.6,413.0 565.7,412.9 567.8,413.0 570.0,413.0 572.1,413.2 574.3,413.1 576.4,412.9 578.5,412.8 580.7,412.9 582.8,412.8 585.0,413.1 587.0,413.0 589.1,412.9 591.2,412.8 593.3,412.9 595.5,412.9 597.6,412.7 599.8,412.7 601.9,413.0 604.0,412.8 606.2,412.9 608.3,412.8 610.5,412.8 612.5,412.8 614.6,412.7 616.7,412.7 618.9,412.7 621.0,412.7 623.1,412.7 625.3,412.9 627.4,412.8 629.5,412.7 631.7,412.9 633.8,412.8 636.0,412.8 638.0,412.7 640.1,412.7 642.2,412.7 644.4,412.8 646.5,412.7 648.6,412.7 650.8,412.7 652.9,412.7 655.1,412.7 657.2,412.7 659.3,412.8 661.5,412.7 663.6,412.7 665.7,412.7 667.8,412.7 669.9,412.7 672.1,412.7 674.2,412.7 676.4,412.7 678.5,412.7 680.6,412.7 682.8,412.7 684.9,412.7 687.1,412.7 689.1,412.7 691.2,412.7 693.3,412.7 695.4,412.7 697.6,412.7 699.7,412.7 701.9,412.7 704.0,412.7 706.1,412.7 708.3,412.7 710.4,412.8 712.6,412.8 714.6,412.8 716.7,412.8 718.8,412.7 721.0,412.7 723.1,412.7 725.2,412.8 727.4,412.8 729.5,412.8 731.6,412.8 733.8,412.8 735.9,412.8 738.1,412.8 740.1,413.0 742.2,412.9 744.3,413.0 746.5,412.8 748.6,412.9 750.7,412.9 752.9,412.9 755.0,413.2 757.2,413.2 759.3,413.2 761.4,413.0" fill="none" stroke="#dc2626" stroke-width="2" stroke-dasharray="6 3"/>
<polyline points="68.0,468.4 70.1,458.7 72.3,447.0 74.4,435.9 76.5,428.7 78.6,420.6 80.7,401.1 82.8,386.8 84.9,384.2 87.1,387.8 89.2,385.8 91.4,382.5 93.5,377.7 95.6,378.5 97.8,384.1 99.9,387.1 102.0,385.2 104.1,377.2 106.2,377.4 108.3,380.1 110.5,387.7 112.6,404.9 114.8,416.1 116.9,416.2 119.0,409.3 121.2,411.2 123.3,418.3 125.4,417.7 127.5,420.3 129.6,426.9 131.7,433.7 133.8,447.4 136.0,458.4 138.1,465.6 140.3,452.3 142.4,431.2 144.5,407.8 146.7,393.5 148.8,394.6 151.0,394.0 153.1,394.4 155.1,396.0 157.3,389.3 159.4,385.3 161.5,388.9 163.7,398.8 165.8,402.1 168.0,399.9 170.1,397.9 172.2,396.9 174.4,402.4 176.5,402.0 178.6,406.7 180.7,404.1 182.8,395.0 184.9,401.5 187.1,416.8 189.2,432.3 191.4,440.5 193.5,446.4 195.6,450.1 197.7,448.6 199.9,446.1 202.0,440.6 204.1,438.4 206.2,432.7 208.3,424.9 210.4,405.4 212.6,393.2 214.7,387.7 216.9,384.4 219.0,384.1 221.1,378.9 223.3,375.2 225.4,376.4 227.6,383.9 229.6,387.4 231.7,384.9 233.8,381.8 235.9,385.4 238.1,400.6 240.2,419.5 242.4,431.6 244.5,428.1 246.6,422.2 248.8,422.3 250.9,425.5 253.1,426.7 255.2,426.3 257.3,432.1 259.4,434.3 261.5,437.2 263.6,450.3 265.8,460.5 267.9,457.9 270.1,445.5 272.2,432.9 274.3,423.6 276.5,409.0 278.6,393.2 280.7,390.0 282.8,388.6 284.9,378.7 287.0,368.9 289.2,377.4 291.3,391.2 293.5,399.3 295.6,397.2 297.7,399.6 299.9,403.3 302.0,406.3 304.1,410.6 306.2,415.6 308.3,415.1 310.4,420.7 312.5,434.1 314.7,460.0 316.8,478.5 319.0,481.6 321.1,478.9 323.2,462.8 325.4,438.9 327.5,418.3 329.7,405.2 331.7,400.5 333.8,396.1 335.9,385.8 338.0,375.3 340.2,372.9 342.3,376.7 344.5,381.7 346.6,389.4 348.7,390.9 350.9,397.1 353.0,405.8 355.2,407.0 357.3,407.3 359.4,411.6 361.5,409.3 363.6,424.0 365.8,441.3 367.9,460.5 370.1,468.7 372.2,468.6 374.3,466.4 376.4,459.6 378.6,446.2 380.7,439.5 382.8,429.7 384.9,427.1 387.0,408.6 389.1,389.9 391.3,378.3 393.4,374.5 395.6,378.8 397.7,375.4 399.8,376.9 402.0,378.9 404.1,386.0 406.3,394.8 408.3,400.3 410.4,402.3 412.5,401.8 414.6,421.1 416.8,448.4 418.9,465.4 421.1,469.8 423.2,469.4 425.3,467.3 427.5,452.5 429.6,436.6 431.8,422.5 433.8,418.5 435.9,407.8 438.0,393.6 440.2,378.9 442.3,373.9 444.4,376.4 446.6,380.7 448.7,380.5 450.8,379.6 453.0,382.8 455.1,382.4 457.3,384.6 459.4,386.3 461.5,381.5 463.6,372.9 465.7,373.5 467.9,394.6 470.0,414.4 472.2,421.1 474.3,421.4 476.4,418.5 478.6,422.2 480.7,422.5 482.9,426.9 484.9,428.0 487.0,428.7 489.1,423.9 491.2,429.4 493.4,446.0 495.5,461.2 497.7,473.6 499.8,467.3 501.9,458.4 504.1,448.7 506.2,436.2 508.4,423.9 510.4,414.9 512.5,402.3 514.6,382.5 516.7,372.5 518.9,373.3 521.0,382.5 523.2,380.3 525.3,379.8 527.4,380.0 529.6,383.4 531.7,392.9 533.9,396.9 535.9,395.4 538.0,397.7 540.1,405.2 542.3,417.7 544.4,430.4 546.5,445.0 548.7,452.0 550.8,453.3 552.9,451.7 555.1,453.2 557.2,446.5 559.4,435.5 561.5,424.5 563.6,418.0 565.7,399.4 567.8,383.9 570.0,379.4 572.1,380.0 574.3,380.6 576.4,386.7 578.5,380.7 580.7,382.9 582.8,385.3 585.0,391.9 587.0,392.4 589.1,388.3 591.2,395.7 593.3,412.7 595.5,432.9 597.6,452.8 599.8,460.2 601.9,465.1 604.0,468.4 606.2,468.5 608.3,466.3 610.5,464.3 612.5,456.3 614.6,442.6 616.7,432.5 618.9,414.0 621.0,395.8 623.1,388.0 625.3,387.5 627.4,376.9 629.5,372.5 631.7,371.1 633.8,378.0 636.0,386.8 638.0,386.9 640.1,384.2 642.2,389.2 644.4,404.5 646.5,431.9 648.6,455.4 650.8,465.3 652.9,465.8 655.1,466.3 657.2,468.3 659.3,467.4 661.5,465.3 663.6,453.4 665.7,439.7 667.8,427.0 669.9,408.0 672.1,387.9 674.2,379.0 676.4,380.9 678.5,382.6 680.6,381.1 682.8,383.3 684.9,379.9 687.1,377.9 689.1,377.3 691.2,381.1 693.3,374.6 695.4,375.2 697.6,386.9 699.7,406.9 701.9,411.6 704.0,408.6 706.1,405.0 708.3,409.5 710.4,416.8 712.6,416.4 714.6,419.9 716.7,426.2 718.8,447.8 721.0,468.7 723.1,482.2 725.2,473.5 727.4,447.7 729.5,419.1 731.6,390.4 733.8,376.3 735.9,377.7 738.1,386.2 740.1,385.6 742.2,384.4 744.3,384.3 746.5,378.7 748.6,379.5 750.7,381.7 752.9,383.0 755.0,381.2 757.2,378.0 759.3,391.3 761.4,414.6" fill="none" stroke="#dc2626" stroke-width="2" stroke-dasharray="2 3"/>
<line x1="63" y1="528.0" x2="68" y2="528.0" stroke="#333" stroke-width="1.5"/>
<text x="60" y="528.0" text-anchor="end" dominant-baseline="middle" fill="#333">-1</text>
<line x1="63" y1="413.0" x2="68" y2="413.0" stroke="#333" stroke-width="1.5"/>
<text x="60" y="413.0" text-anchor="end" dominant-baseline="middle" fill="#333">0</text>
<line x1="63" y1="298.0" x2="68" y2="298.0" stroke="#333" stroke-width="1.5"/>
<text x="60" y="298.0" text-anchor="end" dominant-baseline="middle" fill="#333">1</text>
<line x1="98.8" y1="528" x2="98.8" y2="533" stroke="#333" stroke-width="1.5"/>
<text x="98.8" y="546" text-anchor="middle" fill="#333">1986</text>
<line x1="149.9" y1="528" x2="149.9" y2="533" stroke="#333" stroke-width="1.5"/>
<text x="149.9" y="546" text-anchor="middle" fill="#333">1988</text>
<line x1="200.9" y1="528" x2="200.9" y2="533" stroke="#333" stroke-width="1.5"/>
<text x="200.9" y="546" text-anchor="middle" fill="#333">1990</text>
<line x1="252.0" y1="528" x2="252.0" y2="533" stroke="#333" stroke-width="1.5"/>
<text x="252.0" y="546" text-anchor="middle" fill="#333">1992</text>
<line x1="303.0" y1="528" x2="303.0" y2="533" stroke="#333" stroke-width="1.5"/>
<text x="303.0" y="546" text-anchor="middle" fill="#333">1994</text>
<line x1="354.1" y1="528" x2="354.1" y2="533" stroke="#333" stroke-width="1.5"/>
<text x="354.1" y="546" text-anchor="middle" fill="#333">1996</text>
<line x1="405.2" y1="528" x2="405.2" y2="533" stroke="#333" stroke-width="1.5"/>
<text x="405.2" y="546" text-anchor="middle" fill="#333">1998</text>
<line x1="456.2" y1="528" x2="456.2" y2="533" stroke="#333" stroke-width="1.5"/>
<text x="456.2" y="546" text-anchor="middle" fill="#333">2000</text>
<line x1="507.3" y1="528" x2="507.3" y2="533" stroke="#333" stroke-width="1.5"/>
<text x="507.3" y="546" text-anchor="middle" fill="#333">2002</text>
<line x1="558.3" y1="528" x2="558.3" y2="533" stroke="#333" stroke-width="1.5"/>
<text x="558.3" y="546" text-anchor="middle" fill="#333">2004</text>
<line x1="609.4" y1="528" x2="609.4" y2="533" stroke="#333" stroke-width="1.5"/>
<text x="609.4" y="546" text-anchor="middle" fill="#333">2006</text>
<line x1="660.4" y1="528" x2="660.4" y2="533" stroke="#333" stroke-width="1.5"/>
<text x="660.4" y="546" text-anchor="middle" fill="#333">2008</text>
<line x1="711.5" y1="528" x2="711.5" y2="533" stroke="#333" stroke-width="1.5"/>
<text x="711.5" y="546" text-anchor="middle" fill="#333">2010</text>
<line x1="762.5" y1="528" x2="762.5" y2="533" stroke="#333" stroke-width="1.5"/>
<text x="762.5" y="546" text-anchor="middle" fill="#333">2012</text>
<line x1="813.6" y1="528" x2="813.6" y2="533" stroke="#333" stroke-width="1.5"/>
<text x="813.6" y="546" text-anchor="middle" fill="#333">2014</text>
<line x1="68" y1="298" x2="68" y2="528" stroke="#333" stroke-width="1.5"/>
<line x1="68" y1="528" x2="838" y2="528" stroke="#333" stroke-width="1.5"/>
<text transform="rotate(-90)" x="-413" y="16" text-anchor="middle" fill="#374151" font-size="11">Contribution [×10⁹ cm⁻³]</text>
<text x="453" y="566" text-anchor="middle" fill="#4b5563" font-size="11">Year</text>
<line x1="78" y1="312" x2="100" y2="312" stroke="#f59e0b" stroke-width="1.8"/>
<text x="105" y="316" fill="#374151" font-size="11">dlm-js solar β̂·X_solar</text>
<line x1="78" y1="327" x2="100" y2="327" stroke="#8b5cf6" stroke-width="1.8"/>
<text x="105" y="331" fill="#374151" font-size="11">dlm-js QBO β̂_qbo1·X₁ + β̂_qbo2·X₂</text>
<line x1="78" y1="342" x2="100" y2="342" stroke="#dc2626" stroke-width="1.4" stroke-dasharray="5 3"/>
<text x="105" y="346" fill="#374151" font-size="11">MATLAB solar (reference)</text>
<line x1="78" y1="357" x2="100" y2="357" stroke="#dc2626" stroke-width="1.4" stroke-dasharray="2 3"/>
<text x="105" y="361" fill="#374151" font-size="11">MATLAB QBO (reference)</text>
<text x="453" y="288" text-anchor="middle" fill="#374151" font-size="13" font-weight="bold">Proxy covariate contributions (solar + QBO)</text>
</svg>