<svg width="860" height="578" xmlns="http://www.w3.org/2000/svg" font-family="sans-serif" font-size="12">
<rect width="860" height="578" fill="white"/>
<line x1="68" y1="214.0" x2="838" y2="214.0" stroke="#e5e7eb" stroke-width="1"/>
<line x1="68" y1="137.3" x2="838" y2="137.3" stroke="#e5e7eb" stroke-width="1"/>
<line x1="68" y1="60.7" x2="838" y2="60.7" stroke="#e5e7eb" stroke-width="1"/>
<rect x="564.1" y="30" width="273.9" height="230" fill="#f3f4f6" fill-opacity="0.7"/>
<path d="M68.0,100.2L69.5,100.6L71.0,100.9L72.6,101.3L74.1,101.6L75.5,102.0L77.1,102.3L78.6,102.6L80.1,102.9L81.7,103.3L83.2,103.6L84.7,103.9L86.2,104.2L87.8,104.5L89.3,104.7L90.8,105.0L92.3,105.3L93.8,105.5L95.3,105.8L96.8,106.0L98.4,106.3L99.9,106.5L101.4,106.7L103.0,106.9L104.5,107.1L106.0,107.3L107.5,107.5L109.1,107.7L110.6,107.9L112.0,108.1L113.6,108.2L115.1,108.4L116.6,108.5L118.1,108.7L119.7,108.8L121.2,109.0L122.7,109.1L124.3,109.3L125.8,109.4L127.3,109.5L128.8,109.7L130.3,109.8L131.9,109.9L133.4,110.1L134.9,110.2L136.4,110.3L138.0,110.4L139.5,110.6L141.0,110.7L142.6,110.8L144.1,111.0L145.6,111.1L147.1,111.2L148.6,111.3L150.1,111.5L151.6,111.6L153.2,111.8L154.7,111.9L156.2,112.0L157.8,112.2L159.3,112.3L160.8,112.5L162.3,112.6L163.9,112.8L165.4,113.0L166.8,113.1L168.4,113.3L169.9,113.5L171.4,113.6L172.9,113.8L174.5,114.0L176.0,114.2L177.5,114.4L179.1,114.6L180.6,114.8L182.1,115.0L183.6,115.2L185.1,115.5L186.6,115.7L188.1,115.9L189.7,116.2L191.2,116.4L192.7,116.7L194.3,116.9L195.8,117.2L197.3,117.5L198.8,117.8L200.4,118.0L201.9,118.3L203.4,118.6L204.9,118.9L206.4,119.2L208.0,119.5L209.5,119.8L211.0,120.1L212.6,120.5L214.1,120.8L215.6,121.1L217.1,121.4L218.7,121.8L220.2,122.1L221.6,122.4L223.2,122.7L224.7,123.1L226.2,123.4L227.7,123.7L229.3,124.1L230.8,124.4L232.3,124.7L233.9,125.0L235.4,125.4L236.9,125.7L238.4,126.0L239.9,126.3L241.4,126.7L242.9,127.0L244.5,127.3L246.0,127.6L247.5,127.9L249.1,128.2L250.6,128.5L252.1,128.8L253.6,129.1L255.2,129.4L256.7,129.6L258.1,129.9L259.7,130.2L261.2,130.5L262.7,130.7L264.2,131.0L265.8,131.2L267.3,131.4L268.8,131.7L270.4,131.9L271.9,132.1L273.4,132.3L274.9,132.5L276.4,132.7L278.0,132.9L279.5,133.1L281.0,133.3L282.5,133.4L284.1,133.6L285.6,133.7L287.1,133.9L288.7,134.0L290.2,134.2L291.7,134.3L293.2,134.4L294.7,134.5L296.2,134.6L297.7,134.7L299.3,134.8L300.8,134.9L302.3,135.0L303.9,135.1L305.4,135.1L306.9,135.2L308.4,135.2L310.0,135.3L311.5,135.3L312.9,135.4L314.5,135.4L316.0,135.4L317.5,135.4L319.0,135.4L320.6,135.4L322.1,135.4L323.6,135.4L325.2,135.4L326.7,135.3L328.2,135.3L329.7,135.2L331.2,135.2L332.7,135.1L334.2,135.0L335.8,134.9L337.3,134.8L338.8,134.7L340.4,134.6L341.9,134.5L343.4,134.4L344.9,134.2L346.5,134.1L348.0,134.0L349.5,133.8L351.0,133.7L352.5,133.5L354.1,133.3L355.6,133.2L357.1,133.0L358.7,132.8L360.2,132.6L361.7,132.4L363.2,132.2L364.8,132.0L366.3,131.9L367.7,131.7L369.3,131.5L370.8,131.3L372.3,131.1L373.8,130.9L375.4,130.7L376.9,130.5L378.4,130.3L380.0,130.1L381.5,129.9L383.0,129.7L384.5,129.5L386.0,129.3L387.5,129.2L389.0,129.0L390.6,128.8L392.1,128.6L393.6,128.5L395.2,128.3L396.7,128.2L398.2,128.0L399.7,127.9L401.3,127.7L402.8,127.6L404.2,127.4L405.8,127.3L407.3,127.2L408.8,127.0L410.3,126.9L411.9,126.8L413.4,126.7L414.9,126.6L416.5,126.5L418.0,126.3L419.5,126.2L421.0,126.2L422.5,126.1L424.1,126.0L425.6,125.9L427.1,125.8L428.6,125.7L430.2,125.6L431.7,125.6L433.2,125.5L434.8,125.4L436.3,125.4L437.8,125.3L439.3,125.2L440.8,125.2L442.3,125.1L443.8,125.1L445.4,125.1L446.9,125.0L448.4,125.0L450.0,124.9L451.5,124.9L453.0,124.9L454.5,124.9L456.1,124.8L457.6,124.8L459.0,124.8L460.6,124.8L462.1,124.8L463.6,124.8L465.1,124.8L466.7,124.8L468.2,124.8L469.7,124.8L471.3,124.8L472.8,124.8L474.3,124.8L475.8,124.8L477.3,124.9L478.8,124.9L480.3,124.9L481.9,124.9L483.4,125.0L484.9,125.0L486.5,125.0L488.0,125.1L489.5,125.1L491.0,125.1L492.6,125.2L494.1,125.2L495.6,125.3L497.1,125.3L498.6,125.3L500.2,125.4L501.7,125.4L503.2,125.4L504.8,125.5L506.3,125.5L507.8,125.5L509.3,125.6L510.9,125.6L512.4,125.6L513.8,125.6L515.4,125.6L516.9,125.6L518.4,125.6L519.9,125.6L521.5,125.6L523.0,125.6L524.5,125.6L526.1,125.6L527.6,125.5L529.1,125.5L530.6,125.5L532.1,125.4L533.6,125.3L535.1,125.3L536.7,125.2L538.2,125.1L539.7,125.0L541.3,124.9L542.8,124.8L544.3,124.7L545.8,124.6L547.4,124.5L548.9,124.4L550.3,124.2L551.9,124.1L553.4,123.9L554.9,123.8L556.4,123.6L558.0,123.5L559.5,123.3L561.0,123.1L562.6,122.9L564.1,122.7L564.1,142.0L562.6,141.7L561.0,141.4L559.5,141.1L558.0,140.8L556.4,140.6L554.9,140.3L553.4,140.1L551.9,139.8L550.3,139.6L548.9,139.4L547.4,139.2L545.8,139.0L544.3,138.8L542.8,138.6L541.3,138.4L539.7,138.2L538.2,138.0L536.7,137.8L535.1,137.7L533.6,137.5L532.1,137.4L530.6,137.2L529.1,137.1L527.6,137.0L526.1,136.8L524.5,136.7L523.0,136.6L521.5,136.5L519.9,136.4L518.4,136.3L516.9,136.2L515.4,136.1L513.8,136.0L512.4,135.9L510.9,135.8L509.3,135.7L507.8,135.6L506.3,135.5L504.8,135.4L503.2,135.4L501.7,135.3L500.2,135.2L498.6,135.1L497.1,135.1L495.6,135.0L494.1,134.9L492.6,134.9L491.0,134.8L489.5,134.7L488.0,134.7L486.5,134.6L484.9,134.5L483.4,134.5L481.9,134.4L480.3,134.4L478.8,134.3L477.3,134.3L475.8,134.3L474.3,134.2L472.8,134.2L471.3,134.2L469.7,134.1L468.2,134.1L466.7,134.1L465.1,134.1L463.6,134.0L462.1,134.0L460.6,134.0L459.0,134.0L457.6,134.0L456.1,134.0L454.5,134.0L453.0,134.0L451.5,134.1L450.0,134.1L448.4,134.1L446.9,134.1L445.4,134.2L443.8,134.2L442.3,134.2L440.8,134.3L439.3,134.3L437.8,134.4L436.3,134.4L434.8,134.5L433.2,134.5L431.7,134.6L430.2,134.7L428.6,134.8L427.1,134.8L425.6,134.9L424.1,135.0L422.5,135.1L421.0,135.2L419.5,135.3L418.0,135.4L416.5,135.5L414.9,135.6L413.4,135.8L411.9,135.9L410.3,136.0L408.8,136.2L407.3,136.3L405.8,136.4L404.2,136.6L402.8,136.7L401.3,136.9L399.7,137.1L398.2,137.2L396.7,137.4L395.2,137.6L393.6,137.8L392.1,137.9L390.6,138.1L389.0,138.3L387.5,138.5L386.0,138.7L384.5,138.9L383.0,139.1L381.5,139.3L380.0,139.5L378.4,139.7L376.9,139.9L375.4,140.1L373.8,140.3L372.3,140.5L370.8,140.7L369.3,140.9L367.7,141.1L366.3,141.3L364.8,141.5L363.2,141.7L361.7,141.9L360.2,142.0L358.7,142.2L357.1,142.4L355.6,142.6L354.1,142.7L352.5,142.9L351.0,143.0L349.5,143.2L348.0,143.3L346.5,143.5L344.9,143.6L343.4,143.7L341.9,143.8L340.4,143.9L338.8,144.0L337.3,144.1L335.8,144.2L334.2,144.3L332.7,144.3L331.2,144.4L329.7,144.4L328.2,144.5L326.7,144.5L325.2,144.5L323.6,144.6L322.1,144.6L320.6,144.6L319.0,144.6L317.5,144.6L316.0,144.5L314.5,144.5L312.9,144.5L311.5,144.4L310.0,144.4L308.4,144.3L306.9,144.3L305.4,144.2L303.9,144.2L302.3,144.1L300.8,144.0L299.3,143.9L297.7,143.8L296.2,143.7L294.7,143.6L293.2,143.5L291.7,143.4L290.2,143.2L288.7,143.1L287.1,143.0L285.6,142.8L284.1,142.7L282.5,142.5L281.0,142.3L279.5,142.2L278.0,142.0L276.4,141.8L274.9,141.6L273.4,141.4L271.9,141.2L270.4,141.0L268.8,140.7L267.3,140.5L265.8,140.3L264.2,140.0L262.7,139.8L261.2,139.5L259.7,139.3L258.1,139.0L256.7,138.7L255.2,138.4L253.6,138.2L252.1,137.9L250.6,137.6L249.1,137.3L247.5,137.0L246.0,136.7L244.5,136.4L242.9,136.1L241.4,135.8L239.9,135.5L238.4,135.2L236.9,134.8L235.4,134.5L233.9,134.2L232.3,133.9L230.8,133.6L229.3,133.3L227.7,133.0L226.2,132.7L224.7,132.4L223.2,132.0L221.6,131.7L220.2,131.4L218.7,131.1L217.1,130.8L215.6,130.5L214.1,130.3L212.6,130.0L211.0,129.7L209.5,129.4L208.0,129.1L206.4,128.8L204.9,128.6L203.4,128.3L201.9,128.0L200.4,127.8L198.8,127.5L197.3,127.3L195.8,127.0L194.3,126.8L192.7,126.6L191.2,126.3L189.7,126.1L188.1,125.9L186.6,125.7L185.1,125.5L183.6,125.3L182.1,125.1L180.6,124.9L179.1,124.7L177.5,124.5L176.0,124.3L174.5,124.1L172.9,123.9L171.4,123.8L169.9,123.6L168.4,123.4L166.8,123.2L165.4,123.1L163.9,122.9L162.3,122.7L160.8,122.6L159.3,122.4L157.8,122.3L156.2,122.1L154.7,121.9L153.2,121.8L151.6,121.6L150.1,121.5L148.6,121.3L147.1,121.1L145.6,121.0L144.1,120.8L142.6,120.7L141.0,120.6L139.5,120.4L138.0,120.3L136.4,120.1L134.9,120.0L133.4,119.9L131.9,119.8L130.3,119.6L128.8,119.5L127.3,119.4L125.8,119.3L124.3,119.2L122.7,119.1L121.2,119.0L119.7,118.9L118.1,118.9L116.6,118.8L115.1,118.7L113.6,118.7L112.0,118.6L110.6,118.6L109.1,118.5L107.5,118.5L106.0,118.5L104.5,118.5L103.0,118.4L101.4,118.4L99.9,118.4L98.4,118.5L96.8,118.5L95.3,118.5L93.8,118.5L92.3,118.6L90.8,118.6L89.3,118.7L87.8,118.7L86.2,118.8L84.7,118.9L83.2,119.0L81.7,119.1L80.1,119.2L78.6,119.3L77.1,119.4L75.5,119.5L74.1,119.7L72.6,119.8L71.0,119.9L69.5,120.1L68.0,120.2Z" fill="#3b82f6" fill-opacity="0.15" stroke="none"/>
<polyline points="68.0,126.4 69.5,170.5 71.0,127.5 72.6,140.1 74.1,120.9 75.5,81.9 77.1,158.8 78.6,89.3 81.7,58.5 83.2,39.8 84.7,69.2 86.2,107.4 87.8,147.2 89.3,79.9 90.8,101.5 92.3,108.6 93.8,145.6 95.3,161.1 96.8,113.2 99.9,50.7 101.4,32.9 103.0,67.6 104.5,110.8 106.0,154.5 107.5,210.0 109.1,180.7 110.6,178.8 112.0,170.2 113.6,131.5 115.1,98.6 118.1,31.2 119.7,33.5 121.2,66.4 122.7,114.1 124.3,121.3 125.8,140.3 127.3,143.2 128.8,72.9 130.3,69.6 131.9,152.7 133.4,113.7 134.9,43.0 136.4,38.5 139.5,65.5 141.0,107.9 142.6,166.1 144.1,140.1 145.6,125.6 147.1,90.7 148.6,171.6 150.1,161.7 151.6,122.8 153.2,60.5 154.7,49.9 157.8,77.1 159.3,127.2 160.8,206.8 162.3,179.9 163.9,151.0 165.4,124.8 166.8,161.0 168.4,176.8 169.9,114.2 171.4,52.9 172.9,39.4 176.0,71.3 177.5,115.7 179.1,138.4 180.6,156.8 182.1,105.8 183.6,96.4 185.1,120.0 186.6,147.5 188.1,114.0 189.7,50.6 191.2,39.1 194.3,51.0 195.8,95.9 197.3,177.9 198.8,133.6 200.4,107.2 201.9,127.3 203.4,115.6 204.9,158.2 206.4,116.9 208.0,75.2 209.5,50.8 212.6,80.2 214.1,131.5 215.6,180.1 217.1,155.6 218.7,162.6 220.2,100.6 221.6,144.5 223.2,185.0 224.7,144.9 226.2,36.9 227.7,69.2 230.8,115.3 232.3,128.2 235.4,201.8 238.4,80.7 242.9,161.0 244.5,94.2 246.0,71.1 247.5,75.6 249.1,103.8 250.6,151.4 252.1,195.6 253.6,219.4 255.2,134.0 256.7,168.7 258.1,179.3 259.7,171.8 262.7,124.1 264.2,83.4 265.8,69.8 267.3,111.7 268.8,139.6 270.4,185.7 271.9,221.2 273.4,190.7 274.9,107.5 276.4,175.4 278.0,179.7 281.0,83.3 282.5,87.6 284.1,65.0 285.6,101.6 287.1,149.3 288.7,226.3 290.2,247.8 291.7,108.1 293.2,127.6 294.7,162.3 296.2,155.5 299.3,110.7 300.8,86.8 302.3,61.7 303.9,94.8 305.4,144.9 306.9,173.8 308.4,153.9 310.0,165.2 311.5,159.9 312.9,170.3 314.5,161.2 316.0,104.0 317.5,79.5 320.6,46.9 322.1,97.1 323.6,149.7 325.2,225.9 326.7,211.7 328.2,204.7 329.7,148.2 331.2,203.9 332.7,190.9 334.2,135.8 335.8,98.1 338.8,56.1 340.4,101.1 341.9,154.7 343.4,190.1 344.9,215.7 346.5,114.4 348.0,176.1 349.5,201.4 351.0,195.1 352.5,126.6 354.1,94.4 361.7,152.9 363.2,173.4 364.8,111.6 366.3,160.2 369.3,184.0 372.3,91.3 375.4,67.1 376.9,89.3 380.0,168.4 381.5,215.7 383.0,184.8 384.5,171.9 386.0,166.2 387.5,98.8 389.0,72.2 390.6,90.9 392.1,60.6 393.6,57.4 395.2,79.5 396.7,127.3 398.2,175.9 399.7,135.2 401.3,139.5 402.8,152.0 404.2,161.8 405.8,158.8 407.3,115.8 408.8,101.6 410.3,57.4 411.9,56.2 413.4,71.8 414.9,167.0 416.5,202.8 418.0,184.0 419.5,216.4 421.0,133.7 422.5,138.2 424.1,139.3 425.6,123.3 427.1,100.5 428.6,68.0 430.2,58.7 431.7,74.1 433.2,145.7 434.8,196.2 436.3,234.2 437.8,121.5 439.3,112.7 440.8,181.6 443.8,145.4 446.9,80.8 448.4,59.9 450.0,79.7 456.1,192.9 457.6,237.2 459.0,209.2 460.6,136.4 462.1,117.3 463.6,105.5 465.1,54.1 466.7,62.6 468.2,72.4 474.3,165.5 475.8,107.9 477.3,176.1 478.8,160.0 480.3,133.3 481.9,104.6 484.9,76.8 492.6,119.7 494.1,144.7 495.6,229.5 497.1,187.3 498.6,132.6 500.2,113.2 501.7,71.5 503.2,77.1 504.8,73.9 507.8,192.9 509.3,117.8 510.9,149.6 513.8,213.4 516.9,120.7 519.9,88.1 521.5,76.8 526.1,204.0 527.6,129.3 529.1,154.1 530.6,126.6 532.1,224.5 533.6,139.3 535.1,107.7 536.7,92.9 538.2,86.7 539.7,86.3 545.8,108.7 547.4,90.9 550.3,205.0 551.9,182.3 553.4,127.0 554.9,99.6 556.4,107.0 558.0,110.4" fill="none" stroke="#9ca3af" stroke-width="1" opacity="0.6"/>
<polyline points="68.0,110.2 69.5,110.3 71.0,110.4 72.6,110.5 74.1,110.6 75.5,110.7 77.1,110.9 78.6,111.0 80.1,111.1 81.7,111.2 83.2,111.3 84.7,111.4 86.2,111.5 87.8,111.6 89.3,111.7 90.8,111.8 92.3,111.9 93.8,112.0 95.3,112.1 96.8,112.3 98.4,112.4 99.9,112.5 101.4,112.6 103.0,112.7 104.5,112.8 106.0,112.9 107.5,113.0 109.1,113.1 110.6,113.2 112.0,113.3 113.6,113.4 115.1,113.6 116.6,113.7 118.1,113.8 119.7,113.9 121.2,114.0 122.7,114.1 124.3,114.2 125.8,114.4 127.3,114.5 128.8,114.6 130.3,114.7 131.9,114.8 133.4,115.0 134.9,115.1 136.4,115.2 138.0,115.4 139.5,115.5 141.0,115.6 142.6,115.8 144.1,115.9 145.6,116.0 147.1,116.2 148.6,116.3 150.1,116.5 151.6,116.6 153.2,116.8 154.7,116.9 156.2,117.1 157.8,117.2 159.3,117.4 160.8,117.5 162.3,117.7 163.9,117.9 165.4,118.0 166.8,118.2 168.4,118.4 169.9,118.5 171.4,118.7 172.9,118.9 174.5,119.1 176.0,119.3 177.5,119.4 179.1,119.6 180.6,119.8 182.1,120.0 183.6,120.3 185.1,120.5 186.6,120.7 188.1,120.9 189.7,121.1 191.2,121.4 192.7,121.6 194.3,121.9 195.8,122.1 197.3,122.4 198.8,122.6 200.4,122.9 201.9,123.2 203.4,123.5 204.9,123.7 206.4,124.0 208.0,124.3 209.5,124.6 211.0,124.9 212.6,125.2 214.1,125.5 215.6,125.8 217.1,126.1 218.7,126.4 220.2,126.8 221.6,127.1 223.2,127.4 224.7,127.7 226.2,128.0 227.7,128.4 229.3,128.7 230.8,129.0 232.3,129.3 233.9,129.6 235.4,129.9 236.9,130.3 238.4,130.6 239.9,130.9 241.4,131.2 242.9,131.5 244.5,131.8 246.0,132.1 247.5,132.4 249.1,132.7 250.6,133.0 252.1,133.3 253.6,133.6 255.2,133.9 256.7,134.2 258.1,134.5 259.7,134.7 261.2,135.0 262.7,135.2 264.2,135.5 265.8,135.7 267.3,136.0 268.8,136.2 270.4,136.4 271.9,136.6 273.4,136.9 274.9,137.1 276.4,137.3 278.0,137.4 279.5,137.6 281.0,137.8 282.5,138.0 284.1,138.1 285.6,138.3 287.1,138.4 288.7,138.6 290.2,138.7 291.7,138.8 293.2,138.9 294.7,139.1 296.2,139.2 297.7,139.3 299.3,139.4 300.8,139.5 302.3,139.5 303.9,139.6 305.4,139.7 306.9,139.7 308.4,139.8 310.0,139.8 311.5,139.9 312.9,139.9 314.5,140.0 316.0,140.0 317.5,140.0 319.0,140.0 320.6,140.0 322.1,140.0 323.6,140.0 325.2,139.9 326.7,139.9 328.2,139.9 329.7,139.8 331.2,139.8 332.7,139.7 334.2,139.6 335.8,139.6 337.3,139.5 338.8,139.4 340.4,139.3 341.9,139.2 343.4,139.0 344.9,138.9 346.5,138.8 348.0,138.6 349.5,138.5 351.0,138.4 352.5,138.2 354.1,138.0 355.6,137.9 357.1,137.7 358.7,137.5 360.2,137.3 361.7,137.1 363.2,137.0 364.8,136.8 366.3,136.6 367.7,136.4 369.3,136.2 370.8,136.0 372.3,135.8 373.8,135.6 375.4,135.4 376.9,135.2 378.4,135.0 380.0,134.8 381.5,134.6 383.0,134.4 384.5,134.2 386.0,134.0 387.5,133.8 389.0,133.7 390.6,133.5 392.1,133.3 393.6,133.1 395.2,132.9 396.7,132.8 398.2,132.6 399.7,132.5 401.3,132.3 402.8,132.2 404.2,132.0 405.8,131.9 407.3,131.7 408.8,131.6 410.3,131.5 411.9,131.3 413.4,131.2 414.9,131.1 416.5,131.0 418.0,130.9 419.5,130.8 421.0,130.7 422.5,130.6 424.1,130.5 425.6,130.4 427.1,130.3 428.6,130.2 430.2,130.2 431.7,130.1 433.2,130.0 434.8,130.0 436.3,129.9 437.8,129.8 439.3,129.8 440.8,129.7 442.3,129.7 443.8,129.6 445.4,129.6 446.9,129.6 448.4,129.5 450.0,129.5 451.5,129.5 453.0,129.5 454.5,129.4 456.1,129.4 457.6,129.4 459.0,129.4 460.6,129.4 462.1,129.4 463.6,129.4 465.1,129.4 466.7,129.4 468.2,129.4 469.7,129.5 471.3,129.5 472.8,129.5 474.3,129.5 475.8,129.5 477.3,129.6 478.8,129.6 480.3,129.6 481.9,129.7 483.4,129.7 484.9,129.8 486.5,129.8 488.0,129.9 489.5,129.9 491.0,130.0 492.6,130.0 494.1,130.1 495.6,130.1 497.1,130.2 498.6,130.2 500.2,130.3 501.7,130.4 503.2,130.4 504.8,130.5 506.3,130.5 507.8,130.6 509.3,130.6 510.9,130.7 512.4,130.7 513.8,130.8 515.4,130.9 516.9,130.9 518.4,131.0 519.9,131.0 521.5,131.1 523.0,131.1 524.5,131.2 526.1,131.2 527.6,131.3 529.1,131.3 530.6,131.3 532.1,131.4 533.6,131.4 535.1,131.5 536.7,131.5 538.2,131.6 539.7,131.6 541.3,131.7 542.8,131.7 544.3,131.7 545.8,131.8 547.4,131.8 548.9,131.9 550.3,131.9 551.9,132.0 553.4,132.0 554.9,132.1 556.4,132.1 558.0,132.2 559.5,132.2 561.0,132.2 562.6,132.3 564.1,132.3" fill="none" stroke="#2563eb" stroke-width="2.2"/>
<path d="M68.0,100.2L69.5,100.6L71.0,100.9L72.6,101.3L74.1,101.6L75.5,102.0L77.1,102.3L78.6,102.6L80.1,102.9L81.7,103.3L83.2,103.6L84.7,103.9L86.2,104.2L87.8,104.5L89.3,104.7L90.8,105.0L92.3,105.3L93.8,105.5L95.3,105.8L96.8,106.0L98.4,106.3L99.9,106.5L101.4,106.7L103.0,106.9L104.5,107.1L106.0,107.3L107.5,107.5L109.1,107.7L110.6,107.9L112.0,108.1L113.6,108.2L115.1,108.4L116.6,108.5L118.1,108.7L119.7,108.8L121.2,109.0L122.7,109.1L124.3,109.3L125.8,109.4L127.3,109.5L128.8,109.7L130.3,109.8L131.9,109.9L133.4,110.1L134.9,110.2L136.4,110.3L138.0,110.4L139.5,110.6L141.0,110.7L142.6,110.8L144.1,111.0L145.6,111.1L147.1,111.2L148.6,111.3L150.1,111.5L151.6,111.6L153.2,111.8L154.7,111.9L156.2,112.0L157.8,112.2L159.3,112.3L160.8,112.5L162.3,112.6L163.9,112.8L165.4,113.0L166.8,113.1L168.4,113.3L169.9,113.5L171.4,113.6L172.9,113.8L174.5,114.0L176.0,114.2L177.5,114.4L179.1,114.6L180.6,114.8L182.1,115.0L183.6,115.2L185.1,115.5L186.6,115.7L188.1,115.9L189.7,116.2L191.2,116.4L192.7,116.7L194.3,116.9L195.8,117.2L197.3,117.5L198.8,117.8L200.4,118.0L201.9,118.3L203.4,118.6L204.9,118.9L206.4,119.2L208.0,119.5L209.5,119.8L211.0,120.1L212.6,120.5L214.1,120.8L215.6,121.1L217.1,121.4L218.7,121.8L220.2,122.1L221.6,122.4L223.2,122.7L224.7,123.1L226.2,123.4L227.7,123.7L229.3,124.1L230.8,124.4L232.3,124.7L233.9,125.0L235.4,125.4L236.9,125.7L238.4,126.0L239.9,126.3L241.4,126.7L242.9,127.0L244.5,127.3L246.0,127.6L247.5,127.9L249.1,128.2L250.6,128.5L252.1,128.8L253.6,129.1L255.2,129.4L256.7,129.6L258.1,129.9L259.7,130.2L261.2,130.5L262.7,130.7L264.2,131.0L265.8,131.2L267.3,131.4L268.8,131.7L270.4,131.9L271.9,132.1L273.4,132.3L274.9,132.5L276.4,132.7L278.0,132.9L279.5,133.1L281.0,133.3L282.5,133.4L284.1,133.6L285.6,133.7L287.1,133.9L288.7,134.0L290.2,134.2L291.7,134.3L293.2,134.4L294.7,134.5L296.2,134.6L297.7,134.7L299.3,134.8L300.8,134.9L302.3,135.0L303.9,135.1L305.4,135.1L306.9,135.2L308.4,135.2L310.0,135.3L311.5,135.3L312.9,135.4L314.5,135.4L316.0,135.4L317.5,135.4L319.0,135.4L320.6,135.4L322.1,135.4L323.6,135.4L325.2,135.4L326.7,135.3L328.2,135.3L329.7,135.2L331.2,135.2L332.7,135.1L334.2,135.0L335.8,134.9L337.3,134.8L338.8,134.7L340.4,134.6L341.9,134.5L343.4,134.4L344.9,134.2L346.5,134.1L348.0,134.0L349.5,133.8L351.0,133.7L352.5,133.5L354.1,133.3L355.6,133.2L357.1,133.0L358.7,132.8L360.2,132.6L361.7,132.4L363.2,132.2L364.8,132.0L366.3,131.9L367.7,131.7L369.3,131.5L370.8,131.3L372.3,131.1L373.8,130.9L375.4,130.7L376.9,130.5L378.4,130.3L380.0,130.1L381.5,129.9L383.0,129.7L384.5,129.5L386.0,129.3L387.5,129.2L389.0,129.0L390.6,128.8L392.1,128.6L393.6,128.5L395.2,128.3L396.7,128.2L398.2,128.0L399.7,127.9L401.3,127.7L402.8,127.6L404.2,127.4L405.8,127.3L407.3,127.2L408.8,127.0L410.3,126.9L411.9,126.8L413.4,126.7L414.9,126.6L416.5,126.5L418.0,126.3L419.5,126.2L421.0,126.2L422.5,126.1L424.1,126.0L425.6,125.9L427.1,125.8L428.6,125.7L430.2,125.6L431.7,125.6L433.2,125.5L434.8,125.4L436.3,125.4L437.8,125.3L439.3,125.2L440.8,125.2L442.3,125.1L443.8,125.1L445.4,125.1L446.9,125.0L448.4,125.0L450.0,124.9L451.5,124.9L453.0,124.9L454.5,124.9L456.1,124.8L457.6,124.8L459.0,124.8L460.6,124.8L462.1,124.8L463.6,124.8L465.1,124.8L466.7,124.8L468.2,124.8L469.7,124.8L471.3,124.8L472.8,124.8L474.3,124.8L475.8,124.8L477.3,124.9L478.8,124.9L480.3,124.9L481.9,124.9L483.4,125.0L484.9,125.0L486.5,125.0L488.0,125.1L489.5,125.1L491.0,125.1L492.6,125.2L494.1,125.2L495.6,125.3L497.1,125.3L498.6,125.3L500.2,125.4L501.7,125.4L503.2,125.4L504.8,125.5L506.3,125.5L507.8,125.5L509.3,125.6L510.9,125.6L512.4,125.6L513.8,125.6L515.4,125.6L516.9,125.6L518.4,125.6L519.9,125.6L521.5,125.6L523.0,125.6L524.5,125.6L526.1,125.6L527.6,125.5L529.1,125.5L530.6,125.5L532.1,125.4L533.6,125.3L535.1,125.3L536.7,125.2L538.2,125.1L539.7,125.0L541.3,124.9L542.8,124.8L544.3,124.7L545.8,124.6L547.4,124.5L548.9,124.4L550.3,124.2L551.9,124.1L553.4,123.9L554.9,123.8L556.4,123.6L558.0,123.5L559.5,123.3L561.0,123.1L562.6,122.9L564.1,122.7L564.1,142.0L562.6,141.7L561.0,141.4L559.5,141.1L558.0,140.8L556.4,140.6L554.9,140.3L553.4,140.1L551.9,139.8L550.3,139.6L548.9,139.4L547.4,139.2L545.8,139.0L544.3,138.8L542.8,138.6L541.3,138.4L539.7,138.2L538.2,138.0L536.7,137.8L535.1,137.7L533.6,137.5L532.1,137.4L530.6,137.2L529.1,137.1L527.6,137.0L526.1,136.8L524.5,136.7L523.0,136.6L521.5,136.5L519.9,136.4L518.4,136.3L516.9,136.2L515.4,136.1L513.8,136.0L512.4,135.9L510.9,135.8L509.3,135.7L507.8,135.6L506.3,135.5L504.8,135.4L503.2,135.4L501.7,135.3L500.2,135.2L498.6,135.1L497.1,135.1L495.6,135.0L494.1,134.9L492.6,134.9L491.0,134.8L489.5,134.7L488.0,134.7L486.5,134.6L484.9,134.5L483.4,134.5L481.9,134.4L480.3,134.4L478.8,134.3L477.3,134.3L475.8,134.3L474.3,134.2L472.8,134.2L471.3,134.2L469.7,134.1L468.2,134.1L466.7,134.1L465.1,134.1L463.6,134.0L462.1,134.0L460.6,134.0L459.0,134.0L457.6,134.0L456.1,134.0L454.5,134.0L453.0,134.0L451.5,134.1L450.0,134.1L448.4,134.1L446.9,134.1L445.4,134.2L443.8,134.2L442.3,134.2L440.8,134.3L439.3,134.3L437.8,134.4L436.3,134.4L434.8,134.5L433.2,134.5L431.7,134.6L430.2,134.7L428.6,134.8L427.1,134.8L425.6,134.9L424.1,135.0L422.5,135.1L421.0,135.2L419.5,135.3L418.0,135.4L416.5,135.5L414.9,135.6L413.4,135.8L411.9,135.9L410.3,136.0L408.8,136.2L407.3,136.3L405.8,136.4L404.2,136.6L402.8,136.7L401.3,136.9L399.7,137.1L398.2,137.2L396.7,137.4L395.2,137.6L393.6,137.8L392.1,137.9L390.6,138.1L389.0,138.3L387.5,138.5L386.0,138.7L384.5,138.9L383.0,139.1L381.5,139.3L380.0,139.5L378.4,139.7L376.9,139.9L375.4,140.1L373.8,140.3L372.3,140.5L370.8,140.7L369.3,140.9L367.7,141.1L366.3,141.3L364.8,141.5L363.2,141.7L361.7,141.9L360.2,142.0L358.7,142.2L357.1,142.4L355.6,142.6L354.1,142.7L352.5,142.9L351.0,143.0L349.5,143.2L348.0,143.3L346.5,143.5L344.9,143.6L343.4,143.7L341.9,143.8L340.4,143.9L338.8,144.0L337.3,144.1L335.8,144.2L334.2,144.3L332.7,144.3L331.2,144.4L329.7,144.4L328.2,144.5L326.7,144.5L325.2,144.5L323.6,144.6L322.1,144.6L320.6,144.6L319.0,144.6L317.5,144.6L316.0,144.5L314.5,144.5L312.9,144.5L311.5,144.4L310.0,144.4L308.4,144.3L306.9,144.3L305.4,144.2L303.9,144.2L302.3,144.1L300.8,144.0L299.3,143.9L297.7,143.8L296.2,143.7L294.7,143.6L293.2,143.5L291.7,143.4L290.2,143.2L288.7,143.1L287.1,143.0L285.6,142.8L284.1,142.7L282.5,142.5L281.0,142.3L279.5,142.2L278.0,142.0L276.4,141.8L274.9,141.6L273.4,141.4L271.9,141.2L270.4,141.0L268.8,140.7L267.3,140.5L265.8,140.3L264.2,140.0L262.7,139.8L261.2,139.5L259.7,139.3L258.1,139.0L256.7,138.7L255.2,138.4L253.6,138.2L252.1,137.9L250.6,137.6L249.1,137.3L247.5,137.0L246.0,136.7L244.5,136.4L242.9,136.1L241.4,135.8L239.9,135.5L238.4,135.2L236.9,134.8L235.4,134.5L233.9,134.2L232.3,133.9L230.8,133.6L229.3,133.3L227.7,133.0L226.2,132.7L224.7,132.4L223.2,132.0L221.6,131.7L220.2,131.4L218.7,131.1L217.1,130.8L215.6,130.5L214.1,130.3L212.6,130.0L211.0,129.7L209.5,129.4L208.0,129.1L206.4,128.8L204.9,128.6L203.4,128.3L201.9,128.0L200.4,127.8L198.8,127.5L197.3,127.3L195.8,127.0L194.3,126.8L192.7,126.6L191.2,126.3L189.7,126.1L188.1,125.9L186.6,125.7L185.1,125.5L183.6,125.3L182.1,125.1L180.6,124.9L179.1,124.7L177.5,124.5L176.0,124.3L174.5,124.1L172.9,123.9L171.4,123.8L169.9,123.6L168.4,123.4L166.8,123.2L165.4,123.1L163.9,122.9L162.3,122.7L160.8,122.6L159.3,122.4L157.8,122.3L156.2,122.1L154.7,121.9L153.2,121.8L151.6,121.6L150.1,121.5L148.6,121.3L147.1,121.1L145.6,121.0L144.1,120.8L142.6,120.7L141.0,120.6L139.5,120.4L138.0,120.3L136.4,120.1L134.9,120.0L133.4,119.9L131.9,119.8L130.3,119.6L128.8,119.5L127.3,119.4L125.8,119.3L124.3,119.2L122.7,119.1L121.2,119.0L119.7,118.9L118.1,118.9L116.6,118.8L115.1,118.7L113.6,118.7L112.0,118.6L110.6,118.6L109.1,118.5L107.5,118.5L106.0,118.5L104.5,118.5L103.0,118.4L101.4,118.4L99.9,118.4L98.4,118.5L96.8,118.5L95.3,118.5L93.8,118.5L92.3,118.6L90.8,118.6L89.3,118.7L87.8,118.7L86.2,118.8L84.7,118.9L83.2,119.0L81.7,119.1L80.1,119.2L78.6,119.3L77.1,119.4L75.5,119.5L74.1,119.7L72.6,119.8L71.0,119.9L69.5,120.1L68.0,120.2Z" fill="#ef4444" fill-opacity="0.15" stroke="none"/>
<polyline points="68.0,110.2 69.5,110.3 71.0,110.4 72.6,110.5 74.1,110.6 75.5,110.7 77.1,110.9 78.6,111.0 80.1,111.1 81.7,111.2 83.2,111.3 84.7,111.4 86.2,111.5 87.8,111.6 89.3,111.7 90.8,111.8 92.3,111.9 93.8,112.0 95.3,112.1 96.8,112.3 98.4,112.4 99.9,112.5 101.4,112.6 103.0,112.7 104.5,112.8 106.0,112.9 107.5,113.0 109.1,113.1 110.6,113.2 112.0,113.3 113.6,113.4 115.1,113.6 116.6,113.7 118.1,113.8 119.7,113.9 121.2,114.0 122.7,114.1 124.3,114.2 125.8,114.4 127.3,114.5 128.8,114.6 130.3,114.7 131.9,114.8 133.4,115.0 134.9,115.1 136.4,115.2 138.0,115.4 139.5,115.5 141.0,115.6 142.6,115.8 144.1,115.9 145.6,116.0 147.1,116.2 148.6,116.3 150.1,116.5 151.6,116.6 153.2,116.8 154.7,116.9 156.2,117.1 157.8,117.2 159.3,117.4 160.8,117.5 162.3,117.7 163.9,117.9 165.4,118.0 166.8,118.2 168.4,118.4 169.9,118.5 171.4,118.7 172.9,118.9 174.5,119.1 176.0,119.3 177.5,119.4 179.1,119.6 180.6,119.8 182.1,120.0 183.6,120.3 185.1,120.5 186.6,120.7 188.1,120.9 189.7,121.1 191.2,121.4 192.7,121.6 194.3,121.9 195.8,122.1 197.3,122.4 198.8,122.6 200.4,122.9 201.9,123.2 203.4,123.5 204.9,123.7 206.4,124.0 208.0,124.3 209.5,124.6 211.0,124.9 212.6,125.2 214.1,125.5 215.6,125.8 217.1,126.1 218.7,126.4 220.2,126.8 221.6,127.1 223.2,127.4 224.7,127.7 226.2,128.0 227.7,128.4 229.3,128.7 230.8,129.0 232.3,129.3 233.9,129.6 235.4,129.9 236.9,130.3 238.4,130.6 239.9,130.9 241.4,131.2 242.9,131.5 244.5,131.8 246.0,132.1 247.5,132.4 249.1,132.7 250.6,133.0 252.1,133.3 253.6,133.6 255.2,133.9 256.7,134.2 258.1,134.5 259.7,134.7 261.2,135.0 262.7,135.2 264.2,135.5 265.8,135.7 267.3,136.0 268.8,136.2 270.4,136.4 271.9,136.6 273.4,136.9 274.9,137.1 276.4,137.3 278.0,137.4 279.5,137.6 281.0,137.8 282.5,138.0 284.1,138.1 285.6,138.3 287.1,138.4 288.7,138.6 290.2,138.7 291.7,138.8 293.2,138.9 294.7,139.1 296.2,139.2 297.7,139.3 299.3,139.4 300.8,139.5 302.3,139.5 303.9,139.6 305.4,139.7 306.9,139.7 308.4,139.8 310.0,139.8 311.5,139.9 312.9,139.9 314.5,140.0 316.0,140.0 317.5,140.0 319.0,140.0 320.6,140.0 322.1,140.0 323.6,140.0 325.2,139.9 326.7,139.9 328.2,139.9 329.7,139.8 331.2,139.8 332.7,139.7 334.2,139.6 335.8,139.6 337.3,139.5 338.8,139.4 340.4,139.3 341.9,139.2 343.4,139.0 344.9,138.9 346.5,138.8 348.0,138.6 349.5,138.5 351.0,138.4 352.5,138.2 354.1,138.0 355.6,137.9 357.1,137.7 358.7,137.5 360.2,137.3 361.7,137.1 363.2,137.0 364.8,136.8 366.3,136.6 367.7,136.4 369.3,136.2 370.8,136.0 372.3,135.8 373.8,135.6 375.4,135.4 376.9,135.2 378.4,135.0 380.0,134.8 381.5,134.6 383.0,134.4 384.5,134.2 386.0,134.0 387.5,133.8 389.0,133.7 390.6,133.5 392.1,133.3 393.6,133.1 395.2,132.9 396.7,132.8 398.2,132.6 399.7,132.5 401.3,132.3 402.8,132.2 404.2,132.0 405.8,131.9 407.3,131.7 408.8,131.6 410.3,131.5 411.9,131.3 413.4,131.2 414.9,131.1 416.5,131.0 418.0,130.9 419.5,130.8 421.0,130.7 422.5,130.6 424.1,130.5 425.6,130.4 427.1,130.3 428.6,130.2 430.2,130.2 431.7,130.1 433.2,130.0 434.8,130.0 436.3,129.9 437.8,129.8 439.3,129.8 440.8,129.7 442.3,129.7 443.8,129.6 445.4,129.6 446.9,129.6 448.4,129.5 450.0,129.5 451.5,129.5 453.0,129.5 454.5,129.4 456.1,129.4 457.6,129.4 459.0,129.4 460.6,129.4 462.1,129.4 463.6,129.4 465.1,129.4 466.7,129.4 468.2,129.4 469.7,129.5 471.3,129.5 472.8,129.5 474.3,129.5 475.8,129.5 477.3,129.6 478.8,129.6 480.3,129.6 481.9,129.7 483.4,129.7 484.9,129.8 486.5,129.8 488.0,129.9 489.5,129.9 491.0,130.0 492.6,130.0 494.1,130.1 495.6,130.1 497.1,130.2 498.6,130.2 500.2,130.3 501.7,130.4 503.2,130.4 504.8,130.5 506.3,130.5 507.8,130.6 509.3,130.6 510.9,130.7 512.4,130.7 513.8,130.8 515.4,130.9 516.9,130.9 518.4,131.0 519.9,131.0 521.5,131.1 523.0,131.1 524.5,131.2 526.1,131.2 527.6,131.3 529.1,131.3 530.6,131.3 532.1,131.4 533.6,131.4 535.1,131.5 536.7,131.5 538.2,131.6 539.7,131.6 541.3,131.7 542.8,131.7 544.3,131.7 545.8,131.8 547.4,131.8 548.9,131.9 550.3,131.9 551.9,132.0 553.4,132.0 554.9,132.1 556.4,132.1 558.0,132.2 559.5,132.2 561.0,132.2 562.6,132.3 564.1,132.3" fill="none" stroke="#dc2626" stroke-width="2" stroke-dasharray="6 3"/>
<path d="M565.6,122.5L567.1,122.3L568.6,122.1L570.2,121.9L571.7,121.6L573.2,121.4L574.7,121.2L576.3,120.9L577.8,120.7L579.3,120.4L580.8,120.2L582.3,119.9L583.9,119.7L585.4,119.4L586.9,119.1L588.4,118.8L589.9,118.6L591.5,118.3L593.0,118.0L594.5,117.7L596.0,117.4L597.6,117.1L599.1,116.8L600.6,116.5L602.1,116.2L603.6,115.9L605.2,115.5L606.7,115.2L608.2,114.9L609.7,114.5L611.3,114.2L612.8,113.9L614.3,113.5L615.8,113.2L617.3,112.8L618.9,112.5L620.4,112.1L621.9,111.8L623.4,111.4L624.9,111.1L626.5,110.7L628.0,110.3L629.5,110.0L631.0,109.6L632.6,109.2L634.1,108.8L635.6,108.4L637.1,108.0L638.6,107.7L640.2,107.3L641.7,106.9L643.2,106.5L644.7,106.1L646.3,105.7L647.8,105.3L649.3,104.9L650.8,104.4L652.3,104.0L653.9,103.6L655.4,103.2L656.9,102.8L658.4,102.4L659.9,101.9L661.5,101.5L663.0,101.1L664.5,100.6L666.0,100.2L667.6,99.8L669.1,99.3L670.6,98.9L672.1,98.4L673.6,98.0L675.2,97.5L676.7,97.1L678.2,96.6L679.7,96.2L681.3,95.7L682.8,95.2L684.3,94.8L685.8,94.3L687.3,93.9L688.9,93.4L690.4,92.9L691.9,92.4L693.4,92.0L695.0,91.5L696.5,91.0L698.0,90.5L699.5,90.0L701.0,89.5L702.6,89.0L704.1,88.5L705.6,88.1L707.1,87.6L708.6,87.1L710.2,86.6L711.7,86.1L713.2,85.5L714.7,85.0L716.3,84.5L717.8,84.0L719.3,83.5L720.8,83.0L722.3,82.5L723.9,82.0L725.4,81.4L726.9,80.9L728.4,80.4L730.0,79.9L731.5,79.3L733.0,78.8L734.5,78.3L736.0,77.7L737.6,77.2L739.1,76.6L740.6,76.1L742.1,75.6L743.6,75.0L745.2,74.5L746.7,73.9L748.2,73.4L749.7,72.8L751.3,72.3L752.8,71.7L754.3,71.1L755.8,70.6L757.3,70.0L758.9,69.5L760.4,68.9L761.9,68.3L763.4,67.7L765.0,67.2L766.5,66.6L768.0,66.0L769.5,65.5L771.0,64.9L772.6,64.3L774.1,63.7L775.6,63.1L777.1,62.5L778.6,61.9L780.2,61.4L781.7,60.8L783.2,60.2L784.7,59.6L786.3,59.0L787.8,58.4L789.3,57.8L790.8,57.2L792.3,56.6L793.9,56.0L795.4,55.4L796.9,54.8L798.4,54.1L800.0,53.5L801.5,52.9L803.0,52.3L804.5,51.7L806.0,51.1L807.6,50.4L809.1,49.8L810.6,49.2L812.1,48.6L813.7,47.9L815.2,47.3L816.7,46.7L818.2,46.0L819.7,45.4L821.3,44.8L822.8,44.1L824.3,43.5L825.8,42.9L827.3,42.2L828.9,41.6L830.4,40.9L831.9,40.3L833.4,39.6L835.0,39.0L836.5,38.3L838.0,37.7L838.0,243.4L836.5,242.7L835.0,241.9L833.4,241.2L831.9,240.4L830.4,239.7L828.9,239.0L827.3,238.2L825.8,237.5L824.3,236.7L822.8,236.0L821.3,235.3L819.7,234.6L818.2,233.8L816.7,233.1L815.2,232.4L813.7,231.7L812.1,231.0L810.6,230.2L809.1,229.5L807.6,228.8L806.0,228.1L804.5,227.4L803.0,226.7L801.5,226.0L800.0,225.3L798.4,224.6L796.9,223.9L795.4,223.2L793.9,222.5L792.3,221.8L790.8,221.1L789.3,220.4L787.8,219.7L786.3,219.0L784.7,218.3L783.2,217.6L781.7,216.9L780.2,216.2L778.6,215.6L777.1,214.9L775.6,214.2L774.1,213.5L772.6,212.9L771.0,212.2L769.5,211.5L768.0,210.8L766.5,210.2L765.0,209.5L763.4,208.9L761.9,208.2L760.4,207.5L758.9,206.9L757.3,206.2L755.8,205.6L754.3,204.9L752.8,204.3L751.3,203.6L749.7,203.0L748.2,202.3L746.7,201.7L745.2,201.0L743.6,200.4L742.1,199.8L740.6,199.1L739.1,198.5L737.6,197.9L736.0,197.2L734.5,196.6L733.0,196.0L731.5,195.4L730.0,194.7L728.4,194.1L726.9,193.5L725.4,192.9L723.9,192.3L722.3,191.7L720.8,191.1L719.3,190.5L717.8,189.9L716.3,189.2L714.7,188.6L713.2,188.0L711.7,187.5L710.2,186.9L708.6,186.3L707.1,185.7L705.6,185.1L704.1,184.5L702.6,183.9L701.0,183.3L699.5,182.8L698.0,182.2L696.5,181.6L695.0,181.0L693.4,180.5L691.9,179.9L690.4,179.3L688.9,178.8L687.3,178.2L685.8,177.6L684.3,177.1L682.8,176.5L681.3,176.0L679.7,175.4L678.2,174.9L676.7,174.3L675.2,173.8L673.6,173.2L672.1,172.7L670.6,172.2L669.1,171.6L667.6,171.1L666.0,170.6L664.5,170.0L663.0,169.5L661.5,169.0L659.9,168.5L658.4,168.0L656.9,167.4L655.4,166.9L653.9,166.4L652.3,165.9L650.8,165.4L649.3,164.9L647.8,164.4L646.3,163.9L644.7,163.4L643.2,162.9L641.7,162.4L640.2,162.0L638.6,161.5L637.1,161.0L635.6,160.5L634.1,160.0L632.6,159.6L631.0,159.1L629.5,158.6L628.0,158.2L626.5,157.7L624.9,157.3L623.4,156.8L621.9,156.3L620.4,155.9L618.9,155.5L617.3,155.0L615.8,154.6L614.3,154.1L612.8,153.7L611.3,153.3L609.7,152.9L608.2,152.4L606.7,152.0L605.2,151.6L603.6,151.2L602.1,150.8L600.6,150.4L599.1,150.0L597.6,149.6L596.0,149.2L594.5,148.8L593.0,148.4L591.5,148.0L589.9,147.6L588.4,147.3L586.9,146.9L585.4,146.5L583.9,146.2L582.3,145.8L580.8,145.5L579.3,145.1L577.8,144.8L576.3,144.5L574.7,144.1L573.2,143.8L571.7,143.5L570.2,143.2L568.6,142.8L567.1,142.5L565.6,142.2Z" fill="#22c55e" fill-opacity="0.18" stroke="none"/>
<polyline points="565.6,132.4 567.1,132.4 568.6,132.5 570.2,132.5 571.7,132.6 573.2,132.6 574.7,132.7 576.3,132.7 577.8,132.7 579.3,132.8 580.8,132.8 582.3,132.9 583.9,132.9 585.4,133.0 586.9,133.0 588.4,133.1 589.9,133.1 591.5,133.2 593.0,133.2 594.5,133.2 596.0,133.3 597.6,133.3 599.1,133.4 600.6,133.4 602.1,133.5 603.6,133.5 605.2,133.6 606.7,133.6 608.2,133.7 609.7,133.7 611.3,133.7 612.8,133.8 614.3,133.8 615.8,133.9 617.3,133.9 618.9,134.0 620.4,134.0 621.9,134.1 623.4,134.1 624.9,134.2 626.5,134.2 628.0,134.2 629.5,134.3 631.0,134.3 632.6,134.4 634.1,134.4 635.6,134.5 637.1,134.5 638.6,134.6 640.2,134.6 641.7,134.7 643.2,134.7 644.7,134.7 646.3,134.8 647.8,134.8 649.3,134.9 650.8,134.9 652.3,135.0 653.9,135.0 655.4,135.1 656.9,135.1 658.4,135.2 659.9,135.2 661.5,135.2 663.0,135.3 664.5,135.3 666.0,135.4 667.6,135.4 669.1,135.5 670.6,135.5 672.1,135.6 673.6,135.6 675.2,135.7 676.7,135.7 678.2,135.7 679.7,135.8 681.3,135.8 682.8,135.9 684.3,135.9 685.8,136.0 687.3,136.0 688.9,136.1 690.4,136.1 691.9,136.2 693.4,136.2 695.0,136.3 696.5,136.3 698.0,136.3 699.5,136.4 701.0,136.4 702.6,136.5 704.1,136.5 705.6,136.6 707.1,136.6 708.6,136.7 710.2,136.7 711.7,136.8 713.2,136.8 714.7,136.8 716.3,136.9 717.8,136.9 719.3,137.0 720.8,137.0 722.3,137.1 723.9,137.1 725.4,137.2 726.9,137.2 728.4,137.3 730.0,137.3 731.5,137.3 733.0,137.4 734.5,137.4 736.0,137.5 737.6,137.5 739.1,137.6 740.6,137.6 742.1,137.7 743.6,137.7 745.2,137.8 746.7,137.8 748.2,137.8 749.7,137.9 751.3,137.9 752.8,138.0 754.3,138.0 755.8,138.1 757.3,138.1 758.9,138.2 760.4,138.2 761.9,138.3 763.4,138.3 765.0,138.3 766.5,138.4 768.0,138.4 769.5,138.5 771.0,138.5 772.6,138.6 774.1,138.6 775.6,138.7 777.1,138.7 778.6,138.8 780.2,138.8 781.7,138.8 783.2,138.9 784.7,138.9 786.3,139.0 787.8,139.0 789.3,139.1 790.8,139.1 792.3,139.2 793.9,139.2 795.4,139.3 796.9,139.3 798.4,139.3 800.0,139.4 801.5,139.4 803.0,139.5 804.5,139.5 806.0,139.6 807.6,139.6 809.1,139.7 810.6,139.7 812.1,139.8 813.7,139.8 815.2,139.9 816.7,139.9 818.2,139.9 819.7,140.0 821.3,140.0 822.8,140.1 824.3,140.1 825.8,140.2 827.3,140.2 828.9,140.3 830.4,140.3 831.9,140.4 833.4,140.4 835.0,140.4 836.5,140.5 838.0,140.5" fill="none" stroke="#16a34a" stroke-width="2" stroke-dasharray="5 3"/>
<line x1="564.1" y1="30" x2="564.1" y2="260" stroke="#6b7280" stroke-width="1" stroke-dasharray="3 2"/>
<text x="564.14" y="43" fill="#374151" font-size="10">2012.0 →</text>
<line x1="63" y1="214.0" x2="68" y2="214.0" stroke="#333" stroke-width="1.5"/>
<text x="60" y="214.0" text-anchor="end" dominant-baseline="middle" fill="#333">6.0</text>
<line x1="63" y1="137.3" x2="68" y2="137.3" stroke="#333" stroke-width="1.5"/>
<text x="60" y="137.3" text-anchor="end" dominant-baseline="middle" fill="#333">7.0</text>
<line x1="63" y1="60.7" x2="68" y2="60.7" stroke="#333" stroke-width="1.5"/>
<text x="60" y="60.7" text-anchor="end" dominant-baseline="middle" fill="#333">8.0</text>
<line x1="90.1" y1="260" x2="90.1" y2="265" stroke="#333" stroke-width="1.5"/>
<text x="90.1" y="278" text-anchor="middle" fill="#333">1986</text>
<line x1="126.6" y1="260" x2="126.6" y2="265" stroke="#333" stroke-width="1.5"/>
<text x="126.6" y="278" text-anchor="middle" fill="#333">1988</text>
<line x1="163.1" y1="260" x2="163.1" y2="265" stroke="#333" stroke-width="1.5"/>
<text x="163.1" y="278" text-anchor="middle" fill="#333">1990</text>
<line x1="199.6" y1="260" x2="199.6" y2="265" stroke="#333" stroke-width="1.5"/>
<text x="199.6" y="278" text-anchor="middle" fill="#333">1992</text>
<line x1="236.2" y1="260" x2="236.2" y2="265" stroke="#333" stroke-width="1.5"/>
<text x="236.2" y="278" text-anchor="middle" fill="#333">1994</text>
<line x1="272.7" y1="260" x2="272.7" y2="265" stroke="#333" stroke-width="1.5"/>
<text x="272.7" y="278" text-anchor="middle" fill="#333">1996</text>
<line x1="309.2" y1="260" x2="309.2" y2="265" stroke="#333" stroke-width="1.5"/>
<text x="309.2" y="278" text-anchor="middle" fill="#333">1998</text>
<line x1="345.7" y1="260" x2="345.7" y2="265" stroke="#333" stroke-width="1.5"/>
<text x="345.7" y="278" text-anchor="middle" fill="#333">2000</text>
<line x1="382.2" y1="260" x2="382.2" y2="265" stroke="#333" stroke-width="1.5"/>
<text x="382.2" y="278" text-anchor="middle" fill="#333">2002</text>
<line x1="418.8" y1="260" x2="418.8" y2="265" stroke="#333" stroke-width="1.5"/>
<text x="418.8" y="278" text-anchor="middle" fill="#333">2004</text>
<line x1="455.3" y1="260" x2="455.3" y2="265" stroke="#333" stroke-width="1.5"/>
<text x="455.3" y="278" text-anchor="middle" fill="#333">2006</text>
<line x1="491.8" y1="260" x2="491.8" y2="265" stroke="#333" stroke-width="1.5"/>
<text x="491.8" y="278" text-anchor="middle" fill="#333">2008</text>
<line x1="528.3" y1="260" x2="528.3" y2="265" stroke="#333" stroke-width="1.5"/>
<text x="528.3" y="278" text-anchor="middle" fill="#333">2010</text>
<line x1="564.9" y1="260" x2="564.9" y2="265" stroke="#333" stroke-width="1.5"/>
<text x="564.9" y="278" text-anchor="middle" fill="#333">2012</text>
<line x1="601.4" y1="260" x2="601.4" y2="265" stroke="#333" stroke-width="1.5"/>
<text x="601.4" y="278" text-anchor="middle" fill="#333">2014</text>
<line x1="637.9" y1="260" x2="637.9" y2="265" stroke="#333" stroke-width="1.5"/>
<text x="637.9" y="278" text-anchor="middle" fill="#333">2016</text>
<line x1="674.4" y1="260" x2="674.4" y2="265" stroke="#333" stroke-width="1.5"/>
<text x="674.4" y="278" text-anchor="middle" fill="#333">2018</text>
<line x1="711.0" y1="260" x2="711.0" y2="265" stroke="#333" stroke-width="1.5"/>
<text x="711.0" y="278" text-anchor="middle" fill="#333">2020</text>
<line x1="747.5" y1="260" x2="747.5" y2="265" stroke="#333" stroke-width="1.5"/>
<text x="747.5" y="278" text-anchor="middle" fill="#333">2022</text>
<line x1="784.0" y1="260" x2="784.0" y2="265" stroke="#333" stroke-width="1.5"/>
<text x="784.0" y="278" text-anchor="middle" fill="#333">2024</text>
<line x1="820.5" y1="260" x2="820.5" y2="265" stroke="#333" stroke-width="1.5"/>
<text x="820.5" y="278" text-anchor="middle" fill="#333">2026</text>
<line x1="68" y1="30" x2="68" y2="260" stroke="#333" stroke-width="1.5"/>
<line x1="68" y1="260" x2="838" y2="260" stroke="#333" stroke-width="1.5"/>
<text transform="rotate(-90)" x="-145" y="16" text-anchor="middle" fill="#374151" font-size="11">O₃ density [×10¹⁰ cm⁻³]</text>
<line x1="558" y1="44" x2="580" y2="44" stroke="#9ca3af" stroke-width="1"/>
<text x="585" y="48" fill="#374151" font-size="11">Observations (SAGE II / GOMOS)</text>
<line x1="558" y1="59" x2="580" y2="59" stroke="#2563eb" stroke-width="2.2"/>
<text x="585" y="63" fill="#374151" font-size="11">dlm-js smoothed level ±2σ</text>
<line x1="558" y1="74" x2="580" y2="74" stroke="#dc2626" stroke-width="1.8" stroke-dasharray="5 3"/>
<text x="585" y="78" fill="#374151" font-size="11">MATLAB/Octave reference ±2σ</text>
<line x1="558" y1="89" x2="580" y2="89" stroke="#16a34a" stroke-width="1.8" stroke-dasharray="5 3"/>
<text x="585" y="93" fill="#374151" font-size="11">36-month trend forecast ±2σ (level state)</text>
<text x="453" y="20" text-anchor="middle" fill="#374151" font-size="13" font-weight="bold">Stratospheric ozone (45–55 km, 40°N–50°N): trend extraction + forecast</text>
<line x1="68" y1="528.0" x2="838" y2="528.0" stroke="#e5e7eb" stroke-width="1"/>
<line x1="68" y1="413.0" x2="838" y2="413.0" stroke="#e5e7eb" stroke-width="1"/>
<line x1="68" y1="298.0" x2="838" y2="298.0" stroke="#e5e7eb" stroke-width="1"/>
<line x1="68" y1="413.0" x2="838" y2="413.0" stroke="#6b7280" stroke-width="0.8" stroke-dasharray="2 2"/>
<polyline points="68.0,412.8 69.5,412.7 71.0,412.7 72.6,412.8 74.1,412.7 75.5,412.7 77.1,412.7 78.6,412.8 80.1,412.8 81.7,412.7 83.2,412.7 84.7,412.7 86.2,412.7 87.8,412.8 89.3,412.8 90.8,412.8 92.3,412.8 93.8,412.7 95.3,412.7 96.8,412.7 98.4,412.7 99.9,412.7 101.4,412.7 103.0,412.7 104.5,412.8 106.0,412.8 107.5,412.7 109.1,412.7 110.6,412.7 112.0,412.7 113.6,412.9 115.1,412.9 116.6,412.8 118.1,412.8 119.7,412.9 121.2,412.8 122.7,413.0 124.3,412.9 125.8,412.9 127.3,413.0 128.8,412.9 130.3,413.0 131.9,413.2 133.4,412.9 134.9,413.0 136.4,413.2 138.0,413.1 139.5,413.1 141.0,413.3 142.6,413.4 144.1,413.8 145.6,414.0 147.1,413.8 148.6,413.8 150.1,413.5 151.6,413.4 153.2,414.2 154.7,413.4 156.2,413.8 157.8,413.7 159.3,413.7 160.8,413.6 162.3,413.4 163.9,413.5 165.4,413.2 166.8,413.4 168.4,413.7 169.9,413.8 171.4,413.4 172.9,413.2 174.5,413.6 176.0,413.5 177.5,413.6 179.1,413.6 180.6,413.5 182.1,413.5 183.6,413.5 185.1,413.8 186.6,413.9 188.1,413.4 189.7,413.4 191.2,413.3 192.7,413.9 194.3,413.3 195.8,413.4 197.3,413.3 198.8,413.6 200.4,413.3 201.9,413.5 203.4,413.3 204.9,413.2 206.4,413.0 208.0,413.0 209.5,413.2 211.0,413.1 212.6,413.1 214.1,412.9 215.6,413.1 217.1,413.2 218.7,413.1 220.2,413.1 221.6,413.0 223.2,412.8 224.7,412.9 226.2,412.8 227.7,412.9 229.3,412.8 230.8,412.8 232.3,412.8 233.9,412.9 235.4,412.8 236.9,412.9 238.4,412.9 239.9,412.8 241.4,412.8 242.9,412.9 244.5,412.8 246.0,412.8 247.5,412.8 249.1,412.7 250.6,412.8 252.1,412.8 253.6,412.8 255.2,412.8 256.7,412.8 258.1,412.8 259.7,412.8 261.2,412.9 262.7,412.7 264.2,412.7 265.8,412.7 267.3,412.7 268.8,412.8 270.4,412.7 271.9,412.7 273.4,412.7 274.9,412.7 276.4,412.7 278.0,412.7 279.5,412.7 281.0,412.7 282.5,412.7 284.1,412.7 285.6,412.7 287.1,412.7 288.7,412.7 290.2,412.8 291.7,412.7 293.2,412.7 294.7,412.7 296.2,412.7 297.7,412.7 299.3,412.7 300.8,412.7 302.3,412.8 303.9,412.9 305.4,412.8 306.9,412.9 308.4,412.8 310.0,412.9 311.5,412.9 312.9,413.0 314.5,412.9 316.0,413.0 317.5,412.9 319.0,412.9 320.6,413.1 322.1,413.0 323.6,413.1 325.2,413.0 326.7,413.2 328.2,413.3 329.7,413.4 331.2,413.2 332.7,413.0 334.2,413.2 335.8,413.2 337.3,413.1 338.8,413.1 340.4,413.2 341.9,413.4 343.4,413.7 344.9,413.5 346.5,413.5 348.0,413.2 349.5,413.4 351.0,413.3 352.5,413.9 354.1,413.5 355.6,413.6 357.1,413.4 358.7,413.3 360.2,413.2 361.7,413.2 363.2,413.5 364.8,413.2 366.3,413.1 367.7,413.1 369.3,413.0 370.8,413.2 372.3,413.6 373.8,413.2 375.4,413.2 376.9,413.5 378.4,413.6 380.0,413.5 381.5,413.5 383.0,413.6 384.5,413.5 386.0,413.4 387.5,413.5 389.0,413.2 390.6,413.1 392.1,413.4 393.6,413.6 395.2,413.4 396.7,413.4 398.2,413.5 399.7,413.6 401.3,413.2 402.8,413.0 404.2,413.1 405.8,412.9 407.3,412.9 408.8,413.0 410.3,413.1 411.9,413.0 413.4,412.9 414.9,412.9 416.5,412.9 418.0,413.0 419.5,413.0 421.0,412.9 422.5,413.0 424.1,412.9 425.6,413.0 427.1,413.0 428.6,413.2 430.2,413.1 431.7,412.9 433.2,412.8 434.8,412.9 436.3,412.8 437.8,413.1 439.3,413.0 440.8,412.9 442.3,412.8 443.8,412.9 445.4,412.9 446.9,412.7 448.4,412.7 450.0,413.0 451.5,412.8 453.0,412.9 454.5,412.8 456.1,412.8 457.6,412.8 459.0,412.7 460.6,412.7 462.1,412.7 463.6,412.7 465.1,412.7 466.7,412.9 468.2,412.8 469.7,412.7 471.3,412.9 472.8,412.8 474.3,412.8 475.8,412.7 477.3,412.7 478.8,412.7 480.3,412.8 481.9,412.7 483.4,412.7 484.9,412.7 486.5,412.7 488.0,412.7 489.5,412.7 491.0,412.8 492.6,412.7 494.1,412.7 495.6,412.7 497.1,412.7 498.6,412.7 500.2,412.7 501.7,412.7 503.2,412.7 504.8,412.7 506.3,412.7 507.8,412.7 509.3,412.7 510.9,412.7 512.4,412.7 513.8,412.7 515.4,412.7 516.9,412.7 518.4,412.7 519.9,412.7 521.5,412.7 523.0,412.7 524.5,412.7 526.1,412.7 527.6,412.8 529.1,412.8 530.6,412.8 532.1,412.8 533.6,412.7 535.1,412.7 536.7,412.7 538.2,412.8 539.7,412.8 541.3,412.8 542.8,412.8 544.3,412.8 545.8,412.8 547.4,412.8 548.9,413.0 550.3,412.9 551.9,413.0 553.4,412.8 554.9,412.9 556.4,412.9 558.0,412.9 559.5,413.2 561.0,413.2 562.6,413.2 564.1,413.0" fill="none" stroke="#f59e0b" stroke-width="1.8"/>
<polyline points="68.0,468.4 69.5,458.7 71.0,447.0 72.6,435.9 74.1,428.7 75.5,420.6 77.1,401.1 78.6,386.8 80.1,384.2 81.7,387.8 83.2,385.8 84.7,382.5 86.2,377.7 87.8,378.5 89.3,384.1 90.8,387.1 92.3,385.2 93.8,377.2 95.3,377.4 96.8,380.1 98.4,387.7 99.9,404.9 101.4,416.1 103.0,416.2 104.5,409.3 106.0,411.2 107.5,418.3 109.1,417.7 110.6,420.3 112.0,426.9 113.6,433.7 115.1,447.4 116.6,458.4 118.1,465.6 119.7,452.3 121.2,431.2 122.7,407.8 124.3,393.5 125.8,394.6 127.3,394.0 128.8,394.4 130.3,396.0 131.9,389.3 133.4,385.3 134.9,388.9 136.4,398.8 138.0,402.1 139.5,399.9 141.0,397.9 142.6,396.9 144.1,402.4 145.6,402.0 147.1,406.7 148.6,404.1 150.1,395.0 151.6,401.5 153.2,416.8 154.7,432.3 156.2,440.5 157.8,446.4 159.3,450.1 160.8,448.6 162.3,446.1 163.9,440.6 165.4,438.4 166.8,432.7 168.4,424.9 169.9,405.4 171.4,393.2 172.9,387.7 174.5,384.4 176.0,384.1 177.5,378.9 179.1,375.2 180.6,376.4 182.1,383.9 183.6,387.4 185.1,384.9 186.6,381.8 188.1,385.4 189.7,400.6 191.2,419.5 192.7,431.6 194.3,428.1 195.8,422.2 197.3,422.3 198.8,425.5 200.4,426.7 201.9,426.3 203.4,432.1 204.9,434.3 206.4,437.2 208.0,450.3 209.5,460.5 211.0,457.9 212.6,445.5 214.1,432.9 215.6,423.6 217.1,409.0 218.7,393.2 220.2,390.0 221.6,388.6 223.2,378.7 224.7,368.9 226.2,377.4 227.7,391.2 229.3,399.3 230.8,397.2 232.3,399.6 233.9,403.3 235.4,406.3 236.9,410.6 238.4,415.6 239.9,415.1 241.4,420.7 242.9,434.1 244.5,460.0 246.0,478.5 247.5,481.6 249.1,478.9 250.6,462.8 252.1,438.9 253.6,418.3 255.2,405.2 256.7,400.5 258.1,396.1 259.7,385.8 261.2,375.3 262.7,372.9 264.2,376.7 265.8,381.7 267.3,389.4 268.8,390.9 270.4,397.1 271.9,405.8 273.4,407.0 274.9,407.3 276.4,411.6 278.0,409.3 279.5,424.0 281.0,441.3 282.5,460.5 284.1,468.7 285.6,468.6 287.1,466.4 288.7,459.6 290.2,446.2 291.7,439.5 293.2,429.7 294.7,427.1 296.2,408.6 297.7,389.9 299.3,378.3 300.8,374.5 302.3,378.8 303.9,375.4 305.4,376.9 306.9,378.9 308.4,386.0 310.0,394.8 311.5,400.3 312.9,402.3 314.5,401.8 316.0,421.1 317.5,448.4 319.0,465.4 320.6,469.8 322.1,469.4 323.6,467.3 325.2,452.5 326.7,436.6 328.2,422.5 329.7,418.5 331.2,407.8 332.7,393.6 334.2,378.9 335.8,373.9 337.3,376.4 338.8,380.7 340.4,380.5 341.9,379.6 343.4,382.8 344.9,382.4 346.5,384.6 348.0,386.3 349.5,381.5 351.0,372.9 352.5,373.5 354.1,394.6 355.6,414.4 357.1,421.1 358.7,421.4 360.2,418.5 361.7,422.2 363.2,422.5 364.8,426.9 366.3,428.0 367.7,428.7 369.3,423.9 370.8,429.4 372.3,446.0 373.8,461.2 375.4,473.6 376.9,467.3 378.4,458.4 380.0,448.7 381.5,436.2 383.0,423.9 384.5,414.9 386.0,402.3 387.5,382.5 389.0,372.5 390.6,373.3 392.1,382.5 393.6,380.3 395.2,379.8 396.7,380.0 398.2,383.4 399.7,392.9 401.3,396.9 402.8,395.4 404.2,397.7 405.8,405.2 407.3,417.7 408.8,430.4 410.3,445.0 411.9,452.0 413.4,453.3 414.9,451.7 416.5,453.2 418.0,446.5 419.5,435.5 421.0,424.5 422.5,418.0 424.1,399.4 425.6,383.9 427.1,379.4 428.6,380.0 430.2,380.6 431.7,386.7 433.2,380.7 434.8,382.9 436.3,385.3 437.8,391.9 439.3,392.4 440.8,388.3 442.3,395.7 443.8,412.7 445.4,432.9 446.9,452.8 448.4,460.2 450.0,465.1 451.5,468.4 453.0,468.5 454.5,466.3 456.1,464.3 457.6,456.3 459.0,442.6 460.6,432.5 462.1,414.0 463.6,395.8 465.1,388.0 466.7,387.5 468.2,376.9 469.7,372.5 471.3,371.1 472.8,378.0 474.3,386.8 475.8,386.9 477.3,384.2 478.8,389.2 480.3,404.5 481.9,431.9 483.4,455.4 484.9,465.3 486.5,465.8 488.0,466.3 489.5,468.3 491.0,467.4 492.6,465.3 494.1,453.4 495.6,439.7 497.1,427.0 498.6,408.0 500.2,387.9 501.7,379.0 503.2,380.9 504.8,382.6 506.3,381.1 507.8,383.3 509.3,379.9 510.9,377.9 512.4,377.3 513.8,381.1 515.4,374.6 516.9,375.2 518.4,386.9 519.9,406.9 521.5,411.6 523.0,408.6 524.5,405.0 526.1,409.5 527.6,416.8 529.1,416.4 530.6,419.9 532.1,426.2 533.6,447.8 535.1,468.7 536.7,482.2 538.2,473.5 539.7,447.7 541.3,419.1 542.8,390.4 544.3,376.3 545.8,377.7 547.4,386.2 548.9,385.6 550.3,384.4 551.9,384.3 553.4,378.7 554.9,379.5 556.4,381.7 558.0,383.0 559.5,381.2 561.0,378.0 562.6,391.3 564.1,414.6" fill="none" stroke="#8b5cf6" stroke-width="1.8"/>
<polyline points="68.0,412.8 69.5,412.7 71.0,412.7 72.6,412.8 74.1,412.7 75.5,412.7 77.1,412.7 78.6,412.8 80.1,412.8 81.7,412.7 83.2,412.7 84.7,412.7 86.2,412.7 87.8,412.8 89.3,412.8 90.8,412.8 92.3,412.8 93.8,412.7 95.3,412.7 96.8,412.7 98.4,412.7 99.9,412.7 101.4,412.7 103.0,412.7 104.5,412.8 106.0,412.8 107.5,412.7 109.1,412.7 110.6,412.7 112.0,412.7 113.6,412.9 115.1,412.9 116.6,412.8 118.1,412.8 119.7,412.9 121.2,412.8 122.7,413.0 124.3,412.9 125.8,412.9 127.3,413.0 128.8,412.9 130.3,413.0 131.9,413.2 133.4,412.9 134.9,413.0 136.4,413.2 138.0,413.1 139.5,413.1 141.0,413.3 142.6,413.4 144.1,413.8 145.6,414.0 147.1,413.8 148.6,413.8 150.1,413.5 151.6,413.4 153.2,414.2 154.7,413.4 156.2,413.8 157.8,413.7 159.3,413.7 160.8,413.6 162.3,413.4 163.9,413.5 165.4,413.2 166.8,413.4 168.4,413.7 169.9,413.8 171.4,413.4 172.9,413.2 174.5,413.6 176.0,413.5 177.5,413.6 179.1,413.6 180.6,413.5 182.1,413.5 183.6,413.5 185.1,413.8 186.6,413.9 188.1,413.4 189.7,413.4 191.2,413.3 192.7,413.9 194.3,413.3 195.8,413.4 197.3,413.3 198.8,413.6 200.4,413.3 201.9,413.5 203.4,413.3 204.9,413.2 206.4,413.0 208.0,413.0 209.5,413.2 211.0,413.1 212.6,413.1 214.1,412.9 215.6,413.1 217.1,413.2 218.7,413.1 220.2,413.1 221.6,413.0 223.2,412.8 224.7,412.9 226.2,412.8 227.7,412.9 229.3,412.8 230.8,412.8 232.3,412.8 233.9,412.9 235.4,412.8 236.9,412.9 238.4,412.9 239.9,412.8 241.4,412.8 242.9,412.9 244.5,412.8 246.0,412.8 247.5,412.8 249.1,412.7 250.6,412.8 252.1,412.8 253.6,412.8 255.2,412.8 256.7,412.8 258.1,412.8 259.7,412.8 261.2,412.9 262.7,412.7 264.2,412.7 265.8,412.7 267.3,412.7 268.8,412.8 270.4,412.7 271.9,412.7 273.4,412.7 274.9,412.7 276.4,412.7 278.0,412.7 279.5,412.7 281.0,412.7 282.5,412.7 284.1,412.7 285.6,412.7 287.1,412.7 288.7,412.7 290.2,412.8 291.7,412.7 293.2,412.7 294.7,412.7 296.2,412.7 297.7,412.7 299.3,412.7 300.8,412.7 302.3,412.8 303.9,412.9 305.4,412.8 306.9,412.9 308.4,412.8 310.0,412.9 311.5,412.9 312.9,413.0 314.5,412.9 316.0,413.0 317.5,412.9 319.0,412.9 320.6,413.1 322.1,413.0 323.6,413.1 325.2,413.0 326.7,413.2 328.2,413.3 329.7,413.4 331.2,413.2 332.7,413.0 334.2,413.2 335.8,413.2 337.3,413.1 338.8,413.1 340.4,413.2 341.9,413.4 343.4,413.7 344.9,413.5 346.5,413.5 348.0,413.2 349.5,413.4 351.0,413.3 352.5,413.9 354.1,413.5 355.6,413.6 357.1,413.4 358.7,413.3 360.2,413.2 361.7,413.2 363.2,413.5 364.8,413.2 366.3,413.1 367.7,413.1 369.3,413.0 370.8,413.2 372.3,413.6 373.8,413.2 375.4,413.2 376.9,413.5 378.4,413.6 380.0,413.5 381.5,413.5 383.0,413.6 384.5,413.5 386.0,413.4 387.5,413.5 389.0,413.2 390.6,413.1 392.1,413.4 393.6,413.6 395.2,413.4 396.7,413.4 398.2,413.5 399.7,413.6 401.3,413.2 402.8,413.0 404.2,413.1 405.8,412.9 407.3,412.9 408.8,413.0 410.3,413.1 411.9,413.0 413.4,412.9 414.9,412.9 416.5,412.9 418.0,413.0 419.5,413.0 421.0,412.9 422.5,413.0 424.1,412.9 425.6,413.0 427.1,413.0 428.6,413.2 430.2,413.1 431.7,412.9 433.2,412.8 434.8,412.9 436.3,412.8 437.8,413.1 439.3,413.0 440.8,412.9 442.3,412.8 443.8,412.9 445.4,412.9 446.9,412.7 448.4,412.7 450.0,413.0 451.5,412.8 453.0,412.9 454.5,412.8 456.1,412.8 457.6,412.8 459.0,412.7 460.6,412.7 462.1,412.7 463.6,412.7 465.1,412.7 466.7,412.9 468.2,412.8 469.7,412.7 471.3,412.9 472.8,412.8 474.3,412.8 475.8,412.7 477.3,412.7 478.8,412.7 480.3,412.8 481.9,412.7 483.4,412.7 484.9,412.7 486.5,412.7 488.0,412.7 489.5,412.7 491.0,412.8 492.6,412.7 494.1,412.7 495.6,412.7 497.1,412.7 498.6,412.7 500.2,412.7 501.7,412.7 503.2,412.7 504.8,412.7 506.3,412.7 507.8,412.7 509.3,412.7 510.9,412.7 512.4,412.7 513.8,412.7 515.4,412.7 516.9,412.7 518.4,412.7 519.9,412.7 521.5,412.7 523.0,412.7 524.5,412.7 526.1,412.7 527.6,412.8 529.1,412.8 530.6,412.8 532.1,412.8 533.6,412.7 535.1,412.7 536.7,412.7 538.2,412.8 539.7,412.8 541.3,412.8 542.8,412.8 544.3,412.8 545.8,412.8 547.4,412.8 548.9,413.0 550.3,412.9 551.9,413.0 553.4,412.8 554.9,412.9 556.4,412.9 558.0,412.9 559.5,413.2 561.0,413.2 562.6,413.2 564.1,413.0" fill="none" stroke="#dc2626" stroke-width="2" stroke-dasharray="6 3"/>
<polyline points="68.0,468.4 69.5,458.7 71.0,447.0 72.6,435.9 74.1,428.7 75.5,420.6 77.1,401.1 78.6,386.8 80.1,384.2 81.7,387.8 83.2,385.8 84.7,382.5 86.2,377.7 87.8,378.5 89.3,384.1 90.8,387.1 92.3,385.2 93.8,377.2 95.3,377.4 96.8,380.1 98.4,387.7 99.9,404.9 101.4,416.1 103.0,416.2 104.5,409.3 106.0,411.2 107.5,418.3 109.1,417.7 110.6,420.3 112.0,426.9 113.6,433.7 115.1,447.4 116.6,458.4 118.1,465.6 119.7,452.3 121.2,431.2 122.7,407.8 124.3,393.5 125.8,394.6 127.3,394.0 128.8,394.4 130.3,396.0 131.9,389.3 133.4,385.3 134.9,388.9 136.4,398.8 138.0,402.1 139.5,399.9 141.0,397.9 142.6,396.9 144.1,402.4 145.6,402.0 147.1,406.7 148.6,404.1 150.1,395.0 151.6,401.5 153.2,416.8 154.7,432.3 156.2,440.5 157.8,446.4 159.3,450.1 160.8,448.6 162.3,446.1 163.9,440.6 165.4,438.4 166.8,432.7 168.4,424.9 169.9,405.4 171.4,393.2 172.9,387.7 174.5,384.4 176.0,384.1 177.5,378.9 179.1,375.2 180.6,376.4 182.1,383.9 183.6,387.4 185.1,384.9 186.6,381.8 188.1,385.4 189.7,400.6 191.2,419.5 192.7,431.6 194.3,428.1 195.8,422.2 197.3,422.3 198.8,425.5 200.4,426.7 201.9,426.3 203.4,432.1 204.9,434.3 206.4,437.2 208.0,450.3 209.5,460.5 211.0,457.9 212.6,445.5 214.1,432.9 215.6,423.6 217.1,409.0 218.7,393.2 220.2,390.0 221.6,388.6 223.2,378.7 224.7,368.9 226.2,377.4 227.7,391.2 229.3,399.3 230.8,397.2 232.3,399.6 233.9,403.3 235.4,406.3 236.9,410.6 238.4,415.6 239.9,415.1 241.4,420.7 242.9,434.1 244.5,460.0 246.0,478.5 247.5,481.6 249.1,478.9 250.6,462.8 252.1,438.9 253.6,418.3 255.2,405.2 256.7,400.5 258.1,396.1 259.7,385.8 261.2,375.3 262.7,372.9 264.2,376.7 265.8,381.7 267.3,389.4 268.8,390.9 270.4,397.1 271.9,405.8 273.4,407.0 274.9,407.3 276.4,411.6 278.0,409.3 279.5,424.0 281.0,441.3 282.5,460.5 284.1,468.7 285.6,468.6 287.1,466.4 288.7,459.6 290.2,446.2 291.7,439.5 293.2,429.7 294.7,427.1 296.2,408.6 297.7,389.9 299.3,378.3 300.8,374.5 302.3,378.8 303.9,375.4 305.4,376.9 306.9,378.9 308.4,386.0 310.0,394.8 311.5,400.3 312.9,402.3 314.5,401.8 316.0,421.1 317.5,448.4 319.0,465.4 320.6,469.8 322.1,469.4 323.6,467.3 325.2,452.5 326.7,436.6 328.2,422.5 329.7,418.5 331.2,407.8 332.7,393.6 334.2,378.9 335.8,373.9 337.3,376.4 338.8,380.7 340.4,380.5 341.9,379.6 343.4,382.8 344.9,382.4 346.5,384.6 348.0,386.3 349.5,381.5 351.0,372.9 352.5,373.5 354.1,394.6 355.6,414.4 357.1,421.1 358.7,421.4 360.2,418.5 361.7,422.2 363.2,422.5 364.8,426.9 366.3,428.0 367.7,428.7 369.3,423.9 370.8,429.4 372.3,446.0 373.8,461.2 375.4,473.6 376.9,467.3 378.4,458.4 380.0,448.7 381.5,436.2 383.0,423.9 384.5,414.9 386.0,402.3 387.5,382.5 389.0,372.5 390.6,373.3 392.1,382.5 393.6,380.3 395.2,379.8 396.7,380.0 398.2,383.4 399.7,392.9 401.3,396.9 402.8,395.4 404.2,397.7 405.8,405.2 407.3,417.7 408.8,430.4 410.3,445.0 411.9,452.0 413.4,453.3 414.9,451.7 416.5,453.2 418.0,446.5 419.5,435.5 421.0,424.5 422.5,418.0 424.1,399.4 425.6,383.9 427.1,379.4 428.6,380.0 430.2,380.6 431.7,386.7 433.2,380.7 434.8,382.9 436.3,385.3 437.8,391.9 439.3,392.4 440.8,388.3 442.3,395.7 443.8,412.7 445.4,432.9 446.9,452.8 448.4,460.2 450.0,465.1 451.5,468.4 453.0,468.5 454.5,466.3 456.1,464.3 457.6,456.3 459.0,442.6 460.6,432.5 462.1,414.0 463.6,395.8 465.1,388.0 466.7,387.5 468.2,376.9 469.7,372.5 471.3,371.1 472.8,378.0 474.3,386.8 475.8,386.9 477.3,384.2 478.8,389.2 480.3,404.5 481.9,431.9 483.4,455.4 484.9,465.3 486.5,465.8 488.0,466.3 489.5,468.3 491.0,467.4 492.6,465.3 494.1,453.4 495.6,439.7 497.1,427.0 498.6,408.0 500.2,387.9 501.7,379.0 503.2,380.9 504.8,382.6 506.3,381.1 507.8,383.3 509.3,379.9 510.9,377.9 512.4,377.3 513.8,381.1 515.4,374.6 516.9,375.2 518.4,386.9 519.9,406.9 521.5,411.6 523.0,408.6 524.5,405.0 526.1,409.5 527.6,416.8 529.1,416.4 530.6,419.9 532.1,426.2 533.6,447.8 535.1,468.7 536.7,482.2 538.2,473.5 539.7,447.7 541.3,419.1 542.8,390.4 544.3,376.3 545.8,377.7 547.4,386.2 548.9,385.6 550.3,384.4 551.9,384.3 553.4,378.7 554.9,379.5 556.4,381.7 558.0,383.0 559.5,381.2 561.0,378.0 562.6,391.3 564.1,414.6" fill="none" stroke="#dc2626" stroke-width="2" stroke-dasharray="2 3"/>
<line x1="63" y1="528.0" x2="68" y2="528.0" stroke="#333" stroke-width="1.5"/>
<text x="60" y="528.0" text-anchor="end" dominant-baseline="middle" fill="#333">-1</text>
<line x1="63" y1="413.0" x2="68" y2="413.0" stroke="#333" stroke-width="1.5"/>
<text x="60" y="413.0" text-anchor="end" dominant-baseline="middle" fill="#333">0</text>
<line x1="63" y1="298.0" x2="68" y2="298.0" stroke="#333" stroke-width="1.5"/>
<text x="60" y="298.0" text-anchor="end" dominant-baseline="middle" fill="#333">1</text>
<line x1="90.1" y1="528" x2="90.1" y2="533" stroke="#333" stroke-width="1.5"/>
<text x="90.1" y="546" text-anchor="middle" fill="#333">1986</text>
<line x1="126.6" y1="528" x2="126.6" y2="533" stroke="#333" stroke-width="1.5"/>
<text x="126.6" y="546" text-anchor="middle" fill="#333">1988</text>
<line x1="163.1" y1="528" x2="163.1" y2="533" stroke="#333" stroke-width="1.5"/>
<text x="163.1" y="546" text-anchor="middle" fill="#333">1990</text>
<line x1="199.6" y1="528" x2="199.6" y2="533" stroke="#333" stroke-width="1.5"/>
<text x="199.6" y="546" text-anchor="middle" fill="#333">1992</text>
<line x1="236.2" y1="528" x2="236.2" y2="533" stroke="#333" stroke-width="1.5"/>
<text x="236.2" y="546" text-anchor="middle" fill="#333">1994</text>
<line x1="272.7" y1="528" x2="272.7" y2="533" stroke="#333" stroke-width="1.5"/>
<text x="272.7" y="546" text-anchor="middle" fill="#333">1996</text>
<line x1="309.2" y1="528" x2="309.2" y2="533" stroke="#333" stroke-width="1.5"/>
<text x="309.2" y="546" text-anchor="middle" fill="#333">1998</text>
<line x1="345.7" y1="528" x2="345.7" y2="533" stroke="#333" stroke-width="1.5"/>
<text x="345.7" y="546" text-anchor="middle" fill="#333">2000</text>
<line x1="382.2" y1="528" x2="382.2" y2="533" stroke="#333" stroke-width="1.5"/>
<text x="382.2" y="546" text-anchor="middle" fill="#333">2002</text>
<line x1="418.8" y1="528" x2="418.8" y2="533" stroke="#333" stroke-width="1.5"/>
<text x="418.8" y="546" text-anchor="middle" fill="#333">2004</text>
<line x1="455.3" y1="528" x2="455.3" y2="533" stroke="#333" stroke-width="1.5"/>
<text x="455.3" y="546" text-anchor="middle" fill="#333">2006</text>
<line x1="491.8" y1="528" x2="491.8" y2="533" stroke="#333" stroke-width="1.5"/>
<text x="491.8" y="546" text-anchor="middle" fill="#333">2008</text>
<line x1="528.3" y1="528" x2="528.3" y2="533" stroke="#333" stroke-width="1.5"/>
<text x="528.3" y="546" text-anchor="middle" fill="#333">2010</text>
<line x1="564.9" y1="528" x2="564.9" y2="533" stroke="#333" stroke-width="1.5"/>
<text x="564.9" y="546" text-anchor="middle" fill="#333">2012</text>
<line x1="601.4" y1="528" x2="601.4" y2="533" stroke="#333" stroke-width="1.5"/>
<text x="601.4" y="546" text-anchor="middle" fill="#333">2014</text>
<line x1="637.9" y1="528" x2="637.9" y2="533" stroke="#333" stroke-width="1.5"/>
<text x="637.9" y="546" text-anchor="middle" fill="#333">2016</text>
<line x1="674.4" y1="528" x2="674.4" y2="533" stroke="#333" stroke-width="1.5"/>
<text x="674.4" y="546" text-anchor="middle" fill="#333">2018</text>
<line x1="711.0" y1="528" x2="711.0" y2="533" stroke="#333" stroke-width="1.5"/>
<text x="711.0" y="546" text-anchor="middle" fill="#333">2020</text>
<line x1="747.5" y1="528" x2="747.5" y2="533" stroke="#333" stroke-width="1.5"/>
<text x="747.5" y="546" text-anchor="middle" fill="#333">2022</text>
<line x1="784.0" y1="528" x2="784.0" y2="533" stroke="#333" stroke-width="1.5"/>
<text x="784.0" y="546" text-anchor="middle" fill="#333">2024</text>
<line x1="820.5" y1="528" x2="820.5" y2="533" stroke="#333" stroke-width="1.5"/>
<text x="820.5" y="546" text-anchor="middle" fill="#333">2026</text>
<line x1="68" y1="298" x2="68" y2="528" stroke="#333" stroke-width="1.5"/>
<line x1="68" y1="528" x2="838" y2="528" stroke="#333" stroke-width="1.5"/>
<text transform="rotate(-90)" x="-413" y="16" text-anchor="middle" fill="#374151" font-size="11">Contribution [×10⁹ cm⁻³]</text>
<text x="453" y="566" text-anchor="middle" fill="#4b5563" font-size="11">Year</text>
<line x1="78" y1="312" x2="100" y2="312" stroke="#f59e0b" stroke-width="1.8"/>
<text x="105" y="316" fill="#374151" font-size="11">dlm-js solar β̂·X_solar</text>
<line x1="78" y1="327" x2="100" y2="327" stroke="#8b5cf6" stroke-width="1.8"/>
<text x="105" y="331" fill="#374151" font-size="11">dlm-js QBO β̂_qbo1·X₁ + β̂_qbo2·X₂</text>
<line x1="78" y1="342" x2="100" y2="342" stroke="#dc2626" stroke-width="1.4" stroke-dasharray="5 3"/>
<text x="105" y="346" fill="#374151" font-size="11">MATLAB solar (reference)</text>
<line x1="78" y1="357" x2="100" y2="357" stroke="#dc2626" stroke-width="1.4" stroke-dasharray="2 3"/>
<text x="105" y="361" fill="#374151" font-size="11">MATLAB QBO (reference)</text>
<text x="453" y="288" text-anchor="middle" fill="#374151" font-size="13" font-weight="bold">Proxy covariate contributions (solar + QBO)</text>
</svg>