<svg xmlns="http://www.w3.org/2000/svg" viewBox="0 0 900 960" font-family="system-ui,-apple-system,sans-serif" font-size="12">
<rect width="900" height="960" fill="white"/>
<text x="472" y="18" text-anchor="middle" fill="#333" font-size="14" font-weight="600">Synthetic energy demand — fit (order=1, trig, ns=12, AR(1)), cold 113 ms, warm 47 ms, scan/WASM/f64</text>
<line x1="66" y1="216.0" x2="878" y2="216.0" stroke="#e5e7eb" stroke-width="1"/>
<line x1="66" y1="184.1" x2="878" y2="184.1" stroke="#e5e7eb" stroke-width="1"/>
<line x1="66" y1="152.1" x2="878" y2="152.1" stroke="#e5e7eb" stroke-width="1"/>
<line x1="66" y1="120.2" x2="878" y2="120.2" stroke="#e5e7eb" stroke-width="1"/>
<line x1="66" y1="88.2" x2="878" y2="88.2" stroke="#e5e7eb" stroke-width="1"/>
<line x1="66" y1="56.3" x2="878" y2="56.3" stroke="#e5e7eb" stroke-width="1"/>
<path d="M66.0,100.6L72.8,102.2L79.6,103.2L86.5,104.8L93.3,106.4L100.1,107.8L106.9,109.5L113.8,111.2L120.6,112.8L127.4,114.4L134.2,115.5L141.1,116.8L147.9,118.3L154.7,119.5L161.5,120.6L168.4,122.0L175.2,123.3L182.0,124.8L188.8,125.9L195.6,126.9L202.5,127.8L209.3,128.8L216.1,129.6L222.9,130.4L229.8,131.3L236.6,132.1L243.4,132.8L250.2,133.3L257.1,134.0L263.9,134.4L270.7,135.1L277.5,135.6L284.4,135.9L291.2,136.0L298.0,136.0L304.8,135.8L311.6,135.7L318.5,135.8L325.3,135.7L332.1,135.7L338.9,135.8L345.8,135.8L352.6,135.5L359.4,135.1L366.2,135.2L373.1,135.2L379.9,135.3L386.7,135.7L393.5,135.7L400.4,135.6L407.2,135.5L414.0,135.4L420.8,135.3L427.6,135.2L434.5,134.9L441.3,134.5L448.1,134.2L454.9,133.8L461.8,133.5L468.6,132.9L475.4,132.4L482.2,131.9L489.1,131.3L495.9,130.6L502.7,129.9L509.5,129.6L516.4,129.0L523.2,128.4L530.0,127.8L536.8,127.1L543.6,126.4L550.5,125.8L557.3,125.0L564.1,124.4L570.9,123.5L577.8,122.5L584.6,121.3L591.4,120.2L598.2,119.2L605.1,118.0L611.9,116.6L618.7,115.4L625.5,114.1L632.4,112.8L639.2,111.5L646.0,110.1L652.8,108.7L659.6,107.3L666.5,106.1L673.3,104.5L680.1,103.0L686.9,101.2L693.8,99.2L700.6,97.6L707.4,96.0L714.2,94.6L721.1,92.8L727.9,91.3L734.7,90.0L741.5,88.2L748.4,86.7L755.2,84.8L762.0,83.0L768.8,81.3L775.6,79.3L782.5,77.5L789.3,75.3L796.1,73.8L802.9,71.9L809.8,70.1L816.6,68.1L823.4,65.6L830.2,63.2L837.1,61.3L843.9,59.3L850.7,57.2L857.5,55.1L864.4,53.1L871.2,51.0L878.0,48.8L878.0,133.7L871.2,133.9L864.4,134.1L857.5,134.2L850.7,134.5L843.9,134.8L837.1,135.3L830.2,135.6L823.4,136.4L816.6,137.6L809.8,138.3L802.9,138.9L796.1,139.6L789.3,140.0L782.5,141.1L775.6,142.0L768.8,143.0L762.0,143.9L755.2,145.0L748.4,146.2L741.5,147.0L734.7,148.1L727.9,148.9L721.1,149.8L714.2,151.1L707.4,152.2L700.6,153.4L693.8,154.6L686.9,156.3L680.1,157.8L673.3,159.0L666.5,160.4L659.6,161.4L652.8,162.6L646.0,163.8L639.2,165.0L632.4,166.3L625.5,167.4L618.7,168.6L611.9,169.7L605.1,171.0L598.2,172.1L591.4,173.1L584.6,174.1L577.8,175.3L570.9,176.3L564.1,177.2L557.3,177.8L550.5,178.5L543.6,179.1L536.8,179.8L530.0,180.5L523.2,181.1L516.4,181.7L509.5,182.3L502.7,182.6L495.9,183.3L489.1,183.9L482.2,184.6L475.4,185.1L468.6,185.6L461.8,186.2L454.9,186.6L448.1,187.1L441.3,187.3L434.5,187.8L427.6,188.2L420.8,188.3L414.0,188.5L407.2,188.7L400.4,188.9L393.5,189.1L386.7,189.3L379.9,189.0L373.1,189.1L366.2,189.3L359.4,189.4L352.6,190.0L345.8,190.6L338.9,190.9L332.1,191.1L325.3,191.5L318.5,192.0L311.6,192.4L304.8,192.9L298.0,193.6L291.2,194.3L284.4,194.8L277.5,195.1L270.7,195.4L263.9,195.5L257.1,196.0L250.2,196.1L243.4,196.6L236.6,196.9L229.8,197.2L222.9,197.6L216.1,197.9L209.3,198.6L202.5,198.9L195.6,199.5L188.8,200.1L182.0,200.6L175.2,200.8L168.4,201.4L161.5,201.8L154.7,202.6L147.9,203.5L141.1,204.1L134.2,205.0L127.4,206.2L120.6,207.0L113.8,207.8L106.9,208.7L100.1,209.6L93.3,210.9L86.5,212.1L79.6,213.4L72.8,215.3L66.0,216.7Z" fill="rgba(37,99,235,0.12)" stroke="none"/>
<path d="M66.0,100.6L72.8,102.2L79.6,103.2L86.5,104.8L93.3,106.4L100.1,107.8L106.9,109.5L113.8,111.2L120.6,112.8L127.4,114.4L134.2,115.5L141.1,116.8L147.9,118.3L154.7,119.5L161.5,120.6L168.4,122.0L175.2,123.3L182.0,124.8L188.8,125.9L195.6,126.9L202.5,127.8L209.3,128.8L216.1,129.6L222.9,130.4L229.8,131.3L236.6,132.1L243.4,132.8L250.2,133.3L257.1,134.0L263.9,134.4L270.7,135.1L277.5,135.6L284.4,135.9L291.2,136.0L298.0,136.0L304.8,135.8L311.6,135.7L318.5,135.8L325.3,135.7L332.1,135.7L338.9,135.8L345.8,135.8L352.6,135.5L359.4,135.1L366.2,135.2L373.1,135.2L379.9,135.3L386.7,135.7L393.5,135.7L400.4,135.6L407.2,135.5L414.0,135.4L420.8,135.3L427.6,135.2L434.5,134.9L441.3,134.5L448.1,134.2L454.9,133.8L461.8,133.5L468.6,132.9L475.4,132.4L482.2,131.9L489.1,131.3L495.9,130.6L502.7,129.9L509.5,129.6L516.4,129.0L523.2,128.4L530.0,127.8L536.8,127.1L543.6,126.4L550.5,125.8L557.3,125.0L564.1,124.4L570.9,123.5L577.8,122.5L584.6,121.3L591.4,120.2L598.2,119.2L605.1,118.0L611.9,116.6L618.7,115.4L625.5,114.1L632.4,112.8L639.2,111.5L646.0,110.1L652.8,108.7L659.6,107.3L666.5,106.1L673.3,104.5L680.1,103.0L686.9,101.2L693.8,99.2L700.6,97.6L707.4,96.0L714.2,94.6L721.1,92.8L727.9,91.3L734.7,90.0L741.5,88.2L748.4,86.7L755.2,84.8L762.0,83.0L768.8,81.3L775.6,79.3L782.5,77.5L789.3,75.3L796.1,73.8L802.9,71.9L809.8,70.1L816.6,68.1L823.4,65.6L830.2,63.2L837.1,61.3L843.9,59.3L850.7,57.2L857.5,55.1L864.4,53.1L871.2,51.0L878.0,48.8L878.0,133.7L871.2,133.9L864.4,134.1L857.5,134.2L850.7,134.5L843.9,134.8L837.1,135.3L830.2,135.6L823.4,136.4L816.6,137.6L809.8,138.3L802.9,138.9L796.1,139.6L789.3,140.0L782.5,141.1L775.6,142.0L768.8,143.0L762.0,143.9L755.2,145.0L748.4,146.2L741.5,147.0L734.7,148.1L727.9,148.9L721.1,149.8L714.2,151.1L707.4,152.2L700.6,153.4L693.8,154.6L686.9,156.3L680.1,157.8L673.3,159.0L666.5,160.4L659.6,161.4L652.8,162.6L646.0,163.8L639.2,165.0L632.4,166.3L625.5,167.4L618.7,168.6L611.9,169.7L605.1,171.0L598.2,172.1L591.4,173.1L584.6,174.1L577.8,175.3L570.9,176.3L564.1,177.2L557.3,177.8L550.5,178.5L543.6,179.1L536.8,179.8L530.0,180.5L523.2,181.1L516.4,181.7L509.5,182.3L502.7,182.6L495.9,183.3L489.1,183.9L482.2,184.6L475.4,185.1L468.6,185.6L461.8,186.2L454.9,186.6L448.1,187.1L441.3,187.3L434.5,187.8L427.6,188.2L420.8,188.3L414.0,188.5L407.2,188.7L400.4,188.9L393.5,189.1L386.7,189.3L379.9,189.0L373.1,189.1L366.2,189.3L359.4,189.4L352.6,190.0L345.8,190.6L338.9,190.9L332.1,191.1L325.3,191.5L318.5,192.0L311.6,192.4L304.8,192.9L298.0,193.6L291.2,194.3L284.4,194.8L277.5,195.1L270.7,195.4L263.9,195.5L257.1,196.0L250.2,196.1L243.4,196.6L236.6,196.9L229.8,197.2L222.9,197.6L216.1,197.9L209.3,198.6L202.5,198.9L195.6,199.5L188.8,200.1L182.0,200.6L175.2,200.8L168.4,201.4L161.5,201.8L154.7,202.6L147.9,203.5L141.1,204.1L134.2,205.0L127.4,206.2L120.6,207.0L113.8,207.8L106.9,208.7L100.1,209.6L93.3,210.9L86.5,212.1L79.6,213.4L72.8,215.3L66.0,216.7Z" fill="rgba(239,68,68,0.12)" stroke="none"/>
<polyline points="66.0,182.8 72.8,180.0 79.6,181.8 86.5,181.1 93.3,181.2 100.1,181.8 106.9,181.3 113.8,183.0 120.6,181.4 127.4,187.4 134.2,188.2 141.1,187.2 147.9,186.5 154.7,188.1 161.5,184.5 168.4,183.7 175.2,180.3 182.0,181.0 188.8,180.9 195.6,181.5 202.5,181.4 209.3,181.1 216.1,178.5 222.9,178.1 229.8,177.3 236.6,179.7 243.4,177.2 250.2,176.7 257.1,180.9 263.9,180.9 270.7,182.3 277.5,181.9 284.4,178.1 291.2,176.6 298.0,173.1 304.8,172.8 311.6,170.7 318.5,165.4 325.3,163.0 332.1,165.3 338.9,165.8 345.8,165.2 352.6,163.6 359.4,165.4 366.2,163.7 373.1,163.1 379.9,166.6 386.7,170.2 393.5,167.9 400.4,164.9 407.2,166.8 414.0,164.0 420.8,163.4 427.6,164.4 434.5,165.4 441.3,163.8 448.1,162.1 454.9,161.3 461.8,161.7 468.6,158.8 475.4,161.0 482.2,163.1 489.1,160.3 495.9,161.5 502.7,159.5 509.5,155.5 516.4,157.7 523.2,156.9 530.0,153.3 536.8,152.1 543.6,148.7 550.5,150.4 557.3,148.4 564.1,148.4 570.9,148.1 577.8,146.3 584.6,148.3 591.4,147.9 598.2,145.1 605.1,145.2 611.9,143.1 618.7,142.2 625.5,136.7 632.4,136.7 639.2,136.6 646.0,136.3 652.8,136.0 659.6,136.9 666.5,134.2 673.3,133.0 680.1,129.6 686.9,126.9 693.8,121.7 700.6,118.2 707.4,116.8 714.2,114.6 721.1,114.4 727.9,112.2 734.7,111.2 741.5,110.4 748.4,111.9 755.2,106.9 762.0,102.3 768.8,101.0 775.6,99.6 782.5,98.2 789.3,98.2 796.1,98.5 802.9,96.9 809.8,94.0 816.6,93.1 823.4,90.4 830.2,88.9 837.1,90.8 843.9,90.2 850.7,90.4 857.5,89.6 864.4,87.9 871.2,87.4 878.0,84.4" fill="none" stroke="#16a34a" stroke-width="1.5" stroke-dasharray="3,3"/>
<polyline points="66.0,158.7 72.8,158.7 79.6,158.3 86.5,158.4 93.3,158.6 100.1,158.7 106.9,159.1 113.8,159.5 120.6,159.9 127.4,160.3 134.2,160.2 141.1,160.4 147.9,160.9 154.7,161.0 161.5,161.2 168.4,161.7 175.2,162.1 182.0,162.7 188.8,163.0 195.6,163.2 202.5,163.4 209.3,163.7 216.1,163.8 222.9,164.0 229.8,164.2 236.6,164.5 243.4,164.7 250.2,164.7 257.1,165.0 263.9,165.0 270.7,165.2 277.5,165.4 284.4,165.4 291.2,165.2 298.0,164.8 304.8,164.3 311.6,164.0 318.5,163.9 325.3,163.6 332.1,163.4 338.9,163.4 345.8,163.2 352.6,162.8 359.4,162.3 366.2,162.2 373.1,162.1 379.9,162.2 386.7,162.5 393.5,162.4 400.4,162.2 407.2,162.1 414.0,161.9 420.8,161.8 427.6,161.7 434.5,161.3 441.3,160.9 448.1,160.7 454.9,160.2 461.8,159.8 468.6,159.2 475.4,158.8 482.2,158.2 489.1,157.6 495.9,156.9 502.7,156.3 509.5,155.9 516.4,155.3 523.2,154.8 530.0,154.1 536.8,153.5 543.6,152.8 550.5,152.1 557.3,151.4 564.1,150.8 570.9,149.9 577.8,148.9 584.6,147.7 591.4,146.6 598.2,145.6 605.1,144.5 611.9,143.1 618.7,142.0 625.5,140.7 632.4,139.5 639.2,138.2 646.0,136.9 652.8,135.6 659.6,134.4 666.5,133.2 673.3,131.7 680.1,130.4 686.9,128.7 693.8,126.9 700.6,125.5 707.4,124.1 714.2,122.9 721.1,121.3 727.9,120.1 734.7,119.0 741.5,117.6 748.4,116.5 755.2,114.9 762.0,113.5 768.8,112.2 775.6,110.7 782.5,109.3 789.3,107.7 796.1,106.7 802.9,105.4 809.8,104.2 816.6,102.8 823.4,101.0 830.2,99.4 837.1,98.3 843.9,97.0 850.7,95.9 857.5,94.6 864.4,93.6 871.2,92.5 878.0,91.3" fill="none" stroke="#2563eb" stroke-width="2"/>
<polyline points="66.0,158.7 72.8,158.7 79.6,158.3 86.5,158.4 93.3,158.6 100.1,158.7 106.9,159.1 113.8,159.5 120.6,159.9 127.4,160.3 134.2,160.2 141.1,160.4 147.9,160.9 154.7,161.0 161.5,161.2 168.4,161.7 175.2,162.1 182.0,162.7 188.8,163.0 195.6,163.2 202.5,163.4 209.3,163.7 216.1,163.8 222.9,164.0 229.8,164.2 236.6,164.5 243.4,164.7 250.2,164.7 257.1,165.0 263.9,165.0 270.7,165.2 277.5,165.4 284.4,165.4 291.2,165.2 298.0,164.8 304.8,164.3 311.6,164.0 318.5,163.9 325.3,163.6 332.1,163.4 338.9,163.4 345.8,163.2 352.6,162.8 359.4,162.3 366.2,162.2 373.1,162.1 379.9,162.2 386.7,162.5 393.5,162.4 400.4,162.2 407.2,162.1 414.0,161.9 420.8,161.8 427.6,161.7 434.5,161.3 441.3,160.9 448.1,160.7 454.9,160.2 461.8,159.8 468.6,159.2 475.4,158.8 482.2,158.2 489.1,157.6 495.9,156.9 502.7,156.3 509.5,155.9 516.4,155.3 523.2,154.8 530.0,154.1 536.8,153.5 543.6,152.8 550.5,152.1 557.3,151.4 564.1,150.8 570.9,149.9 577.8,148.9 584.6,147.7 591.4,146.6 598.2,145.6 605.1,144.5 611.9,143.1 618.7,142.0 625.5,140.7 632.4,139.5 639.2,138.2 646.0,136.9 652.8,135.6 659.6,134.4 666.5,133.2 673.3,131.7 680.1,130.4 686.9,128.7 693.8,126.9 700.6,125.5 707.4,124.1 714.2,122.9 721.1,121.3 727.9,120.1 734.7,119.0 741.5,117.6 748.4,116.5 755.2,114.9 762.0,113.5 768.8,112.2 775.6,110.7 782.5,109.3 789.3,107.7 796.1,106.7 802.9,105.4 809.8,104.2 816.6,102.8 823.4,101.0 830.2,99.4 837.1,98.3 843.9,97.0 850.7,95.9 857.5,94.6 864.4,93.6 871.2,92.5 878.0,91.3" fill="none" stroke="#ef4444" stroke-width="2" stroke-dasharray="6,3"/>
<line x1="66" y1="34" x2="66" y2="231.5" stroke="#333" stroke-width="1.5"/>
<line x1="66" y1="231.5" x2="878" y2="231.5" stroke="#333" stroke-width="1.5"/>
<line x1="61" y1="216.0" x2="66" y2="216.0" stroke="#333" stroke-width="1.5"/>
<text x="58" y="216.0" text-anchor="end" dominant-baseline="middle" fill="#333">95</text>
<line x1="61" y1="184.1" x2="66" y2="184.1" stroke="#333" stroke-width="1.5"/>
<text x="58" y="184.1" text-anchor="end" dominant-baseline="middle" fill="#333">100</text>
<line x1="61" y1="152.1" x2="66" y2="152.1" stroke="#333" stroke-width="1.5"/>
<text x="58" y="152.1" text-anchor="end" dominant-baseline="middle" fill="#333">105</text>
<line x1="61" y1="120.2" x2="66" y2="120.2" stroke="#333" stroke-width="1.5"/>
<text x="58" y="120.2" text-anchor="end" dominant-baseline="middle" fill="#333">110</text>
<line x1="61" y1="88.2" x2="66" y2="88.2" stroke="#333" stroke-width="1.5"/>
<text x="58" y="88.2" text-anchor="end" dominant-baseline="middle" fill="#333">115</text>
<line x1="61" y1="56.3" x2="66" y2="56.3" stroke="#333" stroke-width="1.5"/>
<text x="58" y="56.3" text-anchor="end" dominant-baseline="middle" fill="#333">120</text>
<text x="72" y="48" text-anchor="start" fill="#333" font-size="12" font-weight="600">Smoothed level x[0] ± 2σ</text>
<text x="14" y="132.75" text-anchor="middle" fill="#333" font-size="13" transform="rotate(-90,14,132.75)">Level</text>
<line x1="66" y1="410.7" x2="878" y2="410.7" stroke="#e5e7eb" stroke-width="1"/>
<line x1="66" y1="358.3" x2="878" y2="358.3" stroke="#e5e7eb" stroke-width="1"/>
<line x1="66" y1="305.9" x2="878" y2="305.9" stroke="#e5e7eb" stroke-width="1"/>
<path d="M66.0,286.7L72.8,310.5L79.6,343.3L86.5,376.3L93.3,400.6L100.1,409.6L106.9,401.0L113.8,377.0L120.6,344.2L127.4,311.3L134.2,287.1L141.1,278.1L147.9,286.7L154.7,310.6L161.5,343.4L168.4,376.4L175.2,400.7L182.0,409.7L188.8,401.1L195.6,377.1L202.5,344.2L209.3,311.3L216.1,287.1L222.9,278.1L229.8,286.7L236.6,310.6L243.4,343.5L250.2,376.5L257.1,400.8L263.9,409.8L270.7,401.1L277.5,377.1L284.4,344.2L291.2,311.2L298.0,287.1L304.8,278.1L311.6,286.8L318.5,310.7L325.3,343.6L332.1,376.6L338.9,400.9L345.8,409.9L352.6,401.1L359.4,377.0L366.2,344.1L373.1,311.2L379.9,287.1L386.7,278.2L393.5,286.8L400.4,310.8L407.2,343.7L414.0,376.7L420.8,400.9L427.6,409.9L434.5,401.1L441.3,377.0L448.1,344.1L454.9,311.1L461.8,287.0L468.6,278.2L475.4,286.9L482.2,310.9L489.1,343.8L495.9,376.7L502.7,401.0L509.5,409.9L516.4,401.1L523.2,377.0L530.0,344.0L536.8,311.1L543.6,287.0L550.5,278.1L557.3,286.9L564.1,310.9L570.9,343.8L577.8,376.8L584.6,401.0L591.4,409.9L598.2,401.1L605.1,376.9L611.9,343.9L618.7,311.0L625.5,286.9L632.4,278.1L639.2,286.9L646.0,310.9L652.8,343.8L659.6,376.8L666.5,401.0L673.3,409.9L680.1,401.0L686.9,376.8L693.8,343.8L700.6,310.9L707.4,286.9L714.2,278.1L721.1,286.9L727.9,310.9L734.7,343.8L741.5,376.8L748.4,401.0L755.2,409.8L762.0,400.9L768.8,376.7L775.6,343.8L782.5,310.9L789.3,286.8L796.1,278.0L802.9,286.9L809.8,310.9L816.6,343.8L823.4,376.7L830.2,400.9L837.1,409.7L843.9,400.8L850.7,376.7L857.5,343.7L864.4,310.8L871.2,286.8L878.0,278.0L878.0,306.9L871.2,315.7L864.4,339.8L857.5,372.8L850.7,405.6L843.9,429.7L837.1,438.5L830.2,429.7L823.4,405.7L816.6,372.8L809.8,339.8L802.9,315.6L796.1,306.8L789.3,315.6L782.5,339.7L775.6,372.7L768.8,405.6L762.0,429.7L755.2,438.5L748.4,429.7L741.5,405.6L734.7,372.7L727.9,339.7L721.1,315.5L714.2,306.7L707.4,315.5L700.6,339.7L693.8,372.7L686.9,405.6L680.1,429.7L673.3,438.5L666.5,429.6L659.6,405.6L652.8,372.6L646.0,339.7L639.2,315.5L632.4,306.6L625.5,315.5L618.7,339.7L611.9,372.7L605.1,405.6L598.2,429.7L591.4,438.4L584.6,429.6L577.8,405.5L570.9,372.6L564.1,339.6L557.3,315.5L550.5,306.6L543.6,315.5L536.8,339.8L530.0,372.7L523.2,405.6L516.4,429.7L509.5,438.4L502.7,429.5L495.9,405.4L489.1,372.5L482.2,339.5L475.4,315.4L468.6,306.7L461.8,315.6L454.9,339.8L448.1,372.8L441.3,405.7L434.5,429.7L427.6,438.4L420.8,429.5L414.0,405.4L407.2,372.4L400.4,339.5L393.5,315.4L386.7,306.7L379.9,315.6L373.1,339.9L366.2,372.9L359.4,405.8L352.6,429.7L345.8,438.4L338.9,429.5L332.1,405.3L325.3,372.4L318.5,339.5L311.6,315.4L304.8,306.7L298.0,315.7L291.2,340.0L284.4,373.0L277.5,405.9L270.7,429.8L263.9,438.4L257.1,429.4L250.2,405.3L243.4,372.3L236.6,339.5L229.8,315.4L222.9,306.8L216.1,315.8L209.3,340.1L202.5,373.1L195.6,405.9L188.8,429.8L182.0,438.4L175.2,429.4L168.4,405.3L161.5,372.3L154.7,339.5L147.9,315.5L141.1,306.8L134.2,315.9L127.4,340.2L120.6,373.2L113.8,406.0L106.9,429.9L100.1,438.4L93.3,429.4L86.5,405.3L79.6,372.4L72.8,339.6L66.0,315.6Z" fill="rgba(37,99,235,0.12)" stroke="none"/>
<path d="M66.0,286.7L72.8,310.5L79.6,343.3L86.5,376.3L93.3,400.6L100.1,409.6L106.9,401.0L113.8,377.0L120.6,344.2L127.4,311.3L134.2,287.1L141.1,278.1L147.9,286.7L154.7,310.6L161.5,343.4L168.4,376.4L175.2,400.7L182.0,409.7L188.8,401.1L195.6,377.1L202.5,344.2L209.3,311.3L216.1,287.1L222.9,278.1L229.8,286.7L236.6,310.6L243.4,343.5L250.2,376.5L257.1,400.8L263.9,409.8L270.7,401.1L277.5,377.1L284.4,344.2L291.2,311.2L298.0,287.1L304.8,278.1L311.6,286.8L318.5,310.7L325.3,343.6L332.1,376.6L338.9,400.9L345.8,409.9L352.6,401.1L359.4,377.0L366.2,344.1L373.1,311.2L379.9,287.1L386.7,278.2L393.5,286.8L400.4,310.8L407.2,343.7L414.0,376.7L420.8,400.9L427.6,409.9L434.5,401.1L441.3,377.0L448.1,344.1L454.9,311.1L461.8,287.0L468.6,278.2L475.4,286.9L482.2,310.9L489.1,343.8L495.9,376.7L502.7,401.0L509.5,409.9L516.4,401.1L523.2,377.0L530.0,344.0L536.8,311.1L543.6,287.0L550.5,278.1L557.3,286.9L564.1,310.9L570.9,343.8L577.8,376.8L584.6,401.0L591.4,409.9L598.2,401.1L605.1,376.9L611.9,343.9L618.7,311.0L625.5,286.9L632.4,278.1L639.2,286.9L646.0,310.9L652.8,343.8L659.6,376.8L666.5,401.0L673.3,409.9L680.1,401.0L686.9,376.8L693.8,343.8L700.6,310.9L707.4,286.9L714.2,278.1L721.1,286.9L727.9,310.9L734.7,343.8L741.5,376.8L748.4,401.0L755.2,409.8L762.0,400.9L768.8,376.7L775.6,343.8L782.5,310.9L789.3,286.8L796.1,278.0L802.9,286.9L809.8,310.9L816.6,343.8L823.4,376.7L830.2,400.9L837.1,409.7L843.9,400.8L850.7,376.7L857.5,343.7L864.4,310.8L871.2,286.8L878.0,278.0L878.0,306.9L871.2,315.7L864.4,339.8L857.5,372.8L850.7,405.6L843.9,429.7L837.1,438.5L830.2,429.7L823.4,405.7L816.6,372.8L809.8,339.8L802.9,315.6L796.1,306.8L789.3,315.6L782.5,339.7L775.6,372.7L768.8,405.6L762.0,429.7L755.2,438.5L748.4,429.7L741.5,405.6L734.7,372.7L727.9,339.7L721.1,315.5L714.2,306.7L707.4,315.5L700.6,339.7L693.8,372.7L686.9,405.6L680.1,429.7L673.3,438.5L666.5,429.6L659.6,405.6L652.8,372.6L646.0,339.7L639.2,315.5L632.4,306.6L625.5,315.5L618.7,339.7L611.9,372.7L605.1,405.6L598.2,429.7L591.4,438.4L584.6,429.6L577.8,405.5L570.9,372.6L564.1,339.6L557.3,315.5L550.5,306.6L543.6,315.5L536.8,339.8L530.0,372.7L523.2,405.6L516.4,429.7L509.5,438.4L502.7,429.5L495.9,405.4L489.1,372.5L482.2,339.5L475.4,315.4L468.6,306.7L461.8,315.6L454.9,339.8L448.1,372.8L441.3,405.7L434.5,429.7L427.6,438.4L420.8,429.5L414.0,405.4L407.2,372.4L400.4,339.5L393.5,315.4L386.7,306.7L379.9,315.6L373.1,339.9L366.2,372.9L359.4,405.8L352.6,429.7L345.8,438.4L338.9,429.5L332.1,405.3L325.3,372.4L318.5,339.5L311.6,315.4L304.8,306.7L298.0,315.7L291.2,340.0L284.4,373.0L277.5,405.9L270.7,429.8L263.9,438.4L257.1,429.4L250.2,405.3L243.4,372.3L236.6,339.5L229.8,315.4L222.9,306.8L216.1,315.8L209.3,340.1L202.5,373.1L195.6,405.9L188.8,429.8L182.0,438.4L175.2,429.4L168.4,405.3L161.5,372.3L154.7,339.5L147.9,315.5L141.1,306.8L134.2,315.9L127.4,340.2L120.6,373.2L113.8,406.0L106.9,429.9L100.1,438.4L93.3,429.4L86.5,405.3L79.6,372.4L72.8,339.6L66.0,315.6Z" fill="rgba(239,68,68,0.12)" stroke="none"/>
<polyline points="66.0,313.0 72.8,332.3 79.6,358.3 86.5,384.4 93.3,403.1 100.1,410.1 106.9,403.0 113.8,384.0 120.6,358.3 127.4,332.4 134.2,313.7 141.1,306.8 147.9,313.3 154.7,332.3 161.5,358.3 168.4,384.0 175.2,402.8 182.0,409.6 188.8,402.7 195.6,383.7 202.5,357.6 209.3,331.6 216.1,312.5 222.9,306.3 229.8,313.4 236.6,333.0 243.4,359.3 250.2,385.1 257.1,404.3 263.9,410.9 270.7,403.3 277.5,383.6 284.4,357.1 291.2,331.2 298.0,311.9 304.8,305.4 311.6,313.3 318.5,333.2 325.3,359.9 332.1,386.2 338.9,405.2 345.8,411.7 352.6,403.7 359.4,383.4 366.2,356.0 373.1,329.6 379.9,310.9 386.7,304.8 393.5,313.0 400.4,333.0 407.2,359.9 414.0,386.6 420.8,405.8 427.6,412.3 434.5,404.0 441.3,383.7 448.1,356.3 454.9,329.9 461.8,311.0 468.6,304.5 475.4,312.2 482.2,332.3 489.1,358.9 495.9,385.4 502.7,405.0 509.5,412.3 516.4,404.6 523.2,384.9 530.0,358.0 536.8,331.4 543.6,311.6 550.5,304.2 557.3,311.7 564.1,331.7 570.9,358.8 577.8,386.0 584.6,405.5 591.4,412.4 598.2,404.8 605.1,384.8 611.9,357.4 618.7,330.7 625.5,311.1 632.4,303.8 639.2,311.1 646.0,331.7 652.8,359.2 659.6,386.5 666.5,406.2 673.3,412.9 680.1,404.9 686.9,384.9 693.8,357.8 700.6,330.5 707.4,310.7 714.2,303.8 721.1,311.3 727.9,331.5 734.7,358.8 741.5,386.0 748.4,406.0 755.2,412.5 762.0,404.6 768.8,384.4 775.6,357.4 782.5,330.4 789.3,311.1 796.1,304.2 802.9,311.9 809.8,332.2 816.6,359.2 823.4,385.9 830.2,405.4 837.1,411.9 843.9,404.2 850.7,384.2 857.5,356.9 864.4,330.4 871.2,311.5 878.0,305.5" fill="none" stroke="#16a34a" stroke-width="1.5" stroke-dasharray="3,3"/>
<polyline points="66.0,301.1 72.8,325.0 79.6,357.8 86.5,390.8 93.3,415.0 100.1,424.0 106.9,415.4 113.8,391.5 120.6,358.7 127.4,325.7 134.2,301.5 141.1,292.5 147.9,301.1 154.7,325.0 161.5,357.9 168.4,390.8 175.2,415.1 182.0,424.1 188.8,415.4 195.6,391.5 202.5,358.6 209.3,325.7 216.1,301.4 222.9,292.4 229.8,301.1 236.6,325.0 243.4,357.9 250.2,390.9 257.1,415.1 263.9,424.1 270.7,415.4 277.5,391.5 284.4,358.6 291.2,325.6 298.0,301.4 304.8,292.4 311.6,301.1 318.5,325.1 325.3,358.0 332.1,391.0 338.9,415.2 345.8,424.1 352.6,415.4 359.4,391.4 366.2,358.5 373.1,325.5 379.9,301.3 386.7,292.4 393.5,301.1 400.4,325.2 407.2,358.1 414.0,391.0 420.8,415.2 427.6,424.1 434.5,415.4 441.3,391.3 448.1,358.4 454.9,325.5 461.8,301.3 468.6,292.4 475.4,301.1 482.2,325.2 489.1,358.1 495.9,391.1 502.7,415.2 509.5,424.1 516.4,415.4 523.2,391.3 530.0,358.4 536.8,325.4 543.6,301.3 550.5,292.4 557.3,301.2 564.1,325.3 570.9,358.2 577.8,391.1 584.6,415.3 591.4,424.2 598.2,415.4 605.1,391.3 611.9,358.3 618.7,325.4 625.5,301.2 632.4,292.4 639.2,301.2 646.0,325.3 652.8,358.2 659.6,391.2 666.5,415.3 673.3,424.2 680.1,415.3 686.9,391.2 693.8,358.3 700.6,325.3 707.4,301.2 714.2,292.4 721.1,301.2 727.9,325.3 734.7,358.3 741.5,391.2 748.4,415.3 755.2,424.1 762.0,415.3 768.8,391.2 775.6,358.2 782.5,325.3 789.3,301.2 796.1,292.4 802.9,301.3 809.8,325.4 816.6,358.3 823.4,391.2 830.2,415.3 837.1,424.1 843.9,415.3 850.7,391.1 857.5,358.2 864.4,325.3 871.2,301.2 878.0,292.4" fill="none" stroke="#2563eb" stroke-width="2"/>
<polyline points="66.0,301.1 72.8,325.0 79.6,357.8 86.5,390.8 93.3,415.0 100.1,424.0 106.9,415.4 113.8,391.5 120.6,358.7 127.4,325.7 134.2,301.5 141.1,292.5 147.9,301.1 154.7,325.0 161.5,357.9 168.4,390.8 175.2,415.1 182.0,424.1 188.8,415.4 195.6,391.5 202.5,358.6 209.3,325.7 216.1,301.4 222.9,292.4 229.8,301.1 236.6,325.0 243.4,357.9 250.2,390.9 257.1,415.1 263.9,424.1 270.7,415.4 277.5,391.5 284.4,358.6 291.2,325.6 298.0,301.4 304.8,292.4 311.6,301.1 318.5,325.1 325.3,358.0 332.1,391.0 338.9,415.2 345.8,424.1 352.6,415.4 359.4,391.4 366.2,358.5 373.1,325.5 379.9,301.3 386.7,292.4 393.5,301.1 400.4,325.2 407.2,358.1 414.0,391.0 420.8,415.2 427.6,424.1 434.5,415.4 441.3,391.3 448.1,358.4 454.9,325.5 461.8,301.3 468.6,292.4 475.4,301.1 482.2,325.2 489.1,358.1 495.9,391.1 502.7,415.2 509.5,424.1 516.4,415.4 523.2,391.3 530.0,358.4 536.8,325.4 543.6,301.3 550.5,292.4 557.3,301.2 564.1,325.3 570.9,358.2 577.8,391.1 584.6,415.3 591.4,424.2 598.2,415.4 605.1,391.3 611.9,358.3 618.7,325.4 625.5,301.2 632.4,292.4 639.2,301.2 646.0,325.3 652.8,358.2 659.6,391.2 666.5,415.3 673.3,424.2 680.1,415.3 686.9,391.2 693.8,358.3 700.6,325.3 707.4,301.2 714.2,292.4 721.1,301.2 727.9,325.3 734.7,358.3 741.5,391.2 748.4,415.3 755.2,424.1 762.0,415.3 768.8,391.2 775.6,358.2 782.5,325.3 789.3,301.2 796.1,292.4 802.9,301.3 809.8,325.4 816.6,358.3 823.4,391.2 830.2,415.3 837.1,424.1 843.9,415.3 850.7,391.1 857.5,358.2 864.4,325.3 871.2,301.2 878.0,292.4" fill="none" stroke="#ef4444" stroke-width="2" stroke-dasharray="6,3"/>
<line x1="66" y1="259.5" x2="66" y2="457" stroke="#333" stroke-width="1.5"/>
<line x1="66" y1="457" x2="878" y2="457" stroke="#333" stroke-width="1.5"/>
<line x1="61" y1="410.7" x2="66" y2="410.7" stroke="#333" stroke-width="1.5"/>
<text x="58" y="410.7" text-anchor="end" dominant-baseline="middle" fill="#333">-5</text>
<line x1="61" y1="358.3" x2="66" y2="358.3" stroke="#333" stroke-width="1.5"/>
<text x="58" y="358.3" text-anchor="end" dominant-baseline="middle" fill="#333">0</text>
<line x1="61" y1="305.9" x2="66" y2="305.9" stroke="#333" stroke-width="1.5"/>
<text x="58" y="305.9" text-anchor="end" dominant-baseline="middle" fill="#333">5</text>
<text x="72" y="273.5" text-anchor="start" fill="#333" font-size="12" font-weight="600">Seasonal x[2] ± 2σ  (trig harmonic k=1)</text>
<text x="14" y="358.25" text-anchor="middle" fill="#333" font-size="13" transform="rotate(-90,14,358.25)">Seasonal</text>
<line x1="66" y1="675.2" x2="878" y2="675.2" stroke="#e5e7eb" stroke-width="1"/>
<line x1="66" y1="650.5" x2="878" y2="650.5" stroke="#e5e7eb" stroke-width="1"/>
<line x1="66" y1="625.8" x2="878" y2="625.8" stroke="#e5e7eb" stroke-width="1"/>
<line x1="66" y1="601.1" x2="878" y2="601.1" stroke="#e5e7eb" stroke-width="1"/>
<line x1="66" y1="576.4" x2="878" y2="576.4" stroke="#e5e7eb" stroke-width="1"/>
<line x1="66" y1="551.7" x2="878" y2="551.7" stroke="#e5e7eb" stroke-width="1"/>
<line x1="66" y1="527.0" x2="878" y2="527.0" stroke="#e5e7eb" stroke-width="1"/>
<line x1="66" y1="502.3" x2="878" y2="502.3" stroke="#e5e7eb" stroke-width="1"/>
<path d="M66.0,571.1L72.8,562.4L79.6,525.6L86.5,519.3L93.3,517.4L100.1,510.0L106.9,518.4L113.8,527.7L120.6,536.2L127.4,545.6L134.2,524.4L141.1,521.6L147.9,534.2L154.7,525.1L161.5,516.8L168.4,532.4L175.2,539.3L182.0,561.0L188.8,565.3L195.6,561.8L202.5,556.4L209.3,563.2L216.1,553.5L222.9,556.7L229.8,561.6L236.6,569.6L243.4,575.0L250.2,566.6L257.1,579.6L263.9,573.3L270.7,587.7L277.5,594.8L284.4,597.5L291.2,588.4L298.0,571.1L304.8,549.5L311.6,540.6L318.5,539.2L325.3,528.7L332.1,528.0L338.9,535.6L345.8,534.3L352.6,518.7L359.4,498.5L366.2,506.8L373.1,508.0L379.9,521.6L386.7,548.8L393.5,555.4L400.4,552.8L407.2,558.0L414.0,561.0L420.8,570.0L427.6,578.8L434.5,575.1L441.3,568.0L448.1,574.3L454.9,569.9L461.8,574.4L468.6,564.4L475.4,566.0L482.2,562.5L489.1,556.6L495.9,549.0L502.7,542.6L509.5,559.5L516.4,561.9L523.2,566.7L530.0,567.4L536.8,571.6L543.6,574.3L550.5,580.9L557.3,586.4L564.1,601.0L570.9,601.9L577.8,597.2L584.6,584.2L591.4,581.0L598.2,586.9L605.1,584.0L611.9,569.0L618.7,571.9L625.5,565.1L632.4,567.7L639.2,563.1L646.0,559.0L652.8,558.9L659.6,562.4L666.5,574.6L673.3,563.4L680.1,565.2L686.9,548.3L693.8,521.3L700.6,519.5L707.4,519.9L714.2,527.0L721.1,516.1L727.9,527.9L734.7,544.1L741.5,539.7L748.4,553.1L755.2,539.9L762.0,537.3L768.8,540.9L775.6,534.3L782.5,533.7L789.3,514.9L796.1,536.3L802.9,540.5L809.8,552.2L816.6,547.7L823.4,516.2L830.2,499.3L837.1,511.3L843.9,511.7L850.7,519.7L857.5,521.5L864.4,534.6L871.2,542.1L878.0,544.3L878.0,612.3L871.2,610.0L864.4,601.6L857.5,587.6L850.7,584.9L843.9,576.0L837.1,574.6L830.2,561.6L823.4,577.3L816.6,607.6L809.8,610.9L802.9,598.1L796.1,592.9L789.3,570.7L782.5,589.0L775.6,589.3L768.8,595.5L762.0,591.5L755.2,593.7L748.4,606.5L741.5,592.5L734.7,596.3L727.9,579.5L721.1,567.2L714.2,577.7L707.4,570.3L700.6,569.7L693.8,571.5L686.9,598.4L680.1,615.3L673.3,613.4L666.5,624.4L659.6,612.0L652.8,608.3L646.0,608.1L639.2,612.1L632.4,616.5L625.5,613.8L618.7,620.6L611.9,617.7L605.1,632.8L598.2,635.7L591.4,629.8L584.6,633.0L577.8,645.9L570.9,650.5L564.1,649.6L557.3,634.9L550.5,629.3L543.6,622.8L536.8,620.0L530.0,615.8L523.2,615.2L516.4,610.3L509.5,607.9L502.7,591.0L495.9,597.6L489.1,605.1L482.2,611.1L475.4,614.6L468.6,613.0L461.8,623.0L454.9,618.5L448.1,622.9L441.3,616.6L434.5,623.6L427.6,627.3L420.8,618.6L414.0,609.8L407.2,606.9L400.4,601.8L393.5,604.6L386.7,598.1L379.9,571.0L373.1,557.3L366.2,556.1L359.4,547.8L352.6,568.1L345.8,583.8L338.9,585.5L332.1,578.2L325.3,579.3L318.5,590.3L311.6,592.1L304.8,601.2L298.0,623.1L291.2,640.6L284.4,650.0L277.5,647.4L270.7,640.7L263.9,626.8L257.1,633.8L250.2,621.6L243.4,631.0L236.6,626.5L229.8,619.5L222.9,615.3L216.1,612.9L209.3,623.2L202.5,617.0L195.6,623.2L188.8,627.6L182.0,624.3L175.2,604.1L168.4,598.7L161.5,584.8L154.7,594.8L147.9,605.5L141.1,594.4L134.2,598.7L127.4,621.2L120.6,613.1L113.8,606.0L106.9,598.3L100.1,591.9L93.3,601.4L86.5,605.7L79.6,614.6L72.8,654.5L66.0,669.0Z" fill="rgba(37,99,235,0.12)" stroke="none"/>
<path d="M66.0,571.1L72.8,562.4L79.6,525.6L86.5,519.3L93.3,517.4L100.1,510.0L106.9,518.4L113.8,527.7L120.6,536.2L127.4,545.6L134.2,524.4L141.1,521.6L147.9,534.2L154.7,525.1L161.5,516.8L168.4,532.4L175.2,539.3L182.0,561.0L188.8,565.3L195.6,561.8L202.5,556.4L209.3,563.2L216.1,553.5L222.9,556.7L229.8,561.6L236.6,569.6L243.4,575.0L250.2,566.6L257.1,579.6L263.9,573.3L270.7,587.7L277.5,594.8L284.4,597.5L291.2,588.4L298.0,571.1L304.8,549.5L311.6,540.6L318.5,539.2L325.3,528.7L332.1,528.0L338.9,535.6L345.8,534.3L352.6,518.7L359.4,498.5L366.2,506.8L373.1,508.0L379.9,521.6L386.7,548.8L393.5,555.4L400.4,552.8L407.2,558.0L414.0,561.0L420.8,570.0L427.6,578.8L434.5,575.1L441.3,568.0L448.1,574.3L454.9,569.9L461.8,574.4L468.6,564.4L475.4,566.0L482.2,562.5L489.1,556.6L495.9,549.0L502.7,542.6L509.5,559.5L516.4,561.9L523.2,566.7L530.0,567.4L536.8,571.6L543.6,574.3L550.5,580.9L557.3,586.4L564.1,601.0L570.9,601.9L577.8,597.2L584.6,584.2L591.4,581.0L598.2,586.9L605.1,584.0L611.9,569.0L618.7,571.9L625.5,565.1L632.4,567.7L639.2,563.1L646.0,559.0L652.8,558.9L659.6,562.4L666.5,574.6L673.3,563.4L680.1,565.2L686.9,548.3L693.8,521.3L700.6,519.5L707.4,519.9L714.2,527.0L721.1,516.1L727.9,527.9L734.7,544.1L741.5,539.7L748.4,553.1L755.2,539.9L762.0,537.3L768.8,540.9L775.6,534.3L782.5,533.7L789.3,514.9L796.1,536.3L802.9,540.5L809.8,552.2L816.6,547.7L823.4,516.2L830.2,499.3L837.1,511.3L843.9,511.7L850.7,519.7L857.5,521.5L864.4,534.6L871.2,542.1L878.0,544.3L878.0,612.3L871.2,610.0L864.4,601.6L857.5,587.6L850.7,584.9L843.9,576.0L837.1,574.6L830.2,561.6L823.4,577.3L816.6,607.6L809.8,610.9L802.9,598.1L796.1,592.9L789.3,570.7L782.5,589.0L775.6,589.3L768.8,595.5L762.0,591.5L755.2,593.7L748.4,606.5L741.5,592.5L734.7,596.3L727.9,579.5L721.1,567.2L714.2,577.7L707.4,570.3L700.6,569.7L693.8,571.5L686.9,598.4L680.1,615.3L673.3,613.4L666.5,624.4L659.6,612.0L652.8,608.3L646.0,608.1L639.2,612.1L632.4,616.5L625.5,613.8L618.7,620.6L611.9,617.7L605.1,632.8L598.2,635.7L591.4,629.8L584.6,633.0L577.8,645.9L570.9,650.5L564.1,649.6L557.3,634.9L550.5,629.3L543.6,622.8L536.8,620.0L530.0,615.8L523.2,615.2L516.4,610.3L509.5,607.9L502.7,591.0L495.9,597.6L489.1,605.1L482.2,611.1L475.4,614.6L468.6,613.0L461.8,623.0L454.9,618.5L448.1,622.9L441.3,616.6L434.5,623.6L427.6,627.3L420.8,618.6L414.0,609.8L407.2,606.9L400.4,601.8L393.5,604.6L386.7,598.1L379.9,571.0L373.1,557.3L366.2,556.1L359.4,547.8L352.6,568.1L345.8,583.8L338.9,585.5L332.1,578.2L325.3,579.3L318.5,590.3L311.6,592.1L304.8,601.2L298.0,623.1L291.2,640.6L284.4,650.0L277.5,647.4L270.7,640.7L263.9,626.8L257.1,633.8L250.2,621.6L243.4,631.0L236.6,626.5L229.8,619.5L222.9,615.3L216.1,612.9L209.3,623.2L202.5,617.0L195.6,623.2L188.8,627.6L182.0,624.3L175.2,604.1L168.4,598.7L161.5,584.8L154.7,594.8L147.9,605.5L141.1,594.4L134.2,598.7L127.4,621.2L120.6,613.1L113.8,606.0L106.9,598.3L100.1,591.9L93.3,601.4L86.5,605.7L79.6,614.6L72.8,654.5L66.0,669.0Z" fill="rgba(239,68,68,0.12)" stroke="none"/>
<polyline points="66.0,591.0 72.8,592.2 79.6,556.8 86.5,552.7 93.3,557.6 100.1,545.0 106.9,540.9 113.8,548.9 120.6,556.3 127.4,567.9 134.2,535.4 141.1,542.9 147.9,560.0 154.7,538.5 161.5,532.8 168.4,553.8 175.2,555.9 182.0,593.0 188.8,577.2 195.6,585.2 202.5,568.7 209.3,575.7 216.1,564.2 222.9,573.4 229.8,579.4 236.6,587.0 243.4,591.3 250.2,581.7 257.1,597.5 263.9,591.9 270.7,596.8 277.5,611.4 284.4,617.8 291.2,601.6 298.0,586.9 304.8,564.4 311.6,559.5 318.5,557.7 325.3,555.1 332.1,558.7 338.9,557.9 345.8,561.6 352.6,552.6 359.4,523.4 366.2,529.5 373.1,526.9 379.9,539.7 386.7,561.2 393.5,572.2 400.4,579.6 407.2,581.8 414.0,587.6 420.8,599.9 427.6,616.2 434.5,605.6 441.3,601.7 448.1,599.9 454.9,598.8 461.8,601.0 468.6,586.6 475.4,587.5 482.2,585.9 489.1,582.4 495.9,576.0 502.7,569.6 509.5,592.3 516.4,607.3 523.2,596.3 530.0,590.1 536.8,590.5 543.6,590.6 550.5,598.7 557.3,599.8 564.1,623.4 570.9,618.6 577.8,629.6 584.6,602.7 591.4,611.5 598.2,618.5 605.1,617.1 611.9,597.6 618.7,585.7 625.5,589.4 632.4,570.9 639.2,578.0 646.0,585.6 652.8,586.1 659.6,591.7 666.5,613.3 673.3,593.7 680.1,602.0 686.9,578.2 693.8,558.5 700.6,549.5 707.4,543.1 714.2,551.9 721.1,537.3 727.9,553.6 734.7,568.2 741.5,583.8 748.4,587.8 755.2,565.3 762.0,581.0 768.8,574.9 775.6,572.5 782.5,577.1 789.3,550.8 796.1,557.7 802.9,564.3 809.8,592.0 816.6,588.6 823.4,554.5 830.2,533.6 837.1,554.1 843.9,556.7 850.7,567.2 857.5,564.1 864.4,570.8 871.2,570.5 878.0,583.5" fill="none" stroke="#16a34a" stroke-width="1.5" stroke-dasharray="3,3"/>
<polyline points="66.0,620.1 72.8,608.4 79.6,570.1 86.5,562.5 93.3,559.4 100.1,551.0 106.9,558.3 113.8,566.8 120.6,574.7 127.4,583.4 134.2,561.6 141.1,558.0 147.9,569.9 154.7,560.0 161.5,550.8 168.4,565.6 175.2,571.7 182.0,592.7 188.8,596.4 195.6,592.5 202.5,586.7 209.3,593.2 216.1,583.2 222.9,586.0 229.8,590.6 236.6,598.0 243.4,603.0 250.2,594.1 257.1,606.7 263.9,600.1 270.7,614.2 277.5,621.1 284.4,623.8 291.2,614.5 298.0,597.1 304.8,575.4 311.6,566.3 318.5,564.8 325.3,554.0 332.1,553.1 338.9,560.5 345.8,559.0 352.6,543.4 359.4,523.1 366.2,531.5 373.1,532.6 379.9,546.3 386.7,573.5 393.5,580.0 400.4,577.3 407.2,582.5 414.0,585.4 420.8,594.3 427.6,603.1 434.5,599.3 441.3,592.3 448.1,598.6 454.9,594.2 461.8,598.7 468.6,588.7 475.4,590.3 482.2,586.8 489.1,580.9 495.9,573.3 502.7,566.8 509.5,583.7 516.4,586.1 523.2,590.9 530.0,591.6 536.8,595.8 543.6,598.6 550.5,605.1 557.3,610.6 564.1,625.3 570.9,626.2 577.8,621.5 584.6,608.6 591.4,605.4 598.2,611.3 605.1,608.4 611.9,593.4 618.7,596.2 625.5,589.4 632.4,592.1 639.2,587.6 646.0,583.6 652.8,583.6 659.6,587.2 666.5,599.5 673.3,588.4 680.1,590.2 686.9,573.4 693.8,546.4 700.6,544.6 707.4,545.1 714.2,552.4 721.1,541.6 727.9,553.7 734.7,570.2 741.5,566.1 748.4,579.8 755.2,566.8 762.0,564.4 768.8,568.2 775.6,561.8 782.5,561.4 789.3,542.8 796.1,564.6 802.9,569.3 809.8,581.5 816.6,577.7 823.4,546.8 830.2,530.4 837.1,542.9 843.9,543.9 850.7,552.3 857.5,554.5 864.4,568.1 871.2,576.0 878.0,578.3" fill="none" stroke="#2563eb" stroke-width="2"/>
<polyline points="66.0,620.1 72.8,608.4 79.6,570.1 86.5,562.5 93.3,559.4 100.1,551.0 106.9,558.3 113.8,566.8 120.6,574.7 127.4,583.4 134.2,561.6 141.1,558.0 147.9,569.9 154.7,560.0 161.5,550.8 168.4,565.6 175.2,571.7 182.0,592.7 188.8,596.4 195.6,592.5 202.5,586.7 209.3,593.2 216.1,583.2 222.9,586.0 229.8,590.6 236.6,598.0 243.4,603.0 250.2,594.1 257.1,606.7 263.9,600.1 270.7,614.2 277.5,621.1 284.4,623.8 291.2,614.5 298.0,597.1 304.8,575.4 311.6,566.3 318.5,564.8 325.3,554.0 332.1,553.1 338.9,560.5 345.8,559.0 352.6,543.4 359.4,523.1 366.2,531.5 373.1,532.6 379.9,546.3 386.7,573.5 393.5,580.0 400.4,577.3 407.2,582.5 414.0,585.4 420.8,594.3 427.6,603.1 434.5,599.3 441.3,592.3 448.1,598.6 454.9,594.2 461.8,598.7 468.6,588.7 475.4,590.3 482.2,586.8 489.1,580.9 495.9,573.3 502.7,566.8 509.5,583.7 516.4,586.1 523.2,590.9 530.0,591.6 536.8,595.8 543.6,598.6 550.5,605.1 557.3,610.6 564.1,625.3 570.9,626.2 577.8,621.5 584.6,608.6 591.4,605.4 598.2,611.3 605.1,608.4 611.9,593.4 618.7,596.2 625.5,589.4 632.4,592.1 639.2,587.6 646.0,583.6 652.8,583.6 659.6,587.2 666.5,599.5 673.3,588.4 680.1,590.2 686.9,573.4 693.8,546.4 700.6,544.6 707.4,545.1 714.2,552.4 721.1,541.6 727.9,553.7 734.7,570.2 741.5,566.1 748.4,579.8 755.2,566.8 762.0,564.4 768.8,568.2 775.6,561.8 782.5,561.4 789.3,542.8 796.1,564.6 802.9,569.3 809.8,581.5 816.6,577.7 823.4,546.8 830.2,530.4 837.1,542.9 843.9,543.9 850.7,552.3 857.5,554.5 864.4,568.1 871.2,576.0 878.0,578.3" fill="none" stroke="#ef4444" stroke-width="2" stroke-dasharray="6,3"/>
<line x1="66" y1="485" x2="66" y2="682.5" stroke="#333" stroke-width="1.5"/>
<line x1="66" y1="682.5" x2="878" y2="682.5" stroke="#333" stroke-width="1.5"/>
<line x1="61" y1="675.2" x2="66" y2="675.2" stroke="#333" stroke-width="1.5"/>
<text x="58" y="675.2" text-anchor="end" dominant-baseline="middle" fill="#333">-20</text>
<line x1="61" y1="650.5" x2="66" y2="650.5" stroke="#333" stroke-width="1.5"/>
<text x="58" y="650.5" text-anchor="end" dominant-baseline="middle" fill="#333">-15</text>
<line x1="61" y1="625.8" x2="66" y2="625.8" stroke="#333" stroke-width="1.5"/>
<text x="58" y="625.8" text-anchor="end" dominant-baseline="middle" fill="#333">-10</text>
<line x1="61" y1="601.1" x2="66" y2="601.1" stroke="#333" stroke-width="1.5"/>
<text x="58" y="601.1" text-anchor="end" dominant-baseline="middle" fill="#333">-5</text>
<line x1="61" y1="576.4" x2="66" y2="576.4" stroke="#333" stroke-width="1.5"/>
<text x="58" y="576.4" text-anchor="end" dominant-baseline="middle" fill="#333">0</text>
<line x1="61" y1="551.7" x2="66" y2="551.7" stroke="#333" stroke-width="1.5"/>
<text x="58" y="551.7" text-anchor="end" dominant-baseline="middle" fill="#333">5</text>
<line x1="61" y1="527.0" x2="66" y2="527.0" stroke="#333" stroke-width="1.5"/>
<text x="58" y="527.0" text-anchor="end" dominant-baseline="middle" fill="#333">10</text>
<line x1="61" y1="502.3" x2="66" y2="502.3" stroke="#333" stroke-width="1.5"/>
<text x="58" y="502.3" text-anchor="end" dominant-baseline="middle" fill="#333">15</text>
<text x="72" y="499" text-anchor="start" fill="#333" font-size="12" font-weight="600">AR(1) state x[4] ± 2σ  (φ = 0.85)</text>
<text x="14" y="583.75" text-anchor="middle" fill="#333" font-size="13" transform="rotate(-90,14,583.75)">AR state</text>
<line x1="66" y1="883.7" x2="878" y2="883.7" stroke="#e5e7eb" stroke-width="1"/>
<line x1="66" y1="840.1" x2="878" y2="840.1" stroke="#e5e7eb" stroke-width="1"/>
<line x1="66" y1="796.5" x2="878" y2="796.5" stroke="#e5e7eb" stroke-width="1"/>
<line x1="66" y1="752.9" x2="878" y2="752.9" stroke="#e5e7eb" stroke-width="1"/>
<path d="M66.0,825.6L72.8,826.5L79.6,806.0L86.5,813.1L93.3,820.6L100.1,817.0L106.9,820.2L113.8,818.0L120.6,811.5L127.4,805.8L134.2,776.4L141.1,769.7L147.9,784.0L154.7,785.3L161.5,791.0L168.4,818.1L175.2,833.8L182.0,856.5L188.8,856.5L195.6,843.2L202.5,824.5L209.3,816.8L216.1,797.9L222.9,796.8L229.8,804.5L236.6,821.3L243.4,839.5L250.2,845.4L257.1,866.7L263.9,864.6L270.7,873.6L277.5,869.9L284.4,858.5L291.2,836.5L298.0,810.8L304.8,787.6L311.6,783.0L318.5,791.5L325.3,795.5L332.1,808.3L338.9,824.9L345.8,827.1L352.6,809.4L359.4,781.2L366.2,774.9L373.1,762.1L379.9,764.2L386.7,784.7L393.5,794.0L400.4,801.4L407.2,819.7L414.0,835.8L420.8,853.7L427.6,865.0L434.5,857.8L441.3,841.3L448.1,833.1L454.9,815.1L461.8,808.8L468.6,795.8L475.4,800.6L482.2,807.1L489.1,815.2L495.9,821.7L502.7,825.6L509.5,844.0L516.4,842.1L523.2,835.9L530.0,822.4L536.8,811.9L543.6,803.9L550.5,805.5L557.3,813.5L564.1,836.1L570.9,850.0L577.8,858.9L584.6,856.7L591.4,856.8L598.2,857.7L605.1,844.4L611.9,816.4L618.7,804.5L625.5,787.5L632.4,785.4L639.2,784.2L646.0,789.8L652.8,802.6L659.6,818.7L666.5,838.8L673.3,831.6L680.1,828.7L686.9,802.6L693.8,763.9L700.6,747.6L707.4,737.1L714.2,739.0L721.1,732.1L727.9,752.0L734.7,779.5L741.5,788.6L748.4,810.0L755.2,801.1L762.0,794.3L768.8,786.7L775.6,766.4L782.5,751.4L789.3,723.9L796.1,738.7L802.9,745.7L809.8,765.7L816.6,775.1L823.4,760.2L830.2,754.7L837.1,768.7L843.9,765.0L850.7,761.6L857.5,749.0L864.4,746.6L871.2,742.8L878.0,739.5L878.0,762.7L871.2,764.3L864.4,768.0L857.5,770.4L850.7,783.0L843.9,786.4L837.1,790.1L830.2,776.1L823.4,781.6L816.6,796.5L809.8,787.2L802.9,767.1L796.1,760.1L789.3,745.3L782.5,772.8L775.6,787.8L768.8,808.1L762.0,815.7L755.2,822.5L748.4,831.4L741.5,810.0L734.7,800.9L727.9,773.5L721.1,753.5L714.2,760.4L707.4,758.5L700.6,769.0L693.8,785.3L686.9,824.1L680.1,850.1L673.3,853.0L666.5,860.2L659.6,840.1L652.8,824.1L646.0,811.2L639.2,805.6L632.4,806.9L625.5,809.0L618.7,825.9L611.9,837.8L605.1,865.8L598.2,879.1L591.4,878.2L584.6,878.1L577.8,880.3L570.9,871.4L564.1,857.5L557.3,835.0L550.5,826.9L543.6,825.3L536.8,833.3L530.0,843.8L523.2,857.4L516.4,863.5L509.5,865.4L502.7,847.0L495.9,843.2L489.1,836.6L482.2,828.6L475.4,822.0L468.6,817.3L461.8,830.2L454.9,836.6L448.1,854.5L441.3,862.8L434.5,879.3L427.6,886.4L420.8,875.1L414.0,857.2L407.2,841.1L400.4,822.9L393.5,815.4L386.7,806.1L379.9,785.6L373.1,783.5L366.2,796.3L359.4,802.7L352.6,830.8L345.8,848.6L338.9,846.3L332.1,829.7L325.3,816.9L318.5,812.9L311.6,804.4L304.8,809.0L298.0,832.3L291.2,857.9L284.4,879.9L277.5,891.3L270.7,895.1L263.9,886.0L257.1,888.1L250.2,866.8L243.4,860.9L236.6,842.7L229.8,825.9L222.9,818.2L216.1,819.3L209.3,838.2L202.5,845.9L195.6,864.6L188.8,877.9L182.0,877.9L175.2,855.2L168.4,839.5L161.5,812.4L154.7,806.7L147.9,805.4L141.1,791.1L134.2,797.8L127.4,827.2L120.6,832.9L113.8,839.4L106.9,841.6L100.1,838.4L93.3,842.0L86.5,834.6L79.6,827.5L72.8,848.0L66.0,849.5Z" fill="rgba(37,99,235,0.12)" stroke="none"/>
<path d="M66.0,825.6L72.8,826.5L79.6,806.0L86.5,813.1L93.3,820.6L100.1,817.0L106.9,820.2L113.8,818.0L120.6,811.5L127.4,805.8L134.2,776.4L141.1,769.7L147.9,784.0L154.7,785.3L161.5,791.0L168.4,818.1L175.2,833.8L182.0,856.5L188.8,856.5L195.6,843.2L202.5,824.5L209.3,816.8L216.1,797.9L222.9,796.8L229.8,804.5L236.6,821.3L243.4,839.5L250.2,845.4L257.1,866.7L263.9,864.6L270.7,873.6L277.5,869.9L284.4,858.5L291.2,836.5L298.0,810.8L304.8,787.6L311.6,783.0L318.5,791.5L325.3,795.5L332.1,808.3L338.9,824.9L345.8,827.1L352.6,809.4L359.4,781.2L366.2,774.9L373.1,762.1L379.9,764.2L386.7,784.7L393.5,794.0L400.4,801.4L407.2,819.7L414.0,835.8L420.8,853.7L427.6,865.0L434.5,857.8L441.3,841.3L448.1,833.1L454.9,815.1L461.8,808.8L468.6,795.8L475.4,800.6L482.2,807.1L489.1,815.2L495.9,821.7L502.7,825.6L509.5,844.0L516.4,842.1L523.2,835.9L530.0,822.4L536.8,811.9L543.6,803.9L550.5,805.5L557.3,813.5L564.1,836.1L570.9,850.0L577.8,858.9L584.6,856.7L591.4,856.8L598.2,857.7L605.1,844.4L611.9,816.4L618.7,804.5L625.5,787.5L632.4,785.4L639.2,784.2L646.0,789.8L652.8,802.6L659.6,818.7L666.5,838.8L673.3,831.6L680.1,828.7L686.9,802.6L693.8,763.9L700.6,747.6L707.4,737.1L714.2,739.0L721.1,732.1L727.9,752.0L734.7,779.5L741.5,788.6L748.4,810.0L755.2,801.1L762.0,794.3L768.8,786.7L775.6,766.4L782.5,751.4L789.3,723.9L796.1,738.7L802.9,745.7L809.8,765.7L816.6,775.1L823.4,760.2L830.2,754.7L837.1,768.7L843.9,765.0L850.7,761.6L857.5,749.0L864.4,746.6L871.2,742.8L878.0,739.5L878.0,762.7L871.2,764.3L864.4,768.0L857.5,770.4L850.7,783.0L843.9,786.4L837.1,790.1L830.2,776.1L823.4,781.6L816.6,796.5L809.8,787.2L802.9,767.1L796.1,760.1L789.3,745.3L782.5,772.8L775.6,787.8L768.8,808.1L762.0,815.7L755.2,822.5L748.4,831.4L741.5,810.0L734.7,800.9L727.9,773.5L721.1,753.5L714.2,760.4L707.4,758.5L700.6,769.0L693.8,785.3L686.9,824.1L680.1,850.1L673.3,853.0L666.5,860.2L659.6,840.1L652.8,824.1L646.0,811.2L639.2,805.6L632.4,806.9L625.5,809.0L618.7,825.9L611.9,837.8L605.1,865.8L598.2,879.1L591.4,878.2L584.6,878.1L577.8,880.3L570.9,871.4L564.1,857.5L557.3,835.0L550.5,826.9L543.6,825.3L536.8,833.3L530.0,843.8L523.2,857.4L516.4,863.5L509.5,865.4L502.7,847.0L495.9,843.2L489.1,836.6L482.2,828.6L475.4,822.0L468.6,817.3L461.8,830.2L454.9,836.6L448.1,854.5L441.3,862.8L434.5,879.3L427.6,886.4L420.8,875.1L414.0,857.2L407.2,841.1L400.4,822.9L393.5,815.4L386.7,806.1L379.9,785.6L373.1,783.5L366.2,796.3L359.4,802.7L352.6,830.8L345.8,848.6L338.9,846.3L332.1,829.7L325.3,816.9L318.5,812.9L311.6,804.4L304.8,809.0L298.0,832.3L291.2,857.9L284.4,879.9L277.5,891.3L270.7,895.1L263.9,886.0L257.1,888.1L250.2,866.8L243.4,860.9L236.6,842.7L229.8,825.9L222.9,818.2L216.1,819.3L209.3,838.2L202.5,845.9L195.6,864.6L188.8,877.9L182.0,877.9L175.2,855.2L168.4,839.5L161.5,812.4L154.7,806.7L147.9,805.4L141.1,791.1L134.2,797.8L127.4,827.2L120.6,832.9L113.8,839.4L106.9,841.6L100.1,838.4L93.3,842.0L86.5,834.6L79.6,827.5L72.8,848.0L66.0,849.5Z" fill="rgba(239,68,68,0.12)" stroke="none"/>
<polyline points="66.0,833.3 72.8,840.5 79.6,821.2 86.5,827.9 93.3,840.1 100.1,832.4 106.9,825.4 113.8,825.8 120.6,820.5 127.4,824.0 134.2,788.1 141.1,791.2 147.9,808.6 154.7,798.6 161.5,801.9 168.4,830.6 175.2,837.9 182.0,874.0 188.8,857.1 195.6,856.7 202.5,831.2 209.3,826.4 216.1,806.5 222.9,811.7 229.8,819.4 236.6,835.9 243.4,848.9 250.2,850.9 257.1,875.6 263.9,873.4 270.7,875.6 277.5,880.0 284.4,872.0 291.2,845.9 298.0,822.6 304.8,799.8 311.6,797.3 318.5,800.4 325.3,807.6 332.1,823.3 338.9,830.7 345.8,836.3 352.6,824.0 359.4,790.9 366.2,783.8 373.1,770.1 379.9,776.1 386.7,795.0 393.5,806.5 400.4,819.3 407.2,833.8 414.0,848.0 420.8,866.5 427.6,884.2 434.5,872.2 441.3,859.1 448.1,845.0 454.9,832.4 461.8,826.9 468.6,809.4 475.4,815.0 482.2,823.3 489.1,829.3 495.9,835.6 502.7,836.7 509.5,857.1 516.4,868.6 523.2,850.2 530.0,831.1 536.8,819.5 543.6,809.1 550.5,814.3 557.3,817.0 564.1,846.2 570.9,853.0 577.8,872.8 584.6,858.5 591.4,868.8 598.2,870.0 605.1,860.5 611.9,830.4 618.7,808.3 625.5,799.6 632.4,780.2 639.2,789.4 646.0,804.5 652.8,816.3 659.6,833.1 666.5,858.5 673.3,843.2 680.1,844.9 686.9,813.8 693.8,781.6 700.6,759.9 707.4,745.0 714.2,748.4 721.1,738.5 727.9,759.8 734.7,783.3 741.5,807.9 748.4,820.7 755.2,800.2 762.0,807.6 768.8,792.9 775.6,778.6 782.5,770.5 789.3,739.3 796.1,742.8 802.9,750.6 809.8,781.5 816.6,789.2 823.4,768.3 830.2,757.0 837.1,779.0 843.9,777.7 850.7,778.8 857.5,764.2 864.4,757.9 871.2,749.4 878.0,756.4" fill="none" stroke="#16a34a" stroke-width="1.5" stroke-dasharray="3,3"/>
<polyline points="66.0,837.5 72.8,837.2 79.6,816.7 86.5,823.8 93.3,831.3 100.1,827.7 106.9,830.9 113.8,828.7 120.6,822.2 127.4,816.5 134.2,787.1 141.1,780.4 147.9,794.7 154.7,796.0 161.5,801.7 168.4,828.8 175.2,844.5 182.0,867.2 188.8,867.2 195.6,853.9 202.5,835.2 209.3,827.5 216.1,808.6 222.9,807.5 229.8,815.2 236.6,832.0 243.4,850.2 250.2,856.1 257.1,877.4 263.9,875.3 270.7,884.4 277.5,880.6 284.4,869.2 291.2,847.2 298.0,821.5 304.8,798.3 311.6,793.7 318.5,802.2 325.3,806.2 332.1,819.0 338.9,835.6 345.8,837.8 352.6,820.1 359.4,791.9 366.2,785.6 373.1,772.8 379.9,774.9 386.7,795.4 393.5,804.7 400.4,812.1 407.2,830.4 414.0,846.5 420.8,864.4 427.6,875.7 434.5,868.5 441.3,852.1 448.1,843.8 454.9,825.8 461.8,819.5 468.6,806.5 475.4,811.3 482.2,817.8 489.1,825.9 495.9,832.4 502.7,836.3 509.5,854.7 516.4,852.8 523.2,846.6 530.0,833.1 536.8,822.6 543.6,814.6 550.5,816.2 557.3,824.2 564.1,846.8 570.9,860.7 577.8,869.6 584.6,867.4 591.4,867.5 598.2,868.4 605.1,855.1 611.9,827.1 618.7,815.2 625.5,798.3 632.4,796.1 639.2,794.9 646.0,800.5 652.8,813.4 659.6,829.4 666.5,849.5 673.3,842.3 680.1,839.4 686.9,813.4 693.8,774.6 700.6,758.3 707.4,747.8 714.2,749.7 721.1,742.8 727.9,762.7 734.7,790.2 741.5,799.3 748.4,820.7 755.2,811.8 762.0,805.0 768.8,797.4 775.6,777.1 782.5,762.1 789.3,734.6 796.1,749.4 802.9,756.4 809.8,776.4 816.6,785.8 823.4,770.9 830.2,765.4 837.1,779.4 843.9,775.7 850.7,772.3 857.5,759.7 864.4,757.3 871.2,753.5 878.0,751.1" fill="none" stroke="#2563eb" stroke-width="2"/>
<polyline points="66.0,837.5 72.8,837.2 79.6,816.7 86.5,823.8 93.3,831.3 100.1,827.7 106.9,830.9 113.8,828.7 120.6,822.2 127.4,816.5 134.2,787.1 141.1,780.4 147.9,794.7 154.7,796.0 161.5,801.7 168.4,828.8 175.2,844.5 182.0,867.2 188.8,867.2 195.6,853.9 202.5,835.2 209.3,827.5 216.1,808.6 222.9,807.5 229.8,815.2 236.6,832.0 243.4,850.2 250.2,856.1 257.1,877.4 263.9,875.3 270.7,884.4 277.5,880.6 284.4,869.2 291.2,847.2 298.0,821.5 304.8,798.3 311.6,793.7 318.5,802.2 325.3,806.2 332.1,819.0 338.9,835.6 345.8,837.8 352.6,820.1 359.4,791.9 366.2,785.6 373.1,772.8 379.9,774.9 386.7,795.4 393.5,804.7 400.4,812.1 407.2,830.4 414.0,846.5 420.8,864.4 427.6,875.7 434.5,868.5 441.3,852.1 448.1,843.8 454.9,825.8 461.8,819.5 468.6,806.5 475.4,811.3 482.2,817.8 489.1,825.9 495.9,832.4 502.7,836.3 509.5,854.7 516.4,852.8 523.2,846.6 530.0,833.1 536.8,822.6 543.6,814.6 550.5,816.2 557.3,824.2 564.1,846.8 570.9,860.7 577.8,869.6 584.6,867.4 591.4,867.5 598.2,868.4 605.1,855.1 611.9,827.1 618.7,815.2 625.5,798.3 632.4,796.1 639.2,794.9 646.0,800.5 652.8,813.4 659.6,829.4 666.5,849.5 673.3,842.3 680.1,839.4 686.9,813.4 693.8,774.6 700.6,758.3 707.4,747.8 714.2,749.7 721.1,742.8 727.9,762.7 734.7,790.2 741.5,799.3 748.4,820.7 755.2,811.8 762.0,805.0 768.8,797.4 775.6,777.1 782.5,762.1 789.3,734.6 796.1,749.4 802.9,756.4 809.8,776.4 816.6,785.8 823.4,770.9 830.2,765.4 837.1,779.4 843.9,775.7 850.7,772.3 857.5,759.7 864.4,757.3 871.2,753.5 878.0,751.1" fill="none" stroke="#ef4444" stroke-width="2" stroke-dasharray="6,3"/>
<circle cx="66.0" cy="838.9" r="2.0" fill="#555" opacity="0.50"/>
<circle cx="72.8" cy="844.7" r="2.0" fill="#555" opacity="0.50"/>
<circle cx="79.6" cy="808.4" r="2.0" fill="#555" opacity="0.50"/>
<circle cx="86.5" cy="822.5" r="2.0" fill="#555" opacity="0.50"/>
<circle cx="93.3" cy="832.7" r="2.0" fill="#555" opacity="0.50"/>
<circle cx="100.1" cy="823.2" r="2.0" fill="#555" opacity="0.50"/>
<circle cx="106.9" cy="830.4" r="2.0" fill="#555" opacity="0.50"/>
<circle cx="113.8" cy="828.8" r="2.0" fill="#555" opacity="0.50"/>
<circle cx="120.6" cy="821.9" r="2.0" fill="#555" opacity="0.50"/>
<circle cx="127.4" cy="824.8" r="2.0" fill="#555" opacity="0.50"/>
<circle cx="134.2" cy="782.0" r="2.0" fill="#555" opacity="0.50"/>
<circle cx="141.1" cy="776.1" r="2.0" fill="#555" opacity="0.50"/>
<circle cx="147.9" cy="800.5" r="2.0" fill="#555" opacity="0.50"/>
<circle cx="154.7" cy="795.7" r="2.0" fill="#555" opacity="0.50"/>
<circle cx="161.5" cy="795.0" r="2.0" fill="#555" opacity="0.50"/>
<circle cx="168.4" cy="831.1" r="2.0" fill="#555" opacity="0.50"/>
<circle cx="175.2" cy="840.5" r="2.0" fill="#555" opacity="0.50"/>
<circle cx="182.0" cy="872.0" r="2.0" fill="#555" opacity="0.50"/>
<circle cx="188.8" cy="869.4" r="2.0" fill="#555" opacity="0.50"/>
<circle cx="195.6" cy="854.5" r="2.0" fill="#555" opacity="0.50"/>
<circle cx="202.5" cy="831.9" r="2.0" fill="#555" opacity="0.50"/>
<circle cx="209.3" cy="832.1" r="2.0" fill="#555" opacity="0.50"/>
<circle cx="216.1" cy="805.2" r="2.0" fill="#555" opacity="0.50"/>
<circle cx="222.9" cy="807.0" r="2.0" fill="#555" opacity="0.50"/>
<circle cx="229.8" cy="814.6" r="2.0" fill="#555" opacity="0.50"/>
<circle cx="236.6" cy="832.8" r="2.0" fill="#555" opacity="0.50"/>
<circle cx="243.4" cy="854.1" r="2.0" fill="#555" opacity="0.50"/>
<circle cx="250.2" cy="850.4" r="2.0" fill="#555" opacity="0.50"/>
<circle cx="257.1" cy="882.9" r="2.0" fill="#555" opacity="0.50"/>
<circle cx="263.9" cy="869.8" r="2.0" fill="#555" opacity="0.50"/>
<circle cx="270.7" cy="886.6" r="2.0" fill="#555" opacity="0.50"/>
<circle cx="277.5" cy="882.0" r="2.0" fill="#555" opacity="0.50"/>
<circle cx="284.4" cy="872.8" r="2.0" fill="#555" opacity="0.50"/>
<circle cx="291.2" cy="849.6" r="2.0" fill="#555" opacity="0.50"/>
<circle cx="298.0" cy="822.9" r="2.0" fill="#555" opacity="0.50"/>
<circle cx="304.8" cy="794.8" r="2.0" fill="#555" opacity="0.50"/>
<circle cx="311.6" cy="791.7" r="2.0" fill="#555" opacity="0.50"/>
<circle cx="318.5" cy="804.6" r="2.0" fill="#555" opacity="0.50"/>
<circle cx="325.3" cy="803.4" r="2.0" fill="#555" opacity="0.50"/>
<circle cx="332.1" cy="816.5" r="2.0" fill="#555" opacity="0.50"/>
<circle cx="338.9" cy="837.9" r="2.0" fill="#555" opacity="0.50"/>
<circle cx="345.8" cy="841.5" r="2.0" fill="#555" opacity="0.50"/>
<circle cx="352.6" cy="821.1" r="2.0" fill="#555" opacity="0.50"/>
<circle cx="359.4" cy="783.8" r="2.0" fill="#555" opacity="0.50"/>
<circle cx="366.2" cy="787.2" r="2.0" fill="#555" opacity="0.50"/>
<circle cx="373.1" cy="769.1" r="2.0" fill="#555" opacity="0.50"/>
<circle cx="379.9" cy="771.0" r="2.0" fill="#555" opacity="0.50"/>
<circle cx="386.7" cy="800.9" r="2.0" fill="#555" opacity="0.50"/>
<circle cx="393.5" cy="807.2" r="2.0" fill="#555" opacity="0.50"/>
<circle cx="400.4" cy="810.0" r="2.0" fill="#555" opacity="0.50"/>
<circle cx="407.2" cy="831.0" r="2.0" fill="#555" opacity="0.50"/>
<circle cx="414.0" cy="845.0" r="2.0" fill="#555" opacity="0.50"/>
<circle cx="420.8" cy="864.5" r="2.0" fill="#555" opacity="0.50"/>
<circle cx="427.6" cy="879.3" r="2.0" fill="#555" opacity="0.50"/>
<circle cx="434.5" cy="869.6" r="2.0" fill="#555" opacity="0.50"/>
<circle cx="441.3" cy="848.6" r="2.0" fill="#555" opacity="0.50"/>
<circle cx="448.1" cy="846.8" r="2.0" fill="#555" opacity="0.50"/>
<circle cx="454.9" cy="823.6" r="2.0" fill="#555" opacity="0.50"/>
<circle cx="461.8" cy="823.5" r="2.0" fill="#555" opacity="0.50"/>
<circle cx="468.6" cy="803.5" r="2.0" fill="#555" opacity="0.50"/>
<circle cx="475.4" cy="812.7" r="2.0" fill="#555" opacity="0.50"/>
<circle cx="482.2" cy="818.6" r="2.0" fill="#555" opacity="0.50"/>
<circle cx="489.1" cy="826.4" r="2.0" fill="#555" opacity="0.50"/>
<circle cx="495.9" cy="832.1" r="2.0" fill="#555" opacity="0.50"/>
<circle cx="502.7" cy="829.9" r="2.0" fill="#555" opacity="0.50"/>
<circle cx="509.5" cy="858.7" r="2.0" fill="#555" opacity="0.50"/>
<circle cx="516.4" cy="852.2" r="2.0" fill="#555" opacity="0.50"/>
<circle cx="523.2" cy="847.9" r="2.0" fill="#555" opacity="0.50"/>
<circle cx="530.0" cy="832.3" r="2.0" fill="#555" opacity="0.50"/>
<circle cx="536.8" cy="823.2" r="2.0" fill="#555" opacity="0.50"/>
<circle cx="543.6" cy="813.7" r="2.0" fill="#555" opacity="0.50"/>
<circle cx="550.5" cy="816.6" r="2.0" fill="#555" opacity="0.50"/>
<circle cx="557.3" cy="822.0" r="2.0" fill="#555" opacity="0.50"/>
<circle cx="564.1" cy="850.9" r="2.0" fill="#555" opacity="0.50"/>
<circle cx="570.9" cy="862.6" r="2.0" fill="#555" opacity="0.50"/>
<circle cx="577.8" cy="872.1" r="2.0" fill="#555" opacity="0.50"/>
<circle cx="584.6" cy="865.0" r="2.0" fill="#555" opacity="0.50"/>
<circle cx="591.4" cy="865.3" r="2.0" fill="#555" opacity="0.50"/>
<circle cx="598.2" cy="871.0" r="2.0" fill="#555" opacity="0.50"/>
<circle cx="605.1" cy="858.6" r="2.0" fill="#555" opacity="0.50"/>
<circle cx="611.9" cy="822.4" r="2.0" fill="#555" opacity="0.50"/>
<circle cx="618.7" cy="817.9" r="2.0" fill="#555" opacity="0.50"/>
<circle cx="625.5" cy="795.8" r="2.0" fill="#555" opacity="0.50"/>
<circle cx="632.4" cy="798.2" r="2.0" fill="#555" opacity="0.50"/>
<circle cx="639.2" cy="794.9" r="2.0" fill="#555" opacity="0.50"/>
<circle cx="646.0" cy="799.4" r="2.0" fill="#555" opacity="0.50"/>
<circle cx="652.8" cy="812.4" r="2.0" fill="#555" opacity="0.50"/>
<circle cx="659.6" cy="827.1" r="2.0" fill="#555" opacity="0.50"/>
<circle cx="666.5" cy="856.0" r="2.0" fill="#555" opacity="0.50"/>
<circle cx="673.3" cy="838.9" r="2.0" fill="#555" opacity="0.50"/>
<circle cx="680.1" cy="844.6" r="2.0" fill="#555" opacity="0.50"/>
<circle cx="686.9" cy="816.1" r="2.0" fill="#555" opacity="0.50"/>
<circle cx="693.8" cy="767.6" r="2.0" fill="#555" opacity="0.50"/>
<circle cx="700.6" cy="757.4" r="2.0" fill="#555" opacity="0.50"/>
<circle cx="707.4" cy="745.8" r="2.0" fill="#555" opacity="0.50"/>
<circle cx="714.2" cy="754.4" r="2.0" fill="#555" opacity="0.50"/>
<circle cx="721.1" cy="736.4" r="2.0" fill="#555" opacity="0.50"/>
<circle cx="727.9" cy="761.4" r="2.0" fill="#555" opacity="0.50"/>
<circle cx="734.7" cy="795.8" r="2.0" fill="#555" opacity="0.50"/>
<circle cx="741.5" cy="794.4" r="2.0" fill="#555" opacity="0.50"/>
<circle cx="748.4" cy="827.9" r="2.0" fill="#555" opacity="0.50"/>
<circle cx="755.2" cy="808.9" r="2.0" fill="#555" opacity="0.50"/>
<circle cx="762.0" cy="803.3" r="2.0" fill="#555" opacity="0.50"/>
<circle cx="768.8" cy="800.1" r="2.0" fill="#555" opacity="0.50"/>
<circle cx="775.6" cy="775.4" r="2.0" fill="#555" opacity="0.50"/>
<circle cx="782.5" cy="766.9" r="2.0" fill="#555" opacity="0.50"/>
<circle cx="789.3" cy="723.4" r="2.0" fill="#555" opacity="0.50"/>
<circle cx="796.1" cy="753.9" r="2.0" fill="#555" opacity="0.50"/>
<circle cx="802.9" cy="754.3" r="2.0" fill="#555" opacity="0.50"/>
<circle cx="809.8" cy="780.8" r="2.0" fill="#555" opacity="0.50"/>
<circle cx="816.6" cy="793.1" r="2.0" fill="#555" opacity="0.50"/>
<circle cx="823.4" cy="766.8" r="2.0" fill="#555" opacity="0.50"/>
<circle cx="830.2" cy="757.3" r="2.0" fill="#555" opacity="0.50"/>
<circle cx="837.1" cy="782.3" r="2.0" fill="#555" opacity="0.50"/>
<circle cx="843.9" cy="773.4" r="2.0" fill="#555" opacity="0.50"/>
<circle cx="850.7" cy="773.8" r="2.0" fill="#555" opacity="0.50"/>
<circle cx="857.5" cy="756.5" r="2.0" fill="#555" opacity="0.50"/>
<circle cx="864.4" cy="758.8" r="2.0" fill="#555" opacity="0.50"/>
<circle cx="871.2" cy="755.0" r="2.0" fill="#555" opacity="0.50"/>
<circle cx="878.0" cy="751.8" r="2.0" fill="#555" opacity="0.50"/>
<line x1="66" y1="710.5" x2="66" y2="908" stroke="#333" stroke-width="1.5"/>
<line x1="66" y1="908" x2="878" y2="908" stroke="#333" stroke-width="1.5"/>
<line x1="61" y1="883.7" x2="66" y2="883.7" stroke="#333" stroke-width="1.5"/>
<text x="58" y="883.7" text-anchor="end" dominant-baseline="middle" fill="#333">90</text>
<line x1="61" y1="840.1" x2="66" y2="840.1" stroke="#333" stroke-width="1.5"/>
<text x="58" y="840.1" text-anchor="end" dominant-baseline="middle" fill="#333">100</text>
<line x1="61" y1="796.5" x2="66" y2="796.5" stroke="#333" stroke-width="1.5"/>
<text x="58" y="796.5" text-anchor="end" dominant-baseline="middle" fill="#333">110</text>
<line x1="61" y1="752.9" x2="66" y2="752.9" stroke="#333" stroke-width="1.5"/>
<text x="58" y="752.9" text-anchor="end" dominant-baseline="middle" fill="#333">120</text>
<line x1="141.1" y1="908" x2="141.1" y2="913" stroke="#333" stroke-width="1.5"/>
<text x="141.1" y="926" text-anchor="middle" fill="#333">1y</text>
<line x1="222.9" y1="908" x2="222.9" y2="913" stroke="#333" stroke-width="1.5"/>
<text x="222.9" y="926" text-anchor="middle" fill="#333">2y</text>
<line x1="304.8" y1="908" x2="304.8" y2="913" stroke="#333" stroke-width="1.5"/>
<text x="304.8" y="926" text-anchor="middle" fill="#333">3y</text>
<line x1="386.7" y1="908" x2="386.7" y2="913" stroke="#333" stroke-width="1.5"/>
<text x="386.7" y="926" text-anchor="middle" fill="#333">4y</text>
<line x1="468.6" y1="908" x2="468.6" y2="913" stroke="#333" stroke-width="1.5"/>
<text x="468.6" y="926" text-anchor="middle" fill="#333">5y</text>
<line x1="550.5" y1="908" x2="550.5" y2="913" stroke="#333" stroke-width="1.5"/>
<text x="550.5" y="926" text-anchor="middle" fill="#333">6y</text>
<line x1="632.4" y1="908" x2="632.4" y2="913" stroke="#333" stroke-width="1.5"/>
<text x="632.4" y="926" text-anchor="middle" fill="#333">7y</text>
<line x1="714.2" y1="908" x2="714.2" y2="913" stroke="#333" stroke-width="1.5"/>
<text x="714.2" y="926" text-anchor="middle" fill="#333">8y</text>
<line x1="796.1" y1="908" x2="796.1" y2="913" stroke="#333" stroke-width="1.5"/>
<text x="796.1" y="926" text-anchor="middle" fill="#333">9y</text>
<line x1="878.0" y1="908" x2="878.0" y2="913" stroke="#333" stroke-width="1.5"/>
<text x="878.0" y="926" text-anchor="middle" fill="#333">10y</text>
<text x="72" y="724.5" text-anchor="start" fill="#333" font-size="12" font-weight="600">Combined F·x = x[0]+x[2]+x[4] ± 2σ (covariance-aware)</text>
<text x="14" y="809.25" text-anchor="middle" fill="#333" font-size="13" transform="rotate(-90,14,809.25)">Demand</text>
<text x="450" y="952" text-anchor="middle" fill="#333" font-size="13">Month</text>
<rect x="318" y="54" width="308" height="78" rx="4" fill="white" stroke="#e5e7eb" stroke-width="1"/>
<circle cx="332" cy="68" r="3" fill="#555" opacity="0.6"/>
<text x="342" y="68" dominant-baseline="middle" fill="#333" font-size="11">Observations (synthetic energy demand)</text>
<line x1="326" y1="84" x2="338" y2="84" stroke="#16a34a" stroke-width="1.5" stroke-dasharray="3,3"/>
<text x="342" y="84" dominant-baseline="middle" fill="#333" font-size="11">True hidden state (generating process)</text>
<line x1="326" y1="100" x2="338" y2="100" stroke="#2563eb" stroke-width="2"/>
<rect x="326" y="95" width="12" height="10" fill="rgba(37,99,235,0.12)" stroke="none"/>
<text x="342" y="100" dominant-baseline="middle" fill="#333" font-size="11">dlm-js mean ± 2σ</text>
<line x1="326" y1="116" x2="338" y2="116" stroke="#ef4444" stroke-width="2" stroke-dasharray="6,3"/>
<rect x="326" y="111" width="12" height="10" fill="rgba(239,68,68,0.12)" stroke="none"/>
<text x="342" y="116" dominant-baseline="middle" fill="#333" font-size="11">MATLAB/Octave mean ± 2σ</text>
</svg>