<svg xmlns="http://www.w3.org/2000/svg" viewBox="0 0 900 960" font-family="system-ui,-apple-system,sans-serif" font-size="12">
<rect width="900" height="960" fill="white"/>
<text x="472" y="18" text-anchor="middle" fill="#333" font-size="14" font-weight="600">Synthetic energy demand — trend + seasonal + strong AR(1)</text>
<line x1="66" y1="216.6" x2="878" y2="216.6" stroke="#e5e7eb" stroke-width="1"/>
<line x1="66" y1="184.4" x2="878" y2="184.4" stroke="#e5e7eb" stroke-width="1"/>
<line x1="66" y1="152.1" x2="878" y2="152.1" stroke="#e5e7eb" stroke-width="1"/>
<line x1="66" y1="119.9" x2="878" y2="119.9" stroke="#e5e7eb" stroke-width="1"/>
<line x1="66" y1="87.7" x2="878" y2="87.7" stroke="#e5e7eb" stroke-width="1"/>
<line x1="66" y1="55.4" x2="878" y2="55.4" stroke="#e5e7eb" stroke-width="1"/>
<path d="M66.0,99.3L72.8,100.9L79.6,102.0L86.5,103.5L93.3,105.1L100.1,106.6L106.9,108.3L113.8,110.0L120.6,111.7L127.4,113.3L134.2,114.5L141.1,115.8L147.9,117.4L154.7,118.6L161.5,119.7L168.4,121.1L175.2,122.4L182.0,123.9L188.8,125.1L195.6,126.1L202.5,127.0L209.3,128.1L216.1,128.9L222.9,129.8L229.8,130.7L236.6,131.5L243.4,132.3L250.2,132.8L257.1,133.5L263.9,133.9L270.7,134.5L277.5,135.0L284.4,135.4L291.2,135.6L298.0,135.5L304.8,135.3L311.6,135.4L318.5,135.4L325.3,135.3L332.1,135.3L338.9,135.5L345.8,135.4L352.6,135.1L359.4,134.7L366.2,134.8L373.1,134.8L379.9,135.0L386.7,135.4L393.5,135.4L400.4,135.3L407.2,135.3L414.0,135.1L420.8,135.1L427.6,135.0L434.5,134.6L441.3,134.2L448.1,134.0L454.9,133.5L461.8,133.2L468.6,132.6L475.4,132.2L482.2,131.7L489.1,131.1L495.9,130.4L502.7,129.7L509.5,129.4L516.4,128.9L523.2,128.3L530.0,127.7L536.8,127.0L543.6,126.3L550.5,125.6L557.3,124.9L564.1,124.2L570.9,123.3L577.8,122.3L584.6,121.1L591.4,120.1L598.2,119.1L605.1,117.9L611.9,116.5L618.7,115.3L625.5,114.0L632.4,112.7L639.2,111.3L646.0,109.9L652.8,108.6L659.6,107.2L666.5,106.0L673.3,104.4L680.1,103.0L686.9,101.2L693.8,99.2L700.6,97.6L707.4,96.0L714.2,94.4L721.1,92.6L727.9,91.2L734.7,89.8L741.5,88.1L748.4,86.7L755.2,84.7L762.0,83.0L768.8,81.2L775.6,79.3L782.5,77.5L789.3,75.3L796.1,73.7L802.9,71.8L809.8,70.1L816.6,68.0L823.4,65.5L830.2,63.2L837.1,61.3L843.9,59.3L850.7,57.3L857.5,55.2L864.4,53.2L871.2,51.1L878.0,48.8L878.0,134.7L871.2,134.9L864.4,135.0L857.5,135.1L850.7,135.4L843.9,135.6L837.1,136.0L830.2,136.3L823.4,137.1L816.6,138.2L809.8,139.0L802.9,139.5L796.1,140.2L789.3,140.6L782.5,141.8L775.6,142.7L768.8,143.6L762.0,144.5L755.2,145.5L748.4,146.7L741.5,147.4L734.7,148.5L727.9,149.3L721.1,150.2L714.2,151.6L707.4,152.6L700.6,153.8L693.8,155.1L686.9,156.7L680.1,158.2L673.3,159.4L666.5,160.8L659.6,161.8L652.8,162.9L646.0,164.1L639.2,165.3L632.4,166.6L625.5,167.8L618.7,169.0L611.9,170.1L605.1,171.4L598.2,172.5L591.4,173.4L584.6,174.5L577.8,175.6L570.9,176.6L564.1,177.5L557.3,178.1L550.5,178.8L543.6,179.5L536.8,180.2L530.0,180.8L523.2,181.5L516.4,182.0L509.5,182.6L502.7,182.9L495.9,183.5L489.1,184.2L482.2,184.8L475.4,185.4L468.6,185.8L461.8,186.4L454.9,186.8L448.1,187.3L441.3,187.6L434.5,188.0L427.6,188.4L420.8,188.6L414.0,188.7L407.2,188.9L400.4,189.1L393.5,189.3L386.7,189.4L379.9,189.2L373.1,189.1L366.2,189.4L359.4,189.5L352.6,190.2L345.8,190.7L338.9,191.1L332.1,191.3L325.3,191.7L318.5,192.2L311.6,192.5L304.8,193.0L298.0,193.7L291.2,194.4L284.4,194.9L277.5,195.2L270.7,195.4L263.9,195.6L257.1,196.1L250.2,196.2L243.4,196.8L236.6,197.1L229.8,197.3L222.9,197.6L216.1,198.0L209.3,198.6L202.5,198.9L195.6,199.5L188.8,200.0L182.0,200.5L175.2,200.8L168.4,201.3L161.5,201.8L154.7,202.6L147.9,203.5L141.1,204.1L134.2,205.0L127.4,206.2L120.6,206.9L113.8,207.7L106.9,208.6L100.1,209.6L93.3,210.8L86.5,212.1L79.6,213.4L72.8,215.2L66.0,216.7Z" fill="rgba(37,99,235,0.12)" stroke="none"/>
<path d="M66.0,99.3L72.8,100.9L79.6,102.0L86.5,103.5L93.3,105.1L100.1,106.6L106.9,108.3L113.8,110.0L120.6,111.7L127.4,113.3L134.2,114.5L141.1,115.8L147.9,117.4L154.7,118.6L161.5,119.7L168.4,121.1L175.2,122.4L182.0,123.9L188.8,125.1L195.6,126.1L202.5,127.0L209.3,128.1L216.1,128.9L222.9,129.8L229.8,130.7L236.6,131.5L243.4,132.3L250.2,132.8L257.1,133.5L263.9,133.9L270.7,134.5L277.5,135.0L284.4,135.4L291.2,135.6L298.0,135.5L304.8,135.3L311.6,135.4L318.5,135.4L325.3,135.3L332.1,135.3L338.9,135.5L345.8,135.4L352.6,135.1L359.4,134.7L366.2,134.8L373.1,134.8L379.9,135.0L386.7,135.4L393.5,135.4L400.4,135.3L407.2,135.3L414.0,135.1L420.8,135.1L427.6,135.0L434.5,134.6L441.3,134.2L448.1,134.0L454.9,133.5L461.8,133.2L468.6,132.6L475.4,132.2L482.2,131.7L489.1,131.1L495.9,130.4L502.7,129.7L509.5,129.4L516.4,128.9L523.2,128.3L530.0,127.7L536.8,127.0L543.6,126.3L550.5,125.6L557.3,124.9L564.1,124.2L570.9,123.3L577.8,122.3L584.6,121.1L591.4,120.1L598.2,119.1L605.1,117.9L611.9,116.5L618.7,115.3L625.5,114.0L632.4,112.7L639.2,111.3L646.0,109.9L652.8,108.6L659.6,107.2L666.5,106.0L673.3,104.4L680.1,103.0L686.9,101.2L693.8,99.2L700.6,97.6L707.4,96.0L714.2,94.4L721.1,92.6L727.9,91.2L734.7,89.8L741.5,88.1L748.4,86.7L755.2,84.7L762.0,83.0L768.8,81.2L775.6,79.3L782.5,77.5L789.3,75.3L796.1,73.7L802.9,71.8L809.8,70.1L816.6,68.0L823.4,65.5L830.2,63.2L837.1,61.3L843.9,59.3L850.7,57.3L857.5,55.2L864.4,53.2L871.2,51.1L878.0,48.8L878.0,134.7L871.2,134.9L864.4,135.0L857.5,135.1L850.7,135.4L843.9,135.6L837.1,136.0L830.2,136.3L823.4,137.1L816.6,138.2L809.8,139.0L802.9,139.5L796.1,140.2L789.3,140.6L782.5,141.8L775.6,142.7L768.8,143.6L762.0,144.5L755.2,145.5L748.4,146.7L741.5,147.4L734.7,148.5L727.9,149.3L721.1,150.2L714.2,151.6L707.4,152.6L700.6,153.8L693.8,155.1L686.9,156.7L680.1,158.2L673.3,159.4L666.5,160.8L659.6,161.8L652.8,162.9L646.0,164.1L639.2,165.3L632.4,166.6L625.5,167.8L618.7,169.0L611.9,170.1L605.1,171.4L598.2,172.5L591.4,173.4L584.6,174.5L577.8,175.6L570.9,176.6L564.1,177.5L557.3,178.1L550.5,178.8L543.6,179.5L536.8,180.2L530.0,180.8L523.2,181.5L516.4,182.0L509.5,182.6L502.7,182.9L495.9,183.5L489.1,184.2L482.2,184.8L475.4,185.4L468.6,185.8L461.8,186.4L454.9,186.8L448.1,187.3L441.3,187.6L434.5,188.0L427.6,188.4L420.8,188.6L414.0,188.7L407.2,188.9L400.4,189.1L393.5,189.3L386.7,189.4L379.9,189.2L373.1,189.1L366.2,189.4L359.4,189.5L352.6,190.2L345.8,190.7L338.9,191.1L332.1,191.3L325.3,191.7L318.5,192.2L311.6,192.5L304.8,193.0L298.0,193.7L291.2,194.4L284.4,194.9L277.5,195.2L270.7,195.4L263.9,195.6L257.1,196.1L250.2,196.2L243.4,196.8L236.6,197.1L229.8,197.3L222.9,197.6L216.1,198.0L209.3,198.6L202.5,198.9L195.6,199.5L188.8,200.0L182.0,200.5L175.2,200.8L168.4,201.3L161.5,201.8L154.7,202.6L147.9,203.5L141.1,204.1L134.2,205.0L127.4,206.2L120.6,206.9L113.8,207.7L106.9,208.6L100.1,209.6L93.3,210.8L86.5,212.1L79.6,213.4L72.8,215.2L66.0,216.7Z" fill="rgba(239,68,68,0.12)" stroke="none"/>
<polyline points="66.0,183.1 72.8,180.3 79.6,182.0 86.5,181.3 93.3,181.5 100.1,182.0 106.9,181.5 113.8,183.3 120.6,181.6 127.4,187.7 134.2,188.6 141.1,187.5 147.9,186.8 154.7,188.4 161.5,184.8 168.4,184.0 175.2,180.6 182.0,181.3 188.8,181.2 195.6,181.8 202.5,181.7 209.3,181.4 216.1,178.8 222.9,178.4 229.8,177.5 236.6,179.9 243.4,177.5 250.2,177.0 257.1,181.1 263.9,181.1 270.7,182.5 277.5,182.2 284.4,178.3 291.2,176.8 298.0,173.3 304.8,173.0 311.6,170.8 318.5,165.5 325.3,163.1 332.1,165.4 338.9,165.9 345.8,165.3 352.6,163.8 359.4,165.5 366.2,163.8 373.1,163.2 379.9,166.7 386.7,170.4 393.5,168.1 400.4,165.1 407.2,167.0 414.0,164.1 420.8,163.5 427.6,164.5 434.5,165.5 441.3,163.9 448.1,162.2 454.9,161.4 461.8,161.8 468.6,158.8 475.4,161.1 482.2,163.2 489.1,160.3 495.9,161.6 502.7,159.6 509.5,155.5 516.4,157.8 523.2,157.0 530.0,153.3 536.8,152.1 543.6,148.7 550.5,150.4 557.3,148.4 564.1,148.4 570.9,148.0 577.8,146.2 584.6,148.3 591.4,147.9 598.2,145.1 605.1,145.1 611.9,143.0 618.7,142.1 625.5,136.6 632.4,136.6 639.2,136.5 646.0,136.2 652.8,135.9 659.6,136.8 666.5,134.0 673.3,132.8 680.1,129.4 686.9,126.7 693.8,121.5 700.6,118.0 707.4,116.5 714.2,114.3 721.1,114.1 727.9,111.9 734.7,110.8 741.5,110.1 748.4,111.6 755.2,106.6 762.0,101.9 768.8,100.6 775.6,99.2 782.5,97.7 789.3,97.7 796.1,98.1 802.9,96.4 809.8,93.5 816.6,92.6 823.4,89.9 830.2,88.4 837.1,90.3 843.9,89.6 850.7,89.8 857.5,89.0 864.4,87.3 871.2,86.9 878.0,83.8" fill="none" stroke="#16a34a" stroke-width="1.5" stroke-dasharray="3,3"/>
<polyline points="66.0,158.0 72.8,158.1 79.6,157.7 86.5,157.8 93.3,158.0 100.1,158.1 106.9,158.5 113.8,158.9 120.6,159.3 127.4,159.8 134.2,159.7 141.1,160.0 147.9,160.4 154.7,160.6 161.5,160.7 168.4,161.2 175.2,161.6 182.0,162.2 188.8,162.6 195.6,162.8 202.5,163.0 209.3,163.3 216.1,163.4 222.9,163.7 229.8,164.0 236.6,164.3 243.4,164.5 250.2,164.5 257.1,164.8 263.9,164.7 270.7,165.0 277.5,165.1 284.4,165.1 291.2,165.0 298.0,164.6 304.8,164.2 311.6,163.9 318.5,163.8 325.3,163.5 332.1,163.3 338.9,163.3 345.8,163.1 352.6,162.6 359.4,162.1 366.2,162.1 373.1,162.0 379.9,162.1 386.7,162.4 393.5,162.4 400.4,162.2 407.2,162.1 414.0,161.9 420.8,161.9 427.6,161.7 434.5,161.3 441.3,160.9 448.1,160.6 454.9,160.2 461.8,159.8 468.6,159.2 475.4,158.8 482.2,158.3 489.1,157.6 495.9,157.0 502.7,156.3 509.5,156.0 516.4,155.4 523.2,154.9 530.0,154.2 536.8,153.6 543.6,152.9 550.5,152.2 557.3,151.5 564.1,150.8 570.9,150.0 577.8,149.0 584.6,147.8 591.4,146.7 598.2,145.8 605.1,144.7 611.9,143.3 618.7,142.2 625.5,140.9 632.4,139.7 639.2,138.3 646.0,137.0 652.8,135.7 659.6,134.5 666.5,133.4 673.3,131.9 680.1,130.6 686.9,129.0 693.8,127.1 700.6,125.7 707.4,124.3 714.2,123.0 721.1,121.4 727.9,120.3 734.7,119.2 741.5,117.8 748.4,116.7 755.2,115.1 762.0,113.7 768.8,112.4 775.6,111.0 782.5,109.6 789.3,108.0 796.1,106.9 802.9,105.7 809.8,104.5 816.6,103.1 823.4,101.3 830.2,99.8 837.1,98.7 843.9,97.4 850.7,96.3 857.5,95.1 864.4,94.1 871.2,93.0 878.0,91.8" fill="none" stroke="#2563eb" stroke-width="2"/>
<polyline points="66.0,158.0 72.8,158.1 79.6,157.7 86.5,157.8 93.3,158.0 100.1,158.1 106.9,158.5 113.8,158.9 120.6,159.3 127.4,159.8 134.2,159.7 141.1,160.0 147.9,160.4 154.7,160.6 161.5,160.7 168.4,161.2 175.2,161.6 182.0,162.2 188.8,162.6 195.6,162.8 202.5,163.0 209.3,163.3 216.1,163.4 222.9,163.7 229.8,164.0 236.6,164.3 243.4,164.5 250.2,164.5 257.1,164.8 263.9,164.7 270.7,165.0 277.5,165.1 284.4,165.1 291.2,165.0 298.0,164.6 304.8,164.2 311.6,163.9 318.5,163.8 325.3,163.5 332.1,163.3 338.9,163.3 345.8,163.1 352.6,162.6 359.4,162.1 366.2,162.1 373.1,162.0 379.9,162.1 386.7,162.4 393.5,162.4 400.4,162.2 407.2,162.1 414.0,161.9 420.8,161.9 427.6,161.7 434.5,161.3 441.3,160.9 448.1,160.6 454.9,160.2 461.8,159.8 468.6,159.2 475.4,158.8 482.2,158.3 489.1,157.6 495.9,157.0 502.7,156.3 509.5,156.0 516.4,155.4 523.2,154.9 530.0,154.2 536.8,153.6 543.6,152.9 550.5,152.2 557.3,151.5 564.1,150.8 570.9,150.0 577.8,149.0 584.6,147.8 591.4,146.7 598.2,145.8 605.1,144.7 611.9,143.3 618.7,142.2 625.5,140.9 632.4,139.7 639.2,138.3 646.0,137.0 652.8,135.7 659.6,134.5 666.5,133.4 673.3,131.9 680.1,130.6 686.9,129.0 693.8,127.1 700.6,125.7 707.4,124.3 714.2,123.0 721.1,121.4 727.9,120.3 734.7,119.2 741.5,117.8 748.4,116.7 755.2,115.1 762.0,113.7 768.8,112.4 775.6,111.0 782.5,109.6 789.3,108.0 796.1,106.9 802.9,105.7 809.8,104.5 816.6,103.1 823.4,101.3 830.2,99.8 837.1,98.7 843.9,97.4 850.7,96.3 857.5,95.1 864.4,94.1 871.2,93.0 878.0,91.8" fill="none" stroke="#ef4444" stroke-width="2" stroke-dasharray="6,3"/>
<line x1="66" y1="34" x2="66" y2="231.5" stroke="#333" stroke-width="1.5"/>
<line x1="66" y1="231.5" x2="878" y2="231.5" stroke="#333" stroke-width="1.5"/>
<line x1="61" y1="216.6" x2="66" y2="216.6" stroke="#333" stroke-width="1.5"/>
<text x="58" y="216.6" text-anchor="end" dominant-baseline="middle" fill="#333">95</text>
<line x1="61" y1="184.4" x2="66" y2="184.4" stroke="#333" stroke-width="1.5"/>
<text x="58" y="184.4" text-anchor="end" dominant-baseline="middle" fill="#333">100</text>
<line x1="61" y1="152.1" x2="66" y2="152.1" stroke="#333" stroke-width="1.5"/>
<text x="58" y="152.1" text-anchor="end" dominant-baseline="middle" fill="#333">105</text>
<line x1="61" y1="119.9" x2="66" y2="119.9" stroke="#333" stroke-width="1.5"/>
<text x="58" y="119.9" text-anchor="end" dominant-baseline="middle" fill="#333">110</text>
<line x1="61" y1="87.7" x2="66" y2="87.7" stroke="#333" stroke-width="1.5"/>
<text x="58" y="87.7" text-anchor="end" dominant-baseline="middle" fill="#333">115</text>
<line x1="61" y1="55.4" x2="66" y2="55.4" stroke="#333" stroke-width="1.5"/>
<text x="58" y="55.4" text-anchor="end" dominant-baseline="middle" fill="#333">120</text>
<text x="72" y="48" text-anchor="start" fill="#333" font-size="12" font-weight="600">Smoothed level x[0] ± 2σ</text>
<text x="14" y="132.75" text-anchor="middle" fill="#333" font-size="13" transform="rotate(-90,14,132.75)">Level</text>
<line x1="66" y1="426.5" x2="878" y2="426.5" stroke="#e5e7eb" stroke-width="1"/>
<line x1="66" y1="392.7" x2="878" y2="392.7" stroke="#e5e7eb" stroke-width="1"/>
<line x1="66" y1="358.8" x2="878" y2="358.8" stroke="#e5e7eb" stroke-width="1"/>
<line x1="66" y1="324.9" x2="878" y2="324.9" stroke="#e5e7eb" stroke-width="1"/>
<line x1="66" y1="291.1" x2="878" y2="291.1" stroke="#e5e7eb" stroke-width="1"/>
<path d="M66.0,302.5L72.8,307.3L79.6,316.3L86.5,327.7L93.3,338.1L100.1,344.5L106.9,345.4L113.8,340.6L120.6,331.6L127.4,320.5L134.2,310.1L141.1,303.8L147.9,303.7L154.7,309.8L161.5,320.9L168.4,334.3L175.2,345.7L182.0,352.1L188.8,351.2L195.6,343.6L202.5,331.4L209.3,318.2L216.1,307.4L222.9,302.3L229.8,304.5L236.6,313.6L243.4,327.3L250.2,341.5L257.1,352.6L263.9,357.0L270.7,353.8L277.5,343.8L284.4,329.5L291.2,315.0L298.0,304.3L304.8,300.7L311.6,305.5L318.5,317.6L325.3,333.4L332.1,348.8L338.9,359.1L345.8,361.2L352.6,354.2L359.4,340.3L366.2,323.8L373.1,309.0L379.9,300.2L386.7,300.0L393.5,307.9L400.4,322.2L407.2,339.2L414.0,354.3L420.8,363.2L427.6,363.3L434.5,354.4L441.3,339.0L448.1,321.4L454.9,306.2L461.8,297.9L468.6,298.3L475.4,307.9L482.2,323.8L489.1,342.0L495.9,357.4L502.7,365.8L509.5,365.1L516.4,354.8L523.2,337.7L530.0,318.4L536.8,302.4L543.6,293.9L550.5,295.6L557.3,307.0L564.1,325.3L570.9,345.2L577.8,361.4L584.6,369.5L591.4,367.2L598.2,355.0L605.1,335.8L611.9,314.7L618.7,297.8L625.5,289.6L632.4,292.4L639.2,305.4L646.0,325.2L652.8,346.6L659.6,363.8L666.5,372.1L673.3,368.5L680.1,354.3L686.9,332.9L693.8,310.2L700.6,293.0L707.4,285.7L714.2,290.3L721.1,305.1L727.9,326.3L734.7,348.1L741.5,364.2L748.4,370.6L755.2,365.1L762.0,349.4L768.8,327.7L775.6,306.0L782.5,290.3L789.3,284.7L796.1,291.1L802.9,306.9L809.8,327.5L816.6,347.2L823.4,360.5L830.2,364.6L837.1,358.4L843.9,342.9L850.7,322.4L857.5,302.2L864.4,288.2L871.2,283.9L878.0,290.2L878.0,361.7L871.2,355.4L864.4,359.4L857.5,372.5L850.7,391.4L843.9,411.0L837.1,426.1L830.2,432.3L823.4,428.0L816.6,413.9L809.8,393.2L802.9,371.7L796.1,355.7L789.3,349.2L782.5,354.6L775.6,369.7L768.8,390.7L762.0,411.6L755.2,427.1L748.4,432.6L741.5,426.1L734.7,409.5L727.9,387.0L721.1,365.2L714.2,350.3L707.4,345.7L700.6,352.9L693.8,369.7L686.9,391.9L680.1,412.9L673.3,426.9L666.5,430.5L659.6,422.2L652.8,404.7L646.0,382.9L639.2,362.7L632.4,349.5L625.5,346.7L618.7,355.0L611.9,371.7L605.1,392.5L598.2,411.4L591.4,423.5L584.6,425.8L577.8,417.7L570.9,401.4L564.1,381.3L557.3,362.8L550.5,351.3L543.6,349.6L536.8,358.1L530.0,374.1L523.2,393.3L516.4,410.2L509.5,420.4L502.7,421.2L495.9,412.8L489.1,397.5L482.2,379.3L475.4,363.2L468.6,353.6L461.8,353.2L454.9,361.7L448.1,376.9L441.3,394.5L434.5,409.9L427.6,418.7L420.8,418.6L414.0,409.9L407.2,395.1L400.4,378.1L393.5,363.8L386.7,355.8L379.9,356.1L373.1,365.1L366.2,380.2L359.4,396.8L352.6,410.7L345.8,417.7L338.9,415.7L332.1,405.7L325.3,390.7L318.5,375.0L311.6,363.0L304.8,358.1L298.0,361.9L291.2,373.0L284.4,388.0L277.5,402.5L270.7,412.7L263.9,415.8L257.1,411.5L250.2,400.8L243.4,387.2L236.6,374.1L229.8,365.0L222.9,362.8L216.1,368.1L209.3,379.5L202.5,393.4L195.6,406.1L188.8,413.9L182.0,414.8L175.2,408.6L168.4,397.8L161.5,385.4L154.7,374.9L147.9,369.1L141.1,369.2L134.2,375.7L127.4,387.0L120.6,399.1L113.8,409.1L106.9,414.1L100.1,413.2L93.3,407.1L86.5,397.7L79.6,387.6L72.8,379.7L66.0,375.3Z" fill="rgba(37,99,235,0.12)" stroke="none"/>
<path d="M66.0,302.5L72.8,307.3L79.6,316.3L86.5,327.7L93.3,338.1L100.1,344.5L106.9,345.4L113.8,340.6L120.6,331.6L127.4,320.5L134.2,310.1L141.1,303.8L147.9,303.7L154.7,309.8L161.5,320.9L168.4,334.3L175.2,345.7L182.0,352.1L188.8,351.2L195.6,343.6L202.5,331.4L209.3,318.2L216.1,307.4L222.9,302.3L229.8,304.5L236.6,313.6L243.4,327.3L250.2,341.5L257.1,352.6L263.9,357.0L270.7,353.8L277.5,343.8L284.4,329.5L291.2,315.0L298.0,304.3L304.8,300.7L311.6,305.5L318.5,317.6L325.3,333.4L332.1,348.8L338.9,359.1L345.8,361.2L352.6,354.2L359.4,340.3L366.2,323.8L373.1,309.0L379.9,300.2L386.7,300.0L393.5,307.9L400.4,322.2L407.2,339.2L414.0,354.3L420.8,363.2L427.6,363.3L434.5,354.4L441.3,339.0L448.1,321.4L454.9,306.2L461.8,297.9L468.6,298.3L475.4,307.9L482.2,323.8L489.1,342.0L495.9,357.4L502.7,365.8L509.5,365.1L516.4,354.8L523.2,337.7L530.0,318.4L536.8,302.4L543.6,293.9L550.5,295.6L557.3,307.0L564.1,325.3L570.9,345.2L577.8,361.4L584.6,369.5L591.4,367.2L598.2,355.0L605.1,335.8L611.9,314.7L618.7,297.8L625.5,289.6L632.4,292.4L639.2,305.4L646.0,325.2L652.8,346.6L659.6,363.8L666.5,372.1L673.3,368.5L680.1,354.3L686.9,332.9L693.8,310.2L700.6,293.0L707.4,285.7L714.2,290.3L721.1,305.1L727.9,326.3L734.7,348.1L741.5,364.2L748.4,370.6L755.2,365.1L762.0,349.4L768.8,327.7L775.6,306.0L782.5,290.3L789.3,284.7L796.1,291.1L802.9,306.9L809.8,327.5L816.6,347.2L823.4,360.5L830.2,364.6L837.1,358.4L843.9,342.9L850.7,322.4L857.5,302.2L864.4,288.2L871.2,283.9L878.0,290.2L878.0,361.7L871.2,355.4L864.4,359.4L857.5,372.5L850.7,391.4L843.9,411.0L837.1,426.1L830.2,432.3L823.4,428.0L816.6,413.9L809.8,393.2L802.9,371.7L796.1,355.7L789.3,349.2L782.5,354.6L775.6,369.7L768.8,390.7L762.0,411.6L755.2,427.1L748.4,432.6L741.5,426.1L734.7,409.5L727.9,387.0L721.1,365.2L714.2,350.3L707.4,345.7L700.6,352.9L693.8,369.7L686.9,391.9L680.1,412.9L673.3,426.9L666.5,430.5L659.6,422.2L652.8,404.7L646.0,382.9L639.2,362.7L632.4,349.5L625.5,346.7L618.7,355.0L611.9,371.7L605.1,392.5L598.2,411.4L591.4,423.5L584.6,425.8L577.8,417.7L570.9,401.4L564.1,381.3L557.3,362.8L550.5,351.3L543.6,349.6L536.8,358.1L530.0,374.1L523.2,393.3L516.4,410.2L509.5,420.4L502.7,421.2L495.9,412.8L489.1,397.5L482.2,379.3L475.4,363.2L468.6,353.6L461.8,353.2L454.9,361.7L448.1,376.9L441.3,394.5L434.5,409.9L427.6,418.7L420.8,418.6L414.0,409.9L407.2,395.1L400.4,378.1L393.5,363.8L386.7,355.8L379.9,356.1L373.1,365.1L366.2,380.2L359.4,396.8L352.6,410.7L345.8,417.7L338.9,415.7L332.1,405.7L325.3,390.7L318.5,375.0L311.6,363.0L304.8,358.1L298.0,361.9L291.2,373.0L284.4,388.0L277.5,402.5L270.7,412.7L263.9,415.8L257.1,411.5L250.2,400.8L243.4,387.2L236.6,374.1L229.8,365.0L222.9,362.8L216.1,368.1L209.3,379.5L202.5,393.4L195.6,406.1L188.8,413.9L182.0,414.8L175.2,408.6L168.4,397.8L161.5,385.4L154.7,374.9L147.9,369.1L141.1,369.2L134.2,375.7L127.4,387.0L120.6,399.1L113.8,409.1L106.9,414.1L100.1,413.2L93.3,407.1L86.5,397.7L79.6,387.6L72.8,379.7L66.0,375.3Z" fill="rgba(239,68,68,0.12)" stroke="none"/>
<polyline points="66.0,360.6 72.8,361.7 79.6,359.1 86.5,357.5 93.3,352.0 100.1,352.5 106.9,351.0 113.8,352.6 120.6,359.1 127.4,362.7 134.2,368.7 141.1,370.2 147.9,363.8 154.7,362.2 161.5,359.4 168.4,353.5 175.2,349.0 182.0,346.1 188.8,347.0 195.6,349.6 202.5,350.5 209.3,353.6 216.1,354.6 222.9,363.6 229.8,365.3 236.6,370.6 243.4,370.9 250.2,366.9 257.1,367.0 263.9,361.9 270.7,354.2 277.5,348.5 284.4,345.0 291.2,348.1 298.0,347.3 304.8,353.4 311.6,364.1 318.5,373.1 325.3,379.1 332.1,380.1 338.9,377.6 345.8,371.2 352.6,359.5 359.4,345.6 366.2,331.0 373.1,328.6 379.9,334.8 386.7,346.4 393.5,359.7 400.4,370.0 407.2,378.7 414.0,384.2 420.8,384.9 427.6,378.3 434.5,363.3 441.3,349.8 448.1,335.4 454.9,332.0 461.8,336.1 468.6,342.6 475.4,350.9 482.2,361.2 489.1,366.3 495.9,370.0 502.7,375.1 509.5,378.1 516.4,370.7 523.2,364.3 530.0,356.0 536.8,351.0 543.6,343.0 550.5,338.9 557.3,344.2 564.1,354.8 570.9,365.6 577.8,377.1 584.6,381.1 591.4,379.6 598.2,373.0 605.1,362.8 611.9,348.6 618.7,342.9 625.5,336.6 632.4,334.1 639.2,337.0 646.0,354.3 652.8,370.7 659.6,383.9 666.5,389.8 673.3,386.1 680.1,373.4 686.9,364.6 693.8,353.4 700.6,340.3 707.4,332.9 714.2,333.3 721.1,339.7 727.9,351.7 734.7,365.1 741.5,376.8 748.4,386.8 755.2,381.2 762.0,370.7 768.8,357.5 775.6,348.0 782.5,338.3 789.3,337.3 796.1,339.1 802.9,346.9 809.8,360.4 816.6,370.2 823.4,376.6 830.2,380.6 837.1,373.4 843.9,365.5 850.7,355.9 857.5,342.8 864.4,338.8 871.2,342.3 878.0,353.9" fill="none" stroke="#16a34a" stroke-width="1.5" stroke-dasharray="3,3"/>
<polyline points="66.0,338.9 72.8,343.5 79.6,352.0 86.5,362.7 93.3,372.6 100.1,378.8 106.9,379.7 113.8,374.9 120.6,365.4 127.4,353.7 134.2,342.9 141.1,336.5 147.9,336.4 154.7,342.3 161.5,353.1 168.4,366.1 175.2,377.1 182.0,383.4 188.8,382.6 195.6,374.9 202.5,362.4 209.3,348.9 216.1,337.7 222.9,332.6 229.8,334.8 236.6,343.9 243.4,357.3 250.2,371.1 257.1,382.0 263.9,386.4 270.7,383.3 277.5,373.1 284.4,358.8 291.2,344.0 298.0,333.1 304.8,329.4 311.6,334.2 318.5,346.3 325.3,362.1 332.1,377.2 338.9,387.4 345.8,389.4 352.6,382.4 359.4,368.5 366.2,352.0 373.1,337.1 379.9,328.2 386.7,327.9 393.5,335.8 400.4,350.2 407.2,367.1 414.0,382.1 420.8,390.9 427.6,391.0 434.5,382.2 441.3,366.8 448.1,349.2 454.9,334.0 461.8,325.5 468.6,325.9 475.4,335.5 482.2,351.5 489.1,369.7 495.9,385.1 502.7,393.5 509.5,392.8 516.4,382.5 523.2,365.5 530.0,346.3 536.8,330.2 543.6,321.8 550.5,323.5 557.3,334.9 564.1,353.3 570.9,373.3 577.8,389.6 584.6,397.6 591.4,395.4 598.2,383.2 605.1,364.1 611.9,343.2 618.7,326.4 625.5,318.1 632.4,320.9 639.2,334.0 646.0,354.1 652.8,375.7 659.6,393.0 666.5,401.3 673.3,397.7 680.1,383.6 686.9,362.4 693.8,340.0 700.6,322.9 707.4,315.7 714.2,320.3 721.1,335.1 727.9,356.7 734.7,378.8 741.5,395.1 748.4,401.6 755.2,396.1 762.0,380.5 768.8,359.2 775.6,337.8 782.5,322.4 789.3,316.9 796.1,323.4 802.9,339.3 809.8,360.4 816.6,380.5 823.4,394.3 830.2,398.5 837.1,392.2 843.9,376.9 850.7,356.9 857.5,337.4 864.4,323.8 871.2,319.6 878.0,325.9" fill="none" stroke="#2563eb" stroke-width="2"/>
<polyline points="66.0,338.9 72.8,343.5 79.6,352.0 86.5,362.7 93.3,372.6 100.1,378.8 106.9,379.7 113.8,374.9 120.6,365.4 127.4,353.7 134.2,342.9 141.1,336.5 147.9,336.4 154.7,342.3 161.5,353.1 168.4,366.1 175.2,377.1 182.0,383.4 188.8,382.6 195.6,374.9 202.5,362.4 209.3,348.9 216.1,337.7 222.9,332.6 229.8,334.8 236.6,343.9 243.4,357.3 250.2,371.1 257.1,382.0 263.9,386.4 270.7,383.3 277.5,373.1 284.4,358.8 291.2,344.0 298.0,333.1 304.8,329.4 311.6,334.2 318.5,346.3 325.3,362.1 332.1,377.2 338.9,387.4 345.8,389.4 352.6,382.4 359.4,368.5 366.2,352.0 373.1,337.1 379.9,328.2 386.7,327.9 393.5,335.8 400.4,350.2 407.2,367.1 414.0,382.1 420.8,390.9 427.6,391.0 434.5,382.2 441.3,366.8 448.1,349.2 454.9,334.0 461.8,325.5 468.6,325.9 475.4,335.5 482.2,351.5 489.1,369.7 495.9,385.1 502.7,393.5 509.5,392.8 516.4,382.5 523.2,365.5 530.0,346.3 536.8,330.2 543.6,321.8 550.5,323.5 557.3,334.9 564.1,353.3 570.9,373.3 577.8,389.6 584.6,397.6 591.4,395.4 598.2,383.2 605.1,364.1 611.9,343.2 618.7,326.4 625.5,318.1 632.4,320.9 639.2,334.0 646.0,354.1 652.8,375.7 659.6,393.0 666.5,401.3 673.3,397.7 680.1,383.6 686.9,362.4 693.8,340.0 700.6,322.9 707.4,315.7 714.2,320.3 721.1,335.1 727.9,356.7 734.7,378.8 741.5,395.1 748.4,401.6 755.2,396.1 762.0,380.5 768.8,359.2 775.6,337.8 782.5,322.4 789.3,316.9 796.1,323.4 802.9,339.3 809.8,360.4 816.6,380.5 823.4,394.3 830.2,398.5 837.1,392.2 843.9,376.9 850.7,356.9 857.5,337.4 864.4,323.8 871.2,319.6 878.0,325.9" fill="none" stroke="#ef4444" stroke-width="2" stroke-dasharray="6,3"/>
<line x1="66" y1="259.5" x2="66" y2="457" stroke="#333" stroke-width="1.5"/>
<line x1="66" y1="457" x2="878" y2="457" stroke="#333" stroke-width="1.5"/>
<line x1="61" y1="426.5" x2="66" y2="426.5" stroke="#333" stroke-width="1.5"/>
<text x="58" y="426.5" text-anchor="end" dominant-baseline="middle" fill="#333">-4</text>
<line x1="61" y1="392.7" x2="66" y2="392.7" stroke="#333" stroke-width="1.5"/>
<text x="58" y="392.7" text-anchor="end" dominant-baseline="middle" fill="#333">-2</text>
<line x1="61" y1="358.8" x2="66" y2="358.8" stroke="#333" stroke-width="1.5"/>
<text x="58" y="358.8" text-anchor="end" dominant-baseline="middle" fill="#333">0</text>
<line x1="61" y1="324.9" x2="66" y2="324.9" stroke="#333" stroke-width="1.5"/>
<text x="58" y="324.9" text-anchor="end" dominant-baseline="middle" fill="#333">2</text>
<line x1="61" y1="291.1" x2="66" y2="291.1" stroke="#333" stroke-width="1.5"/>
<text x="58" y="291.1" text-anchor="end" dominant-baseline="middle" fill="#333">4</text>
<text x="72" y="273.5" text-anchor="start" fill="#333" font-size="12" font-weight="600">Seasonal x[2] ± 2σ  (trig harmonic k=1)</text>
<text x="14" y="358.25" text-anchor="middle" fill="#333" font-size="13" transform="rotate(-90,14,358.25)">Seasonal</text>
<line x1="66" y1="672.4" x2="878" y2="672.4" stroke="#e5e7eb" stroke-width="1"/>
<line x1="66" y1="624.6" x2="878" y2="624.6" stroke="#e5e7eb" stroke-width="1"/>
<line x1="66" y1="576.7" x2="878" y2="576.7" stroke="#e5e7eb" stroke-width="1"/>
<line x1="66" y1="528.9" x2="878" y2="528.9" stroke="#e5e7eb" stroke-width="1"/>
<path d="M66.0,572.0L72.8,564.4L79.6,528.9L86.5,522.6L93.3,519.5L100.1,511.6L106.9,518.6L113.8,527.3L120.6,536.3L127.4,546.4L134.2,527.6L141.1,525.8L147.9,537.7L154.7,528.8L161.5,520.0L168.4,533.6L175.2,538.6L182.0,558.3L188.8,562.1L195.6,559.2L202.5,554.6L209.3,562.5L216.1,554.3L222.9,559.4L229.8,565.0L236.6,573.3L243.4,578.1L250.2,568.6L257.1,580.3L263.9,572.7L270.7,585.2L277.5,591.4L284.4,594.2L291.2,586.7L298.0,570.8L304.8,551.3L311.6,544.4L318.5,544.0L325.3,533.9L332.1,532.5L338.9,538.7L345.8,536.1L352.6,519.5L359.4,498.3L366.2,505.0L373.1,506.4L379.9,521.2L386.7,549.3L393.5,557.3L400.4,555.5L407.2,561.0L414.0,564.1L420.8,572.6L427.6,580.3L434.5,575.2L441.3,567.1L448.1,572.0L454.9,567.9L461.8,573.0L468.6,563.9L475.4,565.6L482.2,562.3L489.1,556.1L495.9,548.6L502.7,543.2L509.5,561.0L516.4,563.9L523.2,569.4L530.0,570.4L536.8,574.3L543.6,575.5L550.5,579.9L557.3,584.1L564.1,597.9L570.9,598.9L577.8,595.3L584.6,583.7L591.4,581.6L598.2,588.2L605.1,585.9L611.9,571.0L618.7,573.6L625.5,565.8L632.4,566.4L639.2,560.3L646.0,556.6L652.8,557.5L659.6,562.1L666.5,575.1L673.3,565.1L680.1,567.3L686.9,552.0L693.8,526.2L700.6,523.1L707.4,521.8L714.2,526.8L721.1,514.5L727.9,525.1L734.7,540.8L741.5,537.7L748.4,552.9L755.2,541.3L762.0,539.8L768.8,543.9L775.6,537.9L782.5,536.5L789.3,517.2L796.1,536.1L802.9,538.6L809.8,549.2L816.6,544.6L823.4,514.7L830.2,499.8L837.1,512.4L843.9,514.2L850.7,522.8L857.5,524.4L864.4,537.0L871.2,544.1L878.0,546.4L878.0,613.1L871.2,610.7L864.4,602.8L857.5,589.6L850.7,587.5L843.9,578.2L837.1,575.6L830.2,562.0L823.4,575.7L816.6,604.2L809.8,607.3L802.9,595.4L796.1,591.8L789.3,572.2L782.5,591.0L775.6,592.1L768.8,597.9L762.0,593.5L755.2,594.8L748.4,606.0L741.5,590.1L734.7,592.6L727.9,576.1L721.1,564.9L714.2,576.7L707.4,571.4L700.6,572.6L693.8,575.6L686.9,601.4L680.1,616.7L673.3,614.4L666.5,624.3L659.6,611.0L652.8,606.1L646.0,605.0L639.2,608.5L632.4,614.4L625.5,613.7L618.7,621.5L611.9,619.0L605.1,633.9L598.2,636.2L591.4,629.6L584.6,631.6L577.8,643.2L570.9,646.7L564.1,645.6L557.3,631.7L550.5,627.5L543.6,623.1L536.8,621.9L530.0,618.0L523.2,617.0L516.4,611.5L509.5,608.6L502.7,590.9L495.9,596.2L489.1,603.7L482.2,610.0L475.4,613.3L468.6,611.6L461.8,620.7L454.9,615.6L448.1,619.7L441.3,614.8L434.5,622.8L427.6,628.0L420.8,620.4L414.0,612.0L407.2,609.1L400.4,603.7L393.5,605.6L386.7,597.7L379.9,569.6L373.1,554.9L366.2,553.4L359.4,546.8L352.6,568.1L345.8,584.8L338.9,587.7L332.1,581.8L325.3,583.7L318.5,594.3L311.6,595.1L304.8,602.3L298.0,622.0L291.2,638.0L284.4,645.8L277.5,643.1L270.7,637.3L263.9,625.3L257.1,633.5L250.2,622.8L243.4,633.3L236.6,629.6L229.8,622.2L222.9,617.4L216.1,612.9L209.3,621.6L202.5,614.2L195.6,619.4L188.8,623.1L182.0,620.3L175.2,602.1L168.4,598.8L161.5,587.2L154.7,597.8L147.9,608.4L141.1,598.0L134.2,600.9L127.4,620.8L120.6,611.7L113.8,603.8L106.9,596.6L100.1,591.4L93.3,601.6L86.5,607.4L79.6,616.7L72.8,655.5L66.0,669.2Z" fill="rgba(37,99,235,0.12)" stroke="none"/>
<path d="M66.0,572.0L72.8,564.4L79.6,528.9L86.5,522.6L93.3,519.5L100.1,511.6L106.9,518.6L113.8,527.3L120.6,536.3L127.4,546.4L134.2,527.6L141.1,525.8L147.9,537.7L154.7,528.8L161.5,520.0L168.4,533.6L175.2,538.6L182.0,558.3L188.8,562.1L195.6,559.2L202.5,554.6L209.3,562.5L216.1,554.3L222.9,559.4L229.8,565.0L236.6,573.3L243.4,578.1L250.2,568.6L257.1,580.3L263.9,572.7L270.7,585.2L277.5,591.4L284.4,594.2L291.2,586.7L298.0,570.8L304.8,551.3L311.6,544.4L318.5,544.0L325.3,533.9L332.1,532.5L338.9,538.7L345.8,536.1L352.6,519.5L359.4,498.3L366.2,505.0L373.1,506.4L379.9,521.2L386.7,549.3L393.5,557.3L400.4,555.5L407.2,561.0L414.0,564.1L420.8,572.6L427.6,580.3L434.5,575.2L441.3,567.1L448.1,572.0L454.9,567.9L461.8,573.0L468.6,563.9L475.4,565.6L482.2,562.3L489.1,556.1L495.9,548.6L502.7,543.2L509.5,561.0L516.4,563.9L523.2,569.4L530.0,570.4L536.8,574.3L543.6,575.5L550.5,579.9L557.3,584.1L564.1,597.9L570.9,598.9L577.8,595.3L584.6,583.7L591.4,581.6L598.2,588.2L605.1,585.9L611.9,571.0L618.7,573.6L625.5,565.8L632.4,566.4L639.2,560.3L646.0,556.6L652.8,557.5L659.6,562.1L666.5,575.1L673.3,565.1L680.1,567.3L686.9,552.0L693.8,526.2L700.6,523.1L707.4,521.8L714.2,526.8L721.1,514.5L727.9,525.1L734.7,540.8L741.5,537.7L748.4,552.9L755.2,541.3L762.0,539.8L768.8,543.9L775.6,537.9L782.5,536.5L789.3,517.2L796.1,536.1L802.9,538.6L809.8,549.2L816.6,544.6L823.4,514.7L830.2,499.8L837.1,512.4L843.9,514.2L850.7,522.8L857.5,524.4L864.4,537.0L871.2,544.1L878.0,546.4L878.0,613.1L871.2,610.7L864.4,602.8L857.5,589.6L850.7,587.5L843.9,578.2L837.1,575.6L830.2,562.0L823.4,575.7L816.6,604.2L809.8,607.3L802.9,595.4L796.1,591.8L789.3,572.2L782.5,591.0L775.6,592.1L768.8,597.9L762.0,593.5L755.2,594.8L748.4,606.0L741.5,590.1L734.7,592.6L727.9,576.1L721.1,564.9L714.2,576.7L707.4,571.4L700.6,572.6L693.8,575.6L686.9,601.4L680.1,616.7L673.3,614.4L666.5,624.3L659.6,611.0L652.8,606.1L646.0,605.0L639.2,608.5L632.4,614.4L625.5,613.7L618.7,621.5L611.9,619.0L605.1,633.9L598.2,636.2L591.4,629.6L584.6,631.6L577.8,643.2L570.9,646.7L564.1,645.6L557.3,631.7L550.5,627.5L543.6,623.1L536.8,621.9L530.0,618.0L523.2,617.0L516.4,611.5L509.5,608.6L502.7,590.9L495.9,596.2L489.1,603.7L482.2,610.0L475.4,613.3L468.6,611.6L461.8,620.7L454.9,615.6L448.1,619.7L441.3,614.8L434.5,622.8L427.6,628.0L420.8,620.4L414.0,612.0L407.2,609.1L400.4,603.7L393.5,605.6L386.7,597.7L379.9,569.6L373.1,554.9L366.2,553.4L359.4,546.8L352.6,568.1L345.8,584.8L338.9,587.7L332.1,581.8L325.3,583.7L318.5,594.3L311.6,595.1L304.8,602.3L298.0,622.0L291.2,638.0L284.4,645.8L277.5,643.1L270.7,637.3L263.9,625.3L257.1,633.5L250.2,622.8L243.4,633.3L236.6,629.6L229.8,622.2L222.9,617.4L216.1,612.9L209.3,621.6L202.5,614.2L195.6,619.4L188.8,623.1L182.0,620.3L175.2,602.1L168.4,598.8L161.5,587.2L154.7,597.8L147.9,608.4L141.1,598.0L134.2,600.9L127.4,620.8L120.6,611.7L113.8,603.8L106.9,596.6L100.1,591.4L93.3,601.6L86.5,607.4L79.6,616.7L72.8,655.5L66.0,669.2Z" fill="rgba(239,68,68,0.12)" stroke="none"/>
<polyline points="66.0,590.9 72.8,592.1 79.6,557.7 86.5,553.7 93.3,558.5 100.1,546.3 106.9,542.4 113.8,550.1 120.6,557.3 127.4,568.5 134.2,537.0 141.1,544.3 147.9,560.9 154.7,540.1 161.5,534.5 168.4,554.9 175.2,556.8 182.0,592.8 188.8,577.5 195.6,585.3 202.5,569.3 209.3,576.1 216.1,565.0 222.9,573.8 229.8,579.6 236.6,587.0 243.4,591.1 250.2,581.9 257.1,597.2 263.9,591.7 270.7,596.5 277.5,610.6 284.4,616.9 291.2,601.2 298.0,586.9 304.8,565.1 311.6,560.4 318.5,558.6 325.3,556.1 332.1,559.6 338.9,558.8 345.8,562.4 352.6,553.7 359.4,525.4 366.2,531.3 373.1,528.8 379.9,541.2 386.7,562.0 393.5,572.7 400.4,579.8 407.2,582.0 414.0,587.6 420.8,599.5 427.6,615.3 434.5,605.1 441.3,601.2 448.1,599.5 454.9,598.4 461.8,600.6 468.6,586.6 475.4,587.5 482.2,586.0 489.1,582.5 495.9,576.4 502.7,570.1 509.5,592.2 516.4,606.7 523.2,596.0 530.0,590.0 536.8,590.4 543.6,590.5 550.5,598.4 557.3,599.4 564.1,622.3 570.9,617.6 577.8,628.3 584.6,602.2 591.4,610.7 598.2,617.5 605.1,616.1 611.9,597.3 618.7,585.8 625.5,589.3 632.4,571.4 639.2,578.2 646.0,585.6 652.8,586.1 659.6,591.6 666.5,612.5 673.3,593.5 680.1,601.5 686.9,578.5 693.8,559.4 700.6,550.7 707.4,544.5 714.2,553.0 721.1,538.9 727.9,554.6 734.7,568.8 741.5,583.9 748.4,587.8 755.2,566.0 762.0,581.2 768.8,575.3 775.6,572.9 782.5,577.4 789.3,552.0 796.1,558.6 802.9,565.0 809.8,591.8 816.6,588.6 823.4,555.5 830.2,535.3 837.1,555.1 843.9,557.6 850.7,567.8 857.5,564.8 864.4,571.3 871.2,571.0 878.0,583.7" fill="none" stroke="#16a34a" stroke-width="1.5" stroke-dasharray="3,3"/>
<polyline points="66.0,620.6 72.8,609.9 79.6,572.8 86.5,565.0 93.3,560.6 100.1,551.5 106.9,557.6 113.8,565.5 120.6,574.0 127.4,583.6 134.2,564.3 141.1,561.9 147.9,573.0 154.7,563.3 161.5,553.6 168.4,566.2 175.2,570.4 182.0,589.3 188.8,592.6 195.6,589.3 202.5,584.4 209.3,592.0 216.1,583.6 222.9,588.4 229.8,593.6 236.6,601.5 243.4,605.7 250.2,595.7 257.1,606.9 263.9,599.0 270.7,611.2 277.5,617.3 284.4,620.0 291.2,612.3 298.0,596.4 304.8,576.8 311.6,569.8 318.5,569.2 325.3,558.8 332.1,557.1 338.9,563.2 345.8,560.5 352.6,543.8 359.4,522.6 366.2,529.2 373.1,530.7 379.9,545.4 386.7,573.5 393.5,581.4 400.4,579.6 407.2,585.0 414.0,588.0 420.8,596.5 427.6,604.2 434.5,599.0 441.3,590.9 448.1,595.9 454.9,591.7 461.8,596.9 468.6,587.7 475.4,589.5 482.2,586.2 489.1,579.9 495.9,572.4 502.7,567.1 509.5,584.8 516.4,587.7 523.2,593.2 530.0,594.2 536.8,598.1 543.6,599.3 550.5,603.7 557.3,607.9 564.1,621.7 570.9,622.8 577.8,619.2 584.6,607.6 591.4,605.6 598.2,612.2 605.1,609.9 611.9,595.0 618.7,597.6 625.5,589.7 632.4,590.4 639.2,584.4 646.0,580.8 652.8,581.8 659.6,586.5 666.5,599.7 673.3,589.8 680.1,592.0 686.9,576.7 693.8,550.9 700.6,547.9 707.4,546.6 714.2,551.7 721.1,539.7 727.9,550.6 734.7,566.7 741.5,563.9 748.4,579.4 755.2,568.0 762.0,566.7 768.8,570.9 775.6,565.0 782.5,563.8 789.3,544.7 796.1,563.9 802.9,567.0 809.8,578.3 816.6,574.4 823.4,545.2 830.2,530.9 837.1,544.0 843.9,546.2 850.7,555.1 857.5,557.0 864.4,569.9 871.2,577.4 878.0,579.7" fill="none" stroke="#2563eb" stroke-width="2"/>
<polyline points="66.0,620.6 72.8,609.9 79.6,572.8 86.5,565.0 93.3,560.6 100.1,551.5 106.9,557.6 113.8,565.5 120.6,574.0 127.4,583.6 134.2,564.3 141.1,561.9 147.9,573.0 154.7,563.3 161.5,553.6 168.4,566.2 175.2,570.4 182.0,589.3 188.8,592.6 195.6,589.3 202.5,584.4 209.3,592.0 216.1,583.6 222.9,588.4 229.8,593.6 236.6,601.5 243.4,605.7 250.2,595.7 257.1,606.9 263.9,599.0 270.7,611.2 277.5,617.3 284.4,620.0 291.2,612.3 298.0,596.4 304.8,576.8 311.6,569.8 318.5,569.2 325.3,558.8 332.1,557.1 338.9,563.2 345.8,560.5 352.6,543.8 359.4,522.6 366.2,529.2 373.1,530.7 379.9,545.4 386.7,573.5 393.5,581.4 400.4,579.6 407.2,585.0 414.0,588.0 420.8,596.5 427.6,604.2 434.5,599.0 441.3,590.9 448.1,595.9 454.9,591.7 461.8,596.9 468.6,587.7 475.4,589.5 482.2,586.2 489.1,579.9 495.9,572.4 502.7,567.1 509.5,584.8 516.4,587.7 523.2,593.2 530.0,594.2 536.8,598.1 543.6,599.3 550.5,603.7 557.3,607.9 564.1,621.7 570.9,622.8 577.8,619.2 584.6,607.6 591.4,605.6 598.2,612.2 605.1,609.9 611.9,595.0 618.7,597.6 625.5,589.7 632.4,590.4 639.2,584.4 646.0,580.8 652.8,581.8 659.6,586.5 666.5,599.7 673.3,589.8 680.1,592.0 686.9,576.7 693.8,550.9 700.6,547.9 707.4,546.6 714.2,551.7 721.1,539.7 727.9,550.6 734.7,566.7 741.5,563.9 748.4,579.4 755.2,568.0 762.0,566.7 768.8,570.9 775.6,565.0 782.5,563.8 789.3,544.7 796.1,563.9 802.9,567.0 809.8,578.3 816.6,574.4 823.4,545.2 830.2,530.9 837.1,544.0 843.9,546.2 850.7,555.1 857.5,557.0 864.4,569.9 871.2,577.4 878.0,579.7" fill="none" stroke="#ef4444" stroke-width="2" stroke-dasharray="6,3"/>
<line x1="66" y1="485" x2="66" y2="682.5" stroke="#333" stroke-width="1.5"/>
<line x1="66" y1="682.5" x2="878" y2="682.5" stroke="#333" stroke-width="1.5"/>
<line x1="61" y1="672.4" x2="66" y2="672.4" stroke="#333" stroke-width="1.5"/>
<text x="58" y="672.4" text-anchor="end" dominant-baseline="middle" fill="#333">-20</text>
<line x1="61" y1="624.6" x2="66" y2="624.6" stroke="#333" stroke-width="1.5"/>
<text x="58" y="624.6" text-anchor="end" dominant-baseline="middle" fill="#333">-10</text>
<line x1="61" y1="576.7" x2="66" y2="576.7" stroke="#333" stroke-width="1.5"/>
<text x="58" y="576.7" text-anchor="end" dominant-baseline="middle" fill="#333">0</text>
<line x1="61" y1="528.9" x2="66" y2="528.9" stroke="#333" stroke-width="1.5"/>
<text x="58" y="528.9" text-anchor="end" dominant-baseline="middle" fill="#333">10</text>
<text x="72" y="499" text-anchor="start" fill="#333" font-size="12" font-weight="600">AR(1) state x[4] ± 2σ  (φ = 0.85)</text>
<text x="14" y="583.75" text-anchor="middle" fill="#333" font-size="13" transform="rotate(-90,14,583.75)">AR state</text>
<line x1="66" y1="900.6" x2="878" y2="900.6" stroke="#e5e7eb" stroke-width="1"/>
<line x1="66" y1="874.3" x2="878" y2="874.3" stroke="#e5e7eb" stroke-width="1"/>
<line x1="66" y1="848.0" x2="878" y2="848.0" stroke="#e5e7eb" stroke-width="1"/>
<line x1="66" y1="821.7" x2="878" y2="821.7" stroke="#e5e7eb" stroke-width="1"/>
<line x1="66" y1="795.4" x2="878" y2="795.4" stroke="#e5e7eb" stroke-width="1"/>
<line x1="66" y1="769.1" x2="878" y2="769.1" stroke="#e5e7eb" stroke-width="1"/>
<line x1="66" y1="742.8" x2="878" y2="742.8" stroke="#e5e7eb" stroke-width="1"/>
<line x1="66" y1="716.5" x2="878" y2="716.5" stroke="#e5e7eb" stroke-width="1"/>
<path d="M66.0,854.0L72.8,845.3L79.6,806.8L86.5,801.7L93.3,800.1L100.1,792.1L106.9,799.4L113.8,806.9L120.6,813.7L127.4,821.0L134.2,796.3L141.1,791.9L147.9,804.5L154.7,795.7L161.5,788.6L168.4,806.9L175.2,815.2L182.0,838.5L188.8,842.1L195.6,836.2L202.5,827.2L209.3,831.6L216.1,819.0L222.9,822.9L229.8,829.6L236.6,841.3L243.4,850.2L250.2,843.6L257.1,859.5L263.9,852.1L270.7,864.8L277.5,868.4L284.4,867.0L291.2,853.8L298.0,832.6L304.8,809.6L311.6,803.1L318.5,806.1L325.3,799.4L332.1,802.1L338.9,811.9L345.8,809.4L352.6,788.5L359.4,760.4L366.2,762.5L373.1,759.4L379.9,772.9L386.7,804.0L393.5,815.2L400.4,817.4L407.2,828.6L414.0,836.4L420.8,848.4L427.6,856.8L434.5,848.0L441.3,834.0L448.1,833.7L454.9,824.1L461.8,826.8L468.6,816.5L475.4,821.0L482.2,821.9L489.1,820.1L495.9,816.1L502.7,812.3L509.5,831.4L516.4,830.9L523.2,831.2L530.0,825.8L536.8,824.6L543.6,822.7L550.5,827.5L557.3,835.1L564.1,855.5L570.9,862.1L577.8,862.5L584.6,851.3L591.4,847.5L598.2,850.2L605.1,840.8L611.9,816.8L618.7,813.5L625.5,801.2L632.4,801.9L639.2,798.2L646.0,799.5L652.8,806.2L659.6,815.8L666.5,832.0L673.3,818.7L680.1,815.7L686.9,791.0L693.8,754.1L700.6,744.4L707.4,739.5L714.2,745.5L721.1,735.7L727.9,753.4L734.7,777.1L741.5,777.9L748.4,796.1L755.2,780.6L762.0,773.1L768.8,770.1L775.6,755.8L782.5,748.5L789.3,724.5L796.1,746.8L802.9,754.1L809.8,772.1L816.6,773.0L823.4,743.6L830.2,727.9L837.1,739.6L843.9,736.2L850.7,738.9L857.5,733.9L864.4,743.0L871.2,749.0L878.0,751.5L878.0,779.6L871.2,775.0L864.4,768.9L857.5,759.8L850.7,764.8L843.9,762.1L837.1,765.5L830.2,753.8L823.4,769.5L816.6,798.9L809.8,798.0L802.9,779.9L796.1,772.7L789.3,750.4L782.5,774.4L775.6,781.7L768.8,795.9L762.0,799.0L755.2,806.5L748.4,822.0L741.5,803.8L734.7,802.9L727.9,779.3L721.1,761.5L714.2,771.4L707.4,765.4L700.6,770.2L693.8,780.0L686.9,816.8L680.1,841.5L673.3,844.6L666.5,857.8L659.6,841.7L652.8,832.1L646.0,825.3L639.2,824.1L632.4,827.7L625.5,827.1L618.7,839.4L611.9,842.7L605.1,866.7L598.2,876.0L591.4,873.3L584.6,877.2L577.8,888.4L570.9,888.0L564.1,881.4L557.3,861.0L550.5,853.3L543.6,848.6L536.8,850.5L530.0,851.6L523.2,857.1L516.4,856.8L509.5,857.2L502.7,838.2L495.9,842.0L489.1,846.0L482.2,847.7L475.4,846.8L468.6,842.3L461.8,852.7L454.9,850.0L448.1,859.6L441.3,859.9L434.5,873.9L427.6,882.7L420.8,874.3L414.0,862.3L407.2,854.5L400.4,843.3L393.5,841.1L386.7,829.9L379.9,798.8L373.1,785.3L366.2,788.4L359.4,786.3L352.6,814.3L345.8,835.2L338.9,837.8L332.1,828.0L325.3,825.2L318.5,832.0L311.6,829.0L304.8,835.4L298.0,858.5L291.2,879.7L284.4,892.8L277.5,894.2L270.7,890.7L263.9,878.0L257.1,885.3L250.2,869.4L243.4,876.1L236.6,867.1L229.8,855.4L222.9,848.8L216.1,844.9L209.3,857.5L202.5,853.0L195.6,862.1L188.8,868.0L182.0,864.4L175.2,841.1L168.4,832.8L161.5,814.5L154.7,821.6L147.9,830.4L141.1,817.8L134.2,822.2L127.4,846.9L120.6,839.6L113.8,832.8L106.9,825.3L100.1,818.0L93.3,826.0L86.5,827.6L79.6,832.7L72.8,871.3L66.0,883.0Z" fill="rgba(37,99,235,0.12)" stroke="none"/>
<path d="M66.0,854.0L72.8,845.3L79.6,806.8L86.5,801.7L93.3,800.1L100.1,792.1L106.9,799.4L113.8,806.9L120.6,813.7L127.4,821.0L134.2,796.3L141.1,791.9L147.9,804.5L154.7,795.7L161.5,788.6L168.4,806.9L175.2,815.2L182.0,838.5L188.8,842.1L195.6,836.2L202.5,827.2L209.3,831.6L216.1,819.0L222.9,822.9L229.8,829.6L236.6,841.3L243.4,850.2L250.2,843.6L257.1,859.5L263.9,852.1L270.7,864.8L277.5,868.4L284.4,867.0L291.2,853.8L298.0,832.6L304.8,809.6L311.6,803.1L318.5,806.1L325.3,799.4L332.1,802.1L338.9,811.9L345.8,809.4L352.6,788.5L359.4,760.4L366.2,762.5L373.1,759.4L379.9,772.9L386.7,804.0L393.5,815.2L400.4,817.4L407.2,828.6L414.0,836.4L420.8,848.4L427.6,856.8L434.5,848.0L441.3,834.0L448.1,833.7L454.9,824.1L461.8,826.8L468.6,816.5L475.4,821.0L482.2,821.9L489.1,820.1L495.9,816.1L502.7,812.3L509.5,831.4L516.4,830.9L523.2,831.2L530.0,825.8L536.8,824.6L543.6,822.7L550.5,827.5L557.3,835.1L564.1,855.5L570.9,862.1L577.8,862.5L584.6,851.3L591.4,847.5L598.2,850.2L605.1,840.8L611.9,816.8L618.7,813.5L625.5,801.2L632.4,801.9L639.2,798.2L646.0,799.5L652.8,806.2L659.6,815.8L666.5,832.0L673.3,818.7L680.1,815.7L686.9,791.0L693.8,754.1L700.6,744.4L707.4,739.5L714.2,745.5L721.1,735.7L727.9,753.4L734.7,777.1L741.5,777.9L748.4,796.1L755.2,780.6L762.0,773.1L768.8,770.1L775.6,755.8L782.5,748.5L789.3,724.5L796.1,746.8L802.9,754.1L809.8,772.1L816.6,773.0L823.4,743.6L830.2,727.9L837.1,739.6L843.9,736.2L850.7,738.9L857.5,733.9L864.4,743.0L871.2,749.0L878.0,751.5L878.0,779.6L871.2,775.0L864.4,768.9L857.5,759.8L850.7,764.8L843.9,762.1L837.1,765.5L830.2,753.8L823.4,769.5L816.6,798.9L809.8,798.0L802.9,779.9L796.1,772.7L789.3,750.4L782.5,774.4L775.6,781.7L768.8,795.9L762.0,799.0L755.2,806.5L748.4,822.0L741.5,803.8L734.7,802.9L727.9,779.3L721.1,761.5L714.2,771.4L707.4,765.4L700.6,770.2L693.8,780.0L686.9,816.8L680.1,841.5L673.3,844.6L666.5,857.8L659.6,841.7L652.8,832.1L646.0,825.3L639.2,824.1L632.4,827.7L625.5,827.1L618.7,839.4L611.9,842.7L605.1,866.7L598.2,876.0L591.4,873.3L584.6,877.2L577.8,888.4L570.9,888.0L564.1,881.4L557.3,861.0L550.5,853.3L543.6,848.6L536.8,850.5L530.0,851.6L523.2,857.1L516.4,856.8L509.5,857.2L502.7,838.2L495.9,842.0L489.1,846.0L482.2,847.7L475.4,846.8L468.6,842.3L461.8,852.7L454.9,850.0L448.1,859.6L441.3,859.9L434.5,873.9L427.6,882.7L420.8,874.3L414.0,862.3L407.2,854.5L400.4,843.3L393.5,841.1L386.7,829.9L379.9,798.8L373.1,785.3L366.2,788.4L359.4,786.3L352.6,814.3L345.8,835.2L338.9,837.8L332.1,828.0L325.3,825.2L318.5,832.0L311.6,829.0L304.8,835.4L298.0,858.5L291.2,879.7L284.4,892.8L277.5,894.2L270.7,890.7L263.9,878.0L257.1,885.3L250.2,869.4L243.4,876.1L236.6,867.1L229.8,855.4L222.9,848.8L216.1,844.9L209.3,857.5L202.5,853.0L195.6,862.1L188.8,868.0L182.0,864.4L175.2,841.1L168.4,832.8L161.5,814.5L154.7,821.6L147.9,830.4L141.1,817.8L134.2,822.2L127.4,846.9L120.6,839.6L113.8,832.8L106.9,825.3L100.1,818.0L93.3,826.0L86.5,827.6L79.6,832.7L72.8,871.3L66.0,883.0Z" fill="rgba(239,68,68,0.12)" stroke="none"/>
<polyline points="66.0,863.1 72.8,862.5 79.6,825.3 86.5,819.8 93.3,823.5 100.1,810.7 106.9,805.5 113.8,816.0 120.6,824.4 127.4,842.9 134.2,810.8 141.1,818.5 147.9,834.2 154.7,812.1 161.5,802.1 168.4,822.0 175.2,820.0 182.0,859.2 188.8,842.6 195.6,852.4 202.5,835.1 209.3,843.3 216.1,829.2 222.9,841.4 229.8,847.6 236.6,859.3 243.4,862.0 250.2,850.1 257.1,870.4 263.9,862.8 270.7,866.9 277.5,880.3 284.4,882.9 291.2,865.4 298.0,846.6 304.8,824.2 311.6,820.6 318.5,817.1 325.3,814.3 332.1,820.4 338.9,819.0 345.8,820.5 352.6,806.1 359.4,772.0 366.2,772.6 373.1,768.6 379.9,787.1 386.7,816.6 393.5,830.6 400.4,839.1 407.2,845.8 414.0,851.3 420.8,864.1 427.6,880.2 434.5,865.2 441.3,855.5 448.1,847.7 454.9,844.7 461.8,848.8 468.6,833.0 475.4,838.4 482.2,841.6 489.1,837.1 495.9,832.5 502.7,825.6 509.5,847.4 516.4,862.9 523.2,848.6 530.0,836.4 536.8,834.3 543.6,829.1 550.5,837.9 557.3,839.1 564.1,867.5 570.9,865.4 577.8,879.3 584.6,853.5 591.4,862.1 598.2,865.2 605.1,860.6 611.9,833.7 618.7,818.6 625.5,816.0 632.4,795.5 639.2,803.8 646.0,817.1 652.8,822.5 659.6,833.3 666.5,855.9 673.3,832.9 680.1,835.0 686.9,804.7 693.8,776.0 700.6,759.5 707.4,749.1 714.2,756.9 721.1,743.1 727.9,762.4 734.7,781.2 741.5,800.9 748.4,809.4 755.2,779.7 762.0,789.3 768.8,777.6 775.6,771.0 782.5,771.7 789.3,743.4 796.1,751.6 802.9,759.6 809.8,791.0 816.6,789.7 823.4,753.1 830.2,730.9 837.1,752.0 843.9,751.8 850.7,760.1 857.5,752.1 864.4,756.7 871.2,757.0 878.0,772.0" fill="none" stroke="#16a34a" stroke-width="1.5" stroke-dasharray="3,3"/>
<polyline points="66.0,868.5 72.8,858.3 79.6,819.8 86.5,814.6 93.3,813.0 100.1,805.0 106.9,812.3 113.8,819.9 120.6,826.6 127.4,833.9 134.2,809.3 141.1,804.9 147.9,817.5 154.7,808.7 161.5,801.5 168.4,819.8 175.2,828.1 182.0,851.4 188.8,855.1 195.6,849.2 202.5,840.1 209.3,844.6 216.1,831.9 222.9,835.8 229.8,842.5 236.6,854.2 243.4,863.2 250.2,856.5 257.1,872.4 263.9,865.1 270.7,877.7 277.5,881.3 284.4,879.9 291.2,866.7 298.0,845.6 304.8,822.5 311.6,816.1 318.5,819.0 325.3,812.3 332.1,815.0 338.9,824.9 345.8,822.3 352.6,801.4 359.4,773.3 366.2,775.5 373.1,772.3 379.9,785.8 386.7,817.0 393.5,828.1 400.4,830.4 407.2,841.6 414.0,849.4 420.8,861.4 427.6,869.7 434.5,860.9 441.3,846.9 448.1,846.7 454.9,837.0 461.8,839.8 468.6,829.4 475.4,833.9 482.2,834.8 489.1,833.1 495.9,829.1 502.7,825.3 509.5,844.3 516.4,843.9 523.2,844.1 530.0,838.7 536.8,837.5 543.6,835.6 550.5,840.4 557.3,848.0 564.1,868.4 570.9,875.1 577.8,875.4 584.6,864.2 591.4,860.4 598.2,863.1 605.1,853.8 611.9,829.7 618.7,826.5 625.5,814.2 632.4,814.8 639.2,811.2 646.0,812.4 652.8,819.1 659.6,828.8 666.5,844.9 673.3,831.7 680.1,828.6 686.9,803.9 693.8,767.0 700.6,757.3 707.4,752.5 714.2,758.5 721.1,748.6 727.9,766.3 734.7,790.0 741.5,790.9 748.4,809.1 755.2,793.5 762.0,786.0 768.8,783.0 775.6,768.7 782.5,761.5 789.3,737.4 796.1,759.7 802.9,767.0 809.8,785.0 816.6,785.9 823.4,756.6 830.2,740.9 837.1,752.5 843.9,749.2 850.7,751.9 857.5,746.8 864.4,755.9 871.2,762.0 878.0,765.5" fill="none" stroke="#2563eb" stroke-width="2"/>
<polyline points="66.0,868.5 72.8,858.3 79.6,819.8 86.5,814.6 93.3,813.0 100.1,805.0 106.9,812.3 113.8,819.9 120.6,826.6 127.4,833.9 134.2,809.3 141.1,804.9 147.9,817.5 154.7,808.7 161.5,801.5 168.4,819.8 175.2,828.1 182.0,851.4 188.8,855.1 195.6,849.2 202.5,840.1 209.3,844.6 216.1,831.9 222.9,835.8 229.8,842.5 236.6,854.2 243.4,863.2 250.2,856.5 257.1,872.4 263.9,865.1 270.7,877.7 277.5,881.3 284.4,879.9 291.2,866.7 298.0,845.6 304.8,822.5 311.6,816.1 318.5,819.0 325.3,812.3 332.1,815.0 338.9,824.9 345.8,822.3 352.6,801.4 359.4,773.3 366.2,775.5 373.1,772.3 379.9,785.8 386.7,817.0 393.5,828.1 400.4,830.4 407.2,841.6 414.0,849.4 420.8,861.4 427.6,869.7 434.5,860.9 441.3,846.9 448.1,846.7 454.9,837.0 461.8,839.8 468.6,829.4 475.4,833.9 482.2,834.8 489.1,833.1 495.9,829.1 502.7,825.3 509.5,844.3 516.4,843.9 523.2,844.1 530.0,838.7 536.8,837.5 543.6,835.6 550.5,840.4 557.3,848.0 564.1,868.4 570.9,875.1 577.8,875.4 584.6,864.2 591.4,860.4 598.2,863.1 605.1,853.8 611.9,829.7 618.7,826.5 625.5,814.2 632.4,814.8 639.2,811.2 646.0,812.4 652.8,819.1 659.6,828.8 666.5,844.9 673.3,831.7 680.1,828.6 686.9,803.9 693.8,767.0 700.6,757.3 707.4,752.5 714.2,758.5 721.1,748.6 727.9,766.3 734.7,790.0 741.5,790.9 748.4,809.1 755.2,793.5 762.0,786.0 768.8,783.0 775.6,768.7 782.5,761.5 789.3,737.4 796.1,759.7 802.9,767.0 809.8,785.0 816.6,785.9 823.4,756.6 830.2,740.9 837.1,752.5 843.9,749.2 850.7,751.9 857.5,746.8 864.4,755.9 871.2,762.0 878.0,765.5" fill="none" stroke="#ef4444" stroke-width="2" stroke-dasharray="6,3"/>
<circle cx="66.0" cy="869.9" r="2.0" fill="#555" opacity="0.50"/>
<circle cx="72.8" cy="867.5" r="2.0" fill="#555" opacity="0.50"/>
<circle cx="79.6" cy="809.9" r="2.0" fill="#555" opacity="0.50"/>
<circle cx="86.5" cy="813.4" r="2.0" fill="#555" opacity="0.50"/>
<circle cx="93.3" cy="814.5" r="2.0" fill="#555" opacity="0.50"/>
<circle cx="100.1" cy="799.7" r="2.0" fill="#555" opacity="0.50"/>
<circle cx="106.9" cy="811.5" r="2.0" fill="#555" opacity="0.50"/>
<circle cx="113.8" cy="819.6" r="2.0" fill="#555" opacity="0.50"/>
<circle cx="120.6" cy="826.2" r="2.0" fill="#555" opacity="0.50"/>
<circle cx="127.4" cy="843.8" r="2.0" fill="#555" opacity="0.50"/>
<circle cx="134.2" cy="803.4" r="2.0" fill="#555" opacity="0.50"/>
<circle cx="141.1" cy="800.2" r="2.0" fill="#555" opacity="0.50"/>
<circle cx="147.9" cy="824.4" r="2.0" fill="#555" opacity="0.50"/>
<circle cx="154.7" cy="808.5" r="2.0" fill="#555" opacity="0.50"/>
<circle cx="161.5" cy="793.8" r="2.0" fill="#555" opacity="0.50"/>
<circle cx="168.4" cy="822.6" r="2.0" fill="#555" opacity="0.50"/>
<circle cx="175.2" cy="823.1" r="2.0" fill="#555" opacity="0.50"/>
<circle cx="182.0" cy="856.8" r="2.0" fill="#555" opacity="0.50"/>
<circle cx="188.8" cy="857.5" r="2.0" fill="#555" opacity="0.50"/>
<circle cx="195.6" cy="849.8" r="2.0" fill="#555" opacity="0.50"/>
<circle cx="202.5" cy="835.9" r="2.0" fill="#555" opacity="0.50"/>
<circle cx="209.3" cy="850.1" r="2.0" fill="#555" opacity="0.50"/>
<circle cx="216.1" cy="827.6" r="2.0" fill="#555" opacity="0.50"/>
<circle cx="222.9" cy="835.8" r="2.0" fill="#555" opacity="0.50"/>
<circle cx="229.8" cy="841.8" r="2.0" fill="#555" opacity="0.50"/>
<circle cx="236.6" cy="855.6" r="2.0" fill="#555" opacity="0.50"/>
<circle cx="243.4" cy="868.2" r="2.0" fill="#555" opacity="0.50"/>
<circle cx="250.2" cy="849.5" r="2.0" fill="#555" opacity="0.50"/>
<circle cx="257.1" cy="879.1" r="2.0" fill="#555" opacity="0.50"/>
<circle cx="263.9" cy="858.5" r="2.0" fill="#555" opacity="0.50"/>
<circle cx="270.7" cy="880.2" r="2.0" fill="#555" opacity="0.50"/>
<circle cx="277.5" cy="882.8" r="2.0" fill="#555" opacity="0.50"/>
<circle cx="284.4" cy="883.8" r="2.0" fill="#555" opacity="0.50"/>
<circle cx="291.2" cy="869.8" r="2.0" fill="#555" opacity="0.50"/>
<circle cx="298.0" cy="847.0" r="2.0" fill="#555" opacity="0.50"/>
<circle cx="304.8" cy="818.3" r="2.0" fill="#555" opacity="0.50"/>
<circle cx="311.6" cy="813.8" r="2.0" fill="#555" opacity="0.50"/>
<circle cx="318.5" cy="822.2" r="2.0" fill="#555" opacity="0.50"/>
<circle cx="325.3" cy="809.2" r="2.0" fill="#555" opacity="0.50"/>
<circle cx="332.1" cy="812.2" r="2.0" fill="#555" opacity="0.50"/>
<circle cx="338.9" cy="827.7" r="2.0" fill="#555" opacity="0.50"/>
<circle cx="345.8" cy="826.8" r="2.0" fill="#555" opacity="0.50"/>
<circle cx="352.6" cy="802.6" r="2.0" fill="#555" opacity="0.50"/>
<circle cx="359.4" cy="763.5" r="2.0" fill="#555" opacity="0.50"/>
<circle cx="366.2" cy="776.8" r="2.0" fill="#555" opacity="0.50"/>
<circle cx="373.1" cy="767.4" r="2.0" fill="#555" opacity="0.50"/>
<circle cx="379.9" cy="781.0" r="2.0" fill="#555" opacity="0.50"/>
<circle cx="386.7" cy="823.7" r="2.0" fill="#555" opacity="0.50"/>
<circle cx="393.5" cy="831.4" r="2.0" fill="#555" opacity="0.50"/>
<circle cx="400.4" cy="827.9" r="2.0" fill="#555" opacity="0.50"/>
<circle cx="407.2" cy="842.5" r="2.0" fill="#555" opacity="0.50"/>
<circle cx="414.0" cy="847.6" r="2.0" fill="#555" opacity="0.50"/>
<circle cx="420.8" cy="861.8" r="2.0" fill="#555" opacity="0.50"/>
<circle cx="427.6" cy="874.3" r="2.0" fill="#555" opacity="0.50"/>
<circle cx="434.5" cy="862.1" r="2.0" fill="#555" opacity="0.50"/>
<circle cx="441.3" cy="842.7" r="2.0" fill="#555" opacity="0.50"/>
<circle cx="448.1" cy="849.9" r="2.0" fill="#555" opacity="0.50"/>
<circle cx="454.9" cy="834.1" r="2.0" fill="#555" opacity="0.50"/>
<circle cx="461.8" cy="844.8" r="2.0" fill="#555" opacity="0.50"/>
<circle cx="468.6" cy="825.8" r="2.0" fill="#555" opacity="0.50"/>
<circle cx="475.4" cy="835.7" r="2.0" fill="#555" opacity="0.50"/>
<circle cx="482.2" cy="835.9" r="2.0" fill="#555" opacity="0.50"/>
<circle cx="489.1" cy="833.5" r="2.0" fill="#555" opacity="0.50"/>
<circle cx="495.9" cy="828.3" r="2.0" fill="#555" opacity="0.50"/>
<circle cx="502.7" cy="817.4" r="2.0" fill="#555" opacity="0.50"/>
<circle cx="509.5" cy="849.4" r="2.0" fill="#555" opacity="0.50"/>
<circle cx="516.4" cy="843.1" r="2.0" fill="#555" opacity="0.50"/>
<circle cx="523.2" cy="845.8" r="2.0" fill="#555" opacity="0.50"/>
<circle cx="530.0" cy="837.9" r="2.0" fill="#555" opacity="0.50"/>
<circle cx="536.8" cy="838.7" r="2.0" fill="#555" opacity="0.50"/>
<circle cx="543.6" cy="834.7" r="2.0" fill="#555" opacity="0.50"/>
<circle cx="550.5" cy="840.7" r="2.0" fill="#555" opacity="0.50"/>
<circle cx="557.3" cy="845.1" r="2.0" fill="#555" opacity="0.50"/>
<circle cx="564.1" cy="873.1" r="2.0" fill="#555" opacity="0.50"/>
<circle cx="570.9" cy="877.0" r="2.0" fill="#555" opacity="0.50"/>
<circle cx="577.8" cy="878.5" r="2.0" fill="#555" opacity="0.50"/>
<circle cx="584.6" cy="861.3" r="2.0" fill="#555" opacity="0.50"/>
<circle cx="591.4" cy="857.7" r="2.0" fill="#555" opacity="0.50"/>
<circle cx="598.2" cy="866.4" r="2.0" fill="#555" opacity="0.50"/>
<circle cx="605.1" cy="858.3" r="2.0" fill="#555" opacity="0.50"/>
<circle cx="611.9" cy="824.0" r="2.0" fill="#555" opacity="0.50"/>
<circle cx="618.7" cy="830.2" r="2.0" fill="#555" opacity="0.50"/>
<circle cx="625.5" cy="811.4" r="2.0" fill="#555" opacity="0.50"/>
<circle cx="632.4" cy="817.2" r="2.0" fill="#555" opacity="0.50"/>
<circle cx="639.2" cy="810.4" r="2.0" fill="#555" opacity="0.50"/>
<circle cx="646.0" cy="810.9" r="2.0" fill="#555" opacity="0.50"/>
<circle cx="652.8" cy="817.9" r="2.0" fill="#555" opacity="0.50"/>
<circle cx="659.6" cy="826.0" r="2.0" fill="#555" opacity="0.50"/>
<circle cx="666.5" cy="852.9" r="2.0" fill="#555" opacity="0.50"/>
<circle cx="673.3" cy="827.7" r="2.0" fill="#555" opacity="0.50"/>
<circle cx="680.1" cy="834.6" r="2.0" fill="#555" opacity="0.50"/>
<circle cx="686.9" cy="807.5" r="2.0" fill="#555" opacity="0.50"/>
<circle cx="693.8" cy="759.1" r="2.0" fill="#555" opacity="0.50"/>
<circle cx="700.6" cy="756.5" r="2.0" fill="#555" opacity="0.50"/>
<circle cx="707.4" cy="750.0" r="2.0" fill="#555" opacity="0.50"/>
<circle cx="714.2" cy="764.0" r="2.0" fill="#555" opacity="0.50"/>
<circle cx="721.1" cy="740.6" r="2.0" fill="#555" opacity="0.50"/>
<circle cx="727.9" cy="764.3" r="2.0" fill="#555" opacity="0.50"/>
<circle cx="734.7" cy="796.3" r="2.0" fill="#555" opacity="0.50"/>
<circle cx="741.5" cy="784.6" r="2.0" fill="#555" opacity="0.50"/>
<circle cx="748.4" cy="818.1" r="2.0" fill="#555" opacity="0.50"/>
<circle cx="755.2" cy="790.1" r="2.0" fill="#555" opacity="0.50"/>
<circle cx="762.0" cy="784.1" r="2.0" fill="#555" opacity="0.50"/>
<circle cx="768.8" cy="786.3" r="2.0" fill="#555" opacity="0.50"/>
<circle cx="775.6" cy="767.1" r="2.0" fill="#555" opacity="0.50"/>
<circle cx="782.5" cy="767.3" r="2.0" fill="#555" opacity="0.50"/>
<circle cx="789.3" cy="724.3" r="2.0" fill="#555" opacity="0.50"/>
<circle cx="796.1" cy="765.1" r="2.0" fill="#555" opacity="0.50"/>
<circle cx="802.9" cy="764.1" r="2.0" fill="#555" opacity="0.50"/>
<circle cx="809.8" cy="790.1" r="2.0" fill="#555" opacity="0.50"/>
<circle cx="816.6" cy="794.5" r="2.0" fill="#555" opacity="0.50"/>
<circle cx="823.4" cy="751.2" r="2.0" fill="#555" opacity="0.50"/>
<circle cx="830.2" cy="731.3" r="2.0" fill="#555" opacity="0.50"/>
<circle cx="837.1" cy="755.9" r="2.0" fill="#555" opacity="0.50"/>
<circle cx="843.9" cy="746.6" r="2.0" fill="#555" opacity="0.50"/>
<circle cx="850.7" cy="754.1" r="2.0" fill="#555" opacity="0.50"/>
<circle cx="857.5" cy="742.9" r="2.0" fill="#555" opacity="0.50"/>
<circle cx="864.4" cy="757.7" r="2.0" fill="#555" opacity="0.50"/>
<circle cx="871.2" cy="763.7" r="2.0" fill="#555" opacity="0.50"/>
<circle cx="878.0" cy="766.5" r="2.0" fill="#555" opacity="0.50"/>
<line x1="66" y1="710.5" x2="66" y2="908" stroke="#333" stroke-width="1.5"/>
<line x1="66" y1="908" x2="878" y2="908" stroke="#333" stroke-width="1.5"/>
<line x1="61" y1="900.6" x2="66" y2="900.6" stroke="#333" stroke-width="1.5"/>
<text x="58" y="900.6" text-anchor="end" dominant-baseline="middle" fill="#333">90</text>
<line x1="61" y1="874.3" x2="66" y2="874.3" stroke="#333" stroke-width="1.5"/>
<text x="58" y="874.3" text-anchor="end" dominant-baseline="middle" fill="#333">95</text>
<line x1="61" y1="848.0" x2="66" y2="848.0" stroke="#333" stroke-width="1.5"/>
<text x="58" y="848.0" text-anchor="end" dominant-baseline="middle" fill="#333">100</text>
<line x1="61" y1="821.7" x2="66" y2="821.7" stroke="#333" stroke-width="1.5"/>
<text x="58" y="821.7" text-anchor="end" dominant-baseline="middle" fill="#333">105</text>
<line x1="61" y1="795.4" x2="66" y2="795.4" stroke="#333" stroke-width="1.5"/>
<text x="58" y="795.4" text-anchor="end" dominant-baseline="middle" fill="#333">110</text>
<line x1="61" y1="769.1" x2="66" y2="769.1" stroke="#333" stroke-width="1.5"/>
<text x="58" y="769.1" text-anchor="end" dominant-baseline="middle" fill="#333">115</text>
<line x1="61" y1="742.8" x2="66" y2="742.8" stroke="#333" stroke-width="1.5"/>
<text x="58" y="742.8" text-anchor="end" dominant-baseline="middle" fill="#333">120</text>
<line x1="61" y1="716.5" x2="66" y2="716.5" stroke="#333" stroke-width="1.5"/>
<text x="58" y="716.5" text-anchor="end" dominant-baseline="middle" fill="#333">125</text>
<line x1="141.1" y1="908" x2="141.1" y2="913" stroke="#333" stroke-width="1.5"/>
<text x="141.1" y="926" text-anchor="middle" fill="#333">1y</text>
<line x1="222.9" y1="908" x2="222.9" y2="913" stroke="#333" stroke-width="1.5"/>
<text x="222.9" y="926" text-anchor="middle" fill="#333">2y</text>
<line x1="304.8" y1="908" x2="304.8" y2="913" stroke="#333" stroke-width="1.5"/>
<text x="304.8" y="926" text-anchor="middle" fill="#333">3y</text>
<line x1="386.7" y1="908" x2="386.7" y2="913" stroke="#333" stroke-width="1.5"/>
<text x="386.7" y="926" text-anchor="middle" fill="#333">4y</text>
<line x1="468.6" y1="908" x2="468.6" y2="913" stroke="#333" stroke-width="1.5"/>
<text x="468.6" y="926" text-anchor="middle" fill="#333">5y</text>
<line x1="550.5" y1="908" x2="550.5" y2="913" stroke="#333" stroke-width="1.5"/>
<text x="550.5" y="926" text-anchor="middle" fill="#333">6y</text>
<line x1="632.4" y1="908" x2="632.4" y2="913" stroke="#333" stroke-width="1.5"/>
<text x="632.4" y="926" text-anchor="middle" fill="#333">7y</text>
<line x1="714.2" y1="908" x2="714.2" y2="913" stroke="#333" stroke-width="1.5"/>
<text x="714.2" y="926" text-anchor="middle" fill="#333">8y</text>
<line x1="796.1" y1="908" x2="796.1" y2="913" stroke="#333" stroke-width="1.5"/>
<text x="796.1" y="926" text-anchor="middle" fill="#333">9y</text>
<line x1="878.0" y1="908" x2="878.0" y2="913" stroke="#333" stroke-width="1.5"/>
<text x="878.0" y="926" text-anchor="middle" fill="#333">10y</text>
<text x="72" y="724.5" text-anchor="start" fill="#333" font-size="12" font-weight="600">Combined F·x = x[0]+x[2]+x[4] ± 2σ (covariance-aware)</text>
<text x="14" y="809.25" text-anchor="middle" fill="#333" font-size="13" transform="rotate(-90,14,809.25)">Demand</text>
<text x="450" y="952" text-anchor="middle" fill="#333" font-size="13">Month</text>
<rect x="318" y="54" width="308" height="78" rx="4" fill="white" stroke="#e5e7eb" stroke-width="1"/>
<circle cx="332" cy="68" r="3" fill="#555" opacity="0.6"/>
<text x="342" y="68" dominant-baseline="middle" fill="#333" font-size="11">Observations (synthetic energy demand)</text>
<line x1="326" y1="84" x2="338" y2="84" stroke="#16a34a" stroke-width="1.5" stroke-dasharray="3,3"/>
<text x="342" y="84" dominant-baseline="middle" fill="#333" font-size="11">True hidden state (generating process)</text>
<line x1="326" y1="100" x2="338" y2="100" stroke="#2563eb" stroke-width="2"/>
<rect x="326" y="95" width="12" height="10" fill="rgba(37,99,235,0.12)" stroke="none"/>
<text x="342" y="100" dominant-baseline="middle" fill="#333" font-size="11">dlm-js mean ± 2σ</text>
<line x1="326" y1="116" x2="338" y2="116" stroke="#ef4444" stroke-width="2" stroke-dasharray="6,3"/>
<rect x="326" y="111" width="12" height="10" fill="rgba(239,68,68,0.12)" stroke="none"/>
<text x="342" y="116" dominant-baseline="middle" fill="#333" font-size="11">MATLAB/Octave mean ± 2σ</text>
</svg>