<svg xmlns="http://www.w3.org/2000/svg" viewBox="0 0 900 960" font-family="system-ui,-apple-system,sans-serif" font-size="12">
<rect width="900" height="960" fill="white"/>
<text x="472" y="18" text-anchor="middle" fill="#333" font-size="14" font-weight="600">Synthetic energy demand — trend + seasonal + strong AR(1)</text>
<line x1="66" y1="209.4" x2="878" y2="209.4" stroke="#e5e7eb" stroke-width="1"/>
<line x1="66" y1="167.1" x2="878" y2="167.1" stroke="#e5e7eb" stroke-width="1"/>
<line x1="66" y1="124.8" x2="878" y2="124.8" stroke="#e5e7eb" stroke-width="1"/>
<line x1="66" y1="82.4" x2="878" y2="82.4" stroke="#e5e7eb" stroke-width="1"/>
<line x1="66" y1="40.1" x2="878" y2="40.1" stroke="#e5e7eb" stroke-width="1"/>
<path d="M66.0,155.1L72.8,157.2L79.6,158.7L86.5,160.8L93.3,162.8L100.1,164.7L106.9,166.8L113.8,168.9L120.6,170.8L127.4,172.5L134.2,173.5L141.1,174.9L147.9,176.3L154.7,177.2L161.5,178.2L168.4,179.4L175.2,180.4L182.0,181.5L188.8,182.1L195.6,182.5L202.5,182.9L209.3,183.4L216.1,183.6L222.9,183.9L229.8,184.1L236.6,184.2L243.4,184.1L250.2,183.7L257.1,183.5L263.9,182.9L270.7,182.6L277.5,181.9L284.4,181.0L291.2,179.8L298.0,178.5L304.8,177.2L311.6,176.2L318.5,175.3L325.3,174.4L332.1,173.7L338.9,173.1L345.8,172.4L352.6,171.6L359.4,170.9L366.2,171.0L373.1,170.9L379.9,171.2L386.7,171.6L393.5,171.5L400.4,171.1L407.2,170.8L414.0,170.5L420.8,170.1L427.6,169.6L434.5,168.8L441.3,168.0L448.1,167.4L454.9,166.6L461.8,165.9L468.6,165.0L475.4,164.3L482.2,163.6L489.1,162.8L495.9,162.1L502.7,161.5L509.5,161.3L516.4,160.6L523.2,159.9L530.0,159.1L536.8,158.3L543.6,157.4L550.5,156.4L557.3,155.2L564.1,154.0L570.9,152.4L577.8,150.7L584.6,148.7L591.4,146.9L598.2,145.1L605.1,143.0L611.9,140.6L618.7,138.5L625.5,136.3L632.4,134.1L639.2,131.8L646.0,129.4L652.8,127.1L659.6,124.8L666.5,122.6L673.3,119.9L680.1,117.4L686.9,114.6L693.8,111.7L700.6,109.4L707.4,107.2L714.2,105.2L721.1,102.9L727.9,101.1L734.7,99.3L741.5,97.1L748.4,95.2L755.2,92.8L762.0,90.6L768.8,88.4L775.6,86.1L782.5,83.8L789.3,81.2L796.1,79.5L802.9,77.3L809.8,75.2L816.6,72.7L823.4,69.9L830.2,67.5L837.1,65.7L843.9,63.5L850.7,61.2L857.5,58.7L864.4,56.3L871.2,53.6L878.0,50.7L878.0,100.6L871.2,101.0L864.4,101.4L857.5,101.7L850.7,102.3L843.9,102.8L837.1,103.6L830.2,104.2L823.4,105.4L816.6,107.4L809.8,109.1L802.9,110.5L796.1,112.1L789.3,113.4L782.5,115.6L775.6,117.6L768.8,119.7L762.0,121.7L755.2,123.7L748.4,125.9L741.5,127.8L734.7,129.9L727.9,131.6L721.1,133.4L714.2,135.7L707.4,137.7L700.6,139.9L693.8,142.2L686.9,145.0L680.1,147.8L673.3,150.3L666.5,153.0L659.6,155.3L652.8,157.6L646.0,159.9L639.2,162.2L632.4,164.5L625.5,166.7L618.7,169.0L611.9,171.0L605.1,173.4L598.2,175.5L591.4,177.3L584.6,179.1L577.8,181.1L570.9,182.8L564.1,184.4L557.3,185.6L550.5,186.8L543.6,187.8L536.8,188.7L530.0,189.5L523.2,190.3L516.4,191.0L509.5,191.6L502.7,191.9L495.9,192.5L489.1,193.2L482.2,194.0L475.4,194.7L468.6,195.4L461.8,196.3L454.9,197.0L448.1,197.8L441.3,198.4L434.5,199.2L427.6,200.0L420.8,200.5L414.0,200.9L407.2,201.2L400.4,201.5L393.5,201.9L386.7,202.0L379.9,201.6L373.1,201.4L366.2,201.4L359.4,201.4L352.6,202.1L345.8,202.9L338.9,203.5L332.1,204.1L325.3,204.9L318.5,205.8L311.6,206.6L304.8,207.6L298.0,208.9L291.2,210.2L284.4,211.5L277.5,212.4L270.7,213.0L263.9,213.4L257.1,214.0L250.2,214.1L243.4,214.6L236.6,214.7L229.8,214.7L222.9,214.5L216.1,214.3L209.3,214.2L202.5,213.8L195.6,213.7L188.8,213.4L182.0,213.1L175.2,212.4L168.4,211.8L161.5,211.0L154.7,210.6L147.9,210.4L141.1,209.9L134.2,209.5L127.4,209.6L120.6,209.3L113.8,208.9L106.9,208.6L100.1,208.4L93.3,208.8L86.5,209.1L79.6,209.8L72.8,211.2L66.0,212.3Z" fill="rgba(37,99,235,0.12)" stroke="none"/>
<path d="M66.0,155.1L72.8,157.2L79.6,158.7L86.5,160.8L93.3,162.8L100.1,164.7L106.9,166.8L113.8,168.9L120.6,170.8L127.4,172.5L134.2,173.5L141.1,174.9L147.9,176.3L154.7,177.2L161.5,178.2L168.4,179.4L175.2,180.4L182.0,181.5L188.8,182.1L195.6,182.5L202.5,182.9L209.3,183.4L216.1,183.6L222.9,183.9L229.8,184.1L236.6,184.2L243.4,184.1L250.2,183.7L257.1,183.5L263.9,182.9L270.7,182.6L277.5,181.9L284.4,181.0L291.2,179.8L298.0,178.5L304.8,177.2L311.6,176.2L318.5,175.3L325.3,174.4L332.1,173.7L338.9,173.1L345.8,172.4L352.6,171.6L359.4,170.9L366.2,171.0L373.1,170.9L379.9,171.2L386.7,171.6L393.5,171.5L400.4,171.1L407.2,170.8L414.0,170.5L420.8,170.1L427.6,169.6L434.5,168.8L441.3,168.0L448.1,167.4L454.9,166.6L461.8,165.9L468.6,165.0L475.4,164.3L482.2,163.6L489.1,162.8L495.9,162.1L502.7,161.5L509.5,161.3L516.4,160.6L523.2,159.9L530.0,159.1L536.8,158.3L543.6,157.4L550.5,156.4L557.3,155.2L564.1,154.0L570.9,152.4L577.8,150.7L584.6,148.7L591.4,146.9L598.2,145.1L605.1,143.0L611.9,140.6L618.7,138.5L625.5,136.3L632.4,134.1L639.2,131.8L646.0,129.4L652.8,127.1L659.6,124.8L666.5,122.6L673.3,119.9L680.1,117.4L686.9,114.6L693.8,111.7L700.6,109.4L707.4,107.2L714.2,105.2L721.1,102.9L727.9,101.1L734.7,99.3L741.5,97.1L748.4,95.2L755.2,92.8L762.0,90.6L768.8,88.4L775.6,86.1L782.5,83.8L789.3,81.2L796.1,79.5L802.9,77.3L809.8,75.2L816.6,72.7L823.4,69.9L830.2,67.5L837.1,65.7L843.9,63.5L850.7,61.2L857.5,58.7L864.4,56.3L871.2,53.6L878.0,50.7L878.0,100.6L871.2,101.0L864.4,101.4L857.5,101.7L850.7,102.3L843.9,102.8L837.1,103.6L830.2,104.2L823.4,105.4L816.6,107.4L809.8,109.1L802.9,110.5L796.1,112.1L789.3,113.4L782.5,115.6L775.6,117.6L768.8,119.7L762.0,121.7L755.2,123.7L748.4,125.9L741.5,127.8L734.7,129.9L727.9,131.6L721.1,133.4L714.2,135.7L707.4,137.7L700.6,139.9L693.8,142.2L686.9,145.0L680.1,147.8L673.3,150.3L666.5,153.0L659.6,155.3L652.8,157.6L646.0,159.9L639.2,162.2L632.4,164.5L625.5,166.7L618.7,169.0L611.9,171.0L605.1,173.4L598.2,175.5L591.4,177.3L584.6,179.1L577.8,181.1L570.9,182.8L564.1,184.4L557.3,185.6L550.5,186.8L543.6,187.8L536.8,188.7L530.0,189.5L523.2,190.3L516.4,191.0L509.5,191.6L502.7,191.9L495.9,192.5L489.1,193.2L482.2,194.0L475.4,194.7L468.6,195.4L461.8,196.3L454.9,197.0L448.1,197.8L441.3,198.4L434.5,199.2L427.6,200.0L420.8,200.5L414.0,200.9L407.2,201.2L400.4,201.5L393.5,201.9L386.7,202.0L379.9,201.6L373.1,201.4L366.2,201.4L359.4,201.4L352.6,202.1L345.8,202.9L338.9,203.5L332.1,204.1L325.3,204.9L318.5,205.8L311.6,206.6L304.8,207.6L298.0,208.9L291.2,210.2L284.4,211.5L277.5,212.4L270.7,213.0L263.9,213.4L257.1,214.0L250.2,214.1L243.4,214.6L236.6,214.7L229.8,214.7L222.9,214.5L216.1,214.3L209.3,214.2L202.5,213.8L195.6,213.7L188.8,213.4L182.0,213.1L175.2,212.4L168.4,211.8L161.5,211.0L154.7,210.6L147.9,210.4L141.1,209.9L134.2,209.5L127.4,209.6L120.6,209.3L113.8,208.9L106.9,208.6L100.1,208.4L93.3,208.8L86.5,209.1L79.6,209.8L72.8,211.2L66.0,212.3Z" fill="rgba(239,68,68,0.12)" stroke="none"/>
<polyline points="66.0,207.7 72.8,204.0 79.6,206.3 86.5,205.3 93.3,205.6 100.1,206.3 106.9,205.6 113.8,207.9 120.6,205.7 127.4,213.7 134.2,214.8 141.1,213.5 147.9,212.6 154.7,214.7 161.5,210.0 168.4,208.8 175.2,204.3 182.0,205.3 188.8,205.2 195.6,206.0 202.5,205.9 209.3,205.4 216.1,202.0 222.9,201.5 229.8,200.4 236.6,203.5 243.4,200.3 250.2,199.6 257.1,205.1 263.9,205.1 270.7,206.9 277.5,206.5 284.4,201.4 291.2,199.4 298.0,194.8 304.8,194.4 311.6,191.6 318.5,184.6 325.3,181.4 332.1,184.5 338.9,185.1 345.8,184.3 352.6,182.3 359.4,184.6 366.2,182.3 373.1,181.5 379.9,186.2 386.7,191.0 393.5,187.9 400.4,184.0 407.2,186.5 414.0,182.7 420.8,182.0 427.6,183.2 434.5,184.6 441.3,182.5 448.1,180.3 454.9,179.2 461.8,179.7 468.6,175.8 475.4,178.8 482.2,181.5 489.1,177.8 495.9,179.4 502.7,176.8 509.5,171.5 516.4,174.5 523.2,173.4 530.0,168.6 536.8,167.0 543.6,162.5 550.5,164.7 557.3,162.1 564.1,162.1 570.9,161.7 577.8,159.3 584.6,162.0 591.4,161.4 598.2,157.7 605.1,157.9 611.9,155.0 618.7,153.9 625.5,146.7 632.4,146.6 639.2,146.5 646.0,146.1 652.8,145.7 659.6,146.9 666.5,143.3 673.3,141.7 680.1,137.2 686.9,133.6 693.8,126.8 700.6,122.2 707.4,120.2 714.2,117.4 721.1,117.1 727.9,114.2 734.7,112.8 741.5,111.9 748.4,113.8 755.2,107.2 762.0,101.1 768.8,99.4 775.6,97.5 782.5,95.6 789.3,95.6 796.1,96.1 802.9,93.9 809.8,90.1 816.6,88.9 823.4,85.3 830.2,83.3 837.1,85.8 843.9,85.0 850.7,85.3 857.5,84.2 864.4,82.0 871.2,81.4 878.0,77.3" fill="none" stroke="#16a34a" stroke-width="1.5" stroke-dasharray="3,3"/>
<polyline points="66.0,183.7 72.8,184.2 79.6,184.2 86.5,185.0 93.3,185.8 100.1,186.6 106.9,187.7 113.8,188.9 120.6,190.0 127.4,191.0 134.2,191.5 141.1,192.4 147.9,193.4 154.7,193.9 161.5,194.6 168.4,195.6 175.2,196.4 182.0,197.3 188.8,197.7 195.6,198.1 202.5,198.4 209.3,198.8 216.1,198.9 222.9,199.2 229.8,199.4 236.6,199.5 243.4,199.3 250.2,198.9 257.1,198.8 263.9,198.2 270.7,197.8 277.5,197.1 284.4,196.2 291.2,195.0 298.0,193.7 304.8,192.4 311.6,191.4 318.5,190.6 325.3,189.6 332.1,188.9 338.9,188.3 345.8,187.7 352.6,186.8 359.4,186.1 366.2,186.2 373.1,186.2 379.9,186.4 386.7,186.8 393.5,186.7 400.4,186.3 407.2,186.0 414.0,185.7 420.8,185.3 427.6,184.8 434.5,184.0 441.3,183.2 448.1,182.6 454.9,181.8 461.8,181.1 468.6,180.2 475.4,179.5 482.2,178.8 489.1,178.0 495.9,177.3 502.7,176.7 509.5,176.5 516.4,175.8 523.2,175.1 530.0,174.3 536.8,173.5 543.6,172.6 550.5,171.6 557.3,170.4 564.1,169.2 570.9,167.6 577.8,165.9 584.6,163.9 591.4,162.1 598.2,160.3 605.1,158.2 611.9,155.8 618.7,153.8 625.5,151.5 632.4,149.3 639.2,147.0 646.0,144.7 652.8,142.3 659.6,140.0 666.5,137.8 673.3,135.1 680.1,132.6 686.9,129.8 693.8,126.9 700.6,124.6 707.4,122.4 714.2,120.4 721.1,118.1 727.9,116.3 734.7,114.6 741.5,112.4 748.4,110.5 755.2,108.2 762.0,106.2 768.8,104.1 775.6,101.8 782.5,99.7 789.3,97.3 796.1,95.8 802.9,93.9 809.8,92.2 816.6,90.0 823.4,87.7 830.2,85.8 837.1,84.6 843.9,83.1 850.7,81.8 857.5,80.2 864.4,78.8 871.2,77.3 878.0,75.7" fill="none" stroke="#2563eb" stroke-width="2"/>
<polyline points="66.0,183.7 72.8,184.2 79.6,184.2 86.5,185.0 93.3,185.8 100.1,186.6 106.9,187.7 113.8,188.9 120.6,190.0 127.4,191.0 134.2,191.5 141.1,192.4 147.9,193.4 154.7,193.9 161.5,194.6 168.4,195.6 175.2,196.4 182.0,197.3 188.8,197.7 195.6,198.1 202.5,198.4 209.3,198.8 216.1,198.9 222.9,199.2 229.8,199.4 236.6,199.5 243.4,199.3 250.2,198.9 257.1,198.8 263.9,198.2 270.7,197.8 277.5,197.1 284.4,196.2 291.2,195.0 298.0,193.7 304.8,192.4 311.6,191.4 318.5,190.6 325.3,189.6 332.1,188.9 338.9,188.3 345.8,187.7 352.6,186.8 359.4,186.1 366.2,186.2 373.1,186.2 379.9,186.4 386.7,186.8 393.5,186.7 400.4,186.3 407.2,186.0 414.0,185.7 420.8,185.3 427.6,184.8 434.5,184.0 441.3,183.2 448.1,182.6 454.9,181.8 461.8,181.1 468.6,180.2 475.4,179.5 482.2,178.8 489.1,178.0 495.9,177.3 502.7,176.7 509.5,176.5 516.4,175.8 523.2,175.1 530.0,174.3 536.8,173.5 543.6,172.6 550.5,171.6 557.3,170.4 564.1,169.2 570.9,167.6 577.8,165.9 584.6,163.9 591.4,162.1 598.2,160.3 605.1,158.2 611.9,155.8 618.7,153.8 625.5,151.5 632.4,149.3 639.2,147.0 646.0,144.7 652.8,142.3 659.6,140.0 666.5,137.8 673.3,135.1 680.1,132.6 686.9,129.8 693.8,126.9 700.6,124.6 707.4,122.4 714.2,120.4 721.1,118.1 727.9,116.3 734.7,114.6 741.5,112.4 748.4,110.5 755.2,108.2 762.0,106.2 768.8,104.1 775.6,101.8 782.5,99.7 789.3,97.3 796.1,95.8 802.9,93.9 809.8,92.2 816.6,90.0 823.4,87.7 830.2,85.8 837.1,84.6 843.9,83.1 850.7,81.8 857.5,80.2 864.4,78.8 871.2,77.3 878.0,75.7" fill="none" stroke="#ef4444" stroke-width="2" stroke-dasharray="6,3"/>
<line x1="66" y1="34" x2="66" y2="231.5" stroke="#333" stroke-width="1.5"/>
<line x1="66" y1="231.5" x2="878" y2="231.5" stroke="#333" stroke-width="1.5"/>
<line x1="61" y1="209.4" x2="66" y2="209.4" stroke="#333" stroke-width="1.5"/>
<text x="58" y="209.4" text-anchor="end" dominant-baseline="middle" fill="#333">100</text>
<line x1="61" y1="167.1" x2="66" y2="167.1" stroke="#333" stroke-width="1.5"/>
<text x="58" y="167.1" text-anchor="end" dominant-baseline="middle" fill="#333">105</text>
<line x1="61" y1="124.8" x2="66" y2="124.8" stroke="#333" stroke-width="1.5"/>
<text x="58" y="124.8" text-anchor="end" dominant-baseline="middle" fill="#333">110</text>
<line x1="61" y1="82.4" x2="66" y2="82.4" stroke="#333" stroke-width="1.5"/>
<text x="58" y="82.4" text-anchor="end" dominant-baseline="middle" fill="#333">115</text>
<line x1="61" y1="40.1" x2="66" y2="40.1" stroke="#333" stroke-width="1.5"/>
<text x="58" y="40.1" text-anchor="end" dominant-baseline="middle" fill="#333">120</text>
<text x="72" y="48" text-anchor="start" fill="#333" font-size="12" font-weight="600">Smoothed level x[0] ± 2σ</text>
<text x="14" y="132.75" text-anchor="middle" fill="#333" font-size="13" transform="rotate(-90,14,132.75)">Level</text>
<line x1="66" y1="432.6" x2="878" y2="432.6" stroke="#e5e7eb" stroke-width="1"/>
<line x1="66" y1="395.5" x2="878" y2="395.5" stroke="#e5e7eb" stroke-width="1"/>
<line x1="66" y1="358.3" x2="878" y2="358.3" stroke="#e5e7eb" stroke-width="1"/>
<line x1="66" y1="321.1" x2="878" y2="321.1" stroke="#e5e7eb" stroke-width="1"/>
<line x1="66" y1="283.9" x2="878" y2="283.9" stroke="#e5e7eb" stroke-width="1"/>
<path d="M66.0,303.3L72.8,311.6L79.6,322.8L86.5,334.4L93.3,343.2L100.1,347.0L106.9,345.1L113.8,337.9L120.6,327.0L127.4,315.3L134.2,306.0L141.1,302.9L147.9,306.9L154.7,316.9L161.5,330.4L168.4,343.5L175.2,352.4L182.0,354.7L188.8,349.5L195.6,338.5L202.5,324.5L209.3,311.8L216.1,303.7L222.9,303.2L229.8,310.5L236.6,323.6L243.4,338.9L250.2,351.8L257.1,359.2L263.9,358.5L270.7,350.4L277.5,336.6L284.4,320.9L291.2,307.8L298.0,301.2L304.8,303.3L311.6,313.9L318.5,329.9L325.3,346.5L332.1,359.1L338.9,363.9L345.8,359.2L352.6,346.4L359.4,329.3L366.2,313.0L373.1,301.8L379.9,299.1L386.7,305.8L393.5,319.7L400.4,337.3L407.2,354.0L414.0,365.0L420.8,367.4L427.6,360.2L434.5,345.2L441.3,326.7L448.1,309.7L454.9,298.7L461.8,296.9L468.6,304.7L475.4,320.4L482.2,339.5L489.1,356.9L495.9,367.8L502.7,369.2L509.5,360.8L516.4,344.1L523.2,324.0L530.0,306.0L536.8,295.1L543.6,294.4L550.5,304.3L557.3,322.2L564.1,343.3L570.9,361.7L577.8,372.3L584.6,372.2L591.4,361.4L598.2,342.5L605.1,320.3L611.9,301.0L618.7,290.0L625.5,290.4L632.4,302.0L639.2,321.9L646.0,344.6L652.8,364.2L659.6,375.2L666.5,374.5L673.3,361.7L680.1,340.6L686.9,316.4L693.8,296.1L700.6,285.6L707.4,287.4L714.2,300.9L721.1,322.0L727.9,345.4L734.7,364.5L741.5,374.0L748.4,371.6L755.2,357.5L762.0,336.0L768.8,312.8L775.6,294.3L782.5,285.6L789.3,288.6L796.1,302.7L802.9,323.1L809.8,344.1L816.6,360.1L823.4,366.8L830.2,363.0L837.1,349.6L843.9,329.6L850.7,308.6L857.5,292.4L864.4,285.4L871.2,289.1L878.0,302.0L878.0,370.1L871.2,356.7L864.4,353.0L857.5,359.7L850.7,374.8L843.9,394.3L837.1,413.2L830.2,426.2L823.4,429.9L816.6,423.0L809.8,406.2L802.9,384.0L796.1,362.8L789.3,348.4L782.5,345.4L775.6,353.8L768.8,371.7L762.0,394.0L755.2,414.9L748.4,428.7L741.5,431.1L734.7,421.5L727.9,401.8L721.1,377.8L714.2,356.2L707.4,342.6L700.6,340.8L693.8,351.2L686.9,371.1L680.1,394.7L673.3,415.6L666.5,428.2L659.6,428.9L652.8,417.8L646.0,398.0L639.2,374.9L632.4,354.7L625.5,343.0L618.7,342.7L611.9,353.5L605.1,372.8L598.2,394.7L591.4,413.4L584.6,424.2L577.8,424.3L570.9,413.5L564.1,395.1L557.3,373.8L550.5,355.8L543.6,345.9L536.8,346.5L530.0,357.4L523.2,375.4L516.4,395.4L509.5,412.0L502.7,420.5L495.9,419.1L489.1,408.2L482.2,390.8L475.4,371.7L468.6,356.0L461.8,348.1L454.9,349.9L448.1,360.9L441.3,378.0L434.5,396.6L427.6,411.6L420.8,418.8L414.0,416.4L407.2,405.4L400.4,388.9L393.5,371.5L386.7,357.6L379.9,351.0L373.1,353.6L366.2,364.9L359.4,381.4L352.6,398.8L345.8,411.7L338.9,416.4L332.1,411.6L325.3,399.2L318.5,382.9L311.6,367.2L304.8,356.8L298.0,354.7L291.2,361.3L284.4,374.6L277.5,390.7L270.7,405.0L263.9,413.4L257.1,414.2L250.2,406.8L243.4,394.1L236.6,379.4L229.8,366.8L222.9,359.9L216.1,360.5L209.3,368.6L202.5,381.7L195.6,396.4L188.8,408.3L182.0,414.0L175.2,411.8L168.4,402.9L161.5,390.2L154.7,377.7L147.9,368.8L141.1,365.4L134.2,368.7L127.4,378.0L120.6,390.2L113.8,402.4L106.9,411.1L100.1,413.8L93.3,410.3L86.5,401.5L79.6,390.5L72.8,380.8L66.0,374.2Z" fill="rgba(37,99,235,0.12)" stroke="none"/>
<path d="M66.0,303.3L72.8,311.6L79.6,322.8L86.5,334.4L93.3,343.2L100.1,347.0L106.9,345.1L113.8,337.9L120.6,327.0L127.4,315.3L134.2,306.0L141.1,302.9L147.9,306.9L154.7,316.9L161.5,330.4L168.4,343.5L175.2,352.4L182.0,354.7L188.8,349.5L195.6,338.5L202.5,324.5L209.3,311.8L216.1,303.7L222.9,303.2L229.8,310.5L236.6,323.6L243.4,338.9L250.2,351.8L257.1,359.2L263.9,358.5L270.7,350.4L277.5,336.6L284.4,320.9L291.2,307.8L298.0,301.2L304.8,303.3L311.6,313.9L318.5,329.9L325.3,346.5L332.1,359.1L338.9,363.9L345.8,359.2L352.6,346.4L359.4,329.3L366.2,313.0L373.1,301.8L379.9,299.1L386.7,305.8L393.5,319.7L400.4,337.3L407.2,354.0L414.0,365.0L420.8,367.4L427.6,360.2L434.5,345.2L441.3,326.7L448.1,309.7L454.9,298.7L461.8,296.9L468.6,304.7L475.4,320.4L482.2,339.5L489.1,356.9L495.9,367.8L502.7,369.2L509.5,360.8L516.4,344.1L523.2,324.0L530.0,306.0L536.8,295.1L543.6,294.4L550.5,304.3L557.3,322.2L564.1,343.3L570.9,361.7L577.8,372.3L584.6,372.2L591.4,361.4L598.2,342.5L605.1,320.3L611.9,301.0L618.7,290.0L625.5,290.4L632.4,302.0L639.2,321.9L646.0,344.6L652.8,364.2L659.6,375.2L666.5,374.5L673.3,361.7L680.1,340.6L686.9,316.4L693.8,296.1L700.6,285.6L707.4,287.4L714.2,300.9L721.1,322.0L727.9,345.4L734.7,364.5L741.5,374.0L748.4,371.6L755.2,357.5L762.0,336.0L768.8,312.8L775.6,294.3L782.5,285.6L789.3,288.6L796.1,302.7L802.9,323.1L809.8,344.1L816.6,360.1L823.4,366.8L830.2,363.0L837.1,349.6L843.9,329.6L850.7,308.6L857.5,292.4L864.4,285.4L871.2,289.1L878.0,302.0L878.0,370.1L871.2,356.7L864.4,353.0L857.5,359.7L850.7,374.8L843.9,394.3L837.1,413.2L830.2,426.2L823.4,429.9L816.6,423.0L809.8,406.2L802.9,384.0L796.1,362.8L789.3,348.4L782.5,345.4L775.6,353.8L768.8,371.7L762.0,394.0L755.2,414.9L748.4,428.7L741.5,431.1L734.7,421.5L727.9,401.8L721.1,377.8L714.2,356.2L707.4,342.6L700.6,340.8L693.8,351.2L686.9,371.1L680.1,394.7L673.3,415.6L666.5,428.2L659.6,428.9L652.8,417.8L646.0,398.0L639.2,374.9L632.4,354.7L625.5,343.0L618.7,342.7L611.9,353.5L605.1,372.8L598.2,394.7L591.4,413.4L584.6,424.2L577.8,424.3L570.9,413.5L564.1,395.1L557.3,373.8L550.5,355.8L543.6,345.9L536.8,346.5L530.0,357.4L523.2,375.4L516.4,395.4L509.5,412.0L502.7,420.5L495.9,419.1L489.1,408.2L482.2,390.8L475.4,371.7L468.6,356.0L461.8,348.1L454.9,349.9L448.1,360.9L441.3,378.0L434.5,396.6L427.6,411.6L420.8,418.8L414.0,416.4L407.2,405.4L400.4,388.9L393.5,371.5L386.7,357.6L379.9,351.0L373.1,353.6L366.2,364.9L359.4,381.4L352.6,398.8L345.8,411.7L338.9,416.4L332.1,411.6L325.3,399.2L318.5,382.9L311.6,367.2L304.8,356.8L298.0,354.7L291.2,361.3L284.4,374.6L277.5,390.7L270.7,405.0L263.9,413.4L257.1,414.2L250.2,406.8L243.4,394.1L236.6,379.4L229.8,366.8L222.9,359.9L216.1,360.5L209.3,368.6L202.5,381.7L195.6,396.4L188.8,408.3L182.0,414.0L175.2,411.8L168.4,402.9L161.5,390.2L154.7,377.7L147.9,368.8L141.1,365.4L134.2,368.7L127.4,378.0L120.6,390.2L113.8,402.4L106.9,411.1L100.1,413.8L93.3,410.3L86.5,401.5L79.6,390.5L72.8,380.8L66.0,374.2Z" fill="rgba(239,68,68,0.12)" stroke="none"/>
<polyline points="66.0,360.3 72.8,361.5 79.6,358.6 86.5,356.8 93.3,350.7 100.1,351.3 106.9,349.7 113.8,351.4 120.6,358.6 127.4,362.6 134.2,369.1 141.1,370.8 147.9,363.8 154.7,362.0 161.5,358.9 168.4,352.4 175.2,347.5 182.0,344.3 188.8,345.3 195.6,348.2 202.5,349.2 209.3,352.5 216.1,353.6 222.9,363.5 229.8,365.4 236.6,371.2 243.4,371.5 250.2,367.2 257.1,367.2 263.9,361.7 270.7,353.2 277.5,346.9 284.4,343.1 291.2,346.5 298.0,345.6 304.8,352.3 311.6,364.1 318.5,374.0 325.3,380.5 332.1,381.7 338.9,378.9 345.8,371.9 352.6,359.0 359.4,343.8 366.2,327.8 373.1,325.1 379.9,331.9 386.7,344.7 393.5,359.3 400.4,370.6 407.2,380.1 414.0,386.1 420.8,386.9 427.6,379.7 434.5,363.2 441.3,348.4 448.1,332.5 454.9,328.8 461.8,333.4 468.6,340.5 475.4,349.6 482.2,360.9 489.1,366.5 495.9,370.6 502.7,376.2 509.5,379.5 516.4,371.3 523.2,364.3 530.0,355.2 536.8,349.7 543.6,340.9 550.5,336.5 557.3,342.2 564.1,353.8 570.9,365.8 577.8,378.3 584.6,382.8 591.4,381.1 598.2,373.8 605.1,362.6 611.9,347.0 618.7,340.8 625.5,333.9 632.4,331.2 639.2,334.4 646.0,353.3 652.8,371.3 659.6,385.8 666.5,392.3 673.3,388.2 680.1,374.3 686.9,364.6 693.8,352.4 700.6,337.9 707.4,329.8 714.2,330.3 721.1,337.2 727.9,350.5 734.7,365.2 741.5,378.0 748.4,389.0 755.2,382.9 762.0,371.3 768.8,356.9 775.6,346.4 782.5,335.8 789.3,334.6 796.1,336.6 802.9,345.2 809.8,360.1 816.6,370.8 823.4,377.9 830.2,382.2 837.1,374.3 843.9,365.6 850.7,355.0 857.5,340.7 864.4,336.3 871.2,340.1 878.0,352.9" fill="none" stroke="#16a34a" stroke-width="1.5" stroke-dasharray="3,3"/>
<polyline points="66.0,338.7 72.8,346.2 79.6,356.7 86.5,368.0 93.3,376.7 100.1,380.4 106.9,378.1 113.8,370.2 120.6,358.6 127.4,346.6 134.2,337.4 141.1,334.1 147.9,337.8 154.7,347.3 161.5,360.3 168.4,373.2 175.2,382.1 182.0,384.3 188.8,378.9 195.6,367.4 202.5,353.1 209.3,340.2 216.1,332.1 222.9,331.6 229.8,338.6 236.6,351.5 243.4,366.5 250.2,379.3 257.1,386.7 263.9,386.0 270.7,377.7 277.5,363.7 284.4,347.8 291.2,334.5 298.0,327.9 304.8,330.0 311.6,340.5 318.5,356.4 325.3,372.9 332.1,385.4 338.9,390.1 345.8,385.5 352.6,372.6 359.4,355.3 366.2,338.9 373.1,327.7 379.9,325.1 386.7,331.7 393.5,345.6 400.4,363.1 407.2,379.7 414.0,390.7 420.8,393.1 427.6,385.9 434.5,370.9 441.3,352.3 448.1,335.3 454.9,324.3 461.8,322.5 468.6,330.4 475.4,346.0 482.2,365.2 489.1,382.5 495.9,393.4 502.7,394.8 509.5,386.4 516.4,369.8 523.2,349.7 530.0,331.7 536.8,320.8 543.6,320.1 550.5,330.1 557.3,348.0 564.1,369.2 570.9,387.6 577.8,398.3 584.6,398.2 591.4,387.4 598.2,368.6 605.1,346.5 611.9,327.2 618.7,316.4 625.5,316.7 632.4,328.4 639.2,348.4 646.0,371.3 652.8,391.0 659.6,402.1 666.5,401.4 673.3,388.6 680.1,367.7 686.9,343.8 693.8,323.7 700.6,313.2 707.4,315.0 714.2,328.6 721.1,349.9 727.9,373.6 734.7,393.0 741.5,402.6 748.4,400.2 755.2,386.2 762.0,365.0 768.8,342.2 775.6,324.1 782.5,315.5 789.3,318.5 796.1,332.8 802.9,353.5 809.8,375.1 816.6,391.5 823.4,398.4 830.2,394.6 837.1,381.4 843.9,362.0 850.7,341.7 857.5,326.0 864.4,319.2 871.2,322.9 878.0,336.1" fill="none" stroke="#2563eb" stroke-width="2"/>
<polyline points="66.0,338.7 72.8,346.2 79.6,356.7 86.5,368.0 93.3,376.7 100.1,380.4 106.9,378.1 113.8,370.2 120.6,358.6 127.4,346.6 134.2,337.4 141.1,334.1 147.9,337.8 154.7,347.3 161.5,360.3 168.4,373.2 175.2,382.1 182.0,384.3 188.8,378.9 195.6,367.4 202.5,353.1 209.3,340.2 216.1,332.1 222.9,331.6 229.8,338.6 236.6,351.5 243.4,366.5 250.2,379.3 257.1,386.7 263.9,386.0 270.7,377.7 277.5,363.7 284.4,347.8 291.2,334.5 298.0,327.9 304.8,330.0 311.6,340.5 318.5,356.4 325.3,372.9 332.1,385.4 338.9,390.1 345.8,385.5 352.6,372.6 359.4,355.3 366.2,338.9 373.1,327.7 379.9,325.1 386.7,331.7 393.5,345.6 400.4,363.1 407.2,379.7 414.0,390.7 420.8,393.1 427.6,385.9 434.5,370.9 441.3,352.3 448.1,335.3 454.9,324.3 461.8,322.5 468.6,330.4 475.4,346.0 482.2,365.2 489.1,382.5 495.9,393.4 502.7,394.8 509.5,386.4 516.4,369.8 523.2,349.7 530.0,331.7 536.8,320.8 543.6,320.1 550.5,330.1 557.3,348.0 564.1,369.2 570.9,387.6 577.8,398.3 584.6,398.2 591.4,387.4 598.2,368.6 605.1,346.5 611.9,327.2 618.7,316.4 625.5,316.7 632.4,328.4 639.2,348.4 646.0,371.3 652.8,391.0 659.6,402.1 666.5,401.4 673.3,388.6 680.1,367.7 686.9,343.8 693.8,323.7 700.6,313.2 707.4,315.0 714.2,328.6 721.1,349.9 727.9,373.6 734.7,393.0 741.5,402.6 748.4,400.2 755.2,386.2 762.0,365.0 768.8,342.2 775.6,324.1 782.5,315.5 789.3,318.5 796.1,332.8 802.9,353.5 809.8,375.1 816.6,391.5 823.4,398.4 830.2,394.6 837.1,381.4 843.9,362.0 850.7,341.7 857.5,326.0 864.4,319.2 871.2,322.9 878.0,336.1" fill="none" stroke="#ef4444" stroke-width="2" stroke-dasharray="6,3"/>
<line x1="66" y1="259.5" x2="66" y2="457" stroke="#333" stroke-width="1.5"/>
<line x1="66" y1="457" x2="878" y2="457" stroke="#333" stroke-width="1.5"/>
<line x1="61" y1="432.6" x2="66" y2="432.6" stroke="#333" stroke-width="1.5"/>
<text x="58" y="432.6" text-anchor="end" dominant-baseline="middle" fill="#333">-4</text>
<line x1="61" y1="395.5" x2="66" y2="395.5" stroke="#333" stroke-width="1.5"/>
<text x="58" y="395.5" text-anchor="end" dominant-baseline="middle" fill="#333">-2</text>
<line x1="61" y1="358.3" x2="66" y2="358.3" stroke="#333" stroke-width="1.5"/>
<text x="58" y="358.3" text-anchor="end" dominant-baseline="middle" fill="#333">0</text>
<line x1="61" y1="321.1" x2="66" y2="321.1" stroke="#333" stroke-width="1.5"/>
<text x="58" y="321.1" text-anchor="end" dominant-baseline="middle" fill="#333">2</text>
<line x1="61" y1="283.9" x2="66" y2="283.9" stroke="#333" stroke-width="1.5"/>
<text x="58" y="283.9" text-anchor="end" dominant-baseline="middle" fill="#333">4</text>
<text x="72" y="273.5" text-anchor="start" fill="#333" font-size="12" font-weight="600">Seasonal x[2] ± 2σ  (trig harmonic k=1)</text>
<text x="14" y="358.25" text-anchor="middle" fill="#333" font-size="13" transform="rotate(-90,14,358.25)">Seasonal</text>
<line x1="66" y1="677.3" x2="878" y2="677.3" stroke="#e5e7eb" stroke-width="1"/>
<line x1="66" y1="643.4" x2="878" y2="643.4" stroke="#e5e7eb" stroke-width="1"/>
<line x1="66" y1="609.6" x2="878" y2="609.6" stroke="#e5e7eb" stroke-width="1"/>
<line x1="66" y1="575.7" x2="878" y2="575.7" stroke="#e5e7eb" stroke-width="1"/>
<line x1="66" y1="541.8" x2="878" y2="541.8" stroke="#e5e7eb" stroke-width="1"/>
<line x1="66" y1="507.9" x2="878" y2="507.9" stroke="#e5e7eb" stroke-width="1"/>
<path d="M66.0,598.0L72.8,579.3L79.6,521.2L86.5,529.5L93.3,535.3L100.1,524.4L106.9,541.3L113.8,556.9L120.6,566.6L127.4,578.3L134.2,539.7L141.1,546.0L147.9,566.5L154.7,544.4L161.5,534.1L168.4,559.9L175.2,556.6L182.0,580.6L188.8,567.4L195.6,559.9L202.5,548.5L209.3,566.6L216.1,550.7L222.9,561.2L229.8,564.7L236.6,571.3L243.4,573.0L250.2,552.1L257.1,575.0L263.9,556.2L270.7,576.7L277.5,582.9L284.4,580.6L291.2,564.3L298.0,546.6L304.8,527.3L311.6,532.8L318.5,543.7L325.3,533.6L332.1,536.6L338.9,549.6L345.8,549.6L352.6,527.2L359.4,500.1L366.2,527.0L373.1,529.5L379.9,548.6L386.7,582.6L393.5,577.3L400.4,560.3L407.2,560.6L414.0,559.8L420.8,568.8L427.6,574.6L434.5,557.6L441.3,544.9L448.1,555.7L454.9,548.2L461.8,557.2L468.6,540.0L475.4,549.0L482.2,547.1L489.1,541.6L495.9,535.7L502.7,532.3L509.5,566.7L516.4,561.6L523.2,559.5L530.0,558.4L536.8,564.9L543.6,564.2L550.5,567.8L557.3,567.0L564.1,584.7L570.9,575.2L577.8,569.2L584.6,549.6L591.4,558.2L598.2,572.4L605.1,567.9L611.9,543.5L618.7,557.5L625.5,551.9L632.4,556.5L639.2,555.1L646.0,551.6L652.8,551.6L659.6,558.3L666.5,579.1L673.3,554.6L680.1,566.5L686.9,546.0L693.8,517.0L700.6,528.0L707.4,534.5L714.2,549.4L721.1,527.0L727.9,548.8L734.7,570.1L741.5,554.7L748.4,572.8L755.2,549.1L762.0,555.0L768.8,560.1L775.6,550.1L782.5,550.3L789.3,514.9L796.1,555.5L802.9,557.7L809.8,572.9L816.6,558.1L823.4,512.5L830.2,508.0L837.1,547.5L843.9,547.6L850.7,557.3L857.5,549.4L864.4,563.6L871.2,566.7L878.0,564.8L878.0,615.9L871.2,617.3L864.4,613.2L857.5,598.4L850.7,606.1L843.9,596.3L837.1,596.0L830.2,556.2L823.4,560.3L816.6,605.3L809.8,619.4L802.9,603.4L796.1,600.6L789.3,559.6L782.5,594.9L775.6,594.7L768.8,604.6L762.0,599.6L755.2,593.7L748.4,617.3L741.5,599.2L734.7,614.5L727.9,593.1L721.1,571.1L714.2,593.4L707.4,578.4L700.6,572.0L693.8,560.9L686.9,589.9L680.1,610.4L673.3,598.4L666.5,623.0L659.6,602.1L652.8,595.4L646.0,595.3L639.2,598.9L632.4,600.3L625.5,595.6L618.7,601.3L611.9,587.3L605.1,611.6L598.2,616.0L591.4,601.8L584.6,593.1L577.8,612.8L570.9,618.8L564.1,628.3L557.3,610.6L550.5,611.4L543.6,607.8L536.8,608.5L530.0,602.0L523.2,603.1L516.4,605.1L509.5,610.2L502.7,575.8L495.9,579.2L489.1,585.1L482.2,590.6L475.4,592.5L468.6,583.5L461.8,600.7L454.9,591.8L448.1,599.2L441.3,588.4L434.5,601.1L427.6,618.1L420.8,612.4L414.0,603.4L407.2,604.2L400.4,603.8L393.5,620.9L386.7,626.2L379.9,592.2L373.1,573.1L366.2,570.6L359.4,543.8L352.6,570.8L345.8,593.3L338.9,593.3L332.1,580.3L325.3,577.4L318.5,587.5L311.6,576.6L304.8,571.1L298.0,590.4L291.2,608.1L284.4,624.4L277.5,626.8L270.7,620.6L263.9,600.1L257.1,619.0L250.2,596.0L243.4,616.9L236.6,615.5L229.8,609.0L222.9,605.6L216.1,595.2L209.3,611.1L202.5,593.0L195.6,604.4L188.8,611.9L182.0,625.1L175.2,601.1L168.4,604.6L161.5,579.3L154.7,590.2L147.9,613.1L141.1,593.4L134.2,587.7L127.4,626.6L120.6,615.2L113.8,605.6L106.9,590.1L100.1,573.6L93.3,585.2L86.5,580.8L79.6,574.6L72.8,636.1L66.0,667.4Z" fill="rgba(37,99,235,0.12)" stroke="none"/>
<path d="M66.0,598.0L72.8,579.3L79.6,521.2L86.5,529.5L93.3,535.3L100.1,524.4L106.9,541.3L113.8,556.9L120.6,566.6L127.4,578.3L134.2,539.7L141.1,546.0L147.9,566.5L154.7,544.4L161.5,534.1L168.4,559.9L175.2,556.6L182.0,580.6L188.8,567.4L195.6,559.9L202.5,548.5L209.3,566.6L216.1,550.7L222.9,561.2L229.8,564.7L236.6,571.3L243.4,573.0L250.2,552.1L257.1,575.0L263.9,556.2L270.7,576.7L277.5,582.9L284.4,580.6L291.2,564.3L298.0,546.6L304.8,527.3L311.6,532.8L318.5,543.7L325.3,533.6L332.1,536.6L338.9,549.6L345.8,549.6L352.6,527.2L359.4,500.1L366.2,527.0L373.1,529.5L379.9,548.6L386.7,582.6L393.5,577.3L400.4,560.3L407.2,560.6L414.0,559.8L420.8,568.8L427.6,574.6L434.5,557.6L441.3,544.9L448.1,555.7L454.9,548.2L461.8,557.2L468.6,540.0L475.4,549.0L482.2,547.1L489.1,541.6L495.9,535.7L502.7,532.3L509.5,566.7L516.4,561.6L523.2,559.5L530.0,558.4L536.8,564.9L543.6,564.2L550.5,567.8L557.3,567.0L564.1,584.7L570.9,575.2L577.8,569.2L584.6,549.6L591.4,558.2L598.2,572.4L605.1,567.9L611.9,543.5L618.7,557.5L625.5,551.9L632.4,556.5L639.2,555.1L646.0,551.6L652.8,551.6L659.6,558.3L666.5,579.1L673.3,554.6L680.1,566.5L686.9,546.0L693.8,517.0L700.6,528.0L707.4,534.5L714.2,549.4L721.1,527.0L727.9,548.8L734.7,570.1L741.5,554.7L748.4,572.8L755.2,549.1L762.0,555.0L768.8,560.1L775.6,550.1L782.5,550.3L789.3,514.9L796.1,555.5L802.9,557.7L809.8,572.9L816.6,558.1L823.4,512.5L830.2,508.0L837.1,547.5L843.9,547.6L850.7,557.3L857.5,549.4L864.4,563.6L871.2,566.7L878.0,564.8L878.0,615.9L871.2,617.3L864.4,613.2L857.5,598.4L850.7,606.1L843.9,596.3L837.1,596.0L830.2,556.2L823.4,560.3L816.6,605.3L809.8,619.4L802.9,603.4L796.1,600.6L789.3,559.6L782.5,594.9L775.6,594.7L768.8,604.6L762.0,599.6L755.2,593.7L748.4,617.3L741.5,599.2L734.7,614.5L727.9,593.1L721.1,571.1L714.2,593.4L707.4,578.4L700.6,572.0L693.8,560.9L686.9,589.9L680.1,610.4L673.3,598.4L666.5,623.0L659.6,602.1L652.8,595.4L646.0,595.3L639.2,598.9L632.4,600.3L625.5,595.6L618.7,601.3L611.9,587.3L605.1,611.6L598.2,616.0L591.4,601.8L584.6,593.1L577.8,612.8L570.9,618.8L564.1,628.3L557.3,610.6L550.5,611.4L543.6,607.8L536.8,608.5L530.0,602.0L523.2,603.1L516.4,605.1L509.5,610.2L502.7,575.8L495.9,579.2L489.1,585.1L482.2,590.6L475.4,592.5L468.6,583.5L461.8,600.7L454.9,591.8L448.1,599.2L441.3,588.4L434.5,601.1L427.6,618.1L420.8,612.4L414.0,603.4L407.2,604.2L400.4,603.8L393.5,620.9L386.7,626.2L379.9,592.2L373.1,573.1L366.2,570.6L359.4,543.8L352.6,570.8L345.8,593.3L338.9,593.3L332.1,580.3L325.3,577.4L318.5,587.5L311.6,576.6L304.8,571.1L298.0,590.4L291.2,608.1L284.4,624.4L277.5,626.8L270.7,620.6L263.9,600.1L257.1,619.0L250.2,596.0L243.4,616.9L236.6,615.5L229.8,609.0L222.9,605.6L216.1,595.2L209.3,611.1L202.5,593.0L195.6,604.4L188.8,611.9L182.0,625.1L175.2,601.1L168.4,604.6L161.5,579.3L154.7,590.2L147.9,613.1L141.1,593.4L134.2,587.7L127.4,626.6L120.6,615.2L113.8,605.6L106.9,590.1L100.1,573.6L93.3,585.2L86.5,580.8L79.6,574.6L72.8,636.1L66.0,667.4Z" fill="rgba(239,68,68,0.12)" stroke="none"/>
<polyline points="66.0,595.7 72.8,588.9 79.6,535.9 86.5,549.1 93.3,566.2 100.1,550.6 106.9,552.9 113.8,569.7 120.6,577.6 127.4,588.2 134.2,534.7 141.1,560.2 147.9,585.7 154.7,547.0 161.5,547.8 168.4,583.8 175.2,577.2 182.0,623.1 188.8,577.6 195.6,587.6 202.5,559.9 209.3,577.0 216.1,560.3 222.9,579.2 229.8,584.8 236.6,590.6 243.4,590.0 250.2,571.7 257.1,596.7 263.9,581.3 270.7,588.1 277.5,605.1 284.4,604.2 291.2,574.1 298.0,560.0 304.8,540.3 311.6,551.4 318.5,559.4 325.3,561.4 332.1,570.2 338.9,568.5 345.8,573.9 352.6,559.5 359.4,523.8 366.2,551.1 373.1,552.0 379.9,573.0 386.7,596.5 393.5,596.5 400.4,593.7 407.2,587.1 414.0,589.6 420.8,600.7 427.6,613.6 434.5,585.5 441.3,580.4 448.1,580.4 454.9,581.0 461.8,585.7 468.6,565.2 475.4,574.6 482.2,575.3 489.1,572.6 495.9,566.9 502.7,563.0 509.5,600.1 516.4,609.9 523.2,581.5 530.0,573.7 536.8,578.2 543.6,579.8 550.5,591.5 557.3,588.5 564.1,618.3 570.9,596.8 577.8,608.5 584.6,563.6 591.4,588.0 598.2,597.8 605.1,591.8 611.9,564.2 618.7,558.9 625.5,575.5 632.4,552.9 639.2,574.5 646.0,586.0 652.8,582.7 659.6,588.3 666.5,613.9 673.3,572.6 680.1,589.3 686.9,554.1 693.8,539.9 700.6,544.4 707.4,548.0 714.2,569.2 721.1,547.8 727.9,578.1 734.7,592.1 741.5,602.4 748.4,594.0 755.2,555.0 762.0,586.1 768.8,572.6 775.6,570.8 782.5,579.1 789.3,541.2 796.1,565.2 802.9,576.4 809.8,611.5 816.6,589.5 823.4,537.2 830.2,526.2 837.1,573.9 843.9,573.9 850.7,585.3 857.5,573.6 864.4,581.5 871.2,576.5 878.0,592.8" fill="none" stroke="#16a34a" stroke-width="1.5" stroke-dasharray="3,3"/>
<polyline points="66.0,632.7 72.8,607.7 79.6,547.9 86.5,555.1 93.3,560.3 100.1,549.0 106.9,565.7 113.8,581.2 120.6,590.9 127.4,602.5 134.2,563.7 141.1,569.7 147.9,589.8 154.7,567.3 161.5,556.7 168.4,582.3 175.2,578.8 182.0,602.8 188.8,589.6 195.6,582.2 202.5,570.7 209.3,588.9 216.1,572.9 222.9,583.4 229.8,586.9 236.6,593.4 243.4,594.9 250.2,574.0 257.1,597.0 263.9,578.1 270.7,598.6 277.5,604.8 284.4,602.5 291.2,586.2 298.0,568.5 304.8,549.2 311.6,554.7 318.5,565.6 325.3,555.5 332.1,558.4 338.9,571.5 345.8,571.5 352.6,549.0 359.4,522.0 366.2,548.8 373.1,551.3 379.9,570.4 386.7,604.4 393.5,599.1 400.4,582.1 407.2,582.4 414.0,581.6 420.8,590.6 427.6,596.4 434.5,579.4 441.3,566.7 448.1,577.4 454.9,570.0 461.8,578.9 468.6,561.8 475.4,570.7 482.2,568.8 489.1,563.3 495.9,557.4 502.7,554.1 509.5,588.5 516.4,583.4 523.2,581.3 530.0,580.2 536.8,586.7 543.6,586.0 550.5,589.6 557.3,588.8 564.1,606.5 570.9,597.0 577.8,591.0 584.6,571.4 591.4,580.0 598.2,594.2 605.1,589.7 611.9,565.4 618.7,579.4 625.5,573.8 632.4,578.4 639.2,577.0 646.0,573.5 652.8,573.5 659.6,580.2 666.5,601.1 673.3,576.5 680.1,588.5 686.9,568.0 693.8,539.0 700.6,550.0 707.4,556.4 714.2,571.4 721.1,549.1 727.9,571.0 734.7,592.3 741.5,577.0 748.4,595.1 755.2,571.4 762.0,577.3 768.8,582.3 775.6,572.4 782.5,572.6 789.3,537.3 796.1,578.1 802.9,580.6 809.8,596.2 816.6,581.7 823.4,536.4 830.2,532.1 837.1,571.8 843.9,572.0 850.7,581.7 857.5,573.9 864.4,588.4 871.2,592.0 878.0,590.3" fill="none" stroke="#2563eb" stroke-width="2"/>
<polyline points="66.0,632.7 72.8,607.7 79.6,547.9 86.5,555.1 93.3,560.3 100.1,549.0 106.9,565.7 113.8,581.2 120.6,590.9 127.4,602.5 134.2,563.7 141.1,569.7 147.9,589.8 154.7,567.3 161.5,556.7 168.4,582.3 175.2,578.8 182.0,602.8 188.8,589.6 195.6,582.2 202.5,570.7 209.3,588.9 216.1,572.9 222.9,583.4 229.8,586.9 236.6,593.4 243.4,594.9 250.2,574.0 257.1,597.0 263.9,578.1 270.7,598.6 277.5,604.8 284.4,602.5 291.2,586.2 298.0,568.5 304.8,549.2 311.6,554.7 318.5,565.6 325.3,555.5 332.1,558.4 338.9,571.5 345.8,571.5 352.6,549.0 359.4,522.0 366.2,548.8 373.1,551.3 379.9,570.4 386.7,604.4 393.5,599.1 400.4,582.1 407.2,582.4 414.0,581.6 420.8,590.6 427.6,596.4 434.5,579.4 441.3,566.7 448.1,577.4 454.9,570.0 461.8,578.9 468.6,561.8 475.4,570.7 482.2,568.8 489.1,563.3 495.9,557.4 502.7,554.1 509.5,588.5 516.4,583.4 523.2,581.3 530.0,580.2 536.8,586.7 543.6,586.0 550.5,589.6 557.3,588.8 564.1,606.5 570.9,597.0 577.8,591.0 584.6,571.4 591.4,580.0 598.2,594.2 605.1,589.7 611.9,565.4 618.7,579.4 625.5,573.8 632.4,578.4 639.2,577.0 646.0,573.5 652.8,573.5 659.6,580.2 666.5,601.1 673.3,576.5 680.1,588.5 686.9,568.0 693.8,539.0 700.6,550.0 707.4,556.4 714.2,571.4 721.1,549.1 727.9,571.0 734.7,592.3 741.5,577.0 748.4,595.1 755.2,571.4 762.0,577.3 768.8,582.3 775.6,572.4 782.5,572.6 789.3,537.3 796.1,578.1 802.9,580.6 809.8,596.2 816.6,581.7 823.4,536.4 830.2,532.1 837.1,571.8 843.9,572.0 850.7,581.7 857.5,573.9 864.4,588.4 871.2,592.0 878.0,590.3" fill="none" stroke="#ef4444" stroke-width="2" stroke-dasharray="6,3"/>
<line x1="66" y1="485" x2="66" y2="682.5" stroke="#333" stroke-width="1.5"/>
<line x1="66" y1="682.5" x2="878" y2="682.5" stroke="#333" stroke-width="1.5"/>
<line x1="61" y1="677.3" x2="66" y2="677.3" stroke="#333" stroke-width="1.5"/>
<text x="58" y="677.3" text-anchor="end" dominant-baseline="middle" fill="#333">-15</text>
<line x1="61" y1="643.4" x2="66" y2="643.4" stroke="#333" stroke-width="1.5"/>
<text x="58" y="643.4" text-anchor="end" dominant-baseline="middle" fill="#333">-10</text>
<line x1="61" y1="609.6" x2="66" y2="609.6" stroke="#333" stroke-width="1.5"/>
<text x="58" y="609.6" text-anchor="end" dominant-baseline="middle" fill="#333">-5</text>
<line x1="61" y1="575.7" x2="66" y2="575.7" stroke="#333" stroke-width="1.5"/>
<text x="58" y="575.7" text-anchor="end" dominant-baseline="middle" fill="#333">0</text>
<line x1="61" y1="541.8" x2="66" y2="541.8" stroke="#333" stroke-width="1.5"/>
<text x="58" y="541.8" text-anchor="end" dominant-baseline="middle" fill="#333">5</text>
<line x1="61" y1="507.9" x2="66" y2="507.9" stroke="#333" stroke-width="1.5"/>
<text x="58" y="507.9" text-anchor="end" dominant-baseline="middle" fill="#333">10</text>
<text x="72" y="499" text-anchor="start" fill="#333" font-size="12" font-weight="600">AR(1) state x[4] ± 2σ  (φ = 0.425)</text>
<text x="14" y="583.75" text-anchor="middle" fill="#333" font-size="13" transform="rotate(-90,14,583.75)">AR state</text>
<line x1="66" y1="881.6" x2="878" y2="881.6" stroke="#e5e7eb" stroke-width="1"/>
<line x1="66" y1="854.1" x2="878" y2="854.1" stroke="#e5e7eb" stroke-width="1"/>
<line x1="66" y1="826.7" x2="878" y2="826.7" stroke="#e5e7eb" stroke-width="1"/>
<line x1="66" y1="799.2" x2="878" y2="799.2" stroke="#e5e7eb" stroke-width="1"/>
<line x1="66" y1="771.7" x2="878" y2="771.7" stroke="#e5e7eb" stroke-width="1"/>
<line x1="66" y1="744.3" x2="878" y2="744.3" stroke="#e5e7eb" stroke-width="1"/>
<line x1="66" y1="716.8" x2="878" y2="716.8" stroke="#e5e7eb" stroke-width="1"/>
<path d="M66.0,861.9L72.8,846.1L79.6,800.7L86.5,810.4L93.3,817.7L100.1,810.1L106.9,823.8L113.8,834.8L120.6,839.9L127.4,846.4L134.2,812.6L141.1,817.1L147.9,835.1L154.7,820.0L161.5,815.7L168.4,840.9L175.2,841.2L182.0,862.0L188.8,849.9L195.6,840.7L202.5,827.4L209.3,838.6L216.1,823.3L222.9,831.9L229.8,836.9L236.6,846.0L243.4,851.6L250.2,838.2L257.1,858.9L263.9,843.0L270.7,856.9L277.5,857.4L284.4,850.2L291.2,832.3L298.0,815.1L304.8,799.3L311.6,806.2L318.5,819.2L325.3,815.2L332.1,820.8L338.9,832.4L345.8,830.6L352.6,808.1L359.4,780.6L366.2,797.5L373.1,796.2L379.9,811.1L386.7,840.9L393.5,840.6L400.4,831.7L407.2,836.7L414.0,839.1L420.8,846.8L427.6,849.1L434.5,830.4L441.3,814.0L448.1,817.3L454.9,807.5L461.8,813.8L468.6,801.6L475.4,813.1L482.2,816.7L489.1,816.9L495.9,814.9L502.7,812.2L509.5,837.4L516.4,827.9L523.2,819.9L530.0,813.1L536.8,814.7L543.6,813.3L550.5,818.5L557.3,822.4L564.1,842.2L570.9,839.0L577.8,836.1L584.6,818.9L591.4,821.5L598.2,826.3L605.1,814.8L611.9,787.8L618.7,794.6L625.5,788.7L632.4,794.5L639.2,797.7L646.0,800.1L652.8,804.5L659.6,811.7L666.5,826.9L673.3,801.5L680.1,803.4L686.9,777.9L693.8,746.6L700.6,750.9L707.4,755.3L714.2,770.1L721.1,756.8L727.9,780.4L734.7,802.3L741.5,791.3L748.4,804.0L755.2,779.2L762.0,776.3L768.8,772.4L775.6,757.5L782.5,753.7L789.3,724.5L796.1,760.7L802.9,767.7L809.8,785.6L816.6,777.3L823.4,741.0L830.2,735.2L837.1,762.7L843.9,756.1L850.7,757.2L857.5,745.2L864.4,754.1L871.2,757.0L878.0,758.1L878.0,787.3L871.2,785.3L864.4,782.3L857.5,773.4L850.7,785.4L843.9,784.4L837.1,790.9L830.2,763.5L823.4,769.3L816.6,805.5L809.8,813.8L802.9,795.9L796.1,788.9L789.3,752.6L782.5,781.9L775.6,785.6L768.8,800.5L762.0,804.5L755.2,807.3L748.4,832.2L741.5,819.4L734.7,830.4L727.9,808.5L721.1,784.9L714.2,798.2L707.4,783.4L700.6,779.1L693.8,774.7L686.9,806.0L680.1,831.5L673.3,829.7L666.5,855.1L659.6,839.8L652.8,832.6L646.0,828.3L639.2,825.9L632.4,822.6L625.5,816.8L618.7,822.8L611.9,816.0L605.1,842.9L598.2,854.4L591.4,849.6L584.6,847.0L577.8,864.3L570.9,867.1L564.1,870.4L557.3,850.5L550.5,846.6L543.6,841.4L536.8,842.8L530.0,841.3L523.2,848.0L516.4,856.1L509.5,865.5L502.7,840.3L495.9,843.0L489.1,845.0L482.2,844.8L475.4,841.2L468.6,829.8L461.8,841.9L454.9,835.7L448.1,845.4L441.3,842.2L434.5,858.5L427.6,877.2L420.8,875.0L414.0,867.2L407.2,864.9L400.4,859.9L393.5,868.7L386.7,869.0L379.9,839.3L373.1,824.4L366.2,825.7L359.4,808.7L352.6,836.2L345.8,858.8L338.9,860.6L332.1,849.0L325.3,843.4L318.5,847.3L311.6,834.3L304.8,827.4L298.0,843.2L291.2,860.5L284.4,878.3L277.5,885.5L270.7,885.1L263.9,871.1L257.1,887.0L250.2,866.3L243.4,879.8L236.6,874.2L229.8,865.0L222.9,860.0L216.1,851.5L209.3,866.7L202.5,855.5L195.6,868.9L188.8,878.1L182.0,890.1L175.2,869.4L168.4,869.1L161.5,843.9L154.7,848.2L147.9,863.3L141.1,845.3L134.2,840.8L127.4,874.6L120.6,868.2L113.8,863.0L106.9,852.0L100.1,838.4L93.3,845.9L86.5,838.7L79.6,829.0L72.8,874.4L66.0,894.0Z" fill="rgba(37,99,235,0.12)" stroke="none"/>
<path d="M66.0,861.9L72.8,846.1L79.6,800.7L86.5,810.4L93.3,817.7L100.1,810.1L106.9,823.8L113.8,834.8L120.6,839.9L127.4,846.4L134.2,812.6L141.1,817.1L147.9,835.1L154.7,820.0L161.5,815.7L168.4,840.9L175.2,841.2L182.0,862.0L188.8,849.9L195.6,840.7L202.5,827.4L209.3,838.6L216.1,823.3L222.9,831.9L229.8,836.9L236.6,846.0L243.4,851.6L250.2,838.2L257.1,858.9L263.9,843.0L270.7,856.9L277.5,857.4L284.4,850.2L291.2,832.3L298.0,815.1L304.8,799.3L311.6,806.2L318.5,819.2L325.3,815.2L332.1,820.8L338.9,832.4L345.8,830.6L352.6,808.1L359.4,780.6L366.2,797.5L373.1,796.2L379.9,811.1L386.7,840.9L393.5,840.6L400.4,831.7L407.2,836.7L414.0,839.1L420.8,846.8L427.6,849.1L434.5,830.4L441.3,814.0L448.1,817.3L454.9,807.5L461.8,813.8L468.6,801.6L475.4,813.1L482.2,816.7L489.1,816.9L495.9,814.9L502.7,812.2L509.5,837.4L516.4,827.9L523.2,819.9L530.0,813.1L536.8,814.7L543.6,813.3L550.5,818.5L557.3,822.4L564.1,842.2L570.9,839.0L577.8,836.1L584.6,818.9L591.4,821.5L598.2,826.3L605.1,814.8L611.9,787.8L618.7,794.6L625.5,788.7L632.4,794.5L639.2,797.7L646.0,800.1L652.8,804.5L659.6,811.7L666.5,826.9L673.3,801.5L680.1,803.4L686.9,777.9L693.8,746.6L700.6,750.9L707.4,755.3L714.2,770.1L721.1,756.8L727.9,780.4L734.7,802.3L741.5,791.3L748.4,804.0L755.2,779.2L762.0,776.3L768.8,772.4L775.6,757.5L782.5,753.7L789.3,724.5L796.1,760.7L802.9,767.7L809.8,785.6L816.6,777.3L823.4,741.0L830.2,735.2L837.1,762.7L843.9,756.1L850.7,757.2L857.5,745.2L864.4,754.1L871.2,757.0L878.0,758.1L878.0,787.3L871.2,785.3L864.4,782.3L857.5,773.4L850.7,785.4L843.9,784.4L837.1,790.9L830.2,763.5L823.4,769.3L816.6,805.5L809.8,813.8L802.9,795.9L796.1,788.9L789.3,752.6L782.5,781.9L775.6,785.6L768.8,800.5L762.0,804.5L755.2,807.3L748.4,832.2L741.5,819.4L734.7,830.4L727.9,808.5L721.1,784.9L714.2,798.2L707.4,783.4L700.6,779.1L693.8,774.7L686.9,806.0L680.1,831.5L673.3,829.7L666.5,855.1L659.6,839.8L652.8,832.6L646.0,828.3L639.2,825.9L632.4,822.6L625.5,816.8L618.7,822.8L611.9,816.0L605.1,842.9L598.2,854.4L591.4,849.6L584.6,847.0L577.8,864.3L570.9,867.1L564.1,870.4L557.3,850.5L550.5,846.6L543.6,841.4L536.8,842.8L530.0,841.3L523.2,848.0L516.4,856.1L509.5,865.5L502.7,840.3L495.9,843.0L489.1,845.0L482.2,844.8L475.4,841.2L468.6,829.8L461.8,841.9L454.9,835.7L448.1,845.4L441.3,842.2L434.5,858.5L427.6,877.2L420.8,875.0L414.0,867.2L407.2,864.9L400.4,859.9L393.5,868.7L386.7,869.0L379.9,839.3L373.1,824.4L366.2,825.7L359.4,808.7L352.6,836.2L345.8,858.8L338.9,860.6L332.1,849.0L325.3,843.4L318.5,847.3L311.6,834.3L304.8,827.4L298.0,843.2L291.2,860.5L284.4,878.3L277.5,885.5L270.7,885.1L263.9,871.1L257.1,887.0L250.2,866.3L243.4,879.8L236.6,874.2L229.8,865.0L222.9,860.0L216.1,851.5L209.3,866.7L202.5,855.5L195.6,868.9L188.8,878.1L182.0,890.1L175.2,869.4L168.4,869.1L161.5,843.9L154.7,848.2L147.9,863.3L141.1,845.3L134.2,840.8L127.4,874.6L120.6,868.2L113.8,863.0L106.9,852.0L100.1,838.4L93.3,845.9L86.5,838.7L79.6,829.0L72.8,874.4L66.0,894.0Z" fill="rgba(239,68,68,0.12)" stroke="none"/>
<polyline points="66.0,869.9 72.8,862.3 79.6,820.0 86.5,829.6 93.3,841.8 100.1,829.8 106.9,830.7 113.8,846.4 120.6,853.4 127.4,868.4 134.2,827.7 141.1,847.9 147.9,866.0 154.7,835.5 161.5,832.1 168.4,858.6 175.2,849.0 182.0,885.8 188.8,849.1 195.6,858.6 202.5,836.4 209.3,851.0 216.1,835.6 222.9,853.5 229.8,857.8 236.6,866.3 243.4,863.8 250.2,847.3 257.1,871.1 263.9,856.9 270.7,861.1 277.5,872.8 284.4,867.6 291.2,842.9 298.0,828.3 304.8,814.0 311.6,824.7 318.5,829.5 325.3,831.1 332.1,840.5 338.9,838.7 345.8,840.5 352.6,823.7 359.4,791.8 366.2,807.7 373.1,807.1 379.9,829.2 386.7,855.1 393.5,857.4 400.4,856.0 407.2,855.0 414.0,856.4 420.8,865.2 427.6,874.2 434.5,847.5 441.3,837.6 448.1,831.5 454.9,830.2 461.8,835.7 468.6,818.6 475.4,830.9 482.2,836.6 489.1,833.6 495.9,831.2 502.7,828.1 509.5,855.6 516.4,863.1 523.2,837.3 530.0,825.2 536.8,826.1 543.6,822.0 550.5,831.5 557.3,829.1 564.1,856.8 570.9,842.6 577.8,854.2 584.6,820.8 591.4,839.8 598.2,843.2 605.1,835.0 611.9,806.2 618.7,799.4 625.5,806.1 632.4,786.9 639.2,805.3 646.0,819.9 652.8,822.4 659.6,832.0 666.5,852.3 673.3,816.6 680.1,823.1 686.9,789.4 693.8,769.7 700.6,766.2 707.4,765.5 714.2,780.9 721.1,765.4 727.9,792.0 734.7,806.8 741.5,818.3 748.4,816.0 755.2,778.3 762.0,796.2 768.8,779.8 775.6,774.1 782.5,776.4 789.3,745.4 796.1,765.7 802.9,775.9 809.8,806.3 816.6,790.9 823.4,748.2 830.2,739.3 837.1,777.3 843.9,774.1 850.7,780.4 857.5,766.0 864.4,769.7 871.2,766.3 878.0,780.7" fill="none" stroke="#16a34a" stroke-width="1.5" stroke-dasharray="3,3"/>
<polyline points="66.0,877.9 72.8,860.2 79.6,814.9 86.5,824.5 93.3,831.8 100.1,824.2 106.9,837.9 113.8,848.9 120.6,854.1 127.4,860.5 134.2,826.7 141.1,831.2 147.9,849.2 154.7,834.1 161.5,829.8 168.4,855.0 175.2,855.3 182.0,876.0 188.8,864.0 195.6,854.8 202.5,841.5 209.3,852.7 216.1,837.4 222.9,846.0 229.8,851.0 236.6,860.1 243.4,865.7 250.2,852.2 257.1,873.0 263.9,857.1 270.7,871.0 277.5,871.5 284.4,864.3 291.2,846.4 298.0,829.2 304.8,813.4 311.6,820.3 318.5,833.2 325.3,829.3 332.1,834.9 338.9,846.5 345.8,844.7 352.6,822.1 359.4,794.7 366.2,811.6 373.1,810.3 379.9,825.2 386.7,854.9 393.5,854.7 400.4,845.8 407.2,850.8 414.0,853.2 420.8,860.9 427.6,863.2 434.5,844.4 441.3,828.1 448.1,831.4 454.9,821.6 461.8,827.9 468.6,815.7 475.4,827.2 482.2,830.8 489.1,831.0 495.9,828.9 502.7,826.2 509.5,851.5 516.4,842.0 523.2,833.9 530.0,827.2 536.8,828.8 543.6,827.4 550.5,832.6 557.3,836.5 564.1,856.3 570.9,853.0 577.8,850.2 584.6,832.9 591.4,835.6 598.2,840.4 605.1,828.9 611.9,801.9 618.7,808.7 625.5,802.7 632.4,808.5 639.2,811.8 646.0,814.2 652.8,818.6 659.6,825.7 666.5,841.0 673.3,815.6 680.1,817.4 686.9,792.0 693.8,760.6 700.6,765.0 707.4,769.3 714.2,784.2 721.1,770.9 727.9,794.5 734.7,816.3 741.5,805.3 748.4,818.1 755.2,793.3 762.0,790.4 768.8,786.4 775.6,771.6 782.5,767.8 789.3,738.6 796.1,774.8 802.9,781.8 809.8,799.7 816.6,791.4 823.4,755.2 830.2,749.3 837.1,776.8 843.9,770.3 850.7,771.3 857.5,759.3 864.4,768.2 871.2,771.2 878.0,772.7" fill="none" stroke="#2563eb" stroke-width="2"/>
<polyline points="66.0,877.9 72.8,860.2 79.6,814.9 86.5,824.5 93.3,831.8 100.1,824.2 106.9,837.9 113.8,848.9 120.6,854.1 127.4,860.5 134.2,826.7 141.1,831.2 147.9,849.2 154.7,834.1 161.5,829.8 168.4,855.0 175.2,855.3 182.0,876.0 188.8,864.0 195.6,854.8 202.5,841.5 209.3,852.7 216.1,837.4 222.9,846.0 229.8,851.0 236.6,860.1 243.4,865.7 250.2,852.2 257.1,873.0 263.9,857.1 270.7,871.0 277.5,871.5 284.4,864.3 291.2,846.4 298.0,829.2 304.8,813.4 311.6,820.3 318.5,833.2 325.3,829.3 332.1,834.9 338.9,846.5 345.8,844.7 352.6,822.1 359.4,794.7 366.2,811.6 373.1,810.3 379.9,825.2 386.7,854.9 393.5,854.7 400.4,845.8 407.2,850.8 414.0,853.2 420.8,860.9 427.6,863.2 434.5,844.4 441.3,828.1 448.1,831.4 454.9,821.6 461.8,827.9 468.6,815.7 475.4,827.2 482.2,830.8 489.1,831.0 495.9,828.9 502.7,826.2 509.5,851.5 516.4,842.0 523.2,833.9 530.0,827.2 536.8,828.8 543.6,827.4 550.5,832.6 557.3,836.5 564.1,856.3 570.9,853.0 577.8,850.2 584.6,832.9 591.4,835.6 598.2,840.4 605.1,828.9 611.9,801.9 618.7,808.7 625.5,802.7 632.4,808.5 639.2,811.8 646.0,814.2 652.8,818.6 659.6,825.7 666.5,841.0 673.3,815.6 680.1,817.4 686.9,792.0 693.8,760.6 700.6,765.0 707.4,769.3 714.2,784.2 721.1,770.9 727.9,794.5 734.7,816.3 741.5,805.3 748.4,818.1 755.2,793.3 762.0,790.4 768.8,786.4 775.6,771.6 782.5,767.8 789.3,738.6 796.1,774.8 802.9,781.8 809.8,799.7 816.6,791.4 823.4,755.2 830.2,749.3 837.1,776.8 843.9,770.3 850.7,771.3 857.5,759.3 864.4,768.2 871.2,771.2 878.0,772.7" fill="none" stroke="#ef4444" stroke-width="2" stroke-dasharray="6,3"/>
<circle cx="66.0" cy="877.0" r="2.0" fill="#555" opacity="0.50"/>
<circle cx="72.8" cy="867.6" r="2.0" fill="#555" opacity="0.50"/>
<circle cx="79.6" cy="803.9" r="2.0" fill="#555" opacity="0.50"/>
<circle cx="86.5" cy="822.8" r="2.0" fill="#555" opacity="0.50"/>
<circle cx="93.3" cy="832.4" r="2.0" fill="#555" opacity="0.50"/>
<circle cx="100.1" cy="818.2" r="2.0" fill="#555" opacity="0.50"/>
<circle cx="106.9" cy="837.1" r="2.0" fill="#555" opacity="0.50"/>
<circle cx="113.8" cy="850.2" r="2.0" fill="#555" opacity="0.50"/>
<circle cx="120.6" cy="855.3" r="2.0" fill="#555" opacity="0.50"/>
<circle cx="127.4" cy="869.4" r="2.0" fill="#555" opacity="0.50"/>
<circle cx="134.2" cy="820.0" r="2.0" fill="#555" opacity="0.50"/>
<circle cx="141.1" cy="828.9" r="2.0" fill="#555" opacity="0.50"/>
<circle cx="147.9" cy="855.8" r="2.0" fill="#555" opacity="0.50"/>
<circle cx="154.7" cy="831.8" r="2.0" fill="#555" opacity="0.50"/>
<circle cx="161.5" cy="823.5" r="2.0" fill="#555" opacity="0.50"/>
<circle cx="168.4" cy="859.2" r="2.0" fill="#555" opacity="0.50"/>
<circle cx="175.2" cy="852.2" r="2.0" fill="#555" opacity="0.50"/>
<circle cx="182.0" cy="883.3" r="2.0" fill="#555" opacity="0.50"/>
<circle cx="188.8" cy="864.6" r="2.0" fill="#555" opacity="0.50"/>
<circle cx="195.6" cy="855.9" r="2.0" fill="#555" opacity="0.50"/>
<circle cx="202.5" cy="837.3" r="2.0" fill="#555" opacity="0.50"/>
<circle cx="209.3" cy="858.2" r="2.0" fill="#555" opacity="0.50"/>
<circle cx="216.1" cy="833.9" r="2.0" fill="#555" opacity="0.50"/>
<circle cx="222.9" cy="847.6" r="2.0" fill="#555" opacity="0.50"/>
<circle cx="229.8" cy="851.7" r="2.0" fill="#555" opacity="0.50"/>
<circle cx="236.6" cy="862.4" r="2.0" fill="#555" opacity="0.50"/>
<circle cx="243.4" cy="870.3" r="2.0" fill="#555" opacity="0.50"/>
<circle cx="250.2" cy="846.6" r="2.0" fill="#555" opacity="0.50"/>
<circle cx="257.1" cy="880.2" r="2.0" fill="#555" opacity="0.50"/>
<circle cx="263.9" cy="852.4" r="2.0" fill="#555" opacity="0.50"/>
<circle cx="270.7" cy="875.0" r="2.0" fill="#555" opacity="0.50"/>
<circle cx="277.5" cy="875.3" r="2.0" fill="#555" opacity="0.50"/>
<circle cx="284.4" cy="868.6" r="2.0" fill="#555" opacity="0.50"/>
<circle cx="291.2" cy="847.6" r="2.0" fill="#555" opacity="0.50"/>
<circle cx="298.0" cy="828.7" r="2.0" fill="#555" opacity="0.50"/>
<circle cx="304.8" cy="807.7" r="2.0" fill="#555" opacity="0.50"/>
<circle cx="311.6" cy="817.6" r="2.0" fill="#555" opacity="0.50"/>
<circle cx="318.5" cy="834.8" r="2.0" fill="#555" opacity="0.50"/>
<circle cx="325.3" cy="825.7" r="2.0" fill="#555" opacity="0.50"/>
<circle cx="332.1" cy="832.0" r="2.0" fill="#555" opacity="0.50"/>
<circle cx="338.9" cy="847.7" r="2.0" fill="#555" opacity="0.50"/>
<circle cx="345.8" cy="847.1" r="2.0" fill="#555" opacity="0.50"/>
<circle cx="352.6" cy="820.1" r="2.0" fill="#555" opacity="0.50"/>
<circle cx="359.4" cy="782.8" r="2.0" fill="#555" opacity="0.50"/>
<circle cx="366.2" cy="812.0" r="2.0" fill="#555" opacity="0.50"/>
<circle cx="373.1" cy="805.9" r="2.0" fill="#555" opacity="0.50"/>
<circle cx="379.9" cy="822.9" r="2.0" fill="#555" opacity="0.50"/>
<circle cx="386.7" cy="862.6" r="2.0" fill="#555" opacity="0.50"/>
<circle cx="393.5" cy="858.4" r="2.0" fill="#555" opacity="0.50"/>
<circle cx="400.4" cy="844.3" r="2.0" fill="#555" opacity="0.50"/>
<circle cx="407.2" cy="851.6" r="2.0" fill="#555" opacity="0.50"/>
<circle cx="414.0" cy="852.5" r="2.0" fill="#555" opacity="0.50"/>
<circle cx="420.8" cy="862.7" r="2.0" fill="#555" opacity="0.50"/>
<circle cx="427.6" cy="868.0" r="2.0" fill="#555" opacity="0.50"/>
<circle cx="434.5" cy="844.3" r="2.0" fill="#555" opacity="0.50"/>
<circle cx="441.3" cy="824.3" r="2.0" fill="#555" opacity="0.50"/>
<circle cx="448.1" cy="833.8" r="2.0" fill="#555" opacity="0.50"/>
<circle cx="454.9" cy="819.0" r="2.0" fill="#555" opacity="0.50"/>
<circle cx="461.8" cy="831.4" r="2.0" fill="#555" opacity="0.50"/>
<circle cx="468.6" cy="811.1" r="2.0" fill="#555" opacity="0.50"/>
<circle cx="475.4" cy="828.0" r="2.0" fill="#555" opacity="0.50"/>
<circle cx="482.2" cy="830.6" r="2.0" fill="#555" opacity="0.50"/>
<circle cx="489.1" cy="829.8" r="2.0" fill="#555" opacity="0.50"/>
<circle cx="495.9" cy="826.9" r="2.0" fill="#555" opacity="0.50"/>
<circle cx="502.7" cy="819.5" r="2.0" fill="#555" opacity="0.50"/>
<circle cx="509.5" cy="857.6" r="2.0" fill="#555" opacity="0.50"/>
<circle cx="516.4" cy="842.4" r="2.0" fill="#555" opacity="0.50"/>
<circle cx="523.2" cy="834.4" r="2.0" fill="#555" opacity="0.50"/>
<circle cx="530.0" cy="826.7" r="2.0" fill="#555" opacity="0.50"/>
<circle cx="536.8" cy="830.7" r="2.0" fill="#555" opacity="0.50"/>
<circle cx="543.6" cy="827.8" r="2.0" fill="#555" opacity="0.50"/>
<circle cx="550.5" cy="834.5" r="2.0" fill="#555" opacity="0.50"/>
<circle cx="557.3" cy="835.4" r="2.0" fill="#555" opacity="0.50"/>
<circle cx="564.1" cy="862.6" r="2.0" fill="#555" opacity="0.50"/>
<circle cx="570.9" cy="854.7" r="2.0" fill="#555" opacity="0.50"/>
<circle cx="577.8" cy="853.4" r="2.0" fill="#555" opacity="0.50"/>
<circle cx="584.6" cy="829.0" r="2.0" fill="#555" opacity="0.50"/>
<circle cx="591.4" cy="835.3" r="2.0" fill="#555" opacity="0.50"/>
<circle cx="598.2" cy="844.5" r="2.0" fill="#555" opacity="0.50"/>
<circle cx="605.1" cy="832.7" r="2.0" fill="#555" opacity="0.50"/>
<circle cx="611.9" cy="796.1" r="2.0" fill="#555" opacity="0.50"/>
<circle cx="618.7" cy="811.5" r="2.0" fill="#555" opacity="0.50"/>
<circle cx="625.5" cy="801.3" r="2.0" fill="#555" opacity="0.50"/>
<circle cx="632.4" cy="809.5" r="2.0" fill="#555" opacity="0.50"/>
<circle cx="639.2" cy="812.2" r="2.0" fill="#555" opacity="0.50"/>
<circle cx="646.0" cy="813.5" r="2.0" fill="#555" opacity="0.50"/>
<circle cx="652.8" cy="817.6" r="2.0" fill="#555" opacity="0.50"/>
<circle cx="659.6" cy="824.4" r="2.0" fill="#555" opacity="0.50"/>
<circle cx="666.5" cy="849.1" r="2.0" fill="#555" opacity="0.50"/>
<circle cx="673.3" cy="811.1" r="2.0" fill="#555" opacity="0.50"/>
<circle cx="680.1" cy="822.7" r="2.0" fill="#555" opacity="0.50"/>
<circle cx="686.9" cy="792.3" r="2.0" fill="#555" opacity="0.50"/>
<circle cx="693.8" cy="752.1" r="2.0" fill="#555" opacity="0.50"/>
<circle cx="700.6" cy="763.1" r="2.0" fill="#555" opacity="0.50"/>
<circle cx="707.4" cy="766.4" r="2.0" fill="#555" opacity="0.50"/>
<circle cx="714.2" cy="788.4" r="2.0" fill="#555" opacity="0.50"/>
<circle cx="721.1" cy="762.8" r="2.0" fill="#555" opacity="0.50"/>
<circle cx="727.9" cy="794.1" r="2.0" fill="#555" opacity="0.50"/>
<circle cx="734.7" cy="822.5" r="2.0" fill="#555" opacity="0.50"/>
<circle cx="741.5" cy="801.3" r="2.0" fill="#555" opacity="0.50"/>
<circle cx="748.4" cy="825.1" r="2.0" fill="#555" opacity="0.50"/>
<circle cx="755.2" cy="789.2" r="2.0" fill="#555" opacity="0.50"/>
<circle cx="762.0" cy="790.7" r="2.0" fill="#555" opacity="0.50"/>
<circle cx="768.8" cy="788.9" r="2.0" fill="#555" opacity="0.50"/>
<circle cx="775.6" cy="770.0" r="2.0" fill="#555" opacity="0.50"/>
<circle cx="782.5" cy="771.9" r="2.0" fill="#555" opacity="0.50"/>
<circle cx="789.3" cy="725.4" r="2.0" fill="#555" opacity="0.50"/>
<circle cx="796.1" cy="779.8" r="2.0" fill="#555" opacity="0.50"/>
<circle cx="802.9" cy="780.6" r="2.0" fill="#555" opacity="0.50"/>
<circle cx="809.8" cy="805.4" r="2.0" fill="#555" opacity="0.50"/>
<circle cx="816.6" cy="795.8" r="2.0" fill="#555" opacity="0.50"/>
<circle cx="823.4" cy="746.3" r="2.0" fill="#555" opacity="0.50"/>
<circle cx="830.2" cy="739.7" r="2.0" fill="#555" opacity="0.50"/>
<circle cx="837.1" cy="781.4" r="2.0" fill="#555" opacity="0.50"/>
<circle cx="843.9" cy="768.7" r="2.0" fill="#555" opacity="0.50"/>
<circle cx="850.7" cy="774.0" r="2.0" fill="#555" opacity="0.50"/>
<circle cx="857.5" cy="756.4" r="2.0" fill="#555" opacity="0.50"/>
<circle cx="864.4" cy="770.8" r="2.0" fill="#555" opacity="0.50"/>
<circle cx="871.2" cy="773.4" r="2.0" fill="#555" opacity="0.50"/>
<circle cx="878.0" cy="774.9" r="2.0" fill="#555" opacity="0.50"/>
<line x1="66" y1="710.5" x2="66" y2="908" stroke="#333" stroke-width="1.5"/>
<line x1="66" y1="908" x2="878" y2="908" stroke="#333" stroke-width="1.5"/>
<line x1="61" y1="881.6" x2="66" y2="881.6" stroke="#333" stroke-width="1.5"/>
<text x="58" y="881.6" text-anchor="end" dominant-baseline="middle" fill="#333">95</text>
<line x1="61" y1="854.1" x2="66" y2="854.1" stroke="#333" stroke-width="1.5"/>
<text x="58" y="854.1" text-anchor="end" dominant-baseline="middle" fill="#333">100</text>
<line x1="61" y1="826.7" x2="66" y2="826.7" stroke="#333" stroke-width="1.5"/>
<text x="58" y="826.7" text-anchor="end" dominant-baseline="middle" fill="#333">105</text>
<line x1="61" y1="799.2" x2="66" y2="799.2" stroke="#333" stroke-width="1.5"/>
<text x="58" y="799.2" text-anchor="end" dominant-baseline="middle" fill="#333">110</text>
<line x1="61" y1="771.7" x2="66" y2="771.7" stroke="#333" stroke-width="1.5"/>
<text x="58" y="771.7" text-anchor="end" dominant-baseline="middle" fill="#333">115</text>
<line x1="61" y1="744.3" x2="66" y2="744.3" stroke="#333" stroke-width="1.5"/>
<text x="58" y="744.3" text-anchor="end" dominant-baseline="middle" fill="#333">120</text>
<line x1="61" y1="716.8" x2="66" y2="716.8" stroke="#333" stroke-width="1.5"/>
<text x="58" y="716.8" text-anchor="end" dominant-baseline="middle" fill="#333">125</text>
<line x1="141.1" y1="908" x2="141.1" y2="913" stroke="#333" stroke-width="1.5"/>
<text x="141.1" y="926" text-anchor="middle" fill="#333">1y</text>
<line x1="222.9" y1="908" x2="222.9" y2="913" stroke="#333" stroke-width="1.5"/>
<text x="222.9" y="926" text-anchor="middle" fill="#333">2y</text>
<line x1="304.8" y1="908" x2="304.8" y2="913" stroke="#333" stroke-width="1.5"/>
<text x="304.8" y="926" text-anchor="middle" fill="#333">3y</text>
<line x1="386.7" y1="908" x2="386.7" y2="913" stroke="#333" stroke-width="1.5"/>
<text x="386.7" y="926" text-anchor="middle" fill="#333">4y</text>
<line x1="468.6" y1="908" x2="468.6" y2="913" stroke="#333" stroke-width="1.5"/>
<text x="468.6" y="926" text-anchor="middle" fill="#333">5y</text>
<line x1="550.5" y1="908" x2="550.5" y2="913" stroke="#333" stroke-width="1.5"/>
<text x="550.5" y="926" text-anchor="middle" fill="#333">6y</text>
<line x1="632.4" y1="908" x2="632.4" y2="913" stroke="#333" stroke-width="1.5"/>
<text x="632.4" y="926" text-anchor="middle" fill="#333">7y</text>
<line x1="714.2" y1="908" x2="714.2" y2="913" stroke="#333" stroke-width="1.5"/>
<text x="714.2" y="926" text-anchor="middle" fill="#333">8y</text>
<line x1="796.1" y1="908" x2="796.1" y2="913" stroke="#333" stroke-width="1.5"/>
<text x="796.1" y="926" text-anchor="middle" fill="#333">9y</text>
<line x1="878.0" y1="908" x2="878.0" y2="913" stroke="#333" stroke-width="1.5"/>
<text x="878.0" y="926" text-anchor="middle" fill="#333">10y</text>
<text x="72" y="724.5" text-anchor="start" fill="#333" font-size="12" font-weight="600">Combined F·x = x[0]+x[2]+x[4] ± 2σ (covariance-aware)</text>
<text x="14" y="809.25" text-anchor="middle" fill="#333" font-size="13" transform="rotate(-90,14,809.25)">Demand</text>
<text x="450" y="952" text-anchor="middle" fill="#333" font-size="13">Month</text>
<rect x="318" y="54" width="308" height="78" rx="4" fill="white" stroke="#e5e7eb" stroke-width="1"/>
<circle cx="332" cy="68" r="3" fill="#555" opacity="0.6"/>
<text x="342" y="68" dominant-baseline="middle" fill="#333" font-size="11">Observations (synthetic energy demand)</text>
<line x1="326" y1="84" x2="338" y2="84" stroke="#16a34a" stroke-width="1.5" stroke-dasharray="3,3"/>
<text x="342" y="84" dominant-baseline="middle" fill="#333" font-size="11">True hidden state (generating process)</text>
<line x1="326" y1="100" x2="338" y2="100" stroke="#2563eb" stroke-width="2"/>
<rect x="326" y="95" width="12" height="10" fill="rgba(37,99,235,0.12)" stroke="none"/>
<text x="342" y="100" dominant-baseline="middle" fill="#333" font-size="11">dlm-js mean ± 2σ</text>
<line x1="326" y1="116" x2="338" y2="116" stroke="#ef4444" stroke-width="2" stroke-dasharray="6,3"/>
<rect x="326" y="111" width="12" height="10" fill="rgba(239,68,68,0.12)" stroke="none"/>
<text x="342" y="116" dominant-baseline="middle" fill="#333" font-size="11">MATLAB/Octave mean ± 2σ</text>
</svg>